<svg xmlns="http://www.w3.org/2000/svg" width="792" height="612" viewBox="0 0 792 612">
<rect width="792" height="612" fill="white"/>
<defs>
  <marker id="ah" markerWidth="8" markerHeight="6" refX="8" refY="3" orient="auto"><polygon points="0 0, 8 3, 0 6" fill="#333"/></marker>
</defs>
<text x="396.0" y="30" text-anchor="middle" font-family="Arial" font-size="14" font-weight="bold">Floorplan &#8212; 8&#8243; Walls</text>
<polygon points="163.4,228.1 163.4,266.9 163.4,267.6 163.4,268.3 163.3,269.0 163.2,269.7 163.1,270.4 163.0,271.1 162.8,271.8 162.6,272.5 162.4,273.1 162.2,273.8 161.9,274.5 161.6,275.1 161.3,275.7 161.0,276.3 160.6,277.0 160.3,277.6 159.9,278.1 159.4,278.7 159.0,279.2 158.6,279.8 157.9,280.5 157.3,281.3 156.7,282.1 156.2,282.9 155.7,283.7 155.2,284.6 154.7,285.5 154.3,286.3 153.9,287.2 153.5,288.2 153.2,289.1 152.9,290.0 152.6,291.0 152.4,291.9 152.2,292.9 152.0,293.9 151.9,294.8 151.8,295.8 151.8,296.8 151.8,297.8 151.8,492.3 151.8,493.1 151.9,493.8 152.0,494.6 152.2,495.3 152.5,496.0 152.8,496.7 153.2,497.4 153.6,498.0 154.1,498.6 154.6,499.2 155.2,499.7 155.8,500.2 156.4,500.6 157.1,501.0 157.8,501.3 158.5,501.6 159.2,501.8 159.9,501.9 160.7,502.0 161.5,502.0 379.3,502.0 379.6,502.0 379.8,502.0 380.0,502.0 380.3,502.1 380.5,502.1 380.7,502.1 381.0,502.1 381.2,502.1 381.4,502.1 381.7,502.2 381.9,502.2 382.1,502.2 382.3,502.3 382.6,502.3 382.8,502.3 383.0,502.4 383.3,502.4 383.5,502.5 383.7,502.5 384.0,502.6 384.2,502.6 384.4,502.7 384.6,502.8 384.9,502.8 385.1,502.9 385.3,503.0 385.5,503.0 385.7,503.1 386.0,503.2 386.2,503.3 386.4,503.4 386.6,503.5 386.8,503.5 387.1,503.6 387.3,503.7 387.5,503.8 387.7,503.9 387.9,504.0 388.1,504.1 388.3,504.2 388.5,504.3 388.7,504.5 388.9,504.6 389.1,504.7 389.3,504.8 389.5,504.9 389.7,505.1 389.9,505.2 390.1,505.3 390.3,505.4 390.5,505.6 390.7,505.7 390.9,505.9 391.1,506.0 391.3,506.1 391.5,506.3 391.6,506.4 391.8,506.6 392.0,506.7 392.2,506.9 392.4,507.1 392.7,507.3 392.9,507.5 393.2,507.7 393.4,507.9 393.7,508.1 394.0,508.3 394.2,508.5 394.5,508.7 394.8,508.9 395.0,509.1 395.3,509.3 395.6,509.4 395.8,509.6 396.1,509.8 396.4,510.0 396.7,510.1 397.0,510.3 397.3,510.4 397.6,510.6 397.8,510.7 398.1,510.9 398.4,511.0 398.7,511.2 399.0,511.3 399.3,511.4 399.6,511.6 399.9,511.7 400.2,511.8 400.5,511.9 400.9,512.0 401.2,512.2 401.5,512.3 401.8,512.4 402.1,512.5 402.4,512.6 402.7,512.6 403.0,512.7 403.4,512.8 403.7,512.9 404.0,513.0 404.3,513.0 404.6,513.1 405.0,513.2 405.3,513.2 405.6,513.3 405.9,513.4 406.2,513.4 406.6,513.4 406.9,513.5 407.2,513.5 407.5,513.6 407.9,513.6 408.2,513.6 408.5,513.6 408.9,513.7 409.2,513.7 409.5,513.7 409.8,513.7 410.2,513.7 480.1,513.7 480.8,513.7 481.5,513.6 482.2,513.6 482.9,513.5 483.6,513.5 484.3,513.4 485.0,513.2 485.7,513.1 486.4,512.9 487.1,512.8 487.8,512.6 488.5,512.4 489.1,512.1 489.8,511.9 490.5,511.6 491.1,511.3 491.8,511.0 492.4,510.7 493.0,510.4 493.7,510.0 570.9,465.5 572.0,464.7 573.0,463.9 574.0,463.0 575.0,462.1 576.0,461.1 576.8,460.1 577.7,459.1 578.4,458.0 579.2,456.8 579.8,455.7 580.4,454.5 581.0,453.2 581.5,452.0 581.9,450.7 582.3,449.4 582.6,448.1 582.8,446.8 583.0,445.4 583.0,444.1 583.1,442.8 583.1,352.4 583.1,352.1 583.1,351.7 583.1,351.3 583.1,351.0 583.1,350.6 583.1,350.3 583.0,349.9 583.0,349.5 583.0,349.2 583.0,348.8 583.0,348.5 583.0,348.1 582.9,347.7 582.9,347.4 582.9,347.0 582.9,346.7 582.9,346.3 582.8,345.9 582.8,345.6 582.8,345.2 582.7,344.9 582.7,344.5 582.7,344.1 582.6,343.8 582.6,343.4 582.6,343.1 582.5,342.7 582.5,342.4 582.4,342.0 582.4,341.6 582.3,341.3 582.3,340.9 582.2,340.6 582.2,340.2 582.1,339.9 582.1,339.5 582.0,339.1 582.0,338.8 581.9,338.4 581.8,338.1 581.8,337.7 581.7,337.4 581.6,337.0 581.6,336.7 581.5,336.3 581.4,336.0 581.4,335.6 581.3,335.3 581.2,334.9 581.1,334.5 581.0,334.2 581.0,333.8 580.9,333.5 580.8,333.1 580.7,332.8 580.6,332.4 580.5,332.1 580.5,331.7 580.4,331.4 580.3,331.1 550.8,221.0 550.4,219.8 550.0,218.5 549.5,217.3 549.0,216.2 548.4,215.0 547.7,213.9 547.0,212.8 546.2,211.7 545.4,210.7 544.6,209.7 543.7,208.8 542.7,207.9 541.7,207.0 540.7,206.2 539.6,205.5 538.5,204.8 537.4,204.1 536.2,203.5 535.0,203.0 533.8,202.5 532.6,202.1 531.3,201.7 530.1,201.4 528.8,201.2 527.5,201.0 526.2,200.9 524.9,200.9 523.6,200.9 522.3,201.0 521.0,201.1 519.7,201.3 518.4,201.6 517.1,201.9 515.9,202.3 514.7,202.7 513.5,203.2 512.3,203.8 511.1,204.4 510.0,205.1 508.9,205.8 507.9,206.6 506.9,207.4 505.9,208.3 504.9,209.2 504.1,210.1 503.2,211.1 502.4,212.2 501.7,213.3 501.0,214.4 500.4,215.5 499.8,216.7 499.3,217.9 498.8,219.1 498.4,220.3 498.1,221.6 497.8,222.9 497.6,224.2 497.4,225.5 497.3,226.8 497.3,228.1 497.3,228.2 497.3,228.4 497.3,228.5 497.2,228.7 497.2,228.8 497.1,229.0 497.0,229.1 496.9,229.2 496.8,229.3 496.7,229.4 496.6,229.6 496.5,229.6 496.4,229.7 496.3,229.8 496.1,229.9 496.0,229.9 495.8,230.0 495.7,230.0 495.5,230.0 495.4,230.0 289.7,230.0 289.5,230.0 289.4,230.0 289.2,230.0 289.1,229.9 289.0,229.9 288.8,229.8 288.7,229.7 288.6,229.6 288.4,229.6 288.3,229.4 288.2,229.3 288.1,229.2 288.0,229.1 288.0,229.0 287.9,228.8 287.9,228.7 287.8,228.5 287.8,228.4 287.8,228.2 287.8,228.1 287.7,225.9 287.4,223.8 287.0,221.7 286.4,219.7 285.7,217.7 284.8,215.7 283.7,213.9 282.6,212.1 281.2,210.4 279.8,208.8 278.2,207.4 276.5,206.1 274.8,204.9 272.9,203.8 271.0,202.9 269.0,202.2 266.9,201.6 264.8,201.2 262.7,201.0 260.6,200.9 190.6,200.9 188.5,201.0 186.4,201.2 184.3,201.6 182.2,202.2 180.2,202.9 178.3,203.8 176.4,204.9 174.6,206.1 172.9,207.4 171.4,208.8 169.9,210.4 168.6,212.1 167.4,213.9 166.4,215.7 165.5,217.7 164.7,219.7 164.2,221.7 163.7,223.8 163.5,225.9" fill="rgba(160,160,160,0.35)" stroke="none"/>
<polygon points="171.2,226.6 171.4,225.0 171.7,223.5 172.1,222.1 172.7,220.6 173.3,219.3 174.0,217.9 174.9,216.7 175.8,215.5 176.9,214.3 178.0,213.3 179.2,212.4 180.5,211.5 181.8,210.8 183.2,210.1 184.6,209.6 186.1,209.2 187.6,208.9 189.1,208.7 190.6,208.6 260.6,208.6 262.1,208.7 263.6,208.9 265.1,209.2 266.6,209.6 268.0,210.1 269.4,210.8 270.7,211.5 272.0,212.4 273.2,213.3 274.3,214.3 275.3,215.5 276.3,216.7 277.1,217.9 277.9,219.3 278.5,220.6 279.0,222.1 279.4,223.5 279.7,225.0 279.9,226.6 280.0,228.1 280.0,228.8 280.1,229.6 280.3,230.3 280.5,231.1 280.7,231.8 281.0,232.5 281.4,233.2 281.8,233.8 282.3,234.4 282.8,234.9 283.4,235.5 284.0,235.9 284.6,236.4 285.3,236.7 286.0,237.1 286.7,237.3 287.4,237.5 288.2,237.7 288.9,237.8 289.7,237.8 495.4,237.8 496.1,237.8 496.9,237.7 497.6,237.5 498.4,237.3 499.1,237.1 499.8,236.7 500.4,236.4 501.1,235.9 501.7,235.5 502.2,234.9 502.8,234.4 503.2,233.8 503.7,233.2 504.0,232.5 504.3,231.8 504.6,231.1 504.8,230.3 505.0,229.6 505.1,228.8 505.1,228.1 505.1,227.1 505.2,226.2 505.3,225.3 505.4,224.4 505.6,223.5 505.9,222.6 506.2,221.7 506.5,220.8 506.9,219.9 507.3,219.1 507.7,218.3 508.2,217.5 508.7,216.7 509.3,216.0 509.9,215.3 510.5,214.6 511.2,213.9 511.9,213.3 512.6,212.7 513.4,212.2 514.1,211.6 514.9,211.2 515.8,210.7 516.6,210.3 517.5,210.0 518.4,209.6 519.2,209.4 520.1,209.1 521.1,209.0 522.0,208.8 522.9,208.7 523.8,208.7 524.8,208.6 525.7,208.7 526.6,208.8 527.6,208.9 528.5,209.1 529.4,209.3 530.3,209.5 531.2,209.8 532.0,210.2 532.9,210.5 533.7,211.0 534.5,211.4 535.3,211.9 536.1,212.5 536.8,213.0 537.5,213.6 538.2,214.3 538.8,214.9 539.5,215.7 540.0,216.4 540.6,217.1 541.1,217.9 541.6,218.7 542.0,219.6 542.4,220.4 542.7,221.3 543.0,222.2 543.3,223.0 572.8,333.1 572.8,333.4 572.9,333.7 573.0,334.0 573.1,334.3 573.2,334.6 573.2,335.0 573.3,335.3 573.4,335.6 573.5,335.9 573.5,336.2 573.6,336.6 573.7,336.9 573.7,337.2 573.8,337.5 573.9,337.8 573.9,338.1 574.0,338.5 574.1,338.8 574.1,339.1 574.2,339.4 574.2,339.8 574.3,340.1 574.3,340.4 574.4,340.7 574.4,341.0 574.5,341.4 574.5,341.7 574.6,342.0 574.6,342.3 574.7,342.7 574.7,343.0 574.8,343.3 574.8,343.6 574.8,344.0 574.9,344.3 574.9,344.6 574.9,344.9 575.0,345.3 575.0,345.6 575.0,345.9 575.1,346.2 575.1,346.6 575.1,346.9 575.1,347.2 575.2,347.5 575.2,347.9 575.2,348.2 575.2,348.5 575.2,348.8 575.2,349.2 575.3,349.5 575.3,349.8 575.3,350.1 575.3,350.5 575.3,350.8 575.3,351.1 575.3,351.4 575.3,351.8 575.3,352.1 575.3,352.4 575.3,442.8 575.3,443.8 575.2,444.8 575.1,445.8 574.9,446.8 574.6,447.8 574.4,448.8 574.0,449.7 573.6,450.7 573.2,451.6 572.7,452.5 572.2,453.3 571.6,454.2 571.0,455.0 570.3,455.8 569.6,456.5 568.9,457.2 568.1,457.9 567.3,458.5 566.5,459.1 565.6,459.5 489.8,503.3 489.3,503.6 488.9,503.8 488.4,504.0 488.0,504.2 487.5,504.4 487.0,504.6 486.5,504.8 486.1,505.0 485.6,505.1 485.1,505.3 484.6,505.4 484.1,505.5 483.6,505.6 483.1,505.7 482.6,505.7 482.1,505.8 481.6,505.9 481.1,505.9 480.6,505.9 480.1,505.9 410.2,505.9 409.9,505.9 409.7,505.9 409.5,505.9 409.2,505.9 409.0,505.9 408.8,505.9 408.5,505.8 408.3,505.8 408.1,505.8 407.8,505.8 407.6,505.7 407.4,505.7 407.1,505.7 406.9,505.6 406.7,505.6 406.4,505.6 406.2,505.5 406.0,505.5 405.8,505.4 405.5,505.4 405.3,505.3 405.1,505.2 404.8,505.2 404.6,505.1 404.4,505.0 404.2,505.0 404.0,504.9 403.7,504.8 403.5,504.7 403.3,504.7 403.1,504.6 402.9,504.5 402.6,504.4 402.4,504.3 402.2,504.2 402.0,504.1 401.8,504.0 401.6,503.9 401.4,503.8 401.2,503.7 401.0,503.6 400.7,503.5 400.5,503.4 400.3,503.2 400.1,503.1 399.9,503.0 399.7,502.9 399.5,502.8 399.3,502.6 399.2,502.5 399.0,502.4 398.8,502.2 398.6,502.1 398.4,501.9 398.2,501.8 398.0,501.7 397.8,501.5 397.7,501.4 397.5,501.2 397.3,501.1 397.1,500.8 396.8,500.6 396.6,500.4 396.3,500.2 396.1,500.0 395.8,499.8 395.5,499.6 395.3,499.4 395.0,499.2 394.7,499.0 394.5,498.9 394.2,498.7 393.9,498.5 393.6,498.3 393.4,498.2 393.1,498.0 392.8,497.8 392.5,497.7 392.2,497.5 391.9,497.4 391.6,497.2 391.3,497.1 391.0,496.9 390.7,496.8 390.5,496.6 390.2,496.5 389.8,496.4 389.5,496.3 389.2,496.1 388.9,496.0 388.6,495.9 388.3,495.8 388.0,495.7 387.7,495.6 387.4,495.5 387.1,495.4 386.8,495.3 386.4,495.2 386.1,495.1 385.8,495.0 385.5,495.0 385.2,494.9 384.9,494.8 384.5,494.8 384.2,494.7 383.9,494.6 383.6,494.6 383.2,494.5 382.9,494.5 382.6,494.5 382.3,494.4 381.9,494.4 381.6,494.4 381.3,494.3 381.0,494.3 380.6,494.3 380.3,494.3 380.0,494.3 379.6,494.3 379.3,494.3 161.5,494.3 161.3,494.2 161.2,494.2 161.0,494.2 160.9,494.2 160.7,494.1 160.6,494.0 160.5,494.0 160.3,493.9 160.2,493.8 160.1,493.7 160.0,493.6 159.9,493.5 159.8,493.3 159.7,493.2 159.7,493.1 159.6,492.9 159.6,492.8 159.5,492.6 159.5,492.5 159.5,492.3 159.5,297.8 159.5,297.1 159.6,296.4 159.6,295.7 159.7,295.0 159.8,294.3 160.0,293.6 160.1,292.9 160.3,292.2 160.5,291.6 160.8,290.9 161.0,290.3 161.3,289.6 161.6,289.0 162.0,288.4 162.3,287.8 162.7,287.2 163.1,286.6 163.5,286.0 163.9,285.5 164.4,284.9 165.0,284.2 165.6,283.4 166.2,282.6 166.8,281.8 167.3,281.0 167.8,280.1 168.2,279.2 168.7,278.4 169.1,277.5 169.4,276.6 169.8,275.6 170.1,274.7 170.3,273.7 170.5,272.8 170.7,271.8 170.9,270.9 171.0,269.9 171.1,268.9 171.2,267.9 171.2,266.9 171.2,228.1" fill="white" stroke="none"/>
<line x1="163.4" y1="228.1" x2="163.4" y2="266.9" stroke="#333" stroke-width="1.5"/>
<polyline points="163.4,266.9 163.4,267.6 163.4,268.3 163.3,269.0 163.2,269.7 163.1,270.4 163.0,271.1 162.8,271.8 162.6,272.5 162.4,273.1 162.2,273.8 161.9,274.5 161.6,275.1 161.3,275.7 161.0,276.3 160.6,277.0 160.3,277.6 159.9,278.1 159.4,278.7 159.0,279.2 158.6,279.8" fill="none" stroke="#333" stroke-width="1.5" stroke-linecap="round"/>
<polyline points="158.6,279.8 157.9,280.5 157.3,281.3 156.7,282.1 156.2,282.9 155.7,283.7 155.2,284.6 154.7,285.5 154.3,286.3 153.9,287.2 153.5,288.2 153.2,289.1 152.9,290.0 152.6,291.0 152.4,291.9 152.2,292.9 152.0,293.9 151.9,294.8 151.8,295.8 151.8,296.8 151.8,297.8" fill="none" stroke="#333" stroke-width="1.5" stroke-linecap="round"/>
<line x1="151.8" y1="297.8" x2="151.8" y2="492.3" stroke="#333" stroke-width="1.5"/>
<polyline points="151.8,492.3 151.8,493.1 151.9,493.8 152.0,494.6 152.2,495.3 152.5,496.0 152.8,496.7 153.2,497.4 153.6,498.0 154.1,498.6 154.6,499.2 155.2,499.7 155.8,500.2 156.4,500.6 157.1,501.0 157.8,501.3 158.5,501.6 159.2,501.8 159.9,501.9 160.7,502.0 161.5,502.0" fill="none" stroke="#333" stroke-width="1.5" stroke-linecap="round"/>
<line x1="161.5" y1="502.0" x2="379.3" y2="502.0" stroke="#333" stroke-width="1.5"/>
<polyline points="379.3,502.0 379.6,502.0 379.8,502.0 380.0,502.0 380.3,502.1 380.5,502.1 380.7,502.1 381.0,502.1 381.2,502.1 381.4,502.1 381.7,502.2 381.9,502.2 382.1,502.2 382.3,502.3 382.6,502.3 382.8,502.3 383.0,502.4 383.3,502.4 383.5,502.5 383.7,502.5 384.0,502.6 384.2,502.6 384.4,502.7 384.6,502.8 384.9,502.8 385.1,502.9 385.3,503.0 385.5,503.0 385.7,503.1 386.0,503.2 386.2,503.3 386.4,503.4 386.6,503.5 386.8,503.5 387.1,503.6 387.3,503.7 387.5,503.8 387.7,503.9 387.9,504.0 388.1,504.1 388.3,504.2 388.5,504.3 388.7,504.5 388.9,504.6 389.1,504.7 389.3,504.8 389.5,504.9 389.7,505.1 389.9,505.2 390.1,505.3 390.3,505.4 390.5,505.6 390.7,505.7 390.9,505.9 391.1,506.0 391.3,506.1 391.5,506.3 391.6,506.4 391.8,506.6 392.0,506.7 392.2,506.9" fill="none" stroke="#333" stroke-width="1.5" stroke-linecap="round"/>
<polyline points="392.2,506.9 392.4,507.1 392.7,507.3 392.9,507.5 393.2,507.7 393.4,507.9 393.7,508.1 394.0,508.3 394.2,508.5 394.5,508.7 394.8,508.9 395.0,509.1 395.3,509.3 395.6,509.4 395.8,509.6 396.1,509.8 396.4,510.0 396.7,510.1 397.0,510.3 397.3,510.4 397.6,510.6 397.8,510.7 398.1,510.9 398.4,511.0 398.7,511.2 399.0,511.3 399.3,511.4 399.6,511.6 399.9,511.7 400.2,511.8 400.5,511.9 400.9,512.0 401.2,512.2 401.5,512.3 401.8,512.4 402.1,512.5 402.4,512.6 402.7,512.6 403.0,512.7 403.4,512.8 403.7,512.9 404.0,513.0 404.3,513.0 404.6,513.1 405.0,513.2 405.3,513.2 405.6,513.3 405.9,513.4 406.2,513.4 406.6,513.4 406.9,513.5 407.2,513.5 407.5,513.6 407.9,513.6 408.2,513.6 408.5,513.6 408.9,513.7 409.2,513.7 409.5,513.7 409.8,513.7 410.2,513.7" fill="none" stroke="#333" stroke-width="1.5" stroke-linecap="round"/>
<line x1="410.2" y1="513.7" x2="480.1" y2="513.7" stroke="#333" stroke-width="1.5"/>
<polyline points="480.1,513.7 480.8,513.7 481.5,513.6 482.2,513.6 482.9,513.5 483.6,513.5 484.3,513.4 485.0,513.2 485.7,513.1 486.4,512.9 487.1,512.8 487.8,512.6 488.5,512.4 489.1,512.1 489.8,511.9 490.5,511.6 491.1,511.3 491.8,511.0 492.4,510.7 493.0,510.4 493.7,510.0" fill="none" stroke="#333" stroke-width="1.5" stroke-linecap="round"/>
<line x1="493.7" y1="510.0" x2="570.9" y2="465.5" stroke="#333" stroke-width="1.5"/>
<polyline points="570.9,465.5 572.0,464.7 573.0,463.9 574.0,463.0 575.0,462.1 576.0,461.1 576.8,460.1 577.7,459.1 578.4,458.0 579.2,456.8 579.8,455.7 580.4,454.5 581.0,453.2 581.5,452.0 581.9,450.7 582.3,449.4 582.6,448.1 582.8,446.8 583.0,445.4 583.0,444.1 583.1,442.8" fill="none" stroke="#333" stroke-width="1.5" stroke-linecap="round"/>
<line x1="583.1" y1="442.8" x2="583.1" y2="352.4" stroke="#333" stroke-width="1.5"/>
<polyline points="583.1,352.4 583.1,352.1 583.1,351.7 583.1,351.3 583.1,351.0 583.1,350.6 583.1,350.3 583.0,349.9 583.0,349.5 583.0,349.2 583.0,348.8 583.0,348.5 583.0,348.1 582.9,347.7 582.9,347.4 582.9,347.0 582.9,346.7 582.9,346.3 582.8,345.9 582.8,345.6 582.8,345.2 582.7,344.9 582.7,344.5 582.7,344.1 582.6,343.8 582.6,343.4 582.6,343.1 582.5,342.7 582.5,342.4 582.4,342.0 582.4,341.6 582.3,341.3 582.3,340.9 582.2,340.6 582.2,340.2 582.1,339.9 582.1,339.5 582.0,339.1 582.0,338.8 581.9,338.4 581.8,338.1 581.8,337.7 581.7,337.4 581.6,337.0 581.6,336.7 581.5,336.3 581.4,336.0 581.4,335.6 581.3,335.3 581.2,334.9 581.1,334.5 581.0,334.2 581.0,333.8 580.9,333.5 580.8,333.1 580.7,332.8 580.6,332.4 580.5,332.1 580.5,331.7 580.4,331.4 580.3,331.1" fill="none" stroke="#333" stroke-width="1.5" stroke-linecap="round"/>
<line x1="580.3" y1="331.1" x2="550.8" y2="221.0" stroke="#333" stroke-width="1.5"/>
<polyline points="550.8,221.0 550.4,219.8 550.0,218.5 549.5,217.3 549.0,216.2 548.4,215.0 547.7,213.9 547.0,212.8 546.2,211.7 545.4,210.7 544.6,209.7 543.7,208.8 542.7,207.9 541.7,207.0 540.7,206.2 539.6,205.5 538.5,204.8 537.4,204.1 536.2,203.5 535.0,203.0 533.8,202.5 532.6,202.1 531.3,201.7 530.1,201.4 528.8,201.2 527.5,201.0 526.2,200.9 524.9,200.9 523.6,200.9 522.3,201.0 521.0,201.1 519.7,201.3 518.4,201.6 517.1,201.9 515.9,202.3 514.7,202.7 513.5,203.2 512.3,203.8 511.1,204.4 510.0,205.1 508.9,205.8 507.9,206.6 506.9,207.4 505.9,208.3 504.9,209.2 504.1,210.1 503.2,211.1 502.4,212.2 501.7,213.3 501.0,214.4 500.4,215.5 499.8,216.7 499.3,217.9 498.8,219.1 498.4,220.3 498.1,221.6 497.8,222.9 497.6,224.2 497.4,225.5 497.3,226.8 497.3,228.1" fill="none" stroke="#333" stroke-width="1.5" stroke-linecap="round"/>
<polyline points="497.3,228.1 497.3,228.2 497.3,228.4 497.3,228.5 497.2,228.7 497.2,228.8 497.1,229.0 497.0,229.1 496.9,229.2 496.8,229.3 496.7,229.4 496.6,229.6 496.5,229.6 496.4,229.7 496.3,229.8 496.1,229.9 496.0,229.9 495.8,230.0 495.7,230.0 495.5,230.0 495.4,230.0" fill="none" stroke="#333" stroke-width="1.5" stroke-linecap="round"/>
<line x1="495.4" y1="230.0" x2="289.7" y2="230.0" stroke="#333" stroke-width="1.5"/>
<polyline points="289.7,230.0 289.5,230.0 289.4,230.0 289.2,230.0 289.1,229.9 289.0,229.9 288.8,229.8 288.7,229.7 288.6,229.6 288.4,229.6 288.3,229.4 288.2,229.3 288.1,229.2 288.0,229.1 288.0,229.0 287.9,228.8 287.9,228.7 287.8,228.5 287.8,228.4 287.8,228.2 287.8,228.1" fill="none" stroke="#333" stroke-width="1.5" stroke-linecap="round"/>
<polyline points="287.8,228.1 287.7,225.9 287.4,223.8 287.0,221.7 286.4,219.7 285.7,217.7 284.8,215.7 283.7,213.9 282.6,212.1 281.2,210.4 279.8,208.8 278.2,207.4 276.5,206.1 274.8,204.9 272.9,203.8 271.0,202.9 269.0,202.2 266.9,201.6 264.8,201.2 262.7,201.0 260.6,200.9" fill="none" stroke="#333" stroke-width="1.5" stroke-linecap="round"/>
<line x1="260.6" y1="200.9" x2="190.6" y2="200.9" stroke="#333" stroke-width="1.5"/>
<polyline points="190.6,200.9 188.5,201.0 186.4,201.2 184.3,201.6 182.2,202.2 180.2,202.9 178.3,203.8 176.4,204.9 174.6,206.1 172.9,207.4 171.4,208.8 169.9,210.4 168.6,212.1 167.4,213.9 166.4,215.7 165.5,217.7 164.7,219.7 164.2,221.7 163.7,223.8 163.5,225.9 163.4,228.1" fill="none" stroke="#333" stroke-width="1.5" stroke-linecap="round"/>
<line x1="171.2" y1="228.1" x2="171.2" y2="266.9" stroke="#666" stroke-width="1.0"/>
<polyline points="171.2,266.9 171.2,267.9 171.1,268.9 171.0,269.9 170.9,270.9 170.7,271.8 170.5,272.8 170.3,273.7 170.1,274.7 169.8,275.6 169.4,276.6 169.1,277.5 168.7,278.4 168.2,279.2 167.8,280.1 167.3,281.0 166.8,281.8 166.2,282.6 165.6,283.4 165.0,284.2 164.4,284.9" fill="none" stroke="#666" stroke-width="1.0" stroke-linecap="round"/>
<polyline points="164.4,284.9 163.9,285.5 163.5,286.0 163.1,286.6 162.7,287.2 162.3,287.8 162.0,288.4 161.6,289.0 161.3,289.6 161.0,290.3 160.8,290.9 160.5,291.6 160.3,292.2 160.1,292.9 160.0,293.6 159.8,294.3 159.7,295.0 159.6,295.7 159.6,296.4 159.5,297.1 159.5,297.8" fill="none" stroke="#666" stroke-width="1.0" stroke-linecap="round"/>
<line x1="159.5" y1="297.8" x2="159.5" y2="492.3" stroke="#666" stroke-width="1.0"/>
<polyline points="159.5,492.3 159.5,492.5 159.5,492.6 159.6,492.8 159.6,492.9 159.7,493.1 159.7,493.2 159.8,493.3 159.9,493.5 160.0,493.6 160.1,493.7 160.2,493.8 160.3,493.9 160.5,494.0 160.6,494.0 160.7,494.1 160.9,494.2 161.0,494.2 161.2,494.2 161.3,494.2 161.5,494.3" fill="none" stroke="#666" stroke-width="1.0" stroke-linecap="round"/>
<line x1="161.5" y1="494.3" x2="379.3" y2="494.3" stroke="#666" stroke-width="1.0"/>
<polyline points="379.3,494.3 379.6,494.3 380.0,494.3 380.3,494.3 380.6,494.3 381.0,494.3 381.3,494.3 381.6,494.4 381.9,494.4 382.3,494.4 382.6,494.5 382.9,494.5 383.2,494.5 383.6,494.6 383.9,494.6 384.2,494.7 384.5,494.8 384.9,494.8 385.2,494.9 385.5,495.0 385.8,495.0 386.1,495.1 386.4,495.2 386.8,495.3 387.1,495.4 387.4,495.5 387.7,495.6 388.0,495.7 388.3,495.8 388.6,495.9 388.9,496.0 389.2,496.1 389.5,496.3 389.8,496.4 390.2,496.5 390.5,496.6 390.7,496.8 391.0,496.9 391.3,497.1 391.6,497.2 391.9,497.4 392.2,497.5 392.5,497.7 392.8,497.8 393.1,498.0 393.4,498.2 393.6,498.3 393.9,498.5 394.2,498.7 394.5,498.9 394.7,499.0 395.0,499.2 395.3,499.4 395.5,499.6 395.8,499.8 396.1,500.0 396.3,500.2 396.6,500.4 396.8,500.6 397.1,500.8 397.3,501.1" fill="none" stroke="#666" stroke-width="1.0" stroke-linecap="round"/>
<polyline points="397.3,501.1 397.5,501.2 397.7,501.4 397.8,501.5 398.0,501.7 398.2,501.8 398.4,501.9 398.6,502.1 398.8,502.2 399.0,502.4 399.2,502.5 399.3,502.6 399.5,502.8 399.7,502.9 399.9,503.0 400.1,503.1 400.3,503.2 400.5,503.4 400.7,503.5 401.0,503.6 401.2,503.7 401.4,503.8 401.6,503.9 401.8,504.0 402.0,504.1 402.2,504.2 402.4,504.3 402.6,504.4 402.9,504.5 403.1,504.6 403.3,504.7 403.5,504.7 403.7,504.8 404.0,504.9 404.2,505.0 404.4,505.0 404.6,505.1 404.8,505.2 405.1,505.2 405.3,505.3 405.5,505.4 405.8,505.4 406.0,505.5 406.2,505.5 406.4,505.6 406.7,505.6 406.9,505.6 407.1,505.7 407.4,505.7 407.6,505.7 407.8,505.8 408.1,505.8 408.3,505.8 408.5,505.8 408.8,505.9 409.0,505.9 409.2,505.9 409.5,505.9 409.7,505.9 409.9,505.9 410.2,505.9" fill="none" stroke="#666" stroke-width="1.0" stroke-linecap="round"/>
<line x1="410.2" y1="505.9" x2="480.1" y2="505.9" stroke="#666" stroke-width="1.0"/>
<polyline points="480.1,505.9 480.6,505.9 481.1,505.9 481.6,505.9 482.1,505.8 482.6,505.7 483.1,505.7 483.6,505.6 484.1,505.5 484.6,505.4 485.1,505.3 485.6,505.1 486.1,505.0 486.5,504.8 487.0,504.6 487.5,504.4 488.0,504.2 488.4,504.0 488.9,503.8 489.3,503.6 489.8,503.3" fill="none" stroke="#666" stroke-width="1.0" stroke-linecap="round"/>
<line x1="489.8" y1="503.3" x2="565.6" y2="459.5" stroke="#666" stroke-width="1.0"/>
<polyline points="565.6,459.6 566.5,459.1 567.3,458.5 568.1,457.9 568.9,457.2 569.6,456.5 570.3,455.8 571.0,455.0 571.6,454.2 572.2,453.3 572.7,452.5 573.2,451.6 573.6,450.7 574.0,449.7 574.4,448.8 574.6,447.8 574.9,446.8 575.1,445.8 575.2,444.8 575.3,443.8 575.3,442.8" fill="none" stroke="#666" stroke-width="1.0" stroke-linecap="round"/>
<line x1="575.3" y1="442.8" x2="575.3" y2="352.4" stroke="#666" stroke-width="1.0"/>
<polyline points="575.3,352.4 575.3,352.1 575.3,351.8 575.3,351.4 575.3,351.1 575.3,350.8 575.3,350.5 575.3,350.1 575.3,349.8 575.3,349.5 575.2,349.2 575.2,348.8 575.2,348.5 575.2,348.2 575.2,347.9 575.2,347.5 575.1,347.2 575.1,346.9 575.1,346.6 575.1,346.2 575.0,345.9 575.0,345.6 575.0,345.3 574.9,344.9 574.9,344.6 574.9,344.3 574.8,344.0 574.8,343.6 574.8,343.3 574.7,343.0 574.7,342.7 574.6,342.3 574.6,342.0 574.5,341.7 574.5,341.4 574.4,341.0 574.4,340.7 574.3,340.4 574.3,340.1 574.2,339.8 574.2,339.4 574.1,339.1 574.1,338.8 574.0,338.5 573.9,338.1 573.9,337.8 573.8,337.5 573.7,337.2 573.7,336.9 573.6,336.6 573.5,336.2 573.5,335.9 573.4,335.6 573.3,335.3 573.2,335.0 573.2,334.6 573.1,334.3 573.0,334.0 572.9,333.7 572.8,333.4 572.8,333.1" fill="none" stroke="#666" stroke-width="1.0" stroke-linecap="round"/>
<line x1="572.8" y1="333.1" x2="543.3" y2="223.0" stroke="#666" stroke-width="1.0"/>
<polyline points="543.3,223.0 543.0,222.2 542.7,221.3 542.4,220.4 542.0,219.6 541.6,218.7 541.1,217.9 540.6,217.1 540.0,216.4 539.5,215.7 538.8,214.9 538.2,214.3 537.5,213.6 536.8,213.0 536.1,212.5 535.3,211.9 534.5,211.4 533.7,211.0 532.9,210.5 532.0,210.2 531.2,209.8 530.3,209.5 529.4,209.3 528.5,209.1 527.6,208.9 526.6,208.8 525.7,208.7 524.8,208.6 523.8,208.7 522.9,208.7 522.0,208.8 521.1,209.0 520.1,209.1 519.2,209.4 518.4,209.6 517.5,210.0 516.6,210.3 515.8,210.7 514.9,211.2 514.1,211.6 513.4,212.2 512.6,212.7 511.9,213.3 511.2,213.9 510.5,214.6 509.9,215.3 509.3,216.0 508.7,216.7 508.2,217.5 507.7,218.3 507.3,219.1 506.9,219.9 506.5,220.8 506.2,221.7 505.9,222.6 505.6,223.5 505.4,224.4 505.3,225.3 505.2,226.2 505.1,227.1 505.1,228.1" fill="none" stroke="#666" stroke-width="1.0" stroke-linecap="round"/>
<polyline points="505.1,228.1 505.1,228.8 505.0,229.6 504.8,230.3 504.6,231.1 504.3,231.8 504.0,232.5 503.7,233.2 503.2,233.8 502.8,234.4 502.2,234.9 501.7,235.5 501.1,235.9 500.4,236.4 499.8,236.7 499.1,237.1 498.4,237.3 497.6,237.5 496.9,237.7 496.1,237.8 495.4,237.8" fill="none" stroke="#666" stroke-width="1.0" stroke-linecap="round"/>
<line x1="495.4" y1="237.8" x2="289.7" y2="237.8" stroke="#666" stroke-width="1.0"/>
<polyline points="289.7,237.8 288.9,237.8 288.2,237.7 287.4,237.5 286.7,237.3 286.0,237.1 285.3,236.7 284.6,236.4 284.0,235.9 283.4,235.5 282.8,234.9 282.3,234.4 281.8,233.8 281.4,233.2 281.0,232.5 280.7,231.8 280.5,231.1 280.3,230.3 280.1,229.6 280.0,228.8 280.0,228.1" fill="none" stroke="#666" stroke-width="1.0" stroke-linecap="round"/>
<polyline points="280.0,228.1 279.9,226.6 279.7,225.0 279.4,223.5 279.0,222.1 278.5,220.6 277.9,219.3 277.1,217.9 276.3,216.7 275.3,215.5 274.3,214.3 273.2,213.3 272.0,212.4 270.7,211.5 269.4,210.8 268.0,210.1 266.6,209.6 265.1,209.2 263.6,208.9 262.1,208.7 260.6,208.6" fill="none" stroke="#666" stroke-width="1.0" stroke-linecap="round"/>
<line x1="260.6" y1="208.6" x2="190.6" y2="208.6" stroke="#666" stroke-width="1.0"/>
<polyline points="190.6,208.6 189.1,208.7 187.6,208.9 186.1,209.2 184.6,209.6 183.2,210.1 181.8,210.8 180.5,211.5 179.2,212.4 178.0,213.3 176.9,214.3 175.8,215.5 174.9,216.7 174.0,217.9 173.3,219.3 172.7,220.6 172.1,222.1 171.7,223.5 171.4,225.0 171.2,226.6 171.2,228.1" fill="none" stroke="#666" stroke-width="1.0" stroke-linecap="round"/>
<polygon points="159.5,360.2 575.3,360.2 575.3,354.4 159.5,354.4" fill="rgba(160,160,160,0.35)" stroke="none"/>
<line x1="159.5" y1="360.2" x2="575.3" y2="360.2" stroke="#666" stroke-width="1.0"/>
<line x1="575.3" y1="354.4" x2="159.5" y2="354.4" stroke="#666" stroke-width="1.0"/>
<text x="367.4" y="352.8" text-anchor="middle" font-family="Arial" font-size="8" fill="#666">IW1</text>
<polygon points="235.3,354.4 241.1,354.4 241.1,208.6 235.3,208.6" fill="rgba(160,160,160,0.35)" stroke="none"/>
<line x1="235.3" y1="354.4" x2="235.3" y2="208.6" stroke="#666" stroke-width="1.0"/>
<line x1="241.1" y1="354.4" x2="241.1" y2="208.6" stroke="#666" stroke-width="1.0"/>
<text x="234.2" y="285.0" text-anchor="middle" font-family="Arial" font-size="8" fill="#666" transform="rotate(-90,234.2,285.0)">IW2</text>
<line x1="393.5" y1="354.4" x2="393.5" y2="237.8" stroke="#999" stroke-width="0.8"/>
<line x1="389.5" y1="354.4" x2="397.5" y2="354.4" stroke="#999" stroke-width="0.8"/>
<line x1="389.5" y1="237.8" x2="397.5" y2="237.8" stroke="#999" stroke-width="0.8"/>
<text x="390.5" y="299.1" text-anchor="middle" font-family="Arial" font-size="8" fill="#999" transform="rotate(-90,390.5,299.1)">9' 12.0"</text>
<line x1="241.1" y1="276.0" x2="557.5" y2="276.0" stroke="#999" stroke-width="0.8"/>
<line x1="241.1" y1="272.0" x2="241.1" y2="280.0" stroke="#999" stroke-width="0.8"/>
<line x1="557.5" y1="272.0" x2="557.5" y2="280.0" stroke="#999" stroke-width="0.8"/>
<text x="399.3" y="273.0" text-anchor="middle" font-family="Arial" font-size="8" fill="#999">27' 1.6"</text>
<rect x="165.4" y="461.2" width="34.0" height="29.1" fill="rgba(100,150,200,0.2)" stroke="#4682B4" stroke-width="0.8"/>
<text x="182.4" y="478.8" text-anchor="middle" font-family="Arial" font-size="7" fill="#4682B4">DRYER</text>
<rect x="165.4" y="431.1" width="34.0" height="29.1" fill="rgba(100,150,200,0.2)" stroke="#4682B4" stroke-width="0.8"/>
<text x="182.4" y="448.7" text-anchor="middle" font-family="Arial" font-size="7" fill="#4682B4">WASHER</text>
<path d="M 234.3,494.3 L 257.6,494.3 L 257.6,424.3 L 243.1,424.3 A 8.7 8.7 0 0 0 234.3,433.1 Z" fill="rgba(100,150,200,0.2)" stroke="#4682B4" stroke-width="0.8"/>
<text x="246.0" y="459.3" text-anchor="middle" font-family="Arial" font-size="7" fill="#4682B4" letter-spacing="0.5" transform="rotate(-90,246.0,459.3)">COUNTER</text>
<polygon points="257.6,494.3 260.6,494.3 260.6,424.3 289.7,424.3 289.7,421.4 257.6,421.4" fill="rgba(160,160,160,0.35)" stroke="#666" stroke-width="0.8"/>
<polygon points="289.7,494.3 293.6,494.3 293.6,360.2 289.7,360.2" fill="rgba(160,160,160,0.35)" stroke="#666" stroke-width="0.8"/>
<text x="287.6" y="430.7" text-anchor="middle" font-family="Arial" font-size="8" fill="#666" transform="rotate(-90,287.6,430.7)">IW3</text>
<polygon points="429.6,505.9 433.5,505.9 433.5,360.2 429.6,360.2" fill="rgba(160,160,160,0.35)" stroke="#666" stroke-width="0.8"/>
<text x="427.5" y="436.6" text-anchor="middle" font-family="Arial" font-size="8" fill="#666" transform="rotate(-90,427.5,436.6)">IW4</text>
<polygon points="433.5,433.1 465.5,433.1 465.5,505.9 462.6,505.9 462.6,436.0 433.5,436.0" fill="rgba(160,160,160,0.35)" stroke="#666" stroke-width="0.8"/>
<polygon points="433.5,392.3 575.3,392.3 575.3,389.3 433.5,389.3" fill="rgba(160,160,160,0.35)" stroke="none"/>
<line x1="433.5" y1="392.3" x2="575.3" y2="392.3" stroke="#666" stroke-width="1.0"/>
<line x1="433.5" y1="389.3" x2="575.3" y2="389.3" stroke="#666" stroke-width="1.0"/>
<text x="504.4" y="386.3" text-anchor="middle" font-family="Arial" font-size="8" fill="#666">IW5</text>
<rect x="324.7" y="401.0" width="73.8" height="91.3" fill="rgba(100,150,200,0.2)" stroke="#4682B4" stroke-width="0.8"/>
<text x="361.6" y="473.9" text-anchor="middle" font-family="Arial" font-size="7" fill="#4682B4">KING BED</text>
<text x="361.6" y="430.2" text-anchor="middle" font-family="Arial" font-size="8" fill="#666">BEDROOM</text>
<text x="504.4" y="422.9" text-anchor="middle" font-family="Arial" font-size="8" fill="#666">OFFICE</text>
<line x1="293.6" y1="460.7" x2="429.6" y2="460.7" stroke="#999" stroke-width="0.8"/>
<line x1="293.6" y1="456.7" x2="293.6" y2="464.7" stroke="#999" stroke-width="0.8"/>
<line x1="429.6" y1="456.7" x2="429.6" y2="464.7" stroke="#999" stroke-width="0.8"/>
<text x="361.6" y="457.7" text-anchor="middle" font-family="Arial" font-size="8" fill="#999">11' 8"</text>
<line x1="316.9" y1="494.3" x2="316.9" y2="360.2" stroke="#999" stroke-width="0.8"/>
<line x1="312.9" y1="494.3" x2="320.9" y2="494.3" stroke="#999" stroke-width="0.8"/>
<line x1="312.9" y1="360.2" x2="320.9" y2="360.2" stroke="#999" stroke-width="0.8"/>
<text x="313.9" y="430.2" text-anchor="middle" font-family="Arial" font-size="8" fill="#999" transform="rotate(-90,313.9,430.2)">11' 6"</text>
<line x1="275.1" y1="494.3" x2="275.1" y2="424.3" stroke="#999" stroke-width="0.8"/>
<line x1="271.1" y1="494.3" x2="279.1" y2="494.3" stroke="#999" stroke-width="0.8"/>
<line x1="271.1" y1="424.3" x2="279.1" y2="424.3" stroke="#999" stroke-width="0.8"/>
<text x="272.1" y="462.3" text-anchor="middle" font-family="Arial" font-size="8" fill="#999" transform="rotate(-90,272.1,462.3)">CLOSET 6' 0"</text>
<line x1="448.0" y1="505.9" x2="448.0" y2="436.0" stroke="#999" stroke-width="0.8"/>
<line x1="444.0" y1="505.9" x2="452.0" y2="505.9" stroke="#999" stroke-width="0.8"/>
<line x1="444.0" y1="436.0" x2="452.0" y2="436.0" stroke="#999" stroke-width="0.8"/>
<text x="445.0" y="473.9" text-anchor="middle" font-family="Arial" font-size="8" fill="#999" transform="rotate(-90,445.0,473.9)">CLOSET 6' 0"</text>
<line x1="159.5" y1="459.3" x2="257.6" y2="459.3" stroke="#999" stroke-width="0.8"/>
<line x1="159.5" y1="455.3" x2="159.5" y2="463.3" stroke="#999" stroke-width="0.8"/>
<line x1="257.6" y1="455.3" x2="257.6" y2="463.3" stroke="#999" stroke-width="0.8"/>
<text x="208.6" y="456.3" text-anchor="middle" font-family="Arial" font-size="8" fill="#999">8' 5.0"</text>
<line x1="465.5" y1="449.6" x2="575.3" y2="449.6" stroke="#999" stroke-width="0.8"/>
<line x1="465.5" y1="445.6" x2="465.5" y2="453.6" stroke="#999" stroke-width="0.8"/>
<line x1="575.3" y1="445.6" x2="575.3" y2="453.6" stroke="#999" stroke-width="0.8"/>
<text x="520.4" y="446.6" text-anchor="middle" font-family="Arial" font-size="8" fill="#999">9' 5.00"</text>
<line x1="433.5" y1="374.8" x2="575.3" y2="374.8" stroke="#999" stroke-width="0.8"/>
<line x1="433.5" y1="370.8" x2="433.5" y2="378.8" stroke="#999" stroke-width="0.8"/>
<line x1="575.3" y1="370.8" x2="575.3" y2="378.8" stroke="#999" stroke-width="0.8"/>
<text x="504.4" y="371.8" text-anchor="middle" font-family="Arial" font-size="8" fill="#999">STORAGE 12' 2.00"</text>
<line x1="480.1" y1="392.3" x2="480.1" y2="505.9" stroke="#999" stroke-width="0.8"/>
<line x1="476.1" y1="392.3" x2="484.1" y2="392.3" stroke="#999" stroke-width="0.8"/>
<line x1="476.1" y1="505.9" x2="484.1" y2="505.9" stroke="#999" stroke-width="0.8"/>
<text x="477.1" y="452.1" text-anchor="middle" font-family="Arial" font-size="8" fill="#999" transform="rotate(-90,477.1,452.1)">9' 9.00"</text>
<line x1="202.3" y1="354.4" x2="202.3" y2="208.6" stroke="#999" stroke-width="0.8"/>
<line x1="198.3" y1="354.4" x2="206.3" y2="354.4" stroke="#999" stroke-width="0.8"/>
<line x1="198.3" y1="208.6" x2="206.3" y2="208.6" stroke="#999" stroke-width="0.8"/>
<text x="199.3" y="284.5" text-anchor="middle" font-family="Arial" font-size="8" fill="#999" transform="rotate(-90,199.3,284.5)">12' 6.0"</text>
<circle cx="163.4" cy="228.1" r="2.5" fill="#333"/>
<text x="155.4" y="222.1" text-anchor="end" font-family="Arial" font-size="9" font-weight="bold" fill="#333">C2</text>
<circle cx="163.4" cy="266.9" r="2.5" fill="#333"/>
<text x="155.4" y="262.9" text-anchor="end" font-family="Arial" font-size="9" font-weight="bold" fill="#333">C1c</text>
<circle cx="158.6" cy="279.8" r="2.5" fill="#333"/>
<text x="148.6" y="289.8" text-anchor="end" font-family="Arial" font-size="9" font-weight="bold" fill="#333">C1b</text>
<circle cx="151.8" cy="297.8" r="2.5" fill="#333"/>
<text x="143.8" y="293.8" text-anchor="end" font-family="Arial" font-size="9" font-weight="bold" fill="#333">C1a</text>
<circle cx="151.8" cy="492.3" r="2.5" fill="#333"/>
<text x="143.8" y="488.3" text-anchor="end" font-family="Arial" font-size="9" font-weight="bold" fill="#333">C1</text>
<circle cx="161.5" cy="502.0" r="2.5" fill="#333"/>
<text x="153.5" y="512.0" text-anchor="end" font-family="Arial" font-size="9" font-weight="bold" fill="#333">C0</text>
<circle cx="379.3" cy="502.0" r="2.5" fill="#333"/>
<text x="379.3" y="490.0" text-anchor="middle" font-family="Arial" font-size="9" font-weight="bold" fill="#333">C15</text>
<circle cx="392.2" cy="506.9" r="2.5" fill="#333"/>
<text x="400.2" y="500.9" text-anchor="start" font-family="Arial" font-size="9" font-weight="bold" fill="#333">C14</text>
<circle cx="410.2" cy="513.7" r="2.5" fill="#333"/>
<text x="418.2" y="525.7" text-anchor="start" font-family="Arial" font-size="9" font-weight="bold" fill="#333">C13b</text>
<circle cx="480.1" cy="513.7" r="2.5" fill="#333"/>
<text x="488.1" y="525.7" text-anchor="start" font-family="Arial" font-size="9" font-weight="bold" fill="#333">C13a</text>
<circle cx="493.7" cy="510.0" r="2.5" fill="#333"/>
<text x="503.7" y="520.0" text-anchor="start" font-family="Arial" font-size="9" font-weight="bold" fill="#333">C13</text>
<circle cx="570.9" cy="465.5" r="2.5" fill="#333"/>
<text x="578.9" y="469.5" text-anchor="start" font-family="Arial" font-size="9" font-weight="bold" fill="#333">C12</text>
<circle cx="583.1" cy="442.8" r="2.5" fill="#333"/>
<text x="591.1" y="446.8" text-anchor="start" font-family="Arial" font-size="9" font-weight="bold" fill="#333">C11</text>
<circle cx="583.1" cy="352.4" r="2.5" fill="#333"/>
<text x="593.1" y="348.4" text-anchor="start" font-family="Arial" font-size="9" font-weight="bold" fill="#333">C10a</text>
<circle cx="580.3" cy="331.1" r="2.5" fill="#333"/>
<text x="588.3" y="339.1" text-anchor="start" font-family="Arial" font-size="9" font-weight="bold" fill="#333">C9</text>
<circle cx="550.8" cy="221.0" r="2.5" fill="#333"/>
<text x="558.8" y="233.0" text-anchor="start" font-family="Arial" font-size="9" font-weight="bold" fill="#333">C8</text>
<circle cx="497.3" cy="228.1" r="2.5" fill="#333"/>
<text x="505.3" y="240.1" text-anchor="start" font-family="Arial" font-size="9" font-weight="bold" fill="#333">C7</text>
<circle cx="495.4" cy="230.0" r="2.5" fill="#333"/>
<text x="487.4" y="224.0" text-anchor="end" font-family="Arial" font-size="9" font-weight="bold" fill="#333">C6a</text>
<circle cx="289.7" cy="230.0" r="2.5" fill="#333"/>
<text x="289.7" y="244.0" text-anchor="middle" font-family="Arial" font-size="9" font-weight="bold" fill="#333">C6</text>
<circle cx="287.8" cy="228.1" r="2.5" fill="#333"/>
<text x="279.8" y="224.1" text-anchor="end" font-family="Arial" font-size="9" font-weight="bold" fill="#333">C5</text>
<circle cx="260.6" cy="200.9" r="2.5" fill="#333"/>
<text x="260.6" y="188.9" text-anchor="middle" font-family="Arial" font-size="9" font-weight="bold" fill="#333">C4</text>
<circle cx="190.6" cy="200.9" r="2.5" fill="#333"/>
<text x="180.6" y="194.9" text-anchor="end" font-family="Arial" font-size="9" font-weight="bold" fill="#333">C3</text>
<line x1="742" y1="560" x2="742" y2="524" stroke="#333" stroke-width="2" marker-end="url(#ah)"/>
<text x="742" y="518" text-anchor="middle" font-family="Arial" font-size="13" font-weight="bold">N</text>
<rect x="622.0" y="134.9" width="130" height="58" fill="white" stroke="#333" stroke-width="1"/>
<text x="687.0" y="148.9" text-anchor="middle" font-family="Arial" font-size="11" font-weight="bold" fill="#333">797.65 sq ft</text>
<text x="687.0" y="160.9" text-anchor="middle" font-family="Arial" font-size="8" fill="#666">Interior area</text>
<text x="687.0" y="174.9" text-anchor="middle" font-family="Arial" font-size="11" font-weight="bold" fill="#333">876.62 sq ft</text>
<text x="687.0" y="186.9" text-anchor="middle" font-family="Arial" font-size="8" fill="#666">Exterior area</text>
<text x="396.0" y="610" text-anchor="middle" font-family="Arial" font-size="7.5" fill="#999">Wall thickness: 8&#8243; &#8226; Outer: 876.62 sq ft &#8226; Interior: 797.65 sq ft</text>
</svg>