<svg xmlns="http://www.w3.org/2000/svg" width="792" height="612" viewBox="0 0 792 612">
<rect width="792" height="612" fill="white"/>
<defs>
  <marker id="ah" markerWidth="8" markerHeight="6" refX="8" refY="3" orient="auto"><polygon points="0 0, 8 3, 0 6" fill="#333"/></marker>
</defs>
<text x="396.0" y="30" text-anchor="middle" font-family="Arial" font-size="14" font-weight="bold">Floorplan &#8212; 8&#8243; Walls</text>
<polygon points="151.8,226.1 151.8,492.3 151.8,493.1 151.9,493.8 152.0,494.6 152.2,495.3 152.5,496.0 152.8,496.7 153.2,497.4 153.6,498.0 154.1,498.6 154.6,499.2 155.2,499.7 155.8,500.2 156.4,500.6 157.1,501.0 157.8,501.3 158.5,501.6 159.2,501.8 159.9,501.9 160.7,502.0 161.5,502.0 358.5,502.0 358.9,502.0 359.3,502.0 359.7,502.1 360.0,502.1 360.4,502.1 360.8,502.1 361.2,502.2 361.5,502.2 361.9,502.2 362.3,502.3 362.6,502.3 363.0,502.4 363.4,502.5 363.7,502.5 364.1,502.6 364.5,502.7 364.8,502.8 365.2,502.9 365.6,503.0 365.9,503.0 366.3,503.2 366.6,503.3 367.0,503.4 367.4,503.5 367.7,503.6 368.1,503.7 368.4,503.9 368.8,504.0 369.1,504.2 369.4,504.3 369.8,504.5 370.1,504.6 370.5,504.8 370.8,504.9 371.1,505.1 371.5,505.3 371.8,505.5 372.1,505.7 372.4,505.8 372.8,506.0 373.1,506.2 373.4,506.4 373.7,506.6 374.0,506.9 374.3,507.1 374.6,507.3 374.9,507.5 375.2,507.7 375.5,508.0 375.8,508.2 376.1,508.4 376.4,508.7 376.7,508.9 376.9,509.2 377.2,509.4 377.5,509.7 377.7,510.0 378.0,510.2 378.3,510.5 378.5,510.8 378.8,511.0 379.0,511.3 379.3,511.6 379.6,511.8 379.8,512.1 380.1,512.4 380.4,512.6 380.7,512.9 381.0,513.1 381.2,513.3 381.5,513.6 381.8,513.8 382.1,514.0 382.4,514.3 382.7,514.5 383.0,514.7 383.3,514.9 383.7,515.1 384.0,515.3 384.3,515.5 384.6,515.7 384.9,515.9 385.3,516.1 385.6,516.2 385.9,516.4 386.2,516.6 386.6,516.8 386.9,516.9 387.3,517.1 387.6,517.2 387.9,517.4 388.3,517.5 388.6,517.7 389.0,517.8 389.3,517.9 389.7,518.0 390.0,518.2 390.4,518.3 390.8,518.4 391.1,518.5 391.5,518.6 391.8,518.7 392.2,518.8 392.6,518.9 392.9,518.9 393.3,519.0 393.7,519.1 394.0,519.1 394.4,519.2 394.8,519.3 395.1,519.3 395.5,519.3 395.9,519.4 396.3,519.4 396.6,519.4 397.0,519.5 397.4,519.5 397.8,519.5 398.1,519.5 398.5,519.5 480.7,519.5 481.5,519.5 482.3,519.5 483.1,519.4 483.9,519.3 484.7,519.2 485.4,519.1 486.2,518.9 487.0,518.8 487.8,518.6 488.5,518.4 489.3,518.1 490.0,517.9 490.8,517.6 491.5,517.3 492.2,517.0 492.9,516.6 493.6,516.2 494.3,515.9 495.0,515.5 495.7,515.0 559.2,473.2 560.3,472.4 561.4,471.6 562.4,470.7 563.4,469.8 564.3,468.8 565.2,467.8 566.0,466.7 566.8,465.6 567.5,464.5 568.2,463.3 568.8,462.1 569.3,460.9 569.8,459.7 570.2,458.4 570.6,457.1 570.9,455.8 571.1,454.5 571.3,453.1 571.4,451.8 571.4,450.4 571.4,360.9 571.4,360.0 571.4,359.1 571.3,358.3 571.2,357.4 571.1,356.6 570.9,355.7 570.7,354.8 570.5,354.0 570.3,353.2 570.0,352.3 569.8,351.5 569.4,350.7 569.1,349.9 568.7,349.1 568.4,348.3 567.9,347.6 567.5,346.8 567.0,346.1 566.6,345.4 566.0,344.6 565.3,343.6 564.5,342.5 563.8,341.5 563.0,340.4 562.3,339.3 561.6,338.2 560.9,337.1 560.2,336.0 559.5,334.9 558.8,333.8 558.2,332.7 557.5,331.5 556.9,330.4 556.3,329.2 555.7,328.1 555.1,326.9 554.5,325.7 553.9,324.6 553.3,323.4 552.8,322.2 552.3,321.0 551.7,319.8 551.2,318.6 550.7,317.4 550.3,316.2 549.8,315.0 549.3,313.8 548.9,312.5 548.5,311.3 548.0,310.1 547.6,308.8 547.2,307.6 546.9,306.3 546.5,305.1 546.2,303.8 545.8,302.5 545.5,301.3 545.2,300.0 544.9,298.7 544.6,297.5 544.3,296.2 544.1,294.9 543.8,293.6 543.6,292.3 543.4,291.1 543.2,289.8 543.0,288.5 542.8,287.2 542.7,285.9 542.5,284.6 542.4,283.3 542.3,282.0 542.2,280.7 542.1,279.4 542.0,278.1 541.9,276.8 541.9,275.5 541.9,274.2 541.8,272.9 541.8,271.6 541.8,255.3 541.7,253.1 541.5,251.0 541.1,248.9 540.5,246.9 539.8,244.9 538.9,242.9 537.8,241.1 536.6,239.3 535.3,237.6 533.9,236.0 532.3,234.6 530.6,233.3 528.8,232.1 527.0,231.0 525.0,230.1 523.0,229.4 521.0,228.8 518.9,228.4 516.8,228.2 514.6,228.1 278.0,228.1 277.9,228.1 277.7,228.1 277.6,228.0 277.4,228.0 277.3,227.9 277.2,227.9 277.0,227.8 276.9,227.7 276.8,227.6 276.7,227.5 276.6,227.4 276.5,227.3 276.4,227.1 276.3,227.0 276.2,226.9 276.2,226.7 276.2,226.6 276.1,226.4 276.1,226.3 276.1,226.1 276.0,224.0 275.8,221.9 275.3,219.8 274.8,217.7 274.0,215.7 273.1,213.8 272.1,211.9 270.9,210.1 269.6,208.5 268.1,206.9 266.6,205.4 264.9,204.1 263.1,202.9 261.2,201.9 259.3,201.0 257.3,200.3 255.2,199.7 253.2,199.3 251.0,199.0 248.9,198.9 179.0,198.9 176.8,199.0 174.7,199.3 172.6,199.7 170.5,200.3 168.5,201.0 166.6,201.9 164.7,202.9 163.0,204.1 161.3,205.4 159.7,206.9 158.3,208.5 156.9,210.1 155.8,211.9 154.7,213.8 153.8,215.7 153.1,217.7 152.5,219.8 152.1,221.9 151.8,224.0" fill="rgba(160,160,160,0.35)" stroke="none"/>
<polygon points="159.6,224.6 159.8,223.1 160.1,221.6 160.5,220.1 161.0,218.7 161.6,217.3 162.4,216.0 163.2,214.7 164.2,213.5 165.2,212.4 166.3,211.4 167.5,210.4 168.8,209.6 170.1,208.8 171.5,208.2 173.0,207.7 174.4,207.2 175.9,206.9 177.4,206.8 179.0,206.7 248.9,206.7 250.4,206.8 251.9,206.9 253.4,207.2 254.9,207.7 256.3,208.2 257.7,208.8 259.1,209.6 260.3,210.4 261.5,211.4 262.6,212.4 263.7,213.5 264.6,214.7 265.5,216.0 266.2,217.3 266.8,218.7 267.4,220.1 267.8,221.6 268.1,223.1 268.3,224.6 268.3,226.1 268.4,226.9 268.4,227.7 268.6,228.4 268.8,229.1 269.1,229.8 269.4,230.5 269.8,231.2 270.2,231.8 270.7,232.4 271.2,233.0 271.7,233.5 272.3,234.0 273.0,234.4 273.6,234.8 274.3,235.1 275.0,235.4 275.8,235.6 276.5,235.7 277.3,235.8 278.0,235.8 514.6,235.8 516.2,235.9 517.7,236.1 519.2,236.4 520.6,236.8 522.1,237.3 523.4,238.0 524.8,238.7 526.0,239.6 527.2,240.5 528.4,241.5 529.4,242.7 530.3,243.9 531.2,245.1 531.9,246.5 532.6,247.8 533.1,249.3 533.5,250.7 533.8,252.2 534.0,253.8 534.1,255.3 534.1,271.6 534.1,272.9 534.1,274.3 534.1,275.7 534.2,277.1 534.2,278.5 534.3,279.9 534.4,281.3 534.5,282.7 534.7,284.0 534.8,285.4 535.0,286.8 535.1,288.2 535.3,289.5 535.5,290.9 535.7,292.3 535.9,293.7 536.2,295.0 536.4,296.4 536.7,297.8 537.0,299.1 537.3,300.5 537.6,301.8 538.0,303.2 538.3,304.5 538.7,305.9 539.0,307.2 539.4,308.5 539.8,309.9 540.2,311.2 540.7,312.5 541.1,313.8 541.6,315.1 542.0,316.4 542.5,317.7 543.0,319.0 543.5,320.3 544.1,321.6 544.6,322.9 545.2,324.2 545.7,325.4 546.3,326.7 546.9,327.9 547.5,329.2 548.1,330.4 548.8,331.7 549.4,332.9 550.1,334.1 550.7,335.3 551.4,336.5 552.1,337.7 552.8,338.9 553.6,340.1 554.3,341.3 555.1,342.4 555.8,343.6 556.6,344.8 557.4,345.9 558.2,347.0 559.0,348.2 559.8,349.3 560.2,349.8 560.5,350.3 560.8,350.8 561.2,351.4 561.5,351.9 561.7,352.5 562.0,353.0 562.2,353.6 562.5,354.2 562.7,354.8 562.9,355.4 563.0,356.0 563.2,356.6 563.3,357.2 563.4,357.8 563.5,358.4 563.6,359.0 563.6,359.6 563.6,360.3 563.7,360.9 563.7,450.4 563.6,451.4 563.6,452.4 563.4,453.3 563.3,454.3 563.1,455.2 562.8,456.1 562.5,457.0 562.2,457.9 561.8,458.8 561.3,459.7 560.9,460.5 560.3,461.3 559.8,462.1 559.2,462.8 558.6,463.6 557.9,464.3 557.2,464.9 556.5,465.5 555.7,466.1 554.9,466.7 491.4,508.5 490.9,508.8 490.4,509.1 489.9,509.4 489.4,509.7 488.9,509.9 488.4,510.1 487.9,510.4 487.4,510.6 486.8,510.8 486.3,510.9 485.7,511.1 485.2,511.2 484.6,511.3 484.1,511.4 483.5,511.5 483.0,511.6 482.4,511.7 481.8,511.7 481.3,511.7 480.7,511.7 398.5,511.7 398.2,511.7 398.0,511.7 397.7,511.7 397.4,511.7 397.2,511.7 396.9,511.7 396.6,511.7 396.4,511.6 396.1,511.6 395.8,511.6 395.6,511.5 395.3,511.5 395.1,511.4 394.8,511.4 394.5,511.3 394.3,511.3 394.0,511.2 393.7,511.2 393.5,511.1 393.2,511.0 393.0,510.9 392.7,510.9 392.5,510.8 392.2,510.7 392.0,510.6 391.7,510.5 391.5,510.4 391.2,510.3 391.0,510.2 390.7,510.1 390.5,510.0 390.2,509.9 390.0,509.8 389.7,509.7 389.5,509.5 389.3,509.4 389.0,509.3 388.8,509.1 388.6,509.0 388.3,508.9 388.1,508.7 387.9,508.6 387.7,508.4 387.5,508.3 387.2,508.1 387.0,508.0 386.8,507.8 386.6,507.7 386.4,507.5 386.2,507.3 386.0,507.2 385.8,507.0 385.6,506.8 385.4,506.6 385.2,506.4 385.0,506.3 384.8,506.1 384.6,505.9 384.4,505.7 384.2,505.5 383.9,505.1 383.6,504.8 383.2,504.5 382.9,504.1 382.5,503.8 382.2,503.5 381.8,503.1 381.5,502.8 381.1,502.5 380.7,502.2 380.4,501.9 380.0,501.6 379.6,501.3 379.2,501.0 378.8,500.7 378.4,500.5 378.0,500.2 377.6,499.9 377.2,499.7 376.8,499.4 376.4,499.2 376.0,498.9 375.6,498.7 375.2,498.5 374.7,498.2 374.3,498.0 373.9,497.8 373.4,497.6 373.0,497.4 372.6,497.2 372.1,497.0 371.7,496.8 371.2,496.6 370.8,496.5 370.3,496.3 369.9,496.1 369.4,496.0 369.0,495.8 368.5,495.7 368.0,495.6 367.6,495.4 367.1,495.3 366.6,495.2 366.2,495.1 365.7,495.0 365.2,494.9 364.8,494.8 364.3,494.7 363.8,494.7 363.3,494.6 362.9,494.5 362.4,494.5 361.9,494.4 361.4,494.4 360.9,494.3 360.5,494.3 360.0,494.3 359.5,494.3 359.0,494.3 358.5,494.3 161.5,494.3 161.3,494.2 161.2,494.2 161.0,494.2 160.9,494.2 160.7,494.1 160.6,494.0 160.5,494.0 160.3,493.9 160.2,493.8 160.1,493.7 160.0,493.6 159.9,493.5 159.8,493.3 159.7,493.2 159.7,493.1 159.6,492.9 159.6,492.8 159.5,492.6 159.5,492.5 159.5,492.3 159.5,226.1" fill="white" stroke="none"/>
<line x1="151.8" y1="226.1" x2="151.8" y2="492.3" stroke="#333" stroke-width="1.5"/>
<polyline points="151.8,492.3 151.8,493.1 151.9,493.8 152.0,494.6 152.2,495.3 152.5,496.0 152.8,496.7 153.2,497.4 153.6,498.0 154.1,498.6 154.6,499.2 155.2,499.7 155.8,500.2 156.4,500.6 157.1,501.0 157.8,501.3 158.5,501.6 159.2,501.8 159.9,501.9 160.7,502.0 161.5,502.0" fill="none" stroke="#333" stroke-width="1.5" stroke-linecap="round"/>
<line x1="161.5" y1="502.0" x2="358.5" y2="502.0" stroke="#333" stroke-width="1.5"/>
<polyline points="358.5,502.0 358.9,502.0 359.3,502.0 359.7,502.1 360.0,502.1 360.4,502.1 360.8,502.1 361.2,502.2 361.5,502.2 361.9,502.2 362.3,502.3 362.6,502.3 363.0,502.4 363.4,502.5 363.7,502.5 364.1,502.6 364.5,502.7 364.8,502.8 365.2,502.9 365.6,503.0 365.9,503.0 366.3,503.2 366.6,503.3 367.0,503.4 367.4,503.5 367.7,503.6 368.1,503.7 368.4,503.9 368.8,504.0 369.1,504.2 369.4,504.3 369.8,504.5 370.1,504.6 370.5,504.8 370.8,504.9 371.1,505.1 371.5,505.3 371.8,505.5 372.1,505.7 372.4,505.8 372.8,506.0 373.1,506.2 373.4,506.4 373.7,506.6 374.0,506.9 374.3,507.1 374.6,507.3 374.9,507.5 375.2,507.7 375.5,508.0 375.8,508.2 376.1,508.4 376.4,508.7 376.7,508.9 376.9,509.2 377.2,509.4 377.5,509.7 377.7,510.0 378.0,510.2 378.3,510.5 378.5,510.8" fill="none" stroke="#333" stroke-width="1.5" stroke-linecap="round"/>
<polyline points="378.5,510.8 378.8,511.0 379.0,511.3 379.3,511.6 379.6,511.8 379.8,512.1 380.1,512.4 380.4,512.6 380.7,512.9 381.0,513.1 381.2,513.3 381.5,513.6 381.8,513.8 382.1,514.0 382.4,514.3 382.7,514.5 383.0,514.7 383.3,514.9 383.7,515.1 384.0,515.3 384.3,515.5 384.6,515.7 384.9,515.9 385.3,516.1 385.6,516.2 385.9,516.4 386.2,516.6 386.6,516.8 386.9,516.9 387.3,517.1 387.6,517.2 387.9,517.4 388.3,517.5 388.6,517.7 389.0,517.8 389.3,517.9 389.7,518.0 390.0,518.2 390.4,518.3 390.8,518.4 391.1,518.5 391.5,518.6 391.8,518.7 392.2,518.8 392.6,518.9 392.9,518.9 393.3,519.0 393.7,519.1 394.0,519.1 394.4,519.2 394.8,519.3 395.1,519.3 395.5,519.3 395.9,519.4 396.3,519.4 396.6,519.4 397.0,519.5 397.4,519.5 397.8,519.5 398.1,519.5 398.5,519.5" fill="none" stroke="#333" stroke-width="1.5" stroke-linecap="round"/>
<line x1="398.5" y1="519.5" x2="480.7" y2="519.5" stroke="#333" stroke-width="1.5"/>
<polyline points="480.7,519.5 481.5,519.5 482.3,519.5 483.1,519.4 483.9,519.3 484.7,519.2 485.4,519.1 486.2,518.9 487.0,518.8 487.8,518.6 488.5,518.4 489.3,518.1 490.0,517.9 490.8,517.6 491.5,517.3 492.2,517.0 492.9,516.6 493.6,516.2 494.3,515.9 495.0,515.5 495.7,515.0" fill="none" stroke="#333" stroke-width="1.5" stroke-linecap="round"/>
<line x1="495.7" y1="515.0" x2="559.2" y2="473.2" stroke="#333" stroke-width="1.5"/>
<polyline points="559.2,473.2 560.3,472.4 561.4,471.6 562.4,470.7 563.4,469.8 564.3,468.8 565.2,467.8 566.0,466.7 566.8,465.6 567.5,464.5 568.2,463.3 568.8,462.1 569.3,460.9 569.8,459.7 570.2,458.4 570.6,457.1 570.9,455.8 571.1,454.5 571.3,453.1 571.4,451.8 571.4,450.4" fill="none" stroke="#333" stroke-width="1.5" stroke-linecap="round"/>
<line x1="571.4" y1="450.4" x2="571.4" y2="360.9" stroke="#333" stroke-width="1.5"/>
<polyline points="571.4,360.9 571.4,360.0 571.4,359.1 571.3,358.3 571.2,357.4 571.1,356.6 570.9,355.7 570.7,354.8 570.5,354.0 570.3,353.2 570.0,352.3 569.8,351.5 569.4,350.7 569.1,349.9 568.7,349.1 568.4,348.3 567.9,347.6 567.5,346.8 567.0,346.1 566.6,345.4 566.0,344.6" fill="none" stroke="#333" stroke-width="1.5" stroke-linecap="round"/>
<polyline points="566.0,344.6 565.3,343.6 564.5,342.5 563.8,341.5 563.0,340.4 562.3,339.3 561.6,338.2 560.9,337.1 560.2,336.0 559.5,334.9 558.8,333.8 558.2,332.7 557.5,331.5 556.9,330.4 556.3,329.2 555.7,328.1 555.1,326.9 554.5,325.7 553.9,324.6 553.3,323.4 552.8,322.2 552.3,321.0 551.7,319.8 551.2,318.6 550.7,317.4 550.3,316.2 549.8,315.0 549.3,313.8 548.9,312.5 548.5,311.3 548.0,310.1 547.6,308.8 547.2,307.6 546.9,306.3 546.5,305.1 546.2,303.8 545.8,302.5 545.5,301.3 545.2,300.0 544.9,298.7 544.6,297.5 544.3,296.2 544.1,294.9 543.8,293.6 543.6,292.3 543.4,291.1 543.2,289.8 543.0,288.5 542.8,287.2 542.7,285.9 542.5,284.6 542.4,283.3 542.3,282.0 542.2,280.7 542.1,279.4 542.0,278.1 541.9,276.8 541.9,275.5 541.9,274.2 541.8,272.9 541.8,271.6" fill="none" stroke="#333" stroke-width="1.5" stroke-linecap="round"/>
<line x1="541.8" y1="271.6" x2="541.8" y2="255.3" stroke="#333" stroke-width="1.5"/>
<polyline points="541.8,255.3 541.7,253.1 541.5,251.0 541.1,248.9 540.5,246.9 539.8,244.9 538.9,242.9 537.8,241.1 536.6,239.3 535.3,237.6 533.9,236.0 532.3,234.6 530.6,233.3 528.8,232.1 527.0,231.0 525.0,230.1 523.0,229.4 521.0,228.8 518.9,228.4 516.8,228.2 514.6,228.1" fill="none" stroke="#333" stroke-width="1.5" stroke-linecap="round"/>
<line x1="514.6" y1="228.1" x2="278.0" y2="228.1" stroke="#333" stroke-width="1.5"/>
<polyline points="278.0,228.1 277.9,228.1 277.7,228.1 277.6,228.0 277.4,228.0 277.3,227.9 277.2,227.9 277.0,227.8 276.9,227.7 276.8,227.6 276.7,227.5 276.6,227.4 276.5,227.3 276.4,227.1 276.3,227.0 276.2,226.9 276.2,226.7 276.2,226.6 276.1,226.4 276.1,226.3 276.1,226.1" fill="none" stroke="#333" stroke-width="1.5" stroke-linecap="round"/>
<polyline points="276.1,226.1 276.0,224.0 275.8,221.9 275.3,219.8 274.8,217.7 274.0,215.7 273.1,213.8 272.1,211.9 270.9,210.1 269.6,208.5 268.1,206.9 266.6,205.4 264.9,204.1 263.1,202.9 261.2,201.9 259.3,201.0 257.3,200.3 255.2,199.7 253.2,199.3 251.0,199.0 248.9,198.9" fill="none" stroke="#333" stroke-width="1.5" stroke-linecap="round"/>
<line x1="248.9" y1="198.9" x2="179.0" y2="198.9" stroke="#333" stroke-width="1.5"/>
<polyline points="179.0,198.9 176.8,199.0 174.7,199.3 172.6,199.7 170.5,200.3 168.5,201.0 166.6,201.9 164.7,202.9 163.0,204.1 161.3,205.4 159.7,206.9 158.3,208.5 156.9,210.1 155.8,211.9 154.7,213.8 153.8,215.7 153.1,217.7 152.5,219.8 152.1,221.9 151.8,224.0 151.8,226.1" fill="none" stroke="#333" stroke-width="1.5" stroke-linecap="round"/>
<line x1="159.5" y1="226.1" x2="159.5" y2="492.3" stroke="#666" stroke-width="1.0"/>
<polyline points="159.5,492.3 159.5,492.5 159.5,492.6 159.6,492.8 159.6,492.9 159.7,493.1 159.7,493.2 159.8,493.3 159.9,493.5 160.0,493.6 160.1,493.7 160.2,493.8 160.3,493.9 160.5,494.0 160.6,494.0 160.7,494.1 160.9,494.2 161.0,494.2 161.2,494.2 161.3,494.2 161.5,494.3" fill="none" stroke="#666" stroke-width="1.0" stroke-linecap="round"/>
<line x1="161.5" y1="494.3" x2="358.5" y2="494.3" stroke="#666" stroke-width="1.0"/>
<polyline points="358.5,494.3 359.0,494.3 359.5,494.3 360.0,494.3 360.5,494.3 360.9,494.3 361.4,494.4 361.9,494.4 362.4,494.5 362.9,494.5 363.3,494.6 363.8,494.7 364.3,494.7 364.8,494.8 365.2,494.9 365.7,495.0 366.2,495.1 366.6,495.2 367.1,495.3 367.6,495.4 368.0,495.6 368.5,495.7 369.0,495.8 369.4,496.0 369.9,496.1 370.3,496.3 370.8,496.5 371.2,496.6 371.7,496.8 372.1,497.0 372.6,497.2 373.0,497.4 373.4,497.6 373.9,497.8 374.3,498.0 374.7,498.2 375.2,498.5 375.6,498.7 376.0,498.9 376.4,499.2 376.8,499.4 377.2,499.7 377.6,499.9 378.0,500.2 378.4,500.5 378.8,500.7 379.2,501.0 379.6,501.3 380.0,501.6 380.4,501.9 380.7,502.2 381.1,502.5 381.5,502.8 381.8,503.1 382.2,503.5 382.5,503.8 382.9,504.1 383.2,504.5 383.6,504.8 383.9,505.1 384.2,505.5" fill="none" stroke="#666" stroke-width="1.0" stroke-linecap="round"/>
<polyline points="384.2,505.5 384.4,505.7 384.6,505.9 384.8,506.1 385.0,506.3 385.2,506.4 385.4,506.6 385.6,506.8 385.8,507.0 386.0,507.2 386.2,507.3 386.4,507.5 386.6,507.7 386.8,507.8 387.0,508.0 387.2,508.1 387.5,508.3 387.7,508.4 387.9,508.6 388.1,508.7 388.3,508.9 388.6,509.0 388.8,509.1 389.0,509.3 389.3,509.4 389.5,509.5 389.7,509.7 390.0,509.8 390.2,509.9 390.5,510.0 390.7,510.1 391.0,510.2 391.2,510.3 391.5,510.4 391.7,510.5 392.0,510.6 392.2,510.7 392.5,510.8 392.7,510.9 393.0,510.9 393.2,511.0 393.5,511.1 393.7,511.2 394.0,511.2 394.3,511.3 394.5,511.3 394.8,511.4 395.1,511.4 395.3,511.5 395.6,511.5 395.8,511.6 396.1,511.6 396.4,511.6 396.6,511.7 396.9,511.7 397.2,511.7 397.4,511.7 397.7,511.7 398.0,511.7 398.2,511.7 398.5,511.7" fill="none" stroke="#666" stroke-width="1.0" stroke-linecap="round"/>
<line x1="398.5" y1="511.7" x2="480.7" y2="511.7" stroke="#666" stroke-width="1.0"/>
<polyline points="480.7,511.7 481.3,511.7 481.8,511.7 482.4,511.7 483.0,511.6 483.5,511.5 484.1,511.4 484.6,511.3 485.2,511.2 485.7,511.1 486.3,510.9 486.8,510.8 487.4,510.6 487.9,510.4 488.4,510.1 488.9,509.9 489.4,509.7 489.9,509.4 490.4,509.1 490.9,508.8 491.4,508.5" fill="none" stroke="#666" stroke-width="1.0" stroke-linecap="round"/>
<line x1="491.4" y1="508.5" x2="554.9" y2="466.7" stroke="#666" stroke-width="1.0"/>
<polyline points="554.9,466.7 555.7,466.1 556.5,465.5 557.2,464.9 557.9,464.3 558.6,463.6 559.2,462.8 559.8,462.1 560.3,461.3 560.9,460.5 561.3,459.7 561.8,458.8 562.2,457.9 562.5,457.0 562.8,456.1 563.1,455.2 563.3,454.3 563.4,453.3 563.6,452.4 563.6,451.4 563.7,450.4" fill="none" stroke="#666" stroke-width="1.0" stroke-linecap="round"/>
<line x1="563.7" y1="450.4" x2="563.7" y2="360.9" stroke="#666" stroke-width="1.0"/>
<polyline points="563.7,360.9 563.6,360.3 563.6,359.6 563.6,359.0 563.5,358.4 563.4,357.8 563.3,357.2 563.2,356.6 563.0,356.0 562.9,355.4 562.7,354.8 562.5,354.2 562.2,353.6 562.0,353.0 561.7,352.5 561.5,351.9 561.2,351.4 560.8,350.8 560.5,350.3 560.2,349.8 559.8,349.3" fill="none" stroke="#666" stroke-width="1.0" stroke-linecap="round"/>
<polyline points="559.8,349.3 559.0,348.2 558.2,347.0 557.4,345.9 556.6,344.8 555.8,343.6 555.1,342.4 554.3,341.3 553.6,340.1 552.8,338.9 552.1,337.7 551.4,336.5 550.7,335.3 550.1,334.1 549.4,332.9 548.8,331.7 548.1,330.4 547.5,329.2 546.9,327.9 546.3,326.7 545.7,325.4 545.2,324.2 544.6,322.9 544.1,321.6 543.5,320.3 543.0,319.0 542.5,317.7 542.0,316.4 541.6,315.1 541.1,313.8 540.7,312.5 540.2,311.2 539.8,309.9 539.4,308.5 539.0,307.2 538.7,305.9 538.3,304.5 538.0,303.2 537.6,301.8 537.3,300.5 537.0,299.1 536.7,297.8 536.4,296.4 536.2,295.0 535.9,293.7 535.7,292.3 535.5,290.9 535.3,289.5 535.1,288.2 535.0,286.8 534.8,285.4 534.7,284.0 534.5,282.7 534.4,281.3 534.3,279.9 534.2,278.5 534.2,277.1 534.1,275.7 534.1,274.3 534.1,272.9 534.1,271.6" fill="none" stroke="#666" stroke-width="1.0" stroke-linecap="round"/>
<line x1="534.1" y1="271.6" x2="534.1" y2="255.3" stroke="#666" stroke-width="1.0"/>
<polyline points="534.1,255.3 534.0,253.8 533.8,252.2 533.5,250.7 533.1,249.3 532.6,247.8 531.9,246.5 531.2,245.1 530.3,243.9 529.4,242.7 528.4,241.5 527.2,240.5 526.0,239.6 524.8,238.7 523.4,238.0 522.1,237.3 520.6,236.8 519.2,236.4 517.7,236.1 516.2,235.9 514.6,235.8" fill="none" stroke="#666" stroke-width="1.0" stroke-linecap="round"/>
<line x1="514.6" y1="235.8" x2="278.0" y2="235.8" stroke="#666" stroke-width="1.0"/>
<polyline points="278.0,235.8 277.3,235.8 276.5,235.7 275.8,235.6 275.0,235.4 274.3,235.1 273.6,234.8 273.0,234.4 272.3,234.0 271.7,233.5 271.2,233.0 270.7,232.4 270.2,231.8 269.8,231.2 269.4,230.5 269.1,229.8 268.8,229.1 268.6,228.4 268.4,227.7 268.4,226.9 268.3,226.1" fill="none" stroke="#666" stroke-width="1.0" stroke-linecap="round"/>
<polyline points="268.3,226.1 268.3,224.6 268.1,223.1 267.8,221.6 267.4,220.1 266.8,218.7 266.2,217.3 265.5,216.0 264.6,214.7 263.7,213.5 262.6,212.4 261.5,211.4 260.3,210.4 259.1,209.6 257.7,208.8 256.3,208.2 254.9,207.7 253.4,207.2 251.9,206.9 250.4,206.8 248.9,206.7" fill="none" stroke="#666" stroke-width="1.0" stroke-linecap="round"/>
<line x1="248.9" y1="206.7" x2="179.0" y2="206.7" stroke="#666" stroke-width="1.0"/>
<polyline points="179.0,206.7 177.4,206.8 175.9,206.9 174.4,207.2 173.0,207.7 171.5,208.2 170.1,208.8 168.8,209.6 167.5,210.4 166.3,211.4 165.2,212.4 164.2,213.5 163.2,214.7 162.4,216.0 161.6,217.3 161.0,218.7 160.5,220.1 160.1,221.6 159.8,223.1 159.6,224.6 159.5,226.1" fill="none" stroke="#666" stroke-width="1.0" stroke-linecap="round"/>
<polygon points="159.5,360.2 563.6,360.2 562.5,354.4 159.5,354.4" fill="rgba(160,160,160,0.35)" stroke="none"/>
<line x1="159.5" y1="360.2" x2="563.6" y2="360.2" stroke="#666" stroke-width="1.0"/>
<line x1="562.5" y1="354.4" x2="159.5" y2="354.4" stroke="#666" stroke-width="1.0"/>
<text x="361.6" y="352.8" text-anchor="middle" font-family="Arial" font-size="8" fill="#666">IW1</text>
<polygon points="235.3,354.4 241.1,354.4 241.1,206.7 235.3,206.7" fill="rgba(160,160,160,0.35)" stroke="none"/>
<line x1="235.3" y1="354.4" x2="235.3" y2="206.7" stroke="#666" stroke-width="1.0"/>
<line x1="241.1" y1="354.4" x2="241.1" y2="206.7" stroke="#666" stroke-width="1.0"/>
<text x="234.2" y="284.0" text-anchor="middle" font-family="Arial" font-size="8" fill="#666" transform="rotate(-90,234.2,284.0)">IW2</text>
<line x1="396.3" y1="354.4" x2="396.3" y2="235.8" stroke="#999" stroke-width="0.8"/>
<line x1="392.3" y1="354.4" x2="400.3" y2="354.4" stroke="#999" stroke-width="0.8"/>
<line x1="392.3" y1="235.8" x2="400.3" y2="235.8" stroke="#999" stroke-width="0.8"/>
<text x="393.3" y="298.1" text-anchor="middle" font-family="Arial" font-size="8" fill="#999" transform="rotate(-90,393.3,298.1)">10' 2.0"</text>
<line x1="241.1" y1="263.4" x2="534.1" y2="263.4" stroke="#999" stroke-width="0.8"/>
<line x1="241.1" y1="259.4" x2="241.1" y2="267.4" stroke="#999" stroke-width="0.8"/>
<line x1="534.1" y1="259.4" x2="534.1" y2="267.4" stroke="#999" stroke-width="0.8"/>
<text x="387.6" y="260.4" text-anchor="middle" font-family="Arial" font-size="8" fill="#999">25' 1.5"</text>
<rect x="165.4" y="461.2" width="34.0" height="29.1" fill="rgba(100,150,200,0.2)" stroke="#4682B4" stroke-width="0.8"/>
<text x="182.4" y="478.8" text-anchor="middle" font-family="Arial" font-size="7" fill="#4682B4">DRYER</text>
<rect x="165.4" y="431.1" width="34.0" height="29.1" fill="rgba(100,150,200,0.2)" stroke="#4682B4" stroke-width="0.8"/>
<text x="182.4" y="448.7" text-anchor="middle" font-family="Arial" font-size="7" fill="#4682B4">WASHER</text>
<path d="M 234.3,494.3 L 257.6,494.3 L 257.6,424.3 L 243.1,424.3 A 8.7 8.7 0 0 0 234.3,433.1 Z" fill="rgba(100,150,200,0.2)" stroke="#4682B4" stroke-width="0.8"/>
<text x="246.0" y="459.3" text-anchor="middle" font-family="Arial" font-size="7" fill="#4682B4" letter-spacing="0.5" transform="rotate(-90,246.0,459.3)">COUNTER</text>
<polygon points="257.6,494.3 260.6,494.3 260.6,424.3 289.7,424.3 289.7,421.4 257.6,421.4" fill="rgba(160,160,160,0.35)" stroke="#666" stroke-width="0.8"/>
<polygon points="289.7,494.3 293.6,494.3 293.6,360.2 289.7,360.2" fill="rgba(160,160,160,0.35)" stroke="#666" stroke-width="0.8"/>
<text x="287.6" y="430.7" text-anchor="middle" font-family="Arial" font-size="8" fill="#666" transform="rotate(-90,287.6,430.7)">IW3</text>
<polygon points="429.6,511.7 433.5,511.7 433.5,360.2 429.6,360.2" fill="rgba(160,160,160,0.35)" stroke="#666" stroke-width="0.8"/>
<text x="427.5" y="439.5" text-anchor="middle" font-family="Arial" font-size="8" fill="#666" transform="rotate(-90,427.5,439.5)">IW4</text>
<polygon points="433.5,438.9 465.5,438.9 465.5,511.7 462.6,511.7 462.6,441.8 433.5,441.8" fill="rgba(160,160,160,0.35)" stroke="#666" stroke-width="0.8"/>
<polygon points="433.5,392.3 563.7,392.3 563.7,389.3 433.5,389.3" fill="rgba(160,160,160,0.35)" stroke="none"/>
<line x1="433.5" y1="392.3" x2="563.7" y2="392.3" stroke="#666" stroke-width="1.0"/>
<line x1="433.5" y1="389.3" x2="563.7" y2="389.3" stroke="#666" stroke-width="1.0"/>
<text x="498.6" y="386.3" text-anchor="middle" font-family="Arial" font-size="8" fill="#666">IW5</text>
<rect x="324.7" y="401.0" width="73.8" height="91.3" fill="rgba(100,150,200,0.2)" stroke="#4682B4" stroke-width="0.8"/>
<text x="361.6" y="473.9" text-anchor="middle" font-family="Arial" font-size="7" fill="#4682B4">KING BED</text>
<text x="361.6" y="430.2" text-anchor="middle" font-family="Arial" font-size="8" fill="#666">BEDROOM</text>
<text x="498.6" y="425.9" text-anchor="middle" font-family="Arial" font-size="8" fill="#666">OFFICE</text>
<line x1="293.6" y1="460.7" x2="429.6" y2="460.7" stroke="#999" stroke-width="0.8"/>
<line x1="293.6" y1="456.7" x2="293.6" y2="464.7" stroke="#999" stroke-width="0.8"/>
<line x1="429.6" y1="456.7" x2="429.6" y2="464.7" stroke="#999" stroke-width="0.8"/>
<text x="361.6" y="457.7" text-anchor="middle" font-family="Arial" font-size="8" fill="#999">11' 8"</text>
<line x1="316.9" y1="494.3" x2="316.9" y2="360.2" stroke="#999" stroke-width="0.8"/>
<line x1="312.9" y1="494.3" x2="320.9" y2="494.3" stroke="#999" stroke-width="0.8"/>
<line x1="312.9" y1="360.2" x2="320.9" y2="360.2" stroke="#999" stroke-width="0.8"/>
<text x="313.9" y="430.2" text-anchor="middle" font-family="Arial" font-size="8" fill="#999" transform="rotate(-90,313.9,430.2)">11' 6"</text>
<line x1="275.1" y1="494.3" x2="275.1" y2="424.3" stroke="#999" stroke-width="0.8"/>
<line x1="271.1" y1="494.3" x2="279.1" y2="494.3" stroke="#999" stroke-width="0.8"/>
<line x1="271.1" y1="424.3" x2="279.1" y2="424.3" stroke="#999" stroke-width="0.8"/>
<text x="272.1" y="462.3" text-anchor="middle" font-family="Arial" font-size="8" fill="#999" transform="rotate(-90,272.1,462.3)">CLOSET 6' 0"</text>
<line x1="448.0" y1="511.7" x2="448.0" y2="441.8" stroke="#999" stroke-width="0.8"/>
<line x1="444.0" y1="511.7" x2="452.0" y2="511.7" stroke="#999" stroke-width="0.8"/>
<line x1="444.0" y1="441.8" x2="452.0" y2="441.8" stroke="#999" stroke-width="0.8"/>
<text x="445.0" y="479.8" text-anchor="middle" font-family="Arial" font-size="8" fill="#999" transform="rotate(-90,445.0,479.8)">CLOSET 6' 0"</text>
<line x1="465.5" y1="449.6" x2="563.7" y2="449.6" stroke="#999" stroke-width="0.8"/>
<line x1="465.5" y1="445.6" x2="465.5" y2="453.6" stroke="#999" stroke-width="0.8"/>
<line x1="563.7" y1="445.6" x2="563.7" y2="453.6" stroke="#999" stroke-width="0.8"/>
<text x="514.6" y="446.6" text-anchor="middle" font-family="Arial" font-size="8" fill="#999">8' 5.00"</text>
<line x1="433.5" y1="374.8" x2="563.7" y2="374.8" stroke="#999" stroke-width="0.8"/>
<line x1="433.5" y1="370.8" x2="433.5" y2="378.8" stroke="#999" stroke-width="0.8"/>
<line x1="563.7" y1="370.8" x2="563.7" y2="378.8" stroke="#999" stroke-width="0.8"/>
<text x="498.6" y="371.8" text-anchor="middle" font-family="Arial" font-size="8" fill="#999">STORAGE 11' 2.00"</text>
<line x1="480.7" y1="392.3" x2="480.7" y2="511.7" stroke="#999" stroke-width="0.8"/>
<line x1="476.7" y1="392.3" x2="484.7" y2="392.3" stroke="#999" stroke-width="0.8"/>
<line x1="476.7" y1="511.7" x2="484.7" y2="511.7" stroke="#999" stroke-width="0.8"/>
<text x="477.7" y="455.0" text-anchor="middle" font-family="Arial" font-size="8" fill="#999" transform="rotate(-90,477.7,455.0)">10' 3.00"</text>
<circle cx="151.8" cy="226.1" r="2.5" fill="#333"/>
<text x="143.8" y="220.1" text-anchor="end" font-family="Arial" font-size="9" font-weight="bold" fill="#333">C2</text>
<circle cx="151.8" cy="492.3" r="2.5" fill="#333"/>
<text x="143.8" y="488.3" text-anchor="end" font-family="Arial" font-size="9" font-weight="bold" fill="#333">C1</text>
<circle cx="161.5" cy="502.0" r="2.5" fill="#333"/>
<text x="153.5" y="512.0" text-anchor="end" font-family="Arial" font-size="9" font-weight="bold" fill="#333">C0</text>
<circle cx="358.5" cy="502.0" r="2.5" fill="#333"/>
<text x="358.5" y="490.0" text-anchor="middle" font-family="Arial" font-size="9" font-weight="bold" fill="#333">C15</text>
<circle cx="378.5" cy="510.8" r="2.5" fill="#333"/>
<text x="386.5" y="504.8" text-anchor="start" font-family="Arial" font-size="9" font-weight="bold" fill="#333">C14</text>
<circle cx="398.5" cy="519.5" r="2.5" fill="#333"/>
<text x="406.5" y="531.5" text-anchor="start" font-family="Arial" font-size="9" font-weight="bold" fill="#333">C13b</text>
<circle cx="480.7" cy="519.5" r="2.5" fill="#333"/>
<text x="488.7" y="531.5" text-anchor="start" font-family="Arial" font-size="9" font-weight="bold" fill="#333">C13a</text>
<circle cx="495.7" cy="515.0" r="2.5" fill="#333"/>
<text x="505.7" y="525.0" text-anchor="start" font-family="Arial" font-size="9" font-weight="bold" fill="#333">C13</text>
<circle cx="559.2" cy="473.2" r="2.5" fill="#333"/>
<text x="567.2" y="477.2" text-anchor="start" font-family="Arial" font-size="9" font-weight="bold" fill="#333">C12</text>
<circle cx="571.4" cy="450.4" r="2.5" fill="#333"/>
<text x="579.4" y="454.4" text-anchor="start" font-family="Arial" font-size="9" font-weight="bold" fill="#333">C11</text>
<circle cx="571.4" cy="360.9" r="2.5" fill="#333"/>
<text x="581.4" y="356.9" text-anchor="start" font-family="Arial" font-size="9" font-weight="bold" fill="#333">C10a</text>
<circle cx="566.0" cy="344.6" r="2.5" fill="#333"/>
<text x="576.0" y="340.6" text-anchor="start" font-family="Arial" font-size="9" font-weight="bold" fill="#333">C10</text>
<circle cx="541.8" cy="271.6" r="2.5" fill="#333"/>
<text x="549.8" y="279.6" text-anchor="start" font-family="Arial" font-size="9" font-weight="bold" fill="#333">C9</text>
<circle cx="541.8" cy="255.3" r="2.5" fill="#333"/>
<text x="549.8" y="267.3" text-anchor="start" font-family="Arial" font-size="9" font-weight="bold" fill="#333">C8</text>
<circle cx="514.6" cy="228.1" r="2.5" fill="#333"/>
<text x="506.6" y="222.1" text-anchor="end" font-family="Arial" font-size="9" font-weight="bold" fill="#333">C7</text>
<circle cx="278.0" cy="228.1" r="2.5" fill="#333"/>
<text x="278.0" y="242.1" text-anchor="middle" font-family="Arial" font-size="9" font-weight="bold" fill="#333">C6</text>
<circle cx="276.1" cy="226.1" r="2.5" fill="#333"/>
<text x="268.1" y="222.1" text-anchor="end" font-family="Arial" font-size="9" font-weight="bold" fill="#333">C5</text>
<circle cx="248.9" cy="198.9" r="2.5" fill="#333"/>
<text x="248.9" y="186.9" text-anchor="middle" font-family="Arial" font-size="9" font-weight="bold" fill="#333">C4</text>
<circle cx="179.0" cy="198.9" r="2.5" fill="#333"/>
<text x="169.0" y="192.9" text-anchor="end" font-family="Arial" font-size="9" font-weight="bold" fill="#333">C3</text>
<line x1="742" y1="560" x2="742" y2="524" stroke="#333" stroke-width="2" marker-end="url(#ah)"/>
<text x="742" y="518" text-anchor="middle" font-family="Arial" font-size="13" font-weight="bold">N</text>
<rect x="622.0" y="132.9" width="130" height="58" fill="white" stroke="#333" stroke-width="1"/>
<text x="687.0" y="146.9" text-anchor="middle" font-family="Arial" font-size="11" font-weight="bold" fill="#333">778.98 sq ft</text>
<text x="687.0" y="158.9" text-anchor="middle" font-family="Arial" font-size="8" fill="#666">Interior area</text>
<text x="687.0" y="172.9" text-anchor="middle" font-family="Arial" font-size="11" font-weight="bold" fill="#333">855.57 sq ft</text>
<text x="687.0" y="184.9" text-anchor="middle" font-family="Arial" font-size="8" fill="#666">Exterior area</text>
<text x="396.0" y="610" text-anchor="middle" font-family="Arial" font-size="7.5" fill="#999">Wall thickness: 8&#8243; &#8226; Outer: 855.57 sq ft &#8226; Interior: 778.98 sq ft</text>
</svg>