<svg xmlns="http://www.w3.org/2000/svg" width="792" height="612" viewBox="0 0 792 612">
<rect width="792" height="612" fill="white"/>
<defs>
  <marker id="ah" markerWidth="8" markerHeight="6" refX="8" refY="3" orient="auto"><polygon points="0 0, 8 3, 0 6" fill="#333"/></marker>
</defs>
<text x="396.0" y="30" text-anchor="middle" font-family="Arial" font-size="14" font-weight="bold">Floorplan &#8212; 8&#8243; Walls</text>
<polygon points="161.5,502.0 160.7,502.0 159.9,501.9 159.2,501.8 158.5,501.6 157.8,501.3 157.1,501.0 156.4,500.6 155.8,500.2 155.2,499.7 154.6,499.2 154.1,498.6 153.6,498.0 153.2,497.4 152.8,496.7 152.5,496.0 152.2,495.3 152.0,494.6 151.9,493.8 151.8,493.1 151.8,492.3 151.8,297.8 151.8,296.8 151.8,295.8 151.9,294.8 152.0,293.9 152.2,292.9 152.4,291.9 152.6,291.0 152.9,290.0 153.2,289.1 153.5,288.2 153.9,287.2 154.3,286.3 154.7,285.5 155.2,284.6 155.7,283.7 156.2,282.9 156.7,282.1 157.3,281.3 157.9,280.5 158.6,279.8 159.0,279.2 159.4,278.7 159.9,278.1 160.3,277.6 160.6,277.0 161.0,276.3 161.3,275.7 161.6,275.1 161.9,274.5 162.2,273.8 162.4,273.1 162.6,272.5 162.8,271.8 163.0,271.1 163.1,270.4 163.2,269.7 163.3,269.0 163.4,268.3 163.4,267.6 163.4,266.9 163.4,228.1 163.5,225.9 163.7,223.8 164.2,221.7 164.7,219.7 165.5,217.7 166.4,215.7 167.4,213.9 168.6,212.1 169.9,210.4 171.4,208.8 172.9,207.4 174.6,206.1 176.4,204.9 178.3,203.8 180.2,202.9 182.2,202.2 184.3,201.6 186.4,201.2 188.5,201.0 190.6,200.9 248.9,200.9 251.0,201.0 253.2,201.2 255.2,201.6 257.3,202.2 259.3,202.9 261.2,203.8 263.1,204.9 264.9,206.1 266.6,207.4 268.1,208.8 269.6,210.4 270.9,212.1 272.1,213.9 273.1,215.7 274.0,217.7 274.8,219.7 275.3,221.7 275.8,223.8 276.0,225.9 276.1,228.1 276.1,228.2 276.1,228.4 276.2,228.5 276.2,228.7 276.2,228.8 276.3,229.0 276.4,229.1 276.5,229.2 276.6,229.3 276.7,229.4 276.8,229.6 276.9,229.6 277.0,229.7 277.2,229.8 277.3,229.9 277.4,229.9 277.6,230.0 277.7,230.0 277.9,230.0 278.0,230.0 483.9,230.0 484.0,230.0 484.2,230.0 484.3,230.0 484.5,229.9 484.6,229.9 484.8,229.8 484.9,229.7 485.0,229.6 485.1,229.6 485.2,229.4 485.4,229.3 485.4,229.2 485.5,229.1 485.6,229.0 485.7,228.8 485.7,228.7 485.8,228.5 485.8,228.4 485.8,228.2 485.8,228.1 485.8,226.8 485.9,225.5 486.1,224.2 486.3,222.9 486.6,221.6 486.9,220.3 487.3,219.1 487.8,217.9 488.3,216.7 488.9,215.5 489.5,214.4 490.2,213.3 490.9,212.2 491.7,211.1 492.6,210.1 493.5,209.2 494.4,208.3 495.4,207.4 496.4,206.6 497.4,205.8 498.5,205.1 499.6,204.4 500.8,203.8 502.0,203.2 503.2,202.7 504.4,202.3 505.6,201.9 506.9,201.6 508.2,201.3 509.5,201.1 510.8,201.0 512.1,200.9 513.4,200.9 514.7,200.9 516.0,201.0 517.3,201.2 518.6,201.4 519.8,201.7 521.1,202.1 522.3,202.5 523.5,203.0 524.7,203.5 525.9,204.1 527.0,204.8 528.1,205.5 529.2,206.2 530.2,207.0 531.2,207.9 532.2,208.8 533.1,209.7 533.9,210.7 534.7,211.7 535.5,212.8 536.2,213.9 536.9,215.0 537.5,216.2 538.0,217.3 538.5,218.5 538.9,219.8 539.3,221.0 568.5,329.9 568.6,330.3 568.7,330.6 568.7,331.0 568.8,331.4 568.9,331.7 569.0,332.1 569.1,332.5 569.2,332.8 569.3,333.2 569.4,333.6 569.4,333.9 569.5,334.3 569.6,334.7 569.7,335.1 569.8,335.4 569.8,335.8 569.9,336.2 570.0,336.6 570.0,336.9 570.1,337.3 570.2,337.7 570.2,338.1 570.3,338.4 570.4,338.8 570.4,339.2 570.5,339.6 570.5,339.9 570.6,340.3 570.6,340.7 570.7,341.1 570.7,341.4 570.8,341.8 570.8,342.2 570.9,342.6 570.9,342.9 570.9,343.3 571.0,343.7 571.0,344.1 571.1,344.5 571.1,344.8 571.1,345.2 571.2,345.6 571.2,346.0 571.2,346.3 571.2,346.7 571.3,347.1 571.3,347.5 571.3,347.9 571.3,348.2 571.3,348.6 571.4,349.0 571.4,349.4 571.4,349.8 571.4,350.1 571.4,350.5 571.4,350.9 571.4,351.3 571.4,351.7 571.4,352.0 571.4,352.4 571.4,449.6 571.4,451.1 571.3,452.6 571.1,454.1 570.8,455.6 570.4,457.0 570.0,458.5 569.5,459.9 568.9,461.3 568.3,462.7 567.6,464.0 566.8,465.3 565.9,466.5 565.0,467.7 564.0,468.9 563.0,470.0 561.9,471.0 560.7,472.0 559.5,472.9 558.3,473.7 557.0,474.5 506.5,503.7 504.8,504.6 503.1,505.5 501.3,506.4 499.6,507.2 497.8,508.0 496.0,508.7 494.1,509.4 492.3,510.0 490.4,510.6 488.5,511.1 486.6,511.6 484.7,512.1 482.8,512.4 480.9,512.8 478.9,513.0 477.0,513.3 475.1,513.5 473.1,513.6 471.2,513.7 469.2,513.7 396.6,513.7 396.2,513.7 395.9,513.7 395.6,513.7 395.3,513.7 394.9,513.6 394.6,513.6 394.3,513.6 393.9,513.6 393.6,513.5 393.3,513.5 393.0,513.4 392.6,513.4 392.3,513.4 392.0,513.3 391.7,513.2 391.4,513.2 391.0,513.1 390.7,513.0 390.4,513.0 390.1,512.9 389.8,512.8 389.4,512.7 389.1,512.6 388.8,512.6 388.5,512.5 388.2,512.4 387.9,512.3 387.6,512.2 387.3,512.0 386.9,511.9 386.6,511.8 386.3,511.7 386.0,511.6 385.7,511.4 385.4,511.3 385.1,511.2 384.8,511.0 384.5,510.9 384.2,510.7 384.0,510.6 383.7,510.4 383.4,510.3 383.1,510.1 382.8,510.0 382.5,509.8 382.2,509.6 382.0,509.4 381.7,509.3 381.4,509.1 381.2,508.9 380.9,508.7 380.6,508.5 380.4,508.3 380.1,508.1 379.8,507.9 379.6,507.7 379.3,507.5 379.1,507.3 378.8,507.1 378.6,506.9 378.4,506.7 378.2,506.6 378.0,506.4 377.9,506.3 377.7,506.1 377.5,506.0 377.3,505.9 377.1,505.7 376.9,505.6 376.7,505.4 376.5,505.3 376.3,505.2 376.1,505.1 375.9,504.9 375.7,504.8 375.5,504.7 375.3,504.6 375.1,504.5 374.9,504.3 374.7,504.2 374.5,504.1 374.3,504.0 374.1,503.9 373.9,503.8 373.7,503.7 373.5,503.6 373.2,503.5 373.0,503.5 372.8,503.4 372.6,503.3 372.4,503.2 372.1,503.1 371.9,503.0 371.7,503.0 371.5,502.9 371.3,502.8 371.0,502.8 370.8,502.7 370.6,502.6 370.4,502.6 370.1,502.5 369.9,502.5 369.7,502.4 369.4,502.4 369.2,502.3 369.0,502.3 368.7,502.3 368.5,502.2 368.3,502.2 368.1,502.2 367.8,502.1 367.6,502.1 367.4,502.1 367.1,502.1 366.9,502.1 366.7,502.1 366.4,502.0 366.2,502.0 366.0,502.0 365.7,502.0" fill="rgba(160,160,160,0.35)" stroke="none"/>
<polygon points="365.7,494.3 366.0,494.3 366.4,494.3 366.7,494.3 367.0,494.3 367.4,494.3 367.7,494.3 368.0,494.4 368.3,494.4 368.7,494.4 369.0,494.5 369.3,494.5 369.6,494.5 370.0,494.6 370.3,494.6 370.6,494.7 370.9,494.8 371.3,494.8 371.6,494.9 371.9,495.0 372.2,495.0 372.5,495.1 372.8,495.2 373.2,495.3 373.5,495.4 373.8,495.5 374.1,495.6 374.4,495.7 374.7,495.8 375.0,495.9 375.3,496.0 375.6,496.1 375.9,496.3 376.2,496.4 376.6,496.5 376.8,496.6 377.1,496.8 377.4,496.9 377.7,497.1 378.0,497.2 378.3,497.4 378.6,497.5 378.9,497.7 379.2,497.8 379.5,498.0 379.8,498.2 380.0,498.3 380.3,498.5 380.6,498.7 380.9,498.9 381.1,499.0 381.4,499.2 381.7,499.4 381.9,499.6 382.2,499.8 382.4,500.0 382.7,500.2 383.0,500.4 383.2,500.6 383.5,500.8 383.7,501.1 383.9,501.2 384.1,501.4 384.2,501.5 384.4,501.7 384.6,501.8 384.8,501.9 385.0,502.1 385.2,502.2 385.4,502.4 385.6,502.5 385.7,502.6 385.9,502.8 386.1,502.9 386.3,503.0 386.5,503.1 386.7,503.2 386.9,503.4 387.1,503.5 387.4,503.6 387.6,503.7 387.8,503.8 388.0,503.9 388.2,504.0 388.4,504.1 388.6,504.2 388.8,504.3 389.0,504.4 389.3,504.5 389.5,504.6 389.7,504.7 389.9,504.7 390.1,504.8 390.4,504.9 390.6,505.0 390.8,505.0 391.0,505.1 391.2,505.2 391.5,505.2 391.7,505.3 391.9,505.4 392.2,505.4 392.4,505.5 392.6,505.5 392.8,505.6 393.1,505.6 393.3,505.6 393.5,505.7 393.8,505.7 394.0,505.7 394.2,505.8 394.5,505.8 394.7,505.8 394.9,505.8 395.2,505.9 395.4,505.9 395.6,505.9 395.9,505.9 396.1,505.9 396.3,505.9 396.6,505.9 469.2,505.9 470.9,505.9 472.7,505.8 474.4,505.7 476.2,505.5 477.9,505.3 479.7,505.1 481.4,504.8 483.1,504.5 484.8,504.1 486.5,503.6 488.2,503.2 489.9,502.6 491.5,502.1 493.2,501.5 494.8,500.8 496.4,500.1 498.0,499.4 499.6,498.6 501.1,497.8 502.6,497.0 553.1,467.8 554.1,467.2 555.0,466.6 555.8,465.9 556.7,465.2 557.5,464.5 558.2,463.7 559.0,462.8 559.6,461.9 560.3,461.0 560.8,460.1 561.4,459.1 561.8,458.1 562.3,457.1 562.6,456.1 562.9,455.0 563.2,453.9 563.4,452.9 563.5,451.8 563.6,450.7 563.7,449.6 563.7,352.4 563.7,352.1 563.7,351.7 563.6,351.4 563.6,351.0 563.6,350.7 563.6,350.3 563.6,350.0 563.6,349.7 563.6,349.3 563.6,349.0 563.6,348.6 563.5,348.3 563.5,347.9 563.5,347.6 563.5,347.2 563.5,346.9 563.4,346.5 563.4,346.2 563.4,345.9 563.4,345.5 563.3,345.2 563.3,344.8 563.3,344.5 563.2,344.1 563.2,343.8 563.1,343.4 563.1,343.1 563.1,342.8 563.0,342.4 563.0,342.1 562.9,341.7 562.9,341.4 562.8,341.0 562.8,340.7 562.7,340.4 562.7,340.0 562.6,339.7 562.6,339.3 562.5,339.0 562.4,338.7 562.4,338.3 562.3,338.0 562.3,337.6 562.2,337.3 562.1,337.0 562.1,336.6 562.0,336.3 561.9,335.9 561.8,335.6 561.8,335.3 561.7,334.9 561.6,334.6 561.5,334.2 561.5,333.9 561.4,333.6 561.3,333.2 561.2,332.9 561.1,332.6 561.0,332.2 561.0,331.9 531.8,223.0 531.5,222.2 531.2,221.3 530.9,220.4 530.5,219.6 530.1,218.7 529.6,217.9 529.1,217.1 528.5,216.4 528.0,215.7 527.3,214.9 526.7,214.3 526.0,213.6 525.3,213.0 524.6,212.5 523.8,211.9 523.0,211.4 522.2,211.0 521.4,210.5 520.5,210.2 519.7,209.8 518.8,209.5 517.9,209.3 517.0,209.1 516.1,208.9 515.1,208.8 514.2,208.7 513.3,208.6 512.3,208.7 511.4,208.7 510.5,208.8 509.6,209.0 508.6,209.1 507.7,209.4 506.9,209.6 506.0,210.0 505.1,210.3 504.3,210.7 503.5,211.2 502.6,211.6 501.9,212.2 501.1,212.7 500.4,213.3 499.7,213.9 499.0,214.6 498.4,215.3 497.8,216.0 497.2,216.7 496.7,217.5 496.2,218.3 495.8,219.1 495.4,219.9 495.0,220.8 494.7,221.7 494.4,222.6 494.1,223.5 493.9,224.4 493.8,225.3 493.7,226.2 493.6,227.1 493.6,228.1 493.6,228.8 493.5,229.6 493.3,230.3 493.1,231.1 492.8,231.8 492.5,232.5 492.2,233.2 491.7,233.8 491.3,234.4 490.7,234.9 490.2,235.5 489.6,235.9 488.9,236.4 488.3,236.7 487.6,237.1 486.9,237.3 486.1,237.5 485.4,237.7 484.6,237.8 483.9,237.8 278.0,237.8 277.3,237.8 276.5,237.7 275.8,237.5 275.0,237.3 274.3,237.1 273.6,236.7 273.0,236.4 272.3,235.9 271.7,235.5 271.2,234.9 270.7,234.4 270.2,233.8 269.8,233.2 269.4,232.5 269.1,231.8 268.8,231.1 268.6,230.3 268.4,229.6 268.4,228.8 268.3,228.1 268.3,226.6 268.1,225.0 267.8,223.5 267.4,222.1 266.8,220.6 266.2,219.3 265.5,217.9 264.6,216.7 263.7,215.5 262.6,214.3 261.5,213.3 260.3,212.4 259.1,211.5 257.7,210.8 256.3,210.1 254.9,209.6 253.4,209.2 251.9,208.9 250.4,208.7 248.9,208.6 190.6,208.6 189.1,208.7 187.6,208.9 186.1,209.2 184.6,209.6 183.2,210.1 181.8,210.8 180.5,211.5 179.2,212.4 178.0,213.3 176.9,214.3 175.8,215.5 174.9,216.7 174.0,217.9 173.3,219.3 172.7,220.6 172.1,222.1 171.7,223.5 171.4,225.0 171.2,226.6 171.2,228.1 171.2,266.9 171.2,267.9 171.1,268.9 171.0,269.9 170.9,270.9 170.7,271.8 170.5,272.8 170.3,273.7 170.1,274.7 169.8,275.6 169.4,276.6 169.1,277.5 168.7,278.4 168.2,279.2 167.8,280.1 167.3,281.0 166.8,281.8 166.2,282.6 165.6,283.4 165.0,284.2 164.4,284.9 163.9,285.5 163.5,286.0 163.1,286.6 162.7,287.2 162.3,287.8 162.0,288.4 161.6,289.0 161.3,289.6 161.0,290.3 160.8,290.9 160.5,291.6 160.3,292.2 160.1,292.9 160.0,293.6 159.8,294.3 159.7,295.0 159.6,295.7 159.6,296.4 159.5,297.1 159.5,297.8 159.5,492.3 159.5,492.5 159.5,492.6 159.6,492.8 159.6,492.9 159.7,493.1 159.7,493.2 159.8,493.3 159.9,493.5 160.0,493.6 160.1,493.7 160.2,493.8 160.3,493.9 160.5,494.0 160.6,494.0 160.7,494.1 160.9,494.2 161.0,494.2 161.2,494.2 161.3,494.2 161.5,494.3" fill="white" stroke="none"/>
<polyline points="161.5,502.0 160.7,502.0 159.9,501.9 159.2,501.8 158.5,501.6 157.8,501.3 157.1,501.0 156.4,500.6 155.8,500.2 155.2,499.7 154.6,499.2 154.1,498.6 153.6,498.0 153.2,497.4 152.8,496.7 152.5,496.0 152.2,495.3 152.0,494.6 151.9,493.8 151.8,493.1 151.8,492.3" fill="none" stroke="#333" stroke-width="1.5" stroke-linecap="round"/>
<line x1="151.8" y1="492.3" x2="151.8" y2="297.8" stroke="#333" stroke-width="1.5"/>
<polyline points="151.8,297.8 151.8,296.8 151.8,295.8 151.9,294.8 152.0,293.9 152.2,292.9 152.4,291.9 152.6,291.0 152.9,290.0 153.2,289.1 153.5,288.2 153.9,287.2 154.3,286.3 154.7,285.5 155.2,284.6 155.7,283.7 156.2,282.9 156.7,282.1 157.3,281.3 157.9,280.5 158.6,279.8" fill="none" stroke="#333" stroke-width="1.5" stroke-linecap="round"/>
<polyline points="158.6,279.8 159.0,279.2 159.4,278.7 159.9,278.1 160.3,277.6 160.6,277.0 161.0,276.3 161.3,275.7 161.6,275.1 161.9,274.5 162.2,273.8 162.4,273.1 162.6,272.5 162.8,271.8 163.0,271.1 163.1,270.4 163.2,269.7 163.3,269.0 163.4,268.3 163.4,267.6 163.4,266.9" fill="none" stroke="#333" stroke-width="1.5" stroke-linecap="round"/>
<line x1="163.4" y1="266.9" x2="163.4" y2="228.1" stroke="#333" stroke-width="1.5"/>
<polyline points="163.4,228.1 163.5,225.9 163.7,223.8 164.2,221.7 164.7,219.7 165.5,217.7 166.4,215.7 167.4,213.9 168.6,212.1 169.9,210.4 171.4,208.8 172.9,207.4 174.6,206.1 176.4,204.9 178.3,203.8 180.2,202.9 182.2,202.2 184.3,201.6 186.4,201.2 188.5,201.0 190.6,200.9" fill="none" stroke="#333" stroke-width="1.5" stroke-linecap="round"/>
<line x1="190.6" y1="200.9" x2="248.9" y2="200.9" stroke="#333" stroke-width="1.5"/>
<polyline points="248.9,200.9 251.0,201.0 253.2,201.2 255.2,201.6 257.3,202.2 259.3,202.9 261.2,203.8 263.1,204.9 264.9,206.1 266.6,207.4 268.1,208.8 269.6,210.4 270.9,212.1 272.1,213.9 273.1,215.7 274.0,217.7 274.8,219.7 275.3,221.7 275.8,223.8 276.0,225.9 276.1,228.1" fill="none" stroke="#333" stroke-width="1.5" stroke-linecap="round"/>
<polyline points="276.1,228.1 276.1,228.2 276.1,228.4 276.2,228.5 276.2,228.7 276.2,228.8 276.3,229.0 276.4,229.1 276.5,229.2 276.6,229.3 276.7,229.4 276.8,229.6 276.9,229.6 277.0,229.7 277.2,229.8 277.3,229.9 277.4,229.9 277.6,230.0 277.7,230.0 277.9,230.0 278.0,230.0" fill="none" stroke="#333" stroke-width="1.5" stroke-linecap="round"/>
<line x1="278.0" y1="230.0" x2="483.9" y2="230.0" stroke="#333" stroke-width="1.5"/>
<polyline points="483.9,230.0 484.0,230.0 484.2,230.0 484.3,230.0 484.5,229.9 484.6,229.9 484.8,229.8 484.9,229.7 485.0,229.6 485.1,229.6 485.2,229.4 485.4,229.3 485.4,229.2 485.5,229.1 485.6,229.0 485.7,228.8 485.7,228.7 485.8,228.5 485.8,228.4 485.8,228.2 485.8,228.1" fill="none" stroke="#333" stroke-width="1.5" stroke-linecap="round"/>
<polyline points="485.8,228.1 485.8,226.8 485.9,225.5 486.1,224.2 486.3,222.9 486.6,221.6 486.9,220.3 487.3,219.1 487.8,217.9 488.3,216.7 488.9,215.5 489.5,214.4 490.2,213.3 490.9,212.2 491.7,211.1 492.6,210.1 493.5,209.2 494.4,208.3 495.4,207.4 496.4,206.6 497.4,205.8 498.5,205.1 499.6,204.4 500.8,203.8 502.0,203.2 503.2,202.7 504.4,202.3 505.6,201.9 506.9,201.6 508.2,201.3 509.5,201.1 510.8,201.0 512.1,200.9 513.4,200.9 514.7,200.9 516.0,201.0 517.3,201.2 518.6,201.4 519.8,201.7 521.1,202.1 522.3,202.5 523.5,203.0 524.7,203.5 525.9,204.1 527.0,204.8 528.1,205.5 529.2,206.2 530.2,207.0 531.2,207.9 532.2,208.8 533.1,209.7 533.9,210.7 534.7,211.7 535.5,212.8 536.2,213.9 536.9,215.0 537.5,216.2 538.0,217.3 538.5,218.5 538.9,219.8 539.3,221.0" fill="none" stroke="#333" stroke-width="1.5" stroke-linecap="round"/>
<line x1="539.3" y1="221.0" x2="568.5" y2="329.9" stroke="#333" stroke-width="1.5"/>
<polyline points="568.5,329.9 568.6,330.3 568.7,330.6 568.7,331.0 568.8,331.4 568.9,331.7 569.0,332.1 569.1,332.5 569.2,332.8 569.3,333.2 569.4,333.6 569.4,333.9 569.5,334.3 569.6,334.7 569.7,335.1 569.8,335.4 569.8,335.8 569.9,336.2 570.0,336.6 570.0,336.9 570.1,337.3 570.2,337.7 570.2,338.1 570.3,338.4 570.4,338.8 570.4,339.2 570.5,339.6 570.5,339.9 570.6,340.3 570.6,340.7 570.7,341.1 570.7,341.4 570.8,341.8 570.8,342.2 570.9,342.6 570.9,342.9 570.9,343.3 571.0,343.7 571.0,344.1 571.1,344.5 571.1,344.8 571.1,345.2 571.2,345.6 571.2,346.0 571.2,346.3 571.2,346.7 571.3,347.1 571.3,347.5 571.3,347.9 571.3,348.2 571.3,348.6 571.4,349.0 571.4,349.4 571.4,349.8 571.4,350.1 571.4,350.5 571.4,350.9 571.4,351.3 571.4,351.7 571.4,352.0 571.4,352.4" fill="none" stroke="#333" stroke-width="1.5" stroke-linecap="round"/>
<line x1="571.4" y1="352.4" x2="571.4" y2="449.6" stroke="#333" stroke-width="1.5"/>
<polyline points="571.4,449.6 571.4,451.1 571.3,452.6 571.1,454.1 570.8,455.6 570.4,457.0 570.0,458.5 569.5,459.9 568.9,461.3 568.3,462.7 567.6,464.0 566.8,465.3 565.9,466.5 565.0,467.7 564.0,468.9 563.0,470.0 561.9,471.0 560.7,472.0 559.5,472.9 558.3,473.7 557.0,474.5" fill="none" stroke="#333" stroke-width="1.5" stroke-linecap="round"/>
<line x1="557.0" y1="474.5" x2="506.5" y2="503.7" stroke="#333" stroke-width="1.5"/>
<polyline points="506.5,503.7 504.8,504.6 503.1,505.5 501.3,506.4 499.6,507.2 497.8,508.0 496.0,508.7 494.1,509.4 492.3,510.0 490.4,510.6 488.5,511.1 486.6,511.6 484.7,512.1 482.8,512.4 480.9,512.8 478.9,513.0 477.0,513.3 475.1,513.5 473.1,513.6 471.2,513.7 469.2,513.7" fill="none" stroke="#333" stroke-width="1.5" stroke-linecap="round"/>
<line x1="469.2" y1="513.7" x2="396.6" y2="513.7" stroke="#333" stroke-width="1.5"/>
<polyline points="396.6,513.7 396.2,513.7 395.9,513.7 395.6,513.7 395.3,513.7 394.9,513.6 394.6,513.6 394.3,513.6 393.9,513.6 393.6,513.5 393.3,513.5 393.0,513.4 392.6,513.4 392.3,513.4 392.0,513.3 391.7,513.2 391.4,513.2 391.0,513.1 390.7,513.0 390.4,513.0 390.1,512.9 389.8,512.8 389.4,512.7 389.1,512.6 388.8,512.6 388.5,512.5 388.2,512.4 387.9,512.3 387.6,512.2 387.3,512.0 386.9,511.9 386.6,511.8 386.3,511.7 386.0,511.6 385.7,511.4 385.4,511.3 385.1,511.2 384.8,511.0 384.5,510.9 384.2,510.7 384.0,510.6 383.7,510.4 383.4,510.3 383.1,510.1 382.8,510.0 382.5,509.8 382.2,509.6 382.0,509.4 381.7,509.3 381.4,509.1 381.2,508.9 380.9,508.7 380.6,508.5 380.4,508.3 380.1,508.1 379.8,507.9 379.6,507.7 379.3,507.5 379.1,507.3 378.8,507.1 378.6,506.9" fill="none" stroke="#333" stroke-width="1.5" stroke-linecap="round"/>
<polyline points="378.6,506.9 378.4,506.7 378.2,506.6 378.0,506.4 377.9,506.3 377.7,506.1 377.5,506.0 377.3,505.9 377.1,505.7 376.9,505.6 376.7,505.4 376.5,505.3 376.3,505.2 376.1,505.1 375.9,504.9 375.7,504.8 375.5,504.7 375.3,504.6 375.1,504.5 374.9,504.3 374.7,504.2 374.5,504.1 374.3,504.0 374.1,503.9 373.9,503.8 373.7,503.7 373.5,503.6 373.2,503.5 373.0,503.5 372.8,503.4 372.6,503.3 372.4,503.2 372.1,503.1 371.9,503.0 371.7,503.0 371.5,502.9 371.3,502.8 371.0,502.8 370.8,502.7 370.6,502.6 370.4,502.6 370.1,502.5 369.9,502.5 369.7,502.4 369.4,502.4 369.2,502.3 369.0,502.3 368.7,502.3 368.5,502.2 368.3,502.2 368.1,502.2 367.8,502.1 367.6,502.1 367.4,502.1 367.1,502.1 366.9,502.1 366.7,502.1 366.4,502.0 366.2,502.0 366.0,502.0 365.7,502.0" fill="none" stroke="#333" stroke-width="1.5" stroke-linecap="round"/>
<line x1="365.7" y1="502.0" x2="161.5" y2="502.0" stroke="#333" stroke-width="1.5"/>
<polyline points="161.5,494.3 161.3,494.2 161.2,494.2 161.0,494.2 160.9,494.2 160.7,494.1 160.6,494.0 160.5,494.0 160.3,493.9 160.2,493.8 160.1,493.7 160.0,493.6 159.9,493.5 159.8,493.3 159.7,493.2 159.7,493.1 159.6,492.9 159.6,492.8 159.5,492.6 159.5,492.5 159.5,492.3" fill="none" stroke="#666" stroke-width="1.0" stroke-linecap="round"/>
<line x1="159.5" y1="492.3" x2="159.5" y2="297.8" stroke="#666" stroke-width="1.0"/>
<polyline points="159.5,297.8 159.5,297.1 159.6,296.4 159.6,295.7 159.7,295.0 159.8,294.3 160.0,293.6 160.1,292.9 160.3,292.2 160.5,291.6 160.8,290.9 161.0,290.3 161.3,289.6 161.6,289.0 162.0,288.4 162.3,287.8 162.7,287.2 163.1,286.6 163.5,286.0 163.9,285.5 164.4,284.9" fill="none" stroke="#666" stroke-width="1.0" stroke-linecap="round"/>
<polyline points="164.4,284.9 165.0,284.2 165.6,283.4 166.2,282.6 166.8,281.8 167.3,281.0 167.8,280.1 168.2,279.2 168.7,278.4 169.1,277.5 169.4,276.6 169.8,275.6 170.1,274.7 170.3,273.7 170.5,272.8 170.7,271.8 170.9,270.9 171.0,269.9 171.1,268.9 171.2,267.9 171.2,266.9" fill="none" stroke="#666" stroke-width="1.0" stroke-linecap="round"/>
<line x1="171.2" y1="266.9" x2="171.2" y2="228.1" stroke="#666" stroke-width="1.0"/>
<polyline points="171.2,228.1 171.2,226.6 171.4,225.0 171.7,223.5 172.1,222.1 172.7,220.6 173.3,219.3 174.0,217.9 174.9,216.7 175.8,215.5 176.9,214.3 178.0,213.3 179.2,212.4 180.5,211.5 181.8,210.8 183.2,210.1 184.6,209.6 186.1,209.2 187.6,208.9 189.1,208.7 190.6,208.6" fill="none" stroke="#666" stroke-width="1.0" stroke-linecap="round"/>
<line x1="190.6" y1="208.6" x2="248.9" y2="208.6" stroke="#666" stroke-width="1.0"/>
<polyline points="248.9,208.6 250.4,208.7 251.9,208.9 253.4,209.2 254.9,209.6 256.3,210.1 257.7,210.8 259.1,211.5 260.3,212.4 261.5,213.3 262.6,214.3 263.7,215.5 264.6,216.7 265.5,217.9 266.2,219.3 266.8,220.6 267.4,222.1 267.8,223.5 268.1,225.0 268.3,226.6 268.3,228.1" fill="none" stroke="#666" stroke-width="1.0" stroke-linecap="round"/>
<polyline points="268.3,228.1 268.4,228.8 268.4,229.6 268.6,230.3 268.8,231.1 269.1,231.8 269.4,232.5 269.8,233.2 270.2,233.8 270.7,234.4 271.2,234.9 271.7,235.5 272.3,235.9 273.0,236.4 273.6,236.7 274.3,237.1 275.0,237.3 275.8,237.5 276.5,237.7 277.3,237.8 278.0,237.8" fill="none" stroke="#666" stroke-width="1.0" stroke-linecap="round"/>
<line x1="278.0" y1="237.8" x2="483.9" y2="237.8" stroke="#666" stroke-width="1.0"/>
<polyline points="483.9,237.8 484.6,237.8 485.4,237.7 486.1,237.5 486.9,237.3 487.6,237.1 488.3,236.7 488.9,236.4 489.6,235.9 490.2,235.5 490.7,234.9 491.3,234.4 491.7,233.8 492.2,233.2 492.5,232.5 492.8,231.8 493.1,231.1 493.3,230.3 493.5,229.6 493.6,228.8 493.6,228.1" fill="none" stroke="#666" stroke-width="1.0" stroke-linecap="round"/>
<polyline points="493.6,228.1 493.6,227.1 493.7,226.2 493.8,225.3 493.9,224.4 494.1,223.5 494.4,222.6 494.7,221.7 495.0,220.8 495.4,219.9 495.8,219.1 496.2,218.3 496.7,217.5 497.2,216.7 497.8,216.0 498.4,215.3 499.0,214.6 499.7,213.9 500.4,213.3 501.1,212.7 501.9,212.2 502.6,211.6 503.5,211.2 504.3,210.7 505.1,210.3 506.0,210.0 506.9,209.6 507.7,209.4 508.6,209.1 509.6,209.0 510.5,208.8 511.4,208.7 512.3,208.7 513.3,208.6 514.2,208.7 515.1,208.8 516.1,208.9 517.0,209.1 517.9,209.3 518.8,209.5 519.7,209.8 520.5,210.2 521.4,210.5 522.2,211.0 523.0,211.4 523.8,211.9 524.6,212.5 525.3,213.0 526.0,213.6 526.7,214.3 527.3,214.9 528.0,215.7 528.5,216.4 529.1,217.1 529.6,217.9 530.1,218.7 530.5,219.6 530.9,220.4 531.2,221.3 531.5,222.2 531.8,223.0" fill="none" stroke="#666" stroke-width="1.0" stroke-linecap="round"/>
<line x1="531.8" y1="223.0" x2="561.0" y2="331.9" stroke="#666" stroke-width="1.0"/>
<polyline points="561.0,331.9 561.0,332.2 561.1,332.6 561.2,332.9 561.3,333.2 561.4,333.6 561.5,333.9 561.5,334.2 561.6,334.6 561.7,334.9 561.8,335.3 561.8,335.6 561.9,335.9 562.0,336.3 562.1,336.6 562.1,337.0 562.2,337.3 562.3,337.6 562.3,338.0 562.4,338.3 562.4,338.7 562.5,339.0 562.6,339.3 562.6,339.7 562.7,340.0 562.7,340.4 562.8,340.7 562.8,341.0 562.9,341.4 562.9,341.7 563.0,342.1 563.0,342.4 563.1,342.8 563.1,343.1 563.1,343.4 563.2,343.8 563.2,344.1 563.3,344.5 563.3,344.8 563.3,345.2 563.4,345.5 563.4,345.9 563.4,346.2 563.4,346.5 563.5,346.9 563.5,347.2 563.5,347.6 563.5,347.9 563.5,348.3 563.6,348.6 563.6,349.0 563.6,349.3 563.6,349.7 563.6,350.0 563.6,350.3 563.6,350.7 563.6,351.0 563.6,351.4 563.7,351.7 563.7,352.1 563.7,352.4" fill="none" stroke="#666" stroke-width="1.0" stroke-linecap="round"/>
<line x1="563.7" y1="352.4" x2="563.7" y2="449.6" stroke="#666" stroke-width="1.0"/>
<polyline points="563.7,449.6 563.6,450.7 563.5,451.8 563.4,452.9 563.2,453.9 562.9,455.0 562.6,456.1 562.3,457.1 561.8,458.1 561.4,459.1 560.8,460.1 560.3,461.0 559.6,461.9 559.0,462.8 558.2,463.7 557.5,464.5 556.7,465.2 555.8,465.9 555.0,466.6 554.1,467.2 553.1,467.8" fill="none" stroke="#666" stroke-width="1.0" stroke-linecap="round"/>
<line x1="553.1" y1="467.8" x2="502.6" y2="497.0" stroke="#666" stroke-width="1.0"/>
<polyline points="502.6,497.0 501.1,497.8 499.6,498.6 498.0,499.4 496.4,500.1 494.8,500.8 493.2,501.5 491.5,502.1 489.9,502.6 488.2,503.2 486.5,503.6 484.8,504.1 483.1,504.5 481.4,504.8 479.7,505.1 477.9,505.3 476.2,505.5 474.4,505.7 472.7,505.8 470.9,505.9 469.2,505.9" fill="none" stroke="#666" stroke-width="1.0" stroke-linecap="round"/>
<line x1="469.2" y1="505.9" x2="396.6" y2="505.9" stroke="#666" stroke-width="1.0"/>
<polyline points="396.6,505.9 396.3,505.9 396.1,505.9 395.9,505.9 395.6,505.9 395.4,505.9 395.2,505.9 394.9,505.8 394.7,505.8 394.5,505.8 394.2,505.8 394.0,505.7 393.8,505.7 393.5,505.7 393.3,505.6 393.1,505.6 392.8,505.6 392.6,505.5 392.4,505.5 392.2,505.4 391.9,505.4 391.7,505.3 391.5,505.2 391.2,505.2 391.0,505.1 390.8,505.0 390.6,505.0 390.4,504.9 390.1,504.8 389.9,504.7 389.7,504.7 389.5,504.6 389.3,504.5 389.0,504.4 388.8,504.3 388.6,504.2 388.4,504.1 388.2,504.0 388.0,503.9 387.8,503.8 387.6,503.7 387.4,503.6 387.1,503.5 386.9,503.4 386.7,503.2 386.5,503.1 386.3,503.0 386.1,502.9 385.9,502.8 385.7,502.6 385.6,502.5 385.4,502.4 385.2,502.2 385.0,502.1 384.8,501.9 384.6,501.8 384.4,501.7 384.2,501.5 384.1,501.4 383.9,501.2 383.7,501.1" fill="none" stroke="#666" stroke-width="1.0" stroke-linecap="round"/>
<polyline points="383.7,501.1 383.5,500.8 383.2,500.6 383.0,500.4 382.7,500.2 382.4,500.0 382.2,499.8 381.9,499.6 381.7,499.4 381.4,499.2 381.1,499.0 380.9,498.9 380.6,498.7 380.3,498.5 380.0,498.3 379.8,498.2 379.5,498.0 379.2,497.8 378.9,497.7 378.6,497.5 378.3,497.4 378.0,497.2 377.7,497.1 377.4,496.9 377.1,496.8 376.8,496.6 376.6,496.5 376.2,496.4 375.9,496.3 375.6,496.1 375.3,496.0 375.0,495.9 374.7,495.8 374.4,495.7 374.1,495.6 373.8,495.5 373.5,495.4 373.2,495.3 372.8,495.2 372.5,495.1 372.2,495.0 371.9,495.0 371.6,494.9 371.3,494.8 370.9,494.8 370.6,494.7 370.3,494.6 370.0,494.6 369.6,494.5 369.3,494.5 369.0,494.5 368.7,494.4 368.3,494.4 368.0,494.4 367.7,494.3 367.4,494.3 367.0,494.3 366.7,494.3 366.4,494.3 366.0,494.3 365.7,494.3" fill="none" stroke="#666" stroke-width="1.0" stroke-linecap="round"/>
<line x1="365.7" y1="494.3" x2="161.5" y2="494.3" stroke="#666" stroke-width="1.0"/>
<polygon points="159.5,360.2 563.7,360.2 563.7,354.4 159.5,354.4" fill="rgba(160,160,160,0.35)" stroke="none"/>
<line x1="159.5" y1="360.2" x2="563.7" y2="360.2" stroke="#666" stroke-width="1.0"/>
<line x1="563.7" y1="354.4" x2="159.5" y2="354.4" stroke="#666" stroke-width="1.0"/>
<text x="361.6" y="352.8" text-anchor="middle" font-family="Arial" font-size="8" fill="#666">IW1</text>
<polygon points="235.3,354.4 241.1,354.4 241.1,208.6 235.3,208.6" fill="rgba(160,160,160,0.35)" stroke="none"/>
<line x1="235.3" y1="354.4" x2="235.3" y2="208.6" stroke="#666" stroke-width="1.0"/>
<line x1="241.1" y1="354.4" x2="241.1" y2="208.6" stroke="#666" stroke-width="1.0"/>
<text x="234.2" y="285.0" text-anchor="middle" font-family="Arial" font-size="8" fill="#666" transform="rotate(-90,234.2,285.0)">IW2</text>
<line x1="381.9" y1="354.4" x2="381.9" y2="237.8" stroke="#999" stroke-width="0.8"/>
<line x1="377.9" y1="354.4" x2="385.9" y2="354.4" stroke="#999" stroke-width="0.8"/>
<line x1="377.9" y1="237.8" x2="385.9" y2="237.8" stroke="#999" stroke-width="0.8"/>
<text x="378.9" y="299.1" text-anchor="middle" font-family="Arial" font-size="8" fill="#999" transform="rotate(-90,378.9,299.1)">9' 12.0"</text>
<line x1="241.1" y1="275.5" x2="545.8" y2="275.5" stroke="#999" stroke-width="0.8"/>
<line x1="241.1" y1="271.5" x2="241.1" y2="279.5" stroke="#999" stroke-width="0.8"/>
<line x1="545.8" y1="271.5" x2="545.8" y2="279.5" stroke="#999" stroke-width="0.8"/>
<text x="393.5" y="272.5" text-anchor="middle" font-family="Arial" font-size="8" fill="#999">26' 1.7"</text>
<rect x="165.4" y="461.2" width="34.0" height="29.1" fill="rgba(100,150,200,0.2)" stroke="#4682B4" stroke-width="0.8"/>
<text x="182.4" y="478.8" text-anchor="middle" font-family="Arial" font-size="7" fill="#4682B4">DRYER</text>
<rect x="165.4" y="431.1" width="34.0" height="29.1" fill="rgba(100,150,200,0.2)" stroke="#4682B4" stroke-width="0.8"/>
<text x="182.4" y="448.7" text-anchor="middle" font-family="Arial" font-size="7" fill="#4682B4">WASHER</text>
<path d="M 234.3,494.3 L 257.6,494.3 L 257.6,424.3 L 243.1,424.3 A 8.7 8.7 0 0 0 234.3,433.1 Z" fill="rgba(100,150,200,0.2)" stroke="#4682B4" stroke-width="0.8"/>
<text x="246.0" y="459.3" text-anchor="middle" font-family="Arial" font-size="7" fill="#4682B4" letter-spacing="0.5" transform="rotate(-90,246.0,459.3)">COUNTER</text>
<polygon points="257.6,494.3 260.6,494.3 260.6,424.3 289.7,424.3 289.7,421.4 257.6,421.4" fill="rgba(160,160,160,0.35)" stroke="#666" stroke-width="0.8"/>
<polygon points="289.7,494.3 293.6,494.3 293.6,360.2 289.7,360.2" fill="rgba(160,160,160,0.35)" stroke="#666" stroke-width="0.8"/>
<text x="287.6" y="430.7" text-anchor="middle" font-family="Arial" font-size="8" fill="#666" transform="rotate(-90,287.6,430.7)">IW3</text>
<polygon points="429.6,505.9 433.5,505.9 433.5,360.2 429.6,360.2" fill="rgba(160,160,160,0.35)" stroke="#666" stroke-width="0.8"/>
<text x="427.5" y="436.6" text-anchor="middle" font-family="Arial" font-size="8" fill="#666" transform="rotate(-90,427.5,436.6)">IW4</text>
<polygon points="433.5,433.1 465.5,433.1 465.5,505.9 462.6,505.9 462.6,436.0 433.5,436.0" fill="rgba(160,160,160,0.35)" stroke="#666" stroke-width="0.8"/>
<polygon points="433.5,392.3 563.7,392.3 563.7,389.3 433.5,389.3" fill="rgba(160,160,160,0.35)" stroke="none"/>
<line x1="433.5" y1="392.3" x2="563.7" y2="392.3" stroke="#666" stroke-width="1.0"/>
<line x1="433.5" y1="389.3" x2="563.7" y2="389.3" stroke="#666" stroke-width="1.0"/>
<text x="498.6" y="386.3" text-anchor="middle" font-family="Arial" font-size="8" fill="#666">IW5</text>
<rect x="324.7" y="401.0" width="73.8" height="91.3" fill="rgba(100,150,200,0.2)" stroke="#4682B4" stroke-width="0.8"/>
<text x="361.6" y="473.9" text-anchor="middle" font-family="Arial" font-size="7" fill="#4682B4">KING BED</text>
<text x="361.6" y="430.2" text-anchor="middle" font-family="Arial" font-size="8" fill="#666">BEDROOM</text>
<text x="498.6" y="422.9" text-anchor="middle" font-family="Arial" font-size="8" fill="#666">OFFICE</text>
<line x1="293.6" y1="460.7" x2="429.6" y2="460.7" stroke="#999" stroke-width="0.8"/>
<line x1="293.6" y1="456.7" x2="293.6" y2="464.7" stroke="#999" stroke-width="0.8"/>
<line x1="429.6" y1="456.7" x2="429.6" y2="464.7" stroke="#999" stroke-width="0.8"/>
<text x="361.6" y="457.7" text-anchor="middle" font-family="Arial" font-size="8" fill="#999">11' 8"</text>
<line x1="316.9" y1="494.3" x2="316.9" y2="360.2" stroke="#999" stroke-width="0.8"/>
<line x1="312.9" y1="494.3" x2="320.9" y2="494.3" stroke="#999" stroke-width="0.8"/>
<line x1="312.9" y1="360.2" x2="320.9" y2="360.2" stroke="#999" stroke-width="0.8"/>
<text x="313.9" y="430.2" text-anchor="middle" font-family="Arial" font-size="8" fill="#999" transform="rotate(-90,313.9,430.2)">11' 6"</text>
<line x1="275.1" y1="494.3" x2="275.1" y2="424.3" stroke="#999" stroke-width="0.8"/>
<line x1="271.1" y1="494.3" x2="279.1" y2="494.3" stroke="#999" stroke-width="0.8"/>
<line x1="271.1" y1="424.3" x2="279.1" y2="424.3" stroke="#999" stroke-width="0.8"/>
<text x="272.1" y="462.3" text-anchor="middle" font-family="Arial" font-size="8" fill="#999" transform="rotate(-90,272.1,462.3)">CLOSET 6' 0"</text>
<line x1="448.0" y1="505.9" x2="448.0" y2="436.0" stroke="#999" stroke-width="0.8"/>
<line x1="444.0" y1="505.9" x2="452.0" y2="505.9" stroke="#999" stroke-width="0.8"/>
<line x1="444.0" y1="436.0" x2="452.0" y2="436.0" stroke="#999" stroke-width="0.8"/>
<text x="445.0" y="473.9" text-anchor="middle" font-family="Arial" font-size="8" fill="#999" transform="rotate(-90,445.0,473.9)">CLOSET 6' 0"</text>
<line x1="159.5" y1="459.3" x2="257.6" y2="459.3" stroke="#999" stroke-width="0.8"/>
<line x1="159.5" y1="455.3" x2="159.5" y2="463.3" stroke="#999" stroke-width="0.8"/>
<line x1="257.6" y1="455.3" x2="257.6" y2="463.3" stroke="#999" stroke-width="0.8"/>
<text x="208.6" y="456.3" text-anchor="middle" font-family="Arial" font-size="8" fill="#999">8' 5.0"</text>
<line x1="465.5" y1="449.6" x2="563.7" y2="449.6" stroke="#999" stroke-width="0.8"/>
<line x1="465.5" y1="445.6" x2="465.5" y2="453.6" stroke="#999" stroke-width="0.8"/>
<line x1="563.7" y1="445.6" x2="563.7" y2="453.6" stroke="#999" stroke-width="0.8"/>
<text x="514.6" y="446.6" text-anchor="middle" font-family="Arial" font-size="8" fill="#999">8' 5.00"</text>
<line x1="433.5" y1="374.8" x2="563.7" y2="374.8" stroke="#999" stroke-width="0.8"/>
<line x1="433.5" y1="370.8" x2="433.5" y2="378.8" stroke="#999" stroke-width="0.8"/>
<line x1="563.7" y1="370.8" x2="563.7" y2="378.8" stroke="#999" stroke-width="0.8"/>
<text x="498.6" y="371.8" text-anchor="middle" font-family="Arial" font-size="8" fill="#999">STORAGE 11' 2.00"</text>
<line x1="469.2" y1="392.3" x2="469.2" y2="505.9" stroke="#999" stroke-width="0.8"/>
<line x1="465.2" y1="392.3" x2="473.2" y2="392.3" stroke="#999" stroke-width="0.8"/>
<line x1="465.2" y1="505.9" x2="473.2" y2="505.9" stroke="#999" stroke-width="0.8"/>
<text x="466.2" y="452.1" text-anchor="middle" font-family="Arial" font-size="8" fill="#999" transform="rotate(-90,466.2,452.1)">9' 9.00"</text>
<line x1="202.3" y1="354.4" x2="202.3" y2="208.6" stroke="#999" stroke-width="0.8"/>
<line x1="198.3" y1="354.4" x2="206.3" y2="354.4" stroke="#999" stroke-width="0.8"/>
<line x1="198.3" y1="208.6" x2="206.3" y2="208.6" stroke="#999" stroke-width="0.8"/>
<text x="199.3" y="284.5" text-anchor="middle" font-family="Arial" font-size="8" fill="#999" transform="rotate(-90,199.3,284.5)">12' 6.0"</text>
<circle cx="161.5" cy="502.0" r="2.5" fill="#333"/>
<text x="153.5" y="512.0" text-anchor="end" font-family="Arial" font-size="9" font-weight="bold" fill="#333">F0</text>
<circle cx="151.8" cy="492.3" r="2.5" fill="#333"/>
<text x="143.8" y="488.3" text-anchor="end" font-family="Arial" font-size="9" font-weight="bold" fill="#333">F1</text>
<circle cx="151.8" cy="297.8" r="2.5" fill="#333"/>
<text x="143.8" y="293.8" text-anchor="end" font-family="Arial" font-size="9" font-weight="bold" fill="#333">F2</text>
<circle cx="158.6" cy="279.8" r="2.5" fill="#333"/>
<text x="148.6" y="289.8" text-anchor="end" font-family="Arial" font-size="9" font-weight="bold" fill="#333">F3</text>
<circle cx="163.4" cy="266.9" r="2.5" fill="#333"/>
<text x="155.4" y="262.9" text-anchor="end" font-family="Arial" font-size="9" font-weight="bold" fill="#333">F4</text>
<circle cx="163.4" cy="228.1" r="2.5" fill="#333"/>
<text x="155.4" y="222.1" text-anchor="end" font-family="Arial" font-size="9" font-weight="bold" fill="#333">F5</text>
<circle cx="190.6" cy="200.9" r="2.5" fill="#333"/>
<text x="180.6" y="194.9" text-anchor="end" font-family="Arial" font-size="9" font-weight="bold" fill="#333">F6</text>
<circle cx="248.9" cy="200.9" r="2.5" fill="#333"/>
<text x="248.9" y="188.9" text-anchor="middle" font-family="Arial" font-size="9" font-weight="bold" fill="#333">F7</text>
<circle cx="276.1" cy="228.1" r="2.5" fill="#333"/>
<text x="268.1" y="224.1" text-anchor="end" font-family="Arial" font-size="9" font-weight="bold" fill="#333">F8</text>
<circle cx="278.0" cy="230.0" r="2.5" fill="#333"/>
<text x="278.0" y="244.0" text-anchor="middle" font-family="Arial" font-size="9" font-weight="bold" fill="#333">F9</text>
<circle cx="483.9" cy="230.0" r="2.5" fill="#333"/>
<text x="475.9" y="224.0" text-anchor="end" font-family="Arial" font-size="9" font-weight="bold" fill="#333">F10</text>
<circle cx="485.8" cy="228.1" r="2.5" fill="#333"/>
<text x="493.8" y="240.1" text-anchor="start" font-family="Arial" font-size="9" font-weight="bold" fill="#333">F11</text>
<circle cx="539.3" cy="221.0" r="2.5" fill="#333"/>
<text x="547.3" y="233.0" text-anchor="start" font-family="Arial" font-size="9" font-weight="bold" fill="#333">F12</text>
<circle cx="568.5" cy="329.9" r="2.5" fill="#333"/>
<text x="576.5" y="337.9" text-anchor="start" font-family="Arial" font-size="9" font-weight="bold" fill="#333">F13</text>
<circle cx="571.4" cy="352.4" r="2.5" fill="#333"/>
<text x="581.4" y="348.4" text-anchor="start" font-family="Arial" font-size="9" font-weight="bold" fill="#333">F14</text>
<circle cx="571.4" cy="449.6" r="2.5" fill="#333"/>
<text x="579.4" y="453.6" text-anchor="start" font-family="Arial" font-size="9" font-weight="bold" fill="#333">F15</text>
<circle cx="557.0" cy="474.5" r="2.5" fill="#333"/>
<text x="565.0" y="478.5" text-anchor="start" font-family="Arial" font-size="9" font-weight="bold" fill="#333">F16</text>
<circle cx="506.5" cy="503.7" r="2.5" fill="#333"/>
<text x="516.5" y="513.7" text-anchor="start" font-family="Arial" font-size="9" font-weight="bold" fill="#333">F17</text>
<circle cx="469.2" cy="513.7" r="2.5" fill="#333"/>
<text x="477.2" y="525.7" text-anchor="start" font-family="Arial" font-size="9" font-weight="bold" fill="#333">F18</text>
<circle cx="396.6" cy="513.7" r="2.5" fill="#333"/>
<text x="404.6" y="525.7" text-anchor="start" font-family="Arial" font-size="9" font-weight="bold" fill="#333">F19</text>
<circle cx="378.6" cy="506.9" r="2.5" fill="#333"/>
<text x="386.6" y="500.9" text-anchor="start" font-family="Arial" font-size="9" font-weight="bold" fill="#333">F20</text>
<circle cx="365.7" cy="502.0" r="2.5" fill="#333"/>
<text x="365.7" y="490.0" text-anchor="middle" font-family="Arial" font-size="9" font-weight="bold" fill="#333">F21</text>
<line x1="742" y1="560" x2="742" y2="524" stroke="#333" stroke-width="2" marker-end="url(#ah)"/>
<text x="742" y="518" text-anchor="middle" font-family="Arial" font-size="13" font-weight="bold">N</text>
<rect x="622.0" y="134.9" width="130" height="58" fill="white" stroke="#333" stroke-width="1"/>
<text x="687.0" y="148.9" text-anchor="middle" font-family="Arial" font-size="11" font-weight="bold" fill="#333">778.00 sq ft</text>
<text x="687.0" y="160.9" text-anchor="middle" font-family="Arial" font-size="8" fill="#666">Interior area</text>
<text x="687.0" y="174.9" text-anchor="middle" font-family="Arial" font-size="11" font-weight="bold" fill="#333">855.92 sq ft</text>
<text x="687.0" y="186.9" text-anchor="middle" font-family="Arial" font-size="8" fill="#666">Exterior area</text>
<text x="396.0" y="610" text-anchor="middle" font-family="Arial" font-size="7.5" fill="#999">Wall thickness: 8&#8243; &#8226; Outer: 855.92 sq ft &#8226; Interior: 778.00 sq ft</text>
</svg>