<svg xmlns="http://www.w3.org/2000/svg" width="792" height="612" viewBox="0 0 792 612">
<rect width="792" height="612" fill="white"/>
<defs>
  <marker id="ah" markerWidth="8" markerHeight="6" refX="8" refY="3" orient="auto"><polygon points="0 0, 8 3, 0 6" fill="#333"/></marker>
</defs>
<text x="396.0" y="30" text-anchor="middle" font-family="Arial" font-size="14" font-weight="bold">Floorplan &#8212; 8&#8243; Walls</text>
<polygon points="151.8,226.1 151.8,492.3 151.8,493.1 151.9,493.8 152.0,494.6 152.2,495.3 152.5,496.0 152.8,496.7 153.2,497.4 153.6,498.0 154.1,498.6 154.6,499.2 155.2,499.7 155.8,500.2 156.4,500.6 157.1,501.0 157.8,501.3 158.5,501.6 159.2,501.8 159.9,501.9 160.7,502.0 161.5,502.0 379.2,502.0 379.9,502.1 380.6,502.1 381.3,502.3 382.0,502.4 382.7,502.7 383.3,503.0 384.0,503.3 384.6,503.7 385.1,504.1 385.7,504.5 386.2,505.0 386.7,505.6 387.1,506.1 387.5,506.7 387.8,507.4 388.1,508.0 388.4,508.7 388.6,509.4 388.7,510.1 388.8,510.8 388.9,511.5 389.1,512.2 389.3,512.9 389.5,513.5 389.8,514.2 390.2,514.8 390.6,515.4 391.0,516.0 391.5,516.5 392.0,517.0 392.5,517.5 393.1,517.9 393.7,518.3 394.4,518.6 395.0,518.9 395.7,519.1 396.4,519.3 397.1,519.4 397.8,519.5 398.5,519.5 486.0,519.5 486.2,519.5 486.5,519.5 486.8,519.5 487.1,519.4 487.4,519.4 487.6,519.4 487.9,519.3 488.2,519.3 488.5,519.2 488.7,519.1 489.0,519.0 489.3,518.9 489.5,518.8 489.8,518.7 490.1,518.6 490.3,518.5 490.6,518.3 490.8,518.2 491.1,518.1 491.3,517.9 614.7,436.5 615.4,436.1 615.9,435.6 616.5,435.1 617.0,434.5 617.4,433.9 617.8,433.2 618.2,432.6 618.5,431.8 618.7,431.1 618.9,430.4 619.0,429.6 619.1,428.9 619.1,428.1 619.1,427.3 618.9,426.6 618.8,425.9 618.5,425.1 618.2,424.4 617.9,423.7 617.5,423.1 562.0,338.9 561.4,337.9 560.7,336.9 560.1,335.9 559.5,334.9 558.9,333.9 558.3,332.9 557.7,331.8 557.1,330.8 556.5,329.7 556.0,328.7 555.4,327.6 554.9,326.6 554.4,325.5 553.8,324.4 553.3,323.4 552.8,322.3 552.4,321.2 551.9,320.1 551.4,319.0 551.0,317.9 550.5,316.8 550.1,315.7 549.6,314.6 549.2,313.5 548.8,312.4 548.4,311.3 548.1,310.1 547.7,309.0 547.3,307.9 547.0,306.7 546.7,305.6 546.3,304.4 546.0,303.3 545.7,302.1 545.4,301.0 545.1,299.8 544.9,298.7 544.6,297.5 544.4,296.4 544.1,295.2 543.9,294.0 543.7,292.9 543.5,291.7 543.3,290.5 543.1,289.3 543.0,288.2 542.8,287.0 542.7,285.8 542.5,284.6 542.4,283.4 542.3,282.2 542.2,281.1 542.1,279.9 542.0,278.7 542.0,277.5 541.9,276.3 541.9,275.1 541.9,273.9 541.8,272.7 541.8,271.6 541.8,255.3 541.7,253.1 541.5,251.0 541.1,248.9 540.5,246.9 539.8,244.9 538.9,242.9 537.8,241.1 536.6,239.3 535.3,237.6 533.9,236.0 532.3,234.6 530.6,233.3 528.8,232.1 527.0,231.0 525.0,230.1 523.0,229.4 521.0,228.8 518.9,228.4 516.8,228.2 514.6,228.1 278.0,228.1 277.9,228.1 277.7,228.1 277.6,228.0 277.4,228.0 277.3,227.9 277.2,227.9 277.0,227.8 276.9,227.7 276.8,227.6 276.7,227.5 276.6,227.4 276.5,227.3 276.4,227.1 276.3,227.0 276.2,226.9 276.2,226.7 276.2,226.6 276.1,226.4 276.1,226.3 276.1,226.1 276.0,224.0 275.8,221.9 275.3,219.8 274.8,217.7 274.0,215.7 273.1,213.8 272.1,211.9 270.9,210.1 269.6,208.5 268.1,206.9 266.6,205.4 264.9,204.1 263.1,202.9 261.2,201.9 259.3,201.0 257.3,200.3 255.2,199.7 253.2,199.3 251.0,199.0 248.9,198.9 179.0,198.9 176.8,199.0 174.7,199.3 172.6,199.7 170.5,200.3 168.5,201.0 166.6,201.9 164.7,202.9 163.0,204.1 161.3,205.4 159.7,206.9 158.3,208.5 156.9,210.1 155.8,211.9 154.7,213.8 153.8,215.7 153.1,217.7 152.5,219.8 152.1,221.9 151.8,224.0" fill="rgba(160,160,160,0.35)" stroke="none"/>
<polygon points="159.6,224.6 159.8,223.1 160.1,221.6 160.5,220.1 161.0,218.7 161.6,217.3 162.4,216.0 163.2,214.7 164.2,213.5 165.2,212.4 166.3,211.4 167.5,210.4 168.8,209.6 170.1,208.8 171.5,208.2 173.0,207.7 174.4,207.2 175.9,206.9 177.4,206.8 179.0,206.7 248.9,206.7 250.4,206.8 251.9,206.9 253.4,207.2 254.9,207.7 256.3,208.2 257.7,208.8 259.1,209.6 260.3,210.4 261.5,211.4 262.6,212.4 263.7,213.5 264.6,214.7 265.5,216.0 266.2,217.3 266.8,218.7 267.4,220.1 267.8,221.6 268.1,223.1 268.3,224.6 268.3,226.1 268.4,226.9 268.4,227.7 268.6,228.4 268.8,229.1 269.1,229.8 269.4,230.5 269.8,231.2 270.2,231.8 270.7,232.4 271.2,233.0 271.7,233.5 272.3,234.0 273.0,234.4 273.6,234.8 274.3,235.1 275.0,235.4 275.8,235.6 276.5,235.7 277.3,235.8 278.0,235.8 514.6,235.8 516.2,235.9 517.7,236.1 519.2,236.4 520.6,236.8 522.1,237.3 523.4,238.0 524.8,238.7 526.0,239.6 527.2,240.5 528.4,241.5 529.4,242.7 530.3,243.9 531.2,245.1 531.9,246.5 532.6,247.8 533.1,249.3 533.5,250.7 533.8,252.2 534.0,253.8 534.1,255.3 534.1,271.6 534.1,272.8 534.1,274.1 534.1,275.4 534.2,276.6 534.2,277.9 534.3,279.1 534.4,280.4 534.4,281.7 534.6,282.9 534.7,284.2 534.8,285.4 534.9,286.7 535.1,288.0 535.3,289.2 535.4,290.5 535.6,291.7 535.8,293.0 536.0,294.2 536.3,295.4 536.5,296.7 536.8,297.9 537.0,299.2 537.3,300.4 537.6,301.6 537.9,302.9 538.2,304.1 538.5,305.3 538.8,306.5 539.2,307.7 539.5,309.0 539.9,310.2 540.3,311.4 540.7,312.6 541.1,313.8 541.5,315.0 541.9,316.2 542.4,317.3 542.8,318.5 543.3,319.7 543.8,320.9 544.2,322.0 544.7,323.2 545.2,324.4 545.8,325.5 546.3,326.7 546.8,327.8 547.4,328.9 548.0,330.1 548.5,331.2 549.1,332.3 549.7,333.4 550.3,334.5 550.9,335.7 551.6,336.7 552.2,337.8 552.8,338.9 553.5,340.0 554.2,341.1 554.9,342.1 555.5,343.2 611.0,427.4 611.1,427.5 611.2,427.6 611.2,427.8 611.3,427.9 611.3,428.1 611.3,428.2 611.3,428.4 611.3,428.5 611.3,428.7 611.3,428.8 611.3,429.0 611.2,429.1 611.2,429.3 611.1,429.4 611.0,429.5 610.9,429.6 610.8,429.8 610.7,429.9 610.6,430.0 610.5,430.1 487.0,511.4 487.0,511.5 486.9,511.5 486.9,511.5 486.8,511.5 486.8,511.6 486.7,511.6 486.7,511.6 486.6,511.6 486.6,511.6 486.5,511.7 486.5,511.7 486.4,511.7 486.3,511.7 486.3,511.7 486.2,511.7 486.2,511.7 486.1,511.7 486.1,511.7 486.0,511.7 486.0,511.7 398.5,511.7 398.4,511.7 398.2,511.7 398.1,511.7 397.9,511.7 397.8,511.6 397.7,511.6 397.5,511.5 397.4,511.4 397.3,511.3 397.2,511.2 397.1,511.1 397.0,511.0 396.9,510.9 396.8,510.8 396.8,510.7 396.7,510.5 396.7,510.4 396.6,510.3 396.6,510.1 396.6,510.0 396.4,508.7 396.1,507.5 395.8,506.2 395.3,505.0 394.8,503.9 394.2,502.7 393.5,501.7 392.7,500.6 391.8,499.7 390.9,498.8 389.9,497.9 388.9,497.2 387.8,496.5 386.6,495.9 385.5,495.4 384.2,495.0 383.0,494.7 381.7,494.4 380.5,494.3 379.2,494.3 161.5,494.3 161.3,494.2 161.2,494.2 161.0,494.2 160.9,494.2 160.7,494.1 160.6,494.0 160.5,494.0 160.3,493.9 160.2,493.8 160.1,493.7 160.0,493.6 159.9,493.5 159.8,493.3 159.7,493.2 159.7,493.1 159.6,492.9 159.6,492.8 159.5,492.6 159.5,492.5 159.5,492.3 159.5,226.1" fill="white" stroke="none"/>
<line x1="151.8" y1="226.1" x2="151.8" y2="492.3" stroke="#333" stroke-width="1.5"/>
<polyline points="151.8,492.3 151.8,493.1 151.9,493.8 152.0,494.6 152.2,495.3 152.5,496.0 152.8,496.7 153.2,497.4 153.6,498.0 154.1,498.6 154.6,499.2 155.2,499.7 155.8,500.2 156.4,500.6 157.1,501.0 157.8,501.3 158.5,501.6 159.2,501.8 159.9,501.9 160.7,502.0 161.5,502.0" fill="none" stroke="#333" stroke-width="1.5" stroke-linecap="round"/>
<line x1="161.5" y1="502.0" x2="379.2" y2="502.0" stroke="#333" stroke-width="1.5"/>
<polyline points="379.2,502.0 379.9,502.1 380.6,502.1 381.3,502.3 382.0,502.4 382.7,502.7 383.3,503.0 384.0,503.3 384.6,503.7 385.1,504.1 385.7,504.5 386.2,505.0 386.7,505.6 387.1,506.1 387.5,506.7 387.8,507.4 388.1,508.0 388.4,508.7 388.6,509.4 388.7,510.1 388.8,510.8" fill="none" stroke="#333" stroke-width="1.5" stroke-linecap="round"/>
<polyline points="388.8,510.8 388.9,511.5 389.1,512.2 389.3,512.9 389.5,513.5 389.8,514.2 390.2,514.8 390.6,515.4 391.0,516.0 391.5,516.5 392.0,517.0 392.5,517.5 393.1,517.9 393.7,518.3 394.4,518.6 395.0,518.9 395.7,519.1 396.4,519.3 397.1,519.4 397.8,519.5 398.5,519.5" fill="none" stroke="#333" stroke-width="1.5" stroke-linecap="round"/>
<line x1="398.5" y1="519.5" x2="486.0" y2="519.5" stroke="#333" stroke-width="1.5"/>
<polyline points="486.0,519.5 486.2,519.5 486.5,519.5 486.8,519.5 487.1,519.4 487.4,519.4 487.6,519.4 487.9,519.3 488.2,519.3 488.5,519.2 488.7,519.1 489.0,519.0 489.3,518.9 489.5,518.8 489.8,518.7 490.1,518.6 490.3,518.5 490.6,518.3 490.8,518.2 491.1,518.1 491.3,517.9" fill="none" stroke="#333" stroke-width="1.5" stroke-linecap="round"/>
<line x1="491.3" y1="517.9" x2="614.7" y2="436.5" stroke="#333" stroke-width="1.5"/>
<polyline points="614.7,436.5 615.4,436.1 615.9,435.6 616.5,435.1 617.0,434.5 617.4,433.9 617.8,433.2 618.2,432.6 618.5,431.8 618.7,431.1 618.9,430.4 619.0,429.6 619.1,428.9 619.1,428.1 619.1,427.3 618.9,426.6 618.8,425.9 618.5,425.1 618.2,424.4 617.9,423.7 617.5,423.1" fill="none" stroke="#333" stroke-width="1.5" stroke-linecap="round"/>
<line x1="617.5" y1="423.1" x2="562.0" y2="338.9" stroke="#333" stroke-width="1.5"/>
<polyline points="562.0,338.9 561.4,337.9 560.7,336.9 560.1,335.9 559.5,334.9 558.9,333.9 558.3,332.9 557.7,331.8 557.1,330.8 556.5,329.7 556.0,328.7 555.4,327.6 554.9,326.6 554.4,325.5 553.8,324.4 553.3,323.4 552.8,322.3 552.4,321.2 551.9,320.1 551.4,319.0 551.0,317.9 550.5,316.8 550.1,315.7 549.6,314.6 549.2,313.5 548.8,312.4 548.4,311.3 548.1,310.1 547.7,309.0 547.3,307.9 547.0,306.7 546.7,305.6 546.3,304.4 546.0,303.3 545.7,302.1 545.4,301.0 545.1,299.8 544.9,298.7 544.6,297.5 544.4,296.4 544.1,295.2 543.9,294.0 543.7,292.9 543.5,291.7 543.3,290.5 543.1,289.3 543.0,288.2 542.8,287.0 542.7,285.8 542.5,284.6 542.4,283.4 542.3,282.2 542.2,281.1 542.1,279.9 542.0,278.7 542.0,277.5 541.9,276.3 541.9,275.1 541.9,273.9 541.8,272.7 541.8,271.6" fill="none" stroke="#333" stroke-width="1.5" stroke-linecap="round"/>
<line x1="541.8" y1="271.6" x2="541.8" y2="255.3" stroke="#333" stroke-width="1.5"/>
<polyline points="541.8,255.3 541.7,253.1 541.5,251.0 541.1,248.9 540.5,246.9 539.8,244.9 538.9,242.9 537.8,241.1 536.6,239.3 535.3,237.6 533.9,236.0 532.3,234.6 530.6,233.3 528.8,232.1 527.0,231.0 525.0,230.1 523.0,229.4 521.0,228.8 518.9,228.4 516.8,228.2 514.6,228.1" fill="none" stroke="#333" stroke-width="1.5" stroke-linecap="round"/>
<line x1="514.6" y1="228.1" x2="278.0" y2="228.1" stroke="#333" stroke-width="1.5"/>
<polyline points="278.0,228.1 277.9,228.1 277.7,228.1 277.6,228.0 277.4,228.0 277.3,227.9 277.2,227.9 277.0,227.8 276.9,227.7 276.8,227.6 276.7,227.5 276.6,227.4 276.5,227.3 276.4,227.1 276.3,227.0 276.2,226.9 276.2,226.7 276.2,226.6 276.1,226.4 276.1,226.3 276.1,226.1" fill="none" stroke="#333" stroke-width="1.5" stroke-linecap="round"/>
<polyline points="276.1,226.1 276.0,224.0 275.8,221.9 275.3,219.8 274.8,217.7 274.0,215.7 273.1,213.8 272.1,211.9 270.9,210.1 269.6,208.5 268.1,206.9 266.6,205.4 264.9,204.1 263.1,202.9 261.2,201.9 259.3,201.0 257.3,200.3 255.2,199.7 253.2,199.3 251.0,199.0 248.9,198.9" fill="none" stroke="#333" stroke-width="1.5" stroke-linecap="round"/>
<line x1="248.9" y1="198.9" x2="179.0" y2="198.9" stroke="#333" stroke-width="1.5"/>
<polyline points="179.0,198.9 176.8,199.0 174.7,199.3 172.6,199.7 170.5,200.3 168.5,201.0 166.6,201.9 164.7,202.9 163.0,204.1 161.3,205.4 159.7,206.9 158.3,208.5 156.9,210.1 155.8,211.9 154.7,213.8 153.8,215.7 153.1,217.7 152.5,219.8 152.1,221.9 151.8,224.0 151.8,226.1" fill="none" stroke="#333" stroke-width="1.5" stroke-linecap="round"/>
<line x1="159.5" y1="226.1" x2="159.5" y2="492.3" stroke="#666" stroke-width="1.0"/>
<polyline points="159.5,492.3 159.5,492.5 159.5,492.6 159.6,492.8 159.6,492.9 159.7,493.1 159.7,493.2 159.8,493.3 159.9,493.5 160.0,493.6 160.1,493.7 160.2,493.8 160.3,493.9 160.5,494.0 160.6,494.0 160.7,494.1 160.9,494.2 161.0,494.2 161.2,494.2 161.3,494.2 161.5,494.3" fill="none" stroke="#666" stroke-width="1.0" stroke-linecap="round"/>
<line x1="161.5" y1="494.3" x2="379.2" y2="494.3" stroke="#666" stroke-width="1.0"/>
<polyline points="379.2,494.3 380.5,494.3 381.7,494.4 383.0,494.7 384.2,495.0 385.5,495.4 386.6,495.9 387.8,496.5 388.9,497.2 389.9,497.9 390.9,498.8 391.8,499.7 392.7,500.6 393.5,501.7 394.2,502.7 394.8,503.9 395.3,505.0 395.8,506.2 396.1,507.5 396.4,508.7 396.6,510.0" fill="none" stroke="#666" stroke-width="1.0" stroke-linecap="round"/>
<polyline points="396.6,510.0 396.6,510.1 396.6,510.3 396.7,510.4 396.7,510.5 396.8,510.7 396.8,510.8 396.9,510.9 397.0,511.0 397.1,511.1 397.2,511.2 397.3,511.3 397.4,511.4 397.5,511.5 397.7,511.6 397.8,511.6 397.9,511.7 398.1,511.7 398.2,511.7 398.4,511.7 398.5,511.7" fill="none" stroke="#666" stroke-width="1.0" stroke-linecap="round"/>
<line x1="398.5" y1="511.7" x2="486.0" y2="511.7" stroke="#666" stroke-width="1.0"/>
<polyline points="486.0,511.7 486.0,511.7 486.1,511.7 486.1,511.7 486.2,511.7 486.2,511.7 486.3,511.7 486.3,511.7 486.4,511.7 486.5,511.7 486.5,511.7 486.6,511.6 486.6,511.6 486.7,511.6 486.7,511.6 486.8,511.6 486.8,511.5 486.9,511.5 486.9,511.5 487.0,511.5 487.0,511.4" fill="none" stroke="#666" stroke-width="1.0" stroke-linecap="round"/>
<line x1="487.0" y1="511.4" x2="610.5" y2="430.1" stroke="#666" stroke-width="1.0"/>
<polyline points="610.5,430.1 610.6,430.0 610.7,429.9 610.8,429.8 610.9,429.6 611.0,429.5 611.1,429.4 611.2,429.3 611.2,429.1 611.3,429.0 611.3,428.8 611.3,428.7 611.3,428.5 611.3,428.4 611.3,428.2 611.3,428.1 611.3,427.9 611.2,427.8 611.2,427.6 611.1,427.5 611.0,427.4" fill="none" stroke="#666" stroke-width="1.0" stroke-linecap="round"/>
<line x1="611.0" y1="427.4" x2="555.5" y2="343.2" stroke="#666" stroke-width="1.0"/>
<polyline points="555.5,343.2 554.9,342.1 554.2,341.1 553.5,340.0 552.8,338.9 552.2,337.8 551.6,336.7 550.9,335.7 550.3,334.5 549.7,333.4 549.1,332.3 548.5,331.2 548.0,330.1 547.4,328.9 546.8,327.8 546.3,326.7 545.8,325.5 545.2,324.4 544.7,323.2 544.2,322.0 543.8,320.9 543.3,319.7 542.8,318.5 542.4,317.3 541.9,316.2 541.5,315.0 541.1,313.8 540.7,312.6 540.3,311.4 539.9,310.2 539.5,309.0 539.2,307.7 538.8,306.5 538.5,305.3 538.2,304.1 537.9,302.9 537.6,301.6 537.3,300.4 537.0,299.2 536.8,297.9 536.5,296.7 536.3,295.4 536.0,294.2 535.8,293.0 535.6,291.7 535.4,290.5 535.3,289.2 535.1,288.0 534.9,286.7 534.8,285.4 534.7,284.2 534.6,282.9 534.4,281.7 534.4,280.4 534.3,279.1 534.2,277.9 534.2,276.6 534.1,275.4 534.1,274.1 534.1,272.8 534.1,271.6" fill="none" stroke="#666" stroke-width="1.0" stroke-linecap="round"/>
<line x1="534.1" y1="271.6" x2="534.1" y2="255.3" stroke="#666" stroke-width="1.0"/>
<polyline points="534.1,255.3 534.0,253.8 533.8,252.2 533.5,250.7 533.1,249.3 532.6,247.8 531.9,246.5 531.2,245.1 530.3,243.9 529.4,242.7 528.4,241.5 527.2,240.5 526.0,239.6 524.8,238.7 523.4,238.0 522.1,237.3 520.6,236.8 519.2,236.4 517.7,236.1 516.2,235.9 514.6,235.8" fill="none" stroke="#666" stroke-width="1.0" stroke-linecap="round"/>
<line x1="514.6" y1="235.8" x2="278.0" y2="235.8" stroke="#666" stroke-width="1.0"/>
<polyline points="278.0,235.8 277.3,235.8 276.5,235.7 275.8,235.6 275.0,235.4 274.3,235.1 273.6,234.8 273.0,234.4 272.3,234.0 271.7,233.5 271.2,233.0 270.7,232.4 270.2,231.8 269.8,231.2 269.4,230.5 269.1,229.8 268.8,229.1 268.6,228.4 268.4,227.7 268.4,226.9 268.3,226.1" fill="none" stroke="#666" stroke-width="1.0" stroke-linecap="round"/>
<polyline points="268.3,226.1 268.3,224.6 268.1,223.1 267.8,221.6 267.4,220.1 266.8,218.7 266.2,217.3 265.5,216.0 264.6,214.7 263.7,213.5 262.6,212.4 261.5,211.4 260.3,210.4 259.1,209.6 257.7,208.8 256.3,208.2 254.9,207.7 253.4,207.2 251.9,206.9 250.4,206.8 248.9,206.7" fill="none" stroke="#666" stroke-width="1.0" stroke-linecap="round"/>
<line x1="248.9" y1="206.7" x2="179.0" y2="206.7" stroke="#666" stroke-width="1.0"/>
<polyline points="179.0,206.7 177.4,206.8 175.9,206.9 174.4,207.2 173.0,207.7 171.5,208.2 170.1,208.8 168.8,209.6 167.5,210.4 166.3,211.4 165.2,212.4 164.2,213.5 163.2,214.7 162.4,216.0 161.6,217.3 161.0,218.7 160.5,220.1 160.1,221.6 159.8,223.1 159.6,224.6 159.5,226.1" fill="none" stroke="#666" stroke-width="1.0" stroke-linecap="round"/>
<polygon points="159.5,360.2 566.7,360.2 562.9,354.4 159.5,354.4" fill="rgba(160,160,160,0.35)" stroke="none"/>
<line x1="159.5" y1="360.2" x2="566.7" y2="360.2" stroke="#666" stroke-width="1.0"/>
<line x1="562.9" y1="354.4" x2="159.5" y2="354.4" stroke="#666" stroke-width="1.0"/>
<text x="363.1" y="360.8" text-anchor="middle" font-family="Arial" font-size="8" fill="#666">IW1</text>
<polygon points="235.3,354.4 241.1,354.4 241.1,206.7 235.3,206.7" fill="rgba(160,160,160,0.35)" stroke="none"/>
<line x1="235.3" y1="354.4" x2="235.3" y2="206.7" stroke="#666" stroke-width="1.0"/>
<line x1="241.1" y1="354.4" x2="241.1" y2="206.7" stroke="#666" stroke-width="1.0"/>
<text x="238.2" y="284.0" text-anchor="middle" font-family="Arial" font-size="8" fill="#666" transform="rotate(-90,238.2,284.0)">IW2</text>
<line x1="396.3" y1="354.4" x2="396.3" y2="235.8" stroke="#999" stroke-width="0.8"/>
<line x1="392.3" y1="354.4" x2="400.3" y2="354.4" stroke="#999" stroke-width="0.8"/>
<line x1="392.3" y1="235.8" x2="400.3" y2="235.8" stroke="#999" stroke-width="0.8"/>
<text x="390.3" y="298.1" text-anchor="middle" font-family="Arial" font-size="8" fill="#999" transform="rotate(-90,390.3,298.1)">10' 2.0"</text>
<line x1="241.1" y1="263.4" x2="534.1" y2="263.4" stroke="#999" stroke-width="0.8"/>
<line x1="241.1" y1="259.4" x2="241.1" y2="267.4" stroke="#999" stroke-width="0.8"/>
<line x1="534.1" y1="259.4" x2="534.1" y2="267.4" stroke="#999" stroke-width="0.8"/>
<text x="387.6" y="257.4" text-anchor="middle" font-family="Arial" font-size="8" fill="#999">25' 1.5"</text>
<rect x="165.4" y="461.2" width="34.0" height="29.1" fill="rgba(100,150,200,0.2)" stroke="#4682B4" stroke-width="0.8"/>
<text x="182.4" y="478.8" text-anchor="middle" font-family="Arial" font-size="7" fill="#4682B4">DRYER</text>
<rect x="165.4" y="431.1" width="34.0" height="29.1" fill="rgba(100,150,200,0.2)" stroke="#4682B4" stroke-width="0.8"/>
<text x="182.4" y="448.7" text-anchor="middle" font-family="Arial" font-size="7" fill="#4682B4">WASHER</text>
<path d="M 234.3,494.3 L 257.6,494.3 L 257.6,424.3 L 243.1,424.3 A 8.7 8.7 0 0 0 234.3,433.1 Z" fill="rgba(100,150,200,0.2)" stroke="#4682B4" stroke-width="0.8"/>
<text x="246.0" y="459.3" text-anchor="middle" font-family="Arial" font-size="7" fill="#4682B4" letter-spacing="0.5" transform="rotate(-90,246.0,459.3)">COUNTER</text>
<polygon points="257.6,494.3 260.6,494.3 260.6,424.3 289.7,424.3 289.7,421.4 257.6,421.4" fill="rgba(160,160,160,0.35)" stroke="#666" stroke-width="0.8"/>
<polygon points="289.7,494.3 293.6,494.3 293.6,360.2 289.7,360.2" fill="rgba(160,160,160,0.35)" stroke="#666" stroke-width="0.8"/>
<polygon points="429.6,511.7 433.5,511.7 433.5,360.2 429.6,360.2" fill="rgba(160,160,160,0.35)" stroke="#666" stroke-width="0.8"/>
<polygon points="433.5,433.1 465.5,433.1 465.5,511.7 462.6,511.7 462.6,436.0 433.5,436.0" fill="rgba(160,160,160,0.35)" stroke="#666" stroke-width="0.8"/>
<text x="275.1" y="462.3" text-anchor="middle" font-family="Arial" font-size="7" fill="#666" transform="rotate(-90,275.1,462.3)">CLOSET</text>
<rect x="324.7" y="401.0" width="73.8" height="91.3" fill="rgba(100,150,200,0.2)" stroke="#4682B4" stroke-width="0.8"/>
<text x="361.6" y="473.9" text-anchor="middle" font-family="Arial" font-size="7" fill="#4682B4">KING BED</text>
<text x="361.6" y="430.2" text-anchor="middle" font-family="Arial" font-size="8" fill="#666">BEDROOM</text>
<line x1="293.6" y1="460.7" x2="429.6" y2="460.7" stroke="#999" stroke-width="0.8"/>
<line x1="293.6" y1="456.7" x2="293.6" y2="464.7" stroke="#999" stroke-width="0.8"/>
<line x1="429.6" y1="456.7" x2="429.6" y2="464.7" stroke="#999" stroke-width="0.8"/>
<text x="361.6" y="454.7" text-anchor="middle" font-family="Arial" font-size="8" fill="#999">11' 8"</text>
<line x1="334.4" y1="494.3" x2="334.4" y2="360.2" stroke="#999" stroke-width="0.8"/>
<line x1="330.4" y1="494.3" x2="338.4" y2="494.3" stroke="#999" stroke-width="0.8"/>
<line x1="330.4" y1="360.2" x2="338.4" y2="360.2" stroke="#999" stroke-width="0.8"/>
<text x="328.4" y="430.2" text-anchor="middle" font-family="Arial" font-size="8" fill="#999" transform="rotate(-90,328.4,430.2)">11' 6"</text>
<text x="448.0" y="468.1" text-anchor="middle" font-family="Arial" font-size="7" fill="#666" transform="rotate(-90,448.0,468.1)">CLOSET</text>
<circle cx="151.8" cy="226.1" r="2.5" fill="#333"/>
<text x="143.8" y="220.1" text-anchor="end" font-family="Arial" font-size="9" font-weight="bold" fill="#333">O2</text>
<circle cx="151.8" cy="492.3" r="2.5" fill="#333"/>
<text x="143.8" y="488.3" text-anchor="end" font-family="Arial" font-size="9" font-weight="bold" fill="#333">O1</text>
<circle cx="161.5" cy="502.0" r="2.5" fill="#333"/>
<text x="153.5" y="512.0" text-anchor="end" font-family="Arial" font-size="9" font-weight="bold" fill="#333">O0</text>
<circle cx="379.2" cy="502.0" r="2.5" fill="#333"/>
<text x="379.2" y="490.0" text-anchor="middle" font-family="Arial" font-size="9" font-weight="bold" fill="#333">C15</text>
<circle cx="388.8" cy="510.8" r="2.5" fill="#333"/>
<text x="396.8" y="504.8" text-anchor="start" font-family="Arial" font-size="9" font-weight="bold" fill="#333">C14</text>
<circle cx="398.5" cy="519.5" r="2.5" fill="#333"/>
<text x="406.5" y="531.5" text-anchor="start" font-family="Arial" font-size="9" font-weight="bold" fill="#333">C13b</text>
<circle cx="486.0" cy="519.5" r="2.5" fill="#333"/>
<text x="494.0" y="531.5" text-anchor="start" font-family="Arial" font-size="9" font-weight="bold" fill="#333">C13a</text>
<circle cx="491.3" cy="517.9" r="2.5" fill="#333"/>
<text x="501.3" y="527.9" text-anchor="start" font-family="Arial" font-size="9" font-weight="bold" fill="#333">C13</text>
<circle cx="614.7" cy="436.5" r="2.5" fill="#333"/>
<text x="622.7" y="440.5" text-anchor="start" font-family="Arial" font-size="9" font-weight="bold" fill="#333">O12</text>
<circle cx="617.5" cy="423.1" r="2.5" fill="#333"/>
<text x="625.5" y="427.1" text-anchor="start" font-family="Arial" font-size="9" font-weight="bold" fill="#333">O11</text>
<circle cx="562.0" cy="338.9" r="2.5" fill="#333"/>
<text x="572.0" y="334.9" text-anchor="start" font-family="Arial" font-size="9" font-weight="bold" fill="#333">O10</text>
<circle cx="541.8" cy="271.6" r="2.5" fill="#333"/>
<text x="549.8" y="279.6" text-anchor="start" font-family="Arial" font-size="9" font-weight="bold" fill="#333">O9</text>
<circle cx="541.8" cy="255.3" r="2.5" fill="#333"/>
<text x="549.8" y="267.3" text-anchor="start" font-family="Arial" font-size="9" font-weight="bold" fill="#333">O8</text>
<circle cx="514.6" cy="228.1" r="2.5" fill="#333"/>
<text x="506.6" y="222.1" text-anchor="end" font-family="Arial" font-size="9" font-weight="bold" fill="#333">O7</text>
<circle cx="278.0" cy="228.1" r="2.5" fill="#333"/>
<text x="278.0" y="242.1" text-anchor="middle" font-family="Arial" font-size="9" font-weight="bold" fill="#333">O6</text>
<circle cx="276.1" cy="226.1" r="2.5" fill="#333"/>
<text x="268.1" y="222.1" text-anchor="end" font-family="Arial" font-size="9" font-weight="bold" fill="#333">O5</text>
<circle cx="248.9" cy="198.9" r="2.5" fill="#333"/>
<text x="248.9" y="186.9" text-anchor="middle" font-family="Arial" font-size="9" font-weight="bold" fill="#333">O4</text>
<circle cx="179.0" cy="198.9" r="2.5" fill="#333"/>
<text x="169.0" y="192.9" text-anchor="end" font-family="Arial" font-size="9" font-weight="bold" fill="#333">O3</text>
<line x1="742" y1="560" x2="742" y2="524" stroke="#333" stroke-width="2" marker-end="url(#ah)"/>
<text x="742" y="518" text-anchor="middle" font-family="Arial" font-size="13" font-weight="bold">N</text>
<rect x="622.0" y="132.9" width="130" height="58" fill="white" stroke="#333" stroke-width="1"/>
<text x="687.0" y="146.9" text-anchor="middle" font-family="Arial" font-size="11" font-weight="bold" fill="#333">796.34 sq ft</text>
<text x="687.0" y="158.9" text-anchor="middle" font-family="Arial" font-size="8" fill="#666">Interior area</text>
<text x="687.0" y="172.9" text-anchor="middle" font-family="Arial" font-size="11" font-weight="bold" fill="#333">875.58 sq ft</text>
<text x="687.0" y="184.9" text-anchor="middle" font-family="Arial" font-size="8" fill="#666">Exterior area</text>
<text x="396.0" y="610" text-anchor="middle" font-family="Arial" font-size="7.5" fill="#999">Wall thickness: 8&#8243; &#8226; Outer: 875.58 sq ft &#8226; Interior: 796.34 sq ft</text>
</svg>