<svg xmlns="http://www.w3.org/2000/svg" width="792" height="612" viewBox="0 0 792 612">
<rect width="792" height="612" fill="white"/>
<defs>
  <marker id="ah" markerWidth="8" markerHeight="6" refX="8" refY="3" orient="auto"><polygon points="0 0, 8 3, 0 6" fill="#333"/></marker>
</defs>
<text x="396.0" y="30" text-anchor="middle" font-family="Arial" font-size="14" font-weight="bold">Floorplan &#8212; 8&#8243; Walls</text>
<polygon points="151.8,228.1 151.8,492.3 151.8,493.1 151.9,493.8 152.0,494.6 152.2,495.3 152.5,496.0 152.8,496.7 153.2,497.4 153.6,498.0 154.1,498.6 154.6,499.2 155.2,499.7 155.8,500.2 156.4,500.6 157.1,501.0 157.8,501.3 158.5,501.6 159.2,501.8 159.9,501.9 160.7,502.0 161.5,502.0 367.7,502.0 367.9,502.0 368.1,502.0 368.4,502.0 368.6,502.1 368.8,502.1 369.1,502.1 369.3,502.1 369.5,502.1 369.8,502.1 370.0,502.2 370.2,502.2 370.5,502.2 370.7,502.3 370.9,502.3 371.2,502.3 371.4,502.4 371.6,502.4 371.8,502.5 372.1,502.5 372.3,502.6 372.5,502.6 372.8,502.7 373.0,502.8 373.2,502.8 373.4,502.9 373.6,503.0 373.9,503.0 374.1,503.1 374.3,503.2 374.5,503.3 374.7,503.4 375.0,503.5 375.2,503.5 375.4,503.6 375.6,503.7 375.8,503.8 376.0,503.9 376.2,504.0 376.5,504.1 376.7,504.2 376.9,504.3 377.1,504.5 377.3,504.6 377.5,504.7 377.7,504.8 377.9,504.9 378.1,505.1 378.3,505.2 378.5,505.3 378.7,505.4 378.9,505.6 379.1,505.7 379.2,505.9 379.4,506.0 379.6,506.1 379.8,506.3 380.0,506.4 380.2,506.6 380.3,506.7 380.5,506.9 380.8,507.1 381.0,507.3 381.3,507.5 381.5,507.7 381.8,507.9 382.0,508.1 382.3,508.3 382.6,508.5 382.8,508.7 383.1,508.9 383.4,509.1 383.6,509.3 383.9,509.4 384.2,509.6 384.5,509.8 384.8,510.0 385.0,510.1 385.3,510.3 385.6,510.4 385.9,510.6 386.2,510.7 386.5,510.9 386.8,511.0 387.1,511.2 387.4,511.3 387.7,511.4 388.0,511.6 388.3,511.7 388.6,511.8 388.9,511.9 389.2,512.0 389.5,512.2 389.8,512.3 390.1,512.4 390.4,512.5 390.8,512.6 391.1,512.6 391.4,512.7 391.7,512.8 392.0,512.9 392.3,513.0 392.7,513.0 393.0,513.1 393.3,513.2 393.6,513.2 393.9,513.3 394.3,513.4 394.6,513.4 394.9,513.4 395.2,513.5 395.6,513.5 395.9,513.6 396.2,513.6 396.5,513.6 396.9,513.6 397.2,513.7 397.5,513.7 397.8,513.7 398.2,513.7 398.5,513.7 489.6,513.7 490.3,513.7 491.1,513.6 491.9,513.6 492.7,513.5 493.5,513.4 494.3,513.3 495.1,513.1 495.8,512.9 496.6,512.8 497.4,512.5 498.1,512.3 498.9,512.0 499.6,511.8 500.3,511.5 501.1,511.1 501.8,510.8 502.5,510.4 503.2,510.0 503.9,509.6 504.5,509.2 559.2,473.2 560.3,472.4 561.4,471.6 562.4,470.7 563.4,469.8 564.3,468.8 565.2,467.8 566.0,466.7 566.8,465.6 567.5,464.5 568.2,463.3 568.8,462.1 569.3,460.9 569.8,459.7 570.2,458.4 570.6,457.1 570.9,455.8 571.1,454.5 571.3,453.1 571.4,451.8 571.4,450.4 571.4,354.9 571.4,354.6 571.4,354.2 571.4,353.9 571.3,353.6 571.3,353.2 571.2,352.9 571.1,352.6 571.1,352.3 571.0,352.0 570.9,351.6 570.7,351.3 570.6,351.0 570.5,350.7 570.3,350.4 570.2,350.1 570.0,349.8 569.8,349.6 569.6,349.3 569.5,349.0 569.2,348.8 568.4,347.7 567.5,346.6 566.7,345.5 565.8,344.4 565.0,343.2 564.2,342.1 563.4,341.0 562.6,339.8 561.9,338.7 561.1,337.5 560.4,336.3 559.6,335.1 558.9,333.9 558.2,332.7 557.5,331.5 556.8,330.3 556.2,329.1 555.5,327.8 554.9,326.6 554.3,325.4 553.7,324.1 553.1,322.8 552.5,321.6 551.9,320.3 551.4,319.0 550.9,317.7 550.4,316.4 549.8,315.1 549.4,313.8 548.9,312.5 548.4,311.2 548.0,309.9 547.6,308.6 547.1,307.2 546.7,305.9 546.4,304.6 546.0,303.2 545.6,301.9 545.3,300.5 545.0,299.2 544.7,297.8 544.4,296.4 544.1,295.1 543.9,293.7 543.6,292.3 543.4,291.0 543.2,289.6 543.0,288.2 542.8,286.8 542.6,285.5 542.5,284.1 542.3,282.7 542.2,281.3 542.1,279.9 542.0,278.5 542.0,277.1 541.9,275.7 541.9,274.3 541.8,273.0 541.8,271.6 541.8,228.1 541.8,226.7 541.7,225.2 541.5,223.8 541.2,222.4 540.9,221.0 540.5,219.7 540.0,218.3 539.5,217.0 538.9,215.7 538.2,214.5 537.4,213.3 536.6,212.1 535.8,211.0 534.8,209.9 533.9,208.8 532.8,207.9 531.7,206.9 530.6,206.1 529.4,205.3 528.2,204.5 527.0,203.8 525.7,203.2 524.4,202.7 523.0,202.2 521.7,201.8 520.3,201.5 518.9,201.2 517.5,201.0 516.1,200.9 514.6,200.9 513.2,200.9 511.8,201.0 510.4,201.2 509.0,201.5 507.6,201.8 506.2,202.2 504.9,202.7 503.6,203.2 502.3,203.8 501.0,204.5 499.8,205.3 498.6,206.1 497.5,206.9 496.4,207.9 495.4,208.8 494.4,209.9 493.5,211.0 492.6,212.1 491.8,213.3 491.1,214.5 490.4,215.7 489.8,217.0 489.2,218.3 488.8,219.7 488.4,221.0 488.0,222.4 487.8,223.8 487.6,225.2 487.5,226.7 487.4,228.1 487.4,228.2 487.4,228.4 487.4,228.5 487.3,228.7 487.3,228.8 487.2,229.0 487.1,229.1 487.1,229.2 487.0,229.3 486.9,229.4 486.7,229.6 486.6,229.6 486.5,229.7 486.4,229.8 486.2,229.9 486.1,229.9 485.9,230.0 485.8,230.0 485.6,230.0 485.5,230.0 278.0,230.0 277.9,230.0 277.7,230.0 277.6,230.0 277.4,229.9 277.3,229.9 277.2,229.8 277.0,229.7 276.9,229.6 276.8,229.6 276.7,229.4 276.6,229.3 276.5,229.2 276.4,229.1 276.3,229.0 276.2,228.8 276.2,228.7 276.2,228.5 276.1,228.4 276.1,228.2 276.1,228.1 276.0,225.9 275.8,223.8 275.3,221.7 274.8,219.7 274.0,217.7 273.1,215.7 272.1,213.9 270.9,212.1 269.6,210.4 268.1,208.8 266.6,207.4 264.9,206.1 263.1,204.9 261.2,203.8 259.3,202.9 257.3,202.2 255.2,201.6 253.2,201.2 251.0,201.0 248.9,200.9 179.0,200.9 176.8,201.0 174.7,201.2 172.6,201.6 170.5,202.2 168.5,202.9 166.6,203.8 164.7,204.9 163.0,206.1 161.3,207.4 159.7,208.8 158.3,210.4 156.9,212.1 155.8,213.9 154.7,215.7 153.8,217.7 153.1,219.7 152.5,221.7 152.1,223.8 151.8,225.9" fill="rgba(160,160,160,0.35)" stroke="none"/>
<polygon points="159.6,226.6 159.8,225.0 160.1,223.5 160.5,222.1 161.0,220.6 161.6,219.3 162.4,217.9 163.2,216.7 164.2,215.5 165.2,214.3 166.3,213.3 167.5,212.4 168.8,211.5 170.1,210.8 171.5,210.1 173.0,209.6 174.4,209.2 175.9,208.9 177.4,208.7 179.0,208.6 248.9,208.6 250.4,208.7 251.9,208.9 253.4,209.2 254.9,209.6 256.3,210.1 257.7,210.8 259.1,211.5 260.3,212.4 261.5,213.3 262.6,214.3 263.7,215.5 264.6,216.7 265.5,217.9 266.2,219.3 266.8,220.6 267.4,222.1 267.8,223.5 268.1,225.0 268.3,226.6 268.3,228.1 268.4,228.8 268.4,229.6 268.6,230.3 268.8,231.1 269.1,231.8 269.4,232.5 269.8,233.2 270.2,233.8 270.7,234.4 271.2,234.9 271.7,235.5 272.3,235.9 273.0,236.4 273.6,236.7 274.3,237.1 275.0,237.3 275.8,237.5 276.5,237.7 277.3,237.8 278.0,237.8 485.5,237.8 486.2,237.8 487.0,237.7 487.8,237.5 488.5,237.3 489.2,237.1 489.9,236.7 490.6,236.4 491.2,235.9 491.8,235.5 492.4,234.9 492.9,234.4 493.3,233.8 493.8,233.2 494.1,232.5 494.5,231.8 494.7,231.1 494.9,230.3 495.1,229.6 495.2,228.8 495.2,228.1 495.2,227.1 495.3,226.0 495.4,225.0 495.6,224.0 495.9,223.0 496.1,222.1 496.5,221.1 496.9,220.2 497.3,219.3 497.8,218.4 498.3,217.5 498.9,216.7 499.5,215.8 500.2,215.1 500.9,214.3 501.6,213.6 502.4,213.0 503.2,212.4 504.0,211.8 504.9,211.2 505.8,210.8 506.7,210.3 507.7,209.9 508.6,209.6 509.6,209.3 510.6,209.1 511.6,208.9 512.6,208.8 513.6,208.7 514.6,208.6 515.6,208.7 516.7,208.8 517.7,208.9 518.7,209.1 519.7,209.3 520.6,209.6 521.6,209.9 522.5,210.3 523.4,210.8 524.3,211.2 525.2,211.8 526.0,212.4 526.9,213.0 527.6,213.6 528.4,214.3 529.1,215.1 529.7,215.8 530.3,216.7 530.9,217.5 531.5,218.4 531.9,219.3 532.4,220.2 532.8,221.1 533.1,222.1 533.4,223.0 533.6,224.0 533.8,225.0 534.0,226.0 534.0,227.1 534.1,228.1 534.1,271.6 534.1,273.0 534.1,274.5 534.1,276.0 534.2,277.5 534.3,279.0 534.4,280.4 534.5,281.9 534.6,283.4 534.7,284.9 534.9,286.3 535.1,287.8 535.3,289.3 535.5,290.7 535.7,292.2 535.9,293.7 536.2,295.1 536.5,296.6 536.8,298.0 537.1,299.5 537.4,300.9 537.8,302.4 538.1,303.8 538.5,305.2 538.9,306.7 539.3,308.1 539.7,309.5 540.1,310.9 540.6,312.3 541.1,313.7 541.6,315.1 542.1,316.5 542.6,317.9 543.1,319.3 543.7,320.7 544.2,322.0 544.8,323.4 545.4,324.7 546.0,326.1 546.7,327.4 547.3,328.8 548.0,330.1 548.6,331.4 549.3,332.7 550.0,334.0 550.7,335.3 551.5,336.6 552.2,337.9 553.0,339.2 553.8,340.4 554.6,341.7 555.4,342.9 556.2,344.1 557.0,345.4 557.9,346.6 558.7,347.8 559.6,349.0 560.5,350.2 561.4,351.3 562.3,352.5 563.2,353.7 563.3,353.7 563.3,353.8 563.3,353.8 563.4,353.9 563.4,353.9 563.4,354.0 563.5,354.1 563.5,354.1 563.5,354.2 563.5,354.2 563.6,354.3 563.6,354.4 563.6,354.4 563.6,354.5 563.6,354.6 563.6,354.6 563.6,354.7 563.6,354.8 563.7,354.8 563.7,354.9 563.7,450.4 563.6,451.4 563.6,452.4 563.4,453.3 563.3,454.3 563.1,455.2 562.8,456.1 562.5,457.0 562.2,457.9 561.8,458.8 561.3,459.7 560.9,460.5 560.3,461.3 559.8,462.1 559.2,462.8 558.6,463.6 557.9,464.3 557.2,464.9 556.5,465.5 555.7,466.1 554.9,466.7 500.2,502.7 499.8,503.0 499.3,503.3 498.8,503.6 498.3,503.8 497.8,504.1 497.3,504.3 496.7,504.5 496.2,504.7 495.7,504.9 495.1,505.1 494.6,505.2 494.0,505.4 493.5,505.5 492.9,505.6 492.4,505.7 491.8,505.8 491.2,505.8 490.7,505.9 490.1,505.9 489.6,505.9 398.5,505.9 398.3,505.9 398.0,505.9 397.8,505.9 397.6,505.9 397.3,505.9 397.1,505.9 396.9,505.8 396.6,505.8 396.4,505.8 396.2,505.8 395.9,505.7 395.7,505.7 395.5,505.7 395.2,505.6 395.0,505.6 394.8,505.6 394.6,505.5 394.3,505.5 394.1,505.4 393.9,505.4 393.6,505.3 393.4,505.2 393.2,505.2 393.0,505.1 392.7,505.0 392.5,505.0 392.3,504.9 392.1,504.8 391.9,504.7 391.6,504.7 391.4,504.6 391.2,504.5 391.0,504.4 390.8,504.3 390.6,504.2 390.3,504.1 390.1,504.0 389.9,503.9 389.7,503.8 389.5,503.7 389.3,503.6 389.1,503.5 388.9,503.4 388.7,503.2 388.5,503.1 388.3,503.0 388.1,502.9 387.9,502.8 387.7,502.6 387.5,502.5 387.3,502.4 387.1,502.2 386.9,502.1 386.7,501.9 386.6,501.8 386.4,501.7 386.2,501.5 386.0,501.4 385.8,501.2 385.7,501.1 385.4,500.8 385.2,500.6 384.9,500.4 384.7,500.2 384.4,500.0 384.1,499.8 383.9,499.6 383.6,499.4 383.3,499.2 383.1,499.0 382.8,498.9 382.5,498.7 382.3,498.5 382.0,498.3 381.7,498.2 381.4,498.0 381.1,497.8 380.8,497.7 380.6,497.5 380.3,497.4 380.0,497.2 379.7,497.1 379.4,496.9 379.1,496.8 378.8,496.6 378.5,496.5 378.2,496.4 377.9,496.3 377.6,496.1 377.3,496.0 377.0,495.9 376.7,495.8 376.4,495.7 376.0,495.6 375.7,495.5 375.4,495.4 375.1,495.3 374.8,495.2 374.5,495.1 374.2,495.0 373.8,495.0 373.5,494.9 373.2,494.8 372.9,494.8 372.5,494.7 372.2,494.6 371.9,494.6 371.6,494.5 371.3,494.5 370.9,494.5 370.6,494.4 370.3,494.4 370.0,494.4 369.6,494.3 369.3,494.3 369.0,494.3 368.6,494.3 368.3,494.3 368.0,494.3 367.7,494.3 161.5,494.3 161.3,494.2 161.2,494.2 161.0,494.2 160.9,494.2 160.7,494.1 160.6,494.0 160.5,494.0 160.3,493.9 160.2,493.8 160.1,493.7 160.0,493.6 159.9,493.5 159.8,493.3 159.7,493.2 159.7,493.1 159.6,492.9 159.6,492.8 159.5,492.6 159.5,492.5 159.5,492.3 159.5,228.1" fill="white" stroke="none"/>
<line x1="151.8" y1="228.1" x2="151.8" y2="492.3" stroke="#333" stroke-width="1.5"/>
<polyline points="151.8,492.3 151.8,493.1 151.9,493.8 152.0,494.6 152.2,495.3 152.5,496.0 152.8,496.7 153.2,497.4 153.6,498.0 154.1,498.6 154.6,499.2 155.2,499.7 155.8,500.2 156.4,500.6 157.1,501.0 157.8,501.3 158.5,501.6 159.2,501.8 159.9,501.9 160.7,502.0 161.5,502.0" fill="none" stroke="#333" stroke-width="1.5" stroke-linecap="round"/>
<line x1="161.5" y1="502.0" x2="367.7" y2="502.0" stroke="#333" stroke-width="1.5"/>
<polyline points="367.7,502.0 367.9,502.0 368.1,502.0 368.4,502.0 368.6,502.1 368.8,502.1 369.1,502.1 369.3,502.1 369.5,502.1 369.8,502.1 370.0,502.2 370.2,502.2 370.5,502.2 370.7,502.3 370.9,502.3 371.2,502.3 371.4,502.4 371.6,502.4 371.8,502.5 372.1,502.5 372.3,502.6 372.5,502.6 372.8,502.7 373.0,502.8 373.2,502.8 373.4,502.9 373.6,503.0 373.9,503.0 374.1,503.1 374.3,503.2 374.5,503.3 374.7,503.4 375.0,503.5 375.2,503.5 375.4,503.6 375.6,503.7 375.8,503.8 376.0,503.9 376.2,504.0 376.5,504.1 376.7,504.2 376.9,504.3 377.1,504.5 377.3,504.6 377.5,504.7 377.7,504.8 377.9,504.9 378.1,505.1 378.3,505.2 378.5,505.3 378.7,505.4 378.9,505.6 379.1,505.7 379.2,505.9 379.4,506.0 379.6,506.1 379.8,506.3 380.0,506.4 380.2,506.6 380.3,506.7 380.5,506.9" fill="none" stroke="#333" stroke-width="1.5" stroke-linecap="round"/>
<polyline points="380.5,506.9 380.8,507.1 381.0,507.3 381.3,507.5 381.5,507.7 381.8,507.9 382.0,508.1 382.3,508.3 382.6,508.5 382.8,508.7 383.1,508.9 383.4,509.1 383.6,509.3 383.9,509.4 384.2,509.6 384.5,509.8 384.8,510.0 385.0,510.1 385.3,510.3 385.6,510.4 385.9,510.6 386.2,510.7 386.5,510.9 386.8,511.0 387.1,511.2 387.4,511.3 387.7,511.4 388.0,511.6 388.3,511.7 388.6,511.8 388.9,511.9 389.2,512.0 389.5,512.2 389.8,512.3 390.1,512.4 390.4,512.5 390.8,512.6 391.1,512.6 391.4,512.7 391.7,512.8 392.0,512.9 392.3,513.0 392.7,513.0 393.0,513.1 393.3,513.2 393.6,513.2 393.9,513.3 394.3,513.4 394.6,513.4 394.9,513.4 395.2,513.5 395.6,513.5 395.9,513.6 396.2,513.6 396.5,513.6 396.9,513.6 397.2,513.7 397.5,513.7 397.8,513.7 398.2,513.7 398.5,513.7" fill="none" stroke="#333" stroke-width="1.5" stroke-linecap="round"/>
<line x1="398.5" y1="513.7" x2="489.6" y2="513.7" stroke="#333" stroke-width="1.5"/>
<polyline points="489.6,513.7 490.3,513.7 491.1,513.6 491.9,513.6 492.7,513.5 493.5,513.4 494.3,513.3 495.1,513.1 495.8,512.9 496.6,512.8 497.4,512.5 498.1,512.3 498.9,512.0 499.6,511.8 500.3,511.5 501.1,511.1 501.8,510.8 502.5,510.4 503.2,510.0 503.9,509.6 504.5,509.2" fill="none" stroke="#333" stroke-width="1.5" stroke-linecap="round"/>
<line x1="504.5" y1="509.2" x2="559.2" y2="473.2" stroke="#333" stroke-width="1.5"/>
<polyline points="559.2,473.2 560.3,472.4 561.4,471.6 562.4,470.7 563.4,469.8 564.3,468.8 565.2,467.8 566.0,466.7 566.8,465.6 567.5,464.5 568.2,463.3 568.8,462.1 569.3,460.9 569.8,459.7 570.2,458.4 570.6,457.1 570.9,455.8 571.1,454.5 571.3,453.1 571.4,451.8 571.4,450.4" fill="none" stroke="#333" stroke-width="1.5" stroke-linecap="round"/>
<line x1="571.4" y1="450.4" x2="571.4" y2="354.9" stroke="#333" stroke-width="1.5"/>
<polyline points="571.4,354.9 571.4,354.6 571.4,354.2 571.4,353.9 571.3,353.6 571.3,353.2 571.2,352.9 571.1,352.6 571.1,352.3 571.0,352.0 570.9,351.6 570.7,351.3 570.6,351.0 570.5,350.7 570.3,350.4 570.2,350.1 570.0,349.8 569.8,349.6 569.6,349.3 569.5,349.0 569.2,348.8" fill="none" stroke="#333" stroke-width="1.5" stroke-linecap="round"/>
<polyline points="569.2,348.8 568.4,347.7 567.5,346.6 566.7,345.5 565.8,344.4 565.0,343.2 564.2,342.1 563.4,341.0 562.6,339.8 561.9,338.7 561.1,337.5 560.4,336.3 559.6,335.1 558.9,333.9 558.2,332.7 557.5,331.5 556.8,330.3 556.2,329.1 555.5,327.8 554.9,326.6 554.3,325.4 553.7,324.1 553.1,322.8 552.5,321.6 551.9,320.3 551.4,319.0 550.9,317.7 550.4,316.4 549.8,315.1 549.4,313.8 548.9,312.5 548.4,311.2 548.0,309.9 547.6,308.6 547.1,307.2 546.7,305.9 546.4,304.6 546.0,303.2 545.6,301.9 545.3,300.5 545.0,299.2 544.7,297.8 544.4,296.4 544.1,295.1 543.9,293.7 543.6,292.3 543.4,291.0 543.2,289.6 543.0,288.2 542.8,286.8 542.6,285.5 542.5,284.1 542.3,282.7 542.2,281.3 542.1,279.9 542.0,278.5 542.0,277.1 541.9,275.7 541.9,274.3 541.8,273.0 541.8,271.6" fill="none" stroke="#333" stroke-width="1.5" stroke-linecap="round"/>
<line x1="541.8" y1="271.6" x2="541.8" y2="228.1" stroke="#333" stroke-width="1.5"/>
<polyline points="541.8,228.1 541.8,226.7 541.7,225.2 541.5,223.8 541.2,222.4 540.9,221.0 540.5,219.7 540.0,218.3 539.5,217.0 538.9,215.7 538.2,214.5 537.4,213.3 536.6,212.1 535.8,211.0 534.8,209.9 533.9,208.8 532.8,207.9 531.7,206.9 530.6,206.1 529.4,205.3 528.2,204.5 527.0,203.8 525.7,203.2 524.4,202.7 523.0,202.2 521.7,201.8 520.3,201.5 518.9,201.2 517.5,201.0 516.1,200.9 514.6,200.9 513.2,200.9 511.8,201.0 510.4,201.2 509.0,201.5 507.6,201.8 506.2,202.2 504.9,202.7 503.6,203.2 502.3,203.8 501.0,204.5 499.8,205.3 498.6,206.1 497.5,206.9 496.4,207.9 495.4,208.8 494.4,209.9 493.5,211.0 492.6,212.1 491.8,213.3 491.1,214.5 490.4,215.7 489.8,217.0 489.2,218.3 488.8,219.7 488.4,221.0 488.0,222.4 487.8,223.8 487.6,225.2 487.5,226.7 487.4,228.1" fill="none" stroke="#333" stroke-width="1.5" stroke-linecap="round"/>
<polyline points="487.4,228.1 487.4,228.2 487.4,228.4 487.4,228.5 487.3,228.7 487.3,228.8 487.2,229.0 487.1,229.1 487.1,229.2 487.0,229.3 486.9,229.4 486.7,229.6 486.6,229.6 486.5,229.7 486.4,229.8 486.2,229.9 486.1,229.9 485.9,230.0 485.8,230.0 485.6,230.0 485.5,230.0" fill="none" stroke="#333" stroke-width="1.5" stroke-linecap="round"/>
<line x1="485.5" y1="230.0" x2="278.0" y2="230.0" stroke="#333" stroke-width="1.5"/>
<polyline points="278.0,230.0 277.9,230.0 277.7,230.0 277.6,230.0 277.4,229.9 277.3,229.9 277.2,229.8 277.0,229.7 276.9,229.6 276.8,229.6 276.7,229.4 276.6,229.3 276.5,229.2 276.4,229.1 276.3,229.0 276.2,228.8 276.2,228.7 276.2,228.5 276.1,228.4 276.1,228.2 276.1,228.1" fill="none" stroke="#333" stroke-width="1.5" stroke-linecap="round"/>
<polyline points="276.1,228.1 276.0,225.9 275.8,223.8 275.3,221.7 274.8,219.7 274.0,217.7 273.1,215.7 272.1,213.9 270.9,212.1 269.6,210.4 268.1,208.8 266.6,207.4 264.9,206.1 263.1,204.9 261.2,203.8 259.3,202.9 257.3,202.2 255.2,201.6 253.2,201.2 251.0,201.0 248.9,200.9" fill="none" stroke="#333" stroke-width="1.5" stroke-linecap="round"/>
<line x1="248.9" y1="200.9" x2="179.0" y2="200.9" stroke="#333" stroke-width="1.5"/>
<polyline points="179.0,200.9 176.8,201.0 174.7,201.2 172.6,201.6 170.5,202.2 168.5,202.9 166.6,203.8 164.7,204.9 163.0,206.1 161.3,207.4 159.7,208.8 158.3,210.4 156.9,212.1 155.8,213.9 154.7,215.7 153.8,217.7 153.1,219.7 152.5,221.7 152.1,223.8 151.8,225.9 151.8,228.1" fill="none" stroke="#333" stroke-width="1.5" stroke-linecap="round"/>
<line x1="159.5" y1="228.1" x2="159.5" y2="492.3" stroke="#666" stroke-width="1.0"/>
<polyline points="159.5,492.3 159.5,492.5 159.5,492.6 159.6,492.8 159.6,492.9 159.7,493.1 159.7,493.2 159.8,493.3 159.9,493.5 160.0,493.6 160.1,493.7 160.2,493.8 160.3,493.9 160.5,494.0 160.6,494.0 160.7,494.1 160.9,494.2 161.0,494.2 161.2,494.2 161.3,494.2 161.5,494.3" fill="none" stroke="#666" stroke-width="1.0" stroke-linecap="round"/>
<line x1="161.5" y1="494.3" x2="367.7" y2="494.3" stroke="#666" stroke-width="1.0"/>
<polyline points="367.7,494.3 368.0,494.3 368.3,494.3 368.6,494.3 369.0,494.3 369.3,494.3 369.6,494.3 370.0,494.4 370.3,494.4 370.6,494.4 370.9,494.5 371.3,494.5 371.6,494.5 371.9,494.6 372.2,494.6 372.5,494.7 372.9,494.8 373.2,494.8 373.5,494.9 373.8,495.0 374.2,495.0 374.5,495.1 374.8,495.2 375.1,495.3 375.4,495.4 375.7,495.5 376.0,495.6 376.4,495.7 376.7,495.8 377.0,495.9 377.3,496.0 377.6,496.1 377.9,496.3 378.2,496.4 378.5,496.5 378.8,496.6 379.1,496.8 379.4,496.9 379.7,497.1 380.0,497.2 380.3,497.4 380.6,497.5 380.8,497.7 381.1,497.8 381.4,498.0 381.7,498.2 382.0,498.3 382.3,498.5 382.5,498.7 382.8,498.9 383.1,499.0 383.3,499.2 383.6,499.4 383.9,499.6 384.1,499.8 384.4,500.0 384.7,500.2 384.9,500.4 385.2,500.6 385.4,500.8 385.7,501.1" fill="none" stroke="#666" stroke-width="1.0" stroke-linecap="round"/>
<polyline points="385.7,501.1 385.8,501.2 386.0,501.4 386.2,501.5 386.4,501.7 386.6,501.8 386.7,501.9 386.9,502.1 387.1,502.2 387.3,502.4 387.5,502.5 387.7,502.6 387.9,502.8 388.1,502.9 388.3,503.0 388.5,503.1 388.7,503.2 388.9,503.4 389.1,503.5 389.3,503.6 389.5,503.7 389.7,503.8 389.9,503.9 390.1,504.0 390.3,504.1 390.6,504.2 390.8,504.3 391.0,504.4 391.2,504.5 391.4,504.6 391.6,504.7 391.9,504.7 392.1,504.8 392.3,504.9 392.5,505.0 392.7,505.0 393.0,505.1 393.2,505.2 393.4,505.2 393.6,505.3 393.9,505.4 394.1,505.4 394.3,505.5 394.6,505.5 394.8,505.6 395.0,505.6 395.2,505.6 395.5,505.7 395.7,505.7 395.9,505.7 396.2,505.8 396.4,505.8 396.6,505.8 396.9,505.8 397.1,505.9 397.3,505.9 397.6,505.9 397.8,505.9 398.0,505.9 398.3,505.9 398.5,505.9" fill="none" stroke="#666" stroke-width="1.0" stroke-linecap="round"/>
<line x1="398.5" y1="505.9" x2="489.6" y2="505.9" stroke="#666" stroke-width="1.0"/>
<polyline points="489.6,505.9 490.1,505.9 490.7,505.9 491.2,505.8 491.8,505.8 492.4,505.7 492.9,505.6 493.5,505.5 494.0,505.4 494.6,505.2 495.1,505.1 495.7,504.9 496.2,504.7 496.7,504.5 497.3,504.3 497.8,504.1 498.3,503.8 498.8,503.6 499.3,503.3 499.8,503.0 500.2,502.7" fill="none" stroke="#666" stroke-width="1.0" stroke-linecap="round"/>
<line x1="500.2" y1="502.7" x2="554.9" y2="466.7" stroke="#666" stroke-width="1.0"/>
<polyline points="554.9,466.7 555.7,466.1 556.5,465.5 557.2,464.9 557.9,464.3 558.6,463.6 559.2,462.8 559.8,462.1 560.3,461.3 560.9,460.5 561.3,459.7 561.8,458.8 562.2,457.9 562.5,457.0 562.8,456.1 563.1,455.2 563.3,454.3 563.4,453.3 563.6,452.4 563.6,451.4 563.7,450.4" fill="none" stroke="#666" stroke-width="1.0" stroke-linecap="round"/>
<line x1="563.7" y1="450.4" x2="563.7" y2="354.9" stroke="#666" stroke-width="1.0"/>
<polyline points="563.7,354.9 563.7,354.8 563.6,354.8 563.6,354.7 563.6,354.6 563.6,354.6 563.6,354.5 563.6,354.4 563.6,354.4 563.6,354.3 563.5,354.2 563.5,354.2 563.5,354.1 563.5,354.1 563.4,354.0 563.4,353.9 563.4,353.9 563.3,353.8 563.3,353.8 563.3,353.7 563.2,353.7" fill="none" stroke="#666" stroke-width="1.0" stroke-linecap="round"/>
<polyline points="563.2,353.7 562.3,352.5 561.4,351.3 560.5,350.2 559.6,349.0 558.7,347.8 557.9,346.6 557.0,345.4 556.2,344.1 555.4,342.9 554.6,341.7 553.8,340.4 553.0,339.2 552.2,337.9 551.5,336.6 550.7,335.3 550.0,334.0 549.3,332.7 548.6,331.4 548.0,330.1 547.3,328.8 546.7,327.4 546.0,326.1 545.4,324.7 544.8,323.4 544.2,322.0 543.7,320.7 543.1,319.3 542.6,317.9 542.1,316.5 541.6,315.1 541.1,313.7 540.6,312.3 540.1,310.9 539.7,309.5 539.3,308.1 538.9,306.7 538.5,305.2 538.1,303.8 537.8,302.4 537.4,300.9 537.1,299.5 536.8,298.0 536.5,296.6 536.2,295.1 535.9,293.7 535.7,292.2 535.5,290.7 535.3,289.3 535.1,287.8 534.9,286.3 534.7,284.9 534.6,283.4 534.5,281.9 534.4,280.4 534.3,279.0 534.2,277.5 534.1,276.0 534.1,274.5 534.1,273.0 534.1,271.6" fill="none" stroke="#666" stroke-width="1.0" stroke-linecap="round"/>
<line x1="534.1" y1="271.6" x2="534.1" y2="228.1" stroke="#666" stroke-width="1.0"/>
<polyline points="534.1,228.1 534.0,227.1 534.0,226.0 533.8,225.0 533.6,224.0 533.4,223.0 533.1,222.1 532.8,221.1 532.4,220.2 531.9,219.3 531.5,218.4 530.9,217.5 530.3,216.7 529.7,215.8 529.1,215.1 528.4,214.3 527.6,213.6 526.9,213.0 526.0,212.4 525.2,211.8 524.3,211.2 523.4,210.8 522.5,210.3 521.6,209.9 520.6,209.6 519.7,209.3 518.7,209.1 517.7,208.9 516.7,208.8 515.6,208.7 514.6,208.6 513.6,208.7 512.6,208.8 511.6,208.9 510.6,209.1 509.6,209.3 508.6,209.6 507.7,209.9 506.7,210.3 505.8,210.8 504.9,211.2 504.0,211.8 503.2,212.4 502.4,213.0 501.6,213.6 500.9,214.3 500.2,215.1 499.5,215.8 498.9,216.7 498.3,217.5 497.8,218.4 497.3,219.3 496.9,220.2 496.5,221.1 496.1,222.1 495.9,223.0 495.6,224.0 495.4,225.0 495.3,226.0 495.2,227.1 495.2,228.1" fill="none" stroke="#666" stroke-width="1.0" stroke-linecap="round"/>
<polyline points="495.2,228.1 495.2,228.8 495.1,229.6 494.9,230.3 494.7,231.1 494.5,231.8 494.1,232.5 493.8,233.2 493.3,233.8 492.9,234.4 492.4,234.9 491.8,235.5 491.2,235.9 490.6,236.4 489.9,236.7 489.2,237.1 488.5,237.3 487.8,237.5 487.0,237.7 486.2,237.8 485.5,237.8" fill="none" stroke="#666" stroke-width="1.0" stroke-linecap="round"/>
<line x1="485.5" y1="237.8" x2="278.0" y2="237.8" stroke="#666" stroke-width="1.0"/>
<polyline points="278.0,237.8 277.3,237.8 276.5,237.7 275.8,237.5 275.0,237.3 274.3,237.1 273.6,236.7 273.0,236.4 272.3,235.9 271.7,235.5 271.2,234.9 270.7,234.4 270.2,233.8 269.8,233.2 269.4,232.5 269.1,231.8 268.8,231.1 268.6,230.3 268.4,229.6 268.4,228.8 268.3,228.1" fill="none" stroke="#666" stroke-width="1.0" stroke-linecap="round"/>
<polyline points="268.3,228.1 268.3,226.6 268.1,225.0 267.8,223.5 267.4,222.1 266.8,220.6 266.2,219.3 265.5,217.9 264.6,216.7 263.7,215.5 262.6,214.3 261.5,213.3 260.3,212.4 259.1,211.5 257.7,210.8 256.3,210.1 254.9,209.6 253.4,209.2 251.9,208.9 250.4,208.7 248.9,208.6" fill="none" stroke="#666" stroke-width="1.0" stroke-linecap="round"/>
<line x1="248.9" y1="208.6" x2="179.0" y2="208.6" stroke="#666" stroke-width="1.0"/>
<polyline points="179.0,208.6 177.4,208.7 175.9,208.9 174.4,209.2 173.0,209.6 171.5,210.1 170.1,210.8 168.8,211.5 167.5,212.4 166.3,213.3 165.2,214.3 164.2,215.5 163.2,216.7 162.4,217.9 161.6,219.3 161.0,220.6 160.5,222.1 160.1,223.5 159.8,225.0 159.6,226.6 159.5,228.1" fill="none" stroke="#666" stroke-width="1.0" stroke-linecap="round"/>
<polygon points="159.5,360.2 563.7,360.2 563.6,354.4 159.5,354.4" fill="rgba(160,160,160,0.35)" stroke="none"/>
<line x1="159.5" y1="360.2" x2="563.7" y2="360.2" stroke="#666" stroke-width="1.0"/>
<line x1="563.6" y1="354.4" x2="159.5" y2="354.4" stroke="#666" stroke-width="1.0"/>
<text x="361.6" y="352.8" text-anchor="middle" font-family="Arial" font-size="8" fill="#666">IW1</text>
<polygon points="235.3,354.4 241.1,354.4 241.1,208.6 235.3,208.6" fill="rgba(160,160,160,0.35)" stroke="none"/>
<line x1="235.3" y1="354.4" x2="235.3" y2="208.6" stroke="#666" stroke-width="1.0"/>
<line x1="241.1" y1="354.4" x2="241.1" y2="208.6" stroke="#666" stroke-width="1.0"/>
<text x="234.2" y="285.0" text-anchor="middle" font-family="Arial" font-size="8" fill="#666" transform="rotate(-90,234.2,285.0)">IW2</text>
<line x1="382.7" y1="354.4" x2="382.7" y2="237.8" stroke="#999" stroke-width="0.8"/>
<line x1="378.7" y1="354.4" x2="386.7" y2="354.4" stroke="#999" stroke-width="0.8"/>
<line x1="378.7" y1="237.8" x2="386.7" y2="237.8" stroke="#999" stroke-width="0.8"/>
<text x="379.7" y="299.1" text-anchor="middle" font-family="Arial" font-size="8" fill="#999" transform="rotate(-90,379.7,299.1)">9' 12.0"</text>
<line x1="241.1" y1="249.8" x2="534.1" y2="249.8" stroke="#999" stroke-width="0.8"/>
<line x1="241.1" y1="245.8" x2="241.1" y2="253.8" stroke="#999" stroke-width="0.8"/>
<line x1="534.1" y1="245.8" x2="534.1" y2="253.8" stroke="#999" stroke-width="0.8"/>
<text x="387.6" y="246.8" text-anchor="middle" font-family="Arial" font-size="8" fill="#999">25' 1.5"</text>
<rect x="165.4" y="461.2" width="34.0" height="29.1" fill="rgba(100,150,200,0.2)" stroke="#4682B4" stroke-width="0.8"/>
<text x="182.4" y="478.8" text-anchor="middle" font-family="Arial" font-size="7" fill="#4682B4">DRYER</text>
<rect x="165.4" y="431.1" width="34.0" height="29.1" fill="rgba(100,150,200,0.2)" stroke="#4682B4" stroke-width="0.8"/>
<text x="182.4" y="448.7" text-anchor="middle" font-family="Arial" font-size="7" fill="#4682B4">WASHER</text>
<path d="M 234.3,494.3 L 257.6,494.3 L 257.6,424.3 L 243.1,424.3 A 8.7 8.7 0 0 0 234.3,433.1 Z" fill="rgba(100,150,200,0.2)" stroke="#4682B4" stroke-width="0.8"/>
<text x="246.0" y="459.3" text-anchor="middle" font-family="Arial" font-size="7" fill="#4682B4" letter-spacing="0.5" transform="rotate(-90,246.0,459.3)">COUNTER</text>
<polygon points="257.6,494.3 260.6,494.3 260.6,424.3 289.7,424.3 289.7,421.4 257.6,421.4" fill="rgba(160,160,160,0.35)" stroke="#666" stroke-width="0.8"/>
<polygon points="289.7,494.3 293.6,494.3 293.6,360.2 289.7,360.2" fill="rgba(160,160,160,0.35)" stroke="#666" stroke-width="0.8"/>
<text x="287.6" y="430.7" text-anchor="middle" font-family="Arial" font-size="8" fill="#666" transform="rotate(-90,287.6,430.7)">IW3</text>
<polygon points="429.6,505.9 433.5,505.9 433.5,360.2 429.6,360.2" fill="rgba(160,160,160,0.35)" stroke="#666" stroke-width="0.8"/>
<text x="427.5" y="436.6" text-anchor="middle" font-family="Arial" font-size="8" fill="#666" transform="rotate(-90,427.5,436.6)">IW4</text>
<polygon points="433.5,433.1 465.5,433.1 465.5,505.9 462.6,505.9 462.6,436.0 433.5,436.0" fill="rgba(160,160,160,0.35)" stroke="#666" stroke-width="0.8"/>
<polygon points="433.5,392.3 563.7,392.3 563.7,389.3 433.5,389.3" fill="rgba(160,160,160,0.35)" stroke="none"/>
<line x1="433.5" y1="392.3" x2="563.7" y2="392.3" stroke="#666" stroke-width="1.0"/>
<line x1="433.5" y1="389.3" x2="563.7" y2="389.3" stroke="#666" stroke-width="1.0"/>
<text x="498.6" y="386.3" text-anchor="middle" font-family="Arial" font-size="8" fill="#666">IW5</text>
<rect x="324.7" y="401.0" width="73.8" height="91.3" fill="rgba(100,150,200,0.2)" stroke="#4682B4" stroke-width="0.8"/>
<text x="361.6" y="473.9" text-anchor="middle" font-family="Arial" font-size="7" fill="#4682B4">KING BED</text>
<text x="361.6" y="430.2" text-anchor="middle" font-family="Arial" font-size="8" fill="#666">BEDROOM</text>
<text x="498.6" y="422.9" text-anchor="middle" font-family="Arial" font-size="8" fill="#666">OFFICE</text>
<line x1="293.6" y1="460.7" x2="429.6" y2="460.7" stroke="#999" stroke-width="0.8"/>
<line x1="293.6" y1="456.7" x2="293.6" y2="464.7" stroke="#999" stroke-width="0.8"/>
<line x1="429.6" y1="456.7" x2="429.6" y2="464.7" stroke="#999" stroke-width="0.8"/>
<text x="361.6" y="457.7" text-anchor="middle" font-family="Arial" font-size="8" fill="#999">11' 8"</text>
<line x1="316.9" y1="494.3" x2="316.9" y2="360.2" stroke="#999" stroke-width="0.8"/>
<line x1="312.9" y1="494.3" x2="320.9" y2="494.3" stroke="#999" stroke-width="0.8"/>
<line x1="312.9" y1="360.2" x2="320.9" y2="360.2" stroke="#999" stroke-width="0.8"/>
<text x="313.9" y="430.2" text-anchor="middle" font-family="Arial" font-size="8" fill="#999" transform="rotate(-90,313.9,430.2)">11' 6"</text>
<line x1="275.1" y1="494.3" x2="275.1" y2="424.3" stroke="#999" stroke-width="0.8"/>
<line x1="271.1" y1="494.3" x2="279.1" y2="494.3" stroke="#999" stroke-width="0.8"/>
<line x1="271.1" y1="424.3" x2="279.1" y2="424.3" stroke="#999" stroke-width="0.8"/>
<text x="272.1" y="462.3" text-anchor="middle" font-family="Arial" font-size="8" fill="#999" transform="rotate(-90,272.1,462.3)">CLOSET 6' 0"</text>
<line x1="448.0" y1="505.9" x2="448.0" y2="436.0" stroke="#999" stroke-width="0.8"/>
<line x1="444.0" y1="505.9" x2="452.0" y2="505.9" stroke="#999" stroke-width="0.8"/>
<line x1="444.0" y1="436.0" x2="452.0" y2="436.0" stroke="#999" stroke-width="0.8"/>
<text x="445.0" y="473.9" text-anchor="middle" font-family="Arial" font-size="8" fill="#999" transform="rotate(-90,445.0,473.9)">CLOSET 6' 0"</text>
<line x1="465.5" y1="449.6" x2="563.7" y2="449.6" stroke="#999" stroke-width="0.8"/>
<line x1="465.5" y1="445.6" x2="465.5" y2="453.6" stroke="#999" stroke-width="0.8"/>
<line x1="563.7" y1="445.6" x2="563.7" y2="453.6" stroke="#999" stroke-width="0.8"/>
<text x="514.6" y="446.6" text-anchor="middle" font-family="Arial" font-size="8" fill="#999">8' 5.00"</text>
<line x1="433.5" y1="374.8" x2="563.7" y2="374.8" stroke="#999" stroke-width="0.8"/>
<line x1="433.5" y1="370.8" x2="433.5" y2="378.8" stroke="#999" stroke-width="0.8"/>
<line x1="563.7" y1="370.8" x2="563.7" y2="378.8" stroke="#999" stroke-width="0.8"/>
<text x="498.6" y="371.8" text-anchor="middle" font-family="Arial" font-size="8" fill="#999">STORAGE 11' 2.00"</text>
<line x1="489.6" y1="392.3" x2="489.6" y2="505.9" stroke="#999" stroke-width="0.8"/>
<line x1="485.6" y1="392.3" x2="493.6" y2="392.3" stroke="#999" stroke-width="0.8"/>
<line x1="485.6" y1="505.9" x2="493.6" y2="505.9" stroke="#999" stroke-width="0.8"/>
<text x="486.6" y="452.1" text-anchor="middle" font-family="Arial" font-size="8" fill="#999" transform="rotate(-90,486.6,452.1)">9' 9.00"</text>
<line x1="190.6" y1="354.4" x2="190.6" y2="208.6" stroke="#999" stroke-width="0.8"/>
<line x1="186.6" y1="354.4" x2="194.6" y2="354.4" stroke="#999" stroke-width="0.8"/>
<line x1="186.6" y1="208.6" x2="194.6" y2="208.6" stroke="#999" stroke-width="0.8"/>
<text x="187.6" y="284.5" text-anchor="middle" font-family="Arial" font-size="8" fill="#999" transform="rotate(-90,187.6,284.5)">12' 6.0"</text>
<circle cx="151.8" cy="228.1" r="2.5" fill="#333"/>
<text x="143.8" y="222.1" text-anchor="end" font-family="Arial" font-size="9" font-weight="bold" fill="#333">C2</text>
<circle cx="151.8" cy="492.3" r="2.5" fill="#333"/>
<text x="143.8" y="488.3" text-anchor="end" font-family="Arial" font-size="9" font-weight="bold" fill="#333">C1</text>
<circle cx="161.5" cy="502.0" r="2.5" fill="#333"/>
<text x="153.5" y="512.0" text-anchor="end" font-family="Arial" font-size="9" font-weight="bold" fill="#333">C0</text>
<circle cx="367.7" cy="502.0" r="2.5" fill="#333"/>
<text x="367.7" y="490.0" text-anchor="middle" font-family="Arial" font-size="9" font-weight="bold" fill="#333">C15</text>
<circle cx="380.5" cy="506.9" r="2.5" fill="#333"/>
<text x="388.5" y="500.9" text-anchor="start" font-family="Arial" font-size="9" font-weight="bold" fill="#333">C14</text>
<circle cx="398.5" cy="513.7" r="2.5" fill="#333"/>
<text x="406.5" y="525.7" text-anchor="start" font-family="Arial" font-size="9" font-weight="bold" fill="#333">C13b</text>
<circle cx="489.6" cy="513.7" r="2.5" fill="#333"/>
<text x="497.6" y="525.7" text-anchor="start" font-family="Arial" font-size="9" font-weight="bold" fill="#333">C13a</text>
<circle cx="504.5" cy="509.2" r="2.5" fill="#333"/>
<text x="514.5" y="519.2" text-anchor="start" font-family="Arial" font-size="9" font-weight="bold" fill="#333">C13</text>
<circle cx="559.2" cy="473.2" r="2.5" fill="#333"/>
<text x="567.2" y="477.2" text-anchor="start" font-family="Arial" font-size="9" font-weight="bold" fill="#333">C12</text>
<circle cx="571.4" cy="450.4" r="2.5" fill="#333"/>
<text x="579.4" y="454.4" text-anchor="start" font-family="Arial" font-size="9" font-weight="bold" fill="#333">C11</text>
<circle cx="571.4" cy="354.9" r="2.5" fill="#333"/>
<text x="581.4" y="350.9" text-anchor="start" font-family="Arial" font-size="9" font-weight="bold" fill="#333">C10a</text>
<circle cx="569.2" cy="348.8" r="2.5" fill="#333"/>
<text x="579.2" y="344.8" text-anchor="start" font-family="Arial" font-size="9" font-weight="bold" fill="#333">C10</text>
<circle cx="541.8" cy="271.6" r="2.5" fill="#333"/>
<text x="549.8" y="279.6" text-anchor="start" font-family="Arial" font-size="9" font-weight="bold" fill="#333">C9</text>
<circle cx="541.8" cy="228.1" r="2.5" fill="#333"/>
<text x="549.8" y="240.1" text-anchor="start" font-family="Arial" font-size="9" font-weight="bold" fill="#333">C8</text>
<circle cx="487.4" cy="228.1" r="2.5" fill="#333"/>
<text x="495.4" y="240.1" text-anchor="start" font-family="Arial" font-size="9" font-weight="bold" fill="#333">C7</text>
<circle cx="485.5" cy="230.0" r="2.5" fill="#333"/>
<text x="477.5" y="224.0" text-anchor="end" font-family="Arial" font-size="9" font-weight="bold" fill="#333">C6a</text>
<circle cx="278.0" cy="230.0" r="2.5" fill="#333"/>
<text x="278.0" y="244.0" text-anchor="middle" font-family="Arial" font-size="9" font-weight="bold" fill="#333">C6</text>
<circle cx="276.1" cy="228.1" r="2.5" fill="#333"/>
<text x="268.1" y="224.1" text-anchor="end" font-family="Arial" font-size="9" font-weight="bold" fill="#333">C5</text>
<circle cx="248.9" cy="200.9" r="2.5" fill="#333"/>
<text x="248.9" y="188.9" text-anchor="middle" font-family="Arial" font-size="9" font-weight="bold" fill="#333">C4</text>
<circle cx="179.0" cy="200.9" r="2.5" fill="#333"/>
<text x="169.0" y="194.9" text-anchor="end" font-family="Arial" font-size="9" font-weight="bold" fill="#333">C3</text>
<line x1="742" y1="560" x2="742" y2="524" stroke="#333" stroke-width="2" marker-end="url(#ah)"/>
<text x="742" y="518" text-anchor="middle" font-family="Arial" font-size="13" font-weight="bold">N</text>
<rect x="622.0" y="134.9" width="130" height="58" fill="white" stroke="#333" stroke-width="1"/>
<text x="687.0" y="148.9" text-anchor="middle" font-family="Arial" font-size="11" font-weight="bold" fill="#333">776.54 sq ft</text>
<text x="687.0" y="160.9" text-anchor="middle" font-family="Arial" font-size="8" fill="#666">Interior area</text>
<text x="687.0" y="174.9" text-anchor="middle" font-family="Arial" font-size="11" font-weight="bold" fill="#333">855.32 sq ft</text>
<text x="687.0" y="186.9" text-anchor="middle" font-family="Arial" font-size="8" fill="#666">Exterior area</text>
<text x="396.0" y="610" text-anchor="middle" font-family="Arial" font-size="7.5" fill="#999">Wall thickness: 8&#8243; &#8226; Outer: 855.32 sq ft &#8226; Interior: 776.54 sq ft</text>
</svg>