<svg xmlns="http://www.w3.org/2000/svg" width="792" height="612" viewBox="28.65 97.90 769.40 594.54">
<rect x="28.65" y="97.90" width="769.40" height="594.54" fill="white"/>
<defs>
  <marker id="ah" markerWidth="8" markerHeight="6" refX="8" refY="3" orient="auto"><polygon points="0 0, 8 3, 0 6" fill="#333"/></marker>
</defs>
<text x="361.6" y="151.9" text-anchor="middle" font-family="Arial" font-size="14" font-weight="bold">Parent Suite</text>
<polygon points="161.5,502.0 160.7,502.0 159.9,501.9 159.2,501.8 158.5,501.6 157.8,501.3 157.1,501.0 156.4,500.6 155.8,500.2 155.2,499.7 154.6,499.2 154.1,498.6 153.6,498.0 153.2,497.4 152.8,496.7 152.5,496.0 152.2,495.3 152.0,494.6 151.9,493.8 151.8,493.1 151.8,492.3 151.8,298.0 151.8,297.0 151.8,296.0 151.9,295.1 152.0,294.1 152.2,293.1 152.4,292.1 152.6,291.2 152.9,290.2 153.2,289.3 153.5,288.4 153.9,287.4 154.3,286.5 154.7,285.6 155.2,284.8 155.6,283.9 156.2,283.1 156.7,282.3 157.3,281.5 157.9,280.7 158.5,279.9 159.0,279.4 159.4,278.8 159.8,278.2 160.2,277.7 160.6,277.1 161.0,276.4 161.3,275.8 161.6,275.2 161.9,274.5 162.2,273.9 162.4,273.2 162.6,272.5 162.8,271.8 163.0,271.2 163.1,270.5 163.2,269.8 163.3,269.1 163.4,268.3 163.4,267.6 163.4,266.9 163.4,228.1 163.5,225.9 163.7,223.8 164.2,221.7 164.7,219.7 165.5,217.7 166.4,215.7 167.4,213.9 168.6,212.1 169.9,210.4 171.4,208.8 172.9,207.4 174.6,206.1 176.4,204.9 178.3,203.8 180.2,202.9 182.2,202.2 184.3,201.6 186.4,201.2 188.5,201.0 190.6,200.9 252.8,200.9 254.9,201.0 257.0,201.2 259.1,201.6 261.2,202.2 263.2,202.9 265.1,203.8 267.0,204.9 268.8,206.1 270.5,207.4 272.0,208.8 273.5,210.4 274.8,212.1 276.0,213.9 277.0,215.7 277.9,217.7 278.7,219.7 279.2,221.7 279.7,223.8 279.9,225.9 280.0,228.1 280.0,228.2 280.0,228.4 280.0,228.5 280.1,228.7 280.1,228.8 280.2,229.0 280.3,229.1 280.4,229.2 280.5,229.3 280.6,229.4 280.7,229.6 280.8,229.6 280.9,229.7 281.0,229.8 281.2,229.9 281.3,229.9 281.5,230.0 281.6,230.0 281.8,230.0 281.9,230.0 483.4,230.0 483.5,230.0 483.7,230.0 483.8,230.0 484.0,229.9 484.1,229.9 484.2,229.8 484.4,229.7 484.5,229.6 484.6,229.6 484.7,229.4 484.8,229.3 484.9,229.2 485.0,229.1 485.1,229.0 485.2,228.8 485.2,228.7 485.3,228.5 485.3,228.4 485.3,228.2 485.3,228.1 485.3,226.8 485.4,225.5 485.6,224.2 485.8,222.9 486.1,221.6 486.4,220.3 486.8,219.1 487.3,217.9 487.8,216.7 488.4,215.5 489.0,214.4 489.7,213.3 490.4,212.2 491.2,211.1 492.1,210.1 492.9,209.2 493.9,208.3 494.8,207.4 495.9,206.6 496.9,205.8 498.0,205.1 499.1,204.4 500.3,203.8 501.4,203.2 502.6,202.7 503.9,202.3 505.1,201.9 506.4,201.6 507.7,201.3 509.0,201.1 510.3,201.0 511.6,200.9 512.9,200.9 514.2,200.9 515.5,201.0 516.8,201.2 518.0,201.4 519.3,201.7 520.6,202.1 521.8,202.5 523.0,203.0 524.2,203.5 525.4,204.1 526.5,204.8 527.6,205.5 528.7,206.2 529.7,207.0 530.7,207.9 531.7,208.8 532.6,209.7 533.4,210.7 534.2,211.7 535.0,212.8 535.7,213.9 536.4,215.0 537.0,216.2 537.5,217.3 538.0,218.5 538.4,219.8 538.8,221.0 569.0,333.6 569.0,333.9 569.1,334.3 569.2,334.6 569.3,334.9 569.3,335.2 569.4,335.5 569.5,335.8 569.6,336.1 569.6,336.4 569.7,336.7 569.8,337.0 569.8,337.3 569.9,337.6 570.0,338.0 570.0,338.3 570.1,338.6 570.2,338.9 570.2,339.2 570.3,339.5 570.3,339.8 570.4,340.1 570.4,340.4 570.5,340.8 570.5,341.1 570.6,341.4 570.6,341.7 570.7,342.0 570.7,342.3 570.8,342.6 570.8,342.9 570.8,343.3 570.9,343.6 570.9,343.9 571.0,344.2 571.0,344.5 571.0,344.8 571.1,345.2 571.1,345.5 571.1,345.8 571.1,346.1 571.2,346.4 571.2,346.7 571.2,347.0 571.2,347.4 571.3,347.7 571.3,348.0 571.3,348.3 571.3,348.6 571.3,348.9 571.4,349.3 571.4,349.6 571.4,349.9 571.4,350.2 571.4,350.5 571.4,350.8 571.4,351.2 571.4,351.5 571.4,351.8 571.4,352.1 571.4,352.4 571.4,449.6 571.4,451.1 571.3,452.6 571.1,454.1 570.8,455.6 570.4,457.0 570.0,458.5 569.5,459.9 568.9,461.3 568.3,462.7 567.6,464.0 566.8,465.3 565.9,466.5 565.0,467.7 564.0,468.9 563.0,470.0 561.9,471.0 560.7,472.0 559.5,472.9 558.3,473.7 557.0,474.5 506.5,503.7 504.8,504.6 503.1,505.5 501.3,506.4 499.6,507.2 497.8,508.0 496.0,508.7 494.1,509.4 492.3,510.0 490.4,510.6 488.5,511.1 486.6,511.6 484.7,512.1 482.8,512.4 480.9,512.8 478.9,513.0 477.0,513.3 475.1,513.5 473.1,513.6 471.2,513.7 469.2,513.7 396.6,513.7 396.2,513.7 395.9,513.7 395.6,513.7 395.2,513.7 394.9,513.6 394.6,513.6 394.3,513.6 393.9,513.6 393.6,513.5 393.3,513.5 393.0,513.4 392.6,513.4 392.3,513.4 392.0,513.3 391.7,513.2 391.3,513.2 391.0,513.1 390.7,513.0 390.4,513.0 390.0,512.9 389.7,512.8 389.4,512.7 389.1,512.7 388.8,512.6 388.5,512.5 388.1,512.4 387.8,512.3 387.5,512.2 387.2,512.0 386.9,511.9 386.6,511.8 386.3,511.7 386.0,511.6 385.7,511.4 385.4,511.3 385.1,511.2 384.8,511.0 384.5,510.9 384.2,510.7 383.9,510.6 383.6,510.4 383.3,510.3 383.0,510.1 382.7,510.0 382.5,509.8 382.2,509.6 381.9,509.5 381.6,509.3 381.3,509.1 381.1,508.9 380.8,508.7 380.5,508.5 380.3,508.3 380.0,508.1 379.7,507.9 379.5,507.7 379.2,507.5 379.0,507.3 378.7,507.1 378.5,506.9 378.3,506.7 378.1,506.6 377.9,506.4 377.7,506.3 377.6,506.1 377.4,506.0 377.2,505.9 377.0,505.7 376.8,505.6 376.6,505.5 376.4,505.3 376.2,505.2 376.0,505.1 375.8,504.9 375.6,504.8 375.4,504.7 375.2,504.6 375.0,504.5 374.8,504.4 374.6,504.2 374.4,504.1 374.1,504.0 373.9,503.9 373.7,503.8 373.5,503.7 373.3,503.6 373.1,503.5 372.9,503.5 372.6,503.4 372.4,503.3 372.2,503.2 372.0,503.1 371.7,503.0 371.5,503.0 371.3,502.9 371.1,502.8 370.8,502.8 370.6,502.7 370.4,502.6 370.2,502.6 369.9,502.5 369.7,502.5 369.5,502.4 369.2,502.4 369.0,502.3 368.8,502.3 368.5,502.3 368.3,502.2 368.1,502.2 367.8,502.2 367.6,502.1 367.4,502.1 367.1,502.1 366.9,502.1 366.7,502.1 366.4,502.1 366.2,502.0 365.9,502.0 365.7,502.0 365.5,502.0" fill="rgba(160,160,160,0.35)" stroke="none"/>
<polygon points="365.5,494.3 365.8,494.3 366.1,494.3 366.5,494.3 366.8,494.3 367.1,494.3 367.4,494.3 367.8,494.4 368.1,494.4 368.4,494.4 368.8,494.5 369.1,494.5 369.4,494.5 369.7,494.6 370.1,494.6 370.4,494.7 370.7,494.8 371.0,494.8 371.4,494.9 371.7,495.0 372.0,495.0 372.3,495.1 372.6,495.2 373.0,495.3 373.3,495.4 373.6,495.5 373.9,495.6 374.2,495.7 374.5,495.8 374.8,495.9 375.1,496.0 375.4,496.1 375.8,496.2 376.1,496.4 376.4,496.5 376.7,496.6 377.0,496.8 377.3,496.9 377.6,497.0 377.9,497.2 378.1,497.3 378.4,497.5 378.7,497.7 379.0,497.8 379.3,498.0 379.6,498.1 379.9,498.3 380.1,498.5 380.4,498.7 380.7,498.8 381.0,499.0 381.2,499.2 381.5,499.4 381.8,499.6 382.0,499.8 382.3,500.0 382.6,500.2 382.8,500.4 383.1,500.6 383.3,500.8 383.6,501.0 383.8,501.2 383.9,501.3 384.1,501.5 384.3,501.6 384.5,501.8 384.7,501.9 384.9,502.1 385.1,502.2 385.2,502.4 385.4,502.5 385.6,502.6 385.8,502.7 386.0,502.9 386.2,503.0 386.4,503.1 386.6,503.2 386.8,503.4 387.1,503.5 387.3,503.6 387.5,503.7 387.7,503.8 387.9,503.9 388.1,504.0 388.3,504.1 388.5,504.2 388.7,504.3 389.0,504.4 389.2,504.5 389.4,504.6 389.6,504.7 389.8,504.7 390.1,504.8 390.3,504.9 390.5,505.0 390.7,505.0 391.0,505.1 391.2,505.2 391.4,505.2 391.7,505.3 391.9,505.4 392.1,505.4 392.3,505.5 392.6,505.5 392.8,505.6 393.0,505.6 393.3,505.6 393.5,505.7 393.7,505.7 394.0,505.7 394.2,505.8 394.4,505.8 394.7,505.8 394.9,505.8 395.1,505.9 395.4,505.9 395.6,505.9 395.9,505.9 396.1,505.9 396.3,505.9 396.6,505.9 469.2,505.9 470.9,505.9 472.7,505.8 474.4,505.7 476.2,505.5 477.9,505.3 479.7,505.1 481.4,504.8 483.1,504.5 484.8,504.1 486.5,503.6 488.2,503.2 489.9,502.6 491.5,502.1 493.2,501.5 494.8,500.8 496.4,500.1 498.0,499.4 499.6,498.6 501.1,497.8 502.6,497.0 553.1,467.8 554.1,467.2 555.0,466.6 555.8,465.9 556.7,465.2 557.5,464.5 558.2,463.7 559.0,462.8 559.6,461.9 560.3,461.0 560.8,460.1 561.4,459.1 561.8,458.1 562.3,457.1 562.6,456.1 562.9,455.0 563.2,453.9 563.4,452.9 563.5,451.8 563.6,450.7 563.7,449.6 563.7,352.4 563.7,352.1 563.7,351.9 563.6,351.6 563.6,351.3 563.6,351.0 563.6,350.7 563.6,350.4 563.6,350.2 563.6,349.9 563.6,349.6 563.6,349.3 563.6,349.0 563.5,348.7 563.5,348.5 563.5,348.2 563.5,347.9 563.5,347.6 563.5,347.3 563.4,347.1 563.4,346.8 563.4,346.5 563.4,346.2 563.3,345.9 563.3,345.6 563.3,345.4 563.2,345.1 563.2,344.8 563.2,344.5 563.1,344.2 563.1,344.0 563.1,343.7 563.0,343.4 563.0,343.1 562.9,342.8 562.9,342.6 562.9,342.3 562.8,342.0 562.8,341.7 562.7,341.4 562.7,341.2 562.6,340.9 562.6,340.6 562.5,340.3 562.5,340.1 562.4,339.8 562.4,339.5 562.3,339.2 562.2,338.9 562.2,338.7 562.1,338.4 562.1,338.1 562.0,337.8 561.9,337.6 561.9,337.3 561.8,337.0 561.7,336.7 561.7,336.5 561.6,336.2 561.5,335.9 561.4,335.6 531.3,223.0 531.0,222.2 530.7,221.3 530.4,220.4 530.0,219.6 529.5,218.7 529.1,217.9 528.6,217.1 528.0,216.4 527.4,215.7 526.8,214.9 526.2,214.3 525.5,213.6 524.8,213.0 524.1,212.5 523.3,211.9 522.5,211.4 521.7,211.0 520.9,210.5 520.0,210.2 519.2,209.8 518.3,209.5 517.4,209.3 516.5,209.1 515.5,208.9 514.6,208.8 513.7,208.7 512.8,208.6 511.8,208.7 510.9,208.7 510.0,208.8 509.0,209.0 508.1,209.1 507.2,209.4 506.3,209.6 505.5,210.0 504.6,210.3 503.8,210.7 502.9,211.2 502.1,211.6 501.4,212.2 500.6,212.7 499.9,213.3 499.2,213.9 498.5,214.6 497.9,215.3 497.3,216.0 496.7,216.7 496.2,217.5 495.7,218.3 495.3,219.1 494.9,219.9 494.5,220.8 494.2,221.7 493.9,222.6 493.6,223.5 493.4,224.4 493.3,225.3 493.2,226.2 493.1,227.1 493.1,228.1 493.0,228.8 493.0,229.6 492.8,230.3 492.6,231.1 492.3,231.8 492.0,232.5 491.6,233.2 491.2,233.8 490.7,234.4 490.2,234.9 489.7,235.5 489.1,235.9 488.4,236.4 487.8,236.7 487.1,237.1 486.4,237.3 485.6,237.5 484.9,237.7 484.1,237.8 483.4,237.8 281.9,237.8 281.2,237.8 280.4,237.7 279.7,237.5 278.9,237.3 278.2,237.1 277.5,236.7 276.9,236.4 276.2,235.9 275.6,235.5 275.1,234.9 274.5,234.4 274.1,233.8 273.6,233.2 273.3,232.5 273.0,231.8 272.7,231.1 272.5,230.3 272.3,229.6 272.2,228.8 272.2,228.1 272.2,226.6 272.0,225.0 271.7,223.5 271.3,222.1 270.7,220.6 270.1,219.3 269.4,217.9 268.5,216.7 267.6,215.5 266.5,214.3 265.4,213.3 264.2,212.4 262.9,211.5 261.6,210.8 260.2,210.1 258.8,209.6 257.3,209.2 255.8,208.9 254.3,208.7 252.8,208.6 190.6,208.6 189.1,208.7 187.6,208.9 186.1,209.2 184.6,209.6 183.2,210.1 181.8,210.8 180.5,211.5 179.2,212.4 178.0,213.3 176.9,214.3 175.8,215.5 174.9,216.7 174.0,217.9 173.3,219.3 172.7,220.6 172.1,222.1 171.7,223.5 171.4,225.0 171.2,226.6 171.2,228.1 171.2,266.9 171.2,267.9 171.1,268.9 171.0,269.9 170.9,270.9 170.7,271.8 170.5,272.8 170.3,273.8 170.1,274.7 169.8,275.7 169.4,276.6 169.1,277.5 168.7,278.4 168.2,279.3 167.8,280.2 167.3,281.0 166.8,281.9 166.2,282.7 165.6,283.5 165.0,284.3 164.4,285.0 163.9,285.6 163.5,286.1 163.1,286.7 162.7,287.3 162.3,287.9 162.0,288.5 161.6,289.1 161.3,289.8 161.0,290.4 160.8,291.1 160.5,291.8 160.3,292.4 160.1,293.1 160.0,293.8 159.8,294.5 159.7,295.2 159.6,295.9 159.6,296.6 159.5,297.3 159.5,298.0 159.5,492.3 159.5,492.5 159.5,492.6 159.6,492.8 159.6,492.9 159.7,493.1 159.7,493.2 159.8,493.3 159.9,493.5 160.0,493.6 160.1,493.7 160.2,493.8 160.3,493.9 160.5,494.0 160.6,494.0 160.7,494.1 160.9,494.2 161.0,494.2 161.2,494.2 161.3,494.2 161.5,494.3" fill="white" stroke="none"/>
<polyline points="161.5,502.0 160.7,502.0 159.9,501.9 159.2,501.8 158.5,501.6 157.8,501.3 157.1,501.0 156.4,500.6 155.8,500.2 155.2,499.7 154.6,499.2 154.1,498.6 153.6,498.0 153.2,497.4 152.8,496.7 152.5,496.0 152.2,495.3 152.0,494.6 151.9,493.8 151.8,493.1 151.8,492.3" fill="none" stroke="#333" stroke-width="1.5" stroke-linecap="round"/>
<line x1="151.8" y1="492.3" x2="151.8" y2="298.0" stroke="#333" stroke-width="1.5"/>
<polyline points="151.8,298.0 151.8,297.0 151.8,296.0 151.9,295.1 152.0,294.1 152.2,293.1 152.4,292.1 152.6,291.2 152.9,290.2 153.2,289.3 153.5,288.4 153.9,287.4 154.3,286.5 154.7,285.6 155.2,284.8 155.6,283.9 156.2,283.1 156.7,282.3 157.3,281.5 157.9,280.7 158.5,279.9" fill="none" stroke="#333" stroke-width="1.5" stroke-linecap="round"/>
<polyline points="158.5,279.9 159.0,279.4 159.4,278.8 159.8,278.2 160.2,277.7 160.6,277.1 161.0,276.4 161.3,275.8 161.6,275.2 161.9,274.5 162.2,273.9 162.4,273.2 162.6,272.5 162.8,271.8 163.0,271.2 163.1,270.5 163.2,269.8 163.3,269.1 163.4,268.3 163.4,267.6 163.4,266.9" fill="none" stroke="#333" stroke-width="1.5" stroke-linecap="round"/>
<line x1="163.4" y1="266.9" x2="163.4" y2="228.1" stroke="#333" stroke-width="1.5"/>
<polyline points="163.4,228.1 163.5,225.9 163.7,223.8 164.2,221.7 164.7,219.7 165.5,217.7 166.4,215.7 167.4,213.9 168.6,212.1 169.9,210.4 171.4,208.8 172.9,207.4 174.6,206.1 176.4,204.9 178.3,203.8 180.2,202.9 182.2,202.2 184.3,201.6 186.4,201.2 188.5,201.0 190.6,200.9" fill="none" stroke="#333" stroke-width="1.5" stroke-linecap="round"/>
<line x1="190.6" y1="200.9" x2="252.8" y2="200.9" stroke="#333" stroke-width="1.5"/>
<polyline points="252.8,200.9 254.9,201.0 257.0,201.2 259.1,201.6 261.2,202.2 263.2,202.9 265.1,203.8 267.0,204.9 268.8,206.1 270.5,207.4 272.0,208.8 273.5,210.4 274.8,212.1 276.0,213.9 277.0,215.7 277.9,217.7 278.7,219.7 279.2,221.7 279.7,223.8 279.9,225.9 280.0,228.1" fill="none" stroke="#333" stroke-width="1.5" stroke-linecap="round"/>
<polyline points="280.0,228.1 280.0,228.2 280.0,228.4 280.0,228.5 280.1,228.7 280.1,228.8 280.2,229.0 280.3,229.1 280.4,229.2 280.5,229.3 280.6,229.4 280.7,229.6 280.8,229.6 280.9,229.7 281.0,229.8 281.2,229.9 281.3,229.9 281.5,230.0 281.6,230.0 281.8,230.0 281.9,230.0" fill="none" stroke="#333" stroke-width="1.5" stroke-linecap="round"/>
<line x1="281.9" y1="230.0" x2="483.4" y2="230.0" stroke="#333" stroke-width="1.5"/>
<polyline points="483.4,230.0 483.5,230.0 483.7,230.0 483.8,230.0 484.0,229.9 484.1,229.9 484.2,229.8 484.4,229.7 484.5,229.6 484.6,229.6 484.7,229.4 484.8,229.3 484.9,229.2 485.0,229.1 485.1,229.0 485.2,228.8 485.2,228.7 485.3,228.5 485.3,228.4 485.3,228.2 485.3,228.1" fill="none" stroke="#333" stroke-width="1.5" stroke-linecap="round"/>
<polyline points="485.3,228.1 485.3,226.8 485.4,225.5 485.6,224.2 485.8,222.9 486.1,221.6 486.4,220.3 486.8,219.1 487.3,217.9 487.8,216.7 488.4,215.5 489.0,214.4 489.7,213.3 490.4,212.2 491.2,211.1 492.1,210.1 492.9,209.2 493.9,208.3 494.8,207.4 495.9,206.6 496.9,205.8 498.0,205.1 499.1,204.4 500.3,203.8 501.4,203.2 502.6,202.7 503.9,202.3 505.1,201.9 506.4,201.6 507.7,201.3 509.0,201.1 510.3,201.0 511.6,200.9 512.9,200.9 514.2,200.9 515.5,201.0 516.8,201.2 518.0,201.4 519.3,201.7 520.6,202.1 521.8,202.5 523.0,203.0 524.2,203.5 525.4,204.1 526.5,204.8 527.6,205.5 528.7,206.2 529.7,207.0 530.7,207.9 531.7,208.8 532.6,209.7 533.4,210.7 534.2,211.7 535.0,212.8 535.7,213.9 536.4,215.0 537.0,216.2 537.5,217.3 538.0,218.5 538.4,219.8 538.8,221.0" fill="none" stroke="#333" stroke-width="1.5" stroke-linecap="round"/>
<line x1="538.8" y1="221.0" x2="569.0" y2="333.6" stroke="#333" stroke-width="1.5"/>
<polyline points="569.0,333.6 569.0,333.9 569.1,334.3 569.2,334.6 569.3,334.9 569.3,335.2 569.4,335.5 569.5,335.8 569.6,336.1 569.6,336.4 569.7,336.7 569.8,337.0 569.8,337.3 569.9,337.6 570.0,338.0 570.0,338.3 570.1,338.6 570.2,338.9 570.2,339.2 570.3,339.5 570.3,339.8 570.4,340.1 570.4,340.4 570.5,340.8 570.5,341.1 570.6,341.4 570.6,341.7 570.7,342.0 570.7,342.3 570.8,342.6 570.8,342.9 570.8,343.3 570.9,343.6 570.9,343.9 571.0,344.2 571.0,344.5 571.0,344.8 571.1,345.2 571.1,345.5 571.1,345.8 571.1,346.1 571.2,346.4 571.2,346.7 571.2,347.0 571.2,347.4 571.3,347.7 571.3,348.0 571.3,348.3 571.3,348.6 571.3,348.9 571.4,349.3 571.4,349.6 571.4,349.9 571.4,350.2 571.4,350.5 571.4,350.8 571.4,351.2 571.4,351.5 571.4,351.8 571.4,352.1 571.4,352.4" fill="none" stroke="#333" stroke-width="1.5" stroke-linecap="round"/>
<line x1="571.4" y1="352.4" x2="571.4" y2="449.6" stroke="#333" stroke-width="1.5"/>
<polyline points="571.4,449.6 571.4,451.1 571.3,452.6 571.1,454.1 570.8,455.6 570.4,457.0 570.0,458.5 569.5,459.9 568.9,461.3 568.3,462.7 567.6,464.0 566.8,465.3 565.9,466.5 565.0,467.7 564.0,468.9 563.0,470.0 561.9,471.0 560.7,472.0 559.5,472.9 558.3,473.7 557.0,474.5" fill="none" stroke="#333" stroke-width="1.5" stroke-linecap="round"/>
<line x1="557.0" y1="474.5" x2="506.5" y2="503.7" stroke="#333" stroke-width="1.5"/>
<polyline points="506.5,503.7 504.8,504.6 503.1,505.5 501.3,506.4 499.6,507.2 497.8,508.0 496.0,508.7 494.1,509.4 492.3,510.0 490.4,510.6 488.5,511.1 486.6,511.6 484.7,512.1 482.8,512.4 480.9,512.8 478.9,513.0 477.0,513.3 475.1,513.5 473.1,513.6 471.2,513.7 469.2,513.7" fill="none" stroke="#333" stroke-width="1.5" stroke-linecap="round"/>
<line x1="469.2" y1="513.7" x2="396.6" y2="513.7" stroke="#333" stroke-width="1.5"/>
<polyline points="396.6,513.7 396.2,513.7 395.9,513.7 395.6,513.7 395.2,513.7 394.9,513.6 394.6,513.6 394.3,513.6 393.9,513.6 393.6,513.5 393.3,513.5 393.0,513.4 392.6,513.4 392.3,513.4 392.0,513.3 391.7,513.2 391.3,513.2 391.0,513.1 390.7,513.0 390.4,513.0 390.0,512.9 389.7,512.8 389.4,512.7 389.1,512.7 388.8,512.6 388.5,512.5 388.1,512.4 387.8,512.3 387.5,512.2 387.2,512.0 386.9,511.9 386.6,511.8 386.3,511.7 386.0,511.6 385.7,511.4 385.4,511.3 385.1,511.2 384.8,511.0 384.5,510.9 384.2,510.7 383.9,510.6 383.6,510.4 383.3,510.3 383.0,510.1 382.7,510.0 382.5,509.8 382.2,509.6 381.9,509.5 381.6,509.3 381.3,509.1 381.1,508.9 380.8,508.7 380.5,508.5 380.3,508.3 380.0,508.1 379.7,507.9 379.5,507.7 379.2,507.5 379.0,507.3 378.7,507.1 378.5,506.9" fill="none" stroke="#333" stroke-width="1.5" stroke-linecap="round"/>
<polyline points="378.5,506.9 378.3,506.7 378.1,506.6 377.9,506.4 377.7,506.3 377.6,506.1 377.4,506.0 377.2,505.9 377.0,505.7 376.8,505.6 376.6,505.5 376.4,505.3 376.2,505.2 376.0,505.1 375.8,504.9 375.6,504.8 375.4,504.7 375.2,504.6 375.0,504.5 374.8,504.4 374.6,504.2 374.4,504.1 374.1,504.0 373.9,503.9 373.7,503.8 373.5,503.7 373.3,503.6 373.1,503.5 372.9,503.5 372.6,503.4 372.4,503.3 372.2,503.2 372.0,503.1 371.7,503.0 371.5,503.0 371.3,502.9 371.1,502.8 370.8,502.8 370.6,502.7 370.4,502.6 370.2,502.6 369.9,502.5 369.7,502.5 369.5,502.4 369.2,502.4 369.0,502.3 368.8,502.3 368.5,502.3 368.3,502.2 368.1,502.2 367.8,502.2 367.6,502.1 367.4,502.1 367.1,502.1 366.9,502.1 366.7,502.1 366.4,502.1 366.2,502.0 365.9,502.0 365.7,502.0 365.5,502.0" fill="none" stroke="#333" stroke-width="1.5" stroke-linecap="round"/>
<line x1="365.5" y1="502.0" x2="161.5" y2="502.0" stroke="#333" stroke-width="1.5"/>
<polyline points="161.5,494.3 161.3,494.2 161.2,494.2 161.0,494.2 160.9,494.2 160.7,494.1 160.6,494.0 160.5,494.0 160.3,493.9 160.2,493.8 160.1,493.7 160.0,493.6 159.9,493.5 159.8,493.3 159.7,493.2 159.7,493.1 159.6,492.9 159.6,492.8 159.5,492.6 159.5,492.5 159.5,492.3" fill="none" stroke="#666" stroke-width="1.0" stroke-linecap="round"/>
<line x1="159.5" y1="492.3" x2="159.5" y2="298.0" stroke="#666" stroke-width="1.0"/>
<polyline points="159.5,298.0 159.5,297.3 159.6,296.6 159.6,295.9 159.7,295.2 159.8,294.5 160.0,293.8 160.1,293.1 160.3,292.4 160.5,291.8 160.8,291.1 161.0,290.4 161.3,289.8 161.6,289.1 162.0,288.5 162.3,287.9 162.7,287.3 163.1,286.7 163.5,286.1 163.9,285.6 164.4,285.0" fill="none" stroke="#666" stroke-width="1.0" stroke-linecap="round"/>
<polyline points="164.4,285.0 165.0,284.3 165.6,283.5 166.2,282.7 166.8,281.9 167.3,281.0 167.8,280.2 168.2,279.3 168.7,278.4 169.1,277.5 169.4,276.6 169.8,275.7 170.1,274.7 170.3,273.8 170.5,272.8 170.7,271.8 170.9,270.9 171.0,269.9 171.1,268.9 171.2,267.9 171.2,266.9" fill="none" stroke="#666" stroke-width="1.0" stroke-linecap="round"/>
<line x1="171.2" y1="266.9" x2="171.2" y2="228.1" stroke="#666" stroke-width="1.0"/>
<polyline points="171.2,228.1 171.2,226.6 171.4,225.0 171.7,223.5 172.1,222.1 172.7,220.6 173.3,219.3 174.0,217.9 174.9,216.7 175.8,215.5 176.9,214.3 178.0,213.3 179.2,212.4 180.5,211.5 181.8,210.8 183.2,210.1 184.6,209.6 186.1,209.2 187.6,208.9 189.1,208.7 190.6,208.6" fill="none" stroke="#666" stroke-width="1.0" stroke-linecap="round"/>
<line x1="190.6" y1="208.6" x2="252.8" y2="208.6" stroke="#666" stroke-width="1.0"/>
<polyline points="252.8,208.6 254.3,208.7 255.8,208.9 257.3,209.2 258.8,209.6 260.2,210.1 261.6,210.8 262.9,211.5 264.2,212.4 265.4,213.3 266.5,214.3 267.6,215.5 268.5,216.7 269.4,217.9 270.1,219.3 270.7,220.6 271.3,222.1 271.7,223.5 272.0,225.0 272.2,226.6 272.2,228.1" fill="none" stroke="#666" stroke-width="1.0" stroke-linecap="round"/>
<polyline points="272.2,228.1 272.2,228.8 272.3,229.6 272.5,230.3 272.7,231.1 273.0,231.8 273.3,232.5 273.6,233.2 274.1,233.8 274.5,234.4 275.1,234.9 275.6,235.5 276.2,235.9 276.9,236.4 277.5,236.7 278.2,237.1 278.9,237.3 279.7,237.5 280.4,237.7 281.2,237.8 281.9,237.8" fill="none" stroke="#666" stroke-width="1.0" stroke-linecap="round"/>
<line x1="281.9" y1="237.8" x2="483.4" y2="237.8" stroke="#666" stroke-width="1.0"/>
<polyline points="483.4,237.8 484.1,237.8 484.9,237.7 485.6,237.5 486.4,237.3 487.1,237.1 487.8,236.7 488.4,236.4 489.1,235.9 489.7,235.5 490.2,234.9 490.7,234.4 491.2,233.8 491.6,233.2 492.0,232.5 492.3,231.8 492.6,231.1 492.8,230.3 493.0,229.6 493.0,228.8 493.1,228.1" fill="none" stroke="#666" stroke-width="1.0" stroke-linecap="round"/>
<polyline points="493.1,228.1 493.1,227.1 493.2,226.2 493.3,225.3 493.4,224.4 493.6,223.5 493.9,222.6 494.2,221.7 494.5,220.8 494.9,219.9 495.3,219.1 495.7,218.3 496.2,217.5 496.7,216.7 497.3,216.0 497.9,215.3 498.5,214.6 499.2,213.9 499.9,213.3 500.6,212.7 501.4,212.2 502.1,211.6 502.9,211.2 503.8,210.7 504.6,210.3 505.5,210.0 506.3,209.6 507.2,209.4 508.1,209.1 509.0,209.0 510.0,208.8 510.9,208.7 511.8,208.7 512.8,208.6 513.7,208.7 514.6,208.8 515.5,208.9 516.5,209.1 517.4,209.3 518.3,209.5 519.2,209.8 520.0,210.2 520.9,210.5 521.7,211.0 522.5,211.4 523.3,211.9 524.1,212.5 524.8,213.0 525.5,213.6 526.2,214.3 526.8,214.9 527.4,215.7 528.0,216.4 528.6,217.1 529.1,217.9 529.5,218.7 530.0,219.6 530.4,220.4 530.7,221.3 531.0,222.2 531.3,223.0" fill="none" stroke="#666" stroke-width="1.0" stroke-linecap="round"/>
<line x1="531.3" y1="223.0" x2="561.4" y2="335.6" stroke="#666" stroke-width="1.0"/>
<polyline points="561.4,335.6 561.5,335.9 561.6,336.2 561.7,336.5 561.7,336.7 561.8,337.0 561.9,337.3 561.9,337.6 562.0,337.8 562.1,338.1 562.1,338.4 562.2,338.7 562.2,338.9 562.3,339.2 562.4,339.5 562.4,339.8 562.5,340.1 562.5,340.3 562.6,340.6 562.6,340.9 562.7,341.2 562.7,341.4 562.8,341.7 562.8,342.0 562.9,342.3 562.9,342.6 562.9,342.8 563.0,343.1 563.0,343.4 563.1,343.7 563.1,344.0 563.1,344.2 563.2,344.5 563.2,344.8 563.2,345.1 563.3,345.4 563.3,345.6 563.3,345.9 563.4,346.2 563.4,346.5 563.4,346.8 563.4,347.1 563.5,347.3 563.5,347.6 563.5,347.9 563.5,348.2 563.5,348.5 563.5,348.7 563.6,349.0 563.6,349.3 563.6,349.6 563.6,349.9 563.6,350.2 563.6,350.4 563.6,350.7 563.6,351.0 563.6,351.3 563.6,351.6 563.7,351.9 563.7,352.1 563.7,352.4" fill="none" stroke="#666" stroke-width="1.0" stroke-linecap="round"/>
<line x1="563.7" y1="352.4" x2="563.7" y2="449.6" stroke="#666" stroke-width="1.0"/>
<polyline points="563.7,449.6 563.6,450.7 563.5,451.8 563.4,452.9 563.2,453.9 562.9,455.0 562.6,456.1 562.3,457.1 561.8,458.1 561.4,459.1 560.8,460.1 560.3,461.0 559.6,461.9 559.0,462.8 558.2,463.7 557.5,464.5 556.7,465.2 555.8,465.9 555.0,466.6 554.1,467.2 553.1,467.8" fill="none" stroke="#666" stroke-width="1.0" stroke-linecap="round"/>
<line x1="553.1" y1="467.8" x2="502.6" y2="497.0" stroke="#666" stroke-width="1.0"/>
<polyline points="502.6,497.0 501.1,497.8 499.6,498.6 498.0,499.4 496.4,500.1 494.8,500.8 493.2,501.5 491.5,502.1 489.9,502.6 488.2,503.2 486.5,503.6 484.8,504.1 483.1,504.5 481.4,504.8 479.7,505.1 477.9,505.3 476.2,505.5 474.4,505.7 472.7,505.8 470.9,505.9 469.2,505.9" fill="none" stroke="#666" stroke-width="1.0" stroke-linecap="round"/>
<line x1="469.2" y1="505.9" x2="396.6" y2="505.9" stroke="#666" stroke-width="1.0"/>
<polyline points="396.6,505.9 396.3,505.9 396.1,505.9 395.9,505.9 395.6,505.9 395.4,505.9 395.1,505.9 394.9,505.8 394.7,505.8 394.4,505.8 394.2,505.8 394.0,505.7 393.7,505.7 393.5,505.7 393.3,505.6 393.0,505.6 392.8,505.6 392.6,505.5 392.3,505.5 392.1,505.4 391.9,505.4 391.7,505.3 391.4,505.2 391.2,505.2 391.0,505.1 390.7,505.0 390.5,505.0 390.3,504.9 390.1,504.8 389.8,504.7 389.6,504.7 389.4,504.6 389.2,504.5 389.0,504.4 388.7,504.3 388.5,504.2 388.3,504.1 388.1,504.0 387.9,503.9 387.7,503.8 387.5,503.7 387.3,503.6 387.1,503.5 386.8,503.4 386.6,503.2 386.4,503.1 386.2,503.0 386.0,502.9 385.8,502.7 385.6,502.6 385.4,502.5 385.2,502.4 385.1,502.2 384.9,502.1 384.7,501.9 384.5,501.8 384.3,501.6 384.1,501.5 383.9,501.3 383.8,501.2 383.6,501.0" fill="none" stroke="#666" stroke-width="1.0" stroke-linecap="round"/>
<polyline points="383.6,501.0 383.3,500.8 383.1,500.6 382.8,500.4 382.6,500.2 382.3,500.0 382.0,499.8 381.8,499.6 381.5,499.4 381.2,499.2 381.0,499.0 380.7,498.8 380.4,498.7 380.1,498.5 379.9,498.3 379.6,498.1 379.3,498.0 379.0,497.8 378.7,497.7 378.4,497.5 378.1,497.3 377.9,497.2 377.6,497.0 377.3,496.9 377.0,496.8 376.7,496.6 376.4,496.5 376.1,496.4 375.8,496.2 375.4,496.1 375.1,496.0 374.8,495.9 374.5,495.8 374.2,495.7 373.9,495.6 373.6,495.5 373.3,495.4 373.0,495.3 372.6,495.2 372.3,495.1 372.0,495.0 371.7,495.0 371.4,494.9 371.0,494.8 370.7,494.8 370.4,494.7 370.1,494.6 369.7,494.6 369.4,494.5 369.1,494.5 368.8,494.5 368.4,494.4 368.1,494.4 367.8,494.4 367.4,494.3 367.1,494.3 366.8,494.3 366.5,494.3 366.1,494.3 365.8,494.3 365.5,494.3" fill="none" stroke="#666" stroke-width="1.0" stroke-linecap="round"/>
<line x1="365.5" y1="494.3" x2="161.5" y2="494.3" stroke="#666" stroke-width="1.0"/>
<polygon points="159.5,360.2 563.7,360.2 563.7,354.4 159.5,354.4" fill="rgba(160,160,160,0.35)" stroke="none"/>
<line x1="159.5" y1="360.2" x2="563.7" y2="360.2" stroke="#666" stroke-width="1.0"/>
<line x1="563.7" y1="354.4" x2="159.5" y2="354.4" stroke="#666" stroke-width="1.0"/>
<text x="361.6" y="352.8" text-anchor="middle" font-family="Arial" font-size="8" fill="#666">IW1</text>
<polygon points="235.3,354.4 241.1,354.4 241.1,208.6 235.3,208.6" fill="rgba(160,160,160,0.35)" stroke="none"/>
<line x1="235.3" y1="354.4" x2="235.3" y2="208.6" stroke="#666" stroke-width="1.0"/>
<line x1="241.1" y1="354.4" x2="241.1" y2="208.6" stroke="#666" stroke-width="1.0"/>
<text x="234.2" y="285.0" text-anchor="middle" font-family="Arial" font-size="8" fill="#666" transform="rotate(-90,234.2,285.0)">IW2</text>
<polygon points="170.3,273.7 235.3,273.7 235.3,272.8 170.6,272.8" fill="rgba(160,160,160,0.35)" stroke="none"/>
<line x1="170.3" y1="273.7" x2="235.3" y2="273.7" stroke="#666" stroke-width="1.0"/>
<line x1="170.6" y1="272.8" x2="235.3" y2="272.8" stroke="#666" stroke-width="1.0"/>
<text x="202.8" y="268.7" text-anchor="middle" font-family="Arial" font-size="8" fill="#666">IW6</text>
<line x1="383.6" y1="354.4" x2="383.6" y2="237.8" stroke="#999" stroke-width="0.8"/>
<line x1="379.6" y1="354.4" x2="387.6" y2="354.4" stroke="#999" stroke-width="0.8"/>
<line x1="379.6" y1="237.8" x2="387.6" y2="237.8" stroke="#999" stroke-width="0.8"/>
<text x="380.6" y="299.1" text-anchor="middle" font-family="Arial" font-size="8" fill="#999" transform="rotate(-90,380.6,299.1)">10' 0"</text>
<line x1="241.1" y1="277.3" x2="545.8" y2="277.3" stroke="#999" stroke-width="0.8"/>
<line x1="241.1" y1="273.3" x2="241.1" y2="281.3" stroke="#999" stroke-width="0.8"/>
<line x1="545.8" y1="273.3" x2="545.8" y2="281.3" stroke="#999" stroke-width="0.8"/>
<text x="393.5" y="274.3" text-anchor="middle" font-family="Arial" font-size="8" fill="#999">26' 1.64"</text>
<rect x="165.4" y="461.2" width="34.0" height="29.1" fill="rgba(100,150,200,0.2)" stroke="#4682B4" stroke-width="0.8"/>
<text x="182.4" y="478.8" text-anchor="middle" font-family="Arial" font-size="7" fill="#4682B4">DRYER</text>
<rect x="165.4" y="431.1" width="34.0" height="29.1" fill="rgba(100,150,200,0.2)" stroke="#4682B4" stroke-width="0.8"/>
<text x="182.4" y="448.7" text-anchor="middle" font-family="Arial" font-size="7" fill="#4682B4">WASHER</text>
<path d="M 234.3,494.3 L 257.6,494.3 L 257.6,424.3 L 243.1,424.3 A 8.7 8.7 0 0 0 234.3,433.1 Z" fill="rgba(100,150,200,0.2)" stroke="#4682B4" stroke-width="0.8"/>
<text x="246.0" y="459.3" text-anchor="middle" font-family="Arial" font-size="7" fill="#4682B4" letter-spacing="0.5" transform="rotate(-90,246.0,459.3)">COUNTER</text>
<circle cx="254.7" cy="222.6" r="13.6" fill="rgba(100,150,200,0.2)" stroke="#4682B4" stroke-width="0.8"/>
<text x="254.7" y="225.6" text-anchor="middle" font-family="Arial" font-size="7" fill="#4682B4">WH</text>
<polygon points="257.6,494.3 260.6,494.3 260.6,424.3 289.7,424.3 289.7,421.4 257.6,421.4" fill="rgba(160,160,160,0.35)" stroke="#666" stroke-width="0.8"/>
<polygon points="289.7,494.3 293.6,494.3 293.6,360.2 289.7,360.2" fill="rgba(160,160,160,0.35)" stroke="#666" stroke-width="0.8"/>
<text x="287.6" y="430.7" text-anchor="middle" font-family="Arial" font-size="8" fill="#666" transform="rotate(-90,287.6,430.7)">IW3</text>
<polygon points="429.6,505.9 433.5,505.9 433.5,360.2 429.6,360.2" fill="rgba(160,160,160,0.35)" stroke="#666" stroke-width="0.8"/>
<text x="427.5" y="436.6" text-anchor="middle" font-family="Arial" font-size="8" fill="#666" transform="rotate(-90,427.5,436.6)">IW4</text>
<polygon points="433.5,433.1 465.5,433.1 465.5,505.9 462.6,505.9 462.6,436.0 433.5,436.0" fill="rgba(160,160,160,0.35)" stroke="#666" stroke-width="0.8"/>
<polygon points="433.5,392.3 563.7,392.3 563.7,389.3 433.5,389.3" fill="rgba(160,160,160,0.35)" stroke="none"/>
<line x1="433.5" y1="392.3" x2="563.7" y2="392.3" stroke="#666" stroke-width="1.0"/>
<line x1="433.5" y1="389.3" x2="563.7" y2="389.3" stroke="#666" stroke-width="1.0"/>
<text x="498.6" y="386.3" text-anchor="middle" font-family="Arial" font-size="8" fill="#666">IW5</text>
<rect x="324.7" y="401.0" width="73.8" height="91.3" fill="rgba(100,150,200,0.2)" stroke="#4682B4" stroke-width="0.8"/>
<text x="361.6" y="473.9" text-anchor="middle" font-family="Arial" font-size="7" fill="#4682B4">KING BED</text>
<text x="361.6" y="430.2" text-anchor="middle" font-family="Arial" font-size="8" fill="#666">BEDROOM</text>
<text x="498.6" y="422.9" text-anchor="middle" font-family="Arial" font-size="8" fill="#666">OFFICE</text>
<line x1="293.6" y1="460.7" x2="429.6" y2="460.7" stroke="#999" stroke-width="0.8"/>
<line x1="293.6" y1="456.7" x2="293.6" y2="464.7" stroke="#999" stroke-width="0.8"/>
<line x1="429.6" y1="456.7" x2="429.6" y2="464.7" stroke="#999" stroke-width="0.8"/>
<text x="361.6" y="457.7" text-anchor="middle" font-family="Arial" font-size="8" fill="#999">11' 8"</text>
<line x1="316.9" y1="494.3" x2="316.9" y2="360.2" stroke="#999" stroke-width="0.8"/>
<line x1="312.9" y1="494.3" x2="320.9" y2="494.3" stroke="#999" stroke-width="0.8"/>
<line x1="312.9" y1="360.2" x2="320.9" y2="360.2" stroke="#999" stroke-width="0.8"/>
<text x="313.9" y="430.2" text-anchor="middle" font-family="Arial" font-size="8" fill="#999" transform="rotate(-90,313.9,430.2)">11' 6"</text>
<line x1="275.1" y1="494.3" x2="275.1" y2="424.3" stroke="#999" stroke-width="0.8"/>
<line x1="271.1" y1="494.3" x2="279.1" y2="494.3" stroke="#999" stroke-width="0.8"/>
<line x1="271.1" y1="424.3" x2="279.1" y2="424.3" stroke="#999" stroke-width="0.8"/>
<text x="272.1" y="462.3" text-anchor="middle" font-family="Arial" font-size="8" fill="#999" transform="rotate(-90,272.1,462.3)">CLOSET 6' 0"</text>
<line x1="448.0" y1="505.9" x2="448.0" y2="436.0" stroke="#999" stroke-width="0.8"/>
<line x1="444.0" y1="505.9" x2="452.0" y2="505.9" stroke="#999" stroke-width="0.8"/>
<line x1="444.0" y1="436.0" x2="452.0" y2="436.0" stroke="#999" stroke-width="0.8"/>
<text x="445.0" y="473.9" text-anchor="middle" font-family="Arial" font-size="8" fill="#999" transform="rotate(-90,445.0,473.9)">CLOSET 6' 0"</text>
<line x1="159.5" y1="459.3" x2="257.6" y2="459.3" stroke="#999" stroke-width="0.8"/>
<line x1="159.5" y1="455.3" x2="159.5" y2="463.3" stroke="#999" stroke-width="0.8"/>
<line x1="257.6" y1="455.3" x2="257.6" y2="463.3" stroke="#999" stroke-width="0.8"/>
<text x="208.6" y="456.3" text-anchor="middle" font-family="Arial" font-size="8" fill="#999">8' 5"</text>
<line x1="465.5" y1="449.6" x2="563.7" y2="449.6" stroke="#999" stroke-width="0.8"/>
<line x1="465.5" y1="445.6" x2="465.5" y2="453.6" stroke="#999" stroke-width="0.8"/>
<line x1="563.7" y1="445.6" x2="563.7" y2="453.6" stroke="#999" stroke-width="0.8"/>
<text x="514.6" y="446.6" text-anchor="middle" font-family="Arial" font-size="8" fill="#999">8' 5"</text>
<line x1="433.5" y1="374.8" x2="563.7" y2="374.8" stroke="#999" stroke-width="0.8"/>
<line x1="433.5" y1="370.8" x2="433.5" y2="378.8" stroke="#999" stroke-width="0.8"/>
<line x1="563.7" y1="370.8" x2="563.7" y2="378.8" stroke="#999" stroke-width="0.8"/>
<text x="498.6" y="371.8" text-anchor="middle" font-family="Arial" font-size="8" fill="#999">STORAGE 11' 2"</text>
<line x1="159.5" y1="409.7" x2="289.7" y2="409.7" stroke="#999" stroke-width="0.8"/>
<line x1="159.5" y1="405.7" x2="159.5" y2="413.7" stroke="#999" stroke-width="0.8"/>
<line x1="289.7" y1="405.7" x2="289.7" y2="413.7" stroke="#999" stroke-width="0.8"/>
<text x="224.6" y="406.7" text-anchor="middle" font-family="Arial" font-size="8" fill="#999">11' 2"</text>
<line x1="159.5" y1="298.0" x2="235.3" y2="298.0" stroke="#999" stroke-width="0.8"/>
<line x1="159.5" y1="294.0" x2="159.5" y2="302.0" stroke="#999" stroke-width="0.8"/>
<line x1="235.3" y1="294.0" x2="235.3" y2="302.0" stroke="#999" stroke-width="0.8"/>
<text x="197.4" y="295.0" text-anchor="middle" font-family="Arial" font-size="8" fill="#999">6' 6"</text>
<line x1="171.2" y1="228.1" x2="235.3" y2="228.1" stroke="#999" stroke-width="0.8"/>
<line x1="171.2" y1="224.1" x2="171.2" y2="232.1" stroke="#999" stroke-width="0.8"/>
<line x1="235.3" y1="224.1" x2="235.3" y2="232.1" stroke="#999" stroke-width="0.8"/>
<text x="203.2" y="225.1" text-anchor="middle" font-family="Arial" font-size="8" fill="#999">5' 6"</text>
<line x1="469.2" y1="392.3" x2="469.2" y2="505.9" stroke="#999" stroke-width="0.8"/>
<line x1="465.2" y1="392.3" x2="473.2" y2="392.3" stroke="#999" stroke-width="0.8"/>
<line x1="465.2" y1="505.9" x2="473.2" y2="505.9" stroke="#999" stroke-width="0.8"/>
<text x="466.2" y="452.1" text-anchor="middle" font-family="Arial" font-size="8" fill="#999" transform="rotate(-90,466.2,452.1)">9' 9"</text>
<line x1="202.3" y1="272.8" x2="202.3" y2="208.6" stroke="#999" stroke-width="0.8"/>
<line x1="198.3" y1="272.8" x2="206.3" y2="272.8" stroke="#999" stroke-width="0.8"/>
<line x1="198.3" y1="208.6" x2="206.3" y2="208.6" stroke="#999" stroke-width="0.8"/>
<text x="199.3" y="243.7" text-anchor="middle" font-family="Arial" font-size="8" fill="#999" transform="rotate(-90,199.3,243.7)">5' 6"</text>
<line x1="202.3" y1="354.4" x2="202.3" y2="273.7" stroke="#999" stroke-width="0.8"/>
<line x1="198.3" y1="354.4" x2="206.3" y2="354.4" stroke="#999" stroke-width="0.8"/>
<line x1="198.3" y1="273.7" x2="206.3" y2="273.7" stroke="#999" stroke-width="0.8"/>
<text x="199.3" y="317.0" text-anchor="middle" font-family="Arial" font-size="8" fill="#999" transform="rotate(-90,199.3,317.0)">6' 11"</text>
<line x1="120.3" y1="502.0" x2="120.3" y2="200.9" stroke="#999" stroke-width="0.8"/>
<line x1="116.3" y1="502.0" x2="124.3" y2="502.0" stroke="#999" stroke-width="0.8"/>
<line x1="116.3" y1="200.9" x2="124.3" y2="200.9" stroke="#999" stroke-width="0.8"/>
<text x="117.3" y="354.5" text-anchor="middle" font-family="Arial" font-size="8" fill="#999" transform="rotate(-90,117.3,354.5)">25' 10"</text>
<line x1="280.0" y1="189.2" x2="485.3" y2="189.2" stroke="#999" stroke-width="0.8"/>
<line x1="280.0" y1="185.2" x2="280.0" y2="193.2" stroke="#999" stroke-width="0.8"/>
<line x1="485.3" y1="185.2" x2="485.3" y2="193.2" stroke="#999" stroke-width="0.8"/>
<text x="382.6" y="186.2" text-anchor="middle" font-family="Arial" font-size="8" fill="#999">17' 7.35"</text>
<line x1="151.8" y1="548.7" x2="571.4" y2="548.7" stroke="#999" stroke-width="0.8"/>
<line x1="151.8" y1="544.7" x2="151.8" y2="552.7" stroke="#999" stroke-width="0.8"/>
<line x1="571.4" y1="544.7" x2="571.4" y2="552.7" stroke="#999" stroke-width="0.8"/>
<text x="361.6" y="545.7" text-anchor="middle" font-family="Arial" font-size="8" fill="#999">36' 0"</text>
<line x1="414.0" y1="505.9" x2="414.0" y2="360.2" stroke="#999" stroke-width="0.8"/>
<line x1="410.0" y1="505.9" x2="418.0" y2="505.9" stroke="#999" stroke-width="0.8"/>
<line x1="410.0" y1="360.2" x2="418.0" y2="360.2" stroke="#999" stroke-width="0.8"/>
<text x="411.0" y="436.1" text-anchor="middle" font-family="Arial" font-size="8" fill="#999" transform="rotate(-90,411.0,436.1)">12' 6"</text>
<polygon points="436.7,237.8 479.5,237.8 479.5,230.0 436.7,230.0" fill="rgb(220,235,255)" stroke="#4682B4" stroke-width="1.0"/>
<text x="458.1" y="236.9" text-anchor="middle" font-family="Arial" font-size="7" fill="#4682B4">O1</text>
<polygon points="163.4,263.0 163.4,232.0 171.2,232.0 171.2,263.0" fill="rgb(220,235,255)" stroke="#4682B4" stroke-width="1.0"/>
<text x="167.3" y="247.5" text-anchor="middle" dominant-baseline="central" font-family="Arial" font-size="7" fill="#4682B4" transform="rotate(-90,167.3,247.5)">O2</text>
<polygon points="209.1,208.6 217.8,208.6 217.8,200.9 209.1,200.9" fill="rgb(220,235,255)" stroke="#4682B4" stroke-width="1.0"/>
<text x="213.4" y="207.8" text-anchor="middle" font-family="Arial" font-size="7" fill="#4682B4">O3</text>
<polygon points="571.4,433.1 571.4,408.8 563.7,408.8 563.7,433.1" fill="rgb(220,235,255)" stroke="#4682B4" stroke-width="1.0"/>
<text x="567.5" y="420.9" text-anchor="middle" dominant-baseline="central" font-family="Arial" font-size="7" fill="#4682B4" transform="rotate(-90,567.5,420.9)">O4</text>
<polygon points="401.9,513.7 426.2,513.7 426.2,505.9 401.9,505.9" fill="rgb(220,235,255)" stroke="#4682B4" stroke-width="1.0"/>
<text x="414.0" y="512.8" text-anchor="middle" font-family="Arial" font-size="7" fill="#4682B4">O5</text>
<polygon points="297.0,502.0 321.3,502.0 321.3,494.3 297.0,494.3" fill="rgb(220,235,255)" stroke="#4682B4" stroke-width="1.0"/>
<text x="309.1" y="501.1" text-anchor="middle" font-family="Arial" font-size="7" fill="#4682B4">O6</text>
<polygon points="204.7,502.0 229.0,502.0 229.0,494.3 204.7,494.3" fill="rgb(220,235,255)" stroke="#4682B4" stroke-width="1.0"/>
<text x="216.8" y="501.1" text-anchor="middle" font-family="Arial" font-size="7" fill="#4682B4">O7</text>
<polygon points="151.8,408.8 151.8,384.5 159.5,384.5 159.5,408.8" fill="rgb(220,235,255)" stroke="#4682B4" stroke-width="1.0"/>
<text x="155.6" y="396.6" text-anchor="middle" dominant-baseline="central" font-family="Arial" font-size="7" fill="#4682B4" transform="rotate(-90,155.6,396.6)">O8</text>
<polygon points="151.8,330.1 151.8,305.8 159.5,305.8 159.5,330.1" fill="rgb(220,235,255)" stroke="#4682B4" stroke-width="1.0"/>
<text x="155.6" y="317.9" text-anchor="middle" dominant-baseline="central" font-family="Arial" font-size="7" fill="#4682B4" transform="rotate(-90,155.6,317.9)">O9</text>
<polygon points="289.7,237.8 359.6,237.8 359.6,230.0 289.7,230.0" fill="rgb(220,235,255)" stroke="#4682B4" stroke-width="1.0"/>
<text x="324.7" y="236.9" text-anchor="middle" font-family="Arial" font-size="7" fill="#4682B4">O10</text>
<polygon points="544.8,243.6 562.9,311.1 555.4,313.1 537.3,245.6" fill="rgb(220,235,255)" stroke="#4682B4" stroke-width="1.0"/>
<text x="550.1" y="278.3" text-anchor="middle" dominant-baseline="central" font-family="Arial" font-size="7" fill="#4682B4" transform="rotate(75.0,550.1,278.3)">O11</text>
<circle cx="161.5" cy="502.0" r="1.25" fill="#333"/>
<text x="161.5" y="512.0" text-anchor="middle" font-family="Arial" font-size="9" font-weight="bold" fill="#333">F0</text>
<circle cx="151.8" cy="492.3" r="1.25" fill="#333"/>
<text x="143.8" y="492.3" text-anchor="end" dominant-baseline="central" font-family="Arial" font-size="9" font-weight="bold" fill="#333">F1</text>
<circle cx="151.8" cy="298.0" r="1.25" fill="#333"/>
<text x="143.8" y="298.0" text-anchor="end" dominant-baseline="central" font-family="Arial" font-size="9" font-weight="bold" fill="#333">F2</text>
<circle cx="158.5" cy="279.9" r="1.25" fill="#333"/>
<text x="148.5" y="279.9" text-anchor="end" dominant-baseline="central" font-family="Arial" font-size="9" font-weight="bold" fill="#333">F3</text>
<circle cx="163.4" cy="266.9" r="1.25" fill="#333"/>
<text x="155.4" y="266.9" text-anchor="end" dominant-baseline="central" font-family="Arial" font-size="9" font-weight="bold" fill="#333">F4</text>
<circle cx="163.4" cy="228.1" r="1.25" fill="#333"/>
<text x="155.4" y="228.1" text-anchor="end" dominant-baseline="central" font-family="Arial" font-size="9" font-weight="bold" fill="#333">F5</text>
<circle cx="190.6" cy="200.9" r="1.25" fill="#333"/>
<text x="190.6" y="194.9" text-anchor="middle" font-family="Arial" font-size="9" font-weight="bold" fill="#333">F6</text>
<circle cx="252.8" cy="200.9" r="1.25" fill="#333"/>
<text x="252.8" y="194.9" text-anchor="middle" font-family="Arial" font-size="9" font-weight="bold" fill="#333">F7</text>
<circle cx="280.0" cy="228.1" r="1.25" fill="#333"/>
<text x="272.0" y="228.1" text-anchor="end" dominant-baseline="central" font-family="Arial" font-size="9" font-weight="bold" fill="#333">F8</text>
<circle cx="281.9" cy="230.0" r="1.25" fill="#333"/>
<text x="281.9" y="247.0" text-anchor="middle" font-family="Arial" font-size="9" font-weight="bold" fill="#333">F9</text>
<circle cx="483.4" cy="230.0" r="1.25" fill="#333"/>
<text x="483.4" y="247.0" text-anchor="middle" font-family="Arial" font-size="9" font-weight="bold" fill="#333">F10</text>
<circle cx="485.3" cy="228.1" r="1.25" fill="#333"/>
<text x="493.3" y="228.1" text-anchor="start" dominant-baseline="central" font-family="Arial" font-size="9" font-weight="bold" fill="#333">F11</text>
<circle cx="538.8" cy="221.0" r="1.25" fill="#333"/>
<text x="546.8" y="221.0" text-anchor="start" dominant-baseline="central" font-family="Arial" font-size="9" font-weight="bold" fill="#333">F12</text>
<circle cx="569.0" cy="333.6" r="1.25" fill="#333"/>
<text x="577.0" y="333.6" text-anchor="start" dominant-baseline="central" font-family="Arial" font-size="9" font-weight="bold" fill="#333">F13</text>
<circle cx="571.4" cy="352.4" r="1.25" fill="#333"/>
<text x="581.4" y="352.4" text-anchor="start" dominant-baseline="central" font-family="Arial" font-size="9" font-weight="bold" fill="#333">F14</text>
<circle cx="571.4" cy="449.6" r="1.25" fill="#333"/>
<text x="579.4" y="449.6" text-anchor="start" dominant-baseline="central" font-family="Arial" font-size="9" font-weight="bold" fill="#333">F15</text>
<circle cx="557.0" cy="474.5" r="1.25" fill="#333"/>
<text x="565.0" y="478.5" text-anchor="start" font-family="Arial" font-size="9" font-weight="bold" fill="#333">F16</text>
<circle cx="506.5" cy="503.7" r="1.25" fill="#333"/>
<text x="506.5" y="516.7" text-anchor="middle" font-family="Arial" font-size="9" font-weight="bold" fill="#333">F17</text>
<circle cx="469.2" cy="513.7" r="1.25" fill="#333"/>
<text x="469.2" y="525.7" text-anchor="middle" font-family="Arial" font-size="9" font-weight="bold" fill="#333">F18</text>
<circle cx="396.6" cy="513.7" r="1.25" fill="#333"/>
<text x="396.6" y="525.7" text-anchor="middle" font-family="Arial" font-size="9" font-weight="bold" fill="#333">F19</text>
<circle cx="378.5" cy="506.9" r="1.25" fill="#333"/>
<text x="378.5" y="519.9" text-anchor="middle" font-family="Arial" font-size="9" font-weight="bold" fill="#333">F20</text>
<circle cx="365.5" cy="502.0" r="1.25" fill="#333"/>
<text x="365.5" y="512.0" text-anchor="middle" font-family="Arial" font-size="9" font-weight="bold" fill="#333">F21</text>
<line x1="646.4" y1="296.0" x2="646.4" y2="260.0" stroke="#333" stroke-width="2" marker-end="url(#ah)"/>
<text x="646.4" y="254.0" text-anchor="middle" font-family="Arial" font-size="13" font-weight="bold">N</text>
<rect x="581.4" y="147.0" width="130" height="92" fill="white" stroke="#333" stroke-width="1"/>
<text x="646.4" y="161.0" text-anchor="middle" font-family="Arial" font-size="11" font-weight="bold" fill="#333">739.24 sq ft</text>
<text x="646.4" y="173.0" text-anchor="middle" font-family="Arial" font-size="8" fill="#666">Interior area</text>
<text x="646.4" y="187.0" text-anchor="middle" font-family="Arial" font-size="11" font-weight="bold" fill="#333">856.35 sq ft</text>
<text x="646.4" y="199.0" text-anchor="middle" font-family="Arial" font-size="8" fill="#666">Exterior area</text>
<text x="646.4" y="211.0" text-anchor="middle" font-family="Arial" font-size="8" fill="#666">Scale 1:72.0 1&#8243; = 6' 0"</text>
<text x="646.4" y="223.0" text-anchor="middle" font-family="Arial" font-size="7.5" fill="#999">Generated 2026-02-13 09:00:44</text>
<text x="646.4" y="233.0" text-anchor="middle" font-family="Arial" font-size="7.5" fill="#999">from v0.1-2-g1afe0b7</text>
</svg>