<svg xmlns="http://www.w3.org/2000/svg" width="792" height="612" viewBox="28.65 97.90 769.40 594.54">
<rect x="28.65" y="97.90" width="769.40" height="594.54" fill="white"/>
<defs>
  <marker id="ah" markerWidth="8" markerHeight="6" refX="8" refY="3" orient="auto"><polygon points="0 0, 8 3, 0 6" fill="#333"/></marker>
</defs>
<text x="361.6" y="151.9" text-anchor="middle" font-family="Arial" font-size="14" font-weight="bold">Parent Suite</text>
<polygon points="161.5,502.0 160.7,502.0 159.9,501.9 159.2,501.8 158.5,501.6 157.8,501.3 157.1,501.0 156.4,500.6 155.8,500.2 155.2,499.7 154.6,499.2 154.1,498.6 153.6,498.0 153.2,497.4 152.8,496.7 152.5,496.0 152.2,495.3 152.0,494.6 151.9,493.8 151.8,493.1 151.8,492.3 151.8,298.0 151.8,297.0 151.8,296.0 151.9,295.1 152.0,294.1 152.2,293.1 152.4,292.1 152.6,291.2 152.9,290.2 153.2,289.3 153.5,288.4 153.9,287.4 154.3,286.5 154.7,285.6 155.2,284.8 155.6,283.9 156.2,283.1 156.7,282.3 157.3,281.5 157.9,280.7 158.5,279.9 159.0,279.4 159.4,278.8 159.8,278.2 160.2,277.7 160.6,277.1 161.0,276.4 161.3,275.8 161.6,275.2 161.9,274.5 162.2,273.9 162.4,273.2 162.6,272.5 162.8,271.8 163.0,271.2 163.1,270.5 163.2,269.8 163.3,269.1 163.4,268.3 163.4,267.6 163.4,266.9 163.4,228.1 163.5,225.9 163.7,223.8 164.2,221.7 164.7,219.7 165.5,217.7 166.4,215.7 167.4,213.9 168.6,212.1 169.9,210.4 171.4,208.8 172.9,207.4 174.6,206.1 176.4,204.9 178.3,203.8 180.2,202.9 182.2,202.2 184.3,201.6 186.4,201.2 188.5,201.0 190.6,200.9 252.8,200.9 254.9,201.0 257.0,201.2 259.1,201.6 261.2,202.2 263.2,202.9 265.1,203.8 267.0,204.9 268.8,206.1 270.5,207.4 272.0,208.8 273.5,210.4 274.8,212.1 276.0,213.9 277.0,215.7 277.9,217.7 278.7,219.7 279.2,221.7 279.7,223.8 279.9,225.9 280.0,228.1 280.0,228.2 280.0,228.4 280.0,228.5 280.1,228.7 280.1,228.8 280.2,229.0 280.3,229.1 280.4,229.2 280.5,229.3 280.6,229.4 280.7,229.6 280.8,229.6 280.9,229.7 281.0,229.8 281.2,229.9 281.3,229.9 281.5,230.0 281.6,230.0 281.8,230.0 281.9,230.0 478.2,230.0 478.7,230.0 479.3,229.9 479.9,229.8 480.5,229.7 481.0,229.5 481.5,229.3 482.1,229.0 482.6,228.8 483.1,228.4 483.5,228.1 483.9,227.7 484.4,227.3 484.7,226.8 485.1,226.4 485.4,225.9 485.7,225.4 485.9,224.8 486.1,224.3 486.3,223.7 486.4,223.2 486.6,222.0 486.9,220.8 487.3,219.6 487.7,218.5 488.1,217.3 488.7,216.2 489.2,215.1 489.8,214.1 490.5,213.0 491.2,212.0 491.9,211.1 492.7,210.1 493.5,209.2 494.4,208.4 495.3,207.5 496.2,206.8 497.2,206.0 498.2,205.3 499.3,204.7 500.3,204.1 501.4,203.5 502.5,203.0 503.7,202.6 504.8,202.2 506.0,201.8 507.2,201.5 508.4,201.3 509.6,201.1 510.8,201.0 512.0,200.9 513.3,200.9 514.5,200.9 515.7,201.0 516.9,201.1 518.1,201.3 519.3,201.6 520.5,201.9 521.7,202.3 522.8,202.7 524.0,203.1 525.1,203.6 526.2,204.2 527.2,204.8 528.3,205.5 529.3,206.2 530.2,206.9 531.2,207.7 532.1,208.5 532.9,209.4 533.7,210.3 534.5,211.3 535.3,212.2 535.9,213.2 536.6,214.3 537.2,215.4 537.7,216.4 538.2,217.6 538.7,218.7 539.1,219.9 539.4,221.0 568.3,329.0 568.4,329.4 568.5,329.8 568.6,330.2 568.7,330.5 568.8,330.9 568.9,331.3 569.0,331.7 569.1,332.1 569.2,332.5 569.3,332.8 569.4,333.2 569.4,333.6 569.5,334.0 569.6,334.4 569.7,334.8 569.8,335.2 569.8,335.5 569.9,335.9 570.0,336.3 570.1,336.7 570.1,337.1 570.2,337.5 570.2,337.9 570.3,338.3 570.4,338.7 570.4,339.0 570.5,339.4 570.5,339.8 570.6,340.2 570.7,340.6 570.7,341.0 570.8,341.4 570.8,341.8 570.8,342.2 570.9,342.6 570.9,343.0 571.0,343.4 571.0,343.8 571.0,344.1 571.1,344.5 571.1,344.9 571.1,345.3 571.2,345.7 571.2,346.1 571.2,346.5 571.3,346.9 571.3,347.3 571.3,347.7 571.3,348.1 571.3,348.5 571.4,348.9 571.4,349.3 571.4,349.7 571.4,350.1 571.4,350.4 571.4,350.8 571.4,351.2 571.4,351.6 571.4,352.0 571.4,352.4 571.4,449.6 571.4,451.1 571.3,452.6 571.1,454.1 570.8,455.6 570.4,457.0 570.0,458.5 569.5,459.9 568.9,461.3 568.3,462.7 567.6,464.0 566.8,465.3 565.9,466.5 565.0,467.7 564.0,468.9 563.0,470.0 561.9,471.0 560.7,472.0 559.5,472.9 558.3,473.7 557.0,474.5 506.5,503.7 504.8,504.6 503.1,505.5 501.3,506.4 499.6,507.2 497.8,508.0 496.0,508.7 494.1,509.4 492.3,510.0 490.4,510.6 488.5,511.1 486.6,511.6 484.7,512.1 482.8,512.4 480.9,512.8 478.9,513.0 477.0,513.3 475.1,513.5 473.1,513.6 471.2,513.7 469.2,513.7 396.6,513.7 396.2,513.7 395.9,513.7 395.6,513.7 395.2,513.7 394.9,513.6 394.6,513.6 394.3,513.6 393.9,513.6 393.6,513.5 393.3,513.5 393.0,513.4 392.6,513.4 392.3,513.4 392.0,513.3 391.7,513.2 391.3,513.2 391.0,513.1 390.7,513.0 390.4,513.0 390.0,512.9 389.7,512.8 389.4,512.7 389.1,512.7 388.8,512.6 388.5,512.5 388.1,512.4 387.8,512.3 387.5,512.2 387.2,512.0 386.9,511.9 386.6,511.8 386.3,511.7 386.0,511.6 385.7,511.4 385.4,511.3 385.1,511.2 384.8,511.0 384.5,510.9 384.2,510.7 383.9,510.6 383.6,510.4 383.3,510.3 383.0,510.1 382.7,510.0 382.5,509.8 382.2,509.6 381.9,509.5 381.6,509.3 381.3,509.1 381.1,508.9 380.8,508.7 380.5,508.5 380.3,508.3 380.0,508.1 379.7,507.9 379.5,507.7 379.2,507.5 379.0,507.3 378.7,507.1 378.5,506.9 378.3,506.7 378.1,506.6 377.9,506.4 377.7,506.3 377.6,506.1 377.4,506.0 377.2,505.9 377.0,505.7 376.8,505.6 376.6,505.5 376.4,505.3 376.2,505.2 376.0,505.1 375.8,504.9 375.6,504.8 375.4,504.7 375.2,504.6 375.0,504.5 374.8,504.4 374.6,504.2 374.4,504.1 374.1,504.0 373.9,503.9 373.7,503.8 373.5,503.7 373.3,503.6 373.1,503.5 372.9,503.5 372.6,503.4 372.4,503.3 372.2,503.2 372.0,503.1 371.7,503.0 371.5,503.0 371.3,502.9 371.1,502.8 370.8,502.8 370.6,502.7 370.4,502.6 370.2,502.6 369.9,502.5 369.7,502.5 369.5,502.4 369.2,502.4 369.0,502.3 368.8,502.3 368.5,502.3 368.3,502.2 368.1,502.2 367.8,502.2 367.6,502.1 367.4,502.1 367.1,502.1 366.9,502.1 366.7,502.1 366.4,502.1 366.2,502.0 365.9,502.0 365.7,502.0 365.5,502.0" fill="rgba(160,160,160,0.35)" stroke="none"/>
<polygon points="365.5,494.3 365.8,494.3 366.1,494.3 366.5,494.3 366.8,494.3 367.1,494.3 367.4,494.3 367.8,494.4 368.1,494.4 368.4,494.4 368.8,494.5 369.1,494.5 369.4,494.5 369.7,494.6 370.1,494.6 370.4,494.7 370.7,494.8 371.0,494.8 371.4,494.9 371.7,495.0 372.0,495.0 372.3,495.1 372.6,495.2 373.0,495.3 373.3,495.4 373.6,495.5 373.9,495.6 374.2,495.7 374.5,495.8 374.8,495.9 375.1,496.0 375.4,496.1 375.8,496.2 376.1,496.4 376.4,496.5 376.7,496.6 377.0,496.8 377.3,496.9 377.6,497.0 377.9,497.2 378.1,497.3 378.4,497.5 378.7,497.7 379.0,497.8 379.3,498.0 379.6,498.1 379.9,498.3 380.1,498.5 380.4,498.7 380.7,498.8 381.0,499.0 381.2,499.2 381.5,499.4 381.8,499.6 382.0,499.8 382.3,500.0 382.6,500.2 382.8,500.4 383.1,500.6 383.3,500.8 383.6,501.0 383.8,501.2 383.9,501.3 384.1,501.5 384.3,501.6 384.5,501.8 384.7,501.9 384.9,502.1 385.1,502.2 385.2,502.4 385.4,502.5 385.6,502.6 385.8,502.7 386.0,502.9 386.2,503.0 386.4,503.1 386.6,503.2 386.8,503.4 387.1,503.5 387.3,503.6 387.5,503.7 387.7,503.8 387.9,503.9 388.1,504.0 388.3,504.1 388.5,504.2 388.7,504.3 389.0,504.4 389.2,504.5 389.4,504.6 389.6,504.7 389.8,504.7 390.1,504.8 390.3,504.9 390.5,505.0 390.7,505.0 391.0,505.1 391.2,505.2 391.4,505.2 391.7,505.3 391.9,505.4 392.1,505.4 392.3,505.5 392.6,505.5 392.8,505.6 393.0,505.6 393.3,505.6 393.5,505.7 393.7,505.7 394.0,505.7 394.2,505.8 394.4,505.8 394.7,505.8 394.9,505.8 395.1,505.9 395.4,505.9 395.6,505.9 395.9,505.9 396.1,505.9 396.3,505.9 396.6,505.9 469.2,505.9 470.9,505.9 472.7,505.8 474.4,505.7 476.2,505.5 477.9,505.3 479.7,505.1 481.4,504.8 483.1,504.5 484.8,504.1 486.5,503.6 488.2,503.2 489.9,502.6 491.5,502.1 493.2,501.5 494.8,500.8 496.4,500.1 498.0,499.4 499.6,498.6 501.1,497.8 502.6,497.0 553.1,467.8 554.1,467.2 555.0,466.6 555.8,465.9 556.7,465.2 557.5,464.5 558.2,463.7 559.0,462.8 559.6,461.9 560.3,461.0 560.8,460.1 561.4,459.1 561.8,458.1 562.3,457.1 562.6,456.1 562.9,455.0 563.2,453.9 563.4,452.9 563.5,451.8 563.6,450.7 563.7,449.6 563.7,352.4 563.7,352.1 563.7,351.7 563.6,351.3 563.6,351.0 563.6,350.6 563.6,350.3 563.6,349.9 563.6,349.5 563.6,349.2 563.6,348.8 563.6,348.5 563.5,348.1 563.5,347.7 563.5,347.4 563.5,347.0 563.5,346.7 563.4,346.3 563.4,345.9 563.4,345.6 563.3,345.2 563.3,344.9 563.3,344.5 563.2,344.1 563.2,343.8 563.2,343.4 563.1,343.1 563.1,342.7 563.0,342.3 563.0,342.0 562.9,341.6 562.9,341.3 562.8,340.9 562.8,340.6 562.7,340.2 562.7,339.8 562.6,339.5 562.6,339.1 562.5,338.8 562.5,338.4 562.4,338.1 562.3,337.7 562.3,337.4 562.2,337.0 562.1,336.6 562.1,336.3 562.0,335.9 561.9,335.6 561.8,335.2 561.8,334.9 561.7,334.5 561.6,334.2 561.5,333.8 561.5,333.5 561.4,333.1 561.3,332.8 561.2,332.4 561.1,332.1 561.0,331.7 560.9,331.4 560.8,331.0 531.9,223.0 531.7,222.2 531.4,221.4 531.1,220.6 530.7,219.8 530.3,219.0 529.9,218.2 529.4,217.5 528.9,216.8 528.4,216.1 527.9,215.4 527.3,214.7 526.7,214.1 526.0,213.5 525.3,213.0 524.7,212.4 523.9,211.9 523.2,211.5 522.4,211.0 521.7,210.6 520.9,210.3 520.1,209.9 519.2,209.6 518.4,209.4 517.6,209.2 516.7,209.0 515.8,208.8 515.0,208.7 514.1,208.7 513.2,208.6 512.4,208.7 511.5,208.7 510.6,208.8 509.8,208.9 508.9,209.1 508.0,209.3 507.2,209.6 506.4,209.9 505.6,210.2 504.8,210.5 504.0,210.9 503.2,211.4 502.5,211.8 501.8,212.3 501.1,212.8 500.4,213.4 499.8,214.0 499.1,214.6 498.5,215.2 498.0,215.9 497.5,216.6 497.0,217.3 496.5,218.1 496.1,218.8 495.7,219.6 495.3,220.4 495.0,221.2 494.7,222.0 494.4,222.9 494.2,223.7 494.0,224.6 493.8,225.7 493.5,226.7 493.1,227.8 492.6,228.8 492.1,229.8 491.5,230.7 490.8,231.6 490.1,232.5 489.3,233.3 488.5,234.1 487.6,234.7 486.7,235.4 485.7,235.9 484.7,236.4 483.7,236.8 482.6,237.2 481.5,237.4 480.4,237.6 479.3,237.8 478.2,237.8 281.9,237.8 281.2,237.8 280.4,237.7 279.7,237.5 278.9,237.3 278.2,237.1 277.5,236.7 276.9,236.4 276.2,235.9 275.6,235.5 275.1,234.9 274.5,234.4 274.1,233.8 273.6,233.2 273.3,232.5 273.0,231.8 272.7,231.1 272.5,230.3 272.3,229.6 272.2,228.8 272.2,228.1 272.2,226.6 272.0,225.0 271.7,223.5 271.3,222.1 270.7,220.6 270.1,219.3 269.4,217.9 268.5,216.7 267.6,215.5 266.5,214.3 265.4,213.3 264.2,212.4 262.9,211.5 261.6,210.8 260.2,210.1 258.8,209.6 257.3,209.2 255.8,208.9 254.3,208.7 252.8,208.6 190.6,208.6 189.1,208.7 187.6,208.9 186.1,209.2 184.6,209.6 183.2,210.1 181.8,210.8 180.5,211.5 179.2,212.4 178.0,213.3 176.9,214.3 175.8,215.5 174.9,216.7 174.0,217.9 173.3,219.3 172.7,220.6 172.1,222.1 171.7,223.5 171.4,225.0 171.2,226.6 171.2,228.1 171.2,266.9 171.2,267.9 171.1,268.9 171.0,269.9 170.9,270.9 170.7,271.8 170.5,272.8 170.3,273.8 170.1,274.7 169.8,275.7 169.4,276.6 169.1,277.5 168.7,278.4 168.2,279.3 167.8,280.2 167.3,281.0 166.8,281.9 166.2,282.7 165.6,283.5 165.0,284.3 164.4,285.0 163.9,285.6 163.5,286.1 163.1,286.7 162.7,287.3 162.3,287.9 162.0,288.5 161.6,289.1 161.3,289.8 161.0,290.4 160.8,291.1 160.5,291.8 160.3,292.4 160.1,293.1 160.0,293.8 159.8,294.5 159.7,295.2 159.6,295.9 159.6,296.6 159.5,297.3 159.5,298.0 159.5,492.3 159.5,492.5 159.5,492.6 159.6,492.8 159.6,492.9 159.7,493.1 159.7,493.2 159.8,493.3 159.9,493.5 160.0,493.6 160.1,493.7 160.2,493.8 160.3,493.9 160.5,494.0 160.6,494.0 160.7,494.1 160.9,494.2 161.0,494.2 161.2,494.2 161.3,494.2 161.5,494.3" fill="white" stroke="none"/>
<polyline points="161.5,502.0 160.7,502.0 159.9,501.9 159.2,501.8 158.5,501.6 157.8,501.3 157.1,501.0 156.4,500.6 155.8,500.2 155.2,499.7 154.6,499.2 154.1,498.6 153.6,498.0 153.2,497.4 152.8,496.7 152.5,496.0 152.2,495.3 152.0,494.6 151.9,493.8 151.8,493.1 151.8,492.3" fill="none" stroke="#333" stroke-width="1.5" stroke-linecap="round"/>
<line x1="151.8" y1="492.3" x2="151.8" y2="298.0" stroke="#333" stroke-width="1.5"/>
<polyline points="151.8,298.0 151.8,297.0 151.8,296.0 151.9,295.1 152.0,294.1 152.2,293.1 152.4,292.1 152.6,291.2 152.9,290.2 153.2,289.3 153.5,288.4 153.9,287.4 154.3,286.5 154.7,285.6 155.2,284.8 155.6,283.9 156.2,283.1 156.7,282.3 157.3,281.5 157.9,280.7 158.5,279.9" fill="none" stroke="#333" stroke-width="1.5" stroke-linecap="round"/>
<polyline points="158.5,279.9 159.0,279.4 159.4,278.8 159.8,278.2 160.2,277.7 160.6,277.1 161.0,276.4 161.3,275.8 161.6,275.2 161.9,274.5 162.2,273.9 162.4,273.2 162.6,272.5 162.8,271.8 163.0,271.2 163.1,270.5 163.2,269.8 163.3,269.1 163.4,268.3 163.4,267.6 163.4,266.9" fill="none" stroke="#333" stroke-width="1.5" stroke-linecap="round"/>
<line x1="163.4" y1="266.9" x2="163.4" y2="228.1" stroke="#333" stroke-width="1.5"/>
<polyline points="163.4,228.1 163.5,225.9 163.7,223.8 164.2,221.7 164.7,219.7 165.5,217.7 166.4,215.7 167.4,213.9 168.6,212.1 169.9,210.4 171.4,208.8 172.9,207.4 174.6,206.1 176.4,204.9 178.3,203.8 180.2,202.9 182.2,202.2 184.3,201.6 186.4,201.2 188.5,201.0 190.6,200.9" fill="none" stroke="#333" stroke-width="1.5" stroke-linecap="round"/>
<line x1="190.6" y1="200.9" x2="252.8" y2="200.9" stroke="#333" stroke-width="1.5"/>
<polyline points="252.8,200.9 254.9,201.0 257.0,201.2 259.1,201.6 261.2,202.2 263.2,202.9 265.1,203.8 267.0,204.9 268.8,206.1 270.5,207.4 272.0,208.8 273.5,210.4 274.8,212.1 276.0,213.9 277.0,215.7 277.9,217.7 278.7,219.7 279.2,221.7 279.7,223.8 279.9,225.9 280.0,228.1" fill="none" stroke="#333" stroke-width="1.5" stroke-linecap="round"/>
<polyline points="280.0,228.1 280.0,228.2 280.0,228.4 280.0,228.5 280.1,228.7 280.1,228.8 280.2,229.0 280.3,229.1 280.4,229.2 280.5,229.3 280.6,229.4 280.7,229.6 280.8,229.6 280.9,229.7 281.0,229.8 281.2,229.9 281.3,229.9 281.5,230.0 281.6,230.0 281.8,230.0 281.9,230.0" fill="none" stroke="#333" stroke-width="1.5" stroke-linecap="round"/>
<line x1="281.9" y1="230.0" x2="478.2" y2="230.0" stroke="#333" stroke-width="1.5"/>
<polyline points="478.2,230.0 478.7,230.0 479.3,229.9 479.9,229.8 480.5,229.7 481.0,229.5 481.5,229.3 482.1,229.0 482.6,228.8 483.1,228.4 483.5,228.1 483.9,227.7 484.4,227.3 484.7,226.8 485.1,226.4 485.4,225.9 485.7,225.4 485.9,224.8 486.1,224.3 486.3,223.7 486.4,223.2" fill="none" stroke="#333" stroke-width="1.5" stroke-linecap="round"/>
<polyline points="486.4,223.2 486.6,222.0 486.9,220.8 487.3,219.6 487.7,218.5 488.1,217.3 488.7,216.2 489.2,215.1 489.8,214.1 490.5,213.0 491.2,212.0 491.9,211.1 492.7,210.1 493.5,209.2 494.4,208.4 495.3,207.5 496.2,206.8 497.2,206.0 498.2,205.3 499.3,204.7 500.3,204.1 501.4,203.5 502.5,203.0 503.7,202.6 504.8,202.2 506.0,201.8 507.2,201.5 508.4,201.3 509.6,201.1 510.8,201.0 512.0,200.9 513.3,200.9 514.5,200.9 515.7,201.0 516.9,201.1 518.1,201.3 519.3,201.6 520.5,201.9 521.7,202.3 522.8,202.7 524.0,203.1 525.1,203.6 526.2,204.2 527.2,204.8 528.3,205.5 529.3,206.2 530.2,206.9 531.2,207.7 532.1,208.5 532.9,209.4 533.7,210.3 534.5,211.3 535.3,212.2 535.9,213.2 536.6,214.3 537.2,215.4 537.7,216.4 538.2,217.6 538.7,218.7 539.1,219.9 539.4,221.0" fill="none" stroke="#333" stroke-width="1.5" stroke-linecap="round"/>
<line x1="539.4" y1="221.0" x2="568.3" y2="329.0" stroke="#333" stroke-width="1.5"/>
<polyline points="568.3,329.0 568.4,329.4 568.5,329.8 568.6,330.2 568.7,330.5 568.8,330.9 568.9,331.3 569.0,331.7 569.1,332.1 569.2,332.5 569.3,332.8 569.4,333.2 569.4,333.6 569.5,334.0 569.6,334.4 569.7,334.8 569.8,335.2 569.8,335.5 569.9,335.9 570.0,336.3 570.1,336.7 570.1,337.1 570.2,337.5 570.2,337.9 570.3,338.3 570.4,338.7 570.4,339.0 570.5,339.4 570.5,339.8 570.6,340.2 570.7,340.6 570.7,341.0 570.8,341.4 570.8,341.8 570.8,342.2 570.9,342.6 570.9,343.0 571.0,343.4 571.0,343.8 571.0,344.1 571.1,344.5 571.1,344.9 571.1,345.3 571.2,345.7 571.2,346.1 571.2,346.5 571.3,346.9 571.3,347.3 571.3,347.7 571.3,348.1 571.3,348.5 571.4,348.9 571.4,349.3 571.4,349.7 571.4,350.1 571.4,350.4 571.4,350.8 571.4,351.2 571.4,351.6 571.4,352.0 571.4,352.4" fill="none" stroke="#333" stroke-width="1.5" stroke-linecap="round"/>
<line x1="571.4" y1="352.4" x2="571.4" y2="449.6" stroke="#333" stroke-width="1.5"/>
<polyline points="571.4,449.6 571.4,451.1 571.3,452.6 571.1,454.1 570.8,455.6 570.4,457.0 570.0,458.5 569.5,459.9 568.9,461.3 568.3,462.7 567.6,464.0 566.8,465.3 565.9,466.5 565.0,467.7 564.0,468.9 563.0,470.0 561.9,471.0 560.7,472.0 559.5,472.9 558.3,473.7 557.0,474.5" fill="none" stroke="#333" stroke-width="1.5" stroke-linecap="round"/>
<line x1="557.0" y1="474.5" x2="506.5" y2="503.7" stroke="#333" stroke-width="1.5"/>
<polyline points="506.5,503.7 504.8,504.6 503.1,505.5 501.3,506.4 499.6,507.2 497.8,508.0 496.0,508.7 494.1,509.4 492.3,510.0 490.4,510.6 488.5,511.1 486.6,511.6 484.7,512.1 482.8,512.4 480.9,512.8 478.9,513.0 477.0,513.3 475.1,513.5 473.1,513.6 471.2,513.7 469.2,513.7" fill="none" stroke="#333" stroke-width="1.5" stroke-linecap="round"/>
<line x1="469.2" y1="513.7" x2="396.6" y2="513.7" stroke="#333" stroke-width="1.5"/>
<polyline points="396.6,513.7 396.2,513.7 395.9,513.7 395.6,513.7 395.2,513.7 394.9,513.6 394.6,513.6 394.3,513.6 393.9,513.6 393.6,513.5 393.3,513.5 393.0,513.4 392.6,513.4 392.3,513.4 392.0,513.3 391.7,513.2 391.3,513.2 391.0,513.1 390.7,513.0 390.4,513.0 390.0,512.9 389.7,512.8 389.4,512.7 389.1,512.7 388.8,512.6 388.5,512.5 388.1,512.4 387.8,512.3 387.5,512.2 387.2,512.0 386.9,511.9 386.6,511.8 386.3,511.7 386.0,511.6 385.7,511.4 385.4,511.3 385.1,511.2 384.8,511.0 384.5,510.9 384.2,510.7 383.9,510.6 383.6,510.4 383.3,510.3 383.0,510.1 382.7,510.0 382.5,509.8 382.2,509.6 381.9,509.5 381.6,509.3 381.3,509.1 381.1,508.9 380.8,508.7 380.5,508.5 380.3,508.3 380.0,508.1 379.7,507.9 379.5,507.7 379.2,507.5 379.0,507.3 378.7,507.1 378.5,506.9" fill="none" stroke="#333" stroke-width="1.5" stroke-linecap="round"/>
<polyline points="378.5,506.9 378.3,506.7 378.1,506.6 377.9,506.4 377.7,506.3 377.6,506.1 377.4,506.0 377.2,505.9 377.0,505.7 376.8,505.6 376.6,505.5 376.4,505.3 376.2,505.2 376.0,505.1 375.8,504.9 375.6,504.8 375.4,504.7 375.2,504.6 375.0,504.5 374.8,504.4 374.6,504.2 374.4,504.1 374.1,504.0 373.9,503.9 373.7,503.8 373.5,503.7 373.3,503.6 373.1,503.5 372.9,503.5 372.6,503.4 372.4,503.3 372.2,503.2 372.0,503.1 371.7,503.0 371.5,503.0 371.3,502.9 371.1,502.8 370.8,502.8 370.6,502.7 370.4,502.6 370.2,502.6 369.9,502.5 369.7,502.5 369.5,502.4 369.2,502.4 369.0,502.3 368.8,502.3 368.5,502.3 368.3,502.2 368.1,502.2 367.8,502.2 367.6,502.1 367.4,502.1 367.1,502.1 366.9,502.1 366.7,502.1 366.4,502.1 366.2,502.0 365.9,502.0 365.7,502.0 365.5,502.0" fill="none" stroke="#333" stroke-width="1.5" stroke-linecap="round"/>
<line x1="365.5" y1="502.0" x2="161.5" y2="502.0" stroke="#333" stroke-width="1.5"/>
<polyline points="161.5,494.3 161.3,494.2 161.2,494.2 161.0,494.2 160.9,494.2 160.7,494.1 160.6,494.0 160.5,494.0 160.3,493.9 160.2,493.8 160.1,493.7 160.0,493.6 159.9,493.5 159.8,493.3 159.7,493.2 159.7,493.1 159.6,492.9 159.6,492.8 159.5,492.6 159.5,492.5 159.5,492.3" fill="none" stroke="#666" stroke-width="1.0" stroke-linecap="round"/>
<line x1="159.5" y1="492.3" x2="159.5" y2="298.0" stroke="#666" stroke-width="1.0"/>
<polyline points="159.5,298.0 159.5,297.3 159.6,296.6 159.6,295.9 159.7,295.2 159.8,294.5 160.0,293.8 160.1,293.1 160.3,292.4 160.5,291.8 160.8,291.1 161.0,290.4 161.3,289.8 161.6,289.1 162.0,288.5 162.3,287.9 162.7,287.3 163.1,286.7 163.5,286.1 163.9,285.6 164.4,285.0" fill="none" stroke="#666" stroke-width="1.0" stroke-linecap="round"/>
<polyline points="164.4,285.0 165.0,284.3 165.6,283.5 166.2,282.7 166.8,281.9 167.3,281.0 167.8,280.2 168.2,279.3 168.7,278.4 169.1,277.5 169.4,276.6 169.8,275.7 170.1,274.7 170.3,273.8 170.5,272.8 170.7,271.8 170.9,270.9 171.0,269.9 171.1,268.9 171.2,267.9 171.2,266.9" fill="none" stroke="#666" stroke-width="1.0" stroke-linecap="round"/>
<line x1="171.2" y1="266.9" x2="171.2" y2="228.1" stroke="#666" stroke-width="1.0"/>
<polyline points="171.2,228.1 171.2,226.6 171.4,225.0 171.7,223.5 172.1,222.1 172.7,220.6 173.3,219.3 174.0,217.9 174.9,216.7 175.8,215.5 176.9,214.3 178.0,213.3 179.2,212.4 180.5,211.5 181.8,210.8 183.2,210.1 184.6,209.6 186.1,209.2 187.6,208.9 189.1,208.7 190.6,208.6" fill="none" stroke="#666" stroke-width="1.0" stroke-linecap="round"/>
<line x1="190.6" y1="208.6" x2="252.8" y2="208.6" stroke="#666" stroke-width="1.0"/>
<polyline points="252.8,208.6 254.3,208.7 255.8,208.9 257.3,209.2 258.8,209.6 260.2,210.1 261.6,210.8 262.9,211.5 264.2,212.4 265.4,213.3 266.5,214.3 267.6,215.5 268.5,216.7 269.4,217.9 270.1,219.3 270.7,220.6 271.3,222.1 271.7,223.5 272.0,225.0 272.2,226.6 272.2,228.1" fill="none" stroke="#666" stroke-width="1.0" stroke-linecap="round"/>
<polyline points="272.2,228.1 272.2,228.8 272.3,229.6 272.5,230.3 272.7,231.1 273.0,231.8 273.3,232.5 273.6,233.2 274.1,233.8 274.5,234.4 275.1,234.9 275.6,235.5 276.2,235.9 276.9,236.4 277.5,236.7 278.2,237.1 278.9,237.3 279.7,237.5 280.4,237.7 281.2,237.8 281.9,237.8" fill="none" stroke="#666" stroke-width="1.0" stroke-linecap="round"/>
<line x1="281.9" y1="237.8" x2="478.2" y2="237.8" stroke="#666" stroke-width="1.0"/>
<polyline points="478.2,237.8 479.3,237.8 480.4,237.6 481.5,237.4 482.6,237.2 483.7,236.8 484.7,236.4 485.7,235.9 486.7,235.4 487.6,234.7 488.5,234.1 489.3,233.3 490.1,232.5 490.8,231.6 491.5,230.7 492.1,229.8 492.6,228.8 493.1,227.8 493.5,226.7 493.8,225.7 494.0,224.6" fill="none" stroke="#666" stroke-width="1.0" stroke-linecap="round"/>
<polyline points="494.0,224.6 494.2,223.7 494.4,222.9 494.7,222.0 495.0,221.2 495.3,220.4 495.7,219.6 496.1,218.8 496.5,218.1 497.0,217.3 497.5,216.6 498.0,215.9 498.5,215.2 499.1,214.6 499.8,214.0 500.4,213.4 501.1,212.8 501.8,212.3 502.5,211.8 503.2,211.4 504.0,210.9 504.8,210.5 505.6,210.2 506.4,209.9 507.2,209.6 508.0,209.3 508.9,209.1 509.8,208.9 510.6,208.8 511.5,208.7 512.4,208.7 513.2,208.6 514.1,208.7 515.0,208.7 515.8,208.8 516.7,209.0 517.6,209.2 518.4,209.4 519.2,209.6 520.1,209.9 520.9,210.3 521.7,210.6 522.4,211.0 523.2,211.5 523.9,211.9 524.7,212.4 525.3,213.0 526.0,213.5 526.7,214.1 527.3,214.7 527.9,215.4 528.4,216.1 528.9,216.8 529.4,217.5 529.9,218.2 530.3,219.0 530.7,219.8 531.1,220.6 531.4,221.4 531.7,222.2 531.9,223.0" fill="none" stroke="#666" stroke-width="1.0" stroke-linecap="round"/>
<line x1="531.9" y1="223.0" x2="560.8" y2="331.0" stroke="#666" stroke-width="1.0"/>
<polyline points="560.8,331.0 560.9,331.4 561.0,331.7 561.1,332.1 561.2,332.4 561.3,332.8 561.4,333.1 561.5,333.5 561.5,333.8 561.6,334.2 561.7,334.5 561.8,334.9 561.8,335.2 561.9,335.6 562.0,335.9 562.1,336.3 562.1,336.6 562.2,337.0 562.3,337.4 562.3,337.7 562.4,338.1 562.5,338.4 562.5,338.8 562.6,339.1 562.6,339.5 562.7,339.8 562.7,340.2 562.8,340.6 562.8,340.9 562.9,341.3 562.9,341.6 563.0,342.0 563.0,342.3 563.1,342.7 563.1,343.1 563.2,343.4 563.2,343.8 563.2,344.1 563.3,344.5 563.3,344.9 563.3,345.2 563.4,345.6 563.4,345.9 563.4,346.3 563.5,346.7 563.5,347.0 563.5,347.4 563.5,347.7 563.5,348.1 563.6,348.5 563.6,348.8 563.6,349.2 563.6,349.5 563.6,349.9 563.6,350.3 563.6,350.6 563.6,351.0 563.6,351.3 563.7,351.7 563.7,352.1 563.7,352.4" fill="none" stroke="#666" stroke-width="1.0" stroke-linecap="round"/>
<line x1="563.7" y1="352.4" x2="563.7" y2="449.6" stroke="#666" stroke-width="1.0"/>
<polyline points="563.7,449.6 563.6,450.7 563.5,451.8 563.4,452.9 563.2,453.9 562.9,455.0 562.6,456.1 562.3,457.1 561.8,458.1 561.4,459.1 560.8,460.1 560.3,461.0 559.6,461.9 559.0,462.8 558.2,463.7 557.5,464.5 556.7,465.2 555.8,465.9 555.0,466.6 554.1,467.2 553.1,467.8" fill="none" stroke="#666" stroke-width="1.0" stroke-linecap="round"/>
<line x1="553.1" y1="467.8" x2="502.6" y2="497.0" stroke="#666" stroke-width="1.0"/>
<polyline points="502.6,497.0 501.1,497.8 499.6,498.6 498.0,499.4 496.4,500.1 494.8,500.8 493.2,501.5 491.5,502.1 489.9,502.6 488.2,503.2 486.5,503.6 484.8,504.1 483.1,504.5 481.4,504.8 479.7,505.1 477.9,505.3 476.2,505.5 474.4,505.7 472.7,505.8 470.9,505.9 469.2,505.9" fill="none" stroke="#666" stroke-width="1.0" stroke-linecap="round"/>
<line x1="469.2" y1="505.9" x2="396.6" y2="505.9" stroke="#666" stroke-width="1.0"/>
<polyline points="396.6,505.9 396.3,505.9 396.1,505.9 395.9,505.9 395.6,505.9 395.4,505.9 395.1,505.9 394.9,505.8 394.7,505.8 394.4,505.8 394.2,505.8 394.0,505.7 393.7,505.7 393.5,505.7 393.3,505.6 393.0,505.6 392.8,505.6 392.6,505.5 392.3,505.5 392.1,505.4 391.9,505.4 391.7,505.3 391.4,505.2 391.2,505.2 391.0,505.1 390.7,505.0 390.5,505.0 390.3,504.9 390.1,504.8 389.8,504.7 389.6,504.7 389.4,504.6 389.2,504.5 389.0,504.4 388.7,504.3 388.5,504.2 388.3,504.1 388.1,504.0 387.9,503.9 387.7,503.8 387.5,503.7 387.3,503.6 387.1,503.5 386.8,503.4 386.6,503.2 386.4,503.1 386.2,503.0 386.0,502.9 385.8,502.7 385.6,502.6 385.4,502.5 385.2,502.4 385.1,502.2 384.9,502.1 384.7,501.9 384.5,501.8 384.3,501.6 384.1,501.5 383.9,501.3 383.8,501.2 383.6,501.0" fill="none" stroke="#666" stroke-width="1.0" stroke-linecap="round"/>
<polyline points="383.6,501.0 383.3,500.8 383.1,500.6 382.8,500.4 382.6,500.2 382.3,500.0 382.0,499.8 381.8,499.6 381.5,499.4 381.2,499.2 381.0,499.0 380.7,498.8 380.4,498.7 380.1,498.5 379.9,498.3 379.6,498.1 379.3,498.0 379.0,497.8 378.7,497.7 378.4,497.5 378.1,497.3 377.9,497.2 377.6,497.0 377.3,496.9 377.0,496.8 376.7,496.6 376.4,496.5 376.1,496.4 375.8,496.2 375.4,496.1 375.1,496.0 374.8,495.9 374.5,495.8 374.2,495.7 373.9,495.6 373.6,495.5 373.3,495.4 373.0,495.3 372.6,495.2 372.3,495.1 372.0,495.0 371.7,495.0 371.4,494.9 371.0,494.8 370.7,494.8 370.4,494.7 370.1,494.6 369.7,494.6 369.4,494.5 369.1,494.5 368.8,494.5 368.4,494.4 368.1,494.4 367.8,494.4 367.4,494.3 367.1,494.3 366.8,494.3 366.5,494.3 366.1,494.3 365.8,494.3 365.5,494.3" fill="none" stroke="#666" stroke-width="1.0" stroke-linecap="round"/>
<line x1="365.5" y1="494.3" x2="161.5" y2="494.3" stroke="#666" stroke-width="1.0"/>
<polygon points="159.5,360.2 356.7,360.2 356.7,354.4 159.5,354.4" fill="rgba(160,160,160,0.35)" stroke="none"/>
<polygon points="393.6,360.2 563.7,360.2 563.7,354.4 393.6,354.4" fill="rgba(160,160,160,0.35)" stroke="none"/>
<line x1="159.5" y1="359.7" x2="356.7" y2="359.7" stroke="#666" stroke-width="1.0"/>
<line x1="393.6" y1="359.7" x2="563.7" y2="359.7" stroke="#666" stroke-width="1.0"/>
<line x1="159.5" y1="354.9" x2="356.7" y2="354.9" stroke="#666" stroke-width="1.0"/>
<line x1="393.6" y1="354.9" x2="563.7" y2="354.9" stroke="#666" stroke-width="1.0"/>
<rect x="356.7" y="354.4" width="1.0" height="5.8" fill="darkred" stroke="none"/>
<rect x="392.7" y="354.4" width="1.0" height="5.8" fill="darkred" stroke="none"/>
<polygon points="235.3,354.4 241.1,354.4 241.1,316.5 235.3,316.5" fill="rgba(160,160,160,0.35)" stroke="none"/>
<polygon points="235.3,279.6 241.1,279.6 241.1,208.6 235.3,208.6" fill="rgba(160,160,160,0.35)" stroke="none"/>
<line x1="235.8" y1="354.4" x2="235.8" y2="316.5" stroke="#666" stroke-width="1.0"/>
<line x1="235.8" y1="279.6" x2="235.8" y2="208.6" stroke="#666" stroke-width="1.0"/>
<line x1="240.6" y1="354.4" x2="240.6" y2="316.5" stroke="#666" stroke-width="1.0"/>
<line x1="240.6" y1="279.6" x2="240.6" y2="208.6" stroke="#666" stroke-width="1.0"/>
<rect x="235.3" y="315.5" width="5.8" height="1.0" fill="darkred" stroke="none"/>
<rect x="235.3" y="279.6" width="5.8" height="1.0" fill="darkred" stroke="none"/>
<polygon points="170.3,273.7 195.5,273.7 195.5,272.8 170.6,272.8" fill="rgba(160,160,160,0.35)" stroke="none"/>
<polygon points="232.4,273.7 235.3,273.7 235.3,272.8 232.4,272.8" fill="rgba(160,160,160,0.35)" stroke="none"/>
<line x1="170.3" y1="273.2" x2="195.5" y2="273.2" stroke="#666" stroke-width="1.0"/>
<line x1="232.4" y1="273.2" x2="235.3" y2="273.2" stroke="#666" stroke-width="1.0"/>
<line x1="170.6" y1="273.3" x2="195.5" y2="273.3" stroke="#666" stroke-width="1.0"/>
<line x1="232.4" y1="273.3" x2="235.3" y2="273.3" stroke="#666" stroke-width="1.0"/>
<rect x="195.5" y="272.8" width="1.0" height="1.0" fill="darkred" stroke="none"/>
<rect x="231.4" y="272.8" width="1.0" height="1.0" fill="darkred" stroke="none"/>
<line x1="384.2" y1="354.4" x2="384.2" y2="237.8" stroke="#999" stroke-width="0.8"/>
<line x1="380.2" y1="354.4" x2="388.2" y2="354.4" stroke="#999" stroke-width="0.8"/>
<line x1="380.2" y1="237.8" x2="388.2" y2="237.8" stroke="#999" stroke-width="0.8"/>
<text x="381.2" y="299.1" text-anchor="middle" font-family="Arial" font-size="8" fill="#999" transform="rotate(-90,381.2,299.1)">10' 0"</text>
<line x1="241.1" y1="275.0" x2="545.8" y2="275.0" stroke="#999" stroke-width="0.8"/>
<line x1="241.1" y1="271.0" x2="241.1" y2="279.0" stroke="#999" stroke-width="0.8"/>
<line x1="545.8" y1="271.0" x2="545.8" y2="279.0" stroke="#999" stroke-width="0.8"/>
<text x="346.8" y="272.0" text-anchor="middle" font-family="Arial" font-size="8" fill="#999">26' 1.65"</text>
<rect x="165.4" y="461.2" width="34.0" height="29.1" fill="rgba(100,150,200,0.2)" stroke="#4682B4" stroke-width="0.8"/>
<text x="182.4" y="478.8" text-anchor="middle" font-family="Arial" font-size="7" fill="#4682B4">DRYER</text>
<rect x="165.4" y="431.1" width="34.0" height="29.1" fill="rgba(100,150,200,0.2)" stroke="#4682B4" stroke-width="0.8"/>
<text x="182.4" y="448.7" text-anchor="middle" font-family="Arial" font-size="7" fill="#4682B4">WASHER</text>
<path d="M 234.3,494.3 L 257.6,494.3 L 257.6,424.3 L 243.1,424.3 A 8.7 8.7 0 0 0 234.3,433.1 Z" fill="rgba(100,150,200,0.2)" stroke="#4682B4" stroke-width="0.8"/>
<text x="246.0" y="459.3" text-anchor="middle" font-family="Arial" font-size="7" fill="#4682B4" letter-spacing="0.5" transform="rotate(-90,246.0,459.3)">COUNTER</text>
<circle cx="254.7" cy="222.6" r="13.6" fill="rgba(100,150,200,0.2)" stroke="#4682B4" stroke-width="0.8"/>
<text x="254.7" y="225.6" text-anchor="middle" font-family="Arial" font-size="7" fill="#4682B4">WH</text>
<polygon points="175.1,360.2 175.1,368.0 179.1,368.0 178.2,368.7 177.5,369.6 177.0,370.6 176.6,371.7 176.5,372.8 175.7,381.1 175.9,382.4 176.2,383.6 176.8,384.8 177.7,385.8 178.7,386.6 179.8,387.2 181.1,387.6 182.4,387.7 183.6,387.6 184.9,387.2 186.0,386.6 187.0,385.8 187.9,384.8 188.5,383.6 188.9,382.4 189.0,381.1 188.2,372.8 188.1,371.7 187.7,370.6 187.2,369.6 186.5,368.7 185.6,368.0 185.6,368.0 189.6,368.0 189.6,360.2" fill="rgba(100,150,200,0.2)" stroke="#4682B4" stroke-width="0.8"/>
<text x="182.4" y="379.8" text-anchor="middle" font-family="Arial" font-size="7" fill="#4682B4">TOILET</text>
<ellipse cx="216.8" cy="368.9" rx="11.7" ry="8.7" fill="rgba(100,150,200,0.2)" stroke="#4682B4" stroke-width="0.8"/>
<text x="216.8" y="371.9" text-anchor="middle" font-family="Arial" font-size="7" fill="#4682B4">SINK</text>
<polygon points="175.1,354.4 175.1,346.6 179.1,346.6 178.2,345.9 177.5,345.0 177.0,344.0 176.6,342.9 176.5,341.7 175.7,333.5 175.9,332.2 176.2,330.9 176.8,329.8 177.7,328.8 178.7,328.0 179.8,327.4 181.1,327.0 182.4,326.9 183.6,327.0 184.9,327.4 186.0,328.0 187.0,328.8 187.9,329.8 188.5,330.9 188.9,332.2 189.0,333.5 188.2,341.7 188.1,342.9 187.7,344.0 187.2,345.0 186.5,345.9 185.6,346.6 185.6,346.6 189.6,346.6 189.6,354.4" fill="rgba(100,150,200,0.2)" stroke="#4682B4" stroke-width="0.8"/>
<text x="182.4" y="340.7" text-anchor="middle" font-family="Arial" font-size="7" fill="#4682B4">TOILET</text>
<ellipse cx="216.8" cy="345.6" rx="11.7" ry="8.7" fill="rgba(100,150,200,0.2)" stroke="#4682B4" stroke-width="0.8"/>
<text x="216.8" y="348.6" text-anchor="middle" font-family="Arial" font-size="7" fill="#4682B4">SINK</text>
<a href="https://www.webstaurantstore.com/advance-tabco-fs1181824l-45-fabricated-one-compartment-sink-with-24-left-drainboard-18-x-18-x-14-bowl/109FS1L241818.html" target="_blank">
<rect x="309.1" y="237.8" width="43.7" height="23.3" fill="rgba(100,150,200,0.2)" stroke="#4682B4" stroke-width="0.8"/>
<text x="331.0" y="252.4" text-anchor="middle" font-family="Arial" font-size="7" fill="#4682B4">SINK</text>
</a>
<rect x="279.0" y="237.8" width="27.2" height="26.2" fill="rgba(100,150,200,0.2)" stroke="#4682B4" stroke-width="0.8"/>
<text x="292.6" y="253.9" text-anchor="middle" font-family="Arial" font-size="7" fill="#4682B4">D/W</text>
<rect x="355.8" y="240.7" width="29.1" height="26.2" fill="rgba(100,150,200,0.2)" stroke="#4682B4" stroke-width="0.8"/>
<text x="370.3" y="256.8" text-anchor="middle" font-family="Arial" font-size="7" fill="#4682B4">STOVE</text>
<circle cx="384.9" cy="266.9" r="29.1" fill="none" stroke="#4682B4" stroke-width="0.5" stroke-dasharray="2,2"/>
<text x="384.9" y="235.8" text-anchor="middle" font-family="Arial" font-size="6" fill="#4682B4">WW1</text>
<a href="https://www.ikea.com/us/en/p/hemnes-bookcase-white-stain-light-brown-60413502/" target="_blank">
<rect x="387.8" y="237.8" width="35.0" height="14.6" fill="rgba(100,150,200,0.2)" stroke="#4682B4" stroke-width="0.8"/>
<text x="405.3" y="248.1" text-anchor="middle" font-family="Arial" font-size="6" fill="#4682B4">SHELVES</text>
</a>
<circle cx="422.8" cy="252.4" r="29.1" fill="none" stroke="#4682B4" stroke-width="0.5" stroke-dasharray="2,2"/>
<text x="422.8" y="221.2" text-anchor="middle" font-family="Arial" font-size="6" fill="#4682B4">WW3</text>
<rect x="313.0" y="317.4" width="35.0" height="35.0" fill="rgba(100,150,200,0.2)" stroke="#4682B4" stroke-width="0.8"/>
<text x="330.5" y="337.9" text-anchor="middle" font-family="Arial" font-size="7" fill="#4682B4">FRIDGE</text>
<a href="https://www.webstaurantstore.com/regency-spec-line-30-x-72-14-gauge-stainless-steel-commercial-work-table-with-4-backsplash-and-undershelf/600TSSB3072S.html" target="_blank">
<rect x="241.1" y="325.2" width="69.9" height="29.1" fill="rgba(100,150,200,0.2)" stroke="#4682B4" stroke-width="0.8"/>
<text x="276.1" y="342.8" text-anchor="middle" font-family="Arial" font-size="7" fill="#4682B4">COUNTER</text>
</a>
<a href="https://www.webstaurantstore.com/regency-spec-line-30-x-36-14-gauge-stainless-steel-commercial-work-table-with-4-backsplash-and-undershelf/600TSSB3036S.html" target="_blank">
<rect x="241.1" y="237.8" width="35.0" height="29.1" fill="rgba(100,150,200,0.2)" stroke="#4682B4" stroke-width="0.8"/>
<text x="258.6" y="255.4" text-anchor="middle" font-family="Arial" font-size="6" fill="#4682B4">COUNTER</text>
</a>
<defs><clipPath id="wc126"><polygon points="257.6,494.3 260.6,494.3 260.6,424.3 289.7,424.3 289.7,421.4 257.6,421.4"/></clipPath></defs>
<polygon points="257.6,494.3 260.6,494.3 260.6,424.3 289.7,424.3 289.7,421.4 257.6,421.4" fill="rgba(160,160,160,0.35)" stroke="#666" stroke-width="1.6" clip-path="url(#wc126)"/>
<polygon points="289.7,494.3 293.6,494.3 293.6,419.5 289.7,419.5" fill="rgba(160,160,160,0.35)" stroke="none"/>
<polygon points="289.7,382.5 293.6,382.5 293.6,360.2 289.7,360.2" fill="rgba(160,160,160,0.35)" stroke="none"/>
<line x1="290.2" y1="494.3" x2="290.2" y2="419.5" stroke="#666" stroke-width="1.0"/>
<line x1="290.2" y1="382.5" x2="290.2" y2="360.2" stroke="#666" stroke-width="1.0"/>
<line x1="293.1" y1="494.3" x2="293.1" y2="419.5" stroke="#666" stroke-width="1.0"/>
<line x1="293.1" y1="382.5" x2="293.1" y2="360.2" stroke="#666" stroke-width="1.0"/>
<rect x="289.7" y="418.5" width="3.9" height="1.0" fill="darkred" stroke="none"/>
<rect x="289.7" y="382.5" width="3.9" height="1.0" fill="darkred" stroke="none"/>
<defs><clipPath id="wc136"><polygon points="433.5,433.1 465.5,433.1 465.5,505.9 462.6,505.9 462.6,436.0 433.5,436.0"/></clipPath></defs>
<polygon points="433.5,433.1 465.5,433.1 465.5,505.9 462.6,505.9 462.6,436.0 433.5,436.0" fill="rgba(160,160,160,0.35)" stroke="#666" stroke-width="1.6" clip-path="url(#wc136)"/>
<polygon points="433.5,392.3 563.7,392.3 563.7,389.3 433.5,389.3" fill="rgba(160,160,160,0.35)" stroke="none"/>
<line x1="433.5" y1="391.8" x2="563.7" y2="391.8" stroke="#666" stroke-width="1.0"/>
<line x1="433.5" y1="389.8" x2="563.7" y2="389.8" stroke="#666" stroke-width="1.0"/>
<polygon points="429.6,505.9 433.5,505.9 433.5,431.1 429.6,431.1" fill="rgba(160,160,160,0.35)" stroke="none"/>
<polygon points="429.6,394.2 433.5,394.2 433.5,360.2 429.6,360.2" fill="rgba(160,160,160,0.35)" stroke="none"/>
<line x1="430.1" y1="505.9" x2="430.1" y2="431.1" stroke="#666" stroke-width="1.0"/>
<line x1="430.1" y1="394.2" x2="430.1" y2="360.2" stroke="#666" stroke-width="1.0"/>
<line x1="433.0" y1="505.9" x2="433.0" y2="431.1" stroke="#666" stroke-width="1.0"/>
<line x1="433.0" y1="394.2" x2="433.0" y2="360.2" stroke="#666" stroke-width="1.0"/>
<rect x="429.6" y="430.1" width="3.9" height="1.0" fill="darkred" stroke="none"/>
<rect x="429.6" y="394.2" width="3.9" height="1.0" fill="darkred" stroke="none"/>
<rect x="324.7" y="401.0" width="73.8" height="91.3" fill="rgba(100,150,200,0.2)" stroke="#4682B4" stroke-width="0.8"/>
<text x="361.6" y="473.9" text-anchor="middle" font-family="Arial" font-size="7" fill="#4682B4">KING BED</text>
<a href="https://www.ikea.com/us/en/p/saltsjoebaden-loveseat-tonerud-red-brown-s59579188/" target="_blank">
<g transform="rotate(-15,422.4,348.0)">
<rect x="422.4" y="284.9" width="34.0" height="63.1" fill="rgba(100,150,200,0.2)" stroke="#4682B4" stroke-width="0.8"/>
<text x="439.4" y="319.5" text-anchor="middle" font-family="Arial" font-size="6" fill="#4682B4">LOVESEAT</text>
</g>
</a>
<circle cx="438.9" cy="278.2" r="29.1" fill="none" stroke="#4682B4" stroke-width="0.5" stroke-dasharray="2,2"/>
<text x="438.9" y="247.1" text-anchor="middle" font-family="Arial" font-size="6" fill="#4682B4">WW2</text>
<a href="https://www.ikea.com/us/en/p/listerby-side-table-oak-veneer-30515314/" target="_blank">
<circle cx="466.1" cy="342.9" r="9.6" fill="rgba(100,150,200,0.2)" stroke="#4682B4" stroke-width="0.8"/>
<text x="466.1" y="345.9" text-anchor="middle" font-family="Arial" font-size="6" fill="#4682B4">ET</text>
</a>
<a href="https://www.ikea.com/us/en/p/saltsjoebaden-loveseat-tonerud-red-brown-s59579188/" target="_blank">
<rect x="477.6" y="318.4" width="63.1" height="34.0" fill="rgba(100,150,200,0.2)" stroke="#4682B4" stroke-width="0.8"/>
<text x="509.2" y="338.4" text-anchor="middle" font-family="Arial" font-size="6" fill="#4682B4">LOVESEAT</text>
</a>
<g transform="rotate(30,511.0,234.9)">
<a href="https://www.ikea.com/us/en/p/havberg-swivel-easy-chair-and-footstool-grann-bomstad-golden-brown-s59485321/" target="_blank">
<rect x="495.5" y="217.0" width="31.1" height="35.9" rx="2.9" ry="2.9" fill="rgba(100,150,200,0.2)" stroke="#4682B4" stroke-width="0.8"/>
<text x="511.0" y="237.9" text-anchor="middle" font-family="Arial" font-size="6" fill="#4682B4">CHAIR</text>
</a>
</g>
<text x="361.6" y="430.2" text-anchor="middle" font-family="Arial" font-size="8" fill="#666">BEDROOM</text>
<text x="498.6" y="422.9" text-anchor="middle" font-family="Arial" font-size="8" fill="#666">OFFICE</text>
<line x1="293.6" y1="460.7" x2="429.6" y2="460.7" stroke="#999" stroke-width="0.8"/>
<line x1="293.6" y1="456.7" x2="293.6" y2="464.7" stroke="#999" stroke-width="0.8"/>
<line x1="429.6" y1="456.7" x2="429.6" y2="464.7" stroke="#999" stroke-width="0.8"/>
<text x="361.6" y="457.7" text-anchor="middle" font-family="Arial" font-size="8" fill="#999">11' 8"</text>
<line x1="316.9" y1="494.3" x2="316.9" y2="360.2" stroke="#999" stroke-width="0.8"/>
<line x1="312.9" y1="494.3" x2="320.9" y2="494.3" stroke="#999" stroke-width="0.8"/>
<line x1="312.9" y1="360.2" x2="320.9" y2="360.2" stroke="#999" stroke-width="0.8"/>
<text x="313.9" y="430.2" text-anchor="middle" font-family="Arial" font-size="8" fill="#999" transform="rotate(-90,313.9,430.2)">11' 6"</text>
<line x1="275.1" y1="494.3" x2="275.1" y2="424.3" stroke="#999" stroke-width="0.8"/>
<line x1="271.1" y1="494.3" x2="279.1" y2="494.3" stroke="#999" stroke-width="0.8"/>
<line x1="271.1" y1="424.3" x2="279.1" y2="424.3" stroke="#999" stroke-width="0.8"/>
<text x="272.1" y="462.3" text-anchor="middle" font-family="Arial" font-size="8" fill="#999" transform="rotate(-90,272.1,462.3)">CLOSET 6' 0"</text>
<line x1="448.0" y1="505.9" x2="448.0" y2="436.0" stroke="#999" stroke-width="0.8"/>
<line x1="444.0" y1="505.9" x2="452.0" y2="505.9" stroke="#999" stroke-width="0.8"/>
<line x1="444.0" y1="436.0" x2="452.0" y2="436.0" stroke="#999" stroke-width="0.8"/>
<text x="445.0" y="473.9" text-anchor="middle" font-family="Arial" font-size="8" fill="#999" transform="rotate(-90,445.0,473.9)">CLOSET 6' 0"</text>
<line x1="159.5" y1="459.3" x2="257.6" y2="459.3" stroke="#999" stroke-width="0.8"/>
<line x1="159.5" y1="455.3" x2="159.5" y2="463.3" stroke="#999" stroke-width="0.8"/>
<line x1="257.6" y1="455.3" x2="257.6" y2="463.3" stroke="#999" stroke-width="0.8"/>
<text x="208.6" y="456.3" text-anchor="middle" font-family="Arial" font-size="8" fill="#999">8' 5"</text>
<line x1="465.5" y1="449.6" x2="563.7" y2="449.6" stroke="#999" stroke-width="0.8"/>
<line x1="465.5" y1="445.6" x2="465.5" y2="453.6" stroke="#999" stroke-width="0.8"/>
<line x1="563.7" y1="445.6" x2="563.7" y2="453.6" stroke="#999" stroke-width="0.8"/>
<text x="514.6" y="446.6" text-anchor="middle" font-family="Arial" font-size="8" fill="#999">8' 5"</text>
<line x1="433.5" y1="374.8" x2="563.7" y2="374.8" stroke="#999" stroke-width="0.8"/>
<line x1="433.5" y1="370.8" x2="433.5" y2="378.8" stroke="#999" stroke-width="0.8"/>
<line x1="563.7" y1="370.8" x2="563.7" y2="378.8" stroke="#999" stroke-width="0.8"/>
<text x="498.6" y="371.8" text-anchor="middle" font-family="Arial" font-size="8" fill="#999">STORAGE 11' 2"</text>
<line x1="159.5" y1="409.7" x2="289.7" y2="409.7" stroke="#999" stroke-width="0.8"/>
<line x1="159.5" y1="405.7" x2="159.5" y2="413.7" stroke="#999" stroke-width="0.8"/>
<line x1="289.7" y1="405.7" x2="289.7" y2="413.7" stroke="#999" stroke-width="0.8"/>
<text x="224.6" y="406.7" text-anchor="middle" font-family="Arial" font-size="8" fill="#999">11' 2"</text>
<line x1="159.5" y1="298.0" x2="235.3" y2="298.0" stroke="#999" stroke-width="0.8"/>
<line x1="159.5" y1="294.0" x2="159.5" y2="302.0" stroke="#999" stroke-width="0.8"/>
<line x1="235.3" y1="294.0" x2="235.3" y2="302.0" stroke="#999" stroke-width="0.8"/>
<text x="197.4" y="295.0" text-anchor="middle" font-family="Arial" font-size="8" fill="#999">6' 6"</text>
<line x1="171.2" y1="228.1" x2="235.3" y2="228.1" stroke="#999" stroke-width="0.8"/>
<line x1="171.2" y1="224.1" x2="171.2" y2="232.1" stroke="#999" stroke-width="0.8"/>
<line x1="235.3" y1="224.1" x2="235.3" y2="232.1" stroke="#999" stroke-width="0.8"/>
<text x="203.2" y="225.1" text-anchor="middle" font-family="Arial" font-size="8" fill="#999">5' 6"</text>
<line x1="469.2" y1="392.3" x2="469.2" y2="505.9" stroke="#999" stroke-width="0.8"/>
<line x1="465.2" y1="392.3" x2="473.2" y2="392.3" stroke="#999" stroke-width="0.8"/>
<line x1="465.2" y1="505.9" x2="473.2" y2="505.9" stroke="#999" stroke-width="0.8"/>
<text x="466.2" y="452.1" text-anchor="middle" font-family="Arial" font-size="8" fill="#999" transform="rotate(-90,466.2,452.1)">9' 9"</text>
<line x1="202.3" y1="272.8" x2="202.3" y2="208.6" stroke="#999" stroke-width="0.8"/>
<line x1="198.3" y1="272.8" x2="206.3" y2="272.8" stroke="#999" stroke-width="0.8"/>
<line x1="198.3" y1="208.6" x2="206.3" y2="208.6" stroke="#999" stroke-width="0.8"/>
<text x="199.3" y="243.7" text-anchor="middle" font-family="Arial" font-size="8" fill="#999" transform="rotate(-90,199.3,243.7)">5' 6"</text>
<line x1="202.3" y1="354.4" x2="202.3" y2="273.7" stroke="#999" stroke-width="0.8"/>
<line x1="198.3" y1="354.4" x2="206.3" y2="354.4" stroke="#999" stroke-width="0.8"/>
<line x1="198.3" y1="273.7" x2="206.3" y2="273.7" stroke="#999" stroke-width="0.8"/>
<text x="199.3" y="317.0" text-anchor="middle" font-family="Arial" font-size="8" fill="#999" transform="rotate(-90,199.3,317.0)">6' 11"</text>
<line x1="120.3" y1="502.0" x2="120.3" y2="200.9" stroke="#999" stroke-width="0.8"/>
<line x1="116.3" y1="502.0" x2="124.3" y2="502.0" stroke="#999" stroke-width="0.8"/>
<line x1="116.3" y1="200.9" x2="124.3" y2="200.9" stroke="#999" stroke-width="0.8"/>
<text x="117.3" y="354.5" text-anchor="middle" font-family="Arial" font-size="8" fill="#999" transform="rotate(-90,117.3,354.5)">25' 10"</text>
<line x1="280.0" y1="189.2" x2="486.4" y2="189.2" stroke="#999" stroke-width="0.8"/>
<line x1="280.0" y1="185.2" x2="280.0" y2="193.2" stroke="#999" stroke-width="0.8"/>
<line x1="486.4" y1="185.2" x2="486.4" y2="193.2" stroke="#999" stroke-width="0.8"/>
<text x="383.2" y="186.2" text-anchor="middle" font-family="Arial" font-size="8" fill="#999">17' 8.46"</text>
<line x1="151.8" y1="548.7" x2="571.4" y2="548.7" stroke="#999" stroke-width="0.8"/>
<line x1="151.8" y1="544.7" x2="151.8" y2="552.7" stroke="#999" stroke-width="0.8"/>
<line x1="571.4" y1="544.7" x2="571.4" y2="552.7" stroke="#999" stroke-width="0.8"/>
<text x="361.6" y="545.7" text-anchor="middle" font-family="Arial" font-size="8" fill="#999">36' 0"</text>
<line x1="414.0" y1="505.9" x2="414.0" y2="360.2" stroke="#999" stroke-width="0.8"/>
<line x1="410.0" y1="505.9" x2="418.0" y2="505.9" stroke="#999" stroke-width="0.8"/>
<line x1="410.0" y1="360.2" x2="418.0" y2="360.2" stroke="#999" stroke-width="0.8"/>
<text x="411.0" y="436.1" text-anchor="middle" font-family="Arial" font-size="8" fill="#999" transform="rotate(-90,411.0,436.1)">12' 6"</text>
<polygon points="151.8,418.5 151.8,394.2 159.5,394.2 159.5,418.5" fill="rgb(220,235,255)" stroke="#4682B4" stroke-width="1.0"/>
<polygon points="151.8,326.2 151.8,301.9 159.5,301.9 159.5,326.2" fill="rgb(220,235,255)" stroke="#4682B4" stroke-width="1.0"/>
<polygon points="163.4,263.0 163.4,232.0 171.2,232.0 171.2,263.0" fill="rgb(220,235,255)" stroke="#4682B4" stroke-width="1.0"/>
<polygon points="217.3,208.6 226.1,208.6 226.1,200.9 217.3,200.9" fill="rgb(220,235,255)" stroke="#4682B4" stroke-width="1.0"/>
<polygon points="291.6,237.8 361.6,237.8 361.6,230.0 291.6,230.0" fill="rgb(220,235,255)" stroke="#4682B4" stroke-width="1.0"/>
<polygon points="431.5,237.8 474.3,237.8 474.3,230.0 431.5,230.0" fill="rgb(220,235,255)" stroke="#4682B4" stroke-width="1.0"/>
<polygon points="545.4,243.6 563.5,311.1 556.0,313.1 537.9,245.6" fill="rgb(220,235,255)" stroke="#4682B4" stroke-width="1.0"/>
<polygon points="571.4,433.1 571.4,408.8 563.7,408.8 563.7,433.1" fill="rgb(220,235,255)" stroke="#4682B4" stroke-width="1.0"/>
<polygon points="401.9,513.7 426.2,513.7 426.2,505.9 401.9,505.9" fill="rgb(220,235,255)" stroke="#4682B4" stroke-width="1.0"/>
<polygon points="297.0,502.0 321.3,502.0 321.3,494.3 297.0,494.3" fill="rgb(220,235,255)" stroke="#4682B4" stroke-width="1.0"/>
<polygon points="204.7,502.0 229.0,502.0 229.0,494.3 204.7,494.3" fill="rgb(220,235,255)" stroke="#4682B4" stroke-width="1.0"/>
<line x1="646.4" y1="296.0" x2="646.4" y2="260.0" stroke="#333" stroke-width="2" marker-end="url(#ah)"/>
<text x="646.4" y="254.0" text-anchor="middle" font-family="Arial" font-size="13" font-weight="bold">N</text>
<rect x="581.4" y="147.0" width="130" height="92" fill="white" stroke="#333" stroke-width="1"/>
<text x="646.4" y="161.0" text-anchor="middle" font-family="Arial" font-size="11" font-weight="bold" fill="#333">739.91 sq ft</text>
<text x="646.4" y="173.0" text-anchor="middle" font-family="Arial" font-size="8" fill="#666">Interior area</text>
<text x="646.4" y="187.0" text-anchor="middle" font-family="Arial" font-size="11" font-weight="bold" fill="#333">856.93 sq ft</text>
<text x="646.4" y="199.0" text-anchor="middle" font-family="Arial" font-size="8" fill="#666">Exterior area</text>
<text x="646.4" y="211.0" text-anchor="middle" font-family="Arial" font-size="8" fill="#666">Scale 1:72.0 1&#8243; = 6' 0"</text>
<text x="646.4" y="223.0" text-anchor="middle" font-family="Arial" font-size="7.5" fill="#999">Generated 2026-02-14 15:28:33</text>
<text x="646.4" y="233.0" text-anchor="middle" font-family="Arial" font-size="7.5" fill="#999">from v0.1-94-g89e1a44</text>
</svg>