<svg xmlns="http://www.w3.org/2000/svg" width="792" height="612" viewBox="0 0 792 612">
<rect width="792" height="612" fill="white"/>
<defs>
  <marker id="ah" markerWidth="8" markerHeight="6" refX="8" refY="3" orient="auto"><polygon points="0 0, 8 3, 0 6" fill="#333"/></marker>
</defs>
<text x="396.0" y="30" text-anchor="middle" font-family="Arial" font-size="14" font-weight="bold">Floorplan &#8212; 8&#8243; Walls</text>
<polygon points="163.4,228.1 163.4,266.9 163.4,267.6 163.4,268.3 163.3,269.0 163.2,269.7 163.1,270.4 163.0,271.1 162.8,271.8 162.6,272.5 162.4,273.1 162.2,273.8 161.9,274.5 161.6,275.1 161.3,275.7 161.0,276.3 160.6,277.0 160.3,277.6 159.9,278.1 159.4,278.7 159.0,279.2 158.6,279.8 157.9,280.5 157.3,281.3 156.7,282.1 156.2,282.9 155.7,283.7 155.2,284.6 154.7,285.5 154.3,286.3 153.9,287.2 153.5,288.2 153.2,289.1 152.9,290.0 152.6,291.0 152.4,291.9 152.2,292.9 152.0,293.9 151.9,294.8 151.8,295.8 151.8,296.8 151.8,297.8 151.8,492.3 151.8,493.1 151.9,493.8 152.0,494.6 152.2,495.3 152.5,496.0 152.8,496.7 153.2,497.4 153.6,498.0 154.1,498.6 154.6,499.2 155.2,499.7 155.8,500.2 156.4,500.6 157.1,501.0 157.8,501.3 158.5,501.6 159.2,501.8 159.9,501.9 160.7,502.0 161.5,502.0 367.7,502.0 367.9,502.0 368.1,502.0 368.4,502.0 368.6,502.1 368.8,502.1 369.1,502.1 369.3,502.1 369.5,502.1 369.8,502.1 370.0,502.2 370.2,502.2 370.5,502.2 370.7,502.3 370.9,502.3 371.2,502.3 371.4,502.4 371.6,502.4 371.8,502.5 372.1,502.5 372.3,502.6 372.5,502.6 372.8,502.7 373.0,502.8 373.2,502.8 373.4,502.9 373.6,503.0 373.9,503.0 374.1,503.1 374.3,503.2 374.5,503.3 374.7,503.4 375.0,503.5 375.2,503.5 375.4,503.6 375.6,503.7 375.8,503.8 376.0,503.9 376.2,504.0 376.5,504.1 376.7,504.2 376.9,504.3 377.1,504.5 377.3,504.6 377.5,504.7 377.7,504.8 377.9,504.9 378.1,505.1 378.3,505.2 378.5,505.3 378.7,505.4 378.9,505.6 379.1,505.7 379.2,505.9 379.4,506.0 379.6,506.1 379.8,506.3 380.0,506.4 380.2,506.6 380.3,506.7 380.5,506.9 380.8,507.1 381.0,507.3 381.3,507.5 381.5,507.7 381.8,507.9 382.0,508.1 382.3,508.3 382.6,508.5 382.8,508.7 383.1,508.9 383.4,509.1 383.6,509.3 383.9,509.4 384.2,509.6 384.5,509.8 384.8,510.0 385.0,510.1 385.3,510.3 385.6,510.4 385.9,510.6 386.2,510.7 386.5,510.9 386.8,511.0 387.1,511.2 387.4,511.3 387.7,511.4 388.0,511.6 388.3,511.7 388.6,511.8 388.9,511.9 389.2,512.0 389.5,512.2 389.8,512.3 390.1,512.4 390.4,512.5 390.8,512.6 391.1,512.6 391.4,512.7 391.7,512.8 392.0,512.9 392.3,513.0 392.7,513.0 393.0,513.1 393.3,513.2 393.6,513.2 393.9,513.3 394.3,513.4 394.6,513.4 394.9,513.4 395.2,513.5 395.6,513.5 395.9,513.6 396.2,513.6 396.5,513.6 396.9,513.6 397.2,513.7 397.5,513.7 397.8,513.7 398.2,513.7 398.5,513.7 481.7,513.7 482.4,513.7 483.1,513.6 483.8,513.6 484.6,513.5 485.3,513.5 486.0,513.4 486.7,513.2 487.4,513.1 488.1,512.9 488.8,512.8 489.4,512.6 490.1,512.4 490.8,512.1 491.5,511.9 492.1,511.6 492.8,511.3 493.4,511.0 494.1,510.7 494.7,510.4 495.3,510.0 559.2,473.2 560.3,472.4 561.4,471.6 562.4,470.7 563.4,469.8 564.3,468.8 565.2,467.8 566.0,466.7 566.8,465.6 567.5,464.5 568.2,463.3 568.8,462.1 569.3,460.9 569.8,459.7 570.2,458.4 570.6,457.1 570.9,455.8 571.1,454.5 571.3,453.1 571.4,451.8 571.4,450.4 571.4,352.4 571.4,352.1 571.4,351.7 571.4,351.3 571.4,351.0 571.4,350.6 571.4,350.3 571.4,349.9 571.4,349.5 571.4,349.2 571.3,348.8 571.3,348.5 571.3,348.1 571.3,347.7 571.3,347.4 571.2,347.0 571.2,346.7 571.2,346.3 571.2,345.9 571.1,345.6 571.1,345.2 571.1,344.9 571.0,344.5 571.0,344.1 571.0,343.8 570.9,343.4 570.9,343.1 570.9,342.7 570.8,342.4 570.8,342.0 570.7,341.6 570.7,341.3 570.6,340.9 570.6,340.6 570.5,340.2 570.5,339.9 570.4,339.5 570.4,339.1 570.3,338.8 570.2,338.4 570.2,338.1 570.1,337.7 570.0,337.4 570.0,337.0 569.9,336.7 569.8,336.3 569.8,336.0 569.7,335.6 569.6,335.3 569.5,334.9 569.5,334.5 569.4,334.2 569.3,333.8 569.2,333.5 569.1,333.1 569.1,332.8 569.0,332.4 568.9,332.1 568.8,331.7 568.7,331.4 568.6,331.1 539.1,221.0 538.8,219.8 538.3,218.5 537.9,217.3 537.3,216.2 536.7,215.0 536.1,213.9 535.3,212.8 534.6,211.7 533.8,210.7 532.9,209.7 532.0,208.8 531.1,207.9 530.1,207.0 529.0,206.2 528.0,205.5 526.9,204.8 525.7,204.1 524.6,203.5 523.4,203.0 522.2,202.5 520.9,202.1 519.7,201.7 518.4,201.4 517.1,201.2 515.8,201.0 514.5,200.9 513.2,200.9 511.9,200.9 510.6,201.0 509.3,201.1 508.0,201.3 506.7,201.6 505.5,201.9 504.2,202.3 503.0,202.7 501.8,203.2 500.6,203.8 499.5,204.4 498.3,205.1 497.3,205.8 496.2,206.6 495.2,207.4 494.2,208.3 493.3,209.2 492.4,210.1 491.6,211.1 490.8,212.2 490.0,213.3 489.4,214.4 488.7,215.5 488.2,216.7 487.6,217.9 487.2,219.1 486.8,220.3 486.4,221.6 486.2,222.9 485.9,224.2 485.8,225.5 485.7,226.8 485.7,228.1 485.7,228.2 485.6,228.4 485.6,228.5 485.6,228.7 485.5,228.8 485.4,229.0 485.4,229.1 485.3,229.2 485.2,229.3 485.1,229.4 485.0,229.6 484.9,229.6 484.7,229.7 484.6,229.8 484.5,229.9 484.3,229.9 484.2,230.0 484.0,230.0 483.9,230.0 483.7,230.0 278.0,230.0 277.9,230.0 277.7,230.0 277.6,230.0 277.4,229.9 277.3,229.9 277.2,229.8 277.0,229.7 276.9,229.6 276.8,229.6 276.7,229.4 276.6,229.3 276.5,229.2 276.4,229.1 276.3,229.0 276.2,228.8 276.2,228.7 276.2,228.5 276.1,228.4 276.1,228.2 276.1,228.1 276.0,225.9 275.8,223.8 275.3,221.7 274.8,219.7 274.0,217.7 273.1,215.7 272.1,213.9 270.9,212.1 269.6,210.4 268.1,208.8 266.6,207.4 264.9,206.1 263.1,204.9 261.2,203.8 259.3,202.9 257.3,202.2 255.2,201.6 253.2,201.2 251.0,201.0 248.9,200.9 190.6,200.9 188.5,201.0 186.4,201.2 184.3,201.6 182.2,202.2 180.2,202.9 178.3,203.8 176.4,204.9 174.6,206.1 172.9,207.4 171.4,208.8 169.9,210.4 168.6,212.1 167.4,213.9 166.4,215.7 165.5,217.7 164.7,219.7 164.2,221.7 163.7,223.8 163.5,225.9" fill="rgba(160,160,160,0.35)" stroke="none"/>
<polygon points="171.2,226.6 171.4,225.0 171.7,223.5 172.1,222.1 172.7,220.6 173.3,219.3 174.0,217.9 174.9,216.7 175.8,215.5 176.9,214.3 178.0,213.3 179.2,212.4 180.5,211.5 181.8,210.8 183.2,210.1 184.6,209.6 186.1,209.2 187.6,208.9 189.1,208.7 190.6,208.6 248.9,208.6 250.4,208.7 251.9,208.9 253.4,209.2 254.9,209.6 256.3,210.1 257.7,210.8 259.1,211.5 260.3,212.4 261.5,213.3 262.6,214.3 263.7,215.5 264.6,216.7 265.5,217.9 266.2,219.3 266.8,220.6 267.4,222.1 267.8,223.5 268.1,225.0 268.3,226.6 268.3,228.1 268.4,228.8 268.4,229.6 268.6,230.3 268.8,231.1 269.1,231.8 269.4,232.5 269.8,233.2 270.2,233.8 270.7,234.4 271.2,234.9 271.7,235.5 272.3,235.9 273.0,236.4 273.6,236.7 274.3,237.1 275.0,237.3 275.8,237.5 276.5,237.7 277.3,237.8 278.0,237.8 483.7,237.8 484.5,237.8 485.2,237.7 486.0,237.5 486.7,237.3 487.4,237.1 488.1,236.7 488.8,236.4 489.4,235.9 490.0,235.5 490.6,234.9 491.1,234.4 491.6,233.8 492.0,233.2 492.4,232.5 492.7,231.8 493.0,231.1 493.2,230.3 493.3,229.6 493.4,228.8 493.4,228.1 493.5,227.1 493.5,226.2 493.6,225.3 493.8,224.4 494.0,223.5 494.2,222.6 494.5,221.7 494.8,220.8 495.2,219.9 495.6,219.1 496.1,218.3 496.6,217.5 497.1,216.7 497.7,216.0 498.3,215.3 498.9,214.6 499.5,213.9 500.2,213.3 501.0,212.7 501.7,212.2 502.5,211.6 503.3,211.2 504.1,210.7 505.0,210.3 505.8,210.0 506.7,209.6 507.6,209.4 508.5,209.1 509.4,209.0 510.3,208.8 511.2,208.7 512.2,208.7 513.1,208.6 514.0,208.7 515.0,208.8 515.9,208.9 516.8,209.1 517.7,209.3 518.6,209.5 519.5,209.8 520.4,210.2 521.2,210.5 522.1,211.0 522.9,211.4 523.7,211.9 524.4,212.5 525.2,213.0 525.9,213.6 526.5,214.3 527.2,214.9 527.8,215.7 528.4,216.4 528.9,217.1 529.4,217.9 529.9,218.7 530.3,219.6 530.7,220.4 531.1,221.3 531.4,222.2 531.6,223.0 561.1,333.1 561.2,333.4 561.3,333.7 561.4,334.0 561.4,334.3 561.5,334.6 561.6,335.0 561.7,335.3 561.7,335.6 561.8,335.9 561.9,336.2 562.0,336.6 562.0,336.9 562.1,337.2 562.2,337.5 562.2,337.8 562.3,338.1 562.3,338.5 562.4,338.8 562.5,339.1 562.5,339.4 562.6,339.8 562.6,340.1 562.7,340.4 562.7,340.7 562.8,341.0 562.8,341.4 562.9,341.7 562.9,342.0 563.0,342.3 563.0,342.7 563.1,343.0 563.1,343.3 563.1,343.6 563.2,344.0 563.2,344.3 563.2,344.6 563.3,344.9 563.3,345.3 563.3,345.6 563.4,345.9 563.4,346.2 563.4,346.6 563.4,346.9 563.5,347.2 563.5,347.5 563.5,347.9 563.5,348.2 563.6,348.5 563.6,348.8 563.6,349.2 563.6,349.5 563.6,349.8 563.6,350.1 563.6,350.5 563.6,350.8 563.6,351.1 563.6,351.4 563.7,351.8 563.7,352.1 563.7,352.4 563.7,450.4 563.6,451.5 563.5,452.5 563.4,453.5 563.2,454.5 563.0,455.5 562.7,456.5 562.4,457.4 562.0,458.3 561.5,459.3 561.1,460.2 560.5,461.0 559.9,461.9 559.3,462.7 558.7,463.4 558.0,464.2 557.2,464.9 556.5,465.5 555.6,466.2 554.8,466.7 553.9,467.2 491.4,503.3 491.0,503.6 490.5,503.8 490.1,504.0 489.6,504.2 489.1,504.4 488.7,504.6 488.2,504.8 487.7,505.0 487.2,505.1 486.7,505.3 486.2,505.4 485.8,505.5 485.3,505.6 484.8,505.7 484.2,505.7 483.7,505.8 483.2,505.9 482.7,505.9 482.2,505.9 481.7,505.9 398.5,505.9 398.3,505.9 398.0,505.9 397.8,505.9 397.6,505.9 397.3,505.9 397.1,505.9 396.9,505.8 396.6,505.8 396.4,505.8 396.2,505.8 395.9,505.7 395.7,505.7 395.5,505.7 395.2,505.6 395.0,505.6 394.8,505.6 394.6,505.5 394.3,505.5 394.1,505.4 393.9,505.4 393.6,505.3 393.4,505.2 393.2,505.2 393.0,505.1 392.7,505.0 392.5,505.0 392.3,504.9 392.1,504.8 391.9,504.7 391.6,504.7 391.4,504.6 391.2,504.5 391.0,504.4 390.8,504.3 390.6,504.2 390.3,504.1 390.1,504.0 389.9,503.9 389.7,503.8 389.5,503.7 389.3,503.6 389.1,503.5 388.9,503.4 388.7,503.2 388.5,503.1 388.3,503.0 388.1,502.9 387.9,502.8 387.7,502.6 387.5,502.5 387.3,502.4 387.1,502.2 386.9,502.1 386.7,501.9 386.6,501.8 386.4,501.7 386.2,501.5 386.0,501.4 385.8,501.2 385.7,501.1 385.4,500.8 385.2,500.6 384.9,500.4 384.7,500.2 384.4,500.0 384.1,499.8 383.9,499.6 383.6,499.4 383.3,499.2 383.1,499.0 382.8,498.9 382.5,498.7 382.3,498.5 382.0,498.3 381.7,498.2 381.4,498.0 381.1,497.8 380.8,497.7 380.6,497.5 380.3,497.4 380.0,497.2 379.7,497.1 379.4,496.9 379.1,496.8 378.8,496.6 378.5,496.5 378.2,496.4 377.9,496.3 377.6,496.1 377.3,496.0 377.0,495.9 376.7,495.8 376.4,495.7 376.0,495.6 375.7,495.5 375.4,495.4 375.1,495.3 374.8,495.2 374.5,495.1 374.2,495.0 373.8,495.0 373.5,494.9 373.2,494.8 372.9,494.8 372.5,494.7 372.2,494.6 371.9,494.6 371.6,494.5 371.3,494.5 370.9,494.5 370.6,494.4 370.3,494.4 370.0,494.4 369.6,494.3 369.3,494.3 369.0,494.3 368.6,494.3 368.3,494.3 368.0,494.3 367.7,494.3 161.5,494.3 161.3,494.2 161.2,494.2 161.0,494.2 160.9,494.2 160.7,494.1 160.6,494.0 160.5,494.0 160.3,493.9 160.2,493.8 160.1,493.7 160.0,493.6 159.9,493.5 159.8,493.3 159.7,493.2 159.7,493.1 159.6,492.9 159.6,492.8 159.5,492.6 159.5,492.5 159.5,492.3 159.5,297.8 159.5,297.1 159.6,296.4 159.6,295.7 159.7,295.0 159.8,294.3 160.0,293.6 160.1,292.9 160.3,292.2 160.5,291.6 160.8,290.9 161.0,290.3 161.3,289.6 161.6,289.0 162.0,288.4 162.3,287.8 162.7,287.2 163.1,286.6 163.5,286.0 163.9,285.5 164.4,284.9 165.0,284.2 165.6,283.4 166.2,282.6 166.8,281.8 167.3,281.0 167.8,280.1 168.2,279.2 168.7,278.4 169.1,277.5 169.4,276.6 169.8,275.6 170.1,274.7 170.3,273.7 170.5,272.8 170.7,271.8 170.9,270.9 171.0,269.9 171.1,268.9 171.2,267.9 171.2,266.9 171.2,228.1" fill="white" stroke="none"/>
<line x1="163.4" y1="228.1" x2="163.4" y2="266.9" stroke="#333" stroke-width="1.5"/>
<polyline points="163.4,266.9 163.4,267.6 163.4,268.3 163.3,269.0 163.2,269.7 163.1,270.4 163.0,271.1 162.8,271.8 162.6,272.5 162.4,273.1 162.2,273.8 161.9,274.5 161.6,275.1 161.3,275.7 161.0,276.3 160.6,277.0 160.3,277.6 159.9,278.1 159.4,278.7 159.0,279.2 158.6,279.8" fill="none" stroke="#333" stroke-width="1.5" stroke-linecap="round"/>
<polyline points="158.6,279.8 157.9,280.5 157.3,281.3 156.7,282.1 156.2,282.9 155.7,283.7 155.2,284.6 154.7,285.5 154.3,286.3 153.9,287.2 153.5,288.2 153.2,289.1 152.9,290.0 152.6,291.0 152.4,291.9 152.2,292.9 152.0,293.9 151.9,294.8 151.8,295.8 151.8,296.8 151.8,297.8" fill="none" stroke="#333" stroke-width="1.5" stroke-linecap="round"/>
<line x1="151.8" y1="297.8" x2="151.8" y2="492.3" stroke="#333" stroke-width="1.5"/>
<polyline points="151.8,492.3 151.8,493.1 151.9,493.8 152.0,494.6 152.2,495.3 152.5,496.0 152.8,496.7 153.2,497.4 153.6,498.0 154.1,498.6 154.6,499.2 155.2,499.7 155.8,500.2 156.4,500.6 157.1,501.0 157.8,501.3 158.5,501.6 159.2,501.8 159.9,501.9 160.7,502.0 161.5,502.0" fill="none" stroke="#333" stroke-width="1.5" stroke-linecap="round"/>
<line x1="161.5" y1="502.0" x2="367.7" y2="502.0" stroke="#333" stroke-width="1.5"/>
<polyline points="367.7,502.0 367.9,502.0 368.1,502.0 368.4,502.0 368.6,502.1 368.8,502.1 369.1,502.1 369.3,502.1 369.5,502.1 369.8,502.1 370.0,502.2 370.2,502.2 370.5,502.2 370.7,502.3 370.9,502.3 371.2,502.3 371.4,502.4 371.6,502.4 371.8,502.5 372.1,502.5 372.3,502.6 372.5,502.6 372.8,502.7 373.0,502.8 373.2,502.8 373.4,502.9 373.6,503.0 373.9,503.0 374.1,503.1 374.3,503.2 374.5,503.3 374.7,503.4 375.0,503.5 375.2,503.5 375.4,503.6 375.6,503.7 375.8,503.8 376.0,503.9 376.2,504.0 376.5,504.1 376.7,504.2 376.9,504.3 377.1,504.5 377.3,504.6 377.5,504.7 377.7,504.8 377.9,504.9 378.1,505.1 378.3,505.2 378.5,505.3 378.7,505.4 378.9,505.6 379.1,505.7 379.2,505.9 379.4,506.0 379.6,506.1 379.8,506.3 380.0,506.4 380.2,506.6 380.3,506.7 380.5,506.9" fill="none" stroke="#333" stroke-width="1.5" stroke-linecap="round"/>
<polyline points="380.5,506.9 380.8,507.1 381.0,507.3 381.3,507.5 381.5,507.7 381.8,507.9 382.0,508.1 382.3,508.3 382.6,508.5 382.8,508.7 383.1,508.9 383.4,509.1 383.6,509.3 383.9,509.4 384.2,509.6 384.5,509.8 384.8,510.0 385.0,510.1 385.3,510.3 385.6,510.4 385.9,510.6 386.2,510.7 386.5,510.9 386.8,511.0 387.1,511.2 387.4,511.3 387.7,511.4 388.0,511.6 388.3,511.7 388.6,511.8 388.9,511.9 389.2,512.0 389.5,512.2 389.8,512.3 390.1,512.4 390.4,512.5 390.8,512.6 391.1,512.6 391.4,512.7 391.7,512.8 392.0,512.9 392.3,513.0 392.7,513.0 393.0,513.1 393.3,513.2 393.6,513.2 393.9,513.3 394.3,513.4 394.6,513.4 394.9,513.4 395.2,513.5 395.6,513.5 395.9,513.6 396.2,513.6 396.5,513.6 396.9,513.6 397.2,513.7 397.5,513.7 397.8,513.7 398.2,513.7 398.5,513.7" fill="none" stroke="#333" stroke-width="1.5" stroke-linecap="round"/>
<line x1="398.5" y1="513.7" x2="481.7" y2="513.7" stroke="#333" stroke-width="1.5"/>
<polyline points="481.7,513.7 482.4,513.7 483.1,513.6 483.8,513.6 484.6,513.5 485.3,513.5 486.0,513.4 486.7,513.2 487.4,513.1 488.1,512.9 488.8,512.8 489.4,512.6 490.1,512.4 490.8,512.1 491.5,511.9 492.1,511.6 492.8,511.3 493.4,511.0 494.1,510.7 494.7,510.4 495.3,510.0" fill="none" stroke="#333" stroke-width="1.5" stroke-linecap="round"/>
<line x1="495.3" y1="510.0" x2="559.2" y2="473.2" stroke="#333" stroke-width="1.5"/>
<polyline points="559.2,473.2 560.3,472.4 561.4,471.6 562.4,470.7 563.4,469.8 564.3,468.8 565.2,467.8 566.0,466.7 566.8,465.6 567.5,464.5 568.2,463.3 568.8,462.1 569.3,460.9 569.8,459.7 570.2,458.4 570.6,457.1 570.9,455.8 571.1,454.5 571.3,453.1 571.4,451.8 571.4,450.4" fill="none" stroke="#333" stroke-width="1.5" stroke-linecap="round"/>
<line x1="571.4" y1="450.4" x2="571.4" y2="352.4" stroke="#333" stroke-width="1.5"/>
<polyline points="571.4,352.4 571.4,352.1 571.4,351.7 571.4,351.3 571.4,351.0 571.4,350.6 571.4,350.3 571.4,349.9 571.4,349.5 571.4,349.2 571.3,348.8 571.3,348.5 571.3,348.1 571.3,347.7 571.3,347.4 571.2,347.0 571.2,346.7 571.2,346.3 571.2,345.9 571.1,345.6 571.1,345.2 571.1,344.9 571.0,344.5 571.0,344.1 571.0,343.8 570.9,343.4 570.9,343.1 570.9,342.7 570.8,342.4 570.8,342.0 570.7,341.6 570.7,341.3 570.6,340.9 570.6,340.6 570.5,340.2 570.5,339.9 570.4,339.5 570.4,339.1 570.3,338.8 570.2,338.4 570.2,338.1 570.1,337.7 570.0,337.4 570.0,337.0 569.9,336.7 569.8,336.3 569.8,336.0 569.7,335.6 569.6,335.3 569.5,334.9 569.5,334.5 569.4,334.2 569.3,333.8 569.2,333.5 569.1,333.1 569.1,332.8 569.0,332.4 568.9,332.1 568.8,331.7 568.7,331.4 568.6,331.1" fill="none" stroke="#333" stroke-width="1.5" stroke-linecap="round"/>
<line x1="568.6" y1="331.1" x2="539.1" y2="221.0" stroke="#333" stroke-width="1.5"/>
<polyline points="539.1,221.0 538.8,219.8 538.3,218.5 537.9,217.3 537.3,216.2 536.7,215.0 536.1,213.9 535.3,212.8 534.6,211.7 533.8,210.7 532.9,209.7 532.0,208.8 531.1,207.9 530.1,207.0 529.0,206.2 528.0,205.5 526.9,204.8 525.7,204.1 524.6,203.5 523.4,203.0 522.2,202.5 520.9,202.1 519.7,201.7 518.4,201.4 517.1,201.2 515.8,201.0 514.5,200.9 513.2,200.9 511.9,200.9 510.6,201.0 509.3,201.1 508.0,201.3 506.7,201.6 505.5,201.9 504.2,202.3 503.0,202.7 501.8,203.2 500.6,203.8 499.5,204.4 498.3,205.1 497.3,205.8 496.2,206.6 495.2,207.4 494.2,208.3 493.3,209.2 492.4,210.1 491.6,211.1 490.8,212.2 490.0,213.3 489.4,214.4 488.7,215.5 488.2,216.7 487.6,217.9 487.2,219.1 486.8,220.3 486.4,221.6 486.2,222.9 485.9,224.2 485.8,225.5 485.7,226.8 485.7,228.1" fill="none" stroke="#333" stroke-width="1.5" stroke-linecap="round"/>
<polyline points="485.7,228.1 485.7,228.2 485.6,228.4 485.6,228.5 485.6,228.7 485.5,228.8 485.4,229.0 485.4,229.1 485.3,229.2 485.2,229.3 485.1,229.4 485.0,229.6 484.9,229.6 484.7,229.7 484.6,229.8 484.5,229.9 484.3,229.9 484.2,230.0 484.0,230.0 483.9,230.0 483.7,230.0" fill="none" stroke="#333" stroke-width="1.5" stroke-linecap="round"/>
<line x1="483.7" y1="230.0" x2="278.0" y2="230.0" stroke="#333" stroke-width="1.5"/>
<polyline points="278.0,230.0 277.9,230.0 277.7,230.0 277.6,230.0 277.4,229.9 277.3,229.9 277.2,229.8 277.0,229.7 276.9,229.6 276.8,229.6 276.7,229.4 276.6,229.3 276.5,229.2 276.4,229.1 276.3,229.0 276.2,228.8 276.2,228.7 276.2,228.5 276.1,228.4 276.1,228.2 276.1,228.1" fill="none" stroke="#333" stroke-width="1.5" stroke-linecap="round"/>
<polyline points="276.1,228.1 276.0,225.9 275.8,223.8 275.3,221.7 274.8,219.7 274.0,217.7 273.1,215.7 272.1,213.9 270.9,212.1 269.6,210.4 268.1,208.8 266.6,207.4 264.9,206.1 263.1,204.9 261.2,203.8 259.3,202.9 257.3,202.2 255.2,201.6 253.2,201.2 251.0,201.0 248.9,200.9" fill="none" stroke="#333" stroke-width="1.5" stroke-linecap="round"/>
<line x1="248.9" y1="200.9" x2="190.6" y2="200.9" stroke="#333" stroke-width="1.5"/>
<polyline points="190.6,200.9 188.5,201.0 186.4,201.2 184.3,201.6 182.2,202.2 180.2,202.9 178.3,203.8 176.4,204.9 174.6,206.1 172.9,207.4 171.4,208.8 169.9,210.4 168.6,212.1 167.4,213.9 166.4,215.7 165.5,217.7 164.7,219.7 164.2,221.7 163.7,223.8 163.5,225.9 163.4,228.1" fill="none" stroke="#333" stroke-width="1.5" stroke-linecap="round"/>
<line x1="171.2" y1="228.1" x2="171.2" y2="266.9" stroke="#666" stroke-width="1.0"/>
<polyline points="171.2,266.9 171.2,267.9 171.1,268.9 171.0,269.9 170.9,270.9 170.7,271.8 170.5,272.8 170.3,273.7 170.1,274.7 169.8,275.6 169.4,276.6 169.1,277.5 168.7,278.4 168.2,279.2 167.8,280.1 167.3,281.0 166.8,281.8 166.2,282.6 165.6,283.4 165.0,284.2 164.4,284.9" fill="none" stroke="#666" stroke-width="1.0" stroke-linecap="round"/>
<polyline points="164.4,284.9 163.9,285.5 163.5,286.0 163.1,286.6 162.7,287.2 162.3,287.8 162.0,288.4 161.6,289.0 161.3,289.6 161.0,290.3 160.8,290.9 160.5,291.6 160.3,292.2 160.1,292.9 160.0,293.6 159.8,294.3 159.7,295.0 159.6,295.7 159.6,296.4 159.5,297.1 159.5,297.8" fill="none" stroke="#666" stroke-width="1.0" stroke-linecap="round"/>
<line x1="159.5" y1="297.8" x2="159.5" y2="492.3" stroke="#666" stroke-width="1.0"/>
<polyline points="159.5,492.3 159.5,492.5 159.5,492.6 159.6,492.8 159.6,492.9 159.7,493.1 159.7,493.2 159.8,493.3 159.9,493.5 160.0,493.6 160.1,493.7 160.2,493.8 160.3,493.9 160.5,494.0 160.6,494.0 160.7,494.1 160.9,494.2 161.0,494.2 161.2,494.2 161.3,494.2 161.5,494.3" fill="none" stroke="#666" stroke-width="1.0" stroke-linecap="round"/>
<line x1="161.5" y1="494.3" x2="367.7" y2="494.3" stroke="#666" stroke-width="1.0"/>
<polyline points="367.7,494.3 368.0,494.3 368.3,494.3 368.6,494.3 369.0,494.3 369.3,494.3 369.6,494.3 370.0,494.4 370.3,494.4 370.6,494.4 370.9,494.5 371.3,494.5 371.6,494.5 371.9,494.6 372.2,494.6 372.5,494.7 372.9,494.8 373.2,494.8 373.5,494.9 373.8,495.0 374.2,495.0 374.5,495.1 374.8,495.2 375.1,495.3 375.4,495.4 375.7,495.5 376.0,495.6 376.4,495.7 376.7,495.8 377.0,495.9 377.3,496.0 377.6,496.1 377.9,496.3 378.2,496.4 378.5,496.5 378.8,496.6 379.1,496.8 379.4,496.9 379.7,497.1 380.0,497.2 380.3,497.4 380.6,497.5 380.8,497.7 381.1,497.8 381.4,498.0 381.7,498.2 382.0,498.3 382.3,498.5 382.5,498.7 382.8,498.9 383.1,499.0 383.3,499.2 383.6,499.4 383.9,499.6 384.1,499.8 384.4,500.0 384.7,500.2 384.9,500.4 385.2,500.6 385.4,500.8 385.7,501.1" fill="none" stroke="#666" stroke-width="1.0" stroke-linecap="round"/>
<polyline points="385.7,501.1 385.8,501.2 386.0,501.4 386.2,501.5 386.4,501.7 386.6,501.8 386.7,501.9 386.9,502.1 387.1,502.2 387.3,502.4 387.5,502.5 387.7,502.6 387.9,502.8 388.1,502.9 388.3,503.0 388.5,503.1 388.7,503.2 388.9,503.4 389.1,503.5 389.3,503.6 389.5,503.7 389.7,503.8 389.9,503.9 390.1,504.0 390.3,504.1 390.6,504.2 390.8,504.3 391.0,504.4 391.2,504.5 391.4,504.6 391.6,504.7 391.9,504.7 392.1,504.8 392.3,504.9 392.5,505.0 392.7,505.0 393.0,505.1 393.2,505.2 393.4,505.2 393.6,505.3 393.9,505.4 394.1,505.4 394.3,505.5 394.6,505.5 394.8,505.6 395.0,505.6 395.2,505.6 395.5,505.7 395.7,505.7 395.9,505.7 396.2,505.8 396.4,505.8 396.6,505.8 396.9,505.8 397.1,505.9 397.3,505.9 397.6,505.9 397.8,505.9 398.0,505.9 398.3,505.9 398.5,505.9" fill="none" stroke="#666" stroke-width="1.0" stroke-linecap="round"/>
<line x1="398.5" y1="505.9" x2="481.7" y2="505.9" stroke="#666" stroke-width="1.0"/>
<polyline points="481.7,505.9 482.2,505.9 482.7,505.9 483.2,505.9 483.7,505.8 484.2,505.7 484.8,505.7 485.3,505.6 485.8,505.5 486.2,505.4 486.7,505.3 487.2,505.1 487.7,505.0 488.2,504.8 488.7,504.6 489.1,504.4 489.6,504.2 490.1,504.0 490.5,503.8 491.0,503.6 491.4,503.3" fill="none" stroke="#666" stroke-width="1.0" stroke-linecap="round"/>
<line x1="491.4" y1="503.3" x2="553.9" y2="467.2" stroke="#666" stroke-width="1.0"/>
<polyline points="553.9,467.3 554.8,466.7 555.6,466.2 556.5,465.5 557.2,464.9 558.0,464.2 558.7,463.4 559.3,462.7 559.9,461.9 560.5,461.0 561.1,460.2 561.5,459.3 562.0,458.3 562.4,457.4 562.7,456.5 563.0,455.5 563.2,454.5 563.4,453.5 563.5,452.5 563.6,451.5 563.7,450.4" fill="none" stroke="#666" stroke-width="1.0" stroke-linecap="round"/>
<line x1="563.7" y1="450.4" x2="563.7" y2="352.4" stroke="#666" stroke-width="1.0"/>
<polyline points="563.7,352.4 563.7,352.1 563.7,351.8 563.6,351.4 563.6,351.1 563.6,350.8 563.6,350.5 563.6,350.1 563.6,349.8 563.6,349.5 563.6,349.2 563.6,348.8 563.6,348.5 563.5,348.2 563.5,347.9 563.5,347.5 563.5,347.2 563.4,346.9 563.4,346.6 563.4,346.2 563.4,345.9 563.3,345.6 563.3,345.3 563.3,344.9 563.2,344.6 563.2,344.3 563.2,344.0 563.1,343.6 563.1,343.3 563.1,343.0 563.0,342.7 563.0,342.3 562.9,342.0 562.9,341.7 562.8,341.4 562.8,341.0 562.7,340.7 562.7,340.4 562.6,340.1 562.6,339.8 562.5,339.4 562.5,339.1 562.4,338.8 562.3,338.5 562.3,338.1 562.2,337.8 562.2,337.5 562.1,337.2 562.0,336.9 562.0,336.6 561.9,336.2 561.8,335.9 561.7,335.6 561.7,335.3 561.6,335.0 561.5,334.6 561.4,334.3 561.4,334.0 561.3,333.7 561.2,333.4 561.1,333.1" fill="none" stroke="#666" stroke-width="1.0" stroke-linecap="round"/>
<line x1="561.1" y1="333.1" x2="531.6" y2="223.0" stroke="#666" stroke-width="1.0"/>
<polyline points="531.6,223.0 531.4,222.2 531.1,221.3 530.7,220.4 530.3,219.6 529.9,218.7 529.4,217.9 528.9,217.1 528.4,216.4 527.8,215.7 527.2,214.9 526.5,214.3 525.9,213.6 525.2,213.0 524.4,212.5 523.7,211.9 522.9,211.4 522.1,211.0 521.2,210.5 520.4,210.2 519.5,209.8 518.6,209.5 517.7,209.3 516.8,209.1 515.9,208.9 515.0,208.8 514.0,208.7 513.1,208.6 512.2,208.7 511.2,208.7 510.3,208.8 509.4,209.0 508.5,209.1 507.6,209.4 506.7,209.6 505.8,210.0 505.0,210.3 504.1,210.7 503.3,211.2 502.5,211.6 501.7,212.2 501.0,212.7 500.2,213.3 499.5,213.9 498.9,214.6 498.3,215.3 497.7,216.0 497.1,216.7 496.6,217.5 496.1,218.3 495.6,219.1 495.2,219.9 494.8,220.8 494.5,221.7 494.2,222.6 494.0,223.5 493.8,224.4 493.6,225.3 493.5,226.2 493.5,227.1 493.4,228.1" fill="none" stroke="#666" stroke-width="1.0" stroke-linecap="round"/>
<polyline points="493.4,228.1 493.4,228.8 493.3,229.6 493.2,230.3 493.0,231.1 492.7,231.8 492.4,232.5 492.0,233.2 491.6,233.8 491.1,234.4 490.6,234.9 490.0,235.5 489.4,235.9 488.8,236.4 488.1,236.7 487.4,237.1 486.7,237.3 486.0,237.5 485.2,237.7 484.5,237.8 483.7,237.8" fill="none" stroke="#666" stroke-width="1.0" stroke-linecap="round"/>
<line x1="483.7" y1="237.8" x2="278.0" y2="237.8" stroke="#666" stroke-width="1.0"/>
<polyline points="278.0,237.8 277.3,237.8 276.5,237.7 275.8,237.5 275.0,237.3 274.3,237.1 273.6,236.7 273.0,236.4 272.3,235.9 271.7,235.5 271.2,234.9 270.7,234.4 270.2,233.8 269.8,233.2 269.4,232.5 269.1,231.8 268.8,231.1 268.6,230.3 268.4,229.6 268.4,228.8 268.3,228.1" fill="none" stroke="#666" stroke-width="1.0" stroke-linecap="round"/>
<polyline points="268.3,228.1 268.3,226.6 268.1,225.0 267.8,223.5 267.4,222.1 266.8,220.6 266.2,219.3 265.5,217.9 264.6,216.7 263.7,215.5 262.6,214.3 261.5,213.3 260.3,212.4 259.1,211.5 257.7,210.8 256.3,210.1 254.9,209.6 253.4,209.2 251.9,208.9 250.4,208.7 248.9,208.6" fill="none" stroke="#666" stroke-width="1.0" stroke-linecap="round"/>
<line x1="248.9" y1="208.6" x2="190.6" y2="208.6" stroke="#666" stroke-width="1.0"/>
<polyline points="190.6,208.6 189.1,208.7 187.6,208.9 186.1,209.2 184.6,209.6 183.2,210.1 181.8,210.8 180.5,211.5 179.2,212.4 178.0,213.3 176.9,214.3 175.8,215.5 174.9,216.7 174.0,217.9 173.3,219.3 172.7,220.6 172.1,222.1 171.7,223.5 171.4,225.0 171.2,226.6 171.2,228.1" fill="none" stroke="#666" stroke-width="1.0" stroke-linecap="round"/>
<polygon points="159.5,360.2 563.7,360.2 563.7,354.4 159.5,354.4" fill="rgba(160,160,160,0.35)" stroke="none"/>
<line x1="159.5" y1="360.2" x2="563.7" y2="360.2" stroke="#666" stroke-width="1.0"/>
<line x1="563.7" y1="354.4" x2="159.5" y2="354.4" stroke="#666" stroke-width="1.0"/>
<text x="361.6" y="352.8" text-anchor="middle" font-family="Arial" font-size="8" fill="#666">IW1</text>
<polygon points="235.3,354.4 241.1,354.4 241.1,208.6 235.3,208.6" fill="rgba(160,160,160,0.35)" stroke="none"/>
<line x1="235.3" y1="354.4" x2="235.3" y2="208.6" stroke="#666" stroke-width="1.0"/>
<line x1="241.1" y1="354.4" x2="241.1" y2="208.6" stroke="#666" stroke-width="1.0"/>
<text x="234.2" y="285.0" text-anchor="middle" font-family="Arial" font-size="8" fill="#666" transform="rotate(-90,234.2,285.0)">IW2</text>
<line x1="381.9" y1="354.4" x2="381.9" y2="237.8" stroke="#999" stroke-width="0.8"/>
<line x1="377.9" y1="354.4" x2="385.9" y2="354.4" stroke="#999" stroke-width="0.8"/>
<line x1="377.9" y1="237.8" x2="385.9" y2="237.8" stroke="#999" stroke-width="0.8"/>
<text x="378.9" y="299.1" text-anchor="middle" font-family="Arial" font-size="8" fill="#999" transform="rotate(-90,378.9,299.1)">9' 12.0"</text>
<line x1="241.1" y1="276.0" x2="545.8" y2="276.0" stroke="#999" stroke-width="0.8"/>
<line x1="241.1" y1="272.0" x2="241.1" y2="280.0" stroke="#999" stroke-width="0.8"/>
<line x1="545.8" y1="272.0" x2="545.8" y2="280.0" stroke="#999" stroke-width="0.8"/>
<text x="393.5" y="273.0" text-anchor="middle" font-family="Arial" font-size="8" fill="#999">26' 1.6"</text>
<rect x="165.4" y="461.2" width="34.0" height="29.1" fill="rgba(100,150,200,0.2)" stroke="#4682B4" stroke-width="0.8"/>
<text x="182.4" y="478.8" text-anchor="middle" font-family="Arial" font-size="7" fill="#4682B4">DRYER</text>
<rect x="165.4" y="431.1" width="34.0" height="29.1" fill="rgba(100,150,200,0.2)" stroke="#4682B4" stroke-width="0.8"/>
<text x="182.4" y="448.7" text-anchor="middle" font-family="Arial" font-size="7" fill="#4682B4">WASHER</text>
<path d="M 234.3,494.3 L 257.6,494.3 L 257.6,424.3 L 243.1,424.3 A 8.7 8.7 0 0 0 234.3,433.1 Z" fill="rgba(100,150,200,0.2)" stroke="#4682B4" stroke-width="0.8"/>
<text x="246.0" y="459.3" text-anchor="middle" font-family="Arial" font-size="7" fill="#4682B4" letter-spacing="0.5" transform="rotate(-90,246.0,459.3)">COUNTER</text>
<polygon points="257.6,494.3 260.6,494.3 260.6,424.3 289.7,424.3 289.7,421.4 257.6,421.4" fill="rgba(160,160,160,0.35)" stroke="#666" stroke-width="0.8"/>
<polygon points="289.7,494.3 293.6,494.3 293.6,360.2 289.7,360.2" fill="rgba(160,160,160,0.35)" stroke="#666" stroke-width="0.8"/>
<text x="287.6" y="430.7" text-anchor="middle" font-family="Arial" font-size="8" fill="#666" transform="rotate(-90,287.6,430.7)">IW3</text>
<polygon points="429.6,505.9 433.5,505.9 433.5,360.2 429.6,360.2" fill="rgba(160,160,160,0.35)" stroke="#666" stroke-width="0.8"/>
<text x="427.5" y="436.6" text-anchor="middle" font-family="Arial" font-size="8" fill="#666" transform="rotate(-90,427.5,436.6)">IW4</text>
<polygon points="433.5,433.1 465.5,433.1 465.5,505.9 462.6,505.9 462.6,436.0 433.5,436.0" fill="rgba(160,160,160,0.35)" stroke="#666" stroke-width="0.8"/>
<polygon points="433.5,392.3 563.7,392.3 563.7,389.3 433.5,389.3" fill="rgba(160,160,160,0.35)" stroke="none"/>
<line x1="433.5" y1="392.3" x2="563.7" y2="392.3" stroke="#666" stroke-width="1.0"/>
<line x1="433.5" y1="389.3" x2="563.7" y2="389.3" stroke="#666" stroke-width="1.0"/>
<text x="498.6" y="386.3" text-anchor="middle" font-family="Arial" font-size="8" fill="#666">IW5</text>
<rect x="324.7" y="401.0" width="73.8" height="91.3" fill="rgba(100,150,200,0.2)" stroke="#4682B4" stroke-width="0.8"/>
<text x="361.6" y="473.9" text-anchor="middle" font-family="Arial" font-size="7" fill="#4682B4">KING BED</text>
<text x="361.6" y="430.2" text-anchor="middle" font-family="Arial" font-size="8" fill="#666">BEDROOM</text>
<text x="498.6" y="422.9" text-anchor="middle" font-family="Arial" font-size="8" fill="#666">OFFICE</text>
<line x1="293.6" y1="460.7" x2="429.6" y2="460.7" stroke="#999" stroke-width="0.8"/>
<line x1="293.6" y1="456.7" x2="293.6" y2="464.7" stroke="#999" stroke-width="0.8"/>
<line x1="429.6" y1="456.7" x2="429.6" y2="464.7" stroke="#999" stroke-width="0.8"/>
<text x="361.6" y="457.7" text-anchor="middle" font-family="Arial" font-size="8" fill="#999">11' 8"</text>
<line x1="316.9" y1="494.3" x2="316.9" y2="360.2" stroke="#999" stroke-width="0.8"/>
<line x1="312.9" y1="494.3" x2="320.9" y2="494.3" stroke="#999" stroke-width="0.8"/>
<line x1="312.9" y1="360.2" x2="320.9" y2="360.2" stroke="#999" stroke-width="0.8"/>
<text x="313.9" y="430.2" text-anchor="middle" font-family="Arial" font-size="8" fill="#999" transform="rotate(-90,313.9,430.2)">11' 6"</text>
<line x1="275.1" y1="494.3" x2="275.1" y2="424.3" stroke="#999" stroke-width="0.8"/>
<line x1="271.1" y1="494.3" x2="279.1" y2="494.3" stroke="#999" stroke-width="0.8"/>
<line x1="271.1" y1="424.3" x2="279.1" y2="424.3" stroke="#999" stroke-width="0.8"/>
<text x="272.1" y="462.3" text-anchor="middle" font-family="Arial" font-size="8" fill="#999" transform="rotate(-90,272.1,462.3)">CLOSET 6' 0"</text>
<line x1="448.0" y1="505.9" x2="448.0" y2="436.0" stroke="#999" stroke-width="0.8"/>
<line x1="444.0" y1="505.9" x2="452.0" y2="505.9" stroke="#999" stroke-width="0.8"/>
<line x1="444.0" y1="436.0" x2="452.0" y2="436.0" stroke="#999" stroke-width="0.8"/>
<text x="445.0" y="473.9" text-anchor="middle" font-family="Arial" font-size="8" fill="#999" transform="rotate(-90,445.0,473.9)">CLOSET 6' 0"</text>
<line x1="159.5" y1="459.3" x2="257.6" y2="459.3" stroke="#999" stroke-width="0.8"/>
<line x1="159.5" y1="455.3" x2="159.5" y2="463.3" stroke="#999" stroke-width="0.8"/>
<line x1="257.6" y1="455.3" x2="257.6" y2="463.3" stroke="#999" stroke-width="0.8"/>
<text x="208.6" y="456.3" text-anchor="middle" font-family="Arial" font-size="8" fill="#999">8' 5.0"</text>
<line x1="465.5" y1="449.6" x2="563.7" y2="449.6" stroke="#999" stroke-width="0.8"/>
<line x1="465.5" y1="445.6" x2="465.5" y2="453.6" stroke="#999" stroke-width="0.8"/>
<line x1="563.7" y1="445.6" x2="563.7" y2="453.6" stroke="#999" stroke-width="0.8"/>
<text x="514.6" y="446.6" text-anchor="middle" font-family="Arial" font-size="8" fill="#999">8' 5.00"</text>
<line x1="433.5" y1="374.8" x2="563.7" y2="374.8" stroke="#999" stroke-width="0.8"/>
<line x1="433.5" y1="370.8" x2="433.5" y2="378.8" stroke="#999" stroke-width="0.8"/>
<line x1="563.7" y1="370.8" x2="563.7" y2="378.8" stroke="#999" stroke-width="0.8"/>
<text x="498.6" y="371.8" text-anchor="middle" font-family="Arial" font-size="8" fill="#999">STORAGE 11' 2.00"</text>
<line x1="481.7" y1="392.3" x2="481.7" y2="505.9" stroke="#999" stroke-width="0.8"/>
<line x1="477.7" y1="392.3" x2="485.7" y2="392.3" stroke="#999" stroke-width="0.8"/>
<line x1="477.7" y1="505.9" x2="485.7" y2="505.9" stroke="#999" stroke-width="0.8"/>
<text x="478.7" y="452.1" text-anchor="middle" font-family="Arial" font-size="8" fill="#999" transform="rotate(-90,478.7,452.1)">9' 9.00"</text>
<line x1="202.3" y1="354.4" x2="202.3" y2="208.6" stroke="#999" stroke-width="0.8"/>
<line x1="198.3" y1="354.4" x2="206.3" y2="354.4" stroke="#999" stroke-width="0.8"/>
<line x1="198.3" y1="208.6" x2="206.3" y2="208.6" stroke="#999" stroke-width="0.8"/>
<text x="199.3" y="284.5" text-anchor="middle" font-family="Arial" font-size="8" fill="#999" transform="rotate(-90,199.3,284.5)">12' 6.0"</text>
<circle cx="163.4" cy="228.1" r="2.5" fill="#333"/>
<text x="155.4" y="222.1" text-anchor="end" font-family="Arial" font-size="9" font-weight="bold" fill="#333">C2</text>
<circle cx="163.4" cy="266.9" r="2.5" fill="#333"/>
<text x="155.4" y="262.9" text-anchor="end" font-family="Arial" font-size="9" font-weight="bold" fill="#333">C1c</text>
<circle cx="158.6" cy="279.8" r="2.5" fill="#333"/>
<text x="148.6" y="289.8" text-anchor="end" font-family="Arial" font-size="9" font-weight="bold" fill="#333">C1b</text>
<circle cx="151.8" cy="297.8" r="2.5" fill="#333"/>
<text x="143.8" y="293.8" text-anchor="end" font-family="Arial" font-size="9" font-weight="bold" fill="#333">C1a</text>
<circle cx="151.8" cy="492.3" r="2.5" fill="#333"/>
<text x="143.8" y="488.3" text-anchor="end" font-family="Arial" font-size="9" font-weight="bold" fill="#333">C1</text>
<circle cx="161.5" cy="502.0" r="2.5" fill="#333"/>
<text x="153.5" y="512.0" text-anchor="end" font-family="Arial" font-size="9" font-weight="bold" fill="#333">C0</text>
<circle cx="367.7" cy="502.0" r="2.5" fill="#333"/>
<text x="367.7" y="490.0" text-anchor="middle" font-family="Arial" font-size="9" font-weight="bold" fill="#333">C15</text>
<circle cx="380.5" cy="506.9" r="2.5" fill="#333"/>
<text x="388.5" y="500.9" text-anchor="start" font-family="Arial" font-size="9" font-weight="bold" fill="#333">C14</text>
<circle cx="398.5" cy="513.7" r="2.5" fill="#333"/>
<text x="406.5" y="525.7" text-anchor="start" font-family="Arial" font-size="9" font-weight="bold" fill="#333">C13b</text>
<circle cx="481.7" cy="513.7" r="2.5" fill="#333"/>
<text x="489.7" y="525.7" text-anchor="start" font-family="Arial" font-size="9" font-weight="bold" fill="#333">C13a</text>
<circle cx="495.3" cy="510.0" r="2.5" fill="#333"/>
<text x="505.3" y="520.0" text-anchor="start" font-family="Arial" font-size="9" font-weight="bold" fill="#333">C13</text>
<circle cx="559.2" cy="473.2" r="2.5" fill="#333"/>
<text x="567.2" y="477.2" text-anchor="start" font-family="Arial" font-size="9" font-weight="bold" fill="#333">C12</text>
<circle cx="571.4" cy="450.4" r="2.5" fill="#333"/>
<text x="579.4" y="454.4" text-anchor="start" font-family="Arial" font-size="9" font-weight="bold" fill="#333">C11</text>
<circle cx="571.4" cy="352.4" r="2.5" fill="#333"/>
<text x="581.4" y="348.4" text-anchor="start" font-family="Arial" font-size="9" font-weight="bold" fill="#333">C10a</text>
<circle cx="568.6" cy="331.1" r="2.5" fill="#333"/>
<text x="576.6" y="339.1" text-anchor="start" font-family="Arial" font-size="9" font-weight="bold" fill="#333">C9</text>
<circle cx="539.1" cy="221.0" r="2.5" fill="#333"/>
<text x="547.1" y="233.0" text-anchor="start" font-family="Arial" font-size="9" font-weight="bold" fill="#333">C8</text>
<circle cx="485.7" cy="228.1" r="2.5" fill="#333"/>
<text x="493.7" y="240.1" text-anchor="start" font-family="Arial" font-size="9" font-weight="bold" fill="#333">C7</text>
<circle cx="483.7" cy="230.0" r="2.5" fill="#333"/>
<text x="475.7" y="224.0" text-anchor="end" font-family="Arial" font-size="9" font-weight="bold" fill="#333">C6a</text>
<circle cx="278.0" cy="230.0" r="2.5" fill="#333"/>
<text x="278.0" y="244.0" text-anchor="middle" font-family="Arial" font-size="9" font-weight="bold" fill="#333">C6</text>
<circle cx="276.1" cy="228.1" r="2.5" fill="#333"/>
<text x="268.1" y="224.1" text-anchor="end" font-family="Arial" font-size="9" font-weight="bold" fill="#333">C5</text>
<circle cx="248.9" cy="200.9" r="2.5" fill="#333"/>
<text x="248.9" y="188.9" text-anchor="middle" font-family="Arial" font-size="9" font-weight="bold" fill="#333">C4</text>
<circle cx="190.6" cy="200.9" r="2.5" fill="#333"/>
<text x="180.6" y="194.9" text-anchor="end" font-family="Arial" font-size="9" font-weight="bold" fill="#333">C3</text>
<line x1="742" y1="560" x2="742" y2="524" stroke="#333" stroke-width="2" marker-end="url(#ah)"/>
<text x="742" y="518" text-anchor="middle" font-family="Arial" font-size="13" font-weight="bold">N</text>
<rect x="622.0" y="134.9" width="130" height="58" fill="white" stroke="#333" stroke-width="1"/>
<text x="687.0" y="148.9" text-anchor="middle" font-family="Arial" font-size="11" font-weight="bold" fill="#333">777.86 sq ft</text>
<text x="687.0" y="160.9" text-anchor="middle" font-family="Arial" font-size="8" fill="#666">Interior area</text>
<text x="687.0" y="174.9" text-anchor="middle" font-family="Arial" font-size="11" font-weight="bold" fill="#333">855.82 sq ft</text>
<text x="687.0" y="186.9" text-anchor="middle" font-family="Arial" font-size="8" fill="#666">Exterior area</text>
<text x="396.0" y="610" text-anchor="middle" font-family="Arial" font-size="7.5" fill="#999">Wall thickness: 8&#8243; &#8226; Outer: 855.82 sq ft &#8226; Interior: 777.86 sq ft</text>
</svg>