<svg xmlns="http://www.w3.org/2000/svg" width="792" height="612" viewBox="28.65 97.90 769.40 594.54">
<rect x="28.65" y="97.90" width="769.40" height="594.54" fill="white"/>
<defs>
  <marker id="ah" markerWidth="8" markerHeight="6" refX="8" refY="3" orient="auto"><polygon points="0 0, 8 3, 0 6" fill="#333"/></marker>
</defs>
<text x="361.6" y="151.9" text-anchor="middle" font-family="Arial" font-size="14" font-weight="bold">Parent Suite</text>
<polygon points="161.5,502.0 160.7,502.0 159.9,501.9 159.2,501.8 158.5,501.6 157.8,501.3 157.1,501.0 156.4,500.6 155.8,500.2 155.2,499.7 154.6,499.2 154.1,498.6 153.6,498.0 153.2,497.4 152.8,496.7 152.5,496.0 152.2,495.3 152.0,494.6 151.9,493.8 151.8,493.1 151.8,492.3 151.8,298.0 151.8,297.0 151.8,296.0 151.9,295.1 152.0,294.1 152.2,293.1 152.4,292.1 152.6,291.2 152.9,290.2 153.2,289.3 153.5,288.4 153.9,287.4 154.3,286.5 154.7,285.6 155.2,284.8 155.6,283.9 156.2,283.1 156.7,282.3 157.3,281.5 157.9,280.7 158.5,279.9 159.0,279.4 159.4,278.8 159.8,278.2 160.2,277.7 160.6,277.1 161.0,276.4 161.3,275.8 161.6,275.2 161.9,274.5 162.2,273.9 162.4,273.2 162.6,272.5 162.8,271.8 163.0,271.2 163.1,270.5 163.2,269.8 163.3,269.1 163.4,268.3 163.4,267.6 163.4,266.9 163.4,228.1 163.5,225.9 163.7,223.8 164.2,221.7 164.7,219.7 165.5,217.7 166.4,215.7 167.4,213.9 168.6,212.1 169.9,210.4 171.4,208.8 172.9,207.4 174.6,206.1 176.4,204.9 178.3,203.8 180.2,202.9 182.2,202.2 184.3,201.6 186.4,201.2 188.5,201.0 190.6,200.9 252.8,200.9 254.9,201.0 257.0,201.2 259.1,201.6 261.2,202.2 263.2,202.9 265.1,203.8 267.0,204.9 268.8,206.1 270.5,207.4 272.0,208.8 273.5,210.4 274.8,212.1 276.0,213.9 277.0,215.7 277.9,217.7 278.7,219.7 279.2,221.7 279.7,223.8 279.9,225.9 280.0,228.1 280.0,228.2 280.0,228.4 280.0,228.5 280.1,228.7 280.1,228.8 280.2,229.0 280.3,229.1 280.4,229.2 280.5,229.3 280.6,229.4 280.7,229.6 280.8,229.6 280.9,229.7 281.0,229.8 281.2,229.9 281.3,229.9 281.5,230.0 281.6,230.0 281.8,230.0 281.9,230.0 481.1,230.0 481.3,230.0 481.4,230.0 481.6,230.0 481.7,229.9 481.9,229.9 482.0,229.8 482.2,229.7 482.3,229.6 482.4,229.6 482.5,229.4 482.6,229.3 482.7,229.2 482.8,229.1 482.9,229.0 482.9,228.8 483.0,228.7 483.0,228.5 483.1,228.4 483.1,228.2 483.1,228.1 483.1,226.8 483.2,225.5 483.4,224.2 483.6,222.9 483.9,221.6 484.2,220.3 484.6,219.1 485.1,217.9 485.6,216.7 486.2,215.5 486.8,214.4 487.5,213.3 488.2,212.2 489.0,211.1 489.8,210.1 490.7,209.2 491.7,208.3 492.6,207.4 493.6,206.6 494.7,205.8 495.8,205.1 496.9,204.4 498.0,203.8 499.2,203.2 500.4,202.7 501.7,202.3 502.9,201.9 504.2,201.6 505.4,201.3 506.7,201.1 508.0,201.0 509.3,200.9 510.6,200.9 511.9,200.9 513.2,201.0 514.5,201.2 515.8,201.4 517.1,201.7 518.4,202.1 519.6,202.5 520.8,203.0 522.0,203.5 523.2,204.1 524.3,204.8 525.4,205.5 526.5,206.2 527.5,207.0 528.5,207.9 529.4,208.8 530.3,209.7 531.2,210.7 532.0,211.7 532.8,212.8 533.5,213.9 534.1,215.0 534.7,216.2 535.3,217.3 535.8,218.5 536.2,219.8 536.6,221.0 571.1,349.9 571.1,349.9 571.1,350.0 571.1,350.0 571.1,350.1 571.1,350.1 571.2,350.2 571.2,350.2 571.2,350.2 571.2,350.3 571.2,350.3 571.2,350.4 571.2,350.4 571.2,350.4 571.2,350.5 571.2,350.5 571.2,350.6 571.3,350.6 571.3,350.7 571.3,350.7 571.3,350.7 571.3,350.8 571.3,350.8 571.3,350.9 571.3,350.9 571.3,350.9 571.3,351.0 571.3,351.0 571.3,351.1 571.3,351.1 571.3,351.2 571.3,351.2 571.4,351.2 571.4,351.3 571.4,351.3 571.4,351.4 571.4,351.4 571.4,351.4 571.4,351.5 571.4,351.5 571.4,351.6 571.4,351.6 571.4,351.7 571.4,351.7 571.4,351.7 571.4,351.8 571.4,351.8 571.4,351.9 571.4,351.9 571.4,352.0 571.4,352.0 571.4,352.0 571.4,352.1 571.4,352.1 571.4,352.2 571.4,352.2 571.4,352.3 571.4,352.3 571.4,352.3 571.4,352.4 571.4,352.4 571.4,449.6 571.4,451.1 571.3,452.6 571.1,454.1 570.8,455.6 570.4,457.0 570.0,458.5 569.5,459.9 568.9,461.3 568.3,462.7 567.6,464.0 566.8,465.3 565.9,466.5 565.0,467.7 564.0,468.9 563.0,470.0 561.9,471.0 560.7,472.0 559.5,472.9 558.3,473.7 557.0,474.5 506.5,503.7 504.8,504.6 503.1,505.5 501.3,506.4 499.6,507.2 497.8,508.0 496.0,508.7 494.1,509.4 492.3,510.0 490.4,510.6 488.5,511.1 486.6,511.6 484.7,512.1 482.8,512.4 480.9,512.8 478.9,513.0 477.0,513.3 475.1,513.5 473.1,513.6 471.2,513.7 469.2,513.7 396.6,513.7 396.2,513.7 395.9,513.7 395.6,513.7 395.2,513.7 394.9,513.6 394.6,513.6 394.3,513.6 393.9,513.6 393.6,513.5 393.3,513.5 393.0,513.4 392.6,513.4 392.3,513.4 392.0,513.3 391.7,513.2 391.3,513.2 391.0,513.1 390.7,513.0 390.4,513.0 390.0,512.9 389.7,512.8 389.4,512.7 389.1,512.7 388.8,512.6 388.5,512.5 388.1,512.4 387.8,512.3 387.5,512.2 387.2,512.0 386.9,511.9 386.6,511.8 386.3,511.7 386.0,511.6 385.7,511.4 385.4,511.3 385.1,511.2 384.8,511.0 384.5,510.9 384.2,510.7 383.9,510.6 383.6,510.4 383.3,510.3 383.0,510.1 382.7,510.0 382.5,509.8 382.2,509.6 381.9,509.5 381.6,509.3 381.3,509.1 381.1,508.9 380.8,508.7 380.5,508.5 380.3,508.3 380.0,508.1 379.7,507.9 379.5,507.7 379.2,507.5 379.0,507.3 378.7,507.1 378.5,506.9 378.3,506.7 378.1,506.6 377.9,506.4 377.7,506.3 377.6,506.1 377.4,506.0 377.2,505.9 377.0,505.7 376.8,505.6 376.6,505.5 376.4,505.3 376.2,505.2 376.0,505.1 375.8,504.9 375.6,504.8 375.4,504.7 375.2,504.6 375.0,504.5 374.8,504.4 374.6,504.2 374.4,504.1 374.1,504.0 373.9,503.9 373.7,503.8 373.5,503.7 373.3,503.6 373.1,503.5 372.9,503.5 372.6,503.4 372.4,503.3 372.2,503.2 372.0,503.1 371.7,503.0 371.5,503.0 371.3,502.9 371.1,502.8 370.8,502.8 370.6,502.7 370.4,502.6 370.2,502.6 369.9,502.5 369.7,502.5 369.5,502.4 369.2,502.4 369.0,502.3 368.8,502.3 368.5,502.3 368.3,502.2 368.1,502.2 367.8,502.2 367.6,502.1 367.4,502.1 367.1,502.1 366.9,502.1 366.7,502.1 366.4,502.1 366.2,502.0 365.9,502.0 365.7,502.0 365.5,502.0" fill="rgba(160,160,160,0.35)" stroke="none"/>
<polygon points="365.5,494.3 365.8,494.3 366.1,494.3 366.5,494.3 366.8,494.3 367.1,494.3 367.4,494.3 367.8,494.4 368.1,494.4 368.4,494.4 368.8,494.5 369.1,494.5 369.4,494.5 369.7,494.6 370.1,494.6 370.4,494.7 370.7,494.8 371.0,494.8 371.4,494.9 371.7,495.0 372.0,495.0 372.3,495.1 372.6,495.2 373.0,495.3 373.3,495.4 373.6,495.5 373.9,495.6 374.2,495.7 374.5,495.8 374.8,495.9 375.1,496.0 375.4,496.1 375.8,496.2 376.1,496.4 376.4,496.5 376.7,496.6 377.0,496.8 377.3,496.9 377.6,497.0 377.9,497.2 378.1,497.3 378.4,497.5 378.7,497.7 379.0,497.8 379.3,498.0 379.6,498.1 379.9,498.3 380.1,498.5 380.4,498.7 380.7,498.8 381.0,499.0 381.2,499.2 381.5,499.4 381.8,499.6 382.0,499.8 382.3,500.0 382.6,500.2 382.8,500.4 383.1,500.6 383.3,500.8 383.6,501.0 383.8,501.2 383.9,501.3 384.1,501.5 384.3,501.6 384.5,501.8 384.7,501.9 384.9,502.1 385.1,502.2 385.2,502.4 385.4,502.5 385.6,502.6 385.8,502.7 386.0,502.9 386.2,503.0 386.4,503.1 386.6,503.2 386.8,503.4 387.1,503.5 387.3,503.6 387.5,503.7 387.7,503.8 387.9,503.9 388.1,504.0 388.3,504.1 388.5,504.2 388.7,504.3 389.0,504.4 389.2,504.5 389.4,504.6 389.6,504.7 389.8,504.7 390.1,504.8 390.3,504.9 390.5,505.0 390.7,505.0 391.0,505.1 391.2,505.2 391.4,505.2 391.7,505.3 391.9,505.4 392.1,505.4 392.3,505.5 392.6,505.5 392.8,505.6 393.0,505.6 393.3,505.6 393.5,505.7 393.7,505.7 394.0,505.7 394.2,505.8 394.4,505.8 394.7,505.8 394.9,505.8 395.1,505.9 395.4,505.9 395.6,505.9 395.9,505.9 396.1,505.9 396.3,505.9 396.6,505.9 469.2,505.9 470.9,505.9 472.7,505.8 474.4,505.7 476.2,505.5 477.9,505.3 479.7,505.1 481.4,504.8 483.1,504.5 484.8,504.1 486.5,503.6 488.2,503.2 489.9,502.6 491.5,502.1 493.2,501.5 494.8,500.8 496.4,500.1 498.0,499.4 499.6,498.6 501.1,497.8 502.6,497.0 553.1,467.8 554.1,467.2 555.0,466.6 555.8,465.9 556.7,465.2 557.5,464.5 558.2,463.7 559.0,462.8 559.6,461.9 560.3,461.0 560.8,460.1 561.4,459.1 561.8,458.1 562.3,457.1 562.6,456.1 562.9,455.0 563.2,453.9 563.4,452.9 563.5,451.8 563.6,450.7 563.7,449.6 563.7,352.4 563.7,352.4 563.7,352.4 563.7,352.4 563.7,352.4 563.7,352.4 563.7,352.4 563.7,352.4 563.7,352.4 563.7,352.3 563.7,352.3 563.7,352.3 563.7,352.3 563.7,352.3 563.6,352.3 563.6,352.3 563.6,352.3 563.6,352.3 563.6,352.3 563.6,352.3 563.6,352.3 563.6,352.2 563.6,352.2 563.6,352.2 563.6,352.2 563.6,352.2 563.6,352.2 563.6,352.2 563.6,352.2 563.6,352.2 563.6,352.2 563.6,352.2 563.6,352.2 563.6,352.1 563.6,352.1 563.6,352.1 563.6,352.1 563.6,352.1 563.6,352.1 563.6,352.1 563.6,352.1 563.6,352.1 563.6,352.1 563.6,352.1 563.6,352.1 563.6,352.0 563.6,352.0 563.6,352.0 563.6,352.0 563.6,352.0 563.6,352.0 563.6,352.0 563.6,352.0 563.6,352.0 563.6,352.0 563.6,352.0 563.6,352.0 563.6,351.9 563.6,351.9 563.6,351.9 563.6,351.9 529.1,223.0 528.8,222.2 528.5,221.3 528.1,220.4 527.8,219.6 527.3,218.7 526.9,217.9 526.3,217.1 525.8,216.4 525.2,215.7 524.6,214.9 524.0,214.3 523.3,213.6 522.6,213.0 521.8,212.5 521.1,211.9 520.3,211.4 519.5,211.0 518.7,210.5 517.8,210.2 516.9,209.8 516.1,209.5 515.2,209.3 514.2,209.1 513.3,208.9 512.4,208.8 511.5,208.7 510.5,208.6 509.6,208.7 508.7,208.7 507.8,208.8 506.8,209.0 505.9,209.1 505.0,209.4 504.1,209.6 503.2,210.0 502.4,210.3 501.5,210.7 500.7,211.2 499.9,211.6 499.1,212.2 498.4,212.7 497.7,213.3 497.0,213.9 496.3,214.6 495.7,215.3 495.1,216.0 494.5,216.7 494.0,217.5 493.5,218.3 493.1,219.1 492.6,219.9 492.3,220.8 491.9,221.7 491.7,222.6 491.4,223.5 491.2,224.4 491.1,225.3 490.9,226.2 490.9,227.1 490.9,228.1 490.8,228.8 490.7,229.6 490.6,230.3 490.4,231.1 490.1,231.8 489.8,232.5 489.4,233.2 489.0,233.8 488.5,234.4 488.0,234.9 487.5,235.5 486.9,235.9 486.2,236.4 485.6,236.7 484.9,237.1 484.1,237.3 483.4,237.5 482.7,237.7 481.9,237.8 481.1,237.8 281.9,237.8 281.2,237.8 280.4,237.7 279.7,237.5 278.9,237.3 278.2,237.1 277.5,236.7 276.9,236.4 276.2,235.9 275.6,235.5 275.1,234.9 274.5,234.4 274.1,233.8 273.6,233.2 273.3,232.5 273.0,231.8 272.7,231.1 272.5,230.3 272.3,229.6 272.2,228.8 272.2,228.1 272.2,226.6 272.0,225.0 271.7,223.5 271.3,222.1 270.7,220.6 270.1,219.3 269.4,217.9 268.5,216.7 267.6,215.5 266.5,214.3 265.4,213.3 264.2,212.4 262.9,211.5 261.6,210.8 260.2,210.1 258.8,209.6 257.3,209.2 255.8,208.9 254.3,208.7 252.8,208.6 190.6,208.6 189.1,208.7 187.6,208.9 186.1,209.2 184.6,209.6 183.2,210.1 181.8,210.8 180.5,211.5 179.2,212.4 178.0,213.3 176.9,214.3 175.8,215.5 174.9,216.7 174.0,217.9 173.3,219.3 172.7,220.6 172.1,222.1 171.7,223.5 171.4,225.0 171.2,226.6 171.2,228.1 171.2,266.9 171.2,267.9 171.1,268.9 171.0,269.9 170.9,270.9 170.7,271.8 170.5,272.8 170.3,273.8 170.1,274.7 169.8,275.7 169.4,276.6 169.1,277.5 168.7,278.4 168.2,279.3 167.8,280.2 167.3,281.0 166.8,281.9 166.2,282.7 165.6,283.5 165.0,284.3 164.4,285.0 163.9,285.6 163.5,286.1 163.1,286.7 162.7,287.3 162.3,287.9 162.0,288.5 161.6,289.1 161.3,289.8 161.0,290.4 160.8,291.1 160.5,291.8 160.3,292.4 160.1,293.1 160.0,293.8 159.8,294.5 159.7,295.2 159.6,295.9 159.6,296.6 159.5,297.3 159.5,298.0 159.5,492.3 159.5,492.5 159.5,492.6 159.6,492.8 159.6,492.9 159.7,493.1 159.7,493.2 159.8,493.3 159.9,493.5 160.0,493.6 160.1,493.7 160.2,493.8 160.3,493.9 160.5,494.0 160.6,494.0 160.7,494.1 160.9,494.2 161.0,494.2 161.2,494.2 161.3,494.2 161.5,494.3" fill="white" stroke="none"/>
<polyline points="161.5,502.0 160.7,502.0 159.9,501.9 159.2,501.8 158.5,501.6 157.8,501.3 157.1,501.0 156.4,500.6 155.8,500.2 155.2,499.7 154.6,499.2 154.1,498.6 153.6,498.0 153.2,497.4 152.8,496.7 152.5,496.0 152.2,495.3 152.0,494.6 151.9,493.8 151.8,493.1 151.8,492.3" fill="none" stroke="#333" stroke-width="1.5" stroke-linecap="round"/>
<line x1="151.8" y1="492.3" x2="151.8" y2="298.0" stroke="#333" stroke-width="1.5"/>
<polyline points="151.8,298.0 151.8,297.0 151.8,296.0 151.9,295.1 152.0,294.1 152.2,293.1 152.4,292.1 152.6,291.2 152.9,290.2 153.2,289.3 153.5,288.4 153.9,287.4 154.3,286.5 154.7,285.6 155.2,284.8 155.6,283.9 156.2,283.1 156.7,282.3 157.3,281.5 157.9,280.7 158.5,279.9" fill="none" stroke="#333" stroke-width="1.5" stroke-linecap="round"/>
<polyline points="158.5,279.9 159.0,279.4 159.4,278.8 159.8,278.2 160.2,277.7 160.6,277.1 161.0,276.4 161.3,275.8 161.6,275.2 161.9,274.5 162.2,273.9 162.4,273.2 162.6,272.5 162.8,271.8 163.0,271.2 163.1,270.5 163.2,269.8 163.3,269.1 163.4,268.3 163.4,267.6 163.4,266.9" fill="none" stroke="#333" stroke-width="1.5" stroke-linecap="round"/>
<line x1="163.4" y1="266.9" x2="163.4" y2="228.1" stroke="#333" stroke-width="1.5"/>
<polyline points="163.4,228.1 163.5,225.9 163.7,223.8 164.2,221.7 164.7,219.7 165.5,217.7 166.4,215.7 167.4,213.9 168.6,212.1 169.9,210.4 171.4,208.8 172.9,207.4 174.6,206.1 176.4,204.9 178.3,203.8 180.2,202.9 182.2,202.2 184.3,201.6 186.4,201.2 188.5,201.0 190.6,200.9" fill="none" stroke="#333" stroke-width="1.5" stroke-linecap="round"/>
<line x1="190.6" y1="200.9" x2="252.8" y2="200.9" stroke="#333" stroke-width="1.5"/>
<polyline points="252.8,200.9 254.9,201.0 257.0,201.2 259.1,201.6 261.2,202.2 263.2,202.9 265.1,203.8 267.0,204.9 268.8,206.1 270.5,207.4 272.0,208.8 273.5,210.4 274.8,212.1 276.0,213.9 277.0,215.7 277.9,217.7 278.7,219.7 279.2,221.7 279.7,223.8 279.9,225.9 280.0,228.1" fill="none" stroke="#333" stroke-width="1.5" stroke-linecap="round"/>
<polyline points="280.0,228.1 280.0,228.2 280.0,228.4 280.0,228.5 280.1,228.7 280.1,228.8 280.2,229.0 280.3,229.1 280.4,229.2 280.5,229.3 280.6,229.4 280.7,229.6 280.8,229.6 280.9,229.7 281.0,229.8 281.2,229.9 281.3,229.9 281.5,230.0 281.6,230.0 281.8,230.0 281.9,230.0" fill="none" stroke="#333" stroke-width="1.5" stroke-linecap="round"/>
<line x1="281.9" y1="230.0" x2="481.1" y2="230.0" stroke="#333" stroke-width="1.5"/>
<polyline points="481.1,230.0 481.3,230.0 481.4,230.0 481.6,230.0 481.7,229.9 481.9,229.9 482.0,229.8 482.2,229.7 482.3,229.6 482.4,229.6 482.5,229.4 482.6,229.3 482.7,229.2 482.8,229.1 482.9,229.0 482.9,228.8 483.0,228.7 483.0,228.5 483.1,228.4 483.1,228.2 483.1,228.1" fill="none" stroke="#333" stroke-width="1.5" stroke-linecap="round"/>
<polyline points="483.1,228.1 483.1,226.8 483.2,225.5 483.4,224.2 483.6,222.9 483.9,221.6 484.2,220.3 484.6,219.1 485.1,217.9 485.6,216.7 486.2,215.5 486.8,214.4 487.5,213.3 488.2,212.2 489.0,211.1 489.8,210.1 490.7,209.2 491.7,208.3 492.6,207.4 493.6,206.6 494.7,205.8 495.8,205.1 496.9,204.4 498.0,203.8 499.2,203.2 500.4,202.7 501.7,202.3 502.9,201.9 504.2,201.6 505.4,201.3 506.7,201.1 508.0,201.0 509.3,200.9 510.6,200.9 511.9,200.9 513.2,201.0 514.5,201.2 515.8,201.4 517.1,201.7 518.4,202.1 519.6,202.5 520.8,203.0 522.0,203.5 523.2,204.1 524.3,204.8 525.4,205.5 526.5,206.2 527.5,207.0 528.5,207.9 529.4,208.8 530.3,209.7 531.2,210.7 532.0,211.7 532.8,212.8 533.5,213.9 534.1,215.0 534.7,216.2 535.3,217.3 535.8,218.5 536.2,219.8 536.6,221.0" fill="none" stroke="#333" stroke-width="1.5" stroke-linecap="round"/>
<line x1="536.6" y1="221.0" x2="571.1" y2="349.9" stroke="#333" stroke-width="1.5"/>
<polyline points="571.1,349.9 571.1,349.9 571.1,350.0 571.1,350.0 571.1,350.1 571.1,350.1 571.2,350.2 571.2,350.2 571.2,350.2 571.2,350.3 571.2,350.3 571.2,350.4 571.2,350.4 571.2,350.4 571.2,350.5 571.2,350.5 571.2,350.6 571.3,350.6 571.3,350.7 571.3,350.7 571.3,350.7 571.3,350.8 571.3,350.8 571.3,350.9 571.3,350.9 571.3,350.9 571.3,351.0 571.3,351.0 571.3,351.1 571.3,351.1 571.3,351.2 571.3,351.2 571.4,351.2 571.4,351.3 571.4,351.3 571.4,351.4 571.4,351.4 571.4,351.4 571.4,351.5 571.4,351.5 571.4,351.6 571.4,351.6 571.4,351.7 571.4,351.7 571.4,351.7 571.4,351.8 571.4,351.8 571.4,351.9 571.4,351.9 571.4,352.0 571.4,352.0 571.4,352.0 571.4,352.1 571.4,352.1 571.4,352.2 571.4,352.2 571.4,352.3 571.4,352.3 571.4,352.3 571.4,352.4 571.4,352.4" fill="none" stroke="#333" stroke-width="1.5" stroke-linecap="round"/>
<line x1="571.4" y1="352.4" x2="571.4" y2="449.6" stroke="#333" stroke-width="1.5"/>
<polyline points="571.4,449.6 571.4,451.1 571.3,452.6 571.1,454.1 570.8,455.6 570.4,457.0 570.0,458.5 569.5,459.9 568.9,461.3 568.3,462.7 567.6,464.0 566.8,465.3 565.9,466.5 565.0,467.7 564.0,468.9 563.0,470.0 561.9,471.0 560.7,472.0 559.5,472.9 558.3,473.7 557.0,474.5" fill="none" stroke="#333" stroke-width="1.5" stroke-linecap="round"/>
<line x1="557.0" y1="474.5" x2="506.5" y2="503.7" stroke="#333" stroke-width="1.5"/>
<polyline points="506.5,503.7 504.8,504.6 503.1,505.5 501.3,506.4 499.6,507.2 497.8,508.0 496.0,508.7 494.1,509.4 492.3,510.0 490.4,510.6 488.5,511.1 486.6,511.6 484.7,512.1 482.8,512.4 480.9,512.8 478.9,513.0 477.0,513.3 475.1,513.5 473.1,513.6 471.2,513.7 469.2,513.7" fill="none" stroke="#333" stroke-width="1.5" stroke-linecap="round"/>
<line x1="469.2" y1="513.7" x2="396.6" y2="513.7" stroke="#333" stroke-width="1.5"/>
<polyline points="396.6,513.7 396.2,513.7 395.9,513.7 395.6,513.7 395.2,513.7 394.9,513.6 394.6,513.6 394.3,513.6 393.9,513.6 393.6,513.5 393.3,513.5 393.0,513.4 392.6,513.4 392.3,513.4 392.0,513.3 391.7,513.2 391.3,513.2 391.0,513.1 390.7,513.0 390.4,513.0 390.0,512.9 389.7,512.8 389.4,512.7 389.1,512.7 388.8,512.6 388.5,512.5 388.1,512.4 387.8,512.3 387.5,512.2 387.2,512.0 386.9,511.9 386.6,511.8 386.3,511.7 386.0,511.6 385.7,511.4 385.4,511.3 385.1,511.2 384.8,511.0 384.5,510.9 384.2,510.7 383.9,510.6 383.6,510.4 383.3,510.3 383.0,510.1 382.7,510.0 382.5,509.8 382.2,509.6 381.9,509.5 381.6,509.3 381.3,509.1 381.1,508.9 380.8,508.7 380.5,508.5 380.3,508.3 380.0,508.1 379.7,507.9 379.5,507.7 379.2,507.5 379.0,507.3 378.7,507.1 378.5,506.9" fill="none" stroke="#333" stroke-width="1.5" stroke-linecap="round"/>
<polyline points="378.5,506.9 378.3,506.7 378.1,506.6 377.9,506.4 377.7,506.3 377.6,506.1 377.4,506.0 377.2,505.9 377.0,505.7 376.8,505.6 376.6,505.5 376.4,505.3 376.2,505.2 376.0,505.1 375.8,504.9 375.6,504.8 375.4,504.7 375.2,504.6 375.0,504.5 374.8,504.4 374.6,504.2 374.4,504.1 374.1,504.0 373.9,503.9 373.7,503.8 373.5,503.7 373.3,503.6 373.1,503.5 372.9,503.5 372.6,503.4 372.4,503.3 372.2,503.2 372.0,503.1 371.7,503.0 371.5,503.0 371.3,502.9 371.1,502.8 370.8,502.8 370.6,502.7 370.4,502.6 370.2,502.6 369.9,502.5 369.7,502.5 369.5,502.4 369.2,502.4 369.0,502.3 368.8,502.3 368.5,502.3 368.3,502.2 368.1,502.2 367.8,502.2 367.6,502.1 367.4,502.1 367.1,502.1 366.9,502.1 366.7,502.1 366.4,502.1 366.2,502.0 365.9,502.0 365.7,502.0 365.5,502.0" fill="none" stroke="#333" stroke-width="1.5" stroke-linecap="round"/>
<line x1="365.5" y1="502.0" x2="161.5" y2="502.0" stroke="#333" stroke-width="1.5"/>
<polyline points="161.5,494.3 161.3,494.2 161.2,494.2 161.0,494.2 160.9,494.2 160.7,494.1 160.6,494.0 160.5,494.0 160.3,493.9 160.2,493.8 160.1,493.7 160.0,493.6 159.9,493.5 159.8,493.3 159.7,493.2 159.7,493.1 159.6,492.9 159.6,492.8 159.5,492.6 159.5,492.5 159.5,492.3" fill="none" stroke="#666" stroke-width="1.0" stroke-linecap="round"/>
<line x1="159.5" y1="492.3" x2="159.5" y2="298.0" stroke="#666" stroke-width="1.0"/>
<polyline points="159.5,298.0 159.5,297.3 159.6,296.6 159.6,295.9 159.7,295.2 159.8,294.5 160.0,293.8 160.1,293.1 160.3,292.4 160.5,291.8 160.8,291.1 161.0,290.4 161.3,289.8 161.6,289.1 162.0,288.5 162.3,287.9 162.7,287.3 163.1,286.7 163.5,286.1 163.9,285.6 164.4,285.0" fill="none" stroke="#666" stroke-width="1.0" stroke-linecap="round"/>
<polyline points="164.4,285.0 165.0,284.3 165.6,283.5 166.2,282.7 166.8,281.9 167.3,281.0 167.8,280.2 168.2,279.3 168.7,278.4 169.1,277.5 169.4,276.6 169.8,275.7 170.1,274.7 170.3,273.8 170.5,272.8 170.7,271.8 170.9,270.9 171.0,269.9 171.1,268.9 171.2,267.9 171.2,266.9" fill="none" stroke="#666" stroke-width="1.0" stroke-linecap="round"/>
<line x1="171.2" y1="266.9" x2="171.2" y2="228.1" stroke="#666" stroke-width="1.0"/>
<polyline points="171.2,228.1 171.2,226.6 171.4,225.0 171.7,223.5 172.1,222.1 172.7,220.6 173.3,219.3 174.0,217.9 174.9,216.7 175.8,215.5 176.9,214.3 178.0,213.3 179.2,212.4 180.5,211.5 181.8,210.8 183.2,210.1 184.6,209.6 186.1,209.2 187.6,208.9 189.1,208.7 190.6,208.6" fill="none" stroke="#666" stroke-width="1.0" stroke-linecap="round"/>
<line x1="190.6" y1="208.6" x2="252.8" y2="208.6" stroke="#666" stroke-width="1.0"/>
<polyline points="252.8,208.6 254.3,208.7 255.8,208.9 257.3,209.2 258.8,209.6 260.2,210.1 261.6,210.8 262.9,211.5 264.2,212.4 265.4,213.3 266.5,214.3 267.6,215.5 268.5,216.7 269.4,217.9 270.1,219.3 270.7,220.6 271.3,222.1 271.7,223.5 272.0,225.0 272.2,226.6 272.2,228.1" fill="none" stroke="#666" stroke-width="1.0" stroke-linecap="round"/>
<polyline points="272.2,228.1 272.2,228.8 272.3,229.6 272.5,230.3 272.7,231.1 273.0,231.8 273.3,232.5 273.6,233.2 274.1,233.8 274.5,234.4 275.1,234.9 275.6,235.5 276.2,235.9 276.9,236.4 277.5,236.7 278.2,237.1 278.9,237.3 279.7,237.5 280.4,237.7 281.2,237.8 281.9,237.8" fill="none" stroke="#666" stroke-width="1.0" stroke-linecap="round"/>
<line x1="281.9" y1="237.8" x2="481.1" y2="237.8" stroke="#666" stroke-width="1.0"/>
<polyline points="481.1,237.8 481.9,237.8 482.7,237.7 483.4,237.5 484.1,237.3 484.9,237.1 485.6,236.7 486.2,236.4 486.9,235.9 487.5,235.5 488.0,234.9 488.5,234.4 489.0,233.8 489.4,233.2 489.8,232.5 490.1,231.8 490.4,231.1 490.6,230.3 490.7,229.6 490.8,228.8 490.9,228.1" fill="none" stroke="#666" stroke-width="1.0" stroke-linecap="round"/>
<polyline points="490.9,228.1 490.9,227.1 490.9,226.2 491.1,225.3 491.2,224.4 491.4,223.5 491.7,222.6 491.9,221.7 492.3,220.8 492.6,219.9 493.1,219.1 493.5,218.3 494.0,217.5 494.5,216.7 495.1,216.0 495.7,215.3 496.3,214.6 497.0,213.9 497.7,213.3 498.4,212.7 499.1,212.2 499.9,211.6 500.7,211.2 501.5,210.7 502.4,210.3 503.2,210.0 504.1,209.6 505.0,209.4 505.9,209.1 506.8,209.0 507.8,208.8 508.7,208.7 509.6,208.7 510.5,208.6 511.5,208.7 512.4,208.8 513.3,208.9 514.2,209.1 515.2,209.3 516.1,209.5 516.9,209.8 517.8,210.2 518.7,210.5 519.5,211.0 520.3,211.4 521.1,211.9 521.8,212.5 522.6,213.0 523.3,213.6 524.0,214.3 524.6,214.9 525.2,215.7 525.8,216.4 526.3,217.1 526.9,217.9 527.3,218.7 527.8,219.6 528.1,220.4 528.5,221.3 528.8,222.2 529.1,223.0" fill="none" stroke="#666" stroke-width="1.0" stroke-linecap="round"/>
<line x1="529.1" y1="223.0" x2="563.6" y2="351.9" stroke="#666" stroke-width="1.0"/>
<polyline points="563.6,351.9 563.6,351.9 563.6,351.9 563.6,351.9 563.6,352.0 563.6,352.0 563.6,352.0 563.6,352.0 563.6,352.0 563.6,352.0 563.6,352.0 563.6,352.0 563.6,352.0 563.6,352.0 563.6,352.0 563.6,352.0 563.6,352.1 563.6,352.1 563.6,352.1 563.6,352.1 563.6,352.1 563.6,352.1 563.6,352.1 563.6,352.1 563.6,352.1 563.6,352.1 563.6,352.1 563.6,352.1 563.6,352.2 563.6,352.2 563.6,352.2 563.6,352.2 563.6,352.2 563.6,352.2 563.6,352.2 563.6,352.2 563.6,352.2 563.6,352.2 563.6,352.2 563.6,352.2 563.6,352.3 563.6,352.3 563.6,352.3 563.6,352.3 563.6,352.3 563.6,352.3 563.6,352.3 563.7,352.3 563.7,352.3 563.7,352.3 563.7,352.3 563.7,352.3 563.7,352.4 563.7,352.4 563.7,352.4 563.7,352.4 563.7,352.4 563.7,352.4 563.7,352.4 563.7,352.4 563.7,352.4" fill="none" stroke="#666" stroke-width="1.0" stroke-linecap="round"/>
<line x1="563.7" y1="352.4" x2="563.7" y2="449.6" stroke="#666" stroke-width="1.0"/>
<polyline points="563.7,449.6 563.6,450.7 563.5,451.8 563.4,452.9 563.2,453.9 562.9,455.0 562.6,456.1 562.3,457.1 561.8,458.1 561.4,459.1 560.8,460.1 560.3,461.0 559.6,461.9 559.0,462.8 558.2,463.7 557.5,464.5 556.7,465.2 555.8,465.9 555.0,466.6 554.1,467.2 553.1,467.8" fill="none" stroke="#666" stroke-width="1.0" stroke-linecap="round"/>
<line x1="553.1" y1="467.8" x2="502.6" y2="497.0" stroke="#666" stroke-width="1.0"/>
<polyline points="502.6,497.0 501.1,497.8 499.6,498.6 498.0,499.4 496.4,500.1 494.8,500.8 493.2,501.5 491.5,502.1 489.9,502.6 488.2,503.2 486.5,503.6 484.8,504.1 483.1,504.5 481.4,504.8 479.7,505.1 477.9,505.3 476.2,505.5 474.4,505.7 472.7,505.8 470.9,505.9 469.2,505.9" fill="none" stroke="#666" stroke-width="1.0" stroke-linecap="round"/>
<line x1="469.2" y1="505.9" x2="396.6" y2="505.9" stroke="#666" stroke-width="1.0"/>
<polyline points="396.6,505.9 396.3,505.9 396.1,505.9 395.9,505.9 395.6,505.9 395.4,505.9 395.1,505.9 394.9,505.8 394.7,505.8 394.4,505.8 394.2,505.8 394.0,505.7 393.7,505.7 393.5,505.7 393.3,505.6 393.0,505.6 392.8,505.6 392.6,505.5 392.3,505.5 392.1,505.4 391.9,505.4 391.7,505.3 391.4,505.2 391.2,505.2 391.0,505.1 390.7,505.0 390.5,505.0 390.3,504.9 390.1,504.8 389.8,504.7 389.6,504.7 389.4,504.6 389.2,504.5 389.0,504.4 388.7,504.3 388.5,504.2 388.3,504.1 388.1,504.0 387.9,503.9 387.7,503.8 387.5,503.7 387.3,503.6 387.1,503.5 386.8,503.4 386.6,503.2 386.4,503.1 386.2,503.0 386.0,502.9 385.8,502.7 385.6,502.6 385.4,502.5 385.2,502.4 385.1,502.2 384.9,502.1 384.7,501.9 384.5,501.8 384.3,501.6 384.1,501.5 383.9,501.3 383.8,501.2 383.6,501.0" fill="none" stroke="#666" stroke-width="1.0" stroke-linecap="round"/>
<polyline points="383.6,501.0 383.3,500.8 383.1,500.6 382.8,500.4 382.6,500.2 382.3,500.0 382.0,499.8 381.8,499.6 381.5,499.4 381.2,499.2 381.0,499.0 380.7,498.8 380.4,498.7 380.1,498.5 379.9,498.3 379.6,498.1 379.3,498.0 379.0,497.8 378.7,497.7 378.4,497.5 378.1,497.3 377.9,497.2 377.6,497.0 377.3,496.9 377.0,496.8 376.7,496.6 376.4,496.5 376.1,496.4 375.8,496.2 375.4,496.1 375.1,496.0 374.8,495.9 374.5,495.8 374.2,495.7 373.9,495.6 373.6,495.5 373.3,495.4 373.0,495.3 372.6,495.2 372.3,495.1 372.0,495.0 371.7,495.0 371.4,494.9 371.0,494.8 370.7,494.8 370.4,494.7 370.1,494.6 369.7,494.6 369.4,494.5 369.1,494.5 368.8,494.5 368.4,494.4 368.1,494.4 367.8,494.4 367.4,494.3 367.1,494.3 366.8,494.3 366.5,494.3 366.1,494.3 365.8,494.3 365.5,494.3" fill="none" stroke="#666" stroke-width="1.0" stroke-linecap="round"/>
<line x1="365.5" y1="494.3" x2="161.5" y2="494.3" stroke="#666" stroke-width="1.0"/>
<polygon points="159.5,360.2 356.7,360.2 356.7,354.4 159.5,354.4" fill="rgba(160,160,160,0.35)" stroke="none"/>
<polygon points="393.6,360.2 563.7,360.2 563.7,354.4 393.6,354.4" fill="rgba(160,160,160,0.35)" stroke="none"/>
<line x1="159.5" y1="359.7" x2="356.7" y2="359.7" stroke="#666" stroke-width="1.0"/>
<line x1="393.6" y1="359.7" x2="563.7" y2="359.7" stroke="#666" stroke-width="1.0"/>
<line x1="159.5" y1="354.9" x2="356.7" y2="354.9" stroke="#666" stroke-width="1.0"/>
<line x1="393.6" y1="354.9" x2="563.7" y2="354.9" stroke="#666" stroke-width="1.0"/>
<rect x="356.7" y="354.4" width="1.0" height="5.8" fill="darkred" stroke="none"/>
<rect x="392.7" y="354.4" width="1.0" height="5.8" fill="darkred" stroke="none"/>
<polygon points="235.3,354.4 241.1,354.4 241.1,316.5 235.3,316.5" fill="rgba(160,160,160,0.35)" stroke="none"/>
<polygon points="235.3,279.6 241.1,279.6 241.1,208.6 235.3,208.6" fill="rgba(160,160,160,0.35)" stroke="none"/>
<line x1="235.8" y1="354.4" x2="235.8" y2="316.5" stroke="#666" stroke-width="1.0"/>
<line x1="235.8" y1="279.6" x2="235.8" y2="208.6" stroke="#666" stroke-width="1.0"/>
<line x1="240.6" y1="354.4" x2="240.6" y2="316.5" stroke="#666" stroke-width="1.0"/>
<line x1="240.6" y1="279.6" x2="240.6" y2="208.6" stroke="#666" stroke-width="1.0"/>
<rect x="235.3" y="315.5" width="5.8" height="1.0" fill="darkred" stroke="none"/>
<rect x="235.3" y="279.6" width="5.8" height="1.0" fill="darkred" stroke="none"/>
<polygon points="170.3,273.7 195.5,273.7 195.5,272.8 170.6,272.8" fill="rgba(160,160,160,0.35)" stroke="none"/>
<polygon points="232.4,273.7 235.3,273.7 235.3,272.8 232.4,272.8" fill="rgba(160,160,160,0.35)" stroke="none"/>
<line x1="170.3" y1="273.2" x2="195.5" y2="273.2" stroke="#666" stroke-width="1.0"/>
<line x1="232.4" y1="273.2" x2="235.3" y2="273.2" stroke="#666" stroke-width="1.0"/>
<line x1="170.6" y1="273.3" x2="195.5" y2="273.3" stroke="#666" stroke-width="1.0"/>
<line x1="232.4" y1="273.3" x2="235.3" y2="273.3" stroke="#666" stroke-width="1.0"/>
<rect x="195.5" y="272.8" width="1.0" height="1.0" fill="darkred" stroke="none"/>
<rect x="231.4" y="272.8" width="1.0" height="1.0" fill="darkred" stroke="none"/>
<line x1="382.5" y1="354.4" x2="382.5" y2="237.8" stroke="#999" stroke-width="0.8"/>
<line x1="378.5" y1="354.4" x2="386.5" y2="354.4" stroke="#999" stroke-width="0.8"/>
<line x1="378.5" y1="237.8" x2="386.5" y2="237.8" stroke="#999" stroke-width="0.8"/>
<text x="379.5" y="299.1" text-anchor="middle" font-family="Arial" font-size="8" fill="#999" transform="rotate(-90,379.5,299.1)">10' 0"</text>
<line x1="241.1" y1="285.5" x2="545.8" y2="285.5" stroke="#999" stroke-width="0.8"/>
<line x1="241.1" y1="281.5" x2="241.1" y2="289.5" stroke="#999" stroke-width="0.8"/>
<line x1="545.8" y1="281.5" x2="545.8" y2="289.5" stroke="#999" stroke-width="0.8"/>
<text x="346.8" y="282.5" text-anchor="middle" font-family="Arial" font-size="8" fill="#999">26' 1.6"</text>
<rect x="165.4" y="461.2" width="34.0" height="29.1" fill="rgba(100,150,200,0.2)" stroke="#4682B4" stroke-width="0.8"/>
<text x="182.4" y="478.8" text-anchor="middle" font-family="Arial" font-size="7" fill="#4682B4">DRYER</text>
<rect x="165.4" y="431.1" width="34.0" height="29.1" fill="rgba(100,150,200,0.2)" stroke="#4682B4" stroke-width="0.8"/>
<text x="182.4" y="448.7" text-anchor="middle" font-family="Arial" font-size="7" fill="#4682B4">WASHER</text>
<path d="M 234.3,494.3 L 257.6,494.3 L 257.6,424.3 L 243.1,424.3 A 8.7 8.7 0 0 0 234.3,433.1 Z" fill="rgba(100,150,200,0.2)" stroke="#4682B4" stroke-width="0.8"/>
<text x="246.0" y="459.3" text-anchor="middle" font-family="Arial" font-size="7" fill="#4682B4" letter-spacing="0.5" transform="rotate(-90,246.0,459.3)">COUNTER</text>
<circle cx="254.7" cy="222.6" r="13.6" fill="rgba(100,150,200,0.2)" stroke="#4682B4" stroke-width="0.8"/>
<text x="254.7" y="225.6" text-anchor="middle" font-family="Arial" font-size="7" fill="#4682B4">WH</text>
<polygon points="175.1,360.2 175.1,368.0 179.1,368.0 178.2,368.7 177.5,369.6 177.0,370.6 176.6,371.7 176.5,372.8 175.7,381.1 175.9,382.4 176.2,383.6 176.8,384.8 177.7,385.8 178.7,386.6 179.8,387.2 181.1,387.6 182.4,387.7 183.6,387.6 184.9,387.2 186.0,386.6 187.0,385.8 187.9,384.8 188.5,383.6 188.9,382.4 189.0,381.1 188.2,372.8 188.1,371.7 187.7,370.6 187.2,369.6 186.5,368.7 185.6,368.0 185.6,368.0 189.6,368.0 189.6,360.2" fill="rgba(100,150,200,0.2)" stroke="#4682B4" stroke-width="0.8"/>
<text x="182.4" y="379.8" text-anchor="middle" font-family="Arial" font-size="7" fill="#4682B4">TOILET</text>
<ellipse cx="216.8" cy="368.9" rx="11.7" ry="8.7" fill="rgba(100,150,200,0.2)" stroke="#4682B4" stroke-width="0.8"/>
<text x="216.8" y="371.9" text-anchor="middle" font-family="Arial" font-size="7" fill="#4682B4">SINK</text>
<polygon points="175.1,354.4 175.1,346.6 179.1,346.6 178.2,345.9 177.5,345.0 177.0,344.0 176.6,342.9 176.5,341.7 175.7,333.5 175.9,332.2 176.2,330.9 176.8,329.8 177.7,328.8 178.7,328.0 179.8,327.4 181.1,327.0 182.4,326.9 183.6,327.0 184.9,327.4 186.0,328.0 187.0,328.8 187.9,329.8 188.5,330.9 188.9,332.2 189.0,333.5 188.2,341.7 188.1,342.9 187.7,344.0 187.2,345.0 186.5,345.9 185.6,346.6 185.6,346.6 189.6,346.6 189.6,354.4" fill="rgba(100,150,200,0.2)" stroke="#4682B4" stroke-width="0.8"/>
<text x="182.4" y="340.7" text-anchor="middle" font-family="Arial" font-size="7" fill="#4682B4">TOILET</text>
<ellipse cx="216.8" cy="345.6" rx="11.7" ry="8.7" fill="rgba(100,150,200,0.2)" stroke="#4682B4" stroke-width="0.8"/>
<text x="216.8" y="348.6" text-anchor="middle" font-family="Arial" font-size="7" fill="#4682B4">SINK</text>
<rect x="311.1" y="237.8" width="46.6" height="23.3" fill="rgba(100,150,200,0.2)" stroke="#4682B4" stroke-width="0.8"/>
<text x="334.4" y="252.4" text-anchor="middle" font-family="Arial" font-size="7" fill="#4682B4">SINK</text>
<rect x="281.0" y="237.8" width="27.2" height="26.2" fill="rgba(100,150,200,0.2)" stroke="#4682B4" stroke-width="0.8"/>
<text x="294.6" y="253.9" text-anchor="middle" font-family="Arial" font-size="7" fill="#4682B4">D/W</text>
<rect x="360.6" y="237.8" width="29.1" height="26.2" fill="rgba(100,150,200,0.2)" stroke="#4682B4" stroke-width="0.8"/>
<text x="375.2" y="253.9" text-anchor="middle" font-family="Arial" font-size="7" fill="#4682B4">STOVE</text>
<rect x="313.0" y="317.4" width="35.0" height="35.0" fill="rgba(100,150,200,0.2)" stroke="#4682B4" stroke-width="0.8"/>
<text x="330.5" y="337.9" text-anchor="middle" font-family="Arial" font-size="7" fill="#4682B4">FRIDGE</text>
<rect x="241.1" y="331.1" width="69.9" height="23.3" fill="rgba(100,150,200,0.2)" stroke="#4682B4" stroke-width="0.8"/>
<text x="276.1" y="345.7" text-anchor="middle" font-family="Arial" font-size="7" fill="#4682B4">COUNTER</text>
<rect x="241.1" y="237.8" width="36.9" height="23.3" fill="rgba(100,150,200,0.2)" stroke="#4682B4" stroke-width="0.8"/>
<text x="259.6" y="252.4" text-anchor="middle" font-family="Arial" font-size="6" fill="#4682B4">COUNTER</text>
<path d="M 392.7,237.8 L 421.8,237.8 L 421.8,266.9 A 11.7 11.7 0 0 1 410.2,278.6 L 404.3,278.6 A 11.7 11.7 0 0 1 392.7,266.9 Z" fill="rgba(100,150,200,0.2)" stroke="#4682B4" stroke-width="0.8"/>
<text x="407.2" y="261.2" text-anchor="middle" font-family="Arial" font-size="6" fill="#4682B4" transform="rotate(-90,407.2,261.2)">COUNTER</text>
<defs><clipPath id="wc114"><polygon points="257.6,494.3 260.6,494.3 260.6,424.3 289.7,424.3 289.7,421.4 257.6,421.4"/></clipPath></defs>
<polygon points="257.6,494.3 260.6,494.3 260.6,424.3 289.7,424.3 289.7,421.4 257.6,421.4" fill="rgba(160,160,160,0.35)" stroke="#666" stroke-width="1.6" clip-path="url(#wc114)"/>
<polygon points="289.7,494.3 293.6,494.3 293.6,419.5 289.7,419.5" fill="rgba(160,160,160,0.35)" stroke="none"/>
<polygon points="289.7,382.5 293.6,382.5 293.6,360.2 289.7,360.2" fill="rgba(160,160,160,0.35)" stroke="none"/>
<line x1="290.2" y1="494.3" x2="290.2" y2="419.5" stroke="#666" stroke-width="1.0"/>
<line x1="290.2" y1="382.5" x2="290.2" y2="360.2" stroke="#666" stroke-width="1.0"/>
<line x1="293.1" y1="494.3" x2="293.1" y2="419.5" stroke="#666" stroke-width="1.0"/>
<line x1="293.1" y1="382.5" x2="293.1" y2="360.2" stroke="#666" stroke-width="1.0"/>
<rect x="289.7" y="418.5" width="3.9" height="1.0" fill="darkred" stroke="none"/>
<rect x="289.7" y="382.5" width="3.9" height="1.0" fill="darkred" stroke="none"/>
<defs><clipPath id="wc124"><polygon points="433.5,433.1 465.5,433.1 465.5,505.9 462.6,505.9 462.6,436.0 433.5,436.0"/></clipPath></defs>
<polygon points="433.5,433.1 465.5,433.1 465.5,505.9 462.6,505.9 462.6,436.0 433.5,436.0" fill="rgba(160,160,160,0.35)" stroke="#666" stroke-width="1.6" clip-path="url(#wc124)"/>
<polygon points="433.5,392.3 563.7,392.3 563.7,389.3 433.5,389.3" fill="rgba(160,160,160,0.35)" stroke="none"/>
<line x1="433.5" y1="391.8" x2="563.7" y2="391.8" stroke="#666" stroke-width="1.0"/>
<line x1="433.5" y1="389.8" x2="563.7" y2="389.8" stroke="#666" stroke-width="1.0"/>
<polygon points="429.6,505.9 433.5,505.9 433.5,431.1 429.6,431.1" fill="rgba(160,160,160,0.35)" stroke="none"/>
<polygon points="429.6,394.2 433.5,394.2 433.5,360.2 429.6,360.2" fill="rgba(160,160,160,0.35)" stroke="none"/>
<line x1="430.1" y1="505.9" x2="430.1" y2="431.1" stroke="#666" stroke-width="1.0"/>
<line x1="430.1" y1="394.2" x2="430.1" y2="360.2" stroke="#666" stroke-width="1.0"/>
<line x1="433.0" y1="505.9" x2="433.0" y2="431.1" stroke="#666" stroke-width="1.0"/>
<line x1="433.0" y1="394.2" x2="433.0" y2="360.2" stroke="#666" stroke-width="1.0"/>
<rect x="429.6" y="430.1" width="3.9" height="1.0" fill="darkred" stroke="none"/>
<rect x="429.6" y="394.2" width="3.9" height="1.0" fill="darkred" stroke="none"/>
<rect x="324.7" y="401.0" width="73.8" height="91.3" fill="rgba(100,150,200,0.2)" stroke="#4682B4" stroke-width="0.8"/>
<text x="361.6" y="473.9" text-anchor="middle" font-family="Arial" font-size="7" fill="#4682B4">KING BED</text>
<text x="361.6" y="430.2" text-anchor="middle" font-family="Arial" font-size="8" fill="#666">BEDROOM</text>
<text x="498.6" y="422.9" text-anchor="middle" font-family="Arial" font-size="8" fill="#666">OFFICE</text>
<line x1="293.6" y1="460.7" x2="429.6" y2="460.7" stroke="#999" stroke-width="0.8"/>
<line x1="293.6" y1="456.7" x2="293.6" y2="464.7" stroke="#999" stroke-width="0.8"/>
<line x1="429.6" y1="456.7" x2="429.6" y2="464.7" stroke="#999" stroke-width="0.8"/>
<text x="361.6" y="457.7" text-anchor="middle" font-family="Arial" font-size="8" fill="#999">11' 8"</text>
<line x1="316.9" y1="494.3" x2="316.9" y2="360.2" stroke="#999" stroke-width="0.8"/>
<line x1="312.9" y1="494.3" x2="320.9" y2="494.3" stroke="#999" stroke-width="0.8"/>
<line x1="312.9" y1="360.2" x2="320.9" y2="360.2" stroke="#999" stroke-width="0.8"/>
<text x="313.9" y="430.2" text-anchor="middle" font-family="Arial" font-size="8" fill="#999" transform="rotate(-90,313.9,430.2)">11' 6"</text>
<line x1="275.1" y1="494.3" x2="275.1" y2="424.3" stroke="#999" stroke-width="0.8"/>
<line x1="271.1" y1="494.3" x2="279.1" y2="494.3" stroke="#999" stroke-width="0.8"/>
<line x1="271.1" y1="424.3" x2="279.1" y2="424.3" stroke="#999" stroke-width="0.8"/>
<text x="272.1" y="462.3" text-anchor="middle" font-family="Arial" font-size="8" fill="#999" transform="rotate(-90,272.1,462.3)">CLOSET 6' 0"</text>
<line x1="448.0" y1="505.9" x2="448.0" y2="436.0" stroke="#999" stroke-width="0.8"/>
<line x1="444.0" y1="505.9" x2="452.0" y2="505.9" stroke="#999" stroke-width="0.8"/>
<line x1="444.0" y1="436.0" x2="452.0" y2="436.0" stroke="#999" stroke-width="0.8"/>
<text x="445.0" y="473.9" text-anchor="middle" font-family="Arial" font-size="8" fill="#999" transform="rotate(-90,445.0,473.9)">CLOSET 6' 0"</text>
<line x1="159.5" y1="459.3" x2="257.6" y2="459.3" stroke="#999" stroke-width="0.8"/>
<line x1="159.5" y1="455.3" x2="159.5" y2="463.3" stroke="#999" stroke-width="0.8"/>
<line x1="257.6" y1="455.3" x2="257.6" y2="463.3" stroke="#999" stroke-width="0.8"/>
<text x="208.6" y="456.3" text-anchor="middle" font-family="Arial" font-size="8" fill="#999">8' 5"</text>
<line x1="465.5" y1="449.6" x2="563.7" y2="449.6" stroke="#999" stroke-width="0.8"/>
<line x1="465.5" y1="445.6" x2="465.5" y2="453.6" stroke="#999" stroke-width="0.8"/>
<line x1="563.7" y1="445.6" x2="563.7" y2="453.6" stroke="#999" stroke-width="0.8"/>
<text x="514.6" y="446.6" text-anchor="middle" font-family="Arial" font-size="8" fill="#999">8' 5"</text>
<line x1="433.5" y1="374.8" x2="563.7" y2="374.8" stroke="#999" stroke-width="0.8"/>
<line x1="433.5" y1="370.8" x2="433.5" y2="378.8" stroke="#999" stroke-width="0.8"/>
<line x1="563.7" y1="370.8" x2="563.7" y2="378.8" stroke="#999" stroke-width="0.8"/>
<text x="498.6" y="371.8" text-anchor="middle" font-family="Arial" font-size="8" fill="#999">STORAGE 11' 2"</text>
<line x1="159.5" y1="409.7" x2="289.7" y2="409.7" stroke="#999" stroke-width="0.8"/>
<line x1="159.5" y1="405.7" x2="159.5" y2="413.7" stroke="#999" stroke-width="0.8"/>
<line x1="289.7" y1="405.7" x2="289.7" y2="413.7" stroke="#999" stroke-width="0.8"/>
<text x="224.6" y="406.7" text-anchor="middle" font-family="Arial" font-size="8" fill="#999">11' 2"</text>
<line x1="159.5" y1="298.0" x2="235.3" y2="298.0" stroke="#999" stroke-width="0.8"/>
<line x1="159.5" y1="294.0" x2="159.5" y2="302.0" stroke="#999" stroke-width="0.8"/>
<line x1="235.3" y1="294.0" x2="235.3" y2="302.0" stroke="#999" stroke-width="0.8"/>
<text x="197.4" y="295.0" text-anchor="middle" font-family="Arial" font-size="8" fill="#999">6' 6"</text>
<line x1="171.2" y1="228.1" x2="235.3" y2="228.1" stroke="#999" stroke-width="0.8"/>
<line x1="171.2" y1="224.1" x2="171.2" y2="232.1" stroke="#999" stroke-width="0.8"/>
<line x1="235.3" y1="224.1" x2="235.3" y2="232.1" stroke="#999" stroke-width="0.8"/>
<text x="203.2" y="225.1" text-anchor="middle" font-family="Arial" font-size="8" fill="#999">5' 6"</text>
<line x1="469.2" y1="392.3" x2="469.2" y2="505.9" stroke="#999" stroke-width="0.8"/>
<line x1="465.2" y1="392.3" x2="473.2" y2="392.3" stroke="#999" stroke-width="0.8"/>
<line x1="465.2" y1="505.9" x2="473.2" y2="505.9" stroke="#999" stroke-width="0.8"/>
<text x="466.2" y="452.1" text-anchor="middle" font-family="Arial" font-size="8" fill="#999" transform="rotate(-90,466.2,452.1)">9' 9"</text>
<line x1="202.3" y1="272.8" x2="202.3" y2="208.6" stroke="#999" stroke-width="0.8"/>
<line x1="198.3" y1="272.8" x2="206.3" y2="272.8" stroke="#999" stroke-width="0.8"/>
<line x1="198.3" y1="208.6" x2="206.3" y2="208.6" stroke="#999" stroke-width="0.8"/>
<text x="199.3" y="243.7" text-anchor="middle" font-family="Arial" font-size="8" fill="#999" transform="rotate(-90,199.3,243.7)">5' 6"</text>
<line x1="202.3" y1="354.4" x2="202.3" y2="273.7" stroke="#999" stroke-width="0.8"/>
<line x1="198.3" y1="354.4" x2="206.3" y2="354.4" stroke="#999" stroke-width="0.8"/>
<line x1="198.3" y1="273.7" x2="206.3" y2="273.7" stroke="#999" stroke-width="0.8"/>
<text x="199.3" y="317.0" text-anchor="middle" font-family="Arial" font-size="8" fill="#999" transform="rotate(-90,199.3,317.0)">6' 11"</text>
<line x1="120.3" y1="502.0" x2="120.3" y2="200.9" stroke="#999" stroke-width="0.8"/>
<line x1="116.3" y1="502.0" x2="124.3" y2="502.0" stroke="#999" stroke-width="0.8"/>
<line x1="116.3" y1="200.9" x2="124.3" y2="200.9" stroke="#999" stroke-width="0.8"/>
<text x="117.3" y="354.5" text-anchor="middle" font-family="Arial" font-size="8" fill="#999" transform="rotate(-90,117.3,354.5)">25' 10"</text>
<line x1="280.0" y1="189.2" x2="483.1" y2="189.2" stroke="#999" stroke-width="0.8"/>
<line x1="280.0" y1="185.2" x2="280.0" y2="193.2" stroke="#999" stroke-width="0.8"/>
<line x1="483.1" y1="185.2" x2="483.1" y2="193.2" stroke="#999" stroke-width="0.8"/>
<text x="381.5" y="186.2" text-anchor="middle" font-family="Arial" font-size="8" fill="#999">17' 5.07"</text>
<line x1="151.8" y1="548.7" x2="571.4" y2="548.7" stroke="#999" stroke-width="0.8"/>
<line x1="151.8" y1="544.7" x2="151.8" y2="552.7" stroke="#999" stroke-width="0.8"/>
<line x1="571.4" y1="544.7" x2="571.4" y2="552.7" stroke="#999" stroke-width="0.8"/>
<text x="361.6" y="545.7" text-anchor="middle" font-family="Arial" font-size="8" fill="#999">36' 0"</text>
<line x1="414.0" y1="505.9" x2="414.0" y2="360.2" stroke="#999" stroke-width="0.8"/>
<line x1="410.0" y1="505.9" x2="418.0" y2="505.9" stroke="#999" stroke-width="0.8"/>
<line x1="410.0" y1="360.2" x2="418.0" y2="360.2" stroke="#999" stroke-width="0.8"/>
<text x="411.0" y="436.1" text-anchor="middle" font-family="Arial" font-size="8" fill="#999" transform="rotate(-90,411.0,436.1)">12' 6"</text>
<polygon points="151.8,418.5 151.8,394.2 159.5,394.2 159.5,418.5" fill="rgb(220,235,255)" stroke="#4682B4" stroke-width="1.0"/>
<polygon points="151.8,326.2 151.8,301.9 159.5,301.9 159.5,326.2" fill="rgb(220,235,255)" stroke="#4682B4" stroke-width="1.0"/>
<polygon points="163.4,263.0 163.4,232.0 171.2,232.0 171.2,263.0" fill="rgb(220,235,255)" stroke="#4682B4" stroke-width="1.0"/>
<polygon points="217.3,208.6 226.1,208.6 226.1,200.9 217.3,200.9" fill="rgb(220,235,255)" stroke="#4682B4" stroke-width="1.0"/>
<polygon points="288.8,237.8 358.7,237.8 358.7,230.0 288.8,230.0" fill="rgb(220,235,255)" stroke="#4682B4" stroke-width="1.0"/>
<polygon points="434.5,237.8 477.3,237.8 477.3,230.0 434.5,230.0" fill="rgb(220,235,255)" stroke="#4682B4" stroke-width="1.0"/>
<polygon points="542.6,243.6 560.7,311.1 553.2,313.1 535.1,245.6" fill="rgb(220,235,255)" stroke="#4682B4" stroke-width="1.0"/>
<polygon points="571.4,433.1 571.4,408.8 563.7,408.8 563.7,433.1" fill="rgb(220,235,255)" stroke="#4682B4" stroke-width="1.0"/>
<polygon points="401.9,513.7 426.2,513.7 426.2,505.9 401.9,505.9" fill="rgb(220,235,255)" stroke="#4682B4" stroke-width="1.0"/>
<polygon points="297.0,502.0 321.3,502.0 321.3,494.3 297.0,494.3" fill="rgb(220,235,255)" stroke="#4682B4" stroke-width="1.0"/>
<polygon points="204.7,502.0 229.0,502.0 229.0,494.3 204.7,494.3" fill="rgb(220,235,255)" stroke="#4682B4" stroke-width="1.0"/>
<line x1="646.4" y1="296.0" x2="646.4" y2="260.0" stroke="#333" stroke-width="2" marker-end="url(#ah)"/>
<text x="646.4" y="254.0" text-anchor="middle" font-family="Arial" font-size="13" font-weight="bold">N</text>
<rect x="581.4" y="147.0" width="130" height="92" fill="white" stroke="#333" stroke-width="1"/>
<text x="646.4" y="161.0" text-anchor="middle" font-family="Arial" font-size="11" font-weight="bold" fill="#333">737.46 sq ft</text>
<text x="646.4" y="173.0" text-anchor="middle" font-family="Arial" font-size="8" fill="#666">Interior area</text>
<text x="646.4" y="187.0" text-anchor="middle" font-family="Arial" font-size="11" font-weight="bold" fill="#333">854.47 sq ft</text>
<text x="646.4" y="199.0" text-anchor="middle" font-family="Arial" font-size="8" fill="#666">Exterior area</text>
<text x="646.4" y="211.0" text-anchor="middle" font-family="Arial" font-size="8" fill="#666">Scale 1:72.0 1&#8243; = 6' 0"</text>
<text x="646.4" y="223.0" text-anchor="middle" font-family="Arial" font-size="7.5" fill="#999">Generated 2026-02-14 12:19:32</text>
<text x="646.4" y="233.0" text-anchor="middle" font-family="Arial" font-size="7.5" fill="#999">from v0.1-48-g3abb7e9</text>
</svg>