<svg xmlns="http://www.w3.org/2000/svg" width="792" height="612" viewBox="0 0 792 612">
<rect width="792" height="612" fill="white"/>
<defs>
  <marker id="ah" markerWidth="8" markerHeight="6" refX="8" refY="3" orient="auto"><polygon points="0 0, 8 3, 0 6" fill="#333"/></marker>
  <clipPath id="page"><rect width="792" height="612"/></clipPath>
</defs>
<text x="396.0" y="30" text-anchor="middle" font-family="Arial" font-size="14" font-weight="bold">Site Path — Outline (wall arcs R=28″, arcs R=10″ &amp; R=28″)</text>
<g opacity="0.2">
<polygon points="389.8,113.5 164.6,145.9 144.6,483.3 515.2,505.3 648.5,428.3" fill="none" stroke="#bbb" stroke-width="0.8" stroke-dasharray="4,4"/>
<polygon points="389.8,113.5 164.6,145.9 144.6,483.3 353.0,495.7 354.8,495.8 356.7,496.0 358.5,496.1 360.3,496.3 362.1,496.6 363.9,496.8 365.7,497.1 367.5,497.4 369.2,497.7 371.0,498.1 372.8,498.4 374.6,498.8 376.3,499.3 378.1,499.7 379.8,500.2 381.6,500.7 383.3,501.2 385.1,501.7 386.8,502.3 388.5,502.9 390.2,503.5 391.9,504.2 393.6,504.9 395.3,505.6 396.9,506.3 398.6,507.0 400.2,507.8 401.9,508.6 403.5,509.4 405.1,510.2 406.7,511.1 408.3,511.9 409.9,512.8 411.5,513.8 413.0,514.7 414.5,515.7 416.1,516.7 417.6,517.7 419.1,518.7 420.5,519.8 422.0,520.8 423.5,521.9 424.9,523.0 426.3,524.2 427.7,525.3 429.1,526.5 430.5,527.7 431.8,528.9 433.1,530.2 434.5,531.4 435.8,532.7 437.0,534.0 438.3,535.3 439.5,536.6 440.8,537.9 442.0,539.3 443.2,540.7 444.3,542.1 445.5,543.5 446.6,544.9 515.2,505.3 648.5,428.3 585.9,352.1 584.4,350.2 582.9,348.3 581.4,346.3 580.0,344.3 578.6,342.3 577.3,340.2 576.0,338.1 574.8,336.0 573.6,333.8 572.4,331.7 571.3,329.5 570.3,327.3 569.2,325.0 568.3,322.8 567.4,320.5 566.5,318.2 565.7,315.9 564.9,313.5 564.2,311.2 563.5,308.8 562.9,306.4 562.3,304.1 561.8,301.7 561.3,299.2 560.9,296.8 560.5,294.4 560.2,292.0 560.0,289.5 559.7,287.1 559.6,284.6 559.5,282.2 559.4,279.7 559.4,277.3 559.4,274.8 559.5,272.3 559.7,269.9 559.9,267.4 560.1,265.0 560.4,262.6 560.8,260.1 561.2,257.7 561.7,255.3 562.2,252.9 562.7,250.5 563.3,248.1 564.0,245.8 564.7,243.4 565.4,241.1 566.3,238.7 567.1,236.4 568.0,234.2 569.0,231.9 570.0,229.6 571.0,227.4 572.1,225.2 573.2,223.0 574.4,220.9 575.6,218.8 576.9,216.7 578.2,214.6 575.6,215.2 572.9,215.7 570.3,216.2 567.6,216.7 564.9,217.1 562.3,217.4 559.6,217.7 556.9,218.0 554.2,218.2 551.5,218.3 548.8,218.4 546.1,218.5 543.4,218.4 540.7,218.4 538.0,218.3 535.3,218.1 532.6,217.9 529.9,217.7 527.2,217.4 524.5,217.0 521.8,216.6 519.2,216.2 516.5,215.7 513.9,215.1 511.2,214.5 508.6,213.9 506.0,213.2 503.4,212.4 500.8,211.6 498.2,210.8 495.7,209.9 493.1,208.9 490.6,208.0 488.1,206.9 485.6,205.9 483.2,204.7 480.7,203.6 478.3,202.4 475.9,201.1 473.6,199.8 471.2,198.4 468.9,197.1 466.6,195.6 464.3,194.1 462.1,192.6 459.9,191.1 457.7,189.5 455.5,187.8 453.4,186.2 451.3,184.4 449.3,182.7 447.3,180.9 445.3,179.1 443.3,177.2 441.4,175.3 439.5,173.4 437.7,171.4 435.8,169.4 434.1,167.3 432.3,165.3" fill="#e8edf5" stroke="none"/>
<line x1="389.8" y1="113.5" x2="164.6" y2="145.9" stroke="#333" stroke-width="2.0"/>
<line x1="164.6" y1="145.9" x2="144.6" y2="483.3" stroke="#333" stroke-width="2.0"/>
<line x1="144.6" y1="483.3" x2="353.0" y2="495.7" stroke="#333" stroke-width="2.0"/>
<line x1="446.6" y1="544.9" x2="515.2" y2="505.3" stroke="#333" stroke-width="2.0"/>
<line x1="515.2" y1="505.3" x2="648.5" y2="428.3" stroke="#333" stroke-width="2.0"/>
<line x1="648.5" y1="428.3" x2="585.9" y2="352.1" stroke="#333" stroke-width="2.0"/>
<line x1="432.3" y1="165.3" x2="389.8" y2="113.5" stroke="#333" stroke-width="2.0"/>
<polyline points="585.9,352.1 584.4,350.2 582.9,348.3 581.4,346.3 580.0,344.3 578.6,342.3 577.3,340.2 576.0,338.1 574.8,336.0 573.6,333.8 572.4,331.7 571.3,329.5 570.3,327.3 569.2,325.0 568.3,322.8 567.4,320.5 566.5,318.2 565.7,315.9 564.9,313.5 564.2,311.2 563.5,308.8 562.9,306.4 562.3,304.1 561.8,301.7 561.3,299.2 560.9,296.8 560.5,294.4 560.2,292.0 560.0,289.5 559.7,287.1 559.6,284.6 559.5,282.2 559.4,279.7 559.4,277.3 559.4,274.8 559.5,272.3 559.7,269.9 559.9,267.4 560.1,265.0 560.4,262.6 560.8,260.1 561.2,257.7 561.7,255.3 562.2,252.9 562.7,250.5 563.3,248.1 564.0,245.8 564.7,243.4 565.4,241.1 566.3,238.7 567.1,236.4 568.0,234.2 569.0,231.9 570.0,229.6 571.0,227.4 572.1,225.2 573.2,223.0 574.4,220.9 575.6,218.8 576.9,216.7 578.2,214.6" fill="none" stroke="#0077B6" stroke-width="2.5" stroke-linecap="round"/>
<polyline points="578.2,214.6 575.6,215.2 572.9,215.7 570.3,216.2 567.6,216.7 564.9,217.1 562.3,217.4 559.6,217.7 556.9,218.0 554.2,218.2 551.5,218.3 548.8,218.4 546.1,218.5 543.4,218.4 540.7,218.4 538.0,218.3 535.3,218.1 532.6,217.9 529.9,217.7 527.2,217.4 524.5,217.0 521.8,216.6 519.2,216.2 516.5,215.7 513.9,215.1 511.2,214.5 508.6,213.9 506.0,213.2 503.4,212.4 500.8,211.6 498.2,210.8 495.7,209.9 493.1,208.9 490.6,208.0 488.1,206.9 485.6,205.9 483.2,204.7 480.7,203.6 478.3,202.4 475.9,201.1 473.6,199.8 471.2,198.4 468.9,197.1 466.6,195.6 464.3,194.1 462.1,192.6 459.9,191.1 457.7,189.5 455.5,187.8 453.4,186.2 451.3,184.4 449.3,182.7 447.3,180.9 445.3,179.1 443.3,177.2 441.4,175.3 439.5,173.4 437.7,171.4 435.8,169.4 434.1,167.3 432.3,165.3" fill="none" stroke="#0077B6" stroke-width="2.5" stroke-linecap="round"/>
<polyline points="353.0,495.7 354.8,495.8 356.7,496.0 358.5,496.1 360.3,496.3 362.1,496.6 363.9,496.8 365.7,497.1 367.5,497.4 369.2,497.7 371.0,498.1 372.8,498.4 374.6,498.8 376.3,499.3 378.1,499.7 379.8,500.2 381.6,500.7 383.3,501.2 385.1,501.7 386.8,502.3 388.5,502.9 390.2,503.5 391.9,504.2 393.6,504.9 395.3,505.6 396.9,506.3 398.6,507.0 400.2,507.8 401.9,508.6 403.5,509.4 405.1,510.2 406.7,511.1 408.3,511.9 409.9,512.8 411.5,513.8 413.0,514.7 414.5,515.7 416.1,516.7 417.6,517.7 419.1,518.7 420.5,519.8 422.0,520.8 423.5,521.9 424.9,523.0 426.3,524.2 427.7,525.3 429.1,526.5 430.5,527.7 431.8,528.9 433.1,530.2 434.5,531.4 435.8,532.7 437.0,534.0 438.3,535.3 439.5,536.6 440.8,537.9 442.0,539.3 443.2,540.7 444.3,542.1 445.5,543.5 446.6,544.9" fill="none" stroke="#2E7D32" stroke-width="2.5" stroke-linecap="round"/>
<circle cx="389.8" cy="113.5" r="3.5" fill="#d32f2f"/>
<text x="389.8" y="97.5" text-anchor="middle" font-family="Arial" font-size="10" font-weight="bold" fill="#d32f2f">P.O.B.</text>
<circle cx="164.6" cy="145.9" r="3.5" fill="#d32f2f"/>
<text x="154.6" y="137.9" text-anchor="end" font-family="Arial" font-size="10" font-weight="bold" fill="#d32f2f">P2</text>
<circle cx="144.6" cy="483.3" r="3.5" fill="#d32f2f"/>
<text x="134.6" y="490.3" text-anchor="end" font-family="Arial" font-size="10" font-weight="bold" fill="#d32f2f">P3</text>
<circle cx="353.0" cy="495.7" r="3.5" fill="#2E7D32"/>
<text x="353.0" y="483.7" text-anchor="middle" font-family="Arial" font-size="10" font-weight="bold" fill="#2E7D32">T3</text>
<circle cx="446.6" cy="544.9" r="3.5" fill="#2E7D32"/>
<text x="454.6" y="538.9" text-anchor="start" font-family="Arial" font-size="10" font-weight="bold" fill="#2E7D32">PX</text>
<circle cx="515.2" cy="505.3" r="3.5" fill="#d32f2f"/>
<text x="525.2" y="515.3" text-anchor="start" font-family="Arial" font-size="10" font-weight="bold" fill="#d32f2f">P4</text>
<circle cx="648.5" cy="428.3" r="3.5" fill="#d32f2f"/>
<text x="662.5" y="431.3" text-anchor="start" font-family="Arial" font-size="10" font-weight="bold" fill="#d32f2f">P5</text>
<circle cx="585.9" cy="352.1" r="3.5" fill="#0077B6"/>
<text x="595.9" y="348.1" text-anchor="start" font-family="Arial" font-size="10" font-weight="bold" fill="#0077B6">T1</text>
<circle cx="578.2" cy="214.6" r="3.5" fill="#0077B6"/>
<text x="586.2" y="206.6" text-anchor="start" font-family="Arial" font-size="10" font-weight="bold" fill="#0077B6">PA</text>
<circle cx="432.3" cy="165.3" r="3.5" fill="#0077B6"/>
<text x="422.3" y="161.3" text-anchor="end" font-family="Arial" font-size="10" font-weight="bold" fill="#0077B6">T2</text>
<g transform="translate(279.7,147.5) rotate(8.2)">
  <text x="0" y="-3" text-anchor="middle" font-family="Arial" font-size="8.5" fill="#1a237e">Brg 261° 48' 40.6"</text>
  <text x="0" y="8" text-anchor="middle" font-family="Arial" font-size="8.5" fill="#555">Dist 19' 6.2"</text>
</g>
<g transform="translate(172.6,315.7) rotate(86.6)">
  <text x="0" y="-3" text-anchor="middle" font-family="Arial" font-size="8.5" fill="#1a237e">Brg 183° 23' 29.0"</text>
  <text x="0" y="8" text-anchor="middle" font-family="Arial" font-size="8.5" fill="#555">Dist 29' 0.0"</text>
</g>
<g transform="translate(247.7,507.5) rotate(-3.4)">
  <text x="0" y="-3" text-anchor="middle" font-family="Arial" font-size="8.5" fill="#1a237e">Brg 93° 23' 29.0"</text>
  <text x="0" y="8" text-anchor="middle" font-family="Arial" font-size="8.5" fill="#555">Dist 17' 10.9"</text>
</g>
<g transform="translate(472.9,511.2) rotate(30.0)">
  <text x="0" y="-3" text-anchor="middle" font-family="Arial" font-size="8.5" fill="#1a237e">Brg 60° 00' 00.0"</text>
  <text x="0" y="8" text-anchor="middle" font-family="Arial" font-size="8.5" fill="#555">Dist 6' 9.5"</text>
</g>
<g transform="translate(573.8,453.0) rotate(30.0)">
  <text x="0" y="-3" text-anchor="middle" font-family="Arial" font-size="8.5" fill="#1a237e">Brg 59° 59' 60.0"</text>
  <text x="0" y="8" text-anchor="middle" font-family="Arial" font-size="8.5" fill="#555">Dist 13' 2.5"</text>
</g>
<g transform="translate(629.6,380.1) rotate(-50.6)">
  <text x="0" y="-3" text-anchor="middle" font-family="Arial" font-size="8.5" fill="#1a237e">Brg 320° 35' 12.7"</text>
  <text x="0" y="8" text-anchor="middle" font-family="Arial" font-size="8.5" fill="#555">Dist 8' 5.5"</text>
</g>
<g transform="translate(423.4,129.2) rotate(-50.6)">
  <text x="0" y="-3" text-anchor="middle" font-family="Arial" font-size="8.5" fill="#1a237e">Brg 320° 35' 12.7"</text>
  <text x="0" y="8" text-anchor="middle" font-family="Arial" font-size="8.5" fill="#555">Dist 5' 9.0"</text>
</g>
<text x="539.6" y="284.6" text-anchor="end" font-family="Arial" font-size="8.5" fill="#0077B6">Arc 1: R=10'</text>
<text x="498.2" y="226.8" text-anchor="middle" font-family="Arial" font-size="8.5" fill="#0077B6">Arc 2: R=12' 6"</text>
<text x="417.1" y="514.2" text-anchor="start" font-family="Arial" font-size="8.5" fill="#2E7D32">Arc 3: R=11'</text>
</g>
<g opacity="0.2">
<polygon points="387.4,119.7 170.1,151.0 150.8,477.9 353.4,489.9 355.2,490.0 357.0,490.1 358.8,490.3 360.6,490.5 362.4,490.7 364.2,491.0 366.0,491.2 367.8,491.5 369.6,491.8 371.4,492.2 373.1,492.5 374.9,492.9 376.7,493.3 378.4,493.8 380.2,494.2 381.9,494.7 383.7,495.2 385.4,495.7 387.1,496.3 388.9,496.9 390.6,497.5 392.3,498.1 394.0,498.7 395.7,499.4 397.3,500.1 399.0,500.8 400.7,501.5 402.3,502.3 403.9,503.1 405.6,503.9 407.2,504.7 408.8,505.6 410.4,506.4 412.0,507.3 413.5,508.2 415.1,509.2 416.6,510.1 418.2,511.1 419.7,512.1 421.2,513.1 422.7,514.1 424.1,515.2 425.6,516.3 427.1,517.3 428.5,518.5 429.9,519.6 431.3,520.7 432.7,521.9 434.1,523.1 435.4,524.3 436.7,525.5 438.1,526.8 439.4,528.0 440.7,529.3 441.9,530.6 443.2,531.9 444.4,533.3 445.6,534.6 446.8,536.0 448.0,537.4 512.3,500.3 639.6,426.7 581.4,355.8 579.9,354.0 578.5,352.1 577.1,350.2 575.7,348.3 574.4,346.4 573.1,344.4 571.8,342.4 570.6,340.4 569.4,338.3 568.3,336.3 567.2,334.2 566.1,332.1 565.1,329.9 564.1,327.8 563.2,325.6 562.3,323.4 561.4,321.2 560.6,319.0 559.8,316.8 559.1,314.5 558.4,312.3 557.8,310.0 557.2,307.7 556.6,305.4 556.1,303.1 555.7,300.8 555.3,298.5 554.9,296.1 554.6,293.8 554.3,291.4 554.1,289.1 553.9,286.7 553.7,284.4 553.6,282.0 553.6,279.6 553.6,277.3 553.6,274.9 553.7,272.6 553.8,270.2 554.0,267.9 554.2,265.5 554.5,263.2 554.8,260.8 555.2,258.5 555.6,256.1 556.0,253.8 556.5,251.5 557.0,249.2 557.6,246.9 558.2,244.6 558.9,242.4 559.6,240.1 560.4,237.9 561.2,235.7 562.0,233.5 562.9,231.3 563.8,229.1 564.8,226.9 565.8,224.8 566.8,222.7 564.3,223.0 561.7,223.4 559.1,223.6 556.5,223.8 553.9,224.0 551.3,224.1 548.7,224.2 546.1,224.3 543.5,224.3 541.0,224.2 538.4,224.1 535.8,224.0 533.2,223.8 530.6,223.6 528.0,223.3 525.4,223.0 522.9,222.7 520.3,222.3 517.7,221.8 515.2,221.3 512.6,220.8 510.1,220.2 507.6,219.6 505.1,219.0 502.6,218.2 500.1,217.5 497.6,216.7 495.1,215.9 492.7,215.0 490.3,214.1 487.9,213.1 485.5,212.1 483.1,211.1 480.7,210.0 478.4,208.9 476.1,207.7 473.8,206.5 471.5,205.3 469.2,204.0 467.0,202.7 464.8,201.4 462.6,200.0 460.4,198.5 458.3,197.1 456.1,195.6 454.0,194.0 452.0,192.4 449.9,190.8 447.9,189.2 445.9,187.5 444.0,185.8 442.1,184.1 440.2,182.3 438.3,180.5 436.5,178.6 434.7,176.7 432.9,174.8 431.2,172.9 429.5,170.9 427.8,169.0" fill="rgba(255,152,0,0.3)" stroke="none"/>
<line x1="387.4" y1="119.7" x2="170.1" y2="151.0" stroke="#BF360C" stroke-width="1.5"/>
<line x1="170.1" y1="151.0" x2="150.8" y2="477.9" stroke="#BF360C" stroke-width="1.5"/>
<line x1="150.8" y1="477.9" x2="353.4" y2="489.9" stroke="#BF360C" stroke-width="1.5"/>
<line x1="448.0" y1="537.4" x2="512.3" y2="500.3" stroke="#BF360C" stroke-width="1.5"/>
<line x1="512.3" y1="500.3" x2="639.6" y2="426.7" stroke="#BF360C" stroke-width="1.5"/>
<line x1="639.6" y1="426.7" x2="581.4" y2="355.8" stroke="#BF360C" stroke-width="1.5"/>
<line x1="427.8" y1="169.0" x2="387.4" y2="119.7" stroke="#BF360C" stroke-width="1.5"/>
<polyline points="581.4,355.8 579.9,354.0 578.5,352.1 577.1,350.2 575.7,348.3 574.4,346.4 573.1,344.4 571.8,342.4 570.6,340.4 569.4,338.3 568.3,336.3 567.2,334.2 566.1,332.1 565.1,329.9 564.1,327.8 563.2,325.6 562.3,323.4 561.4,321.2 560.6,319.0 559.8,316.8 559.1,314.5 558.4,312.3 557.8,310.0 557.2,307.7 556.6,305.4 556.1,303.1 555.7,300.8 555.3,298.5 554.9,296.1 554.6,293.8 554.3,291.4 554.1,289.1 553.9,286.7 553.7,284.4 553.6,282.0 553.6,279.6 553.6,277.3 553.6,274.9 553.7,272.6 553.8,270.2 554.0,267.9 554.2,265.5 554.5,263.2 554.8,260.8 555.2,258.5 555.6,256.1 556.0,253.8 556.5,251.5 557.0,249.2 557.6,246.9 558.2,244.6 558.9,242.4 559.6,240.1 560.4,237.9 561.2,235.7 562.0,233.5 562.9,231.3 563.8,229.1 564.8,226.9 565.8,224.8 566.8,222.7" fill="none" stroke="#BF360C" stroke-width="1.5" stroke-linecap="round"/>
<polyline points="566.8,222.7 564.3,223.0 561.7,223.4 559.1,223.6 556.5,223.8 553.9,224.0 551.3,224.1 548.7,224.2 546.1,224.3 543.5,224.3 541.0,224.2 538.4,224.1 535.8,224.0 533.2,223.8 530.6,223.6 528.0,223.3 525.4,223.0 522.9,222.7 520.3,222.3 517.7,221.8 515.2,221.3 512.6,220.8 510.1,220.2 507.6,219.6 505.1,219.0 502.6,218.2 500.1,217.5 497.6,216.7 495.1,215.9 492.7,215.0 490.3,214.1 487.9,213.1 485.5,212.1 483.1,211.1 480.7,210.0 478.4,208.9 476.1,207.7 473.8,206.5 471.5,205.3 469.2,204.0 467.0,202.7 464.8,201.4 462.6,200.0 460.4,198.5 458.3,197.1 456.1,195.6 454.0,194.0 452.0,192.4 449.9,190.8 447.9,189.2 445.9,187.5 444.0,185.8 442.1,184.1 440.2,182.3 438.3,180.5 436.5,178.6 434.7,176.7 432.9,174.8 431.2,172.9 429.5,170.9 427.8,169.0" fill="none" stroke="#BF360C" stroke-width="1.5" stroke-linecap="round"/>
<polyline points="353.4,489.9 355.2,490.0 357.0,490.1 358.8,490.3 360.6,490.5 362.4,490.7 364.2,491.0 366.0,491.2 367.8,491.5 369.6,491.8 371.4,492.2 373.1,492.5 374.9,492.9 376.7,493.3 378.4,493.8 380.2,494.2 381.9,494.7 383.7,495.2 385.4,495.7 387.1,496.3 388.9,496.9 390.6,497.5 392.3,498.1 394.0,498.7 395.7,499.4 397.3,500.1 399.0,500.8 400.7,501.5 402.3,502.3 403.9,503.1 405.6,503.9 407.2,504.7 408.8,505.6 410.4,506.4 412.0,507.3 413.5,508.2 415.1,509.2 416.6,510.1 418.2,511.1 419.7,512.1 421.2,513.1 422.7,514.1 424.1,515.2 425.6,516.3 427.1,517.3 428.5,518.5 429.9,519.6 431.3,520.7 432.7,521.9 434.1,523.1 435.4,524.3 436.7,525.5 438.1,526.8 439.4,528.0 440.7,529.3 441.9,530.6 443.2,531.9 444.4,533.3 445.6,534.6 446.8,536.0 448.0,537.4" fill="none" stroke="#BF360C" stroke-width="1.5" stroke-linecap="round"/>
<circle cx="387.4" cy="119.7" r="2.5" fill="#BF360C"/>
<text x="387.4" y="133.7" text-anchor="middle" font-family="Arial" font-size="8.5" font-weight="bold" fill="#BF360C">PiOB</text>
<circle cx="170.1" cy="151.0" r="2.5" fill="#BF360C"/>
<text x="176.1" y="155.0" text-anchor="start" font-family="Arial" font-size="8.5" font-weight="bold" fill="#BF360C">Pi2</text>
<circle cx="150.8" cy="477.9" r="2.5" fill="#BF360C"/>
<text x="156.8" y="473.9" text-anchor="start" font-family="Arial" font-size="8.5" font-weight="bold" fill="#BF360C">Pi3</text>
<circle cx="353.4" cy="489.9" r="2.5" fill="#BF360C"/>
<text x="353.4" y="503.9" text-anchor="middle" font-family="Arial" font-size="8.5" font-weight="bold" fill="#BF360C">Ti3</text>
<circle cx="448.0" cy="537.4" r="2.5" fill="#BF360C"/>
<text x="440.0" y="531.4" text-anchor="end" font-family="Arial" font-size="8.5" font-weight="bold" fill="#BF360C">PiX</text>
<circle cx="512.3" cy="500.3" r="2.5" fill="#BF360C"/>
<text x="504.3" y="512.3" text-anchor="end" font-family="Arial" font-size="8.5" font-weight="bold" fill="#BF360C">Pi4</text>
<circle cx="639.6" cy="426.7" r="2.5" fill="#BF360C"/>
<text x="631.6" y="418.7" text-anchor="end" font-family="Arial" font-size="8.5" font-weight="bold" fill="#BF360C">Pi5</text>
<circle cx="581.4" cy="355.8" r="2.5" fill="#BF360C"/>
<text x="573.4" y="367.8" text-anchor="end" font-family="Arial" font-size="8.5" font-weight="bold" fill="#BF360C">Ti1</text>
<circle cx="566.8" cy="222.7" r="2.5" fill="#BF360C"/>
<text x="558.8" y="226.7" text-anchor="end" font-family="Arial" font-size="8.5" font-weight="bold" fill="#BF360C">Ai2</text>
<circle cx="427.8" cy="169.0" r="2.5" fill="#BF360C"/>
<text x="435.8" y="181.0" text-anchor="start" font-family="Arial" font-size="8.5" font-weight="bold" fill="#BF360C">Ti2</text>
</g>
<polygon points="161.5,502.0 160.7,502.0 159.9,501.9 159.2,501.8 158.5,501.6 157.8,501.3 157.1,501.0 156.4,500.6 155.8,500.2 155.2,499.7 154.6,499.2 154.1,498.6 153.6,498.0 153.2,497.4 152.8,496.7 152.5,496.0 152.2,495.3 152.0,494.6 151.9,493.8 151.8,493.1 151.8,492.3 151.8,297.8 151.8,296.8 151.8,295.8 151.9,294.8 152.0,293.9 152.2,292.9 152.4,291.9 152.6,291.0 152.9,290.0 153.2,289.1 153.5,288.2 153.9,287.2 154.3,286.3 154.7,285.5 155.2,284.6 155.7,283.7 156.2,282.9 156.7,282.1 157.3,281.3 157.9,280.5 158.6,279.8 159.0,279.2 159.4,278.7 159.9,278.1 160.3,277.6 160.6,277.0 161.0,276.3 161.3,275.7 161.6,275.1 161.9,274.5 162.2,273.8 162.4,273.1 162.6,272.5 162.8,271.8 163.0,271.1 163.1,270.4 163.2,269.7 163.3,269.0 163.4,268.3 163.4,267.6 163.4,266.9 163.4,228.1 163.5,225.9 163.7,223.8 164.2,221.7 164.7,219.7 165.5,217.7 166.4,215.7 167.4,213.9 168.6,212.1 169.9,210.4 171.4,208.8 172.9,207.4 174.6,206.1 176.4,204.9 178.3,203.8 180.2,202.9 182.2,202.2 184.3,201.6 186.4,201.2 188.5,201.0 190.6,200.9 248.9,200.9 251.0,201.0 253.2,201.2 255.2,201.6 257.3,202.2 259.3,202.9 261.2,203.8 263.1,204.9 264.9,206.1 266.6,207.4 268.1,208.8 269.6,210.4 270.9,212.1 272.1,213.9 273.1,215.7 274.0,217.7 274.8,219.7 275.3,221.7 275.8,223.8 276.0,225.9 276.1,228.1 276.1,228.2 276.1,228.4 276.2,228.5 276.2,228.7 276.2,228.8 276.3,229.0 276.4,229.1 276.5,229.2 276.6,229.3 276.7,229.4 276.8,229.6 276.9,229.6 277.0,229.7 277.2,229.8 277.3,229.9 277.4,229.9 277.6,230.0 277.7,230.0 277.9,230.0 278.0,230.0 483.7,230.0 483.9,230.0 484.0,230.0 484.2,230.0 484.3,229.9 484.5,229.9 484.6,229.8 484.7,229.7 484.9,229.6 485.0,229.6 485.1,229.4 485.2,229.3 485.3,229.2 485.4,229.1 485.4,229.0 485.5,228.8 485.6,228.7 485.6,228.5 485.6,228.4 485.7,228.2 485.7,228.1 485.7,226.8 485.8,225.5 485.9,224.2 486.2,222.9 486.4,221.6 486.8,220.3 487.2,219.1 487.6,217.9 488.2,216.7 488.7,215.5 489.4,214.4 490.0,213.3 490.8,212.2 491.6,211.1 492.4,210.1 493.3,209.2 494.2,208.3 495.2,207.4 496.2,206.6 497.3,205.8 498.3,205.1 499.5,204.4 500.6,203.8 501.8,203.2 503.0,202.7 504.2,202.3 505.5,201.9 506.7,201.6 508.0,201.3 509.3,201.1 510.6,201.0 511.9,200.9 513.2,200.9 514.5,200.9 515.8,201.0 517.1,201.2 518.4,201.4 519.7,201.7 520.9,202.1 522.2,202.5 523.4,203.0 524.6,203.5 525.7,204.1 526.9,204.8 528.0,205.5 529.0,206.2 530.1,207.0 531.1,207.9 532.0,208.8 532.9,209.7 533.8,210.7 534.6,211.7 535.3,212.8 536.1,213.9 536.7,215.0 537.3,216.2 537.9,217.3 538.3,218.5 538.8,219.8 539.1,221.0 568.6,331.1 568.7,331.4 568.8,331.7 568.9,332.1 569.0,332.4 569.1,332.8 569.1,333.1 569.2,333.5 569.3,333.8 569.4,334.2 569.5,334.5 569.5,334.9 569.6,335.3 569.7,335.6 569.8,336.0 569.8,336.3 569.9,336.7 570.0,337.0 570.0,337.4 570.1,337.7 570.2,338.1 570.2,338.4 570.3,338.8 570.4,339.1 570.4,339.5 570.5,339.9 570.5,340.2 570.6,340.6 570.6,340.9 570.7,341.3 570.7,341.6 570.8,342.0 570.8,342.4 570.9,342.7 570.9,343.1 570.9,343.4 571.0,343.8 571.0,344.1 571.0,344.5 571.1,344.9 571.1,345.2 571.1,345.6 571.2,345.9 571.2,346.3 571.2,346.7 571.2,347.0 571.3,347.4 571.3,347.7 571.3,348.1 571.3,348.5 571.3,348.8 571.4,349.2 571.4,349.5 571.4,349.9 571.4,350.3 571.4,350.6 571.4,351.0 571.4,351.3 571.4,351.7 571.4,352.1 571.4,352.4 571.4,450.4 571.4,451.9 571.3,453.3 571.1,454.7 570.8,456.1 570.5,457.5 570.1,458.9 569.6,460.2 569.1,461.5 568.5,462.8 567.8,464.0 567.0,465.3 566.2,466.4 565.4,467.6 564.4,468.6 563.5,469.7 562.4,470.7 561.3,471.6 560.2,472.5 559.0,473.3 557.8,474.0 495.4,510.0 494.8,510.4 494.2,510.7 493.5,511.0 492.9,511.3 492.2,511.6 491.6,511.9 490.9,512.1 490.2,512.4 489.5,512.6 488.8,512.8 488.2,512.9 487.5,513.1 486.8,513.2 486.1,513.4 485.4,513.5 484.6,513.5 483.9,513.6 483.2,513.6 482.5,513.7 481.8,513.7 396.6,513.7 396.2,513.7 395.9,513.7 395.6,513.7 395.3,513.7 394.9,513.6 394.6,513.6 394.3,513.6 393.9,513.6 393.6,513.5 393.3,513.5 393.0,513.4 392.6,513.4 392.3,513.4 392.0,513.3 391.7,513.2 391.4,513.2 391.0,513.1 390.7,513.0 390.4,513.0 390.1,512.9 389.8,512.8 389.4,512.7 389.1,512.6 388.8,512.6 388.5,512.5 388.2,512.4 387.9,512.3 387.6,512.2 387.3,512.0 386.9,511.9 386.6,511.8 386.3,511.7 386.0,511.6 385.7,511.4 385.4,511.3 385.1,511.2 384.8,511.0 384.5,510.9 384.2,510.7 384.0,510.6 383.7,510.4 383.4,510.3 383.1,510.1 382.8,510.0 382.5,509.8 382.2,509.6 382.0,509.4 381.7,509.3 381.4,509.1 381.2,508.9 380.9,508.7 380.6,508.5 380.4,508.3 380.1,508.1 379.8,507.9 379.6,507.7 379.3,507.5 379.1,507.3 378.8,507.1 378.6,506.9 378.4,506.7 378.2,506.6 378.0,506.4 377.9,506.3 377.7,506.1 377.5,506.0 377.3,505.9 377.1,505.7 376.9,505.6 376.7,505.4 376.5,505.3 376.3,505.2 376.1,505.1 375.9,504.9 375.7,504.8 375.5,504.7 375.3,504.6 375.1,504.5 374.9,504.3 374.7,504.2 374.5,504.1 374.3,504.0 374.1,503.9 373.9,503.8 373.7,503.7 373.5,503.6 373.2,503.5 373.0,503.5 372.8,503.4 372.6,503.3 372.4,503.2 372.1,503.1 371.9,503.0 371.7,503.0 371.5,502.9 371.3,502.8 371.0,502.8 370.8,502.7 370.6,502.6 370.4,502.6 370.1,502.5 369.9,502.5 369.7,502.4 369.4,502.4 369.2,502.3 369.0,502.3 368.7,502.3 368.5,502.2 368.3,502.2 368.1,502.2 367.8,502.1 367.6,502.1 367.4,502.1 367.1,502.1 366.9,502.1 366.7,502.1 366.4,502.0 366.2,502.0 366.0,502.0 365.7,502.0" fill="rgba(200,230,255,0.25)" stroke="none"/>
<line x1="151.8" y1="492.3" x2="151.8" y2="297.8" stroke="#333" stroke-width="2.0"/>
<line x1="163.4" y1="266.9" x2="163.4" y2="228.1" stroke="#333" stroke-width="2.0"/>
<line x1="190.6" y1="200.9" x2="248.9" y2="200.9" stroke="#333" stroke-width="2.0"/>
<line x1="278.0" y1="230.0" x2="483.7" y2="230.0" stroke="#333" stroke-width="2.0"/>
<line x1="539.1" y1="221.0" x2="568.6" y2="331.1" stroke="#333" stroke-width="2.0"/>
<line x1="571.4" y1="352.4" x2="571.4" y2="450.4" stroke="#333" stroke-width="2.0"/>
<line x1="557.8" y1="474.0" x2="495.4" y2="510.0" stroke="#333" stroke-width="2.0"/>
<line x1="481.8" y1="513.7" x2="396.6" y2="513.7" stroke="#333" stroke-width="2.0"/>
<line x1="365.7" y1="502.0" x2="161.5" y2="502.0" stroke="#333" stroke-width="2.0"/>
<polyline points="161.5,502.0 160.7,502.0 159.9,501.9 159.2,501.8 158.5,501.6 157.8,501.3 157.1,501.0 156.4,500.6 155.8,500.2 155.2,499.7 154.6,499.2 154.1,498.6 153.6,498.0 153.2,497.4 152.8,496.7 152.5,496.0 152.2,495.3 152.0,494.6 151.9,493.8 151.8,493.1 151.8,492.3" fill="none" stroke="#333" stroke-width="2.0" stroke-linecap="round"/>
<polyline points="151.8,297.8 151.8,296.8 151.8,295.8 151.9,294.8 152.0,293.9 152.2,292.9 152.4,291.9 152.6,291.0 152.9,290.0 153.2,289.1 153.5,288.2 153.9,287.2 154.3,286.3 154.7,285.5 155.2,284.6 155.7,283.7 156.2,282.9 156.7,282.1 157.3,281.3 157.9,280.5 158.6,279.8" fill="none" stroke="#333" stroke-width="2.0" stroke-linecap="round"/>
<polyline points="158.6,279.8 159.0,279.2 159.4,278.7 159.9,278.1 160.3,277.6 160.6,277.0 161.0,276.3 161.3,275.7 161.6,275.1 161.9,274.5 162.2,273.8 162.4,273.1 162.6,272.5 162.8,271.8 163.0,271.1 163.1,270.4 163.2,269.7 163.3,269.0 163.4,268.3 163.4,267.6 163.4,266.9" fill="none" stroke="#333" stroke-width="2.0" stroke-linecap="round"/>
<polyline points="163.4,228.1 163.5,225.9 163.7,223.8 164.2,221.7 164.7,219.7 165.5,217.7 166.4,215.7 167.4,213.9 168.6,212.1 169.9,210.4 171.4,208.8 172.9,207.4 174.6,206.1 176.4,204.9 178.3,203.8 180.2,202.9 182.2,202.2 184.3,201.6 186.4,201.2 188.5,201.0 190.6,200.9" fill="none" stroke="#333" stroke-width="2.0" stroke-linecap="round"/>
<polyline points="248.9,200.9 251.0,201.0 253.2,201.2 255.2,201.6 257.3,202.2 259.3,202.9 261.2,203.8 263.1,204.9 264.9,206.1 266.6,207.4 268.1,208.8 269.6,210.4 270.9,212.1 272.1,213.9 273.1,215.7 274.0,217.7 274.8,219.7 275.3,221.7 275.8,223.8 276.0,225.9 276.1,228.1" fill="none" stroke="#333" stroke-width="2.0" stroke-linecap="round"/>
<polyline points="276.1,228.1 276.1,228.2 276.1,228.4 276.2,228.5 276.2,228.7 276.2,228.8 276.3,229.0 276.4,229.1 276.5,229.2 276.6,229.3 276.7,229.4 276.8,229.6 276.9,229.6 277.0,229.7 277.2,229.8 277.3,229.9 277.4,229.9 277.6,230.0 277.7,230.0 277.9,230.0 278.0,230.0" fill="none" stroke="#333" stroke-width="2.0" stroke-linecap="round"/>
<polyline points="483.7,230.0 483.9,230.0 484.0,230.0 484.2,230.0 484.3,229.9 484.5,229.9 484.6,229.8 484.7,229.7 484.9,229.6 485.0,229.6 485.1,229.4 485.2,229.3 485.3,229.2 485.4,229.1 485.4,229.0 485.5,228.8 485.6,228.7 485.6,228.5 485.6,228.4 485.7,228.2 485.7,228.1" fill="none" stroke="#333" stroke-width="2.0" stroke-linecap="round"/>
<polyline points="485.7,228.1 485.7,226.8 485.8,225.5 485.9,224.2 486.2,222.9 486.4,221.6 486.8,220.3 487.2,219.1 487.6,217.9 488.2,216.7 488.7,215.5 489.4,214.4 490.0,213.3 490.8,212.2 491.6,211.1 492.4,210.1 493.3,209.2 494.2,208.3 495.2,207.4 496.2,206.6 497.3,205.8 498.3,205.1 499.5,204.4 500.6,203.8 501.8,203.2 503.0,202.7 504.2,202.3 505.5,201.9 506.7,201.6 508.0,201.3 509.3,201.1 510.6,201.0 511.9,200.9 513.2,200.9 514.5,200.9 515.8,201.0 517.1,201.2 518.4,201.4 519.7,201.7 520.9,202.1 522.2,202.5 523.4,203.0 524.6,203.5 525.7,204.1 526.9,204.8 528.0,205.5 529.0,206.2 530.1,207.0 531.1,207.9 532.0,208.8 532.9,209.7 533.8,210.7 534.6,211.7 535.3,212.8 536.1,213.9 536.7,215.0 537.3,216.2 537.9,217.3 538.3,218.5 538.8,219.8 539.1,221.0" fill="none" stroke="#333" stroke-width="2.0" stroke-linecap="round"/>
<polyline points="568.6,331.1 568.7,331.4 568.8,331.7 568.9,332.1 569.0,332.4 569.1,332.8 569.1,333.1 569.2,333.5 569.3,333.8 569.4,334.2 569.5,334.5 569.5,334.9 569.6,335.3 569.7,335.6 569.8,336.0 569.8,336.3 569.9,336.7 570.0,337.0 570.0,337.4 570.1,337.7 570.2,338.1 570.2,338.4 570.3,338.8 570.4,339.1 570.4,339.5 570.5,339.9 570.5,340.2 570.6,340.6 570.6,340.9 570.7,341.3 570.7,341.6 570.8,342.0 570.8,342.4 570.9,342.7 570.9,343.1 570.9,343.4 571.0,343.8 571.0,344.1 571.0,344.5 571.1,344.9 571.1,345.2 571.1,345.6 571.2,345.9 571.2,346.3 571.2,346.7 571.2,347.0 571.3,347.4 571.3,347.7 571.3,348.1 571.3,348.5 571.3,348.8 571.4,349.2 571.4,349.5 571.4,349.9 571.4,350.3 571.4,350.6 571.4,351.0 571.4,351.3 571.4,351.7 571.4,352.1 571.4,352.4" fill="none" stroke="#333" stroke-width="2.0" stroke-linecap="round"/>
<polyline points="571.4,450.4 571.4,451.9 571.3,453.3 571.1,454.7 570.8,456.1 570.5,457.5 570.1,458.9 569.6,460.2 569.1,461.5 568.5,462.8 567.8,464.0 567.0,465.3 566.2,466.4 565.4,467.6 564.4,468.6 563.5,469.7 562.4,470.7 561.3,471.6 560.2,472.5 559.0,473.3 557.8,474.0" fill="none" stroke="#333" stroke-width="2.0" stroke-linecap="round"/>
<polyline points="495.4,510.0 494.8,510.4 494.2,510.7 493.5,511.0 492.9,511.3 492.2,511.6 491.6,511.9 490.9,512.1 490.2,512.4 489.5,512.6 488.8,512.8 488.2,512.9 487.5,513.1 486.8,513.2 486.1,513.4 485.4,513.5 484.6,513.5 483.9,513.6 483.2,513.6 482.5,513.7 481.8,513.7" fill="none" stroke="#2E7D32" stroke-width="2.5" stroke-linecap="round"/>
<polyline points="396.6,513.7 396.2,513.7 395.9,513.7 395.6,513.7 395.3,513.7 394.9,513.6 394.6,513.6 394.3,513.6 393.9,513.6 393.6,513.5 393.3,513.5 393.0,513.4 392.6,513.4 392.3,513.4 392.0,513.3 391.7,513.2 391.4,513.2 391.0,513.1 390.7,513.0 390.4,513.0 390.1,512.9 389.8,512.8 389.4,512.7 389.1,512.6 388.8,512.6 388.5,512.5 388.2,512.4 387.9,512.3 387.6,512.2 387.3,512.0 386.9,511.9 386.6,511.8 386.3,511.7 386.0,511.6 385.7,511.4 385.4,511.3 385.1,511.2 384.8,511.0 384.5,510.9 384.2,510.7 384.0,510.6 383.7,510.4 383.4,510.3 383.1,510.1 382.8,510.0 382.5,509.8 382.2,509.6 382.0,509.4 381.7,509.3 381.4,509.1 381.2,508.9 380.9,508.7 380.6,508.5 380.4,508.3 380.1,508.1 379.8,507.9 379.6,507.7 379.3,507.5 379.1,507.3 378.8,507.1 378.6,506.9" fill="none" stroke="#2E7D32" stroke-width="2.5" stroke-linecap="round"/>
<polyline points="378.6,506.9 378.4,506.7 378.2,506.6 378.0,506.4 377.9,506.3 377.7,506.1 377.5,506.0 377.3,505.9 377.1,505.7 376.9,505.6 376.7,505.4 376.5,505.3 376.3,505.2 376.1,505.1 375.9,504.9 375.7,504.8 375.5,504.7 375.3,504.6 375.1,504.5 374.9,504.3 374.7,504.2 374.5,504.1 374.3,504.0 374.1,503.9 373.9,503.8 373.7,503.7 373.5,503.6 373.2,503.5 373.0,503.5 372.8,503.4 372.6,503.3 372.4,503.2 372.1,503.1 371.9,503.0 371.7,503.0 371.5,502.9 371.3,502.8 371.0,502.8 370.8,502.7 370.6,502.6 370.4,502.6 370.1,502.5 369.9,502.5 369.7,502.4 369.4,502.4 369.2,502.3 369.0,502.3 368.7,502.3 368.5,502.2 368.3,502.2 368.1,502.2 367.8,502.1 367.6,502.1 367.4,502.1 367.1,502.1 366.9,502.1 366.7,502.1 366.4,502.0 366.2,502.0 366.0,502.0 365.7,502.0" fill="none" stroke="#2E7D32" stroke-width="2.5" stroke-linecap="round"/>
<g clip-path="url(#page)">
<line x1="144.0" y1="266.9" x2="163.4" y2="266.9" stroke="#333" stroke-width="0.6" stroke-dasharray="4,3"/>
<line x1="140.0" y1="266.9" x2="148.0" y2="266.9" stroke="#333" stroke-width="0.7"/>
<line x1="144.0" y1="262.9" x2="144.0" y2="270.9" stroke="#333" stroke-width="0.7"/>
<line x1="179.0" y1="297.8" x2="151.8" y2="297.8" stroke="#333" stroke-width="0.6" stroke-dasharray="4,3"/>
<line x1="175.0" y1="297.8" x2="183.0" y2="297.8" stroke="#333" stroke-width="0.7"/>
<line x1="179.0" y1="293.8" x2="179.0" y2="301.8" stroke="#333" stroke-width="0.7"/>
<line x1="365.7" y1="521.5" x2="365.7" y2="502.0" stroke="#2E7D32" stroke-width="0.6" stroke-dasharray="4,3"/>
<line x1="361.7" y1="521.5" x2="369.7" y2="521.5" stroke="#2E7D32" stroke-width="0.7"/>
<line x1="365.7" y1="517.5" x2="365.7" y2="525.5" stroke="#2E7D32" stroke-width="0.7"/>
<line x1="161.5" y1="492.3" x2="151.8" y2="492.3" stroke="#333" stroke-width="0.6" stroke-dasharray="4,3"/>
<line x1="157.5" y1="492.3" x2="165.5" y2="492.3" stroke="#333" stroke-width="0.7"/>
<line x1="161.5" y1="488.3" x2="161.5" y2="496.3" stroke="#333" stroke-width="0.7"/>
<line x1="190.6" y1="228.1" x2="190.6" y2="200.9" stroke="#333" stroke-width="0.6" stroke-dasharray="4,3"/>
<line x1="186.6" y1="228.1" x2="194.6" y2="228.1" stroke="#333" stroke-width="0.7"/>
<line x1="190.6" y1="224.1" x2="190.6" y2="232.1" stroke="#333" stroke-width="0.7"/>
<line x1="396.6" y1="486.5" x2="378.6" y2="506.9" stroke="#2E7D32" stroke-width="0.6" stroke-dasharray="4,3"/>
<line x1="392.6" y1="486.5" x2="400.6" y2="486.5" stroke="#2E7D32" stroke-width="0.7"/>
<line x1="396.6" y1="482.5" x2="396.6" y2="490.5" stroke="#2E7D32" stroke-width="0.7"/>
<line x1="481.8" y1="486.5" x2="481.8" y2="513.7" stroke="#2E7D32" stroke-width="0.6" stroke-dasharray="4,3"/>
<line x1="477.8" y1="486.5" x2="485.8" y2="486.5" stroke="#2E7D32" stroke-width="0.7"/>
<line x1="481.8" y1="482.5" x2="481.8" y2="490.5" stroke="#2E7D32" stroke-width="0.7"/>
<line x1="544.2" y1="450.4" x2="557.8" y2="474.0" stroke="#333" stroke-width="0.6" stroke-dasharray="4,3"/>
<line x1="540.2" y1="450.4" x2="548.2" y2="450.4" stroke="#333" stroke-width="0.7"/>
<line x1="544.2" y1="446.4" x2="544.2" y2="454.4" stroke="#333" stroke-width="0.7"/>
<line x1="248.9" y1="228.1" x2="248.9" y2="200.9" stroke="#333" stroke-width="0.6" stroke-dasharray="4,3"/>
<line x1="244.9" y1="228.1" x2="252.9" y2="228.1" stroke="#333" stroke-width="0.7"/>
<line x1="248.9" y1="224.1" x2="248.9" y2="232.1" stroke="#333" stroke-width="0.7"/>
<line x1="278.0" y1="228.1" x2="276.1" y2="228.1" stroke="#333" stroke-width="0.6" stroke-dasharray="4,3"/>
<line x1="274.0" y1="228.1" x2="282.0" y2="228.1" stroke="#333" stroke-width="0.7"/>
<line x1="278.0" y1="224.1" x2="278.0" y2="232.1" stroke="#333" stroke-width="0.7"/>
<line x1="512.9" y1="228.1" x2="485.7" y2="228.1" stroke="#333" stroke-width="0.6" stroke-dasharray="4,3"/>
<line x1="508.9" y1="228.1" x2="516.9" y2="228.1" stroke="#333" stroke-width="0.7"/>
<line x1="512.9" y1="224.1" x2="512.9" y2="232.1" stroke="#333" stroke-width="0.7"/>
<line x1="483.7" y1="228.1" x2="483.7" y2="230.0" stroke="#333" stroke-width="0.6" stroke-dasharray="4,3"/>
<line x1="479.7" y1="228.1" x2="487.7" y2="228.1" stroke="#333" stroke-width="0.7"/>
<line x1="483.7" y1="224.1" x2="483.7" y2="232.1" stroke="#333" stroke-width="0.7"/>
<line x1="488.8" y1="352.4" x2="571.4" y2="352.4" stroke="#333" stroke-width="0.6" stroke-dasharray="4,3"/>
<line x1="484.8" y1="352.4" x2="492.8" y2="352.4" stroke="#333" stroke-width="0.7"/>
<line x1="488.8" y1="348.4" x2="488.8" y2="356.4" stroke="#333" stroke-width="0.7"/>
</g>
<circle cx="161.5" cy="502.0" r="3.5" fill="#d32f2f"/>
<text x="153.5" y="512.0" text-anchor="end" font-family="Arial" font-size="10" font-weight="bold" fill="#d32f2f">U0</text>
<circle cx="151.8" cy="492.3" r="3.5" fill="#d32f2f"/>
<text x="143.8" y="488.3" text-anchor="end" font-family="Arial" font-size="10" font-weight="bold" fill="#d32f2f">U1</text>
<circle cx="151.8" cy="297.8" r="3.5" fill="#d32f2f"/>
<text x="143.8" y="293.8" text-anchor="end" font-family="Arial" font-size="10" font-weight="bold" fill="#d32f2f">U2</text>
<circle cx="158.6" cy="279.8" r="3.5" fill="#d32f2f"/>
<text x="148.6" y="289.8" text-anchor="end" font-family="Arial" font-size="10" font-weight="bold" fill="#d32f2f">U3</text>
<circle cx="163.4" cy="266.9" r="3.5" fill="#d32f2f"/>
<text x="155.4" y="262.9" text-anchor="end" font-family="Arial" font-size="10" font-weight="bold" fill="#d32f2f">U4</text>
<circle cx="163.4" cy="228.1" r="3.5" fill="#d32f2f"/>
<text x="155.4" y="222.1" text-anchor="end" font-family="Arial" font-size="10" font-weight="bold" fill="#d32f2f">U5</text>
<circle cx="190.6" cy="200.9" r="3.5" fill="#d32f2f"/>
<text x="180.6" y="194.9" text-anchor="end" font-family="Arial" font-size="10" font-weight="bold" fill="#d32f2f">U6</text>
<circle cx="248.9" cy="200.9" r="3.5" fill="#d32f2f"/>
<text x="248.9" y="188.9" text-anchor="middle" font-family="Arial" font-size="10" font-weight="bold" fill="#d32f2f">U7</text>
<circle cx="276.1" cy="228.1" r="3.5" fill="#d32f2f"/>
<text x="268.1" y="224.1" text-anchor="end" font-family="Arial" font-size="10" font-weight="bold" fill="#d32f2f">U8</text>
<circle cx="278.0" cy="230.0" r="3.5" fill="#d32f2f"/>
<text x="278.0" y="244.0" text-anchor="middle" font-family="Arial" font-size="10" font-weight="bold" fill="#d32f2f">U9</text>
<circle cx="483.7" cy="230.0" r="3.5" fill="#d32f2f"/>
<text x="475.7" y="224.0" text-anchor="end" font-family="Arial" font-size="10" font-weight="bold" fill="#d32f2f">U10</text>
<circle cx="485.7" cy="228.1" r="3.5" fill="#d32f2f"/>
<text x="493.7" y="240.1" text-anchor="start" font-family="Arial" font-size="10" font-weight="bold" fill="#d32f2f">U11</text>
<circle cx="539.1" cy="221.0" r="3.5" fill="#d32f2f"/>
<text x="547.1" y="233.0" text-anchor="start" font-family="Arial" font-size="10" font-weight="bold" fill="#d32f2f">U12</text>
<circle cx="568.6" cy="331.1" r="3.5" fill="#d32f2f"/>
<text x="576.6" y="339.1" text-anchor="start" font-family="Arial" font-size="10" font-weight="bold" fill="#d32f2f">U13</text>
<circle cx="571.4" cy="352.4" r="3.5" fill="#d32f2f"/>
<text x="581.4" y="348.4" text-anchor="start" font-family="Arial" font-size="10" font-weight="bold" fill="#d32f2f">U14</text>
<circle cx="571.4" cy="450.4" r="3.5" fill="#d32f2f"/>
<text x="579.4" y="454.4" text-anchor="start" font-family="Arial" font-size="10" font-weight="bold" fill="#d32f2f">U15</text>
<circle cx="557.8" cy="474.0" r="3.5" fill="#d32f2f"/>
<text x="565.8" y="478.0" text-anchor="start" font-family="Arial" font-size="10" font-weight="bold" fill="#d32f2f">U16</text>
<circle cx="495.4" cy="510.0" r="3.5" fill="#2E7D32"/>
<text x="505.4" y="520.0" text-anchor="start" font-family="Arial" font-size="10" font-weight="bold" fill="#2E7D32">U17</text>
<circle cx="481.8" cy="513.7" r="3.5" fill="#2E7D32"/>
<text x="489.8" y="525.7" text-anchor="start" font-family="Arial" font-size="10" font-weight="bold" fill="#2E7D32">U18</text>
<circle cx="396.6" cy="513.7" r="3.5" fill="#2E7D32"/>
<text x="404.6" y="525.7" text-anchor="start" font-family="Arial" font-size="10" font-weight="bold" fill="#2E7D32">U19</text>
<circle cx="378.6" cy="506.9" r="3.5" fill="#2E7D32"/>
<text x="386.6" y="500.9" text-anchor="start" font-family="Arial" font-size="10" font-weight="bold" fill="#2E7D32">U20</text>
<circle cx="365.7" cy="502.0" r="3.5" fill="#2E7D32"/>
<text x="365.7" y="490.0" text-anchor="middle" font-family="Arial" font-size="10" font-weight="bold" fill="#2E7D32">U21</text>
<g transform="translate(169.8,395.0) rotate(90.0)">
  <text x="0" y="-3" text-anchor="middle" font-family="Arial" font-size="8.5" fill="#1a237e">0.00°</text>
  <text x="0" y="8" text-anchor="middle" font-family="Arial" font-size="8.5" fill="#555">16' 8.3"</text>
</g>
<g transform="translate(181.4,247.5) rotate(90.0)">
  <text x="0" y="-3" text-anchor="middle" font-family="Arial" font-size="8.5" fill="#1a237e">0.00°</text>
  <text x="0" y="8" text-anchor="middle" font-family="Arial" font-size="8.5" fill="#555">3' 4.0"</text>
</g>
<g transform="translate(219.8,184.9) rotate(-0.0)">
  <text x="0" y="-3" text-anchor="middle" font-family="Arial" font-size="8.5" fill="#1a237e">90.00°</text>
  <text x="0" y="8" text-anchor="middle" font-family="Arial" font-size="8.5" fill="#555">5' 0.0"</text>
</g>
<g transform="translate(380.9,214.0) rotate(-0.0)">
  <text x="0" y="-3" text-anchor="middle" font-family="Arial" font-size="8.5" fill="#1a237e">90.00°</text>
  <text x="0" y="8" text-anchor="middle" font-family="Arial" font-size="8.5" fill="#555">17' 7.7"</text>
</g>
<g transform="translate(569.3,271.9) rotate(-75.0)">
  <text x="0" y="-3" text-anchor="middle" font-family="Arial" font-size="8.5" fill="#1a237e">165.00°</text>
  <text x="0" y="8" text-anchor="middle" font-family="Arial" font-size="8.5" fill="#555">9' 9.2"</text>
</g>
<g transform="translate(587.4,401.4) rotate(-90.0)">
  <text x="0" y="-3" text-anchor="middle" font-family="Arial" font-size="8.5" fill="#1a237e">180.00°</text>
  <text x="0" y="8" text-anchor="middle" font-family="Arial" font-size="8.5" fill="#555">8' 4.9"</text>
</g>
<g transform="translate(518.6,478.2) rotate(30.0)">
  <text x="0" y="-3" text-anchor="middle" font-family="Arial" font-size="8.5" fill="#1a237e">240.00°</text>
  <text x="0" y="8" text-anchor="middle" font-family="Arial" font-size="8.5" fill="#555">6' 2.2"</text>
</g>
<g transform="translate(439.2,529.7) rotate(0.0)">
  <text x="0" y="-3" text-anchor="middle" font-family="Arial" font-size="8.5" fill="#1a237e">270.00°</text>
  <text x="0" y="8" text-anchor="middle" font-family="Arial" font-size="8.5" fill="#555">7' 3.7"</text>
</g>
<g transform="translate(263.6,520.0) rotate(0.0)">
  <text x="0" y="-3" text-anchor="middle" font-family="Arial" font-size="8.5" fill="#1a237e">270.00°</text>
  <text x="0" y="8" text-anchor="middle" font-family="Arial" font-size="8.5" fill="#555">17' 6.3"</text>
</g>
<text x="144.6" y="513.2" text-anchor="end" font-family="Arial" font-size="8.5" fill="#333">Arc R=10"</text>
<text x="144.6" y="524.2" text-anchor="end" font-family="Arial" font-size="8.5" fill="#333">90.0°</text>
<text x="165.5" y="288.2" text-anchor="start" font-family="Arial" font-size="8.5" fill="#333">Arc R=28"</text>
<text x="165.5" y="299.2" text-anchor="start" font-family="Arial" font-size="8.5" fill="#333">41.4° CCW</text>
<text x="152.2" y="263.8" text-anchor="end" font-family="Arial" font-size="8.5" fill="#333">Arc R=20"</text>
<text x="152.2" y="274.8" text-anchor="end" font-family="Arial" font-size="8.5" fill="#333">41.4° CW</text>
<text x="161.4" y="194.8" text-anchor="end" font-family="Arial" font-size="8.5" fill="#333">Arc R=28"</text>
<text x="161.4" y="205.8" text-anchor="end" font-family="Arial" font-size="8.5" fill="#333">90.0°</text>
<text x="280.1" y="208.8" text-anchor="start" font-family="Arial" font-size="8.5" fill="#333">Arc R=28"</text>
<text x="280.1" y="219.8" text-anchor="start" font-family="Arial" font-size="8.5" fill="#333">90.0°</text>
<text x="266.7" y="243.4" text-anchor="end" font-family="Arial" font-size="8.5" fill="#333">Arc R=2"</text>
<text x="266.7" y="254.4" text-anchor="end" font-family="Arial" font-size="8.5" fill="#333">90.0°</text>
<text x="475.1" y="219.4" text-anchor="end" font-family="Arial" font-size="8.5" fill="#333">Arc R=2"</text>
<text x="475.1" y="230.4" text-anchor="end" font-family="Arial" font-size="8.5" fill="#333">90.0°</text>
<text x="521.3" y="201.1" text-anchor="start" font-family="Arial" font-size="8.5" fill="#333">Arc R=28"</text>
<text x="521.3" y="212.1" text-anchor="start" font-family="Arial" font-size="8.5" fill="#333">165.0° CCW</text>
<text x="582.7" y="341.6" text-anchor="start" font-family="Arial" font-size="8.5" fill="#333">Arc R=85"</text>
<text x="582.7" y="352.6" text-anchor="start" font-family="Arial" font-size="8.5" fill="#333">15.0°</text>
<text x="577.8" y="454.0" text-anchor="start" font-family="Arial" font-size="8.5" fill="#333">Arc R=28"</text>
<text x="577.8" y="465.0" text-anchor="start" font-family="Arial" font-size="8.5" fill="#333">60.0°</text>
<text x="478.8" y="502.8" text-anchor="end" font-family="Arial" font-size="8.5" fill="#2E7D32">Wall R=28"</text>
<text x="478.8" y="513.8" text-anchor="end" font-family="Arial" font-size="8.5" fill="#2E7D32">30.0°</text>
<text x="398.9" y="501.9" text-anchor="start" font-family="Arial" font-size="8.5" fill="#2E7D32">Wall R=28"</text>
<text x="398.9" y="512.9" text-anchor="start" font-family="Arial" font-size="8.5" fill="#2E7D32">41.4°</text>
<text x="384.6" y="507.3" text-anchor="start" font-family="Arial" font-size="8.5" fill="#2E7D32">Wall R=20"</text>
<text x="384.6" y="518.3" text-anchor="start" font-family="Arial" font-size="8.5" fill="#2E7D32">41.4° CW</text>
<g opacity="0.5">
<path d="M 161.5,502.0 L 160.7,502.0 L 159.9,501.9 L 159.2,501.8 L 158.5,501.6 L 157.8,501.3 L 157.1,501.0 L 156.4,500.6 L 155.8,500.2 L 155.2,499.7 L 154.6,499.2 L 154.1,498.6 L 153.6,498.0 L 153.2,497.4 L 152.8,496.7 L 152.5,496.0 L 152.2,495.3 L 152.0,494.6 L 151.9,493.8 L 151.8,493.1 L 151.8,492.3 L 151.8,297.8 L 151.8,296.8 L 151.8,295.8 L 151.9,294.8 L 152.0,293.9 L 152.2,292.9 L 152.4,291.9 L 152.6,291.0 L 152.9,290.0 L 153.2,289.1 L 153.5,288.2 L 153.9,287.2 L 154.3,286.3 L 154.7,285.5 L 155.2,284.6 L 155.7,283.7 L 156.2,282.9 L 156.7,282.1 L 157.3,281.3 L 157.9,280.5 L 158.6,279.8 L 159.0,279.2 L 159.4,278.7 L 159.9,278.1 L 160.3,277.6 L 160.6,277.0 L 161.0,276.3 L 161.3,275.7 L 161.6,275.1 L 161.9,274.5 L 162.2,273.8 L 162.4,273.1 L 162.6,272.5 L 162.8,271.8 L 163.0,271.1 L 163.1,270.4 L 163.2,269.7 L 163.3,269.0 L 163.4,268.3 L 163.4,267.6 L 163.4,266.9 L 163.4,228.1 L 163.5,225.9 L 163.7,223.8 L 164.2,221.7 L 164.7,219.7 L 165.5,217.7 L 166.4,215.7 L 167.4,213.9 L 168.6,212.1 L 169.9,210.4 L 171.4,208.8 L 172.9,207.4 L 174.6,206.1 L 176.4,204.9 L 178.3,203.8 L 180.2,202.9 L 182.2,202.2 L 184.3,201.6 L 186.4,201.2 L 188.5,201.0 L 190.6,200.9 L 248.9,200.9 L 251.0,201.0 L 253.2,201.2 L 255.2,201.6 L 257.3,202.2 L 259.3,202.9 L 261.2,203.8 L 263.1,204.9 L 264.9,206.1 L 266.6,207.4 L 268.1,208.8 L 269.6,210.4 L 270.9,212.1 L 272.1,213.9 L 273.1,215.7 L 274.0,217.7 L 274.8,219.7 L 275.3,221.7 L 275.8,223.8 L 276.0,225.9 L 276.1,228.1 L 276.1,228.2 L 276.1,228.4 L 276.2,228.5 L 276.2,228.7 L 276.2,228.8 L 276.3,229.0 L 276.4,229.1 L 276.5,229.2 L 276.6,229.3 L 276.7,229.4 L 276.8,229.6 L 276.9,229.6 L 277.0,229.7 L 277.2,229.8 L 277.3,229.9 L 277.4,229.9 L 277.6,230.0 L 277.7,230.0 L 277.9,230.0 L 278.0,230.0 L 483.7,230.0 L 483.9,230.0 L 484.0,230.0 L 484.2,230.0 L 484.3,229.9 L 484.5,229.9 L 484.6,229.8 L 484.7,229.7 L 484.9,229.6 L 485.0,229.6 L 485.1,229.4 L 485.2,229.3 L 485.3,229.2 L 485.4,229.1 L 485.4,229.0 L 485.5,228.8 L 485.6,228.7 L 485.6,228.5 L 485.6,228.4 L 485.7,228.2 L 485.7,228.1 L 485.7,226.8 L 485.8,225.5 L 485.9,224.2 L 486.2,222.9 L 486.4,221.6 L 486.8,220.3 L 487.2,219.1 L 487.6,217.9 L 488.2,216.7 L 488.7,215.5 L 489.4,214.4 L 490.0,213.3 L 490.8,212.2 L 491.6,211.1 L 492.4,210.1 L 493.3,209.2 L 494.2,208.3 L 495.2,207.4 L 496.2,206.6 L 497.3,205.8 L 498.3,205.1 L 499.5,204.4 L 500.6,203.8 L 501.8,203.2 L 503.0,202.7 L 504.2,202.3 L 505.5,201.9 L 506.7,201.6 L 508.0,201.3 L 509.3,201.1 L 510.6,201.0 L 511.9,200.9 L 513.2,200.9 L 514.5,200.9 L 515.8,201.0 L 517.1,201.2 L 518.4,201.4 L 519.7,201.7 L 520.9,202.1 L 522.2,202.5 L 523.4,203.0 L 524.6,203.5 L 525.7,204.1 L 526.9,204.8 L 528.0,205.5 L 529.0,206.2 L 530.1,207.0 L 531.1,207.9 L 532.0,208.8 L 532.9,209.7 L 533.8,210.7 L 534.6,211.7 L 535.3,212.8 L 536.1,213.9 L 536.7,215.0 L 537.3,216.2 L 537.9,217.3 L 538.3,218.5 L 538.8,219.8 L 539.1,221.0 L 568.6,331.1 L 568.7,331.4 L 568.8,331.7 L 568.9,332.1 L 569.0,332.4 L 569.1,332.8 L 569.1,333.1 L 569.2,333.5 L 569.3,333.8 L 569.4,334.2 L 569.5,334.5 L 569.5,334.9 L 569.6,335.3 L 569.7,335.6 L 569.8,336.0 L 569.8,336.3 L 569.9,336.7 L 570.0,337.0 L 570.0,337.4 L 570.1,337.7 L 570.2,338.1 L 570.2,338.4 L 570.3,338.8 L 570.4,339.1 L 570.4,339.5 L 570.5,339.9 L 570.5,340.2 L 570.6,340.6 L 570.6,340.9 L 570.7,341.3 L 570.7,341.6 L 570.8,342.0 L 570.8,342.4 L 570.9,342.7 L 570.9,343.1 L 570.9,343.4 L 571.0,343.8 L 571.0,344.1 L 571.0,344.5 L 571.1,344.9 L 571.1,345.2 L 571.1,345.6 L 571.2,345.9 L 571.2,346.3 L 571.2,346.7 L 571.2,347.0 L 571.3,347.4 L 571.3,347.7 L 571.3,348.1 L 571.3,348.5 L 571.3,348.8 L 571.4,349.2 L 571.4,349.5 L 571.4,349.9 L 571.4,350.3 L 571.4,350.6 L 571.4,351.0 L 571.4,351.3 L 571.4,351.7 L 571.4,352.1 L 571.4,352.4 L 571.4,450.4 L 571.4,451.9 L 571.3,453.3 L 571.1,454.7 L 570.8,456.1 L 570.5,457.5 L 570.1,458.9 L 569.6,460.2 L 569.1,461.5 L 568.5,462.8 L 567.8,464.0 L 567.0,465.3 L 566.2,466.4 L 565.4,467.6 L 564.4,468.6 L 563.5,469.7 L 562.4,470.7 L 561.3,471.6 L 560.2,472.5 L 559.0,473.3 L 557.8,474.0 L 495.4,510.0 L 494.8,510.4 L 494.2,510.7 L 493.5,511.0 L 492.9,511.3 L 492.2,511.6 L 491.6,511.9 L 490.9,512.1 L 490.2,512.4 L 489.5,512.6 L 488.8,512.8 L 488.2,512.9 L 487.5,513.1 L 486.8,513.2 L 486.1,513.4 L 485.4,513.5 L 484.6,513.5 L 483.9,513.6 L 483.2,513.6 L 482.5,513.7 L 481.8,513.7 L 396.6,513.7 L 396.2,513.7 L 395.9,513.7 L 395.6,513.7 L 395.3,513.7 L 394.9,513.6 L 394.6,513.6 L 394.3,513.6 L 393.9,513.6 L 393.6,513.5 L 393.3,513.5 L 393.0,513.4 L 392.6,513.4 L 392.3,513.4 L 392.0,513.3 L 391.7,513.2 L 391.4,513.2 L 391.0,513.1 L 390.7,513.0 L 390.4,513.0 L 390.1,512.9 L 389.8,512.8 L 389.4,512.7 L 389.1,512.6 L 388.8,512.6 L 388.5,512.5 L 388.2,512.4 L 387.9,512.3 L 387.6,512.2 L 387.3,512.0 L 386.9,511.9 L 386.6,511.8 L 386.3,511.7 L 386.0,511.6 L 385.7,511.4 L 385.4,511.3 L 385.1,511.2 L 384.8,511.0 L 384.5,510.9 L 384.2,510.7 L 384.0,510.6 L 383.7,510.4 L 383.4,510.3 L 383.1,510.1 L 382.8,510.0 L 382.5,509.8 L 382.2,509.6 L 382.0,509.4 L 381.7,509.3 L 381.4,509.1 L 381.2,508.9 L 380.9,508.7 L 380.6,508.5 L 380.4,508.3 L 380.1,508.1 L 379.8,507.9 L 379.6,507.7 L 379.3,507.5 L 379.1,507.3 L 378.8,507.1 L 378.6,506.9 L 378.4,506.7 L 378.2,506.6 L 378.0,506.4 L 377.9,506.3 L 377.7,506.1 L 377.5,506.0 L 377.3,505.9 L 377.1,505.7 L 376.9,505.6 L 376.7,505.4 L 376.5,505.3 L 376.3,505.2 L 376.1,505.1 L 375.9,504.9 L 375.7,504.8 L 375.5,504.7 L 375.3,504.6 L 375.1,504.5 L 374.9,504.3 L 374.7,504.2 L 374.5,504.1 L 374.3,504.0 L 374.1,503.9 L 373.9,503.8 L 373.7,503.7 L 373.5,503.6 L 373.2,503.5 L 373.0,503.5 L 372.8,503.4 L 372.6,503.3 L 372.4,503.2 L 372.1,503.1 L 371.9,503.0 L 371.7,503.0 L 371.5,502.9 L 371.3,502.8 L 371.0,502.8 L 370.8,502.7 L 370.6,502.6 L 370.4,502.6 L 370.1,502.5 L 369.9,502.5 L 369.7,502.4 L 369.4,502.4 L 369.2,502.3 L 369.0,502.3 L 368.7,502.3 L 368.5,502.2 L 368.3,502.2 L 368.1,502.2 L 367.8,502.1 L 367.6,502.1 L 367.4,502.1 L 367.1,502.1 L 366.9,502.1 L 366.7,502.1 L 366.4,502.0 L 366.2,502.0 L 366.0,502.0 L 365.7,502.0 Z M 365.7,494.3 L 366.0,494.3 L 366.4,494.3 L 366.7,494.3 L 367.0,494.3 L 367.4,494.3 L 367.7,494.3 L 368.0,494.4 L 368.3,494.4 L 368.7,494.4 L 369.0,494.5 L 369.3,494.5 L 369.6,494.5 L 370.0,494.6 L 370.3,494.6 L 370.6,494.7 L 370.9,494.8 L 371.3,494.8 L 371.6,494.9 L 371.9,495.0 L 372.2,495.0 L 372.5,495.1 L 372.8,495.2 L 373.2,495.3 L 373.5,495.4 L 373.8,495.5 L 374.1,495.6 L 374.4,495.7 L 374.7,495.8 L 375.0,495.9 L 375.3,496.0 L 375.6,496.1 L 375.9,496.3 L 376.2,496.4 L 376.6,496.5 L 376.8,496.6 L 377.1,496.8 L 377.4,496.9 L 377.7,497.1 L 378.0,497.2 L 378.3,497.4 L 378.6,497.5 L 378.9,497.7 L 379.2,497.8 L 379.5,498.0 L 379.8,498.2 L 380.0,498.3 L 380.3,498.5 L 380.6,498.7 L 380.9,498.9 L 381.1,499.0 L 381.4,499.2 L 381.7,499.4 L 381.9,499.6 L 382.2,499.8 L 382.4,500.0 L 382.7,500.2 L 383.0,500.4 L 383.2,500.6 L 383.5,500.8 L 383.7,501.1 L 383.9,501.2 L 384.1,501.4 L 384.2,501.5 L 384.4,501.7 L 384.6,501.8 L 384.8,501.9 L 385.0,502.1 L 385.2,502.2 L 385.4,502.4 L 385.6,502.5 L 385.7,502.6 L 385.9,502.8 L 386.1,502.9 L 386.3,503.0 L 386.5,503.1 L 386.7,503.2 L 386.9,503.4 L 387.1,503.5 L 387.4,503.6 L 387.6,503.7 L 387.8,503.8 L 388.0,503.9 L 388.2,504.0 L 388.4,504.1 L 388.6,504.2 L 388.8,504.3 L 389.0,504.4 L 389.3,504.5 L 389.5,504.6 L 389.7,504.7 L 389.9,504.7 L 390.1,504.8 L 390.4,504.9 L 390.6,505.0 L 390.8,505.0 L 391.0,505.1 L 391.2,505.2 L 391.5,505.2 L 391.7,505.3 L 391.9,505.4 L 392.2,505.4 L 392.4,505.5 L 392.6,505.5 L 392.8,505.6 L 393.1,505.6 L 393.3,505.6 L 393.5,505.7 L 393.8,505.7 L 394.0,505.7 L 394.2,505.8 L 394.5,505.8 L 394.7,505.8 L 394.9,505.8 L 395.2,505.9 L 395.4,505.9 L 395.6,505.9 L 395.9,505.9 L 396.1,505.9 L 396.3,505.9 L 396.6,505.9 L 481.8,505.9 L 482.3,505.9 L 482.8,505.9 L 483.3,505.9 L 483.8,505.8 L 484.3,505.7 L 484.8,505.7 L 485.3,505.6 L 485.8,505.5 L 486.3,505.4 L 486.8,505.3 L 487.3,505.1 L 487.8,505.0 L 488.3,504.8 L 488.8,504.6 L 489.2,504.4 L 489.7,504.2 L 490.2,504.0 L 490.6,503.8 L 491.1,503.6 L 491.5,503.3 L 553.9,467.3 L 554.8,466.7 L 555.6,466.2 L 556.5,465.5 L 557.2,464.9 L 558.0,464.2 L 558.7,463.4 L 559.3,462.7 L 559.9,461.9 L 560.5,461.0 L 561.1,460.2 L 561.5,459.3 L 562.0,458.3 L 562.4,457.4 L 562.7,456.5 L 563.0,455.5 L 563.2,454.5 L 563.4,453.5 L 563.5,452.5 L 563.6,451.5 L 563.7,450.4 L 563.7,352.4 L 563.7,352.1 L 563.7,351.8 L 563.6,351.4 L 563.6,351.1 L 563.6,350.8 L 563.6,350.5 L 563.6,350.1 L 563.6,349.8 L 563.6,349.5 L 563.6,349.2 L 563.6,348.8 L 563.6,348.5 L 563.5,348.2 L 563.5,347.9 L 563.5,347.5 L 563.5,347.2 L 563.4,346.9 L 563.4,346.6 L 563.4,346.2 L 563.4,345.9 L 563.3,345.6 L 563.3,345.3 L 563.3,344.9 L 563.2,344.6 L 563.2,344.3 L 563.2,344.0 L 563.1,343.6 L 563.1,343.3 L 563.1,343.0 L 563.0,342.7 L 563.0,342.3 L 562.9,342.0 L 562.9,341.7 L 562.8,341.4 L 562.8,341.0 L 562.7,340.7 L 562.7,340.4 L 562.6,340.1 L 562.6,339.8 L 562.5,339.4 L 562.5,339.1 L 562.4,338.8 L 562.3,338.5 L 562.3,338.1 L 562.2,337.8 L 562.2,337.5 L 562.1,337.2 L 562.0,336.9 L 562.0,336.6 L 561.9,336.2 L 561.8,335.9 L 561.7,335.6 L 561.7,335.3 L 561.6,335.0 L 561.5,334.6 L 561.4,334.3 L 561.4,334.0 L 561.3,333.7 L 561.2,333.4 L 561.1,333.1 L 531.6,223.0 L 531.4,222.2 L 531.1,221.3 L 530.7,220.4 L 530.3,219.6 L 529.9,218.7 L 529.4,217.9 L 528.9,217.1 L 528.4,216.4 L 527.8,215.7 L 527.2,214.9 L 526.5,214.3 L 525.9,213.6 L 525.2,213.0 L 524.4,212.5 L 523.7,211.9 L 522.9,211.4 L 522.1,211.0 L 521.2,210.5 L 520.4,210.2 L 519.5,209.8 L 518.6,209.5 L 517.7,209.3 L 516.8,209.1 L 515.9,208.9 L 515.0,208.8 L 514.0,208.7 L 513.1,208.6 L 512.2,208.7 L 511.2,208.7 L 510.3,208.8 L 509.4,209.0 L 508.5,209.1 L 507.6,209.4 L 506.7,209.6 L 505.8,210.0 L 505.0,210.3 L 504.1,210.7 L 503.3,211.2 L 502.5,211.6 L 501.7,212.2 L 501.0,212.7 L 500.2,213.3 L 499.5,213.9 L 498.9,214.6 L 498.3,215.3 L 497.7,216.0 L 497.1,216.7 L 496.6,217.5 L 496.1,218.3 L 495.6,219.1 L 495.2,219.9 L 494.8,220.8 L 494.5,221.7 L 494.2,222.6 L 494.0,223.5 L 493.8,224.4 L 493.6,225.3 L 493.5,226.2 L 493.5,227.1 L 493.4,228.1 L 493.4,228.8 L 493.3,229.6 L 493.2,230.3 L 493.0,231.1 L 492.7,231.8 L 492.4,232.5 L 492.0,233.2 L 491.6,233.8 L 491.1,234.4 L 490.6,234.9 L 490.0,235.5 L 489.4,235.9 L 488.8,236.4 L 488.1,236.7 L 487.4,237.1 L 486.7,237.3 L 486.0,237.5 L 485.2,237.7 L 484.5,237.8 L 483.7,237.8 L 278.0,237.8 L 277.3,237.8 L 276.5,237.7 L 275.8,237.5 L 275.0,237.3 L 274.3,237.1 L 273.6,236.7 L 273.0,236.4 L 272.3,235.9 L 271.7,235.5 L 271.2,234.9 L 270.7,234.4 L 270.2,233.8 L 269.8,233.2 L 269.4,232.5 L 269.1,231.8 L 268.8,231.1 L 268.6,230.3 L 268.4,229.6 L 268.4,228.8 L 268.3,228.1 L 268.3,226.6 L 268.1,225.0 L 267.8,223.5 L 267.4,222.1 L 266.8,220.6 L 266.2,219.3 L 265.5,217.9 L 264.6,216.7 L 263.7,215.5 L 262.6,214.3 L 261.5,213.3 L 260.3,212.4 L 259.1,211.5 L 257.7,210.8 L 256.3,210.1 L 254.9,209.6 L 253.4,209.2 L 251.9,208.9 L 250.4,208.7 L 248.9,208.6 L 190.6,208.6 L 189.1,208.7 L 187.6,208.9 L 186.1,209.2 L 184.6,209.6 L 183.2,210.1 L 181.8,210.8 L 180.5,211.5 L 179.2,212.4 L 178.0,213.3 L 176.9,214.3 L 175.8,215.5 L 174.9,216.7 L 174.0,217.9 L 173.3,219.3 L 172.7,220.6 L 172.1,222.1 L 171.7,223.5 L 171.4,225.0 L 171.2,226.6 L 171.2,228.1 L 171.2,266.9 L 171.2,267.9 L 171.1,268.9 L 171.0,269.9 L 170.9,270.9 L 170.7,271.8 L 170.5,272.8 L 170.3,273.7 L 170.1,274.7 L 169.8,275.6 L 169.4,276.6 L 169.1,277.5 L 168.7,278.4 L 168.2,279.2 L 167.8,280.1 L 167.3,281.0 L 166.8,281.8 L 166.2,282.6 L 165.6,283.4 L 165.0,284.2 L 164.4,284.9 L 163.9,285.5 L 163.5,286.0 L 163.1,286.6 L 162.7,287.2 L 162.3,287.8 L 162.0,288.4 L 161.6,289.0 L 161.3,289.6 L 161.0,290.3 L 160.8,290.9 L 160.5,291.6 L 160.3,292.2 L 160.1,292.9 L 160.0,293.6 L 159.8,294.3 L 159.7,295.0 L 159.6,295.7 L 159.6,296.4 L 159.5,297.1 L 159.5,297.8 L 159.5,492.3 L 159.5,492.5 L 159.5,492.6 L 159.6,492.8 L 159.6,492.9 L 159.7,493.1 L 159.7,493.2 L 159.8,493.3 L 159.9,493.5 L 160.0,493.6 L 160.1,493.7 L 160.2,493.8 L 160.3,493.9 L 160.5,494.0 L 160.6,494.0 L 160.7,494.1 L 160.9,494.2 L 161.0,494.2 L 161.2,494.2 L 161.3,494.2 L 161.5,494.3 Z" fill="rgba(160,160,160,0.5)" fill-rule="evenodd" stroke="none"/>
<polyline points="161.5,494.3 161.3,494.2 161.2,494.2 161.0,494.2 160.9,494.2 160.7,494.1 160.6,494.0 160.5,494.0 160.3,493.9 160.2,493.8 160.1,493.7 160.0,493.6 159.9,493.5 159.8,493.3 159.7,493.2 159.7,493.1 159.6,492.9 159.6,492.8 159.5,492.6 159.5,492.5 159.5,492.3" fill="none" stroke="#666" stroke-width="1.0" stroke-linecap="round"/>
<line x1="159.5" y1="492.3" x2="159.5" y2="297.8" stroke="#666" stroke-width="1.0"/>
<polyline points="159.5,297.8 159.5,297.1 159.6,296.4 159.6,295.7 159.7,295.0 159.8,294.3 160.0,293.6 160.1,292.9 160.3,292.2 160.5,291.6 160.8,290.9 161.0,290.3 161.3,289.6 161.6,289.0 162.0,288.4 162.3,287.8 162.7,287.2 163.1,286.6 163.5,286.0 163.9,285.5 164.4,284.9" fill="none" stroke="#666" stroke-width="1.0" stroke-linecap="round"/>
<polyline points="164.4,284.9 165.0,284.2 165.6,283.4 166.2,282.6 166.8,281.8 167.3,281.0 167.8,280.1 168.2,279.2 168.7,278.4 169.1,277.5 169.4,276.6 169.8,275.6 170.1,274.7 170.3,273.7 170.5,272.8 170.7,271.8 170.9,270.9 171.0,269.9 171.1,268.9 171.2,267.9 171.2,266.9" fill="none" stroke="#666" stroke-width="1.0" stroke-linecap="round"/>
<line x1="171.2" y1="266.9" x2="171.2" y2="228.1" stroke="#666" stroke-width="1.0"/>
<polyline points="171.2,228.1 171.2,226.6 171.4,225.0 171.7,223.5 172.1,222.1 172.7,220.6 173.3,219.3 174.0,217.9 174.9,216.7 175.8,215.5 176.9,214.3 178.0,213.3 179.2,212.4 180.5,211.5 181.8,210.8 183.2,210.1 184.6,209.6 186.1,209.2 187.6,208.9 189.1,208.7 190.6,208.6" fill="none" stroke="#666" stroke-width="1.0" stroke-linecap="round"/>
<line x1="190.6" y1="208.6" x2="248.9" y2="208.6" stroke="#666" stroke-width="1.0"/>
<polyline points="248.9,208.6 250.4,208.7 251.9,208.9 253.4,209.2 254.9,209.6 256.3,210.1 257.7,210.8 259.1,211.5 260.3,212.4 261.5,213.3 262.6,214.3 263.7,215.5 264.6,216.7 265.5,217.9 266.2,219.3 266.8,220.6 267.4,222.1 267.8,223.5 268.1,225.0 268.3,226.6 268.3,228.1" fill="none" stroke="#666" stroke-width="1.0" stroke-linecap="round"/>
<polyline points="268.3,228.1 268.4,228.8 268.4,229.6 268.6,230.3 268.8,231.1 269.1,231.8 269.4,232.5 269.8,233.2 270.2,233.8 270.7,234.4 271.2,234.9 271.7,235.5 272.3,235.9 273.0,236.4 273.6,236.7 274.3,237.1 275.0,237.3 275.8,237.5 276.5,237.7 277.3,237.8 278.0,237.8" fill="none" stroke="#666" stroke-width="1.0" stroke-linecap="round"/>
<line x1="278.0" y1="237.8" x2="483.7" y2="237.8" stroke="#666" stroke-width="1.0"/>
<polyline points="483.7,237.8 484.5,237.8 485.2,237.7 486.0,237.5 486.7,237.3 487.4,237.1 488.1,236.7 488.8,236.4 489.4,235.9 490.0,235.5 490.6,234.9 491.1,234.4 491.6,233.8 492.0,233.2 492.4,232.5 492.7,231.8 493.0,231.1 493.2,230.3 493.3,229.6 493.4,228.8 493.4,228.1" fill="none" stroke="#666" stroke-width="1.0" stroke-linecap="round"/>
<polyline points="493.4,228.1 493.5,227.1 493.5,226.2 493.6,225.3 493.8,224.4 494.0,223.5 494.2,222.6 494.5,221.7 494.8,220.8 495.2,219.9 495.6,219.1 496.1,218.3 496.6,217.5 497.1,216.7 497.7,216.0 498.3,215.3 498.9,214.6 499.5,213.9 500.2,213.3 501.0,212.7 501.7,212.2 502.5,211.6 503.3,211.2 504.1,210.7 505.0,210.3 505.8,210.0 506.7,209.6 507.6,209.4 508.5,209.1 509.4,209.0 510.3,208.8 511.2,208.7 512.2,208.7 513.1,208.6 514.0,208.7 515.0,208.8 515.9,208.9 516.8,209.1 517.7,209.3 518.6,209.5 519.5,209.8 520.4,210.2 521.2,210.5 522.1,211.0 522.9,211.4 523.7,211.9 524.4,212.5 525.2,213.0 525.9,213.6 526.5,214.3 527.2,214.9 527.8,215.7 528.4,216.4 528.9,217.1 529.4,217.9 529.9,218.7 530.3,219.6 530.7,220.4 531.1,221.3 531.4,222.2 531.6,223.0" fill="none" stroke="#666" stroke-width="1.0" stroke-linecap="round"/>
<line x1="531.6" y1="223.0" x2="561.1" y2="333.1" stroke="#666" stroke-width="1.0"/>
<polyline points="561.1,333.1 561.2,333.4 561.3,333.7 561.4,334.0 561.4,334.3 561.5,334.6 561.6,335.0 561.7,335.3 561.7,335.6 561.8,335.9 561.9,336.2 562.0,336.6 562.0,336.9 562.1,337.2 562.2,337.5 562.2,337.8 562.3,338.1 562.3,338.5 562.4,338.8 562.5,339.1 562.5,339.4 562.6,339.8 562.6,340.1 562.7,340.4 562.7,340.7 562.8,341.0 562.8,341.4 562.9,341.7 562.9,342.0 563.0,342.3 563.0,342.7 563.1,343.0 563.1,343.3 563.1,343.6 563.2,344.0 563.2,344.3 563.2,344.6 563.3,344.9 563.3,345.3 563.3,345.6 563.4,345.9 563.4,346.2 563.4,346.6 563.4,346.9 563.5,347.2 563.5,347.5 563.5,347.9 563.5,348.2 563.6,348.5 563.6,348.8 563.6,349.2 563.6,349.5 563.6,349.8 563.6,350.1 563.6,350.5 563.6,350.8 563.6,351.1 563.6,351.4 563.7,351.8 563.7,352.1 563.7,352.4" fill="none" stroke="#666" stroke-width="1.0" stroke-linecap="round"/>
<line x1="563.7" y1="352.4" x2="563.7" y2="450.4" stroke="#666" stroke-width="1.0"/>
<polyline points="563.7,450.4 563.6,451.5 563.5,452.5 563.4,453.5 563.2,454.5 563.0,455.5 562.7,456.5 562.4,457.4 562.0,458.3 561.5,459.3 561.1,460.2 560.5,461.0 559.9,461.9 559.3,462.7 558.7,463.4 558.0,464.2 557.2,464.9 556.5,465.5 555.6,466.2 554.8,466.7 553.9,467.3" fill="none" stroke="#666" stroke-width="1.0" stroke-linecap="round"/>
<line x1="553.9" y1="467.3" x2="491.5" y2="503.3" stroke="#666" stroke-width="1.0"/>
<polyline points="491.5,503.3 491.1,503.6 490.6,503.8 490.2,504.0 489.7,504.2 489.2,504.4 488.8,504.6 488.3,504.8 487.8,505.0 487.3,505.1 486.8,505.3 486.3,505.4 485.8,505.5 485.3,505.6 484.8,505.7 484.3,505.7 483.8,505.8 483.3,505.9 482.8,505.9 482.3,505.9 481.8,505.9" fill="none" stroke="#666" stroke-width="1.0" stroke-linecap="round"/>
<line x1="481.8" y1="505.9" x2="396.6" y2="505.9" stroke="#666" stroke-width="1.0"/>
<polyline points="396.6,505.9 396.3,505.9 396.1,505.9 395.9,505.9 395.6,505.9 395.4,505.9 395.2,505.9 394.9,505.8 394.7,505.8 394.5,505.8 394.2,505.8 394.0,505.7 393.8,505.7 393.5,505.7 393.3,505.6 393.1,505.6 392.8,505.6 392.6,505.5 392.4,505.5 392.2,505.4 391.9,505.4 391.7,505.3 391.5,505.2 391.2,505.2 391.0,505.1 390.8,505.0 390.6,505.0 390.4,504.9 390.1,504.8 389.9,504.7 389.7,504.7 389.5,504.6 389.3,504.5 389.0,504.4 388.8,504.3 388.6,504.2 388.4,504.1 388.2,504.0 388.0,503.9 387.8,503.8 387.6,503.7 387.4,503.6 387.1,503.5 386.9,503.4 386.7,503.2 386.5,503.1 386.3,503.0 386.1,502.9 385.9,502.8 385.7,502.6 385.6,502.5 385.4,502.4 385.2,502.2 385.0,502.1 384.8,501.9 384.6,501.8 384.4,501.7 384.2,501.5 384.1,501.4 383.9,501.2 383.7,501.1" fill="none" stroke="#666" stroke-width="1.0" stroke-linecap="round"/>
<polyline points="383.7,501.1 383.5,500.8 383.2,500.6 383.0,500.4 382.7,500.2 382.4,500.0 382.2,499.8 381.9,499.6 381.7,499.4 381.4,499.2 381.1,499.0 380.9,498.9 380.6,498.7 380.3,498.5 380.0,498.3 379.8,498.2 379.5,498.0 379.2,497.8 378.9,497.7 378.6,497.5 378.3,497.4 378.0,497.2 377.7,497.1 377.4,496.9 377.1,496.8 376.8,496.6 376.6,496.5 376.2,496.4 375.9,496.3 375.6,496.1 375.3,496.0 375.0,495.9 374.7,495.8 374.4,495.7 374.1,495.6 373.8,495.5 373.5,495.4 373.2,495.3 372.8,495.2 372.5,495.1 372.2,495.0 371.9,495.0 371.6,494.9 371.3,494.8 370.9,494.8 370.6,494.7 370.3,494.6 370.0,494.6 369.6,494.5 369.3,494.5 369.0,494.5 368.7,494.4 368.3,494.4 368.0,494.4 367.7,494.3 367.4,494.3 367.0,494.3 366.7,494.3 366.4,494.3 366.0,494.3 365.7,494.3" fill="none" stroke="#666" stroke-width="1.0" stroke-linecap="round"/>
<line x1="365.7" y1="494.3" x2="161.5" y2="494.3" stroke="#666" stroke-width="1.0"/>
<polygon points="159.5,360.2 563.7,360.2 563.7,354.4 159.5,354.4" fill="rgba(160,160,160,0.5)" stroke="none"/>
<line x1="159.5" y1="360.2" x2="563.7" y2="360.2" stroke="#666" stroke-width="1.0"/>
<line x1="159.5" y1="354.4" x2="563.7" y2="354.4" stroke="#666" stroke-width="1.0"/>
<polygon points="235.3,354.4 241.1,354.4 241.1,208.6 235.3,208.6" fill="rgba(160,160,160,0.5)" stroke="none"/>
<line x1="235.3" y1="354.4" x2="235.3" y2="208.6" stroke="#666" stroke-width="1.0"/>
<line x1="241.1" y1="354.4" x2="241.1" y2="208.6" stroke="#666" stroke-width="1.0"/>
<polygon points="257.6,494.3 260.6,494.3 260.6,424.3 289.7,424.3 289.7,421.4 257.6,421.4" fill="rgba(160,160,160,0.5)" stroke="#666" stroke-width="0.8"/>
<polygon points="289.7,494.3 293.6,494.3 293.6,360.2 289.7,360.2" fill="rgba(160,160,160,0.5)" stroke="#666" stroke-width="0.8"/>
<polygon points="429.6,505.9 433.5,505.9 433.5,360.2 429.6,360.2" fill="rgba(160,160,160,0.5)" stroke="#666" stroke-width="0.8"/>
<polygon points="433.5,433.1 465.5,433.1 465.5,505.9 462.6,505.9 462.6,436.0 433.5,436.0" fill="rgba(160,160,160,0.5)" stroke="#666" stroke-width="0.8"/>
<rect x="165.4" y="461.2" width="34.0" height="29.1" fill="rgba(100,150,200,0.3)" stroke="#4682B4" stroke-width="0.8"/>
<text x="182.4" y="478.8" text-anchor="middle" font-family="Arial" font-size="7" fill="#4682B4">DRYER</text>
<rect x="165.4" y="431.1" width="34.0" height="29.1" fill="rgba(100,150,200,0.3)" stroke="#4682B4" stroke-width="0.8"/>
<text x="182.4" y="448.7" text-anchor="middle" font-family="Arial" font-size="7" fill="#4682B4">WASHER</text>
<path d="M 234.3,494.3 L 257.6,494.3 L 257.6,424.3 L 243.1,424.3 A 8.7 8.7 0 0 0 234.3,433.1 Z" fill="rgba(100,150,200,0.3)" stroke="#4682B4" stroke-width="0.8"/>
<text x="246.0" y="459.3" text-anchor="middle" font-family="Arial" font-size="7" fill="#4682B4" letter-spacing="0.5" transform="rotate(-90,246.0,459.3)">COUNTER</text>
<rect x="324.7" y="401.0" width="73.8" height="91.3" fill="rgba(100,150,200,0.3)" stroke="#4682B4" stroke-width="0.8"/>
<text x="361.6" y="473.9" text-anchor="middle" font-family="Arial" font-size="7" fill="#4682B4">KING BED</text>
<text x="275.1" y="462.3" text-anchor="middle" font-family="Arial" font-size="7" fill="#666" transform="rotate(-90,275.1,462.3)">CLOSET</text>
<text x="361.6" y="430.2" text-anchor="middle" font-family="Arial" font-size="8" fill="#666">BEDROOM</text>
<text x="448.0" y="468.1" text-anchor="middle" font-family="Arial" font-size="7" fill="#666" transform="rotate(-90,448.0,468.1)">CLOSET</text>
</g>
<text x="356.4" y="352.7" text-anchor="middle" font-family="Arial" font-size="12" fill="#333" font-weight="bold">856.01 sq ft</text>
<text x="356.4" y="366.7" text-anchor="middle" font-family="Arial" font-size="9" fill="#666">(Outline enclosed area)</text>
<line x1="742" y1="560" x2="742" y2="524" stroke="#333" stroke-width="2" marker-end="url(#ah)"/>
<text x="742" y="518" text-anchor="middle" font-family="Arial" font-size="13" font-weight="bold">N</text>
<rect x="40" y="550" width="14" height="8" fill="#e8edf5" stroke="#333" stroke-width="1" opacity="0.3"/>
<text x="60" y="557" font-family="Arial" font-size="8" fill="#999">Outer path at 20% (1089.16 sq ft)</text>
<rect x="40" y="562" width="14" height="8" fill="rgba(255,152,0,0.35)" stroke="#BF360C" stroke-width="1" opacity="0.3"/>
<text x="60" y="569" font-family="Arial" font-size="8" fill="#999">Inset path at 20% (1022.16 sq ft)</text>
<line x1="40" y1="578" x2="54" y2="578" stroke="#333" stroke-width="2.0"/>
<text x="60" y="581" font-family="Arial" font-size="8" fill="#333">Outline path (856.01 sq ft) — wall arcs R=28", arcs R=10" &amp; R=28"</text>
<line x1="40" y1="590" x2="54" y2="590" stroke="#2E7D32" stroke-width="2.5"/>
<text x="60" y="593" font-family="Arial" font-size="8" fill="#333">Wall arcs (R=28")</text>
<text x="396.0" y="610" text-anchor="middle" font-family="Arial" font-size="7.5" fill="#999">Bearings as adjusted • Distances in feet and inches • Outline arcs: wall R=28", arcs R=10" &amp; R=28"</text>
</svg>