<svg xmlns="http://www.w3.org/2000/svg" width="792" height="612" viewBox="0 0 792 612">
<rect width="792" height="612" fill="white"/>
<defs>
  <marker id="ah" markerWidth="8" markerHeight="6" refX="8" refY="3" orient="auto"><polygon points="0 0, 8 3, 0 6" fill="#333"/></marker>
  <clipPath id="page"><rect width="792" height="612"/></clipPath>
</defs>
<text x="396.0" y="30" text-anchor="middle" font-family="Arial" font-size="14" font-weight="bold">Site Path &#8212; Outline (fillets R=9&#8243; &amp; R=28&#8243;)</text>
<g opacity="0.2">
<polygon points="368.8,124.1 145.9,169.8 145.9,507.9 517.1,507.9 645.7,423.1" fill="none" stroke="#bbb" stroke-width="0.8" stroke-dasharray="4,4"/>
<polygon points="368.8,124.1 145.9,169.8 145.9,507.9 354.7,507.9 356.5,507.9 358.4,507.9 360.2,508.0 362.0,508.1 363.8,508.2 365.6,508.3 367.4,508.5 369.2,508.7 371.0,508.9 372.8,509.1 374.6,509.4 376.4,509.7 378.2,510.0 380.0,510.4 381.8,510.7 383.5,511.1 385.3,511.6 387.1,512.0 388.8,512.5 390.6,513.0 392.3,513.5 394.0,514.0 395.8,514.6 397.5,515.2 399.2,515.8 400.9,516.5 402.6,517.1 404.3,517.8 405.9,518.5 407.6,519.3 409.2,520.0 410.9,520.8 412.5,521.6 414.1,522.4 415.7,523.3 417.3,524.2 418.9,525.1 420.5,526.0 422.0,526.9 423.5,527.9 425.1,528.9 426.6,529.9 428.1,530.9 429.6,532.0 431.0,533.0 432.5,534.1 433.9,535.2 435.3,536.4 436.7,537.5 438.1,538.7 439.5,539.9 440.9,541.1 442.2,542.3 443.5,543.6 444.8,544.8 446.1,546.1 447.4,547.4 448.6,548.7 449.8,550.1 451.0,551.4 517.1,507.9 645.7,423.1 578.7,350.8 577.1,349.0 575.4,347.1 573.9,345.2 572.3,343.3 570.8,341.3 569.4,339.4 568.0,337.3 566.6,335.3 565.3,333.2 564.0,331.1 562.8,329.0 561.6,326.9 560.5,324.7 559.4,322.5 558.3,320.3 557.3,318.0 556.4,315.8 555.5,313.5 554.6,311.2 553.8,308.9 553.0,306.5 552.3,304.2 551.6,301.8 551.0,299.4 550.5,297.0 550.0,294.6 549.5,292.2 549.1,289.8 548.7,287.4 548.4,284.9 548.2,282.5 548.0,280.0 547.8,277.6 547.7,275.1 547.7,272.7 547.7,270.2 547.7,267.8 547.8,265.3 548.0,262.9 548.2,260.4 548.5,258.0 548.8,255.5 549.1,253.1 549.5,250.7 550.0,248.3 550.5,245.9 551.1,243.5 551.7,241.1 552.4,238.7 553.1,236.4 553.9,234.1 554.7,231.7 555.5,229.4 556.4,227.2 557.4,224.9 558.4,222.7 559.5,220.4 560.6,218.2 561.7,216.1 562.9,213.9 560.3,214.7 557.7,215.4 555.1,216.0 552.4,216.6 549.8,217.2 547.1,217.7 544.5,218.1 541.8,218.5 539.1,218.9 536.4,219.2 533.7,219.5 531.0,219.7 528.3,219.8 525.6,219.9 522.9,220.0 520.2,220.0 517.5,220.0 514.8,219.9 512.1,219.7 509.4,219.5 506.7,219.3 504.0,219.0 501.3,218.6 498.7,218.2 496.0,217.8 493.3,217.3 490.7,216.8 488.1,216.2 485.4,215.5 482.8,214.8 480.2,214.1 477.6,213.3 475.1,212.5 472.5,211.6 470.0,210.7 467.4,209.7 464.9,208.7 462.4,207.6 460.0,206.5 457.5,205.3 455.1,204.1 452.7,202.9 450.3,201.6 448.0,200.2 445.7,198.9 443.4,197.4 441.1,196.0 438.8,194.5 436.6,192.9 434.4,191.3 432.3,189.7 430.2,188.0 428.1,186.3 426.0,184.6 424.0,182.8 422.0,181.0 420.0,179.1 418.1,177.2 416.2,175.3 414.3,173.3" fill="#e8edf5" stroke="none"/>
<line x1="368.8" y1="124.1" x2="145.9" y2="169.8" stroke="#333" stroke-width="2.0"/>
<line x1="145.9" y1="169.8" x2="145.9" y2="507.9" stroke="#333" stroke-width="2.0"/>
<line x1="145.9" y1="507.9" x2="354.7" y2="507.9" stroke="#333" stroke-width="2.0"/>
<line x1="451.0" y1="551.4" x2="517.1" y2="507.9" stroke="#333" stroke-width="2.0"/>
<line x1="517.1" y1="507.9" x2="645.7" y2="423.1" stroke="#333" stroke-width="2.0"/>
<line x1="645.7" y1="423.1" x2="578.7" y2="350.8" stroke="#333" stroke-width="2.0"/>
<line x1="414.3" y1="173.3" x2="368.8" y2="124.1" stroke="#333" stroke-width="2.0"/>
<polyline points="578.7,350.8 577.1,349.0 575.4,347.1 573.9,345.2 572.3,343.3 570.8,341.3 569.4,339.4 568.0,337.3 566.6,335.3 565.3,333.2 564.0,331.1 562.8,329.0 561.6,326.9 560.5,324.7 559.4,322.5 558.3,320.3 557.3,318.0 556.4,315.8 555.5,313.5 554.6,311.2 553.8,308.9 553.0,306.5 552.3,304.2 551.6,301.8 551.0,299.4 550.5,297.0 550.0,294.6 549.5,292.2 549.1,289.8 548.7,287.4 548.4,284.9 548.2,282.5 548.0,280.0 547.8,277.6 547.7,275.1 547.7,272.7 547.7,270.2 547.7,267.8 547.8,265.3 548.0,262.9 548.2,260.4 548.5,258.0 548.8,255.5 549.1,253.1 549.5,250.7 550.0,248.3 550.5,245.9 551.1,243.5 551.7,241.1 552.4,238.7 553.1,236.4 553.9,234.1 554.7,231.7 555.5,229.4 556.4,227.2 557.4,224.9 558.4,222.7 559.5,220.4 560.6,218.2 561.7,216.1 562.9,213.9" fill="none" stroke="#0077B6" stroke-width="2.5" stroke-linecap="round"/>
<polyline points="562.9,213.9 560.3,214.7 557.7,215.4 555.1,216.0 552.4,216.6 549.8,217.2 547.1,217.7 544.5,218.1 541.8,218.5 539.1,218.9 536.4,219.2 533.7,219.5 531.0,219.7 528.3,219.8 525.6,219.9 522.9,220.0 520.2,220.0 517.5,220.0 514.8,219.9 512.1,219.7 509.4,219.5 506.7,219.3 504.0,219.0 501.3,218.6 498.7,218.2 496.0,217.8 493.3,217.3 490.7,216.8 488.1,216.2 485.4,215.5 482.8,214.8 480.2,214.1 477.6,213.3 475.1,212.5 472.5,211.6 470.0,210.7 467.4,209.7 464.9,208.7 462.4,207.6 460.0,206.5 457.5,205.3 455.1,204.1 452.7,202.9 450.3,201.6 448.0,200.2 445.7,198.9 443.4,197.4 441.1,196.0 438.8,194.5 436.6,192.9 434.4,191.3 432.3,189.7 430.2,188.0 428.1,186.3 426.0,184.6 424.0,182.8 422.0,181.0 420.0,179.1 418.1,177.2 416.2,175.3 414.3,173.3" fill="none" stroke="#0077B6" stroke-width="2.5" stroke-linecap="round"/>
<polyline points="354.7,507.9 356.5,507.9 358.4,507.9 360.2,508.0 362.0,508.1 363.8,508.2 365.6,508.3 367.4,508.5 369.2,508.7 371.0,508.9 372.8,509.1 374.6,509.4 376.4,509.7 378.2,510.0 380.0,510.4 381.8,510.7 383.5,511.1 385.3,511.6 387.1,512.0 388.8,512.5 390.6,513.0 392.3,513.5 394.0,514.0 395.8,514.6 397.5,515.2 399.2,515.8 400.9,516.5 402.6,517.1 404.3,517.8 405.9,518.5 407.6,519.3 409.2,520.0 410.9,520.8 412.5,521.6 414.1,522.4 415.7,523.3 417.3,524.2 418.9,525.1 420.5,526.0 422.0,526.9 423.5,527.9 425.1,528.9 426.6,529.9 428.1,530.9 429.6,532.0 431.0,533.0 432.5,534.1 433.9,535.2 435.3,536.4 436.7,537.5 438.1,538.7 439.5,539.9 440.9,541.1 442.2,542.3 443.5,543.6 444.8,544.8 446.1,546.1 447.4,547.4 448.6,548.7 449.8,550.1 451.0,551.4" fill="none" stroke="#2E7D32" stroke-width="2.5" stroke-linecap="round"/>
<circle cx="368.8" cy="124.1" r="3.5" fill="#d32f2f"/>
<text x="368.8" y="108.1" text-anchor="middle" font-family="Arial" font-size="10" font-weight="bold" fill="#d32f2f">P.O.B.</text>
<circle cx="145.9" cy="169.8" r="3.5" fill="#d32f2f"/>
<text x="135.9" y="161.8" text-anchor="end" font-family="Arial" font-size="10" font-weight="bold" fill="#d32f2f">P2</text>
<circle cx="145.9" cy="507.9" r="3.5" fill="#d32f2f"/>
<text x="135.9" y="514.9" text-anchor="end" font-family="Arial" font-size="10" font-weight="bold" fill="#d32f2f">P3</text>
<circle cx="354.7" cy="507.9" r="3.5" fill="#2E7D32"/>
<text x="354.7" y="495.9" text-anchor="middle" font-family="Arial" font-size="10" font-weight="bold" fill="#2E7D32">T3</text>
<circle cx="451.0" cy="551.4" r="3.5" fill="#2E7D32"/>
<text x="459.0" y="545.4" text-anchor="start" font-family="Arial" font-size="10" font-weight="bold" fill="#2E7D32">PX</text>
<circle cx="517.1" cy="507.9" r="3.5" fill="#d32f2f"/>
<text x="527.1" y="517.9" text-anchor="start" font-family="Arial" font-size="10" font-weight="bold" fill="#d32f2f">P4</text>
<circle cx="645.7" cy="423.1" r="3.5" fill="#d32f2f"/>
<text x="659.7" y="426.1" text-anchor="start" font-family="Arial" font-size="10" font-weight="bold" fill="#d32f2f">P5</text>
<circle cx="578.7" cy="350.8" r="3.5" fill="#0077B6"/>
<text x="588.7" y="346.8" text-anchor="start" font-family="Arial" font-size="10" font-weight="bold" fill="#0077B6">T1</text>
<circle cx="562.9" cy="213.9" r="3.5" fill="#0077B6"/>
<text x="570.9" y="205.9" text-anchor="start" font-family="Arial" font-size="10" font-weight="bold" fill="#0077B6">PA</text>
<circle cx="414.3" cy="173.3" r="3.5" fill="#0077B6"/>
<text x="404.3" y="169.3" text-anchor="end" font-family="Arial" font-size="10" font-weight="bold" fill="#0077B6">T2</text>
<g transform="translate(261.0,164.6) rotate(11.6)">
  <text x="0" y="-3" text-anchor="middle" font-family="Arial" font-size="8.5" fill="#1a237e">Brg 258&#176; 25' 11.6"</text>
  <text x="0" y="8" text-anchor="middle" font-family="Arial" font-size="8.5" fill="#555">Dist 19' 6.2"</text>
</g>
<g transform="translate(163.9,338.8) rotate(-90.0)">
  <text x="0" y="-3" text-anchor="middle" font-family="Arial" font-size="8.5" fill="#1a237e">Brg 180&#176; 00' 00.0"</text>
  <text x="0" y="8" text-anchor="middle" font-family="Arial" font-size="8.5" fill="#555">Dist 29' 0.0"</text>
</g>
<g transform="translate(250.3,525.9) rotate(-0.0)">
  <text x="0" y="-3" text-anchor="middle" font-family="Arial" font-size="8.5" fill="#1a237e">Brg 90&#176; 00' 00.0"</text>
  <text x="0" y="8" text-anchor="middle" font-family="Arial" font-size="8.5" fill="#555">Dist 17' 10.9"</text>
</g>
<g transform="translate(475.3,516.3) rotate(33.4)">
  <text x="0" y="-3" text-anchor="middle" font-family="Arial" font-size="8.5" fill="#1a237e">Brg 56&#176; 36' 31.0"</text>
  <text x="0" y="8" text-anchor="middle" font-family="Arial" font-size="8.5" fill="#555">Dist 6' 9.5"</text>
</g>
<g transform="translate(572.6,452.1) rotate(33.4)">
  <text x="0" y="-3" text-anchor="middle" font-family="Arial" font-size="8.5" fill="#1a237e">Brg 56&#176; 36' 31.0"</text>
  <text x="0" y="8" text-anchor="middle" font-family="Arial" font-size="8.5" fill="#555">Dist 13' 2.5"</text>
</g>
<g transform="translate(623.9,376.1) rotate(-47.2)">
  <text x="0" y="-3" text-anchor="middle" font-family="Arial" font-size="8.5" fill="#1a237e">Brg 317&#176; 11' 43.7"</text>
  <text x="0" y="8" text-anchor="middle" font-family="Arial" font-size="8.5" fill="#555">Dist 8' 5.5"</text>
</g>
<g transform="translate(403.3,137.8) rotate(-47.2)">
  <text x="0" y="-3" text-anchor="middle" font-family="Arial" font-size="8.5" fill="#1a237e">Brg 317&#176; 11' 43.7"</text>
  <text x="0" y="8" text-anchor="middle" font-family="Arial" font-size="8.5" fill="#555">Dist 5' 9.0"</text>
</g>
<text x="528.4" y="284.9" text-anchor="end" font-family="Arial" font-size="8.5" fill="#0077B6">Arc 1: R=10'</text>
<text x="482.8" y="230.8" text-anchor="middle" font-family="Arial" font-size="8.5" fill="#0077B6">Arc 2: R=12' 6"</text>
<text x="419.6" y="523.3" text-anchor="start" font-family="Arial" font-size="8.5" fill="#2E7D32">Arc 3: R=11'</text>
</g>
<g opacity="0.2">
<polygon points="366.7,130.5 151.8,174.5 151.8,502.0 354.7,502.0 356.5,502.0 358.4,502.1 360.2,502.1 362.0,502.2 363.8,502.3 365.6,502.5 367.4,502.6 369.2,502.8 371.0,503.0 372.8,503.3 374.6,503.5 376.4,503.8 378.2,504.1 380.0,504.4 381.7,504.8 383.5,505.2 385.3,505.6 387.1,506.0 388.8,506.4 390.6,506.9 392.3,507.4 394.0,507.9 395.8,508.5 397.5,509.0 399.2,509.6 400.9,510.2 402.6,510.9 404.3,511.5 406.0,512.2 407.7,512.9 409.3,513.6 411.0,514.4 412.6,515.2 414.2,516.0 415.9,516.8 417.5,517.6 419.1,518.5 420.7,519.4 422.2,520.3 423.8,521.2 425.3,522.1 426.9,523.1 428.4,524.1 429.9,525.1 431.4,526.1 432.9,527.2 434.3,528.2 435.8,529.3 437.2,530.4 438.7,531.5 440.1,532.7 441.5,533.9 442.8,535.0 444.2,536.2 445.5,537.5 446.9,538.7 448.2,540.0 449.5,541.2 450.7,542.5 452.0,543.8 513.9,503.0 636.8,422.0 574.4,354.7 572.8,353.0 571.3,351.2 569.8,349.4 568.3,347.6 566.8,345.7 565.4,343.8 564.0,341.9 562.7,339.9 561.4,338.0 560.1,336.0 558.9,333.9 557.7,331.9 556.6,329.8 555.5,327.7 554.4,325.6 553.4,323.5 552.4,321.4 551.5,319.2 550.6,317.0 549.7,314.8 548.9,312.6 548.1,310.4 547.4,308.1 546.7,305.8 546.1,303.6 545.5,301.3 544.9,299.0 544.4,296.7 544.0,294.4 543.6,292.0 543.2,289.7 542.9,287.4 542.6,285.0 542.3,282.7 542.1,280.3 542.0,278.0 541.9,275.6 541.8,273.2 541.8,270.9 541.9,268.5 541.9,266.2 542.1,263.8 542.2,261.4 542.5,259.1 542.7,256.7 543.0,254.4 543.4,252.1 543.8,249.7 544.2,247.4 544.7,245.1 545.3,242.8 545.8,240.5 546.5,238.2 547.1,236.0 547.8,233.7 548.6,231.5 549.4,229.3 550.2,227.0 551.1,224.9 552.0,222.7 549.5,223.2 546.9,223.6 544.3,224.1 541.8,224.4 539.2,224.8 536.6,225.0 534.0,225.3 531.4,225.5 528.9,225.6 526.3,225.7 523.7,225.8 521.1,225.8 518.5,225.8 515.9,225.7 513.3,225.6 510.7,225.5 508.1,225.3 505.5,225.0 502.9,224.7 500.4,224.4 497.8,224.0 495.2,223.6 492.7,223.1 490.1,222.6 487.6,222.0 485.1,221.4 482.5,220.8 480.0,220.1 477.5,219.4 475.1,218.6 472.6,217.8 470.1,217.0 467.7,216.1 465.3,215.1 462.9,214.1 460.5,213.1 458.1,212.1 455.8,211.0 453.4,209.8 451.1,208.6 448.8,207.4 446.6,206.2 444.3,204.9 442.1,203.5 439.9,202.1 437.7,200.7 435.6,199.3 433.4,197.8 431.3,196.3 429.2,194.7 427.2,193.1 425.2,191.5 423.2,189.8 421.2,188.1 419.3,186.4 417.4,184.6 415.5,182.8 413.7,181.0 411.8,179.1 410.1,177.3" fill="rgba(255,152,0,0.3)" stroke="none"/>
<line x1="366.7" y1="130.5" x2="151.8" y2="174.5" stroke="#BF360C" stroke-width="1.5"/>
<line x1="151.8" y1="174.5" x2="151.8" y2="502.0" stroke="#BF360C" stroke-width="1.5"/>
<line x1="151.8" y1="502.0" x2="354.7" y2="502.0" stroke="#BF360C" stroke-width="1.5"/>
<line x1="452.0" y1="543.8" x2="513.9" y2="503.0" stroke="#BF360C" stroke-width="1.5"/>
<line x1="513.9" y1="503.0" x2="636.8" y2="422.0" stroke="#BF360C" stroke-width="1.5"/>
<line x1="636.8" y1="422.0" x2="574.4" y2="354.7" stroke="#BF360C" stroke-width="1.5"/>
<line x1="410.1" y1="177.3" x2="366.7" y2="130.5" stroke="#BF360C" stroke-width="1.5"/>
<polyline points="574.4,354.7 572.8,353.0 571.3,351.2 569.8,349.4 568.3,347.6 566.8,345.7 565.4,343.8 564.0,341.9 562.7,339.9 561.4,338.0 560.1,336.0 558.9,333.9 557.7,331.9 556.6,329.8 555.5,327.7 554.4,325.6 553.4,323.5 552.4,321.4 551.5,319.2 550.6,317.0 549.7,314.8 548.9,312.6 548.1,310.4 547.4,308.1 546.7,305.8 546.1,303.6 545.5,301.3 544.9,299.0 544.4,296.7 544.0,294.4 543.6,292.0 543.2,289.7 542.9,287.4 542.6,285.0 542.3,282.7 542.1,280.3 542.0,278.0 541.9,275.6 541.8,273.2 541.8,270.9 541.9,268.5 541.9,266.2 542.1,263.8 542.2,261.4 542.5,259.1 542.7,256.7 543.0,254.4 543.4,252.1 543.8,249.7 544.2,247.4 544.7,245.1 545.3,242.8 545.8,240.5 546.5,238.2 547.1,236.0 547.8,233.7 548.6,231.5 549.4,229.3 550.2,227.0 551.1,224.9 552.0,222.7" fill="none" stroke="#BF360C" stroke-width="1.5" stroke-linecap="round"/>
<polyline points="552.0,222.7 549.5,223.2 546.9,223.6 544.3,224.1 541.8,224.4 539.2,224.8 536.6,225.0 534.0,225.3 531.4,225.5 528.9,225.6 526.3,225.7 523.7,225.8 521.1,225.8 518.5,225.8 515.9,225.7 513.3,225.6 510.7,225.5 508.1,225.3 505.5,225.0 502.9,224.7 500.4,224.4 497.8,224.0 495.2,223.6 492.7,223.1 490.1,222.6 487.6,222.0 485.1,221.4 482.5,220.8 480.0,220.1 477.5,219.4 475.1,218.6 472.6,217.8 470.1,217.0 467.7,216.1 465.3,215.1 462.9,214.1 460.5,213.1 458.1,212.1 455.8,211.0 453.4,209.8 451.1,208.6 448.8,207.4 446.6,206.2 444.3,204.9 442.1,203.5 439.9,202.1 437.7,200.7 435.6,199.3 433.4,197.8 431.3,196.3 429.2,194.7 427.2,193.1 425.2,191.5 423.2,189.8 421.2,188.1 419.3,186.4 417.4,184.6 415.5,182.8 413.7,181.0 411.8,179.1 410.1,177.3" fill="none" stroke="#BF360C" stroke-width="1.5" stroke-linecap="round"/>
<polyline points="354.7,502.0 356.5,502.0 358.4,502.1 360.2,502.1 362.0,502.2 363.8,502.3 365.6,502.5 367.4,502.6 369.2,502.8 371.0,503.0 372.8,503.3 374.6,503.5 376.4,503.8 378.2,504.1 380.0,504.4 381.7,504.8 383.5,505.2 385.3,505.6 387.1,506.0 388.8,506.4 390.6,506.9 392.3,507.4 394.0,507.9 395.8,508.5 397.5,509.0 399.2,509.6 400.9,510.2 402.6,510.9 404.3,511.5 406.0,512.2 407.7,512.9 409.3,513.6 411.0,514.4 412.6,515.2 414.2,516.0 415.9,516.8 417.5,517.6 419.1,518.5 420.7,519.4 422.2,520.3 423.8,521.2 425.3,522.1 426.9,523.1 428.4,524.1 429.9,525.1 431.4,526.1 432.9,527.2 434.3,528.2 435.8,529.3 437.2,530.4 438.7,531.5 440.1,532.7 441.5,533.9 442.8,535.0 444.2,536.2 445.5,537.5 446.9,538.7 448.2,540.0 449.5,541.2 450.7,542.5 452.0,543.8" fill="none" stroke="#BF360C" stroke-width="1.5" stroke-linecap="round"/>
<circle cx="366.7" cy="130.5" r="2.5" fill="#BF360C"/>
<text x="366.7" y="144.5" text-anchor="middle" font-family="Arial" font-size="8.5" font-weight="bold" fill="#BF360C">PiOB</text>
<circle cx="151.8" cy="174.5" r="2.5" fill="#BF360C"/>
<text x="157.8" y="178.5" text-anchor="start" font-family="Arial" font-size="8.5" font-weight="bold" fill="#BF360C">Pi2</text>
<circle cx="151.8" cy="502.0" r="2.5" fill="#BF360C"/>
<text x="157.8" y="498.0" text-anchor="start" font-family="Arial" font-size="8.5" font-weight="bold" fill="#BF360C">Pi3</text>
<circle cx="354.7" cy="502.0" r="2.5" fill="#BF360C"/>
<text x="354.7" y="516.0" text-anchor="middle" font-family="Arial" font-size="8.5" font-weight="bold" fill="#BF360C">Ti3</text>
<circle cx="452.0" cy="543.8" r="2.5" fill="#BF360C"/>
<text x="444.0" y="537.8" text-anchor="end" font-family="Arial" font-size="8.5" font-weight="bold" fill="#BF360C">PiX</text>
<circle cx="513.9" cy="503.0" r="2.5" fill="#BF360C"/>
<text x="505.9" y="515.0" text-anchor="end" font-family="Arial" font-size="8.5" font-weight="bold" fill="#BF360C">Pi4</text>
<circle cx="636.8" cy="422.0" r="2.5" fill="#BF360C"/>
<text x="628.8" y="414.0" text-anchor="end" font-family="Arial" font-size="8.5" font-weight="bold" fill="#BF360C">Pi5</text>
<circle cx="574.4" cy="354.7" r="2.5" fill="#BF360C"/>
<text x="566.4" y="366.7" text-anchor="end" font-family="Arial" font-size="8.5" font-weight="bold" fill="#BF360C">Ti1</text>
<circle cx="552.0" cy="222.7" r="2.5" fill="#BF360C"/>
<text x="544.0" y="226.7" text-anchor="end" font-family="Arial" font-size="8.5" font-weight="bold" fill="#BF360C">Ai2</text>
<circle cx="410.1" cy="177.3" r="2.5" fill="#BF360C"/>
<text x="418.1" y="189.3" text-anchor="start" font-family="Arial" font-size="8.5" font-weight="bold" fill="#BF360C">Ti2</text>
</g>
<polygon points="151.8,226.1 151.8,492.3 151.8,493.1 151.9,493.8 152.0,494.6 152.2,495.3 152.5,496.0 152.8,496.7 153.2,497.4 153.6,498.0 154.1,498.6 154.6,499.2 155.2,499.7 155.8,500.2 156.4,500.6 157.1,501.0 157.8,501.3 158.5,501.6 159.2,501.8 159.9,501.9 160.7,502.0 161.5,502.0 354.7,502.0 355.6,502.0 356.5,502.0 357.5,502.1 358.4,502.1 359.3,502.1 360.2,502.1 361.1,502.2 362.0,502.2 362.9,502.3 363.8,502.3 364.7,502.4 365.7,502.5 366.6,502.6 367.5,502.6 368.4,502.7 369.3,502.8 370.2,502.9 371.1,503.0 372.0,503.1 372.9,503.3 373.8,503.4 374.7,503.5 375.6,503.7 376.5,503.8 377.4,504.0 378.3,504.1 379.2,504.3 380.1,504.5 381.0,504.6 381.9,504.8 382.8,505.0 383.7,505.2 384.6,505.4 385.5,505.6 386.3,505.8 387.2,506.0 388.1,506.3 389.0,506.5 389.9,506.7 390.8,507.0 391.6,507.2 392.5,507.5 393.4,507.7 394.3,508.0 395.1,508.3 396.0,508.5 396.9,508.8 397.7,509.1 398.6,509.4 399.5,509.7 400.3,510.0 401.2,510.3 402.0,510.6 402.9,511.0 403.7,511.3 404.6,511.6 405.4,512.0 406.3,512.3 407.1,512.7 407.9,513.0 413.0,515.1 418.2,516.9 423.4,518.4 428.8,519.7 434.1,520.7 439.6,521.4 445.0,521.9 450.5,522.1 456.0,522.0 461.4,521.7 466.9,521.1 472.3,520.2 477.6,519.1 482.9,517.6 488.1,516.0 493.2,514.1 498.2,511.9 503.2,509.4 507.9,506.8 512.6,503.9 614.7,436.5 615.4,436.1 615.9,435.6 616.5,435.1 617.0,434.5 617.4,433.9 617.8,433.2 618.2,432.6 618.5,431.8 618.7,431.1 618.9,430.4 619.0,429.6 619.1,428.9 619.1,428.1 619.1,427.3 618.9,426.6 618.8,425.9 618.5,425.1 618.2,424.4 617.9,423.7 617.5,423.1 562.0,338.9 561.4,337.9 560.7,336.9 560.1,335.9 559.5,334.9 558.9,333.9 558.3,332.9 557.7,331.8 557.1,330.8 556.5,329.7 556.0,328.7 555.4,327.6 554.9,326.6 554.4,325.5 553.8,324.4 553.3,323.4 552.8,322.3 552.4,321.2 551.9,320.1 551.4,319.0 551.0,317.9 550.5,316.8 550.1,315.7 549.6,314.6 549.2,313.5 548.8,312.4 548.4,311.3 548.1,310.1 547.7,309.0 547.3,307.9 547.0,306.7 546.7,305.6 546.3,304.4 546.0,303.3 545.7,302.1 545.4,301.0 545.1,299.8 544.9,298.7 544.6,297.5 544.4,296.4 544.1,295.2 543.9,294.0 543.7,292.9 543.5,291.7 543.3,290.5 543.1,289.3 543.0,288.2 542.8,287.0 542.7,285.8 542.5,284.6 542.4,283.4 542.3,282.2 542.2,281.1 542.1,279.9 542.0,278.7 542.0,277.5 541.9,276.3 541.9,275.1 541.9,273.9 541.8,272.7 541.8,271.6 541.8,255.3 541.7,253.1 541.5,251.0 541.1,248.9 540.5,246.9 539.8,244.9 538.9,242.9 537.8,241.1 536.6,239.3 535.3,237.6 533.9,236.0 532.3,234.6 530.6,233.3 528.8,232.1 527.0,231.0 525.0,230.1 523.0,229.4 521.0,228.8 518.9,228.4 516.8,228.2 514.6,228.1 272.2,228.1 272.1,228.1 271.9,228.1 271.8,228.0 271.6,228.0 271.5,227.9 271.3,227.9 271.2,227.8 271.1,227.7 271.0,227.6 270.8,227.5 270.7,227.4 270.6,227.3 270.6,227.1 270.5,227.0 270.4,226.9 270.4,226.7 270.3,226.6 270.3,226.4 270.3,226.3 270.3,226.1 270.2,224.0 269.9,221.9 269.5,219.8 268.9,217.7 268.2,215.7 267.3,213.8 266.3,211.9 265.1,210.1 263.8,208.5 262.3,206.9 260.7,205.4 259.1,204.1 257.3,202.9 255.4,201.9 253.5,201.0 251.5,200.3 249.4,199.7 247.3,199.3 245.2,199.0 243.1,198.9 179.0,198.9 176.8,199.0 174.7,199.3 172.6,199.7 170.5,200.3 168.5,201.0 166.6,201.9 164.7,202.9 163.0,204.1 161.3,205.4 159.7,206.9 158.3,208.5 156.9,210.1 155.8,211.9 154.7,213.8 153.8,215.7 153.1,217.7 152.5,219.8 152.1,221.9 151.8,224.0" fill="rgba(200,230,255,0.25)" stroke="none"/>
<line x1="151.8" y1="226.1" x2="151.8" y2="492.3" stroke="#333" stroke-width="2.0"/>
<line x1="161.5" y1="502.0" x2="354.7" y2="502.0" stroke="#333" stroke-width="2.0"/>
<line x1="512.6" y1="503.9" x2="614.7" y2="436.5" stroke="#333" stroke-width="2.0"/>
<line x1="617.5" y1="423.1" x2="562.0" y2="338.9" stroke="#333" stroke-width="2.0"/>
<line x1="541.8" y1="271.6" x2="541.8" y2="255.3" stroke="#333" stroke-width="2.0"/>
<line x1="514.6" y1="228.1" x2="272.2" y2="228.1" stroke="#333" stroke-width="2.0"/>
<line x1="243.1" y1="198.9" x2="179.0" y2="198.9" stroke="#333" stroke-width="2.0"/>
<polyline points="562.0,338.9 561.4,337.9 560.7,336.9 560.1,335.9 559.5,334.9 558.9,333.9 558.3,332.9 557.7,331.8 557.1,330.8 556.5,329.7 556.0,328.7 555.4,327.6 554.9,326.6 554.4,325.5 553.8,324.4 553.3,323.4 552.8,322.3 552.4,321.2 551.9,320.1 551.4,319.0 551.0,317.9 550.5,316.8 550.1,315.7 549.6,314.6 549.2,313.5 548.8,312.4 548.4,311.3 548.1,310.1 547.7,309.0 547.3,307.9 547.0,306.7 546.7,305.6 546.3,304.4 546.0,303.3 545.7,302.1 545.4,301.0 545.1,299.8 544.9,298.7 544.6,297.5 544.4,296.4 544.1,295.2 543.9,294.0 543.7,292.9 543.5,291.7 543.3,290.5 543.1,289.3 543.0,288.2 542.8,287.0 542.7,285.8 542.5,284.6 542.4,283.4 542.3,282.2 542.2,281.1 542.1,279.9 542.0,278.7 542.0,277.5 541.9,276.3 541.9,275.1 541.9,273.9 541.8,272.7 541.8,271.6" fill="none" stroke="#0077B6" stroke-width="2.5" stroke-linecap="round"/>
<polyline points="354.7,502.0 355.6,502.0 356.5,502.0 357.5,502.1 358.4,502.1 359.3,502.1 360.2,502.1 361.1,502.2 362.0,502.2 362.9,502.3 363.8,502.3 364.7,502.4 365.7,502.5 366.6,502.6 367.5,502.6 368.4,502.7 369.3,502.8 370.2,502.9 371.1,503.0 372.0,503.1 372.9,503.3 373.8,503.4 374.7,503.5 375.6,503.7 376.5,503.8 377.4,504.0 378.3,504.1 379.2,504.3 380.1,504.5 381.0,504.6 381.9,504.8 382.8,505.0 383.7,505.2 384.6,505.4 385.5,505.6 386.3,505.8 387.2,506.0 388.1,506.3 389.0,506.5 389.9,506.7 390.8,507.0 391.6,507.2 392.5,507.5 393.4,507.7 394.3,508.0 395.1,508.3 396.0,508.5 396.9,508.8 397.7,509.1 398.6,509.4 399.5,509.7 400.3,510.0 401.2,510.3 402.0,510.6 402.9,511.0 403.7,511.3 404.6,511.6 405.4,512.0 406.3,512.3 407.1,512.7 407.9,513.0" fill="none" stroke="#2E7D32" stroke-width="2.5" stroke-linecap="round"/>
<polyline points="407.9,513.0 413.0,515.1 418.2,516.9 423.4,518.4 428.8,519.7 434.1,520.7 439.6,521.4 445.0,521.9 450.5,522.1 456.0,522.0 461.4,521.7 466.9,521.1 472.3,520.2 477.6,519.1 482.9,517.6 488.1,516.0 493.2,514.1 498.2,511.9 503.2,509.4 507.9,506.8 512.6,503.9" fill="none" stroke="#333" stroke-width="2.0" stroke-linecap="round"/>
<polyline points="614.7,436.5 615.4,436.1 615.9,435.6 616.5,435.1 617.0,434.5 617.4,433.9 617.8,433.2 618.2,432.6 618.5,431.8 618.7,431.1 618.9,430.4 619.0,429.6 619.1,428.9 619.1,428.1 619.1,427.3 618.9,426.6 618.8,425.9 618.5,425.1 618.2,424.4 617.9,423.7 617.5,423.1" fill="none" stroke="#333" stroke-width="2.0" stroke-linecap="round"/>
<polyline points="151.8,492.3 151.8,493.1 151.9,493.8 152.0,494.6 152.2,495.3 152.5,496.0 152.8,496.7 153.2,497.4 153.6,498.0 154.1,498.6 154.6,499.2 155.2,499.7 155.8,500.2 156.4,500.6 157.1,501.0 157.8,501.3 158.5,501.6 159.2,501.8 159.9,501.9 160.7,502.0 161.5,502.0" fill="none" stroke="#333" stroke-width="2.0" stroke-linecap="round"/>
<polyline points="179.0,198.9 176.8,199.0 174.7,199.3 172.6,199.7 170.5,200.3 168.5,201.0 166.6,201.9 164.7,202.9 163.0,204.1 161.3,205.4 159.7,206.9 158.3,208.5 156.9,210.1 155.8,211.9 154.7,213.8 153.8,215.7 153.1,217.7 152.5,219.8 152.1,221.9 151.8,224.0 151.8,226.1" fill="none" stroke="#333" stroke-width="2.0" stroke-linecap="round"/>
<polyline points="272.2,228.1 272.1,228.1 271.9,228.1 271.8,228.0 271.6,228.0 271.5,227.9 271.3,227.9 271.2,227.8 271.1,227.7 271.0,227.6 270.8,227.5 270.7,227.4 270.6,227.3 270.6,227.1 270.5,227.0 270.4,226.9 270.4,226.7 270.3,226.6 270.3,226.4 270.3,226.3 270.3,226.1" fill="none" stroke="#333" stroke-width="2.0" stroke-linecap="round"/>
<polyline points="270.3,226.1 270.2,224.0 269.9,221.9 269.5,219.8 268.9,217.7 268.2,215.7 267.3,213.8 266.3,211.9 265.1,210.1 263.8,208.5 262.3,206.9 260.7,205.4 259.1,204.1 257.3,202.9 255.4,201.9 253.5,201.0 251.5,200.3 249.4,199.7 247.3,199.3 245.2,199.0 243.1,198.9" fill="none" stroke="#333" stroke-width="2.0" stroke-linecap="round"/>
<polyline points="541.8,255.3 541.7,253.1 541.5,251.0 541.1,248.9 540.5,246.9 539.8,244.9 538.9,242.9 537.8,241.1 536.6,239.3 535.3,237.6 533.9,236.0 532.3,234.6 530.6,233.3 528.8,232.1 527.0,231.0 525.0,230.1 523.0,229.4 521.0,228.8 518.9,228.4 516.8,228.2 514.6,228.1" fill="none" stroke="#333" stroke-width="2.0" stroke-linecap="round"/>
<g clip-path="url(#page)">
<line x1="664.2" y1="271.6" x2="562.0" y2="338.9" stroke="#0077B6" stroke-width="0.6" stroke-dasharray="4,3"/>
<line x1="660.2" y1="271.6" x2="668.2" y2="271.6" stroke="#0077B6" stroke-width="0.7"/>
<line x1="664.2" y1="267.6" x2="664.2" y2="275.6" stroke="#0077B6" stroke-width="0.7"/>
<line x1="354.7" y1="636.1" x2="354.7" y2="502.0" stroke="#2E7D32" stroke-width="0.6" stroke-dasharray="4,3"/>
<line x1="161.5" y1="492.3" x2="151.8" y2="492.3" stroke="#333" stroke-width="0.6" stroke-dasharray="4,3"/>
<line x1="157.5" y1="492.3" x2="165.5" y2="492.3" stroke="#333" stroke-width="0.7"/>
<line x1="161.5" y1="488.3" x2="161.5" y2="496.3" stroke="#333" stroke-width="0.7"/>
<line x1="179.0" y1="226.1" x2="179.0" y2="198.9" stroke="#333" stroke-width="0.6" stroke-dasharray="4,3"/>
<line x1="175.0" y1="226.1" x2="183.0" y2="226.1" stroke="#333" stroke-width="0.7"/>
<line x1="179.0" y1="222.1" x2="179.0" y2="230.1" stroke="#333" stroke-width="0.7"/>
<line x1="451.8" y1="411.7" x2="407.9" y2="513.0" stroke="#333" stroke-width="0.6" stroke-dasharray="4,3"/>
<line x1="447.8" y1="411.7" x2="455.8" y2="411.7" stroke="#333" stroke-width="0.7"/>
<line x1="451.8" y1="407.7" x2="451.8" y2="415.7" stroke="#333" stroke-width="0.7"/>
<line x1="609.4" y1="428.4" x2="614.7" y2="436.5" stroke="#333" stroke-width="0.6" stroke-dasharray="4,3"/>
<line x1="605.4" y1="428.4" x2="613.4" y2="428.4" stroke="#333" stroke-width="0.7"/>
<line x1="609.4" y1="424.4" x2="609.4" y2="432.4" stroke="#333" stroke-width="0.7"/>
<line x1="243.1" y1="226.1" x2="243.1" y2="198.9" stroke="#333" stroke-width="0.6" stroke-dasharray="4,3"/>
<line x1="239.1" y1="226.1" x2="247.1" y2="226.1" stroke="#333" stroke-width="0.7"/>
<line x1="243.1" y1="222.1" x2="243.1" y2="230.1" stroke="#333" stroke-width="0.7"/>
<line x1="272.2" y1="226.1" x2="270.3" y2="226.1" stroke="#333" stroke-width="0.6" stroke-dasharray="4,3"/>
<line x1="268.2" y1="226.1" x2="276.2" y2="226.1" stroke="#333" stroke-width="0.7"/>
<line x1="272.2" y1="222.1" x2="272.2" y2="230.1" stroke="#333" stroke-width="0.7"/>
<line x1="514.6" y1="255.3" x2="514.6" y2="228.1" stroke="#333" stroke-width="0.6" stroke-dasharray="4,3"/>
<line x1="510.6" y1="255.3" x2="518.6" y2="255.3" stroke="#333" stroke-width="0.7"/>
<line x1="514.6" y1="251.3" x2="514.6" y2="259.3" stroke="#333" stroke-width="0.7"/>
</g>
<circle cx="151.8" cy="226.1" r="3.5" fill="#d32f2f"/>
<text x="143.8" y="220.1" text-anchor="end" font-family="Arial" font-size="10" font-weight="bold" fill="#d32f2f">O2</text>
<circle cx="151.8" cy="492.3" r="3.5" fill="#d32f2f"/>
<text x="143.8" y="488.3" text-anchor="end" font-family="Arial" font-size="10" font-weight="bold" fill="#d32f2f">O1</text>
<circle cx="161.5" cy="502.0" r="3.5" fill="#d32f2f"/>
<text x="153.5" y="512.0" text-anchor="end" font-family="Arial" font-size="10" font-weight="bold" fill="#d32f2f">O0</text>
<circle cx="354.7" cy="502.0" r="3.5" fill="#2E7D32"/>
<text x="354.7" y="490.0" text-anchor="middle" font-family="Arial" font-size="10" font-weight="bold" fill="#2E7D32">O15</text>
<circle cx="407.9" cy="513.0" r="3.5" fill="#2E7D32"/>
<text x="415.9" y="507.0" text-anchor="start" font-family="Arial" font-size="10" font-weight="bold" fill="#2E7D32">O14</text>
<circle cx="512.6" cy="503.9" r="3.5" fill="#d32f2f"/>
<text x="522.6" y="513.9" text-anchor="start" font-family="Arial" font-size="10" font-weight="bold" fill="#d32f2f">O13</text>
<circle cx="614.7" cy="436.5" r="3.5" fill="#d32f2f"/>
<text x="622.7" y="440.5" text-anchor="start" font-family="Arial" font-size="10" font-weight="bold" fill="#d32f2f">O12</text>
<circle cx="617.5" cy="423.1" r="3.5" fill="#d32f2f"/>
<text x="625.5" y="427.1" text-anchor="start" font-family="Arial" font-size="10" font-weight="bold" fill="#d32f2f">O11</text>
<circle cx="562.0" cy="338.9" r="3.5" fill="#0077B6"/>
<text x="572.0" y="334.9" text-anchor="start" font-family="Arial" font-size="10" font-weight="bold" fill="#0077B6">O10</text>
<circle cx="541.8" cy="271.6" r="3.5" fill="#0077B6"/>
<text x="549.8" y="279.6" text-anchor="start" font-family="Arial" font-size="10" font-weight="bold" fill="#0077B6">O9</text>
<circle cx="541.8" cy="255.3" r="3.5" fill="#d32f2f"/>
<text x="549.8" y="267.3" text-anchor="start" font-family="Arial" font-size="10" font-weight="bold" fill="#d32f2f">O8</text>
<circle cx="514.6" cy="228.1" r="3.5" fill="#d32f2f"/>
<text x="506.6" y="222.1" text-anchor="end" font-family="Arial" font-size="10" font-weight="bold" fill="#d32f2f">O7</text>
<circle cx="272.2" cy="228.1" r="3.5" fill="#d32f2f"/>
<text x="272.2" y="242.1" text-anchor="middle" font-family="Arial" font-size="10" font-weight="bold" fill="#d32f2f">O6</text>
<circle cx="270.3" cy="226.1" r="3.5" fill="#d32f2f"/>
<text x="262.3" y="222.1" text-anchor="end" font-family="Arial" font-size="10" font-weight="bold" fill="#d32f2f">O5</text>
<circle cx="243.1" cy="198.9" r="3.5" fill="#d32f2f"/>
<text x="243.1" y="186.9" text-anchor="middle" font-family="Arial" font-size="10" font-weight="bold" fill="#d32f2f">O4</text>
<circle cx="179.0" cy="198.9" r="3.5" fill="#d32f2f"/>
<text x="169.0" y="192.9" text-anchor="end" font-family="Arial" font-size="10" font-weight="bold" fill="#d32f2f">O3</text>
<g transform="translate(169.8,359.2) rotate(-90.0)">
  <text x="0" y="-3" text-anchor="middle" font-family="Arial" font-size="8.5" fill="#1a237e">180.00&#176;</text>
  <text x="0" y="8" text-anchor="middle" font-family="Arial" font-size="8.5" fill="#555">22' 10.0"</text>
</g>
<g transform="translate(258.1,520.0) rotate(0.0)">
  <text x="0" y="-3" text-anchor="middle" font-family="Arial" font-size="8.5" fill="#1a237e">90.00&#176;</text>
  <text x="0" y="8" text-anchor="middle" font-family="Arial" font-size="8.5" fill="#555">16' 6.9"</text>
</g>
<g transform="translate(554.9,456.9) rotate(33.4)">
  <text x="0" y="-3" text-anchor="middle" font-family="Arial" font-size="8.5" fill="#1a237e">56.61&#176;</text>
  <text x="0" y="8" text-anchor="middle" font-family="Arial" font-size="8.5" fill="#555">10' 6.0"</text>
</g>
<g transform="translate(603.1,372.2) rotate(-56.6)">
  <text x="0" y="-3" text-anchor="middle" font-family="Arial" font-size="8.5" fill="#1a237e">326.61&#176;</text>
  <text x="0" y="8" text-anchor="middle" font-family="Arial" font-size="8.5" fill="#555">8' 7.8"</text>
</g>
<g transform="translate(557.8,263.4) rotate(90.0)">
  <text x="0" y="-3" text-anchor="middle" font-family="Arial" font-size="8.5" fill="#1a237e">0.00&#176;</text>
  <text x="0" y="8" text-anchor="middle" font-family="Arial" font-size="8.5" fill="#555">1' 4.8"</text>
</g>
<g transform="translate(393.4,212.1) rotate(0.0)">
  <text x="0" y="-3" text-anchor="middle" font-family="Arial" font-size="8.5" fill="#1a237e">270.00&#176;</text>
  <text x="0" y="8" text-anchor="middle" font-family="Arial" font-size="8.5" fill="#555">20' 9.5"</text>
</g>
<g transform="translate(211.0,182.9) rotate(0.0)">
  <text x="0" y="-3" text-anchor="middle" font-family="Arial" font-size="8.5" fill="#1a237e">270.00&#176;</text>
  <text x="0" y="8" text-anchor="middle" font-family="Arial" font-size="8.5" fill="#555">5' 6.0"</text>
</g>
<text x="527.0" y="306.7" text-anchor="end" font-family="Arial" font-size="8.5" fill="#0077B6">Arc 1o: R=10' 6"</text>
<text x="527.0" y="317.7" text-anchor="end" font-family="Arial" font-size="8.5" fill="#0077B6">33.4&#176; CW</text>
<text x="545.9" y="236.0" text-anchor="start" font-family="Arial" font-size="8.5" fill="#333">Turn R=28"</text>
<text x="545.9" y="247.0" text-anchor="start" font-family="Arial" font-size="8.5" fill="#333">90.0&#176;</text>
<text x="393.9" y="508.8" text-anchor="start" font-family="Arial" font-size="8.5" fill="#2E7D32">Arc 3o: R=11' 6"</text>
<text x="393.9" y="519.8" text-anchor="start" font-family="Arial" font-size="8.5" fill="#2E7D32">23.4&#176; CW</text>
<text x="473.4" y="511.7" text-anchor="start" font-family="Arial" font-size="8.5" fill="#333">Fillet R=113.7"</text>
<text x="473.4" y="522.7" text-anchor="start" font-family="Arial" font-size="8.5" fill="#333">56.8&#176;</text>
<text x="628.9" y="420.4" text-anchor="start" font-family="Arial" font-size="8.5" fill="#333">Fillet R=10"</text>
<text x="628.9" y="431.4" text-anchor="start" font-family="Arial" font-size="8.5" fill="#333">90.0&#176;</text>
<text x="144.6" y="513.2" text-anchor="end" font-family="Arial" font-size="8.5" fill="#333">Fillet R=10"</text>
<text x="144.6" y="524.2" text-anchor="end" font-family="Arial" font-size="8.5" fill="#333">90.0&#176;</text>
<text x="149.7" y="192.9" text-anchor="end" font-family="Arial" font-size="8.5" fill="#333">Fillet R=28"</text>
<text x="149.7" y="203.9" text-anchor="end" font-family="Arial" font-size="8.5" fill="#333">90.0&#176;</text>
<text x="260.8" y="241.5" text-anchor="end" font-family="Arial" font-size="8.5" fill="#333">Turn R=2"</text>
<text x="260.8" y="252.5" text-anchor="end" font-family="Arial" font-size="8.5" fill="#333">90.0&#176;</text>
<text x="274.3" y="206.9" text-anchor="start" font-family="Arial" font-size="8.5" fill="#333">Turn R=28"</text>
<text x="274.3" y="217.9" text-anchor="start" font-family="Arial" font-size="8.5" fill="#333">90.0&#176;</text>
<text x="381.1" y="346.6" text-anchor="middle" font-family="Arial" font-size="12" fill="#333" font-weight="bold">873.06 sq ft</text>
<text x="381.1" y="360.6" text-anchor="middle" font-family="Arial" font-size="9" fill="#666">(Outline enclosed area)</text>
<line x1="742" y1="560" x2="742" y2="524" stroke="#333" stroke-width="2" marker-end="url(#ah)"/>
<text x="742" y="518" text-anchor="middle" font-family="Arial" font-size="13" font-weight="bold">N</text>
<rect x="40" y="550" width="14" height="8" fill="#e8edf5" stroke="#333" stroke-width="1" opacity="0.3"/>
<text x="60" y="557" font-family="Arial" font-size="8" fill="#999">Outer path at 20% (1089.16 sq ft)</text>
<rect x="40" y="562" width="14" height="8" fill="rgba(255,152,0,0.35)" stroke="#BF360C" stroke-width="1" opacity="0.3"/>
<text x="60" y="569" font-family="Arial" font-size="8" fill="#999">Inset path at 20% (1022.16 sq ft)</text>
<line x1="40" y1="578" x2="54" y2="578" stroke="#333" stroke-width="2.0"/>
<text x="60" y="581" font-family="Arial" font-size="8" fill="#333">Outline path (873.06 sq ft) &#8212; fillets R=9" &amp; R=28"</text>
<line x1="40" y1="590" x2="54" y2="590" stroke="#0077B6" stroke-width="2.5"/>
<text x="60" y="593" font-family="Arial" font-size="8" fill="#333">Outline Arc 1o (R=10' 6")</text>
<line x1="40" y1="602" x2="54" y2="602" stroke="#2E7D32" stroke-width="2.5"/>
<text x="60" y="605" font-family="Arial" font-size="8" fill="#333">Outline Arc 3o (R=11' 6")</text>
<text x="396.0" y="610" text-anchor="middle" font-family="Arial" font-size="7.5" fill="#999">Bearings as adjusted &#8226; Distances in feet and inches &#8226; Outline arcs: R1o=10' 6", R3o=11' 6"</text>
</svg>