<svg xmlns="http://www.w3.org/2000/svg" width="792" height="612" viewBox="0 0 792 612">
<rect width="792" height="612" fill="white"/>
<defs>
  <marker id="ah" markerWidth="8" markerHeight="6" refX="8" refY="3" orient="auto"><polygon points="0 0, 8 3, 0 6" fill="#333"/></marker>
  <clipPath id="page"><rect width="792" height="612"/></clipPath>
</defs>
<text x="396.0" y="30" text-anchor="middle" font-family="Arial" font-size="14" font-weight="bold">Site Path — Outline (wall arcs R=28″, fillets R=10″ &amp; R=28″)</text>
<g opacity="0.2">
<polygon points="368.8,124.1 145.9,169.8 145.9,507.9 517.1,507.9 645.7,423.1" fill="none" stroke="#bbb" stroke-width="0.8" stroke-dasharray="4,4"/>
<polygon points="368.8,124.1 145.9,169.8 145.9,507.9 354.7,507.9 356.5,507.9 358.4,507.9 360.2,508.0 362.0,508.1 363.8,508.2 365.6,508.3 367.4,508.5 369.2,508.7 371.0,508.9 372.8,509.1 374.6,509.4 376.4,509.7 378.2,510.0 380.0,510.4 381.8,510.7 383.5,511.1 385.3,511.6 387.1,512.0 388.8,512.5 390.6,513.0 392.3,513.5 394.0,514.0 395.8,514.6 397.5,515.2 399.2,515.8 400.9,516.5 402.6,517.1 404.3,517.8 405.9,518.5 407.6,519.3 409.2,520.0 410.9,520.8 412.5,521.6 414.1,522.4 415.7,523.3 417.3,524.2 418.9,525.1 420.5,526.0 422.0,526.9 423.5,527.9 425.1,528.9 426.6,529.9 428.1,530.9 429.6,532.0 431.0,533.0 432.5,534.1 433.9,535.2 435.3,536.4 436.7,537.5 438.1,538.7 439.5,539.9 440.9,541.1 442.2,542.3 443.5,543.6 444.8,544.8 446.1,546.1 447.4,547.4 448.6,548.7 449.8,550.1 451.0,551.4 517.1,507.9 645.7,423.1 578.7,350.8 577.1,349.0 575.4,347.1 573.9,345.2 572.3,343.3 570.8,341.3 569.4,339.4 568.0,337.3 566.6,335.3 565.3,333.2 564.0,331.1 562.8,329.0 561.6,326.9 560.5,324.7 559.4,322.5 558.3,320.3 557.3,318.0 556.4,315.8 555.5,313.5 554.6,311.2 553.8,308.9 553.0,306.5 552.3,304.2 551.6,301.8 551.0,299.4 550.5,297.0 550.0,294.6 549.5,292.2 549.1,289.8 548.7,287.4 548.4,284.9 548.2,282.5 548.0,280.0 547.8,277.6 547.7,275.1 547.7,272.7 547.7,270.2 547.7,267.8 547.8,265.3 548.0,262.9 548.2,260.4 548.5,258.0 548.8,255.5 549.1,253.1 549.5,250.7 550.0,248.3 550.5,245.9 551.1,243.5 551.7,241.1 552.4,238.7 553.1,236.4 553.9,234.1 554.7,231.7 555.5,229.4 556.4,227.2 557.4,224.9 558.4,222.7 559.5,220.4 560.6,218.2 561.7,216.1 562.9,213.9 560.3,214.7 557.7,215.4 555.1,216.0 552.4,216.6 549.8,217.2 547.1,217.7 544.5,218.1 541.8,218.5 539.1,218.9 536.4,219.2 533.7,219.5 531.0,219.7 528.3,219.8 525.6,219.9 522.9,220.0 520.2,220.0 517.5,220.0 514.8,219.9 512.1,219.7 509.4,219.5 506.7,219.3 504.0,219.0 501.3,218.6 498.7,218.2 496.0,217.8 493.3,217.3 490.7,216.8 488.1,216.2 485.4,215.5 482.8,214.8 480.2,214.1 477.6,213.3 475.1,212.5 472.5,211.6 470.0,210.7 467.4,209.7 464.9,208.7 462.4,207.6 460.0,206.5 457.5,205.3 455.1,204.1 452.7,202.9 450.3,201.6 448.0,200.2 445.7,198.9 443.4,197.4 441.1,196.0 438.8,194.5 436.6,192.9 434.4,191.3 432.3,189.7 430.2,188.0 428.1,186.3 426.0,184.6 424.0,182.8 422.0,181.0 420.0,179.1 418.1,177.2 416.2,175.3 414.3,173.3" fill="#e8edf5" stroke="none"/>
<line x1="368.8" y1="124.1" x2="145.9" y2="169.8" stroke="#333" stroke-width="2.0"/>
<line x1="145.9" y1="169.8" x2="145.9" y2="507.9" stroke="#333" stroke-width="2.0"/>
<line x1="145.9" y1="507.9" x2="354.7" y2="507.9" stroke="#333" stroke-width="2.0"/>
<line x1="451.0" y1="551.4" x2="517.1" y2="507.9" stroke="#333" stroke-width="2.0"/>
<line x1="517.1" y1="507.9" x2="645.7" y2="423.1" stroke="#333" stroke-width="2.0"/>
<line x1="645.7" y1="423.1" x2="578.7" y2="350.8" stroke="#333" stroke-width="2.0"/>
<line x1="414.3" y1="173.3" x2="368.8" y2="124.1" stroke="#333" stroke-width="2.0"/>
<polyline points="578.7,350.8 577.1,349.0 575.4,347.1 573.9,345.2 572.3,343.3 570.8,341.3 569.4,339.4 568.0,337.3 566.6,335.3 565.3,333.2 564.0,331.1 562.8,329.0 561.6,326.9 560.5,324.7 559.4,322.5 558.3,320.3 557.3,318.0 556.4,315.8 555.5,313.5 554.6,311.2 553.8,308.9 553.0,306.5 552.3,304.2 551.6,301.8 551.0,299.4 550.5,297.0 550.0,294.6 549.5,292.2 549.1,289.8 548.7,287.4 548.4,284.9 548.2,282.5 548.0,280.0 547.8,277.6 547.7,275.1 547.7,272.7 547.7,270.2 547.7,267.8 547.8,265.3 548.0,262.9 548.2,260.4 548.5,258.0 548.8,255.5 549.1,253.1 549.5,250.7 550.0,248.3 550.5,245.9 551.1,243.5 551.7,241.1 552.4,238.7 553.1,236.4 553.9,234.1 554.7,231.7 555.5,229.4 556.4,227.2 557.4,224.9 558.4,222.7 559.5,220.4 560.6,218.2 561.7,216.1 562.9,213.9" fill="none" stroke="#0077B6" stroke-width="2.5" stroke-linecap="round"/>
<polyline points="562.9,213.9 560.3,214.7 557.7,215.4 555.1,216.0 552.4,216.6 549.8,217.2 547.1,217.7 544.5,218.1 541.8,218.5 539.1,218.9 536.4,219.2 533.7,219.5 531.0,219.7 528.3,219.8 525.6,219.9 522.9,220.0 520.2,220.0 517.5,220.0 514.8,219.9 512.1,219.7 509.4,219.5 506.7,219.3 504.0,219.0 501.3,218.6 498.7,218.2 496.0,217.8 493.3,217.3 490.7,216.8 488.1,216.2 485.4,215.5 482.8,214.8 480.2,214.1 477.6,213.3 475.1,212.5 472.5,211.6 470.0,210.7 467.4,209.7 464.9,208.7 462.4,207.6 460.0,206.5 457.5,205.3 455.1,204.1 452.7,202.9 450.3,201.6 448.0,200.2 445.7,198.9 443.4,197.4 441.1,196.0 438.8,194.5 436.6,192.9 434.4,191.3 432.3,189.7 430.2,188.0 428.1,186.3 426.0,184.6 424.0,182.8 422.0,181.0 420.0,179.1 418.1,177.2 416.2,175.3 414.3,173.3" fill="none" stroke="#0077B6" stroke-width="2.5" stroke-linecap="round"/>
<polyline points="354.7,507.9 356.5,507.9 358.4,507.9 360.2,508.0 362.0,508.1 363.8,508.2 365.6,508.3 367.4,508.5 369.2,508.7 371.0,508.9 372.8,509.1 374.6,509.4 376.4,509.7 378.2,510.0 380.0,510.4 381.8,510.7 383.5,511.1 385.3,511.6 387.1,512.0 388.8,512.5 390.6,513.0 392.3,513.5 394.0,514.0 395.8,514.6 397.5,515.2 399.2,515.8 400.9,516.5 402.6,517.1 404.3,517.8 405.9,518.5 407.6,519.3 409.2,520.0 410.9,520.8 412.5,521.6 414.1,522.4 415.7,523.3 417.3,524.2 418.9,525.1 420.5,526.0 422.0,526.9 423.5,527.9 425.1,528.9 426.6,529.9 428.1,530.9 429.6,532.0 431.0,533.0 432.5,534.1 433.9,535.2 435.3,536.4 436.7,537.5 438.1,538.7 439.5,539.9 440.9,541.1 442.2,542.3 443.5,543.6 444.8,544.8 446.1,546.1 447.4,547.4 448.6,548.7 449.8,550.1 451.0,551.4" fill="none" stroke="#2E7D32" stroke-width="2.5" stroke-linecap="round"/>
<circle cx="368.8" cy="124.1" r="3.5" fill="#d32f2f"/>
<text x="368.8" y="108.1" text-anchor="middle" font-family="Arial" font-size="10" font-weight="bold" fill="#d32f2f">P.O.B.</text>
<circle cx="145.9" cy="169.8" r="3.5" fill="#d32f2f"/>
<text x="135.9" y="161.8" text-anchor="end" font-family="Arial" font-size="10" font-weight="bold" fill="#d32f2f">P2</text>
<circle cx="145.9" cy="507.9" r="3.5" fill="#d32f2f"/>
<text x="135.9" y="514.9" text-anchor="end" font-family="Arial" font-size="10" font-weight="bold" fill="#d32f2f">P3</text>
<circle cx="354.7" cy="507.9" r="3.5" fill="#2E7D32"/>
<text x="354.7" y="495.9" text-anchor="middle" font-family="Arial" font-size="10" font-weight="bold" fill="#2E7D32">T3</text>
<circle cx="451.0" cy="551.4" r="3.5" fill="#2E7D32"/>
<text x="459.0" y="545.4" text-anchor="start" font-family="Arial" font-size="10" font-weight="bold" fill="#2E7D32">PX</text>
<circle cx="517.1" cy="507.9" r="3.5" fill="#d32f2f"/>
<text x="527.1" y="517.9" text-anchor="start" font-family="Arial" font-size="10" font-weight="bold" fill="#d32f2f">P4</text>
<circle cx="645.7" cy="423.1" r="3.5" fill="#d32f2f"/>
<text x="659.7" y="426.1" text-anchor="start" font-family="Arial" font-size="10" font-weight="bold" fill="#d32f2f">P5</text>
<circle cx="578.7" cy="350.8" r="3.5" fill="#0077B6"/>
<text x="588.7" y="346.8" text-anchor="start" font-family="Arial" font-size="10" font-weight="bold" fill="#0077B6">T1</text>
<circle cx="562.9" cy="213.9" r="3.5" fill="#0077B6"/>
<text x="570.9" y="205.9" text-anchor="start" font-family="Arial" font-size="10" font-weight="bold" fill="#0077B6">PA</text>
<circle cx="414.3" cy="173.3" r="3.5" fill="#0077B6"/>
<text x="404.3" y="169.3" text-anchor="end" font-family="Arial" font-size="10" font-weight="bold" fill="#0077B6">T2</text>
<g transform="translate(261.0,164.6) rotate(11.6)">
  <text x="0" y="-3" text-anchor="middle" font-family="Arial" font-size="8.5" fill="#1a237e">Brg 258° 25' 11.6"</text>
  <text x="0" y="8" text-anchor="middle" font-family="Arial" font-size="8.5" fill="#555">Dist 19' 6.2"</text>
</g>
<g transform="translate(163.9,338.8) rotate(-90.0)">
  <text x="0" y="-3" text-anchor="middle" font-family="Arial" font-size="8.5" fill="#1a237e">Brg 180° 00' 00.0"</text>
  <text x="0" y="8" text-anchor="middle" font-family="Arial" font-size="8.5" fill="#555">Dist 29' 0.0"</text>
</g>
<g transform="translate(250.3,525.9) rotate(-0.0)">
  <text x="0" y="-3" text-anchor="middle" font-family="Arial" font-size="8.5" fill="#1a237e">Brg 90° 00' 00.0"</text>
  <text x="0" y="8" text-anchor="middle" font-family="Arial" font-size="8.5" fill="#555">Dist 17' 10.9"</text>
</g>
<g transform="translate(475.3,516.3) rotate(33.4)">
  <text x="0" y="-3" text-anchor="middle" font-family="Arial" font-size="8.5" fill="#1a237e">Brg 56° 36' 31.0"</text>
  <text x="0" y="8" text-anchor="middle" font-family="Arial" font-size="8.5" fill="#555">Dist 6' 9.5"</text>
</g>
<g transform="translate(572.6,452.1) rotate(33.4)">
  <text x="0" y="-3" text-anchor="middle" font-family="Arial" font-size="8.5" fill="#1a237e">Brg 56° 36' 31.0"</text>
  <text x="0" y="8" text-anchor="middle" font-family="Arial" font-size="8.5" fill="#555">Dist 13' 2.5"</text>
</g>
<g transform="translate(623.9,376.1) rotate(-47.2)">
  <text x="0" y="-3" text-anchor="middle" font-family="Arial" font-size="8.5" fill="#1a237e">Brg 317° 11' 43.7"</text>
  <text x="0" y="8" text-anchor="middle" font-family="Arial" font-size="8.5" fill="#555">Dist 8' 5.5"</text>
</g>
<g transform="translate(403.3,137.8) rotate(-47.2)">
  <text x="0" y="-3" text-anchor="middle" font-family="Arial" font-size="8.5" fill="#1a237e">Brg 317° 11' 43.7"</text>
  <text x="0" y="8" text-anchor="middle" font-family="Arial" font-size="8.5" fill="#555">Dist 5' 9.0"</text>
</g>
<text x="528.4" y="284.9" text-anchor="end" font-family="Arial" font-size="8.5" fill="#0077B6">Arc 1: R=10'</text>
<text x="482.8" y="230.8" text-anchor="middle" font-family="Arial" font-size="8.5" fill="#0077B6">Arc 2: R=12' 6"</text>
<text x="419.6" y="523.3" text-anchor="start" font-family="Arial" font-size="8.5" fill="#2E7D32">Arc 3: R=11'</text>
</g>
<g opacity="0.2">
<polygon points="366.7,130.5 151.8,174.5 151.8,502.0 354.7,502.0 356.5,502.0 358.4,502.1 360.2,502.1 362.0,502.2 363.8,502.3 365.6,502.5 367.4,502.6 369.2,502.8 371.0,503.0 372.8,503.3 374.6,503.5 376.4,503.8 378.2,504.1 380.0,504.4 381.7,504.8 383.5,505.2 385.3,505.6 387.1,506.0 388.8,506.4 390.6,506.9 392.3,507.4 394.0,507.9 395.8,508.5 397.5,509.0 399.2,509.6 400.9,510.2 402.6,510.9 404.3,511.5 406.0,512.2 407.7,512.9 409.3,513.6 411.0,514.4 412.6,515.2 414.2,516.0 415.9,516.8 417.5,517.6 419.1,518.5 420.7,519.4 422.2,520.3 423.8,521.2 425.3,522.1 426.9,523.1 428.4,524.1 429.9,525.1 431.4,526.1 432.9,527.2 434.3,528.2 435.8,529.3 437.2,530.4 438.7,531.5 440.1,532.7 441.5,533.9 442.8,535.0 444.2,536.2 445.5,537.5 446.9,538.7 448.2,540.0 449.5,541.2 450.7,542.5 452.0,543.8 513.9,503.0 636.8,422.0 574.4,354.7 572.8,353.0 571.3,351.2 569.8,349.4 568.3,347.6 566.8,345.7 565.4,343.8 564.0,341.9 562.7,339.9 561.4,338.0 560.1,336.0 558.9,333.9 557.7,331.9 556.6,329.8 555.5,327.7 554.4,325.6 553.4,323.5 552.4,321.4 551.5,319.2 550.6,317.0 549.7,314.8 548.9,312.6 548.1,310.4 547.4,308.1 546.7,305.8 546.1,303.6 545.5,301.3 544.9,299.0 544.4,296.7 544.0,294.4 543.6,292.0 543.2,289.7 542.9,287.4 542.6,285.0 542.3,282.7 542.1,280.3 542.0,278.0 541.9,275.6 541.8,273.2 541.8,270.9 541.9,268.5 541.9,266.2 542.1,263.8 542.2,261.4 542.5,259.1 542.7,256.7 543.0,254.4 543.4,252.1 543.8,249.7 544.2,247.4 544.7,245.1 545.3,242.8 545.8,240.5 546.5,238.2 547.1,236.0 547.8,233.7 548.6,231.5 549.4,229.3 550.2,227.0 551.1,224.9 552.0,222.7 549.5,223.2 546.9,223.6 544.3,224.1 541.8,224.4 539.2,224.8 536.6,225.0 534.0,225.3 531.4,225.5 528.9,225.6 526.3,225.7 523.7,225.8 521.1,225.8 518.5,225.8 515.9,225.7 513.3,225.6 510.7,225.5 508.1,225.3 505.5,225.0 502.9,224.7 500.4,224.4 497.8,224.0 495.2,223.6 492.7,223.1 490.1,222.6 487.6,222.0 485.1,221.4 482.5,220.8 480.0,220.1 477.5,219.4 475.1,218.6 472.6,217.8 470.1,217.0 467.7,216.1 465.3,215.1 462.9,214.1 460.5,213.1 458.1,212.1 455.8,211.0 453.4,209.8 451.1,208.6 448.8,207.4 446.6,206.2 444.3,204.9 442.1,203.5 439.9,202.1 437.7,200.7 435.6,199.3 433.4,197.8 431.3,196.3 429.2,194.7 427.2,193.1 425.2,191.5 423.2,189.8 421.2,188.1 419.3,186.4 417.4,184.6 415.5,182.8 413.7,181.0 411.8,179.1 410.1,177.3" fill="rgba(255,152,0,0.3)" stroke="none"/>
<line x1="366.7" y1="130.5" x2="151.8" y2="174.5" stroke="#BF360C" stroke-width="1.5"/>
<line x1="151.8" y1="174.5" x2="151.8" y2="502.0" stroke="#BF360C" stroke-width="1.5"/>
<line x1="151.8" y1="502.0" x2="354.7" y2="502.0" stroke="#BF360C" stroke-width="1.5"/>
<line x1="452.0" y1="543.8" x2="513.9" y2="503.0" stroke="#BF360C" stroke-width="1.5"/>
<line x1="513.9" y1="503.0" x2="636.8" y2="422.0" stroke="#BF360C" stroke-width="1.5"/>
<line x1="636.8" y1="422.0" x2="574.4" y2="354.7" stroke="#BF360C" stroke-width="1.5"/>
<line x1="410.1" y1="177.3" x2="366.7" y2="130.5" stroke="#BF360C" stroke-width="1.5"/>
<polyline points="574.4,354.7 572.8,353.0 571.3,351.2 569.8,349.4 568.3,347.6 566.8,345.7 565.4,343.8 564.0,341.9 562.7,339.9 561.4,338.0 560.1,336.0 558.9,333.9 557.7,331.9 556.6,329.8 555.5,327.7 554.4,325.6 553.4,323.5 552.4,321.4 551.5,319.2 550.6,317.0 549.7,314.8 548.9,312.6 548.1,310.4 547.4,308.1 546.7,305.8 546.1,303.6 545.5,301.3 544.9,299.0 544.4,296.7 544.0,294.4 543.6,292.0 543.2,289.7 542.9,287.4 542.6,285.0 542.3,282.7 542.1,280.3 542.0,278.0 541.9,275.6 541.8,273.2 541.8,270.9 541.9,268.5 541.9,266.2 542.1,263.8 542.2,261.4 542.5,259.1 542.7,256.7 543.0,254.4 543.4,252.1 543.8,249.7 544.2,247.4 544.7,245.1 545.3,242.8 545.8,240.5 546.5,238.2 547.1,236.0 547.8,233.7 548.6,231.5 549.4,229.3 550.2,227.0 551.1,224.9 552.0,222.7" fill="none" stroke="#BF360C" stroke-width="1.5" stroke-linecap="round"/>
<polyline points="552.0,222.7 549.5,223.2 546.9,223.6 544.3,224.1 541.8,224.4 539.2,224.8 536.6,225.0 534.0,225.3 531.4,225.5 528.9,225.6 526.3,225.7 523.7,225.8 521.1,225.8 518.5,225.8 515.9,225.7 513.3,225.6 510.7,225.5 508.1,225.3 505.5,225.0 502.9,224.7 500.4,224.4 497.8,224.0 495.2,223.6 492.7,223.1 490.1,222.6 487.6,222.0 485.1,221.4 482.5,220.8 480.0,220.1 477.5,219.4 475.1,218.6 472.6,217.8 470.1,217.0 467.7,216.1 465.3,215.1 462.9,214.1 460.5,213.1 458.1,212.1 455.8,211.0 453.4,209.8 451.1,208.6 448.8,207.4 446.6,206.2 444.3,204.9 442.1,203.5 439.9,202.1 437.7,200.7 435.6,199.3 433.4,197.8 431.3,196.3 429.2,194.7 427.2,193.1 425.2,191.5 423.2,189.8 421.2,188.1 419.3,186.4 417.4,184.6 415.5,182.8 413.7,181.0 411.8,179.1 410.1,177.3" fill="none" stroke="#BF360C" stroke-width="1.5" stroke-linecap="round"/>
<polyline points="354.7,502.0 356.5,502.0 358.4,502.1 360.2,502.1 362.0,502.2 363.8,502.3 365.6,502.5 367.4,502.6 369.2,502.8 371.0,503.0 372.8,503.3 374.6,503.5 376.4,503.8 378.2,504.1 380.0,504.4 381.7,504.8 383.5,505.2 385.3,505.6 387.1,506.0 388.8,506.4 390.6,506.9 392.3,507.4 394.0,507.9 395.8,508.5 397.5,509.0 399.2,509.6 400.9,510.2 402.6,510.9 404.3,511.5 406.0,512.2 407.7,512.9 409.3,513.6 411.0,514.4 412.6,515.2 414.2,516.0 415.9,516.8 417.5,517.6 419.1,518.5 420.7,519.4 422.2,520.3 423.8,521.2 425.3,522.1 426.9,523.1 428.4,524.1 429.9,525.1 431.4,526.1 432.9,527.2 434.3,528.2 435.8,529.3 437.2,530.4 438.7,531.5 440.1,532.7 441.5,533.9 442.8,535.0 444.2,536.2 445.5,537.5 446.9,538.7 448.2,540.0 449.5,541.2 450.7,542.5 452.0,543.8" fill="none" stroke="#BF360C" stroke-width="1.5" stroke-linecap="round"/>
<circle cx="366.7" cy="130.5" r="2.5" fill="#BF360C"/>
<text x="366.7" y="144.5" text-anchor="middle" font-family="Arial" font-size="8.5" font-weight="bold" fill="#BF360C">PiOB</text>
<circle cx="151.8" cy="174.5" r="2.5" fill="#BF360C"/>
<text x="157.8" y="178.5" text-anchor="start" font-family="Arial" font-size="8.5" font-weight="bold" fill="#BF360C">Pi2</text>
<circle cx="151.8" cy="502.0" r="2.5" fill="#BF360C"/>
<text x="157.8" y="498.0" text-anchor="start" font-family="Arial" font-size="8.5" font-weight="bold" fill="#BF360C">Pi3</text>
<circle cx="354.7" cy="502.0" r="2.5" fill="#BF360C"/>
<text x="354.7" y="516.0" text-anchor="middle" font-family="Arial" font-size="8.5" font-weight="bold" fill="#BF360C">Ti3</text>
<circle cx="452.0" cy="543.8" r="2.5" fill="#BF360C"/>
<text x="444.0" y="537.8" text-anchor="end" font-family="Arial" font-size="8.5" font-weight="bold" fill="#BF360C">PiX</text>
<circle cx="513.9" cy="503.0" r="2.5" fill="#BF360C"/>
<text x="505.9" y="515.0" text-anchor="end" font-family="Arial" font-size="8.5" font-weight="bold" fill="#BF360C">Pi4</text>
<circle cx="636.8" cy="422.0" r="2.5" fill="#BF360C"/>
<text x="628.8" y="414.0" text-anchor="end" font-family="Arial" font-size="8.5" font-weight="bold" fill="#BF360C">Pi5</text>
<circle cx="574.4" cy="354.7" r="2.5" fill="#BF360C"/>
<text x="566.4" y="366.7" text-anchor="end" font-family="Arial" font-size="8.5" font-weight="bold" fill="#BF360C">Ti1</text>
<circle cx="552.0" cy="222.7" r="2.5" fill="#BF360C"/>
<text x="544.0" y="226.7" text-anchor="end" font-family="Arial" font-size="8.5" font-weight="bold" fill="#BF360C">Ai2</text>
<circle cx="410.1" cy="177.3" r="2.5" fill="#BF360C"/>
<text x="418.1" y="189.3" text-anchor="start" font-family="Arial" font-size="8.5" font-weight="bold" fill="#BF360C">Ti2</text>
</g>
<polygon points="151.8,228.1 151.8,492.3 151.8,493.1 151.9,493.8 152.0,494.6 152.2,495.3 152.5,496.0 152.8,496.7 153.2,497.4 153.6,498.0 154.1,498.6 154.6,499.2 155.2,499.7 155.8,500.2 156.4,500.6 157.1,501.0 157.8,501.3 158.5,501.6 159.2,501.8 159.9,501.9 160.7,502.0 161.5,502.0 367.7,502.0 367.9,502.0 368.1,502.0 368.4,502.0 368.6,502.1 368.8,502.1 369.1,502.1 369.3,502.1 369.5,502.1 369.8,502.1 370.0,502.2 370.2,502.2 370.5,502.2 370.7,502.3 370.9,502.3 371.2,502.3 371.4,502.4 371.6,502.4 371.8,502.5 372.1,502.5 372.3,502.6 372.5,502.6 372.8,502.7 373.0,502.8 373.2,502.8 373.4,502.9 373.6,503.0 373.9,503.0 374.1,503.1 374.3,503.2 374.5,503.3 374.7,503.4 375.0,503.5 375.2,503.5 375.4,503.6 375.6,503.7 375.8,503.8 376.0,503.9 376.2,504.0 376.5,504.1 376.7,504.2 376.9,504.3 377.1,504.5 377.3,504.6 377.5,504.7 377.7,504.8 377.9,504.9 378.1,505.1 378.3,505.2 378.5,505.3 378.7,505.4 378.9,505.6 379.1,505.7 379.2,505.9 379.4,506.0 379.6,506.1 379.8,506.3 380.0,506.4 380.2,506.6 380.3,506.7 380.5,506.9 380.8,507.1 381.0,507.3 381.3,507.5 381.5,507.7 381.8,507.9 382.0,508.1 382.3,508.3 382.6,508.5 382.8,508.7 383.1,508.9 383.4,509.1 383.6,509.3 383.9,509.4 384.2,509.6 384.5,509.8 384.8,510.0 385.0,510.1 385.3,510.3 385.6,510.4 385.9,510.6 386.2,510.7 386.5,510.9 386.8,511.0 387.1,511.2 387.4,511.3 387.7,511.4 388.0,511.6 388.3,511.7 388.6,511.8 388.9,511.9 389.2,512.0 389.5,512.2 389.8,512.3 390.1,512.4 390.4,512.5 390.8,512.6 391.1,512.6 391.4,512.7 391.7,512.8 392.0,512.9 392.3,513.0 392.7,513.0 393.0,513.1 393.3,513.2 393.6,513.2 393.9,513.3 394.3,513.4 394.6,513.4 394.9,513.4 395.2,513.5 395.6,513.5 395.9,513.6 396.2,513.6 396.5,513.6 396.9,513.6 397.2,513.7 397.5,513.7 397.8,513.7 398.2,513.7 398.5,513.7 489.6,513.7 490.3,513.7 491.1,513.6 491.9,513.6 492.7,513.5 493.5,513.4 494.3,513.3 495.1,513.1 495.8,512.9 496.6,512.8 497.4,512.5 498.1,512.3 498.9,512.0 499.6,511.8 500.3,511.5 501.1,511.1 501.8,510.8 502.5,510.4 503.2,510.0 503.9,509.6 504.5,509.2 559.2,473.2 560.3,472.4 561.4,471.6 562.4,470.7 563.4,469.8 564.3,468.8 565.2,467.8 566.0,466.7 566.8,465.6 567.5,464.5 568.2,463.3 568.8,462.1 569.3,460.9 569.8,459.7 570.2,458.4 570.6,457.1 570.9,455.8 571.1,454.5 571.3,453.1 571.4,451.8 571.4,450.4 571.4,354.9 571.4,354.6 571.4,354.2 571.4,353.9 571.3,353.6 571.3,353.2 571.2,352.9 571.1,352.6 571.1,352.3 571.0,352.0 570.9,351.6 570.7,351.3 570.6,351.0 570.5,350.7 570.3,350.4 570.2,350.1 570.0,349.8 569.8,349.6 569.6,349.3 569.5,349.0 569.2,348.8 568.4,347.7 567.5,346.6 566.7,345.5 565.8,344.4 565.0,343.2 564.2,342.1 563.4,341.0 562.6,339.8 561.9,338.7 561.1,337.5 560.4,336.3 559.6,335.1 558.9,333.9 558.2,332.7 557.5,331.5 556.8,330.3 556.2,329.1 555.5,327.8 554.9,326.6 554.3,325.4 553.7,324.1 553.1,322.8 552.5,321.6 551.9,320.3 551.4,319.0 550.9,317.7 550.4,316.4 549.8,315.1 549.4,313.8 548.9,312.5 548.4,311.2 548.0,309.9 547.6,308.6 547.1,307.2 546.7,305.9 546.4,304.6 546.0,303.2 545.6,301.9 545.3,300.5 545.0,299.2 544.7,297.8 544.4,296.4 544.1,295.1 543.9,293.7 543.6,292.3 543.4,291.0 543.2,289.6 543.0,288.2 542.8,286.8 542.6,285.5 542.5,284.1 542.3,282.7 542.2,281.3 542.1,279.9 542.0,278.5 542.0,277.1 541.9,275.7 541.9,274.3 541.8,273.0 541.8,271.6 541.8,228.1 541.8,226.7 541.7,225.2 541.5,223.8 541.2,222.4 540.9,221.0 540.5,219.7 540.0,218.3 539.5,217.0 538.9,215.7 538.2,214.5 537.4,213.3 536.6,212.1 535.8,211.0 534.8,209.9 533.9,208.8 532.8,207.9 531.7,206.9 530.6,206.1 529.4,205.3 528.2,204.5 527.0,203.8 525.7,203.2 524.4,202.7 523.0,202.2 521.7,201.8 520.3,201.5 518.9,201.2 517.5,201.0 516.1,200.9 514.6,200.9 513.2,200.9 511.8,201.0 510.4,201.2 509.0,201.5 507.6,201.8 506.2,202.2 504.9,202.7 503.6,203.2 502.3,203.8 501.0,204.5 499.8,205.3 498.6,206.1 497.5,206.9 496.4,207.9 495.4,208.8 494.4,209.9 493.5,211.0 492.6,212.1 491.8,213.3 491.1,214.5 490.4,215.7 489.8,217.0 489.2,218.3 488.8,219.7 488.4,221.0 488.0,222.4 487.8,223.8 487.6,225.2 487.5,226.7 487.4,228.1 487.4,228.2 487.4,228.4 487.4,228.5 487.3,228.7 487.3,228.8 487.2,229.0 487.1,229.1 487.1,229.2 487.0,229.3 486.9,229.4 486.7,229.6 486.6,229.6 486.5,229.7 486.4,229.8 486.2,229.9 486.1,229.9 485.9,230.0 485.8,230.0 485.6,230.0 485.5,230.0 278.0,230.0 277.9,230.0 277.7,230.0 277.6,230.0 277.4,229.9 277.3,229.9 277.2,229.8 277.0,229.7 276.9,229.6 276.8,229.6 276.7,229.4 276.6,229.3 276.5,229.2 276.4,229.1 276.3,229.0 276.2,228.8 276.2,228.7 276.2,228.5 276.1,228.4 276.1,228.2 276.1,228.1 276.0,225.9 275.8,223.8 275.3,221.7 274.8,219.7 274.0,217.7 273.1,215.7 272.1,213.9 270.9,212.1 269.6,210.4 268.1,208.8 266.6,207.4 264.9,206.1 263.1,204.9 261.2,203.8 259.3,202.9 257.3,202.2 255.2,201.6 253.2,201.2 251.0,201.0 248.9,200.9 179.0,200.9 176.8,201.0 174.7,201.2 172.6,201.6 170.5,202.2 168.5,202.9 166.6,203.8 164.7,204.9 163.0,206.1 161.3,207.4 159.7,208.8 158.3,210.4 156.9,212.1 155.8,213.9 154.7,215.7 153.8,217.7 153.1,219.7 152.5,221.7 152.1,223.8 151.8,225.9" fill="rgba(200,230,255,0.25)" stroke="none"/>
<line x1="151.8" y1="228.1" x2="151.8" y2="492.3" stroke="#333" stroke-width="2.0"/>
<line x1="161.5" y1="502.0" x2="367.7" y2="502.0" stroke="#333" stroke-width="2.0"/>
<line x1="398.5" y1="513.7" x2="489.6" y2="513.7" stroke="#333" stroke-width="2.0"/>
<line x1="504.5" y1="509.2" x2="559.2" y2="473.2" stroke="#333" stroke-width="2.0"/>
<line x1="571.4" y1="450.4" x2="571.4" y2="354.9" stroke="#333" stroke-width="2.0"/>
<line x1="541.8" y1="271.6" x2="541.8" y2="228.1" stroke="#333" stroke-width="2.0"/>
<line x1="485.5" y1="230.0" x2="278.0" y2="230.0" stroke="#333" stroke-width="2.0"/>
<line x1="248.9" y1="200.9" x2="179.0" y2="200.9" stroke="#333" stroke-width="2.0"/>
<polyline points="569.2,348.8 568.4,347.7 567.5,346.6 566.7,345.5 565.8,344.4 565.0,343.2 564.2,342.1 563.4,341.0 562.6,339.8 561.9,338.7 561.1,337.5 560.4,336.3 559.6,335.1 558.9,333.9 558.2,332.7 557.5,331.5 556.8,330.3 556.2,329.1 555.5,327.8 554.9,326.6 554.3,325.4 553.7,324.1 553.1,322.8 552.5,321.6 551.9,320.3 551.4,319.0 550.9,317.7 550.4,316.4 549.8,315.1 549.4,313.8 548.9,312.5 548.4,311.2 548.0,309.9 547.6,308.6 547.1,307.2 546.7,305.9 546.4,304.6 546.0,303.2 545.6,301.9 545.3,300.5 545.0,299.2 544.7,297.8 544.4,296.4 544.1,295.1 543.9,293.7 543.6,292.3 543.4,291.0 543.2,289.6 543.0,288.2 542.8,286.8 542.6,285.5 542.5,284.1 542.3,282.7 542.2,281.3 542.1,279.9 542.0,278.5 542.0,277.1 541.9,275.7 541.9,274.3 541.8,273.0 541.8,271.6" fill="none" stroke="#0077B6" stroke-width="2.5" stroke-linecap="round"/>
<polyline points="571.4,354.9 571.4,354.6 571.4,354.2 571.4,353.9 571.3,353.6 571.3,353.2 571.2,352.9 571.1,352.6 571.1,352.3 571.0,352.0 570.9,351.6 570.7,351.3 570.6,351.0 570.5,350.7 570.3,350.4 570.2,350.1 570.0,349.8 569.8,349.6 569.6,349.3 569.5,349.0 569.2,348.8" fill="none" stroke="#333" stroke-width="2.0" stroke-linecap="round"/>
<polyline points="367.7,502.0 367.9,502.0 368.1,502.0 368.4,502.0 368.6,502.1 368.8,502.1 369.1,502.1 369.3,502.1 369.5,502.1 369.8,502.1 370.0,502.2 370.2,502.2 370.5,502.2 370.7,502.3 370.9,502.3 371.2,502.3 371.4,502.4 371.6,502.4 371.8,502.5 372.1,502.5 372.3,502.6 372.5,502.6 372.8,502.7 373.0,502.8 373.2,502.8 373.4,502.9 373.6,503.0 373.9,503.0 374.1,503.1 374.3,503.2 374.5,503.3 374.7,503.4 375.0,503.5 375.2,503.5 375.4,503.6 375.6,503.7 375.8,503.8 376.0,503.9 376.2,504.0 376.5,504.1 376.7,504.2 376.9,504.3 377.1,504.5 377.3,504.6 377.5,504.7 377.7,504.8 377.9,504.9 378.1,505.1 378.3,505.2 378.5,505.3 378.7,505.4 378.9,505.6 379.1,505.7 379.2,505.9 379.4,506.0 379.6,506.1 379.8,506.3 380.0,506.4 380.2,506.6 380.3,506.7 380.5,506.9" fill="none" stroke="#2E7D32" stroke-width="2.5" stroke-linecap="round"/>
<polyline points="380.5,506.9 380.8,507.1 381.0,507.3 381.3,507.5 381.5,507.7 381.8,507.9 382.0,508.1 382.3,508.3 382.6,508.5 382.8,508.7 383.1,508.9 383.4,509.1 383.6,509.3 383.9,509.4 384.2,509.6 384.5,509.8 384.8,510.0 385.0,510.1 385.3,510.3 385.6,510.4 385.9,510.6 386.2,510.7 386.5,510.9 386.8,511.0 387.1,511.2 387.4,511.3 387.7,511.4 388.0,511.6 388.3,511.7 388.6,511.8 388.9,511.9 389.2,512.0 389.5,512.2 389.8,512.3 390.1,512.4 390.4,512.5 390.8,512.6 391.1,512.6 391.4,512.7 391.7,512.8 392.0,512.9 392.3,513.0 392.7,513.0 393.0,513.1 393.3,513.2 393.6,513.2 393.9,513.3 394.3,513.4 394.6,513.4 394.9,513.4 395.2,513.5 395.6,513.5 395.9,513.6 396.2,513.6 396.5,513.6 396.9,513.6 397.2,513.7 397.5,513.7 397.8,513.7 398.2,513.7 398.5,513.7" fill="none" stroke="#2E7D32" stroke-width="2.5" stroke-linecap="round"/>
<polyline points="489.6,513.7 490.3,513.7 491.1,513.6 491.9,513.6 492.7,513.5 493.5,513.4 494.3,513.3 495.1,513.1 495.8,512.9 496.6,512.8 497.4,512.5 498.1,512.3 498.9,512.0 499.6,511.8 500.3,511.5 501.1,511.1 501.8,510.8 502.5,510.4 503.2,510.0 503.9,509.6 504.5,509.2" fill="none" stroke="#2E7D32" stroke-width="2.5" stroke-linecap="round"/>
<polyline points="559.2,473.2 560.3,472.4 561.4,471.6 562.4,470.7 563.4,469.8 564.3,468.8 565.2,467.8 566.0,466.7 566.8,465.6 567.5,464.5 568.2,463.3 568.8,462.1 569.3,460.9 569.8,459.7 570.2,458.4 570.6,457.1 570.9,455.8 571.1,454.5 571.3,453.1 571.4,451.8 571.4,450.4" fill="none" stroke="#333" stroke-width="2.0" stroke-linecap="round"/>
<polyline points="151.8,492.3 151.8,493.1 151.9,493.8 152.0,494.6 152.2,495.3 152.5,496.0 152.8,496.7 153.2,497.4 153.6,498.0 154.1,498.6 154.6,499.2 155.2,499.7 155.8,500.2 156.4,500.6 157.1,501.0 157.8,501.3 158.5,501.6 159.2,501.8 159.9,501.9 160.7,502.0 161.5,502.0" fill="none" stroke="#333" stroke-width="2.0" stroke-linecap="round"/>
<polyline points="179.0,200.9 176.8,201.0 174.7,201.2 172.6,201.6 170.5,202.2 168.5,202.9 166.6,203.8 164.7,204.9 163.0,206.1 161.3,207.4 159.7,208.8 158.3,210.4 156.9,212.1 155.8,213.9 154.7,215.7 153.8,217.7 153.1,219.7 152.5,221.7 152.1,223.8 151.8,225.9 151.8,228.1" fill="none" stroke="#333" stroke-width="2.0" stroke-linecap="round"/>
<polyline points="278.0,230.0 277.9,230.0 277.7,230.0 277.6,230.0 277.4,229.9 277.3,229.9 277.2,229.8 277.0,229.7 276.9,229.6 276.8,229.6 276.7,229.4 276.6,229.3 276.5,229.2 276.4,229.1 276.3,229.0 276.2,228.8 276.2,228.7 276.2,228.5 276.1,228.4 276.1,228.2 276.1,228.1" fill="none" stroke="#333" stroke-width="2.0" stroke-linecap="round"/>
<polyline points="276.1,228.1 276.0,225.9 275.8,223.8 275.3,221.7 274.8,219.7 274.0,217.7 273.1,215.7 272.1,213.9 270.9,212.1 269.6,210.4 268.1,208.8 266.6,207.4 264.9,206.1 263.1,204.9 261.2,203.8 259.3,202.9 257.3,202.2 255.2,201.6 253.2,201.2 251.0,201.0 248.9,200.9" fill="none" stroke="#333" stroke-width="2.0" stroke-linecap="round"/>
<polyline points="541.8,228.1 541.8,226.7 541.7,225.2 541.5,223.8 541.2,222.4 540.9,221.0 540.5,219.7 540.0,218.3 539.5,217.0 538.9,215.7 538.2,214.5 537.4,213.3 536.6,212.1 535.8,211.0 534.8,209.9 533.9,208.8 532.8,207.9 531.7,206.9 530.6,206.1 529.4,205.3 528.2,204.5 527.0,203.8 525.7,203.2 524.4,202.7 523.0,202.2 521.7,201.8 520.3,201.5 518.9,201.2 517.5,201.0 516.1,200.9 514.6,200.9 513.2,200.9 511.8,201.0 510.4,201.2 509.0,201.5 507.6,201.8 506.2,202.2 504.9,202.7 503.6,203.2 502.3,203.8 501.0,204.5 499.8,205.3 498.6,206.1 497.5,206.9 496.4,207.9 495.4,208.8 494.4,209.9 493.5,211.0 492.6,212.1 491.8,213.3 491.1,214.5 490.4,215.7 489.8,217.0 489.2,218.3 488.8,219.7 488.4,221.0 488.0,222.4 487.8,223.8 487.6,225.2 487.5,226.7 487.4,228.1" fill="none" stroke="#333" stroke-width="2.0" stroke-linecap="round"/>
<polyline points="487.4,228.1 487.4,228.2 487.4,228.4 487.4,228.5 487.3,228.7 487.3,228.8 487.2,229.0 487.1,229.1 487.1,229.2 487.0,229.3 486.9,229.4 486.7,229.6 486.6,229.6 486.5,229.7 486.4,229.8 486.2,229.9 486.1,229.9 485.9,230.0 485.8,230.0 485.6,230.0 485.5,230.0" fill="none" stroke="#333" stroke-width="2.0" stroke-linecap="round"/>
<g clip-path="url(#page)">
<line x1="664.2" y1="271.6" x2="569.2" y2="348.8" stroke="#0077B6" stroke-width="0.6" stroke-dasharray="4,3"/>
<line x1="660.2" y1="271.6" x2="668.2" y2="271.6" stroke="#0077B6" stroke-width="0.7"/>
<line x1="664.2" y1="267.6" x2="664.2" y2="275.6" stroke="#0077B6" stroke-width="0.7"/>
<line x1="367.7" y1="521.5" x2="367.7" y2="502.0" stroke="#2E7D32" stroke-width="0.6" stroke-dasharray="4,3"/>
<line x1="363.7" y1="521.5" x2="371.7" y2="521.5" stroke="#2E7D32" stroke-width="0.7"/>
<line x1="367.7" y1="517.5" x2="367.7" y2="525.5" stroke="#2E7D32" stroke-width="0.7"/>
<line x1="161.5" y1="492.3" x2="151.8" y2="492.3" stroke="#333" stroke-width="0.6" stroke-dasharray="4,3"/>
<line x1="157.5" y1="492.3" x2="165.5" y2="492.3" stroke="#333" stroke-width="0.7"/>
<line x1="161.5" y1="488.3" x2="161.5" y2="496.3" stroke="#333" stroke-width="0.7"/>
<line x1="179.0" y1="228.1" x2="179.0" y2="200.9" stroke="#333" stroke-width="0.6" stroke-dasharray="4,3"/>
<line x1="175.0" y1="228.1" x2="183.0" y2="228.1" stroke="#333" stroke-width="0.7"/>
<line x1="179.0" y1="224.1" x2="179.0" y2="232.1" stroke="#333" stroke-width="0.7"/>
<line x1="398.5" y1="486.5" x2="380.5" y2="506.9" stroke="#2E7D32" stroke-width="0.6" stroke-dasharray="4,3"/>
<line x1="394.5" y1="486.5" x2="402.5" y2="486.5" stroke="#2E7D32" stroke-width="0.7"/>
<line x1="398.5" y1="482.5" x2="398.5" y2="490.5" stroke="#2E7D32" stroke-width="0.7"/>
<line x1="489.6" y1="486.5" x2="489.6" y2="513.7" stroke="#2E7D32" stroke-width="0.6" stroke-dasharray="4,3"/>
<line x1="485.6" y1="486.5" x2="493.6" y2="486.5" stroke="#2E7D32" stroke-width="0.7"/>
<line x1="489.6" y1="482.5" x2="489.6" y2="490.5" stroke="#2E7D32" stroke-width="0.7"/>
<line x1="544.2" y1="450.4" x2="559.2" y2="473.2" stroke="#333" stroke-width="0.6" stroke-dasharray="4,3"/>
<line x1="540.2" y1="450.4" x2="548.2" y2="450.4" stroke="#333" stroke-width="0.7"/>
<line x1="544.2" y1="446.4" x2="544.2" y2="454.4" stroke="#333" stroke-width="0.7"/>
<line x1="248.9" y1="228.1" x2="248.9" y2="200.9" stroke="#333" stroke-width="0.6" stroke-dasharray="4,3"/>
<line x1="244.9" y1="228.1" x2="252.9" y2="228.1" stroke="#333" stroke-width="0.7"/>
<line x1="248.9" y1="224.1" x2="248.9" y2="232.1" stroke="#333" stroke-width="0.7"/>
<line x1="278.0" y1="228.1" x2="276.1" y2="228.1" stroke="#333" stroke-width="0.6" stroke-dasharray="4,3"/>
<line x1="274.0" y1="228.1" x2="282.0" y2="228.1" stroke="#333" stroke-width="0.7"/>
<line x1="278.0" y1="224.1" x2="278.0" y2="232.1" stroke="#333" stroke-width="0.7"/>
<line x1="514.6" y1="228.1" x2="487.4" y2="228.1" stroke="#333" stroke-width="0.6" stroke-dasharray="4,3"/>
<line x1="510.6" y1="228.1" x2="518.6" y2="228.1" stroke="#333" stroke-width="0.7"/>
<line x1="514.6" y1="224.1" x2="514.6" y2="232.1" stroke="#333" stroke-width="0.7"/>
<line x1="485.5" y1="228.1" x2="485.5" y2="230.0" stroke="#333" stroke-width="0.6" stroke-dasharray="4,3"/>
<line x1="481.5" y1="228.1" x2="489.5" y2="228.1" stroke="#333" stroke-width="0.7"/>
<line x1="485.5" y1="224.1" x2="485.5" y2="232.1" stroke="#333" stroke-width="0.7"/>
<line x1="561.7" y1="354.9" x2="571.4" y2="354.9" stroke="#333" stroke-width="0.6" stroke-dasharray="4,3"/>
<line x1="557.7" y1="354.9" x2="565.7" y2="354.9" stroke="#333" stroke-width="0.7"/>
<line x1="561.7" y1="350.9" x2="561.7" y2="358.9" stroke="#333" stroke-width="0.7"/>
</g>
<circle cx="151.8" cy="228.1" r="3.5" fill="#d32f2f"/>
<text x="143.8" y="222.1" text-anchor="end" font-family="Arial" font-size="10" font-weight="bold" fill="#d32f2f">O2</text>
<circle cx="151.8" cy="492.3" r="3.5" fill="#d32f2f"/>
<text x="143.8" y="488.3" text-anchor="end" font-family="Arial" font-size="10" font-weight="bold" fill="#d32f2f">O1</text>
<circle cx="161.5" cy="502.0" r="3.5" fill="#d32f2f"/>
<text x="153.5" y="512.0" text-anchor="end" font-family="Arial" font-size="10" font-weight="bold" fill="#d32f2f">O0</text>
<circle cx="367.7" cy="502.0" r="3.5" fill="#2E7D32"/>
<text x="367.7" y="490.0" text-anchor="middle" font-family="Arial" font-size="10" font-weight="bold" fill="#2E7D32">O15</text>
<circle cx="380.5" cy="506.9" r="3.5" fill="#2E7D32"/>
<text x="388.5" y="500.9" text-anchor="start" font-family="Arial" font-size="10" font-weight="bold" fill="#2E7D32">O14</text>
<circle cx="398.5" cy="513.7" r="3.5" fill="#2E7D32"/>
<text x="406.5" y="525.7" text-anchor="start" font-family="Arial" font-size="10" font-weight="bold" fill="#2E7D32">O13b</text>
<circle cx="489.6" cy="513.7" r="3.5" fill="#2E7D32"/>
<text x="497.6" y="525.7" text-anchor="start" font-family="Arial" font-size="10" font-weight="bold" fill="#2E7D32">O13a</text>
<circle cx="504.5" cy="509.2" r="3.5" fill="#2E7D32"/>
<text x="514.5" y="519.2" text-anchor="start" font-family="Arial" font-size="10" font-weight="bold" fill="#2E7D32">O13</text>
<circle cx="559.2" cy="473.2" r="3.5" fill="#d32f2f"/>
<text x="567.2" y="477.2" text-anchor="start" font-family="Arial" font-size="10" font-weight="bold" fill="#d32f2f">O12</text>
<circle cx="571.4" cy="450.4" r="3.5" fill="#d32f2f"/>
<text x="579.4" y="454.4" text-anchor="start" font-family="Arial" font-size="10" font-weight="bold" fill="#d32f2f">O11</text>
<circle cx="571.4" cy="354.9" r="3.5" fill="#d32f2f"/>
<text x="581.4" y="350.9" text-anchor="start" font-family="Arial" font-size="10" font-weight="bold" fill="#d32f2f">O10a</text>
<circle cx="569.2" cy="348.8" r="3.5" fill="#0077B6"/>
<text x="579.2" y="344.8" text-anchor="start" font-family="Arial" font-size="10" font-weight="bold" fill="#0077B6">O10</text>
<circle cx="541.8" cy="271.6" r="3.5" fill="#0077B6"/>
<text x="549.8" y="279.6" text-anchor="start" font-family="Arial" font-size="10" font-weight="bold" fill="#0077B6">O9</text>
<circle cx="541.8" cy="228.1" r="3.5" fill="#d32f2f"/>
<text x="549.8" y="240.1" text-anchor="start" font-family="Arial" font-size="10" font-weight="bold" fill="#d32f2f">O8</text>
<circle cx="487.4" cy="228.1" r="3.5" fill="#d32f2f"/>
<text x="495.4" y="240.1" text-anchor="start" font-family="Arial" font-size="10" font-weight="bold" fill="#d32f2f">O7</text>
<circle cx="485.5" cy="230.0" r="3.5" fill="#d32f2f"/>
<text x="477.5" y="224.0" text-anchor="end" font-family="Arial" font-size="10" font-weight="bold" fill="#d32f2f">O6a</text>
<circle cx="278.0" cy="230.0" r="3.5" fill="#d32f2f"/>
<text x="278.0" y="244.0" text-anchor="middle" font-family="Arial" font-size="10" font-weight="bold" fill="#d32f2f">O6</text>
<circle cx="276.1" cy="228.1" r="3.5" fill="#d32f2f"/>
<text x="268.1" y="224.1" text-anchor="end" font-family="Arial" font-size="10" font-weight="bold" fill="#d32f2f">O5</text>
<circle cx="248.9" cy="200.9" r="3.5" fill="#d32f2f"/>
<text x="248.9" y="188.9" text-anchor="middle" font-family="Arial" font-size="10" font-weight="bold" fill="#d32f2f">O4</text>
<circle cx="179.0" cy="200.9" r="3.5" fill="#d32f2f"/>
<text x="169.0" y="194.9" text-anchor="end" font-family="Arial" font-size="10" font-weight="bold" fill="#d32f2f">O3</text>
<g transform="translate(169.8,360.2) rotate(-90.0)">
  <text x="0" y="-3" text-anchor="middle" font-family="Arial" font-size="8.5" fill="#1a237e">180.00°</text>
  <text x="0" y="8" text-anchor="middle" font-family="Arial" font-size="8.5" fill="#555">22' 8.0"</text>
</g>
<g transform="translate(264.6,520.0) rotate(0.0)">
  <text x="0" y="-3" text-anchor="middle" font-family="Arial" font-size="8.5" fill="#1a237e">90.00°</text>
  <text x="0" y="8" text-anchor="middle" font-family="Arial" font-size="8.5" fill="#555">17' 8.3"</text>
</g>
<g transform="translate(444.0,529.7) rotate(-0.0)">
  <text x="0" y="-3" text-anchor="middle" font-family="Arial" font-size="8.5" fill="#1a237e">90.00°</text>
  <text x="0" y="8" text-anchor="middle" font-family="Arial" font-size="8.5" fill="#555">7' 9.7"</text>
</g>
<g transform="translate(523.1,477.8) rotate(33.4)">
  <text x="0" y="-3" text-anchor="middle" font-family="Arial" font-size="8.5" fill="#1a237e">56.61°</text>
  <text x="0" y="8" text-anchor="middle" font-family="Arial" font-size="8.5" fill="#555">5' 7.4"</text>
</g>
<g transform="translate(587.4,402.7) rotate(90.0)">
  <text x="0" y="-3" text-anchor="middle" font-family="Arial" font-size="8.5" fill="#1a237e">0.00°</text>
  <text x="0" y="8" text-anchor="middle" font-family="Arial" font-size="8.5" fill="#555">8' 2.4"</text>
</g>
<g transform="translate(557.8,249.8) rotate(90.0)">
  <text x="0" y="-3" text-anchor="middle" font-family="Arial" font-size="8.5" fill="#1a237e">0.00°</text>
  <text x="0" y="8" text-anchor="middle" font-family="Arial" font-size="8.5" fill="#555">3' 8.8"</text>
</g>
<g transform="translate(381.8,214.0) rotate(0.0)">
  <text x="0" y="-3" text-anchor="middle" font-family="Arial" font-size="8.5" fill="#1a237e">270.00°</text>
  <text x="0" y="8" text-anchor="middle" font-family="Arial" font-size="8.5" fill="#555">17' 9.5"</text>
</g>
<g transform="translate(213.9,184.9) rotate(0.0)">
  <text x="0" y="-3" text-anchor="middle" font-family="Arial" font-size="8.5" fill="#1a237e">270.00°</text>
  <text x="0" y="8" text-anchor="middle" font-family="Arial" font-size="8.5" fill="#555">6' 0.0"</text>
</g>
<text x="528.9" y="312.5" text-anchor="end" font-family="Arial" font-size="8.5" fill="#0077B6">Arc 1o: R=10' 6"</text>
<text x="528.9" y="323.5" text-anchor="end" font-family="Arial" font-size="8.5" fill="#0077B6">39.1° CW</text>
<text x="526.6" y="200.9" text-anchor="start" font-family="Arial" font-size="8.5" fill="#333">Turn R=28"</text>
<text x="526.6" y="211.9" text-anchor="start" font-family="Arial" font-size="8.5" fill="#333">180.0° CCW</text>
<text x="476.9" y="219.4" text-anchor="end" font-family="Arial" font-size="8.5" fill="#333">Fillet R=2"</text>
<text x="476.9" y="230.4" text-anchor="end" font-family="Arial" font-size="8.5" fill="#333">90.0°</text>
<text x="386.5" y="507.3" text-anchor="start" font-family="Arial" font-size="8.5" fill="#2E7D32">Wall R=20"</text>
<text x="386.5" y="518.3" text-anchor="start" font-family="Arial" font-size="8.5" fill="#2E7D32">41.4° CW</text>
<text x="400.9" y="501.9" text-anchor="start" font-family="Arial" font-size="8.5" fill="#2E7D32">Wall R=28"</text>
<text x="400.9" y="512.9" text-anchor="start" font-family="Arial" font-size="8.5" fill="#2E7D32">41.4°</text>
<text x="487.4" y="502.5" text-anchor="end" font-family="Arial" font-size="8.5" fill="#2E7D32">Wall R=28"</text>
<text x="487.4" y="513.5" text-anchor="end" font-family="Arial" font-size="8.5" fill="#2E7D32">33.4°</text>
<text x="582.9" y="351.6" text-anchor="start" font-family="Arial" font-size="8.5" fill="#333">Turn R=10"</text>
<text x="582.9" y="362.6" text-anchor="start" font-family="Arial" font-size="8.5" fill="#333">39.1°</text>
<text x="578.2" y="453.3" text-anchor="start" font-family="Arial" font-size="8.5" fill="#333">Fillet R=28"</text>
<text x="578.2" y="464.3" text-anchor="start" font-family="Arial" font-size="8.5" fill="#333">56.6°</text>
<text x="144.6" y="513.2" text-anchor="end" font-family="Arial" font-size="8.5" fill="#333">Fillet R=10"</text>
<text x="144.6" y="524.2" text-anchor="end" font-family="Arial" font-size="8.5" fill="#333">90.0°</text>
<text x="149.7" y="194.8" text-anchor="end" font-family="Arial" font-size="8.5" fill="#333">Fillet R=28"</text>
<text x="149.7" y="205.8" text-anchor="end" font-family="Arial" font-size="8.5" fill="#333">90.0°</text>
<text x="266.7" y="243.4" text-anchor="end" font-family="Arial" font-size="8.5" fill="#333">Turn R=2"</text>
<text x="266.7" y="254.4" text-anchor="end" font-family="Arial" font-size="8.5" fill="#333">90.0°</text>
<text x="280.1" y="208.8" text-anchor="start" font-family="Arial" font-size="8.5" fill="#333">Turn R=28"</text>
<text x="280.1" y="219.8" text-anchor="start" font-family="Arial" font-size="8.5" fill="#333">90.0°</text>
<g opacity="0.5">
<path d="M 151.8,228.1 L 151.8,492.3 L 151.8,493.1 L 151.9,493.8 L 152.0,494.6 L 152.2,495.3 L 152.5,496.0 L 152.8,496.7 L 153.2,497.4 L 153.6,498.0 L 154.1,498.6 L 154.6,499.2 L 155.2,499.7 L 155.8,500.2 L 156.4,500.6 L 157.1,501.0 L 157.8,501.3 L 158.5,501.6 L 159.2,501.8 L 159.9,501.9 L 160.7,502.0 L 161.5,502.0 L 367.7,502.0 L 367.9,502.0 L 368.1,502.0 L 368.4,502.0 L 368.6,502.1 L 368.8,502.1 L 369.1,502.1 L 369.3,502.1 L 369.5,502.1 L 369.8,502.1 L 370.0,502.2 L 370.2,502.2 L 370.5,502.2 L 370.7,502.3 L 370.9,502.3 L 371.2,502.3 L 371.4,502.4 L 371.6,502.4 L 371.8,502.5 L 372.1,502.5 L 372.3,502.6 L 372.5,502.6 L 372.8,502.7 L 373.0,502.8 L 373.2,502.8 L 373.4,502.9 L 373.6,503.0 L 373.9,503.0 L 374.1,503.1 L 374.3,503.2 L 374.5,503.3 L 374.7,503.4 L 375.0,503.5 L 375.2,503.5 L 375.4,503.6 L 375.6,503.7 L 375.8,503.8 L 376.0,503.9 L 376.2,504.0 L 376.5,504.1 L 376.7,504.2 L 376.9,504.3 L 377.1,504.5 L 377.3,504.6 L 377.5,504.7 L 377.7,504.8 L 377.9,504.9 L 378.1,505.1 L 378.3,505.2 L 378.5,505.3 L 378.7,505.4 L 378.9,505.6 L 379.1,505.7 L 379.2,505.9 L 379.4,506.0 L 379.6,506.1 L 379.8,506.3 L 380.0,506.4 L 380.2,506.6 L 380.3,506.7 L 380.5,506.9 L 380.8,507.1 L 381.0,507.3 L 381.3,507.5 L 381.5,507.7 L 381.8,507.9 L 382.0,508.1 L 382.3,508.3 L 382.6,508.5 L 382.8,508.7 L 383.1,508.9 L 383.4,509.1 L 383.6,509.3 L 383.9,509.4 L 384.2,509.6 L 384.5,509.8 L 384.8,510.0 L 385.0,510.1 L 385.3,510.3 L 385.6,510.4 L 385.9,510.6 L 386.2,510.7 L 386.5,510.9 L 386.8,511.0 L 387.1,511.2 L 387.4,511.3 L 387.7,511.4 L 388.0,511.6 L 388.3,511.7 L 388.6,511.8 L 388.9,511.9 L 389.2,512.0 L 389.5,512.2 L 389.8,512.3 L 390.1,512.4 L 390.4,512.5 L 390.8,512.6 L 391.1,512.6 L 391.4,512.7 L 391.7,512.8 L 392.0,512.9 L 392.3,513.0 L 392.7,513.0 L 393.0,513.1 L 393.3,513.2 L 393.6,513.2 L 393.9,513.3 L 394.3,513.4 L 394.6,513.4 L 394.9,513.4 L 395.2,513.5 L 395.6,513.5 L 395.9,513.6 L 396.2,513.6 L 396.5,513.6 L 396.9,513.6 L 397.2,513.7 L 397.5,513.7 L 397.8,513.7 L 398.2,513.7 L 398.5,513.7 L 489.6,513.7 L 490.3,513.7 L 491.1,513.6 L 491.9,513.6 L 492.7,513.5 L 493.5,513.4 L 494.3,513.3 L 495.1,513.1 L 495.8,512.9 L 496.6,512.8 L 497.4,512.5 L 498.1,512.3 L 498.9,512.0 L 499.6,511.8 L 500.3,511.5 L 501.1,511.1 L 501.8,510.8 L 502.5,510.4 L 503.2,510.0 L 503.9,509.6 L 504.5,509.2 L 559.2,473.2 L 560.3,472.4 L 561.4,471.6 L 562.4,470.7 L 563.4,469.8 L 564.3,468.8 L 565.2,467.8 L 566.0,466.7 L 566.8,465.6 L 567.5,464.5 L 568.2,463.3 L 568.8,462.1 L 569.3,460.9 L 569.8,459.7 L 570.2,458.4 L 570.6,457.1 L 570.9,455.8 L 571.1,454.5 L 571.3,453.1 L 571.4,451.8 L 571.4,450.4 L 571.4,354.9 L 571.4,354.6 L 571.4,354.2 L 571.4,353.9 L 571.3,353.6 L 571.3,353.2 L 571.2,352.9 L 571.1,352.6 L 571.1,352.3 L 571.0,352.0 L 570.9,351.6 L 570.7,351.3 L 570.6,351.0 L 570.5,350.7 L 570.3,350.4 L 570.2,350.1 L 570.0,349.8 L 569.8,349.6 L 569.6,349.3 L 569.5,349.0 L 569.2,348.8 L 568.4,347.7 L 567.5,346.6 L 566.7,345.5 L 565.8,344.4 L 565.0,343.2 L 564.2,342.1 L 563.4,341.0 L 562.6,339.8 L 561.9,338.7 L 561.1,337.5 L 560.4,336.3 L 559.6,335.1 L 558.9,333.9 L 558.2,332.7 L 557.5,331.5 L 556.8,330.3 L 556.2,329.1 L 555.5,327.8 L 554.9,326.6 L 554.3,325.4 L 553.7,324.1 L 553.1,322.8 L 552.5,321.6 L 551.9,320.3 L 551.4,319.0 L 550.9,317.7 L 550.4,316.4 L 549.8,315.1 L 549.4,313.8 L 548.9,312.5 L 548.4,311.2 L 548.0,309.9 L 547.6,308.6 L 547.1,307.2 L 546.7,305.9 L 546.4,304.6 L 546.0,303.2 L 545.6,301.9 L 545.3,300.5 L 545.0,299.2 L 544.7,297.8 L 544.4,296.4 L 544.1,295.1 L 543.9,293.7 L 543.6,292.3 L 543.4,291.0 L 543.2,289.6 L 543.0,288.2 L 542.8,286.8 L 542.6,285.5 L 542.5,284.1 L 542.3,282.7 L 542.2,281.3 L 542.1,279.9 L 542.0,278.5 L 542.0,277.1 L 541.9,275.7 L 541.9,274.3 L 541.8,273.0 L 541.8,271.6 L 541.8,228.1 L 541.8,226.7 L 541.7,225.2 L 541.5,223.8 L 541.2,222.4 L 540.9,221.0 L 540.5,219.7 L 540.0,218.3 L 539.5,217.0 L 538.9,215.7 L 538.2,214.5 L 537.4,213.3 L 536.6,212.1 L 535.8,211.0 L 534.8,209.9 L 533.9,208.8 L 532.8,207.9 L 531.7,206.9 L 530.6,206.1 L 529.4,205.3 L 528.2,204.5 L 527.0,203.8 L 525.7,203.2 L 524.4,202.7 L 523.0,202.2 L 521.7,201.8 L 520.3,201.5 L 518.9,201.2 L 517.5,201.0 L 516.1,200.9 L 514.6,200.9 L 513.2,200.9 L 511.8,201.0 L 510.4,201.2 L 509.0,201.5 L 507.6,201.8 L 506.2,202.2 L 504.9,202.7 L 503.6,203.2 L 502.3,203.8 L 501.0,204.5 L 499.8,205.3 L 498.6,206.1 L 497.5,206.9 L 496.4,207.9 L 495.4,208.8 L 494.4,209.9 L 493.5,211.0 L 492.6,212.1 L 491.8,213.3 L 491.1,214.5 L 490.4,215.7 L 489.8,217.0 L 489.2,218.3 L 488.8,219.7 L 488.4,221.0 L 488.0,222.4 L 487.8,223.8 L 487.6,225.2 L 487.5,226.7 L 487.4,228.1 L 487.4,228.2 L 487.4,228.4 L 487.4,228.5 L 487.3,228.7 L 487.3,228.8 L 487.2,229.0 L 487.1,229.1 L 487.1,229.2 L 487.0,229.3 L 486.9,229.4 L 486.7,229.6 L 486.6,229.6 L 486.5,229.7 L 486.4,229.8 L 486.2,229.9 L 486.1,229.9 L 485.9,230.0 L 485.8,230.0 L 485.6,230.0 L 485.5,230.0 L 278.0,230.0 L 277.9,230.0 L 277.7,230.0 L 277.6,230.0 L 277.4,229.9 L 277.3,229.9 L 277.2,229.8 L 277.0,229.7 L 276.9,229.6 L 276.8,229.6 L 276.7,229.4 L 276.6,229.3 L 276.5,229.2 L 276.4,229.1 L 276.3,229.0 L 276.2,228.8 L 276.2,228.7 L 276.2,228.5 L 276.1,228.4 L 276.1,228.2 L 276.1,228.1 L 276.0,225.9 L 275.8,223.8 L 275.3,221.7 L 274.8,219.7 L 274.0,217.7 L 273.1,215.7 L 272.1,213.9 L 270.9,212.1 L 269.6,210.4 L 268.1,208.8 L 266.6,207.4 L 264.9,206.1 L 263.1,204.9 L 261.2,203.8 L 259.3,202.9 L 257.3,202.2 L 255.2,201.6 L 253.2,201.2 L 251.0,201.0 L 248.9,200.9 L 179.0,200.9 L 176.8,201.0 L 174.7,201.2 L 172.6,201.6 L 170.5,202.2 L 168.5,202.9 L 166.6,203.8 L 164.7,204.9 L 163.0,206.1 L 161.3,207.4 L 159.7,208.8 L 158.3,210.4 L 156.9,212.1 L 155.8,213.9 L 154.7,215.7 L 153.8,217.7 L 153.1,219.7 L 152.5,221.7 L 152.1,223.8 L 151.8,225.9 Z M 159.6,226.6 L 159.8,225.0 L 160.1,223.5 L 160.5,222.1 L 161.0,220.6 L 161.6,219.3 L 162.4,217.9 L 163.2,216.7 L 164.2,215.5 L 165.2,214.3 L 166.3,213.3 L 167.5,212.4 L 168.8,211.5 L 170.1,210.8 L 171.5,210.1 L 173.0,209.6 L 174.4,209.2 L 175.9,208.9 L 177.4,208.7 L 179.0,208.6 L 248.9,208.6 L 250.4,208.7 L 251.9,208.9 L 253.4,209.2 L 254.9,209.6 L 256.3,210.1 L 257.7,210.8 L 259.1,211.5 L 260.3,212.4 L 261.5,213.3 L 262.6,214.3 L 263.7,215.5 L 264.6,216.7 L 265.5,217.9 L 266.2,219.3 L 266.8,220.6 L 267.4,222.1 L 267.8,223.5 L 268.1,225.0 L 268.3,226.6 L 268.3,228.1 L 268.4,228.8 L 268.4,229.6 L 268.6,230.3 L 268.8,231.1 L 269.1,231.8 L 269.4,232.5 L 269.8,233.2 L 270.2,233.8 L 270.7,234.4 L 271.2,234.9 L 271.7,235.5 L 272.3,235.9 L 273.0,236.4 L 273.6,236.7 L 274.3,237.1 L 275.0,237.3 L 275.8,237.5 L 276.5,237.7 L 277.3,237.8 L 278.0,237.8 L 485.5,237.8 L 486.2,237.8 L 487.0,237.7 L 487.8,237.5 L 488.5,237.3 L 489.2,237.1 L 489.9,236.7 L 490.6,236.4 L 491.2,235.9 L 491.8,235.5 L 492.4,234.9 L 492.9,234.4 L 493.3,233.8 L 493.8,233.2 L 494.1,232.5 L 494.5,231.8 L 494.7,231.1 L 494.9,230.3 L 495.1,229.6 L 495.2,228.8 L 495.2,228.1 L 495.2,227.1 L 495.3,226.0 L 495.4,225.0 L 495.6,224.0 L 495.9,223.0 L 496.1,222.1 L 496.5,221.1 L 496.9,220.2 L 497.3,219.3 L 497.8,218.4 L 498.3,217.5 L 498.9,216.7 L 499.5,215.8 L 500.2,215.1 L 500.9,214.3 L 501.6,213.6 L 502.4,213.0 L 503.2,212.4 L 504.0,211.8 L 504.9,211.2 L 505.8,210.8 L 506.7,210.3 L 507.7,209.9 L 508.6,209.6 L 509.6,209.3 L 510.6,209.1 L 511.6,208.9 L 512.6,208.8 L 513.6,208.7 L 514.6,208.6 L 515.6,208.7 L 516.7,208.8 L 517.7,208.9 L 518.7,209.1 L 519.7,209.3 L 520.6,209.6 L 521.6,209.9 L 522.5,210.3 L 523.4,210.8 L 524.3,211.2 L 525.2,211.8 L 526.0,212.4 L 526.9,213.0 L 527.6,213.6 L 528.4,214.3 L 529.1,215.1 L 529.7,215.8 L 530.3,216.7 L 530.9,217.5 L 531.5,218.4 L 531.9,219.3 L 532.4,220.2 L 532.8,221.1 L 533.1,222.1 L 533.4,223.0 L 533.6,224.0 L 533.8,225.0 L 534.0,226.0 L 534.0,227.1 L 534.1,228.1 L 534.1,271.6 L 534.1,273.0 L 534.1,274.5 L 534.1,276.0 L 534.2,277.5 L 534.3,279.0 L 534.4,280.4 L 534.5,281.9 L 534.6,283.4 L 534.7,284.9 L 534.9,286.3 L 535.1,287.8 L 535.3,289.3 L 535.5,290.7 L 535.7,292.2 L 535.9,293.7 L 536.2,295.1 L 536.5,296.6 L 536.8,298.0 L 537.1,299.5 L 537.4,300.9 L 537.8,302.4 L 538.1,303.8 L 538.5,305.2 L 538.9,306.7 L 539.3,308.1 L 539.7,309.5 L 540.1,310.9 L 540.6,312.3 L 541.1,313.7 L 541.6,315.1 L 542.1,316.5 L 542.6,317.9 L 543.1,319.3 L 543.7,320.7 L 544.2,322.0 L 544.8,323.4 L 545.4,324.7 L 546.0,326.1 L 546.7,327.4 L 547.3,328.8 L 548.0,330.1 L 548.6,331.4 L 549.3,332.7 L 550.0,334.0 L 550.7,335.3 L 551.5,336.6 L 552.2,337.9 L 553.0,339.2 L 553.8,340.4 L 554.6,341.7 L 555.4,342.9 L 556.2,344.1 L 557.0,345.4 L 557.9,346.6 L 558.7,347.8 L 559.6,349.0 L 560.5,350.2 L 561.4,351.3 L 562.3,352.5 L 563.2,353.7 L 563.3,353.7 L 563.3,353.8 L 563.3,353.8 L 563.4,353.9 L 563.4,353.9 L 563.4,354.0 L 563.5,354.1 L 563.5,354.1 L 563.5,354.2 L 563.5,354.2 L 563.6,354.3 L 563.6,354.4 L 563.6,354.4 L 563.6,354.5 L 563.6,354.6 L 563.6,354.6 L 563.6,354.7 L 563.6,354.8 L 563.7,354.8 L 563.7,354.9 L 563.7,450.4 L 563.6,451.4 L 563.6,452.4 L 563.4,453.3 L 563.3,454.3 L 563.1,455.2 L 562.8,456.1 L 562.5,457.0 L 562.2,457.9 L 561.8,458.8 L 561.3,459.7 L 560.9,460.5 L 560.3,461.3 L 559.8,462.1 L 559.2,462.8 L 558.6,463.6 L 557.9,464.3 L 557.2,464.9 L 556.5,465.5 L 555.7,466.1 L 554.9,466.7 L 500.2,502.7 L 499.8,503.0 L 499.3,503.3 L 498.8,503.6 L 498.3,503.8 L 497.8,504.1 L 497.3,504.3 L 496.7,504.5 L 496.2,504.7 L 495.7,504.9 L 495.1,505.1 L 494.6,505.2 L 494.0,505.4 L 493.5,505.5 L 492.9,505.6 L 492.4,505.7 L 491.8,505.8 L 491.2,505.8 L 490.7,505.9 L 490.1,505.9 L 489.6,505.9 L 398.5,505.9 L 398.3,505.9 L 398.0,505.9 L 397.8,505.9 L 397.6,505.9 L 397.3,505.9 L 397.1,505.9 L 396.9,505.8 L 396.6,505.8 L 396.4,505.8 L 396.2,505.8 L 395.9,505.7 L 395.7,505.7 L 395.5,505.7 L 395.2,505.6 L 395.0,505.6 L 394.8,505.6 L 394.6,505.5 L 394.3,505.5 L 394.1,505.4 L 393.9,505.4 L 393.6,505.3 L 393.4,505.2 L 393.2,505.2 L 393.0,505.1 L 392.7,505.0 L 392.5,505.0 L 392.3,504.9 L 392.1,504.8 L 391.9,504.7 L 391.6,504.7 L 391.4,504.6 L 391.2,504.5 L 391.0,504.4 L 390.8,504.3 L 390.6,504.2 L 390.3,504.1 L 390.1,504.0 L 389.9,503.9 L 389.7,503.8 L 389.5,503.7 L 389.3,503.6 L 389.1,503.5 L 388.9,503.4 L 388.7,503.2 L 388.5,503.1 L 388.3,503.0 L 388.1,502.9 L 387.9,502.8 L 387.7,502.6 L 387.5,502.5 L 387.3,502.4 L 387.1,502.2 L 386.9,502.1 L 386.7,501.9 L 386.6,501.8 L 386.4,501.7 L 386.2,501.5 L 386.0,501.4 L 385.8,501.2 L 385.7,501.1 L 385.4,500.8 L 385.2,500.6 L 384.9,500.4 L 384.7,500.2 L 384.4,500.0 L 384.1,499.8 L 383.9,499.6 L 383.6,499.4 L 383.3,499.2 L 383.1,499.0 L 382.8,498.9 L 382.5,498.7 L 382.3,498.5 L 382.0,498.3 L 381.7,498.2 L 381.4,498.0 L 381.1,497.8 L 380.8,497.7 L 380.6,497.5 L 380.3,497.4 L 380.0,497.2 L 379.7,497.1 L 379.4,496.9 L 379.1,496.8 L 378.8,496.6 L 378.5,496.5 L 378.2,496.4 L 377.9,496.3 L 377.6,496.1 L 377.3,496.0 L 377.0,495.9 L 376.7,495.8 L 376.4,495.7 L 376.0,495.6 L 375.7,495.5 L 375.4,495.4 L 375.1,495.3 L 374.8,495.2 L 374.5,495.1 L 374.2,495.0 L 373.8,495.0 L 373.5,494.9 L 373.2,494.8 L 372.9,494.8 L 372.5,494.7 L 372.2,494.6 L 371.9,494.6 L 371.6,494.5 L 371.3,494.5 L 370.9,494.5 L 370.6,494.4 L 370.3,494.4 L 370.0,494.4 L 369.6,494.3 L 369.3,494.3 L 369.0,494.3 L 368.6,494.3 L 368.3,494.3 L 368.0,494.3 L 367.7,494.3 L 161.5,494.3 L 161.3,494.2 L 161.2,494.2 L 161.0,494.2 L 160.9,494.2 L 160.7,494.1 L 160.6,494.0 L 160.5,494.0 L 160.3,493.9 L 160.2,493.8 L 160.1,493.7 L 160.0,493.6 L 159.9,493.5 L 159.8,493.3 L 159.7,493.2 L 159.7,493.1 L 159.6,492.9 L 159.6,492.8 L 159.5,492.6 L 159.5,492.5 L 159.5,492.3 L 159.5,228.1 Z" fill="rgba(160,160,160,0.5)" fill-rule="evenodd" stroke="none"/>
<line x1="159.5" y1="228.1" x2="159.5" y2="492.3" stroke="#666" stroke-width="1.0"/>
<polyline points="159.5,492.3 159.5,492.5 159.5,492.6 159.6,492.8 159.6,492.9 159.7,493.1 159.7,493.2 159.8,493.3 159.9,493.5 160.0,493.6 160.1,493.7 160.2,493.8 160.3,493.9 160.5,494.0 160.6,494.0 160.7,494.1 160.9,494.2 161.0,494.2 161.2,494.2 161.3,494.2 161.5,494.3" fill="none" stroke="#666" stroke-width="1.0" stroke-linecap="round"/>
<line x1="161.5" y1="494.3" x2="367.7" y2="494.3" stroke="#666" stroke-width="1.0"/>
<polyline points="367.7,494.3 368.0,494.3 368.3,494.3 368.6,494.3 369.0,494.3 369.3,494.3 369.6,494.3 370.0,494.4 370.3,494.4 370.6,494.4 370.9,494.5 371.3,494.5 371.6,494.5 371.9,494.6 372.2,494.6 372.5,494.7 372.9,494.8 373.2,494.8 373.5,494.9 373.8,495.0 374.2,495.0 374.5,495.1 374.8,495.2 375.1,495.3 375.4,495.4 375.7,495.5 376.0,495.6 376.4,495.7 376.7,495.8 377.0,495.9 377.3,496.0 377.6,496.1 377.9,496.3 378.2,496.4 378.5,496.5 378.8,496.6 379.1,496.8 379.4,496.9 379.7,497.1 380.0,497.2 380.3,497.4 380.6,497.5 380.8,497.7 381.1,497.8 381.4,498.0 381.7,498.2 382.0,498.3 382.3,498.5 382.5,498.7 382.8,498.9 383.1,499.0 383.3,499.2 383.6,499.4 383.9,499.6 384.1,499.8 384.4,500.0 384.7,500.2 384.9,500.4 385.2,500.6 385.4,500.8 385.7,501.1" fill="none" stroke="#666" stroke-width="1.0" stroke-linecap="round"/>
<polyline points="385.7,501.1 385.8,501.2 386.0,501.4 386.2,501.5 386.4,501.7 386.6,501.8 386.7,501.9 386.9,502.1 387.1,502.2 387.3,502.4 387.5,502.5 387.7,502.6 387.9,502.8 388.1,502.9 388.3,503.0 388.5,503.1 388.7,503.2 388.9,503.4 389.1,503.5 389.3,503.6 389.5,503.7 389.7,503.8 389.9,503.9 390.1,504.0 390.3,504.1 390.6,504.2 390.8,504.3 391.0,504.4 391.2,504.5 391.4,504.6 391.6,504.7 391.9,504.7 392.1,504.8 392.3,504.9 392.5,505.0 392.7,505.0 393.0,505.1 393.2,505.2 393.4,505.2 393.6,505.3 393.9,505.4 394.1,505.4 394.3,505.5 394.6,505.5 394.8,505.6 395.0,505.6 395.2,505.6 395.5,505.7 395.7,505.7 395.9,505.7 396.2,505.8 396.4,505.8 396.6,505.8 396.9,505.8 397.1,505.9 397.3,505.9 397.6,505.9 397.8,505.9 398.0,505.9 398.3,505.9 398.5,505.9" fill="none" stroke="#666" stroke-width="1.0" stroke-linecap="round"/>
<line x1="398.5" y1="505.9" x2="489.6" y2="505.9" stroke="#666" stroke-width="1.0"/>
<polyline points="489.6,505.9 490.1,505.9 490.7,505.9 491.2,505.8 491.8,505.8 492.4,505.7 492.9,505.6 493.5,505.5 494.0,505.4 494.6,505.2 495.1,505.1 495.7,504.9 496.2,504.7 496.7,504.5 497.3,504.3 497.8,504.1 498.3,503.8 498.8,503.6 499.3,503.3 499.8,503.0 500.2,502.7" fill="none" stroke="#666" stroke-width="1.0" stroke-linecap="round"/>
<line x1="500.2" y1="502.7" x2="554.9" y2="466.7" stroke="#666" stroke-width="1.0"/>
<polyline points="554.9,466.7 555.7,466.1 556.5,465.5 557.2,464.9 557.9,464.3 558.6,463.6 559.2,462.8 559.8,462.1 560.3,461.3 560.9,460.5 561.3,459.7 561.8,458.8 562.2,457.9 562.5,457.0 562.8,456.1 563.1,455.2 563.3,454.3 563.4,453.3 563.6,452.4 563.6,451.4 563.7,450.4" fill="none" stroke="#666" stroke-width="1.0" stroke-linecap="round"/>
<line x1="563.7" y1="450.4" x2="563.7" y2="354.9" stroke="#666" stroke-width="1.0"/>
<polyline points="563.7,354.9 563.7,354.8 563.6,354.8 563.6,354.7 563.6,354.6 563.6,354.6 563.6,354.5 563.6,354.4 563.6,354.4 563.6,354.3 563.5,354.2 563.5,354.2 563.5,354.1 563.5,354.1 563.4,354.0 563.4,353.9 563.4,353.9 563.3,353.8 563.3,353.8 563.3,353.7 563.2,353.7" fill="none" stroke="#666" stroke-width="1.0" stroke-linecap="round"/>
<polyline points="563.2,353.7 562.3,352.5 561.4,351.3 560.5,350.2 559.6,349.0 558.7,347.8 557.9,346.6 557.0,345.4 556.2,344.1 555.4,342.9 554.6,341.7 553.8,340.4 553.0,339.2 552.2,337.9 551.5,336.6 550.7,335.3 550.0,334.0 549.3,332.7 548.6,331.4 548.0,330.1 547.3,328.8 546.7,327.4 546.0,326.1 545.4,324.7 544.8,323.4 544.2,322.0 543.7,320.7 543.1,319.3 542.6,317.9 542.1,316.5 541.6,315.1 541.1,313.7 540.6,312.3 540.1,310.9 539.7,309.5 539.3,308.1 538.9,306.7 538.5,305.2 538.1,303.8 537.8,302.4 537.4,300.9 537.1,299.5 536.8,298.0 536.5,296.6 536.2,295.1 535.9,293.7 535.7,292.2 535.5,290.7 535.3,289.3 535.1,287.8 534.9,286.3 534.7,284.9 534.6,283.4 534.5,281.9 534.4,280.4 534.3,279.0 534.2,277.5 534.1,276.0 534.1,274.5 534.1,273.0 534.1,271.6" fill="none" stroke="#666" stroke-width="1.0" stroke-linecap="round"/>
<line x1="534.1" y1="271.6" x2="534.1" y2="228.1" stroke="#666" stroke-width="1.0"/>
<polyline points="534.1,228.1 534.0,227.1 534.0,226.0 533.8,225.0 533.6,224.0 533.4,223.0 533.1,222.1 532.8,221.1 532.4,220.2 531.9,219.3 531.5,218.4 530.9,217.5 530.3,216.7 529.7,215.8 529.1,215.1 528.4,214.3 527.6,213.6 526.9,213.0 526.0,212.4 525.2,211.8 524.3,211.2 523.4,210.8 522.5,210.3 521.6,209.9 520.6,209.6 519.7,209.3 518.7,209.1 517.7,208.9 516.7,208.8 515.6,208.7 514.6,208.6 513.6,208.7 512.6,208.8 511.6,208.9 510.6,209.1 509.6,209.3 508.6,209.6 507.7,209.9 506.7,210.3 505.8,210.8 504.9,211.2 504.0,211.8 503.2,212.4 502.4,213.0 501.6,213.6 500.9,214.3 500.2,215.1 499.5,215.8 498.9,216.7 498.3,217.5 497.8,218.4 497.3,219.3 496.9,220.2 496.5,221.1 496.1,222.1 495.9,223.0 495.6,224.0 495.4,225.0 495.3,226.0 495.2,227.1 495.2,228.1" fill="none" stroke="#666" stroke-width="1.0" stroke-linecap="round"/>
<polyline points="495.2,228.1 495.2,228.8 495.1,229.6 494.9,230.3 494.7,231.1 494.5,231.8 494.1,232.5 493.8,233.2 493.3,233.8 492.9,234.4 492.4,234.9 491.8,235.5 491.2,235.9 490.6,236.4 489.9,236.7 489.2,237.1 488.5,237.3 487.8,237.5 487.0,237.7 486.2,237.8 485.5,237.8" fill="none" stroke="#666" stroke-width="1.0" stroke-linecap="round"/>
<line x1="485.5" y1="237.8" x2="278.0" y2="237.8" stroke="#666" stroke-width="1.0"/>
<polyline points="278.0,237.8 277.3,237.8 276.5,237.7 275.8,237.5 275.0,237.3 274.3,237.1 273.6,236.7 273.0,236.4 272.3,235.9 271.7,235.5 271.2,234.9 270.7,234.4 270.2,233.8 269.8,233.2 269.4,232.5 269.1,231.8 268.8,231.1 268.6,230.3 268.4,229.6 268.4,228.8 268.3,228.1" fill="none" stroke="#666" stroke-width="1.0" stroke-linecap="round"/>
<polyline points="268.3,228.1 268.3,226.6 268.1,225.0 267.8,223.5 267.4,222.1 266.8,220.6 266.2,219.3 265.5,217.9 264.6,216.7 263.7,215.5 262.6,214.3 261.5,213.3 260.3,212.4 259.1,211.5 257.7,210.8 256.3,210.1 254.9,209.6 253.4,209.2 251.9,208.9 250.4,208.7 248.9,208.6" fill="none" stroke="#666" stroke-width="1.0" stroke-linecap="round"/>
<line x1="248.9" y1="208.6" x2="179.0" y2="208.6" stroke="#666" stroke-width="1.0"/>
<polyline points="179.0,208.6 177.4,208.7 175.9,208.9 174.4,209.2 173.0,209.6 171.5,210.1 170.1,210.8 168.8,211.5 167.5,212.4 166.3,213.3 165.2,214.3 164.2,215.5 163.2,216.7 162.4,217.9 161.6,219.3 161.0,220.6 160.5,222.1 160.1,223.5 159.8,225.0 159.6,226.6 159.5,228.1" fill="none" stroke="#666" stroke-width="1.0" stroke-linecap="round"/>
<polygon points="159.5,360.2 563.7,360.2 563.6,354.4 159.5,354.4" fill="rgba(160,160,160,0.5)" stroke="none"/>
<line x1="159.5" y1="360.2" x2="563.7" y2="360.2" stroke="#666" stroke-width="1.0"/>
<line x1="159.5" y1="354.4" x2="563.6" y2="354.4" stroke="#666" stroke-width="1.0"/>
<polygon points="235.3,354.4 241.1,354.4 241.1,208.6 235.3,208.6" fill="rgba(160,160,160,0.5)" stroke="none"/>
<line x1="235.3" y1="354.4" x2="235.3" y2="208.6" stroke="#666" stroke-width="1.0"/>
<line x1="241.1" y1="354.4" x2="241.1" y2="208.6" stroke="#666" stroke-width="1.0"/>
<polygon points="257.6,494.3 260.6,494.3 260.6,424.3 289.7,424.3 289.7,421.4 257.6,421.4" fill="rgba(160,160,160,0.5)" stroke="#666" stroke-width="0.8"/>
<polygon points="289.7,494.3 293.6,494.3 293.6,360.2 289.7,360.2" fill="rgba(160,160,160,0.5)" stroke="#666" stroke-width="0.8"/>
<polygon points="429.6,505.9 433.5,505.9 433.5,360.2 429.6,360.2" fill="rgba(160,160,160,0.5)" stroke="#666" stroke-width="0.8"/>
<polygon points="433.5,433.1 465.5,433.1 465.5,505.9 462.6,505.9 462.6,436.0 433.5,436.0" fill="rgba(160,160,160,0.5)" stroke="#666" stroke-width="0.8"/>
<rect x="165.4" y="461.2" width="34.0" height="29.1" fill="rgba(100,150,200,0.3)" stroke="#4682B4" stroke-width="0.8"/>
<text x="182.4" y="478.8" text-anchor="middle" font-family="Arial" font-size="7" fill="#4682B4">DRYER</text>
<rect x="165.4" y="431.1" width="34.0" height="29.1" fill="rgba(100,150,200,0.3)" stroke="#4682B4" stroke-width="0.8"/>
<text x="182.4" y="448.7" text-anchor="middle" font-family="Arial" font-size="7" fill="#4682B4">WASHER</text>
<path d="M 234.3,494.3 L 257.6,494.3 L 257.6,424.3 L 243.1,424.3 A 8.7 8.7 0 0 0 234.3,433.1 Z" fill="rgba(100,150,200,0.3)" stroke="#4682B4" stroke-width="0.8"/>
<text x="246.0" y="459.3" text-anchor="middle" font-family="Arial" font-size="7" fill="#4682B4" letter-spacing="0.5" transform="rotate(-90,246.0,459.3)">COUNTER</text>
<rect x="324.7" y="401.0" width="73.8" height="91.3" fill="rgba(100,150,200,0.3)" stroke="#4682B4" stroke-width="0.8"/>
<text x="361.6" y="473.9" text-anchor="middle" font-family="Arial" font-size="7" fill="#4682B4">KING BED</text>
<text x="275.1" y="462.3" text-anchor="middle" font-family="Arial" font-size="7" fill="#666" transform="rotate(-90,275.1,462.3)">CLOSET</text>
<text x="361.6" y="430.2" text-anchor="middle" font-family="Arial" font-size="8" fill="#666">BEDROOM</text>
<text x="448.0" y="468.1" text-anchor="middle" font-family="Arial" font-size="7" fill="#666" transform="rotate(-90,448.0,468.1)">CLOSET</text>
</g>
<text x="395.8" y="360.6" text-anchor="middle" font-family="Arial" font-size="12" fill="#333" font-weight="bold">855.32 sq ft</text>
<text x="395.8" y="374.6" text-anchor="middle" font-family="Arial" font-size="9" fill="#666">(Outline enclosed area)</text>
<line x1="742" y1="560" x2="742" y2="524" stroke="#333" stroke-width="2" marker-end="url(#ah)"/>
<text x="742" y="518" text-anchor="middle" font-family="Arial" font-size="13" font-weight="bold">N</text>
<rect x="40" y="550" width="14" height="8" fill="#e8edf5" stroke="#333" stroke-width="1" opacity="0.3"/>
<text x="60" y="557" font-family="Arial" font-size="8" fill="#999">Outer path at 20% (1089.16 sq ft)</text>
<rect x="40" y="562" width="14" height="8" fill="rgba(255,152,0,0.35)" stroke="#BF360C" stroke-width="1" opacity="0.3"/>
<text x="60" y="569" font-family="Arial" font-size="8" fill="#999">Inset path at 20% (1022.16 sq ft)</text>
<line x1="40" y1="578" x2="54" y2="578" stroke="#333" stroke-width="2.0"/>
<text x="60" y="581" font-family="Arial" font-size="8" fill="#333">Outline path (855.32 sq ft) — wall arcs R=28", fillets R=10" &amp; R=28"</text>
<line x1="40" y1="590" x2="54" y2="590" stroke="#0077B6" stroke-width="2.5"/>
<text x="60" y="593" font-family="Arial" font-size="8" fill="#333">Outline Arc 1o (R=10' 6")</text>
<line x1="40" y1="602" x2="54" y2="602" stroke="#2E7D32" stroke-width="2.5"/>
<text x="60" y="605" font-family="Arial" font-size="8" fill="#333">Wall arcs (R=28")</text>
<text x="396.0" y="610" text-anchor="middle" font-family="Arial" font-size="7.5" fill="#999">Bearings as adjusted • Distances in feet and inches • Outline arcs: R1o=10' 6", wall R=28", fillets R=10" &amp; R=28"</text>
</svg>