<svg xmlns="http://www.w3.org/2000/svg" width="792" height="612" viewBox="0 0 792 612">
<rect width="792" height="612" fill="white"/>
<defs>
  <marker id="ah" markerWidth="8" markerHeight="6" refX="8" refY="3" orient="auto"><polygon points="0 0, 8 3, 0 6" fill="#333"/></marker>
  <clipPath id="page"><rect width="792" height="612"/></clipPath>
</defs>
<text x="396.0" y="30" text-anchor="middle" font-family="Arial" font-size="14" font-weight="bold">Site Path — Outline (wall arcs R=28″, fillets R=10″ &amp; R=28″)</text>
<g opacity="0.2">
<polygon points="368.8,124.1 145.9,169.8 145.9,507.9 517.1,507.9 645.7,423.1" fill="none" stroke="#bbb" stroke-width="0.8" stroke-dasharray="4,4"/>
<polygon points="368.8,124.1 145.9,169.8 145.9,507.9 354.7,507.9 356.5,507.9 358.4,507.9 360.2,508.0 362.0,508.1 363.8,508.2 365.6,508.3 367.4,508.5 369.2,508.7 371.0,508.9 372.8,509.1 374.6,509.4 376.4,509.7 378.2,510.0 380.0,510.4 381.8,510.7 383.5,511.1 385.3,511.6 387.1,512.0 388.8,512.5 390.6,513.0 392.3,513.5 394.0,514.0 395.8,514.6 397.5,515.2 399.2,515.8 400.9,516.5 402.6,517.1 404.3,517.8 405.9,518.5 407.6,519.3 409.2,520.0 410.9,520.8 412.5,521.6 414.1,522.4 415.7,523.3 417.3,524.2 418.9,525.1 420.5,526.0 422.0,526.9 423.5,527.9 425.1,528.9 426.6,529.9 428.1,530.9 429.6,532.0 431.0,533.0 432.5,534.1 433.9,535.2 435.3,536.4 436.7,537.5 438.1,538.7 439.5,539.9 440.9,541.1 442.2,542.3 443.5,543.6 444.8,544.8 446.1,546.1 447.4,547.4 448.6,548.7 449.8,550.1 451.0,551.4 517.1,507.9 645.7,423.1 578.7,350.8 577.1,349.0 575.4,347.1 573.9,345.2 572.3,343.3 570.8,341.3 569.4,339.4 568.0,337.3 566.6,335.3 565.3,333.2 564.0,331.1 562.8,329.0 561.6,326.9 560.5,324.7 559.4,322.5 558.3,320.3 557.3,318.0 556.4,315.8 555.5,313.5 554.6,311.2 553.8,308.9 553.0,306.5 552.3,304.2 551.6,301.8 551.0,299.4 550.5,297.0 550.0,294.6 549.5,292.2 549.1,289.8 548.7,287.4 548.4,284.9 548.2,282.5 548.0,280.0 547.8,277.6 547.7,275.1 547.7,272.7 547.7,270.2 547.7,267.8 547.8,265.3 548.0,262.9 548.2,260.4 548.5,258.0 548.8,255.5 549.1,253.1 549.5,250.7 550.0,248.3 550.5,245.9 551.1,243.5 551.7,241.1 552.4,238.7 553.1,236.4 553.9,234.1 554.7,231.7 555.5,229.4 556.4,227.2 557.4,224.9 558.4,222.7 559.5,220.4 560.6,218.2 561.7,216.1 562.9,213.9 560.3,214.7 557.7,215.4 555.1,216.0 552.4,216.6 549.8,217.2 547.1,217.7 544.5,218.1 541.8,218.5 539.1,218.9 536.4,219.2 533.7,219.5 531.0,219.7 528.3,219.8 525.6,219.9 522.9,220.0 520.2,220.0 517.5,220.0 514.8,219.9 512.1,219.7 509.4,219.5 506.7,219.3 504.0,219.0 501.3,218.6 498.7,218.2 496.0,217.8 493.3,217.3 490.7,216.8 488.1,216.2 485.4,215.5 482.8,214.8 480.2,214.1 477.6,213.3 475.1,212.5 472.5,211.6 470.0,210.7 467.4,209.7 464.9,208.7 462.4,207.6 460.0,206.5 457.5,205.3 455.1,204.1 452.7,202.9 450.3,201.6 448.0,200.2 445.7,198.9 443.4,197.4 441.1,196.0 438.8,194.5 436.6,192.9 434.4,191.3 432.3,189.7 430.2,188.0 428.1,186.3 426.0,184.6 424.0,182.8 422.0,181.0 420.0,179.1 418.1,177.2 416.2,175.3 414.3,173.3" fill="#e8edf5" stroke="none"/>
<line x1="368.8" y1="124.1" x2="145.9" y2="169.8" stroke="#333" stroke-width="2.0"/>
<line x1="145.9" y1="169.8" x2="145.9" y2="507.9" stroke="#333" stroke-width="2.0"/>
<line x1="145.9" y1="507.9" x2="354.7" y2="507.9" stroke="#333" stroke-width="2.0"/>
<line x1="451.0" y1="551.4" x2="517.1" y2="507.9" stroke="#333" stroke-width="2.0"/>
<line x1="517.1" y1="507.9" x2="645.7" y2="423.1" stroke="#333" stroke-width="2.0"/>
<line x1="645.7" y1="423.1" x2="578.7" y2="350.8" stroke="#333" stroke-width="2.0"/>
<line x1="414.3" y1="173.3" x2="368.8" y2="124.1" stroke="#333" stroke-width="2.0"/>
<polyline points="578.7,350.8 577.1,349.0 575.4,347.1 573.9,345.2 572.3,343.3 570.8,341.3 569.4,339.4 568.0,337.3 566.6,335.3 565.3,333.2 564.0,331.1 562.8,329.0 561.6,326.9 560.5,324.7 559.4,322.5 558.3,320.3 557.3,318.0 556.4,315.8 555.5,313.5 554.6,311.2 553.8,308.9 553.0,306.5 552.3,304.2 551.6,301.8 551.0,299.4 550.5,297.0 550.0,294.6 549.5,292.2 549.1,289.8 548.7,287.4 548.4,284.9 548.2,282.5 548.0,280.0 547.8,277.6 547.7,275.1 547.7,272.7 547.7,270.2 547.7,267.8 547.8,265.3 548.0,262.9 548.2,260.4 548.5,258.0 548.8,255.5 549.1,253.1 549.5,250.7 550.0,248.3 550.5,245.9 551.1,243.5 551.7,241.1 552.4,238.7 553.1,236.4 553.9,234.1 554.7,231.7 555.5,229.4 556.4,227.2 557.4,224.9 558.4,222.7 559.5,220.4 560.6,218.2 561.7,216.1 562.9,213.9" fill="none" stroke="#0077B6" stroke-width="2.5" stroke-linecap="round"/>
<polyline points="562.9,213.9 560.3,214.7 557.7,215.4 555.1,216.0 552.4,216.6 549.8,217.2 547.1,217.7 544.5,218.1 541.8,218.5 539.1,218.9 536.4,219.2 533.7,219.5 531.0,219.7 528.3,219.8 525.6,219.9 522.9,220.0 520.2,220.0 517.5,220.0 514.8,219.9 512.1,219.7 509.4,219.5 506.7,219.3 504.0,219.0 501.3,218.6 498.7,218.2 496.0,217.8 493.3,217.3 490.7,216.8 488.1,216.2 485.4,215.5 482.8,214.8 480.2,214.1 477.6,213.3 475.1,212.5 472.5,211.6 470.0,210.7 467.4,209.7 464.9,208.7 462.4,207.6 460.0,206.5 457.5,205.3 455.1,204.1 452.7,202.9 450.3,201.6 448.0,200.2 445.7,198.9 443.4,197.4 441.1,196.0 438.8,194.5 436.6,192.9 434.4,191.3 432.3,189.7 430.2,188.0 428.1,186.3 426.0,184.6 424.0,182.8 422.0,181.0 420.0,179.1 418.1,177.2 416.2,175.3 414.3,173.3" fill="none" stroke="#0077B6" stroke-width="2.5" stroke-linecap="round"/>
<polyline points="354.7,507.9 356.5,507.9 358.4,507.9 360.2,508.0 362.0,508.1 363.8,508.2 365.6,508.3 367.4,508.5 369.2,508.7 371.0,508.9 372.8,509.1 374.6,509.4 376.4,509.7 378.2,510.0 380.0,510.4 381.8,510.7 383.5,511.1 385.3,511.6 387.1,512.0 388.8,512.5 390.6,513.0 392.3,513.5 394.0,514.0 395.8,514.6 397.5,515.2 399.2,515.8 400.9,516.5 402.6,517.1 404.3,517.8 405.9,518.5 407.6,519.3 409.2,520.0 410.9,520.8 412.5,521.6 414.1,522.4 415.7,523.3 417.3,524.2 418.9,525.1 420.5,526.0 422.0,526.9 423.5,527.9 425.1,528.9 426.6,529.9 428.1,530.9 429.6,532.0 431.0,533.0 432.5,534.1 433.9,535.2 435.3,536.4 436.7,537.5 438.1,538.7 439.5,539.9 440.9,541.1 442.2,542.3 443.5,543.6 444.8,544.8 446.1,546.1 447.4,547.4 448.6,548.7 449.8,550.1 451.0,551.4" fill="none" stroke="#2E7D32" stroke-width="2.5" stroke-linecap="round"/>
<circle cx="368.8" cy="124.1" r="3.5" fill="#d32f2f"/>
<text x="368.8" y="108.1" text-anchor="middle" font-family="Arial" font-size="10" font-weight="bold" fill="#d32f2f">P.O.B.</text>
<circle cx="145.9" cy="169.8" r="3.5" fill="#d32f2f"/>
<text x="135.9" y="161.8" text-anchor="end" font-family="Arial" font-size="10" font-weight="bold" fill="#d32f2f">P2</text>
<circle cx="145.9" cy="507.9" r="3.5" fill="#d32f2f"/>
<text x="135.9" y="514.9" text-anchor="end" font-family="Arial" font-size="10" font-weight="bold" fill="#d32f2f">P3</text>
<circle cx="354.7" cy="507.9" r="3.5" fill="#2E7D32"/>
<text x="354.7" y="495.9" text-anchor="middle" font-family="Arial" font-size="10" font-weight="bold" fill="#2E7D32">T3</text>
<circle cx="451.0" cy="551.4" r="3.5" fill="#2E7D32"/>
<text x="459.0" y="545.4" text-anchor="start" font-family="Arial" font-size="10" font-weight="bold" fill="#2E7D32">PX</text>
<circle cx="517.1" cy="507.9" r="3.5" fill="#d32f2f"/>
<text x="527.1" y="517.9" text-anchor="start" font-family="Arial" font-size="10" font-weight="bold" fill="#d32f2f">P4</text>
<circle cx="645.7" cy="423.1" r="3.5" fill="#d32f2f"/>
<text x="659.7" y="426.1" text-anchor="start" font-family="Arial" font-size="10" font-weight="bold" fill="#d32f2f">P5</text>
<circle cx="578.7" cy="350.8" r="3.5" fill="#0077B6"/>
<text x="588.7" y="346.8" text-anchor="start" font-family="Arial" font-size="10" font-weight="bold" fill="#0077B6">T1</text>
<circle cx="562.9" cy="213.9" r="3.5" fill="#0077B6"/>
<text x="570.9" y="205.9" text-anchor="start" font-family="Arial" font-size="10" font-weight="bold" fill="#0077B6">PA</text>
<circle cx="414.3" cy="173.3" r="3.5" fill="#0077B6"/>
<text x="404.3" y="169.3" text-anchor="end" font-family="Arial" font-size="10" font-weight="bold" fill="#0077B6">T2</text>
<g transform="translate(261.0,164.6) rotate(11.6)">
  <text x="0" y="-3" text-anchor="middle" font-family="Arial" font-size="8.5" fill="#1a237e">Brg 258° 25' 11.6"</text>
  <text x="0" y="8" text-anchor="middle" font-family="Arial" font-size="8.5" fill="#555">Dist 19' 6.2"</text>
</g>
<g transform="translate(163.9,338.8) rotate(-90.0)">
  <text x="0" y="-3" text-anchor="middle" font-family="Arial" font-size="8.5" fill="#1a237e">Brg 180° 00' 00.0"</text>
  <text x="0" y="8" text-anchor="middle" font-family="Arial" font-size="8.5" fill="#555">Dist 29' 0.0"</text>
</g>
<g transform="translate(250.3,525.9) rotate(-0.0)">
  <text x="0" y="-3" text-anchor="middle" font-family="Arial" font-size="8.5" fill="#1a237e">Brg 90° 00' 00.0"</text>
  <text x="0" y="8" text-anchor="middle" font-family="Arial" font-size="8.5" fill="#555">Dist 17' 10.9"</text>
</g>
<g transform="translate(475.3,516.3) rotate(33.4)">
  <text x="0" y="-3" text-anchor="middle" font-family="Arial" font-size="8.5" fill="#1a237e">Brg 56° 36' 31.0"</text>
  <text x="0" y="8" text-anchor="middle" font-family="Arial" font-size="8.5" fill="#555">Dist 6' 9.5"</text>
</g>
<g transform="translate(572.6,452.1) rotate(33.4)">
  <text x="0" y="-3" text-anchor="middle" font-family="Arial" font-size="8.5" fill="#1a237e">Brg 56° 36' 31.0"</text>
  <text x="0" y="8" text-anchor="middle" font-family="Arial" font-size="8.5" fill="#555">Dist 13' 2.5"</text>
</g>
<g transform="translate(623.9,376.1) rotate(-47.2)">
  <text x="0" y="-3" text-anchor="middle" font-family="Arial" font-size="8.5" fill="#1a237e">Brg 317° 11' 43.7"</text>
  <text x="0" y="8" text-anchor="middle" font-family="Arial" font-size="8.5" fill="#555">Dist 8' 5.5"</text>
</g>
<g transform="translate(403.3,137.8) rotate(-47.2)">
  <text x="0" y="-3" text-anchor="middle" font-family="Arial" font-size="8.5" fill="#1a237e">Brg 317° 11' 43.7"</text>
  <text x="0" y="8" text-anchor="middle" font-family="Arial" font-size="8.5" fill="#555">Dist 5' 9.0"</text>
</g>
<text x="528.4" y="284.9" text-anchor="end" font-family="Arial" font-size="8.5" fill="#0077B6">Arc 1: R=10'</text>
<text x="482.8" y="230.8" text-anchor="middle" font-family="Arial" font-size="8.5" fill="#0077B6">Arc 2: R=12' 6"</text>
<text x="419.6" y="523.3" text-anchor="start" font-family="Arial" font-size="8.5" fill="#2E7D32">Arc 3: R=11'</text>
</g>
<g opacity="0.2">
<polygon points="366.7,130.5 151.8,174.5 151.8,502.0 354.7,502.0 356.5,502.0 358.4,502.1 360.2,502.1 362.0,502.2 363.8,502.3 365.6,502.5 367.4,502.6 369.2,502.8 371.0,503.0 372.8,503.3 374.6,503.5 376.4,503.8 378.2,504.1 380.0,504.4 381.7,504.8 383.5,505.2 385.3,505.6 387.1,506.0 388.8,506.4 390.6,506.9 392.3,507.4 394.0,507.9 395.8,508.5 397.5,509.0 399.2,509.6 400.9,510.2 402.6,510.9 404.3,511.5 406.0,512.2 407.7,512.9 409.3,513.6 411.0,514.4 412.6,515.2 414.2,516.0 415.9,516.8 417.5,517.6 419.1,518.5 420.7,519.4 422.2,520.3 423.8,521.2 425.3,522.1 426.9,523.1 428.4,524.1 429.9,525.1 431.4,526.1 432.9,527.2 434.3,528.2 435.8,529.3 437.2,530.4 438.7,531.5 440.1,532.7 441.5,533.9 442.8,535.0 444.2,536.2 445.5,537.5 446.9,538.7 448.2,540.0 449.5,541.2 450.7,542.5 452.0,543.8 513.9,503.0 636.8,422.0 574.4,354.7 572.8,353.0 571.3,351.2 569.8,349.4 568.3,347.6 566.8,345.7 565.4,343.8 564.0,341.9 562.7,339.9 561.4,338.0 560.1,336.0 558.9,333.9 557.7,331.9 556.6,329.8 555.5,327.7 554.4,325.6 553.4,323.5 552.4,321.4 551.5,319.2 550.6,317.0 549.7,314.8 548.9,312.6 548.1,310.4 547.4,308.1 546.7,305.8 546.1,303.6 545.5,301.3 544.9,299.0 544.4,296.7 544.0,294.4 543.6,292.0 543.2,289.7 542.9,287.4 542.6,285.0 542.3,282.7 542.1,280.3 542.0,278.0 541.9,275.6 541.8,273.2 541.8,270.9 541.9,268.5 541.9,266.2 542.1,263.8 542.2,261.4 542.5,259.1 542.7,256.7 543.0,254.4 543.4,252.1 543.8,249.7 544.2,247.4 544.7,245.1 545.3,242.8 545.8,240.5 546.5,238.2 547.1,236.0 547.8,233.7 548.6,231.5 549.4,229.3 550.2,227.0 551.1,224.9 552.0,222.7 549.5,223.2 546.9,223.6 544.3,224.1 541.8,224.4 539.2,224.8 536.6,225.0 534.0,225.3 531.4,225.5 528.9,225.6 526.3,225.7 523.7,225.8 521.1,225.8 518.5,225.8 515.9,225.7 513.3,225.6 510.7,225.5 508.1,225.3 505.5,225.0 502.9,224.7 500.4,224.4 497.8,224.0 495.2,223.6 492.7,223.1 490.1,222.6 487.6,222.0 485.1,221.4 482.5,220.8 480.0,220.1 477.5,219.4 475.1,218.6 472.6,217.8 470.1,217.0 467.7,216.1 465.3,215.1 462.9,214.1 460.5,213.1 458.1,212.1 455.8,211.0 453.4,209.8 451.1,208.6 448.8,207.4 446.6,206.2 444.3,204.9 442.1,203.5 439.9,202.1 437.7,200.7 435.6,199.3 433.4,197.8 431.3,196.3 429.2,194.7 427.2,193.1 425.2,191.5 423.2,189.8 421.2,188.1 419.3,186.4 417.4,184.6 415.5,182.8 413.7,181.0 411.8,179.1 410.1,177.3" fill="rgba(255,152,0,0.3)" stroke="none"/>
<line x1="366.7" y1="130.5" x2="151.8" y2="174.5" stroke="#BF360C" stroke-width="1.5"/>
<line x1="151.8" y1="174.5" x2="151.8" y2="502.0" stroke="#BF360C" stroke-width="1.5"/>
<line x1="151.8" y1="502.0" x2="354.7" y2="502.0" stroke="#BF360C" stroke-width="1.5"/>
<line x1="452.0" y1="543.8" x2="513.9" y2="503.0" stroke="#BF360C" stroke-width="1.5"/>
<line x1="513.9" y1="503.0" x2="636.8" y2="422.0" stroke="#BF360C" stroke-width="1.5"/>
<line x1="636.8" y1="422.0" x2="574.4" y2="354.7" stroke="#BF360C" stroke-width="1.5"/>
<line x1="410.1" y1="177.3" x2="366.7" y2="130.5" stroke="#BF360C" stroke-width="1.5"/>
<polyline points="574.4,354.7 572.8,353.0 571.3,351.2 569.8,349.4 568.3,347.6 566.8,345.7 565.4,343.8 564.0,341.9 562.7,339.9 561.4,338.0 560.1,336.0 558.9,333.9 557.7,331.9 556.6,329.8 555.5,327.7 554.4,325.6 553.4,323.5 552.4,321.4 551.5,319.2 550.6,317.0 549.7,314.8 548.9,312.6 548.1,310.4 547.4,308.1 546.7,305.8 546.1,303.6 545.5,301.3 544.9,299.0 544.4,296.7 544.0,294.4 543.6,292.0 543.2,289.7 542.9,287.4 542.6,285.0 542.3,282.7 542.1,280.3 542.0,278.0 541.9,275.6 541.8,273.2 541.8,270.9 541.9,268.5 541.9,266.2 542.1,263.8 542.2,261.4 542.5,259.1 542.7,256.7 543.0,254.4 543.4,252.1 543.8,249.7 544.2,247.4 544.7,245.1 545.3,242.8 545.8,240.5 546.5,238.2 547.1,236.0 547.8,233.7 548.6,231.5 549.4,229.3 550.2,227.0 551.1,224.9 552.0,222.7" fill="none" stroke="#BF360C" stroke-width="1.5" stroke-linecap="round"/>
<polyline points="552.0,222.7 549.5,223.2 546.9,223.6 544.3,224.1 541.8,224.4 539.2,224.8 536.6,225.0 534.0,225.3 531.4,225.5 528.9,225.6 526.3,225.7 523.7,225.8 521.1,225.8 518.5,225.8 515.9,225.7 513.3,225.6 510.7,225.5 508.1,225.3 505.5,225.0 502.9,224.7 500.4,224.4 497.8,224.0 495.2,223.6 492.7,223.1 490.1,222.6 487.6,222.0 485.1,221.4 482.5,220.8 480.0,220.1 477.5,219.4 475.1,218.6 472.6,217.8 470.1,217.0 467.7,216.1 465.3,215.1 462.9,214.1 460.5,213.1 458.1,212.1 455.8,211.0 453.4,209.8 451.1,208.6 448.8,207.4 446.6,206.2 444.3,204.9 442.1,203.5 439.9,202.1 437.7,200.7 435.6,199.3 433.4,197.8 431.3,196.3 429.2,194.7 427.2,193.1 425.2,191.5 423.2,189.8 421.2,188.1 419.3,186.4 417.4,184.6 415.5,182.8 413.7,181.0 411.8,179.1 410.1,177.3" fill="none" stroke="#BF360C" stroke-width="1.5" stroke-linecap="round"/>
<polyline points="354.7,502.0 356.5,502.0 358.4,502.1 360.2,502.1 362.0,502.2 363.8,502.3 365.6,502.5 367.4,502.6 369.2,502.8 371.0,503.0 372.8,503.3 374.6,503.5 376.4,503.8 378.2,504.1 380.0,504.4 381.7,504.8 383.5,505.2 385.3,505.6 387.1,506.0 388.8,506.4 390.6,506.9 392.3,507.4 394.0,507.9 395.8,508.5 397.5,509.0 399.2,509.6 400.9,510.2 402.6,510.9 404.3,511.5 406.0,512.2 407.7,512.9 409.3,513.6 411.0,514.4 412.6,515.2 414.2,516.0 415.9,516.8 417.5,517.6 419.1,518.5 420.7,519.4 422.2,520.3 423.8,521.2 425.3,522.1 426.9,523.1 428.4,524.1 429.9,525.1 431.4,526.1 432.9,527.2 434.3,528.2 435.8,529.3 437.2,530.4 438.7,531.5 440.1,532.7 441.5,533.9 442.8,535.0 444.2,536.2 445.5,537.5 446.9,538.7 448.2,540.0 449.5,541.2 450.7,542.5 452.0,543.8" fill="none" stroke="#BF360C" stroke-width="1.5" stroke-linecap="round"/>
<circle cx="366.7" cy="130.5" r="2.5" fill="#BF360C"/>
<text x="366.7" y="144.5" text-anchor="middle" font-family="Arial" font-size="8.5" font-weight="bold" fill="#BF360C">PiOB</text>
<circle cx="151.8" cy="174.5" r="2.5" fill="#BF360C"/>
<text x="157.8" y="178.5" text-anchor="start" font-family="Arial" font-size="8.5" font-weight="bold" fill="#BF360C">Pi2</text>
<circle cx="151.8" cy="502.0" r="2.5" fill="#BF360C"/>
<text x="157.8" y="498.0" text-anchor="start" font-family="Arial" font-size="8.5" font-weight="bold" fill="#BF360C">Pi3</text>
<circle cx="354.7" cy="502.0" r="2.5" fill="#BF360C"/>
<text x="354.7" y="516.0" text-anchor="middle" font-family="Arial" font-size="8.5" font-weight="bold" fill="#BF360C">Ti3</text>
<circle cx="452.0" cy="543.8" r="2.5" fill="#BF360C"/>
<text x="444.0" y="537.8" text-anchor="end" font-family="Arial" font-size="8.5" font-weight="bold" fill="#BF360C">PiX</text>
<circle cx="513.9" cy="503.0" r="2.5" fill="#BF360C"/>
<text x="505.9" y="515.0" text-anchor="end" font-family="Arial" font-size="8.5" font-weight="bold" fill="#BF360C">Pi4</text>
<circle cx="636.8" cy="422.0" r="2.5" fill="#BF360C"/>
<text x="628.8" y="414.0" text-anchor="end" font-family="Arial" font-size="8.5" font-weight="bold" fill="#BF360C">Pi5</text>
<circle cx="574.4" cy="354.7" r="2.5" fill="#BF360C"/>
<text x="566.4" y="366.7" text-anchor="end" font-family="Arial" font-size="8.5" font-weight="bold" fill="#BF360C">Ti1</text>
<circle cx="552.0" cy="222.7" r="2.5" fill="#BF360C"/>
<text x="544.0" y="226.7" text-anchor="end" font-family="Arial" font-size="8.5" font-weight="bold" fill="#BF360C">Ai2</text>
<circle cx="410.1" cy="177.3" r="2.5" fill="#BF360C"/>
<text x="418.1" y="189.3" text-anchor="start" font-family="Arial" font-size="8.5" font-weight="bold" fill="#BF360C">Ti2</text>
</g>
<polygon points="163.4,228.1 163.4,266.9 163.4,267.6 163.4,268.3 163.3,269.0 163.2,269.7 163.1,270.4 163.0,271.1 162.8,271.8 162.6,272.5 162.4,273.1 162.2,273.8 161.9,274.5 161.6,275.1 161.3,275.7 161.0,276.3 160.6,277.0 160.3,277.6 159.9,278.1 159.4,278.7 159.0,279.2 158.6,279.8 157.9,280.5 157.3,281.3 156.7,282.1 156.2,282.9 155.7,283.7 155.2,284.6 154.7,285.5 154.3,286.3 153.9,287.2 153.5,288.2 153.2,289.1 152.9,290.0 152.6,291.0 152.4,291.9 152.2,292.9 152.0,293.9 151.9,294.8 151.8,295.8 151.8,296.8 151.8,297.8 151.8,492.3 151.8,493.1 151.9,493.8 152.0,494.6 152.2,495.3 152.5,496.0 152.8,496.7 153.2,497.4 153.6,498.0 154.1,498.6 154.6,499.2 155.2,499.7 155.8,500.2 156.4,500.6 157.1,501.0 157.8,501.3 158.5,501.6 159.2,501.8 159.9,501.9 160.7,502.0 161.5,502.0 367.7,502.0 367.9,502.0 368.1,502.0 368.4,502.0 368.6,502.1 368.8,502.1 369.1,502.1 369.3,502.1 369.5,502.1 369.8,502.1 370.0,502.2 370.2,502.2 370.5,502.2 370.7,502.3 370.9,502.3 371.2,502.3 371.4,502.4 371.6,502.4 371.8,502.5 372.1,502.5 372.3,502.6 372.5,502.6 372.8,502.7 373.0,502.8 373.2,502.8 373.4,502.9 373.6,503.0 373.9,503.0 374.1,503.1 374.3,503.2 374.5,503.3 374.7,503.4 375.0,503.5 375.2,503.5 375.4,503.6 375.6,503.7 375.8,503.8 376.0,503.9 376.2,504.0 376.5,504.1 376.7,504.2 376.9,504.3 377.1,504.5 377.3,504.6 377.5,504.7 377.7,504.8 377.9,504.9 378.1,505.1 378.3,505.2 378.5,505.3 378.7,505.4 378.9,505.6 379.1,505.7 379.2,505.9 379.4,506.0 379.6,506.1 379.8,506.3 380.0,506.4 380.2,506.6 380.3,506.7 380.5,506.9 380.8,507.1 381.0,507.3 381.3,507.5 381.5,507.7 381.8,507.9 382.0,508.1 382.3,508.3 382.6,508.5 382.8,508.7 383.1,508.9 383.4,509.1 383.6,509.3 383.9,509.4 384.2,509.6 384.5,509.8 384.8,510.0 385.0,510.1 385.3,510.3 385.6,510.4 385.9,510.6 386.2,510.7 386.5,510.9 386.8,511.0 387.1,511.2 387.4,511.3 387.7,511.4 388.0,511.6 388.3,511.7 388.6,511.8 388.9,511.9 389.2,512.0 389.5,512.2 389.8,512.3 390.1,512.4 390.4,512.5 390.8,512.6 391.1,512.6 391.4,512.7 391.7,512.8 392.0,512.9 392.3,513.0 392.7,513.0 393.0,513.1 393.3,513.2 393.6,513.2 393.9,513.3 394.3,513.4 394.6,513.4 394.9,513.4 395.2,513.5 395.6,513.5 395.9,513.6 396.2,513.6 396.5,513.6 396.9,513.6 397.2,513.7 397.5,513.7 397.8,513.7 398.2,513.7 398.5,513.7 481.7,513.7 482.4,513.7 483.1,513.6 483.8,513.6 484.6,513.5 485.3,513.5 486.0,513.4 486.7,513.2 487.4,513.1 488.1,512.9 488.8,512.8 489.4,512.6 490.1,512.4 490.8,512.1 491.5,511.9 492.1,511.6 492.8,511.3 493.4,511.0 494.1,510.7 494.7,510.4 495.3,510.0 559.2,473.2 560.3,472.4 561.4,471.6 562.4,470.7 563.4,469.8 564.3,468.8 565.2,467.8 566.0,466.7 566.8,465.6 567.5,464.5 568.2,463.3 568.8,462.1 569.3,460.9 569.8,459.7 570.2,458.4 570.6,457.1 570.9,455.8 571.1,454.5 571.3,453.1 571.4,451.8 571.4,450.4 571.4,352.4 571.4,352.1 571.4,351.7 571.4,351.3 571.4,351.0 571.4,350.6 571.4,350.3 571.4,349.9 571.4,349.5 571.4,349.2 571.3,348.8 571.3,348.5 571.3,348.1 571.3,347.7 571.3,347.4 571.2,347.0 571.2,346.7 571.2,346.3 571.2,345.9 571.1,345.6 571.1,345.2 571.1,344.9 571.0,344.5 571.0,344.1 571.0,343.8 570.9,343.4 570.9,343.1 570.9,342.7 570.8,342.4 570.8,342.0 570.7,341.6 570.7,341.3 570.6,340.9 570.6,340.6 570.5,340.2 570.5,339.9 570.4,339.5 570.4,339.1 570.3,338.8 570.2,338.4 570.2,338.1 570.1,337.7 570.0,337.4 570.0,337.0 569.9,336.7 569.8,336.3 569.8,336.0 569.7,335.6 569.6,335.3 569.5,334.9 569.5,334.5 569.4,334.2 569.3,333.8 569.2,333.5 569.1,333.1 569.1,332.8 569.0,332.4 568.9,332.1 568.8,331.7 568.7,331.4 568.6,331.1 539.1,221.0 538.8,219.8 538.3,218.5 537.9,217.3 537.3,216.2 536.7,215.0 536.1,213.9 535.3,212.8 534.6,211.7 533.8,210.7 532.9,209.7 532.0,208.8 531.1,207.9 530.1,207.0 529.0,206.2 528.0,205.5 526.9,204.8 525.7,204.1 524.6,203.5 523.4,203.0 522.2,202.5 520.9,202.1 519.7,201.7 518.4,201.4 517.1,201.2 515.8,201.0 514.5,200.9 513.2,200.9 511.9,200.9 510.6,201.0 509.3,201.1 508.0,201.3 506.7,201.6 505.5,201.9 504.2,202.3 503.0,202.7 501.8,203.2 500.6,203.8 499.5,204.4 498.3,205.1 497.3,205.8 496.2,206.6 495.2,207.4 494.2,208.3 493.3,209.2 492.4,210.1 491.6,211.1 490.8,212.2 490.0,213.3 489.4,214.4 488.7,215.5 488.2,216.7 487.6,217.9 487.2,219.1 486.8,220.3 486.4,221.6 486.2,222.9 485.9,224.2 485.8,225.5 485.7,226.8 485.7,228.1 485.7,228.2 485.6,228.4 485.6,228.5 485.6,228.7 485.5,228.8 485.4,229.0 485.4,229.1 485.3,229.2 485.2,229.3 485.1,229.4 485.0,229.6 484.9,229.6 484.7,229.7 484.6,229.8 484.5,229.9 484.3,229.9 484.2,230.0 484.0,230.0 483.9,230.0 483.7,230.0 278.0,230.0 277.9,230.0 277.7,230.0 277.6,230.0 277.4,229.9 277.3,229.9 277.2,229.8 277.0,229.7 276.9,229.6 276.8,229.6 276.7,229.4 276.6,229.3 276.5,229.2 276.4,229.1 276.3,229.0 276.2,228.8 276.2,228.7 276.2,228.5 276.1,228.4 276.1,228.2 276.1,228.1 276.0,225.9 275.8,223.8 275.3,221.7 274.8,219.7 274.0,217.7 273.1,215.7 272.1,213.9 270.9,212.1 269.6,210.4 268.1,208.8 266.6,207.4 264.9,206.1 263.1,204.9 261.2,203.8 259.3,202.9 257.3,202.2 255.2,201.6 253.2,201.2 251.0,201.0 248.9,200.9 190.6,200.9 188.5,201.0 186.4,201.2 184.3,201.6 182.2,202.2 180.2,202.9 178.3,203.8 176.4,204.9 174.6,206.1 172.9,207.4 171.4,208.8 169.9,210.4 168.6,212.1 167.4,213.9 166.4,215.7 165.5,217.7 164.7,219.7 164.2,221.7 163.7,223.8 163.5,225.9" fill="rgba(200,230,255,0.25)" stroke="none"/>
<line x1="163.4" y1="228.1" x2="163.4" y2="266.9" stroke="#333" stroke-width="2.0"/>
<line x1="151.8" y1="297.8" x2="151.8" y2="492.3" stroke="#333" stroke-width="2.0"/>
<line x1="161.5" y1="502.0" x2="367.7" y2="502.0" stroke="#333" stroke-width="2.0"/>
<line x1="398.5" y1="513.7" x2="481.7" y2="513.7" stroke="#333" stroke-width="2.0"/>
<line x1="495.3" y1="510.0" x2="559.2" y2="473.2" stroke="#333" stroke-width="2.0"/>
<line x1="571.4" y1="450.4" x2="571.4" y2="352.4" stroke="#333" stroke-width="2.0"/>
<line x1="568.6" y1="331.1" x2="539.1" y2="221.0" stroke="#333" stroke-width="2.0"/>
<line x1="483.7" y1="230.0" x2="278.0" y2="230.0" stroke="#333" stroke-width="2.0"/>
<line x1="248.9" y1="200.9" x2="190.6" y2="200.9" stroke="#333" stroke-width="2.0"/>
<polyline points="163.4,266.9 163.4,267.6 163.4,268.3 163.3,269.0 163.2,269.7 163.1,270.4 163.0,271.1 162.8,271.8 162.6,272.5 162.4,273.1 162.2,273.8 161.9,274.5 161.6,275.1 161.3,275.7 161.0,276.3 160.6,277.0 160.3,277.6 159.9,278.1 159.4,278.7 159.0,279.2 158.6,279.8" fill="none" stroke="#333" stroke-width="2.0" stroke-linecap="round"/>
<polyline points="158.6,279.8 157.9,280.5 157.3,281.3 156.7,282.1 156.2,282.9 155.7,283.7 155.2,284.6 154.7,285.5 154.3,286.3 153.9,287.2 153.5,288.2 153.2,289.1 152.9,290.0 152.6,291.0 152.4,291.9 152.2,292.9 152.0,293.9 151.9,294.8 151.8,295.8 151.8,296.8 151.8,297.8" fill="none" stroke="#333" stroke-width="2.0" stroke-linecap="round"/>
<polyline points="571.4,352.4 571.4,352.1 571.4,351.7 571.4,351.3 571.4,351.0 571.4,350.6 571.4,350.3 571.4,349.9 571.4,349.5 571.4,349.2 571.3,348.8 571.3,348.5 571.3,348.1 571.3,347.7 571.3,347.4 571.2,347.0 571.2,346.7 571.2,346.3 571.2,345.9 571.1,345.6 571.1,345.2 571.1,344.9 571.0,344.5 571.0,344.1 571.0,343.8 570.9,343.4 570.9,343.1 570.9,342.7 570.8,342.4 570.8,342.0 570.7,341.6 570.7,341.3 570.6,340.9 570.6,340.6 570.5,340.2 570.5,339.9 570.4,339.5 570.4,339.1 570.3,338.8 570.2,338.4 570.2,338.1 570.1,337.7 570.0,337.4 570.0,337.0 569.9,336.7 569.8,336.3 569.8,336.0 569.7,335.6 569.6,335.3 569.5,334.9 569.5,334.5 569.4,334.2 569.3,333.8 569.2,333.5 569.1,333.1 569.1,332.8 569.0,332.4 568.9,332.1 568.8,331.7 568.7,331.4 568.6,331.1" fill="none" stroke="#333" stroke-width="2.0" stroke-linecap="round"/>
<polyline points="367.7,502.0 367.9,502.0 368.1,502.0 368.4,502.0 368.6,502.1 368.8,502.1 369.1,502.1 369.3,502.1 369.5,502.1 369.8,502.1 370.0,502.2 370.2,502.2 370.5,502.2 370.7,502.3 370.9,502.3 371.2,502.3 371.4,502.4 371.6,502.4 371.8,502.5 372.1,502.5 372.3,502.6 372.5,502.6 372.8,502.7 373.0,502.8 373.2,502.8 373.4,502.9 373.6,503.0 373.9,503.0 374.1,503.1 374.3,503.2 374.5,503.3 374.7,503.4 375.0,503.5 375.2,503.5 375.4,503.6 375.6,503.7 375.8,503.8 376.0,503.9 376.2,504.0 376.5,504.1 376.7,504.2 376.9,504.3 377.1,504.5 377.3,504.6 377.5,504.7 377.7,504.8 377.9,504.9 378.1,505.1 378.3,505.2 378.5,505.3 378.7,505.4 378.9,505.6 379.1,505.7 379.2,505.9 379.4,506.0 379.6,506.1 379.8,506.3 380.0,506.4 380.2,506.6 380.3,506.7 380.5,506.9" fill="none" stroke="#2E7D32" stroke-width="2.5" stroke-linecap="round"/>
<polyline points="380.5,506.9 380.8,507.1 381.0,507.3 381.3,507.5 381.5,507.7 381.8,507.9 382.0,508.1 382.3,508.3 382.6,508.5 382.8,508.7 383.1,508.9 383.4,509.1 383.6,509.3 383.9,509.4 384.2,509.6 384.5,509.8 384.8,510.0 385.0,510.1 385.3,510.3 385.6,510.4 385.9,510.6 386.2,510.7 386.5,510.9 386.8,511.0 387.1,511.2 387.4,511.3 387.7,511.4 388.0,511.6 388.3,511.7 388.6,511.8 388.9,511.9 389.2,512.0 389.5,512.2 389.8,512.3 390.1,512.4 390.4,512.5 390.8,512.6 391.1,512.6 391.4,512.7 391.7,512.8 392.0,512.9 392.3,513.0 392.7,513.0 393.0,513.1 393.3,513.2 393.6,513.2 393.9,513.3 394.3,513.4 394.6,513.4 394.9,513.4 395.2,513.5 395.6,513.5 395.9,513.6 396.2,513.6 396.5,513.6 396.9,513.6 397.2,513.7 397.5,513.7 397.8,513.7 398.2,513.7 398.5,513.7" fill="none" stroke="#2E7D32" stroke-width="2.5" stroke-linecap="round"/>
<polyline points="481.7,513.7 482.4,513.7 483.1,513.6 483.8,513.6 484.6,513.5 485.3,513.5 486.0,513.4 486.7,513.2 487.4,513.1 488.1,512.9 488.8,512.8 489.4,512.6 490.1,512.4 490.8,512.1 491.5,511.9 492.1,511.6 492.8,511.3 493.4,511.0 494.1,510.7 494.7,510.4 495.3,510.0" fill="none" stroke="#2E7D32" stroke-width="2.5" stroke-linecap="round"/>
<polyline points="559.2,473.2 560.3,472.4 561.4,471.6 562.4,470.7 563.4,469.8 564.3,468.8 565.2,467.8 566.0,466.7 566.8,465.6 567.5,464.5 568.2,463.3 568.8,462.1 569.3,460.9 569.8,459.7 570.2,458.4 570.6,457.1 570.9,455.8 571.1,454.5 571.3,453.1 571.4,451.8 571.4,450.4" fill="none" stroke="#333" stroke-width="2.0" stroke-linecap="round"/>
<polyline points="151.8,492.3 151.8,493.1 151.9,493.8 152.0,494.6 152.2,495.3 152.5,496.0 152.8,496.7 153.2,497.4 153.6,498.0 154.1,498.6 154.6,499.2 155.2,499.7 155.8,500.2 156.4,500.6 157.1,501.0 157.8,501.3 158.5,501.6 159.2,501.8 159.9,501.9 160.7,502.0 161.5,502.0" fill="none" stroke="#333" stroke-width="2.0" stroke-linecap="round"/>
<polyline points="190.6,200.9 188.5,201.0 186.4,201.2 184.3,201.6 182.2,202.2 180.2,202.9 178.3,203.8 176.4,204.9 174.6,206.1 172.9,207.4 171.4,208.8 169.9,210.4 168.6,212.1 167.4,213.9 166.4,215.7 165.5,217.7 164.7,219.7 164.2,221.7 163.7,223.8 163.5,225.9 163.4,228.1" fill="none" stroke="#333" stroke-width="2.0" stroke-linecap="round"/>
<polyline points="278.0,230.0 277.9,230.0 277.7,230.0 277.6,230.0 277.4,229.9 277.3,229.9 277.2,229.8 277.0,229.7 276.9,229.6 276.8,229.6 276.7,229.4 276.6,229.3 276.5,229.2 276.4,229.1 276.3,229.0 276.2,228.8 276.2,228.7 276.2,228.5 276.1,228.4 276.1,228.2 276.1,228.1" fill="none" stroke="#333" stroke-width="2.0" stroke-linecap="round"/>
<polyline points="276.1,228.1 276.0,225.9 275.8,223.8 275.3,221.7 274.8,219.7 274.0,217.7 273.1,215.7 272.1,213.9 270.9,212.1 269.6,210.4 268.1,208.8 266.6,207.4 264.9,206.1 263.1,204.9 261.2,203.8 259.3,202.9 257.3,202.2 255.2,201.6 253.2,201.2 251.0,201.0 248.9,200.9" fill="none" stroke="#333" stroke-width="2.0" stroke-linecap="round"/>
<polyline points="539.1,221.0 538.8,219.8 538.3,218.5 537.9,217.3 537.3,216.2 536.7,215.0 536.1,213.9 535.3,212.8 534.6,211.7 533.8,210.7 532.9,209.7 532.0,208.8 531.1,207.9 530.1,207.0 529.0,206.2 528.0,205.5 526.9,204.8 525.7,204.1 524.6,203.5 523.4,203.0 522.2,202.5 520.9,202.1 519.7,201.7 518.4,201.4 517.1,201.2 515.8,201.0 514.5,200.9 513.2,200.9 511.9,200.9 510.6,201.0 509.3,201.1 508.0,201.3 506.7,201.6 505.5,201.9 504.2,202.3 503.0,202.7 501.8,203.2 500.6,203.8 499.5,204.4 498.3,205.1 497.3,205.8 496.2,206.6 495.2,207.4 494.2,208.3 493.3,209.2 492.4,210.1 491.6,211.1 490.8,212.2 490.0,213.3 489.4,214.4 488.7,215.5 488.2,216.7 487.6,217.9 487.2,219.1 486.8,220.3 486.4,221.6 486.2,222.9 485.9,224.2 485.8,225.5 485.7,226.8 485.7,228.1" fill="none" stroke="#333" stroke-width="2.0" stroke-linecap="round"/>
<polyline points="485.7,228.1 485.7,228.2 485.6,228.4 485.6,228.5 485.6,228.7 485.5,228.8 485.4,229.0 485.4,229.1 485.3,229.2 485.2,229.3 485.1,229.4 485.0,229.6 484.9,229.6 484.7,229.7 484.6,229.8 484.5,229.9 484.3,229.9 484.2,230.0 484.0,230.0 483.9,230.0 483.7,230.0" fill="none" stroke="#333" stroke-width="2.0" stroke-linecap="round"/>
<g clip-path="url(#page)">
<line x1="144.0" y1="266.9" x2="163.4" y2="266.9" stroke="#333" stroke-width="0.6" stroke-dasharray="4,3"/>
<line x1="140.0" y1="266.9" x2="148.0" y2="266.9" stroke="#333" stroke-width="0.7"/>
<line x1="144.0" y1="262.9" x2="144.0" y2="270.9" stroke="#333" stroke-width="0.7"/>
<line x1="179.0" y1="297.8" x2="151.8" y2="297.8" stroke="#333" stroke-width="0.6" stroke-dasharray="4,3"/>
<line x1="175.0" y1="297.8" x2="183.0" y2="297.8" stroke="#333" stroke-width="0.7"/>
<line x1="179.0" y1="293.8" x2="179.0" y2="301.8" stroke="#333" stroke-width="0.7"/>
<line x1="367.7" y1="521.5" x2="367.7" y2="502.0" stroke="#2E7D32" stroke-width="0.6" stroke-dasharray="4,3"/>
<line x1="363.7" y1="521.5" x2="371.7" y2="521.5" stroke="#2E7D32" stroke-width="0.7"/>
<line x1="367.7" y1="517.5" x2="367.7" y2="525.5" stroke="#2E7D32" stroke-width="0.7"/>
<line x1="161.5" y1="492.3" x2="151.8" y2="492.3" stroke="#333" stroke-width="0.6" stroke-dasharray="4,3"/>
<line x1="157.5" y1="492.3" x2="165.5" y2="492.3" stroke="#333" stroke-width="0.7"/>
<line x1="161.5" y1="488.3" x2="161.5" y2="496.3" stroke="#333" stroke-width="0.7"/>
<line x1="190.6" y1="228.1" x2="190.6" y2="200.9" stroke="#333" stroke-width="0.6" stroke-dasharray="4,3"/>
<line x1="186.6" y1="228.1" x2="194.6" y2="228.1" stroke="#333" stroke-width="0.7"/>
<line x1="190.6" y1="224.1" x2="190.6" y2="232.1" stroke="#333" stroke-width="0.7"/>
<line x1="398.5" y1="486.5" x2="380.5" y2="506.9" stroke="#2E7D32" stroke-width="0.6" stroke-dasharray="4,3"/>
<line x1="394.5" y1="486.5" x2="402.5" y2="486.5" stroke="#2E7D32" stroke-width="0.7"/>
<line x1="398.5" y1="482.5" x2="398.5" y2="490.5" stroke="#2E7D32" stroke-width="0.7"/>
<line x1="481.7" y1="486.5" x2="481.7" y2="513.7" stroke="#2E7D32" stroke-width="0.6" stroke-dasharray="4,3"/>
<line x1="477.7" y1="486.5" x2="485.7" y2="486.5" stroke="#2E7D32" stroke-width="0.7"/>
<line x1="481.7" y1="482.5" x2="481.7" y2="490.5" stroke="#2E7D32" stroke-width="0.7"/>
<line x1="544.2" y1="450.4" x2="559.2" y2="473.2" stroke="#333" stroke-width="0.6" stroke-dasharray="4,3"/>
<line x1="540.2" y1="450.4" x2="548.2" y2="450.4" stroke="#333" stroke-width="0.7"/>
<line x1="544.2" y1="446.4" x2="544.2" y2="454.4" stroke="#333" stroke-width="0.7"/>
<line x1="248.9" y1="228.1" x2="248.9" y2="200.9" stroke="#333" stroke-width="0.6" stroke-dasharray="4,3"/>
<line x1="244.9" y1="228.1" x2="252.9" y2="228.1" stroke="#333" stroke-width="0.7"/>
<line x1="248.9" y1="224.1" x2="248.9" y2="232.1" stroke="#333" stroke-width="0.7"/>
<line x1="278.0" y1="228.1" x2="276.1" y2="228.1" stroke="#333" stroke-width="0.6" stroke-dasharray="4,3"/>
<line x1="274.0" y1="228.1" x2="282.0" y2="228.1" stroke="#333" stroke-width="0.7"/>
<line x1="278.0" y1="224.1" x2="278.0" y2="232.1" stroke="#333" stroke-width="0.7"/>
<line x1="512.9" y1="228.1" x2="485.7" y2="228.1" stroke="#333" stroke-width="0.6" stroke-dasharray="4,3"/>
<line x1="508.9" y1="228.1" x2="516.9" y2="228.1" stroke="#333" stroke-width="0.7"/>
<line x1="512.9" y1="224.1" x2="512.9" y2="232.1" stroke="#333" stroke-width="0.7"/>
<line x1="483.7" y1="228.1" x2="483.7" y2="230.0" stroke="#333" stroke-width="0.6" stroke-dasharray="4,3"/>
<line x1="479.7" y1="228.1" x2="487.7" y2="228.1" stroke="#333" stroke-width="0.7"/>
<line x1="483.7" y1="224.1" x2="483.7" y2="232.1" stroke="#333" stroke-width="0.7"/>
<line x1="488.8" y1="352.4" x2="571.4" y2="352.4" stroke="#333" stroke-width="0.6" stroke-dasharray="4,3"/>
<line x1="484.8" y1="352.4" x2="492.8" y2="352.4" stroke="#333" stroke-width="0.7"/>
<line x1="488.8" y1="348.4" x2="488.8" y2="356.4" stroke="#333" stroke-width="0.7"/>
</g>
<circle cx="163.4" cy="228.1" r="3.5" fill="#d32f2f"/>
<text x="155.4" y="222.1" text-anchor="end" font-family="Arial" font-size="10" font-weight="bold" fill="#d32f2f">O2</text>
<circle cx="163.4" cy="266.9" r="3.5" fill="#d32f2f"/>
<text x="155.4" y="262.9" text-anchor="end" font-family="Arial" font-size="10" font-weight="bold" fill="#d32f2f">O1c</text>
<circle cx="158.6" cy="279.8" r="3.5" fill="#d32f2f"/>
<text x="148.6" y="289.8" text-anchor="end" font-family="Arial" font-size="10" font-weight="bold" fill="#d32f2f">O1b</text>
<circle cx="151.8" cy="297.8" r="3.5" fill="#d32f2f"/>
<text x="143.8" y="293.8" text-anchor="end" font-family="Arial" font-size="10" font-weight="bold" fill="#d32f2f">O1a</text>
<circle cx="151.8" cy="492.3" r="3.5" fill="#d32f2f"/>
<text x="143.8" y="488.3" text-anchor="end" font-family="Arial" font-size="10" font-weight="bold" fill="#d32f2f">O1</text>
<circle cx="161.5" cy="502.0" r="3.5" fill="#d32f2f"/>
<text x="153.5" y="512.0" text-anchor="end" font-family="Arial" font-size="10" font-weight="bold" fill="#d32f2f">O0</text>
<circle cx="367.7" cy="502.0" r="3.5" fill="#2E7D32"/>
<text x="367.7" y="490.0" text-anchor="middle" font-family="Arial" font-size="10" font-weight="bold" fill="#2E7D32">O15</text>
<circle cx="380.5" cy="506.9" r="3.5" fill="#2E7D32"/>
<text x="388.5" y="500.9" text-anchor="start" font-family="Arial" font-size="10" font-weight="bold" fill="#2E7D32">O14</text>
<circle cx="398.5" cy="513.7" r="3.5" fill="#2E7D32"/>
<text x="406.5" y="525.7" text-anchor="start" font-family="Arial" font-size="10" font-weight="bold" fill="#2E7D32">O13b</text>
<circle cx="481.7" cy="513.7" r="3.5" fill="#2E7D32"/>
<text x="489.7" y="525.7" text-anchor="start" font-family="Arial" font-size="10" font-weight="bold" fill="#2E7D32">O13a</text>
<circle cx="495.3" cy="510.0" r="3.5" fill="#2E7D32"/>
<text x="505.3" y="520.0" text-anchor="start" font-family="Arial" font-size="10" font-weight="bold" fill="#2E7D32">O13</text>
<circle cx="559.2" cy="473.2" r="3.5" fill="#d32f2f"/>
<text x="567.2" y="477.2" text-anchor="start" font-family="Arial" font-size="10" font-weight="bold" fill="#d32f2f">O12</text>
<circle cx="571.4" cy="450.4" r="3.5" fill="#d32f2f"/>
<text x="579.4" y="454.4" text-anchor="start" font-family="Arial" font-size="10" font-weight="bold" fill="#d32f2f">O11</text>
<circle cx="571.4" cy="352.4" r="3.5" fill="#d32f2f"/>
<text x="581.4" y="348.4" text-anchor="start" font-family="Arial" font-size="10" font-weight="bold" fill="#d32f2f">O10a</text>
<circle cx="568.6" cy="331.1" r="3.5" fill="#d32f2f"/>
<text x="576.6" y="339.1" text-anchor="start" font-family="Arial" font-size="10" font-weight="bold" fill="#d32f2f">O9</text>
<circle cx="539.1" cy="221.0" r="3.5" fill="#d32f2f"/>
<text x="547.1" y="233.0" text-anchor="start" font-family="Arial" font-size="10" font-weight="bold" fill="#d32f2f">O8</text>
<circle cx="485.7" cy="228.1" r="3.5" fill="#d32f2f"/>
<text x="493.7" y="240.1" text-anchor="start" font-family="Arial" font-size="10" font-weight="bold" fill="#d32f2f">O7</text>
<circle cx="483.7" cy="230.0" r="3.5" fill="#d32f2f"/>
<text x="475.7" y="224.0" text-anchor="end" font-family="Arial" font-size="10" font-weight="bold" fill="#d32f2f">O6a</text>
<circle cx="278.0" cy="230.0" r="3.5" fill="#d32f2f"/>
<text x="278.0" y="244.0" text-anchor="middle" font-family="Arial" font-size="10" font-weight="bold" fill="#d32f2f">O6</text>
<circle cx="276.1" cy="228.1" r="3.5" fill="#d32f2f"/>
<text x="268.1" y="224.1" text-anchor="end" font-family="Arial" font-size="10" font-weight="bold" fill="#d32f2f">O5</text>
<circle cx="248.9" cy="200.9" r="3.5" fill="#d32f2f"/>
<text x="248.9" y="188.9" text-anchor="middle" font-family="Arial" font-size="10" font-weight="bold" fill="#d32f2f">O4</text>
<circle cx="190.6" cy="200.9" r="3.5" fill="#d32f2f"/>
<text x="180.6" y="194.9" text-anchor="end" font-family="Arial" font-size="10" font-weight="bold" fill="#d32f2f">O3</text>
<g transform="translate(181.4,247.5) rotate(-90.0)">
  <text x="0" y="-3" text-anchor="middle" font-family="Arial" font-size="8.5" fill="#1a237e">180.00°</text>
  <text x="0" y="8" text-anchor="middle" font-family="Arial" font-size="8.5" fill="#555">3' 4.0"</text>
</g>
<g transform="translate(169.8,395.0) rotate(-90.0)">
  <text x="0" y="-3" text-anchor="middle" font-family="Arial" font-size="8.5" fill="#1a237e">180.00°</text>
  <text x="0" y="8" text-anchor="middle" font-family="Arial" font-size="8.5" fill="#555">16' 8.3"</text>
</g>
<g transform="translate(264.6,520.0) rotate(0.0)">
  <text x="0" y="-3" text-anchor="middle" font-family="Arial" font-size="8.5" fill="#1a237e">90.00°</text>
  <text x="0" y="8" text-anchor="middle" font-family="Arial" font-size="8.5" fill="#555">17' 8.3"</text>
</g>
<g transform="translate(440.1,529.7) rotate(-0.0)">
  <text x="0" y="-3" text-anchor="middle" font-family="Arial" font-size="8.5" fill="#1a237e">90.00°</text>
  <text x="0" y="8" text-anchor="middle" font-family="Arial" font-size="8.5" fill="#555">7' 1.7"</text>
</g>
<g transform="translate(519.3,477.7) rotate(30.0)">
  <text x="0" y="-3" text-anchor="middle" font-family="Arial" font-size="8.5" fill="#1a237e">60.00°</text>
  <text x="0" y="8" text-anchor="middle" font-family="Arial" font-size="8.5" fill="#555">6' 3.9"</text>
</g>
<g transform="translate(587.4,401.4) rotate(90.0)">
  <text x="0" y="-3" text-anchor="middle" font-family="Arial" font-size="8.5" fill="#1a237e">0.00°</text>
  <text x="0" y="8" text-anchor="middle" font-family="Arial" font-size="8.5" fill="#555">8' 4.9"</text>
</g>
<g transform="translate(569.3,271.9) rotate(-75.0)">
  <text x="0" y="-3" text-anchor="middle" font-family="Arial" font-size="8.5" fill="#1a237e">345.00°</text>
  <text x="0" y="8" text-anchor="middle" font-family="Arial" font-size="8.5" fill="#555">9' 9.2"</text>
</g>
<g transform="translate(380.9,214.0) rotate(0.0)">
  <text x="0" y="-3" text-anchor="middle" font-family="Arial" font-size="8.5" fill="#1a237e">270.00°</text>
  <text x="0" y="8" text-anchor="middle" font-family="Arial" font-size="8.5" fill="#555">17' 7.7"</text>
</g>
<g transform="translate(219.8,184.9) rotate(0.0)">
  <text x="0" y="-3" text-anchor="middle" font-family="Arial" font-size="8.5" fill="#1a237e">270.00°</text>
  <text x="0" y="8" text-anchor="middle" font-family="Arial" font-size="8.5" fill="#555">5' 0.0"</text>
</g>
<text x="521.3" y="201.1" text-anchor="start" font-family="Arial" font-size="8.5" fill="#333">Turn R=28"</text>
<text x="521.3" y="212.1" text-anchor="start" font-family="Arial" font-size="8.5" fill="#333">165.0° CCW</text>
<text x="475.1" y="219.4" text-anchor="end" font-family="Arial" font-size="8.5" fill="#333">Fillet R=2"</text>
<text x="475.1" y="230.4" text-anchor="end" font-family="Arial" font-size="8.5" fill="#333">90.0°</text>
<text x="386.5" y="507.3" text-anchor="start" font-family="Arial" font-size="8.5" fill="#2E7D32">Wall R=20"</text>
<text x="386.5" y="518.3" text-anchor="start" font-family="Arial" font-size="8.5" fill="#2E7D32">41.4° CW</text>
<text x="400.9" y="501.9" text-anchor="start" font-family="Arial" font-size="8.5" fill="#2E7D32">Wall R=28"</text>
<text x="400.9" y="512.9" text-anchor="start" font-family="Arial" font-size="8.5" fill="#2E7D32">41.4°</text>
<text x="478.8" y="502.8" text-anchor="end" font-family="Arial" font-size="8.5" fill="#2E7D32">Wall R=28"</text>
<text x="478.8" y="513.8" text-anchor="end" font-family="Arial" font-size="8.5" fill="#2E7D32">30.0°</text>
<text x="582.7" y="341.6" text-anchor="start" font-family="Arial" font-size="8.5" fill="#333">Turn R=85"</text>
<text x="582.7" y="352.6" text-anchor="start" font-family="Arial" font-size="8.5" fill="#333">15.0°</text>
<text x="578.2" y="453.3" text-anchor="start" font-family="Arial" font-size="8.5" fill="#333">Fillet R=28"</text>
<text x="578.2" y="464.3" text-anchor="start" font-family="Arial" font-size="8.5" fill="#333">56.6°</text>
<text x="152.2" y="263.8" text-anchor="end" font-family="Arial" font-size="8.5" fill="#333">Arc R=20"</text>
<text x="152.2" y="274.8" text-anchor="end" font-family="Arial" font-size="8.5" fill="#333">41.4° CW</text>
<text x="165.5" y="288.2" text-anchor="start" font-family="Arial" font-size="8.5" fill="#333">Arc R=28"</text>
<text x="165.5" y="299.2" text-anchor="start" font-family="Arial" font-size="8.5" fill="#333">41.4° CCW</text>
<text x="144.6" y="513.2" text-anchor="end" font-family="Arial" font-size="8.5" fill="#333">Fillet R=10"</text>
<text x="144.6" y="524.2" text-anchor="end" font-family="Arial" font-size="8.5" fill="#333">90.0°</text>
<text x="161.4" y="194.8" text-anchor="end" font-family="Arial" font-size="8.5" fill="#333">Fillet R=28"</text>
<text x="161.4" y="205.8" text-anchor="end" font-family="Arial" font-size="8.5" fill="#333">90.0°</text>
<text x="266.7" y="243.4" text-anchor="end" font-family="Arial" font-size="8.5" fill="#333">Turn R=2"</text>
<text x="266.7" y="254.4" text-anchor="end" font-family="Arial" font-size="8.5" fill="#333">90.0°</text>
<text x="280.1" y="208.8" text-anchor="start" font-family="Arial" font-size="8.5" fill="#333">Turn R=28"</text>
<text x="280.1" y="219.8" text-anchor="start" font-family="Arial" font-size="8.5" fill="#333">90.0°</text>
<g opacity="0.5">
<path d="M 163.4,228.1 L 163.4,266.9 L 163.4,267.6 L 163.4,268.3 L 163.3,269.0 L 163.2,269.7 L 163.1,270.4 L 163.0,271.1 L 162.8,271.8 L 162.6,272.5 L 162.4,273.1 L 162.2,273.8 L 161.9,274.5 L 161.6,275.1 L 161.3,275.7 L 161.0,276.3 L 160.6,277.0 L 160.3,277.6 L 159.9,278.1 L 159.4,278.7 L 159.0,279.2 L 158.6,279.8 L 157.9,280.5 L 157.3,281.3 L 156.7,282.1 L 156.2,282.9 L 155.7,283.7 L 155.2,284.6 L 154.7,285.5 L 154.3,286.3 L 153.9,287.2 L 153.5,288.2 L 153.2,289.1 L 152.9,290.0 L 152.6,291.0 L 152.4,291.9 L 152.2,292.9 L 152.0,293.9 L 151.9,294.8 L 151.8,295.8 L 151.8,296.8 L 151.8,297.8 L 151.8,492.3 L 151.8,493.1 L 151.9,493.8 L 152.0,494.6 L 152.2,495.3 L 152.5,496.0 L 152.8,496.7 L 153.2,497.4 L 153.6,498.0 L 154.1,498.6 L 154.6,499.2 L 155.2,499.7 L 155.8,500.2 L 156.4,500.6 L 157.1,501.0 L 157.8,501.3 L 158.5,501.6 L 159.2,501.8 L 159.9,501.9 L 160.7,502.0 L 161.5,502.0 L 367.7,502.0 L 367.9,502.0 L 368.1,502.0 L 368.4,502.0 L 368.6,502.1 L 368.8,502.1 L 369.1,502.1 L 369.3,502.1 L 369.5,502.1 L 369.8,502.1 L 370.0,502.2 L 370.2,502.2 L 370.5,502.2 L 370.7,502.3 L 370.9,502.3 L 371.2,502.3 L 371.4,502.4 L 371.6,502.4 L 371.8,502.5 L 372.1,502.5 L 372.3,502.6 L 372.5,502.6 L 372.8,502.7 L 373.0,502.8 L 373.2,502.8 L 373.4,502.9 L 373.6,503.0 L 373.9,503.0 L 374.1,503.1 L 374.3,503.2 L 374.5,503.3 L 374.7,503.4 L 375.0,503.5 L 375.2,503.5 L 375.4,503.6 L 375.6,503.7 L 375.8,503.8 L 376.0,503.9 L 376.2,504.0 L 376.5,504.1 L 376.7,504.2 L 376.9,504.3 L 377.1,504.5 L 377.3,504.6 L 377.5,504.7 L 377.7,504.8 L 377.9,504.9 L 378.1,505.1 L 378.3,505.2 L 378.5,505.3 L 378.7,505.4 L 378.9,505.6 L 379.1,505.7 L 379.2,505.9 L 379.4,506.0 L 379.6,506.1 L 379.8,506.3 L 380.0,506.4 L 380.2,506.6 L 380.3,506.7 L 380.5,506.9 L 380.8,507.1 L 381.0,507.3 L 381.3,507.5 L 381.5,507.7 L 381.8,507.9 L 382.0,508.1 L 382.3,508.3 L 382.6,508.5 L 382.8,508.7 L 383.1,508.9 L 383.4,509.1 L 383.6,509.3 L 383.9,509.4 L 384.2,509.6 L 384.5,509.8 L 384.8,510.0 L 385.0,510.1 L 385.3,510.3 L 385.6,510.4 L 385.9,510.6 L 386.2,510.7 L 386.5,510.9 L 386.8,511.0 L 387.1,511.2 L 387.4,511.3 L 387.7,511.4 L 388.0,511.6 L 388.3,511.7 L 388.6,511.8 L 388.9,511.9 L 389.2,512.0 L 389.5,512.2 L 389.8,512.3 L 390.1,512.4 L 390.4,512.5 L 390.8,512.6 L 391.1,512.6 L 391.4,512.7 L 391.7,512.8 L 392.0,512.9 L 392.3,513.0 L 392.7,513.0 L 393.0,513.1 L 393.3,513.2 L 393.6,513.2 L 393.9,513.3 L 394.3,513.4 L 394.6,513.4 L 394.9,513.4 L 395.2,513.5 L 395.6,513.5 L 395.9,513.6 L 396.2,513.6 L 396.5,513.6 L 396.9,513.6 L 397.2,513.7 L 397.5,513.7 L 397.8,513.7 L 398.2,513.7 L 398.5,513.7 L 481.7,513.7 L 482.4,513.7 L 483.1,513.6 L 483.8,513.6 L 484.6,513.5 L 485.3,513.5 L 486.0,513.4 L 486.7,513.2 L 487.4,513.1 L 488.1,512.9 L 488.8,512.8 L 489.4,512.6 L 490.1,512.4 L 490.8,512.1 L 491.5,511.9 L 492.1,511.6 L 492.8,511.3 L 493.4,511.0 L 494.1,510.7 L 494.7,510.4 L 495.3,510.0 L 559.2,473.2 L 560.3,472.4 L 561.4,471.6 L 562.4,470.7 L 563.4,469.8 L 564.3,468.8 L 565.2,467.8 L 566.0,466.7 L 566.8,465.6 L 567.5,464.5 L 568.2,463.3 L 568.8,462.1 L 569.3,460.9 L 569.8,459.7 L 570.2,458.4 L 570.6,457.1 L 570.9,455.8 L 571.1,454.5 L 571.3,453.1 L 571.4,451.8 L 571.4,450.4 L 571.4,352.4 L 571.4,352.1 L 571.4,351.7 L 571.4,351.3 L 571.4,351.0 L 571.4,350.6 L 571.4,350.3 L 571.4,349.9 L 571.4,349.5 L 571.4,349.2 L 571.3,348.8 L 571.3,348.5 L 571.3,348.1 L 571.3,347.7 L 571.3,347.4 L 571.2,347.0 L 571.2,346.7 L 571.2,346.3 L 571.2,345.9 L 571.1,345.6 L 571.1,345.2 L 571.1,344.9 L 571.0,344.5 L 571.0,344.1 L 571.0,343.8 L 570.9,343.4 L 570.9,343.1 L 570.9,342.7 L 570.8,342.4 L 570.8,342.0 L 570.7,341.6 L 570.7,341.3 L 570.6,340.9 L 570.6,340.6 L 570.5,340.2 L 570.5,339.9 L 570.4,339.5 L 570.4,339.1 L 570.3,338.8 L 570.2,338.4 L 570.2,338.1 L 570.1,337.7 L 570.0,337.4 L 570.0,337.0 L 569.9,336.7 L 569.8,336.3 L 569.8,336.0 L 569.7,335.6 L 569.6,335.3 L 569.5,334.9 L 569.5,334.5 L 569.4,334.2 L 569.3,333.8 L 569.2,333.5 L 569.1,333.1 L 569.1,332.8 L 569.0,332.4 L 568.9,332.1 L 568.8,331.7 L 568.7,331.4 L 568.6,331.1 L 539.1,221.0 L 538.8,219.8 L 538.3,218.5 L 537.9,217.3 L 537.3,216.2 L 536.7,215.0 L 536.1,213.9 L 535.3,212.8 L 534.6,211.7 L 533.8,210.7 L 532.9,209.7 L 532.0,208.8 L 531.1,207.9 L 530.1,207.0 L 529.0,206.2 L 528.0,205.5 L 526.9,204.8 L 525.7,204.1 L 524.6,203.5 L 523.4,203.0 L 522.2,202.5 L 520.9,202.1 L 519.7,201.7 L 518.4,201.4 L 517.1,201.2 L 515.8,201.0 L 514.5,200.9 L 513.2,200.9 L 511.9,200.9 L 510.6,201.0 L 509.3,201.1 L 508.0,201.3 L 506.7,201.6 L 505.5,201.9 L 504.2,202.3 L 503.0,202.7 L 501.8,203.2 L 500.6,203.8 L 499.5,204.4 L 498.3,205.1 L 497.3,205.8 L 496.2,206.6 L 495.2,207.4 L 494.2,208.3 L 493.3,209.2 L 492.4,210.1 L 491.6,211.1 L 490.8,212.2 L 490.0,213.3 L 489.4,214.4 L 488.7,215.5 L 488.2,216.7 L 487.6,217.9 L 487.2,219.1 L 486.8,220.3 L 486.4,221.6 L 486.2,222.9 L 485.9,224.2 L 485.8,225.5 L 485.7,226.8 L 485.7,228.1 L 485.7,228.2 L 485.6,228.4 L 485.6,228.5 L 485.6,228.7 L 485.5,228.8 L 485.4,229.0 L 485.4,229.1 L 485.3,229.2 L 485.2,229.3 L 485.1,229.4 L 485.0,229.6 L 484.9,229.6 L 484.7,229.7 L 484.6,229.8 L 484.5,229.9 L 484.3,229.9 L 484.2,230.0 L 484.0,230.0 L 483.9,230.0 L 483.7,230.0 L 278.0,230.0 L 277.9,230.0 L 277.7,230.0 L 277.6,230.0 L 277.4,229.9 L 277.3,229.9 L 277.2,229.8 L 277.0,229.7 L 276.9,229.6 L 276.8,229.6 L 276.7,229.4 L 276.6,229.3 L 276.5,229.2 L 276.4,229.1 L 276.3,229.0 L 276.2,228.8 L 276.2,228.7 L 276.2,228.5 L 276.1,228.4 L 276.1,228.2 L 276.1,228.1 L 276.0,225.9 L 275.8,223.8 L 275.3,221.7 L 274.8,219.7 L 274.0,217.7 L 273.1,215.7 L 272.1,213.9 L 270.9,212.1 L 269.6,210.4 L 268.1,208.8 L 266.6,207.4 L 264.9,206.1 L 263.1,204.9 L 261.2,203.8 L 259.3,202.9 L 257.3,202.2 L 255.2,201.6 L 253.2,201.2 L 251.0,201.0 L 248.9,200.9 L 190.6,200.9 L 188.5,201.0 L 186.4,201.2 L 184.3,201.6 L 182.2,202.2 L 180.2,202.9 L 178.3,203.8 L 176.4,204.9 L 174.6,206.1 L 172.9,207.4 L 171.4,208.8 L 169.9,210.4 L 168.6,212.1 L 167.4,213.9 L 166.4,215.7 L 165.5,217.7 L 164.7,219.7 L 164.2,221.7 L 163.7,223.8 L 163.5,225.9 Z M 171.2,226.6 L 171.4,225.0 L 171.7,223.5 L 172.1,222.1 L 172.7,220.6 L 173.3,219.3 L 174.0,217.9 L 174.9,216.7 L 175.8,215.5 L 176.9,214.3 L 178.0,213.3 L 179.2,212.4 L 180.5,211.5 L 181.8,210.8 L 183.2,210.1 L 184.6,209.6 L 186.1,209.2 L 187.6,208.9 L 189.1,208.7 L 190.6,208.6 L 248.9,208.6 L 250.4,208.7 L 251.9,208.9 L 253.4,209.2 L 254.9,209.6 L 256.3,210.1 L 257.7,210.8 L 259.1,211.5 L 260.3,212.4 L 261.5,213.3 L 262.6,214.3 L 263.7,215.5 L 264.6,216.7 L 265.5,217.9 L 266.2,219.3 L 266.8,220.6 L 267.4,222.1 L 267.8,223.5 L 268.1,225.0 L 268.3,226.6 L 268.3,228.1 L 268.4,228.8 L 268.4,229.6 L 268.6,230.3 L 268.8,231.1 L 269.1,231.8 L 269.4,232.5 L 269.8,233.2 L 270.2,233.8 L 270.7,234.4 L 271.2,234.9 L 271.7,235.5 L 272.3,235.9 L 273.0,236.4 L 273.6,236.7 L 274.3,237.1 L 275.0,237.3 L 275.8,237.5 L 276.5,237.7 L 277.3,237.8 L 278.0,237.8 L 483.7,237.8 L 484.5,237.8 L 485.2,237.7 L 486.0,237.5 L 486.7,237.3 L 487.4,237.1 L 488.1,236.7 L 488.8,236.4 L 489.4,235.9 L 490.0,235.5 L 490.6,234.9 L 491.1,234.4 L 491.6,233.8 L 492.0,233.2 L 492.4,232.5 L 492.7,231.8 L 493.0,231.1 L 493.2,230.3 L 493.3,229.6 L 493.4,228.8 L 493.4,228.1 L 493.5,227.1 L 493.5,226.2 L 493.6,225.3 L 493.8,224.4 L 494.0,223.5 L 494.2,222.6 L 494.5,221.7 L 494.8,220.8 L 495.2,219.9 L 495.6,219.1 L 496.1,218.3 L 496.6,217.5 L 497.1,216.7 L 497.7,216.0 L 498.3,215.3 L 498.9,214.6 L 499.5,213.9 L 500.2,213.3 L 501.0,212.7 L 501.7,212.2 L 502.5,211.6 L 503.3,211.2 L 504.1,210.7 L 505.0,210.3 L 505.8,210.0 L 506.7,209.6 L 507.6,209.4 L 508.5,209.1 L 509.4,209.0 L 510.3,208.8 L 511.2,208.7 L 512.2,208.7 L 513.1,208.6 L 514.0,208.7 L 515.0,208.8 L 515.9,208.9 L 516.8,209.1 L 517.7,209.3 L 518.6,209.5 L 519.5,209.8 L 520.4,210.2 L 521.2,210.5 L 522.1,211.0 L 522.9,211.4 L 523.7,211.9 L 524.4,212.5 L 525.2,213.0 L 525.9,213.6 L 526.5,214.3 L 527.2,214.9 L 527.8,215.7 L 528.4,216.4 L 528.9,217.1 L 529.4,217.9 L 529.9,218.7 L 530.3,219.6 L 530.7,220.4 L 531.1,221.3 L 531.4,222.2 L 531.6,223.0 L 561.1,333.1 L 561.2,333.4 L 561.3,333.7 L 561.4,334.0 L 561.4,334.3 L 561.5,334.6 L 561.6,335.0 L 561.7,335.3 L 561.7,335.6 L 561.8,335.9 L 561.9,336.2 L 562.0,336.6 L 562.0,336.9 L 562.1,337.2 L 562.2,337.5 L 562.2,337.8 L 562.3,338.1 L 562.3,338.5 L 562.4,338.8 L 562.5,339.1 L 562.5,339.4 L 562.6,339.8 L 562.6,340.1 L 562.7,340.4 L 562.7,340.7 L 562.8,341.0 L 562.8,341.4 L 562.9,341.7 L 562.9,342.0 L 563.0,342.3 L 563.0,342.7 L 563.1,343.0 L 563.1,343.3 L 563.1,343.6 L 563.2,344.0 L 563.2,344.3 L 563.2,344.6 L 563.3,344.9 L 563.3,345.3 L 563.3,345.6 L 563.4,345.9 L 563.4,346.2 L 563.4,346.6 L 563.4,346.9 L 563.5,347.2 L 563.5,347.5 L 563.5,347.9 L 563.5,348.2 L 563.6,348.5 L 563.6,348.8 L 563.6,349.2 L 563.6,349.5 L 563.6,349.8 L 563.6,350.1 L 563.6,350.5 L 563.6,350.8 L 563.6,351.1 L 563.6,351.4 L 563.7,351.8 L 563.7,352.1 L 563.7,352.4 L 563.7,450.4 L 563.6,451.5 L 563.5,452.5 L 563.4,453.5 L 563.2,454.5 L 563.0,455.5 L 562.7,456.5 L 562.4,457.4 L 562.0,458.3 L 561.5,459.3 L 561.1,460.2 L 560.5,461.0 L 559.9,461.9 L 559.3,462.7 L 558.7,463.4 L 558.0,464.2 L 557.2,464.9 L 556.5,465.5 L 555.6,466.2 L 554.8,466.7 L 553.9,467.2 L 491.4,503.3 L 491.0,503.6 L 490.5,503.8 L 490.1,504.0 L 489.6,504.2 L 489.1,504.4 L 488.7,504.6 L 488.2,504.8 L 487.7,505.0 L 487.2,505.1 L 486.7,505.3 L 486.2,505.4 L 485.8,505.5 L 485.3,505.6 L 484.8,505.7 L 484.2,505.7 L 483.7,505.8 L 483.2,505.9 L 482.7,505.9 L 482.2,505.9 L 481.7,505.9 L 398.5,505.9 L 398.3,505.9 L 398.0,505.9 L 397.8,505.9 L 397.6,505.9 L 397.3,505.9 L 397.1,505.9 L 396.9,505.8 L 396.6,505.8 L 396.4,505.8 L 396.2,505.8 L 395.9,505.7 L 395.7,505.7 L 395.5,505.7 L 395.2,505.6 L 395.0,505.6 L 394.8,505.6 L 394.6,505.5 L 394.3,505.5 L 394.1,505.4 L 393.9,505.4 L 393.6,505.3 L 393.4,505.2 L 393.2,505.2 L 393.0,505.1 L 392.7,505.0 L 392.5,505.0 L 392.3,504.9 L 392.1,504.8 L 391.9,504.7 L 391.6,504.7 L 391.4,504.6 L 391.2,504.5 L 391.0,504.4 L 390.8,504.3 L 390.6,504.2 L 390.3,504.1 L 390.1,504.0 L 389.9,503.9 L 389.7,503.8 L 389.5,503.7 L 389.3,503.6 L 389.1,503.5 L 388.9,503.4 L 388.7,503.2 L 388.5,503.1 L 388.3,503.0 L 388.1,502.9 L 387.9,502.8 L 387.7,502.6 L 387.5,502.5 L 387.3,502.4 L 387.1,502.2 L 386.9,502.1 L 386.7,501.9 L 386.6,501.8 L 386.4,501.7 L 386.2,501.5 L 386.0,501.4 L 385.8,501.2 L 385.7,501.1 L 385.4,500.8 L 385.2,500.6 L 384.9,500.4 L 384.7,500.2 L 384.4,500.0 L 384.1,499.8 L 383.9,499.6 L 383.6,499.4 L 383.3,499.2 L 383.1,499.0 L 382.8,498.9 L 382.5,498.7 L 382.3,498.5 L 382.0,498.3 L 381.7,498.2 L 381.4,498.0 L 381.1,497.8 L 380.8,497.7 L 380.6,497.5 L 380.3,497.4 L 380.0,497.2 L 379.7,497.1 L 379.4,496.9 L 379.1,496.8 L 378.8,496.6 L 378.5,496.5 L 378.2,496.4 L 377.9,496.3 L 377.6,496.1 L 377.3,496.0 L 377.0,495.9 L 376.7,495.8 L 376.4,495.7 L 376.0,495.6 L 375.7,495.5 L 375.4,495.4 L 375.1,495.3 L 374.8,495.2 L 374.5,495.1 L 374.2,495.0 L 373.8,495.0 L 373.5,494.9 L 373.2,494.8 L 372.9,494.8 L 372.5,494.7 L 372.2,494.6 L 371.9,494.6 L 371.6,494.5 L 371.3,494.5 L 370.9,494.5 L 370.6,494.4 L 370.3,494.4 L 370.0,494.4 L 369.6,494.3 L 369.3,494.3 L 369.0,494.3 L 368.6,494.3 L 368.3,494.3 L 368.0,494.3 L 367.7,494.3 L 161.5,494.3 L 161.3,494.2 L 161.2,494.2 L 161.0,494.2 L 160.9,494.2 L 160.7,494.1 L 160.6,494.0 L 160.5,494.0 L 160.3,493.9 L 160.2,493.8 L 160.1,493.7 L 160.0,493.6 L 159.9,493.5 L 159.8,493.3 L 159.7,493.2 L 159.7,493.1 L 159.6,492.9 L 159.6,492.8 L 159.5,492.6 L 159.5,492.5 L 159.5,492.3 L 159.5,297.8 L 159.5,297.1 L 159.6,296.4 L 159.6,295.7 L 159.7,295.0 L 159.8,294.3 L 160.0,293.6 L 160.1,292.9 L 160.3,292.2 L 160.5,291.6 L 160.8,290.9 L 161.0,290.3 L 161.3,289.6 L 161.6,289.0 L 162.0,288.4 L 162.3,287.8 L 162.7,287.2 L 163.1,286.6 L 163.5,286.0 L 163.9,285.5 L 164.4,284.9 L 165.0,284.2 L 165.6,283.4 L 166.2,282.6 L 166.8,281.8 L 167.3,281.0 L 167.8,280.1 L 168.2,279.2 L 168.7,278.4 L 169.1,277.5 L 169.4,276.6 L 169.8,275.6 L 170.1,274.7 L 170.3,273.7 L 170.5,272.8 L 170.7,271.8 L 170.9,270.9 L 171.0,269.9 L 171.1,268.9 L 171.2,267.9 L 171.2,266.9 L 171.2,228.1 Z" fill="rgba(160,160,160,0.5)" fill-rule="evenodd" stroke="none"/>
<line x1="171.2" y1="228.1" x2="171.2" y2="266.9" stroke="#666" stroke-width="1.0"/>
<polyline points="171.2,266.9 171.2,267.9 171.1,268.9 171.0,269.9 170.9,270.9 170.7,271.8 170.5,272.8 170.3,273.7 170.1,274.7 169.8,275.6 169.4,276.6 169.1,277.5 168.7,278.4 168.2,279.2 167.8,280.1 167.3,281.0 166.8,281.8 166.2,282.6 165.6,283.4 165.0,284.2 164.4,284.9" fill="none" stroke="#666" stroke-width="1.0" stroke-linecap="round"/>
<polyline points="164.4,284.9 163.9,285.5 163.5,286.0 163.1,286.6 162.7,287.2 162.3,287.8 162.0,288.4 161.6,289.0 161.3,289.6 161.0,290.3 160.8,290.9 160.5,291.6 160.3,292.2 160.1,292.9 160.0,293.6 159.8,294.3 159.7,295.0 159.6,295.7 159.6,296.4 159.5,297.1 159.5,297.8" fill="none" stroke="#666" stroke-width="1.0" stroke-linecap="round"/>
<line x1="159.5" y1="297.8" x2="159.5" y2="492.3" stroke="#666" stroke-width="1.0"/>
<polyline points="159.5,492.3 159.5,492.5 159.5,492.6 159.6,492.8 159.6,492.9 159.7,493.1 159.7,493.2 159.8,493.3 159.9,493.5 160.0,493.6 160.1,493.7 160.2,493.8 160.3,493.9 160.5,494.0 160.6,494.0 160.7,494.1 160.9,494.2 161.0,494.2 161.2,494.2 161.3,494.2 161.5,494.3" fill="none" stroke="#666" stroke-width="1.0" stroke-linecap="round"/>
<line x1="161.5" y1="494.3" x2="367.7" y2="494.3" stroke="#666" stroke-width="1.0"/>
<polyline points="367.7,494.3 368.0,494.3 368.3,494.3 368.6,494.3 369.0,494.3 369.3,494.3 369.6,494.3 370.0,494.4 370.3,494.4 370.6,494.4 370.9,494.5 371.3,494.5 371.6,494.5 371.9,494.6 372.2,494.6 372.5,494.7 372.9,494.8 373.2,494.8 373.5,494.9 373.8,495.0 374.2,495.0 374.5,495.1 374.8,495.2 375.1,495.3 375.4,495.4 375.7,495.5 376.0,495.6 376.4,495.7 376.7,495.8 377.0,495.9 377.3,496.0 377.6,496.1 377.9,496.3 378.2,496.4 378.5,496.5 378.8,496.6 379.1,496.8 379.4,496.9 379.7,497.1 380.0,497.2 380.3,497.4 380.6,497.5 380.8,497.7 381.1,497.8 381.4,498.0 381.7,498.2 382.0,498.3 382.3,498.5 382.5,498.7 382.8,498.9 383.1,499.0 383.3,499.2 383.6,499.4 383.9,499.6 384.1,499.8 384.4,500.0 384.7,500.2 384.9,500.4 385.2,500.6 385.4,500.8 385.7,501.1" fill="none" stroke="#666" stroke-width="1.0" stroke-linecap="round"/>
<polyline points="385.7,501.1 385.8,501.2 386.0,501.4 386.2,501.5 386.4,501.7 386.6,501.8 386.7,501.9 386.9,502.1 387.1,502.2 387.3,502.4 387.5,502.5 387.7,502.6 387.9,502.8 388.1,502.9 388.3,503.0 388.5,503.1 388.7,503.2 388.9,503.4 389.1,503.5 389.3,503.6 389.5,503.7 389.7,503.8 389.9,503.9 390.1,504.0 390.3,504.1 390.6,504.2 390.8,504.3 391.0,504.4 391.2,504.5 391.4,504.6 391.6,504.7 391.9,504.7 392.1,504.8 392.3,504.9 392.5,505.0 392.7,505.0 393.0,505.1 393.2,505.2 393.4,505.2 393.6,505.3 393.9,505.4 394.1,505.4 394.3,505.5 394.6,505.5 394.8,505.6 395.0,505.6 395.2,505.6 395.5,505.7 395.7,505.7 395.9,505.7 396.2,505.8 396.4,505.8 396.6,505.8 396.9,505.8 397.1,505.9 397.3,505.9 397.6,505.9 397.8,505.9 398.0,505.9 398.3,505.9 398.5,505.9" fill="none" stroke="#666" stroke-width="1.0" stroke-linecap="round"/>
<line x1="398.5" y1="505.9" x2="481.7" y2="505.9" stroke="#666" stroke-width="1.0"/>
<polyline points="481.7,505.9 482.2,505.9 482.7,505.9 483.2,505.9 483.7,505.8 484.2,505.7 484.8,505.7 485.3,505.6 485.8,505.5 486.2,505.4 486.7,505.3 487.2,505.1 487.7,505.0 488.2,504.8 488.7,504.6 489.1,504.4 489.6,504.2 490.1,504.0 490.5,503.8 491.0,503.6 491.4,503.3" fill="none" stroke="#666" stroke-width="1.0" stroke-linecap="round"/>
<line x1="491.4" y1="503.3" x2="553.9" y2="467.2" stroke="#666" stroke-width="1.0"/>
<polyline points="553.9,467.3 554.8,466.7 555.6,466.2 556.5,465.5 557.2,464.9 558.0,464.2 558.7,463.4 559.3,462.7 559.9,461.9 560.5,461.0 561.1,460.2 561.5,459.3 562.0,458.3 562.4,457.4 562.7,456.5 563.0,455.5 563.2,454.5 563.4,453.5 563.5,452.5 563.6,451.5 563.7,450.4" fill="none" stroke="#666" stroke-width="1.0" stroke-linecap="round"/>
<line x1="563.7" y1="450.4" x2="563.7" y2="352.4" stroke="#666" stroke-width="1.0"/>
<polyline points="563.7,352.4 563.7,352.1 563.7,351.8 563.6,351.4 563.6,351.1 563.6,350.8 563.6,350.5 563.6,350.1 563.6,349.8 563.6,349.5 563.6,349.2 563.6,348.8 563.6,348.5 563.5,348.2 563.5,347.9 563.5,347.5 563.5,347.2 563.4,346.9 563.4,346.6 563.4,346.2 563.4,345.9 563.3,345.6 563.3,345.3 563.3,344.9 563.2,344.6 563.2,344.3 563.2,344.0 563.1,343.6 563.1,343.3 563.1,343.0 563.0,342.7 563.0,342.3 562.9,342.0 562.9,341.7 562.8,341.4 562.8,341.0 562.7,340.7 562.7,340.4 562.6,340.1 562.6,339.8 562.5,339.4 562.5,339.1 562.4,338.8 562.3,338.5 562.3,338.1 562.2,337.8 562.2,337.5 562.1,337.2 562.0,336.9 562.0,336.6 561.9,336.2 561.8,335.9 561.7,335.6 561.7,335.3 561.6,335.0 561.5,334.6 561.4,334.3 561.4,334.0 561.3,333.7 561.2,333.4 561.1,333.1" fill="none" stroke="#666" stroke-width="1.0" stroke-linecap="round"/>
<line x1="561.1" y1="333.1" x2="531.6" y2="223.0" stroke="#666" stroke-width="1.0"/>
<polyline points="531.6,223.0 531.4,222.2 531.1,221.3 530.7,220.4 530.3,219.6 529.9,218.7 529.4,217.9 528.9,217.1 528.4,216.4 527.8,215.7 527.2,214.9 526.5,214.3 525.9,213.6 525.2,213.0 524.4,212.5 523.7,211.9 522.9,211.4 522.1,211.0 521.2,210.5 520.4,210.2 519.5,209.8 518.6,209.5 517.7,209.3 516.8,209.1 515.9,208.9 515.0,208.8 514.0,208.7 513.1,208.6 512.2,208.7 511.2,208.7 510.3,208.8 509.4,209.0 508.5,209.1 507.6,209.4 506.7,209.6 505.8,210.0 505.0,210.3 504.1,210.7 503.3,211.2 502.5,211.6 501.7,212.2 501.0,212.7 500.2,213.3 499.5,213.9 498.9,214.6 498.3,215.3 497.7,216.0 497.1,216.7 496.6,217.5 496.1,218.3 495.6,219.1 495.2,219.9 494.8,220.8 494.5,221.7 494.2,222.6 494.0,223.5 493.8,224.4 493.6,225.3 493.5,226.2 493.5,227.1 493.4,228.1" fill="none" stroke="#666" stroke-width="1.0" stroke-linecap="round"/>
<polyline points="493.4,228.1 493.4,228.8 493.3,229.6 493.2,230.3 493.0,231.1 492.7,231.8 492.4,232.5 492.0,233.2 491.6,233.8 491.1,234.4 490.6,234.9 490.0,235.5 489.4,235.9 488.8,236.4 488.1,236.7 487.4,237.1 486.7,237.3 486.0,237.5 485.2,237.7 484.5,237.8 483.7,237.8" fill="none" stroke="#666" stroke-width="1.0" stroke-linecap="round"/>
<line x1="483.7" y1="237.8" x2="278.0" y2="237.8" stroke="#666" stroke-width="1.0"/>
<polyline points="278.0,237.8 277.3,237.8 276.5,237.7 275.8,237.5 275.0,237.3 274.3,237.1 273.6,236.7 273.0,236.4 272.3,235.9 271.7,235.5 271.2,234.9 270.7,234.4 270.2,233.8 269.8,233.2 269.4,232.5 269.1,231.8 268.8,231.1 268.6,230.3 268.4,229.6 268.4,228.8 268.3,228.1" fill="none" stroke="#666" stroke-width="1.0" stroke-linecap="round"/>
<polyline points="268.3,228.1 268.3,226.6 268.1,225.0 267.8,223.5 267.4,222.1 266.8,220.6 266.2,219.3 265.5,217.9 264.6,216.7 263.7,215.5 262.6,214.3 261.5,213.3 260.3,212.4 259.1,211.5 257.7,210.8 256.3,210.1 254.9,209.6 253.4,209.2 251.9,208.9 250.4,208.7 248.9,208.6" fill="none" stroke="#666" stroke-width="1.0" stroke-linecap="round"/>
<line x1="248.9" y1="208.6" x2="190.6" y2="208.6" stroke="#666" stroke-width="1.0"/>
<polyline points="190.6,208.6 189.1,208.7 187.6,208.9 186.1,209.2 184.6,209.6 183.2,210.1 181.8,210.8 180.5,211.5 179.2,212.4 178.0,213.3 176.9,214.3 175.8,215.5 174.9,216.7 174.0,217.9 173.3,219.3 172.7,220.6 172.1,222.1 171.7,223.5 171.4,225.0 171.2,226.6 171.2,228.1" fill="none" stroke="#666" stroke-width="1.0" stroke-linecap="round"/>
<polygon points="159.5,360.2 563.7,360.2 563.7,354.4 159.5,354.4" fill="rgba(160,160,160,0.5)" stroke="none"/>
<line x1="159.5" y1="360.2" x2="563.7" y2="360.2" stroke="#666" stroke-width="1.0"/>
<line x1="159.5" y1="354.4" x2="563.7" y2="354.4" stroke="#666" stroke-width="1.0"/>
<polygon points="235.3,354.4 241.1,354.4 241.1,208.6 235.3,208.6" fill="rgba(160,160,160,0.5)" stroke="none"/>
<line x1="235.3" y1="354.4" x2="235.3" y2="208.6" stroke="#666" stroke-width="1.0"/>
<line x1="241.1" y1="354.4" x2="241.1" y2="208.6" stroke="#666" stroke-width="1.0"/>
<polygon points="257.6,494.3 260.6,494.3 260.6,424.3 289.7,424.3 289.7,421.4 257.6,421.4" fill="rgba(160,160,160,0.5)" stroke="#666" stroke-width="0.8"/>
<polygon points="289.7,494.3 293.6,494.3 293.6,360.2 289.7,360.2" fill="rgba(160,160,160,0.5)" stroke="#666" stroke-width="0.8"/>
<polygon points="429.6,505.9 433.5,505.9 433.5,360.2 429.6,360.2" fill="rgba(160,160,160,0.5)" stroke="#666" stroke-width="0.8"/>
<polygon points="433.5,433.1 465.5,433.1 465.5,505.9 462.6,505.9 462.6,436.0 433.5,436.0" fill="rgba(160,160,160,0.5)" stroke="#666" stroke-width="0.8"/>
<rect x="165.4" y="461.2" width="34.0" height="29.1" fill="rgba(100,150,200,0.3)" stroke="#4682B4" stroke-width="0.8"/>
<text x="182.4" y="478.8" text-anchor="middle" font-family="Arial" font-size="7" fill="#4682B4">DRYER</text>
<rect x="165.4" y="431.1" width="34.0" height="29.1" fill="rgba(100,150,200,0.3)" stroke="#4682B4" stroke-width="0.8"/>
<text x="182.4" y="448.7" text-anchor="middle" font-family="Arial" font-size="7" fill="#4682B4">WASHER</text>
<path d="M 234.3,494.3 L 257.6,494.3 L 257.6,424.3 L 243.1,424.3 A 8.7 8.7 0 0 0 234.3,433.1 Z" fill="rgba(100,150,200,0.3)" stroke="#4682B4" stroke-width="0.8"/>
<text x="246.0" y="459.3" text-anchor="middle" font-family="Arial" font-size="7" fill="#4682B4" letter-spacing="0.5" transform="rotate(-90,246.0,459.3)">COUNTER</text>
<rect x="324.7" y="401.0" width="73.8" height="91.3" fill="rgba(100,150,200,0.3)" stroke="#4682B4" stroke-width="0.8"/>
<text x="361.6" y="473.9" text-anchor="middle" font-family="Arial" font-size="7" fill="#4682B4">KING BED</text>
<text x="275.1" y="462.3" text-anchor="middle" font-family="Arial" font-size="7" fill="#666" transform="rotate(-90,275.1,462.3)">CLOSET</text>
<text x="361.6" y="430.2" text-anchor="middle" font-family="Arial" font-size="8" fill="#666">BEDROOM</text>
<text x="448.0" y="468.1" text-anchor="middle" font-family="Arial" font-size="7" fill="#666" transform="rotate(-90,448.0,468.1)">CLOSET</text>
</g>
<text x="356.7" y="352.7" text-anchor="middle" font-family="Arial" font-size="12" fill="#333" font-weight="bold">855.82 sq ft</text>
<text x="356.7" y="366.7" text-anchor="middle" font-family="Arial" font-size="9" fill="#666">(Outline enclosed area)</text>
<line x1="742" y1="560" x2="742" y2="524" stroke="#333" stroke-width="2" marker-end="url(#ah)"/>
<text x="742" y="518" text-anchor="middle" font-family="Arial" font-size="13" font-weight="bold">N</text>
<rect x="40" y="550" width="14" height="8" fill="#e8edf5" stroke="#333" stroke-width="1" opacity="0.3"/>
<text x="60" y="557" font-family="Arial" font-size="8" fill="#999">Outer path at 20% (1089.16 sq ft)</text>
<rect x="40" y="562" width="14" height="8" fill="rgba(255,152,0,0.35)" stroke="#BF360C" stroke-width="1" opacity="0.3"/>
<text x="60" y="569" font-family="Arial" font-size="8" fill="#999">Inset path at 20% (1022.16 sq ft)</text>
<line x1="40" y1="578" x2="54" y2="578" stroke="#333" stroke-width="2.0"/>
<text x="60" y="581" font-family="Arial" font-size="8" fill="#333">Outline path (855.82 sq ft) — wall arcs R=28", fillets R=10" &amp; R=28"</text>
<line x1="40" y1="590" x2="54" y2="590" stroke="#2E7D32" stroke-width="2.5"/>
<text x="60" y="593" font-family="Arial" font-size="8" fill="#333">Wall arcs (R=28")</text>
<text x="396.0" y="610" text-anchor="middle" font-family="Arial" font-size="7.5" fill="#999">Bearings as adjusted • Distances in feet and inches • Outline arcs: wall R=28", fillets R=10" &amp; R=28"</text>
</svg>