<svg xmlns="http://www.w3.org/2000/svg" width="792" height="612" viewBox="0 0 792 612">
<rect width="792" height="612" fill="white"/>
<defs>
  <marker id="ah" markerWidth="8" markerHeight="6" refX="8" refY="3" orient="auto"><polygon points="0 0, 8 3, 0 6" fill="#333"/></marker>
  <clipPath id="page"><rect width="792" height="612"/></clipPath>
</defs>
<text x="396.0" y="30" text-anchor="middle" font-family="Arial" font-size="14" font-weight="bold">Site Path — Outline (wall arcs R=28″, fillets R=10″ &amp; R=28″)</text>
<g opacity="0.2">
<polygon points="368.8,124.1 145.9,169.8 145.9,507.9 517.1,507.9 645.7,423.1" fill="none" stroke="#bbb" stroke-width="0.8" stroke-dasharray="4,4"/>
<polygon points="368.8,124.1 145.9,169.8 145.9,507.9 354.7,507.9 356.5,507.9 358.4,507.9 360.2,508.0 362.0,508.1 363.8,508.2 365.6,508.3 367.4,508.5 369.2,508.7 371.0,508.9 372.8,509.1 374.6,509.4 376.4,509.7 378.2,510.0 380.0,510.4 381.8,510.7 383.5,511.1 385.3,511.6 387.1,512.0 388.8,512.5 390.6,513.0 392.3,513.5 394.0,514.0 395.8,514.6 397.5,515.2 399.2,515.8 400.9,516.5 402.6,517.1 404.3,517.8 405.9,518.5 407.6,519.3 409.2,520.0 410.9,520.8 412.5,521.6 414.1,522.4 415.7,523.3 417.3,524.2 418.9,525.1 420.5,526.0 422.0,526.9 423.5,527.9 425.1,528.9 426.6,529.9 428.1,530.9 429.6,532.0 431.0,533.0 432.5,534.1 433.9,535.2 435.3,536.4 436.7,537.5 438.1,538.7 439.5,539.9 440.9,541.1 442.2,542.3 443.5,543.6 444.8,544.8 446.1,546.1 447.4,547.4 448.6,548.7 449.8,550.1 451.0,551.4 517.1,507.9 645.7,423.1 578.7,350.8 577.1,349.0 575.4,347.1 573.9,345.2 572.3,343.3 570.8,341.3 569.4,339.4 568.0,337.3 566.6,335.3 565.3,333.2 564.0,331.1 562.8,329.0 561.6,326.9 560.5,324.7 559.4,322.5 558.3,320.3 557.3,318.0 556.4,315.8 555.5,313.5 554.6,311.2 553.8,308.9 553.0,306.5 552.3,304.2 551.6,301.8 551.0,299.4 550.5,297.0 550.0,294.6 549.5,292.2 549.1,289.8 548.7,287.4 548.4,284.9 548.2,282.5 548.0,280.0 547.8,277.6 547.7,275.1 547.7,272.7 547.7,270.2 547.7,267.8 547.8,265.3 548.0,262.9 548.2,260.4 548.5,258.0 548.8,255.5 549.1,253.1 549.5,250.7 550.0,248.3 550.5,245.9 551.1,243.5 551.7,241.1 552.4,238.7 553.1,236.4 553.9,234.1 554.7,231.7 555.5,229.4 556.4,227.2 557.4,224.9 558.4,222.7 559.5,220.4 560.6,218.2 561.7,216.1 562.9,213.9 560.3,214.7 557.7,215.4 555.1,216.0 552.4,216.6 549.8,217.2 547.1,217.7 544.5,218.1 541.8,218.5 539.1,218.9 536.4,219.2 533.7,219.5 531.0,219.7 528.3,219.8 525.6,219.9 522.9,220.0 520.2,220.0 517.5,220.0 514.8,219.9 512.1,219.7 509.4,219.5 506.7,219.3 504.0,219.0 501.3,218.6 498.7,218.2 496.0,217.8 493.3,217.3 490.7,216.8 488.1,216.2 485.4,215.5 482.8,214.8 480.2,214.1 477.6,213.3 475.1,212.5 472.5,211.6 470.0,210.7 467.4,209.7 464.9,208.7 462.4,207.6 460.0,206.5 457.5,205.3 455.1,204.1 452.7,202.9 450.3,201.6 448.0,200.2 445.7,198.9 443.4,197.4 441.1,196.0 438.8,194.5 436.6,192.9 434.4,191.3 432.3,189.7 430.2,188.0 428.1,186.3 426.0,184.6 424.0,182.8 422.0,181.0 420.0,179.1 418.1,177.2 416.2,175.3 414.3,173.3" fill="#e8edf5" stroke="none"/>
<line x1="368.8" y1="124.1" x2="145.9" y2="169.8" stroke="#333" stroke-width="2.0"/>
<line x1="145.9" y1="169.8" x2="145.9" y2="507.9" stroke="#333" stroke-width="2.0"/>
<line x1="145.9" y1="507.9" x2="354.7" y2="507.9" stroke="#333" stroke-width="2.0"/>
<line x1="451.0" y1="551.4" x2="517.1" y2="507.9" stroke="#333" stroke-width="2.0"/>
<line x1="517.1" y1="507.9" x2="645.7" y2="423.1" stroke="#333" stroke-width="2.0"/>
<line x1="645.7" y1="423.1" x2="578.7" y2="350.8" stroke="#333" stroke-width="2.0"/>
<line x1="414.3" y1="173.3" x2="368.8" y2="124.1" stroke="#333" stroke-width="2.0"/>
<polyline points="578.7,350.8 577.1,349.0 575.4,347.1 573.9,345.2 572.3,343.3 570.8,341.3 569.4,339.4 568.0,337.3 566.6,335.3 565.3,333.2 564.0,331.1 562.8,329.0 561.6,326.9 560.5,324.7 559.4,322.5 558.3,320.3 557.3,318.0 556.4,315.8 555.5,313.5 554.6,311.2 553.8,308.9 553.0,306.5 552.3,304.2 551.6,301.8 551.0,299.4 550.5,297.0 550.0,294.6 549.5,292.2 549.1,289.8 548.7,287.4 548.4,284.9 548.2,282.5 548.0,280.0 547.8,277.6 547.7,275.1 547.7,272.7 547.7,270.2 547.7,267.8 547.8,265.3 548.0,262.9 548.2,260.4 548.5,258.0 548.8,255.5 549.1,253.1 549.5,250.7 550.0,248.3 550.5,245.9 551.1,243.5 551.7,241.1 552.4,238.7 553.1,236.4 553.9,234.1 554.7,231.7 555.5,229.4 556.4,227.2 557.4,224.9 558.4,222.7 559.5,220.4 560.6,218.2 561.7,216.1 562.9,213.9" fill="none" stroke="#0077B6" stroke-width="2.5" stroke-linecap="round"/>
<polyline points="562.9,213.9 560.3,214.7 557.7,215.4 555.1,216.0 552.4,216.6 549.8,217.2 547.1,217.7 544.5,218.1 541.8,218.5 539.1,218.9 536.4,219.2 533.7,219.5 531.0,219.7 528.3,219.8 525.6,219.9 522.9,220.0 520.2,220.0 517.5,220.0 514.8,219.9 512.1,219.7 509.4,219.5 506.7,219.3 504.0,219.0 501.3,218.6 498.7,218.2 496.0,217.8 493.3,217.3 490.7,216.8 488.1,216.2 485.4,215.5 482.8,214.8 480.2,214.1 477.6,213.3 475.1,212.5 472.5,211.6 470.0,210.7 467.4,209.7 464.9,208.7 462.4,207.6 460.0,206.5 457.5,205.3 455.1,204.1 452.7,202.9 450.3,201.6 448.0,200.2 445.7,198.9 443.4,197.4 441.1,196.0 438.8,194.5 436.6,192.9 434.4,191.3 432.3,189.7 430.2,188.0 428.1,186.3 426.0,184.6 424.0,182.8 422.0,181.0 420.0,179.1 418.1,177.2 416.2,175.3 414.3,173.3" fill="none" stroke="#0077B6" stroke-width="2.5" stroke-linecap="round"/>
<polyline points="354.7,507.9 356.5,507.9 358.4,507.9 360.2,508.0 362.0,508.1 363.8,508.2 365.6,508.3 367.4,508.5 369.2,508.7 371.0,508.9 372.8,509.1 374.6,509.4 376.4,509.7 378.2,510.0 380.0,510.4 381.8,510.7 383.5,511.1 385.3,511.6 387.1,512.0 388.8,512.5 390.6,513.0 392.3,513.5 394.0,514.0 395.8,514.6 397.5,515.2 399.2,515.8 400.9,516.5 402.6,517.1 404.3,517.8 405.9,518.5 407.6,519.3 409.2,520.0 410.9,520.8 412.5,521.6 414.1,522.4 415.7,523.3 417.3,524.2 418.9,525.1 420.5,526.0 422.0,526.9 423.5,527.9 425.1,528.9 426.6,529.9 428.1,530.9 429.6,532.0 431.0,533.0 432.5,534.1 433.9,535.2 435.3,536.4 436.7,537.5 438.1,538.7 439.5,539.9 440.9,541.1 442.2,542.3 443.5,543.6 444.8,544.8 446.1,546.1 447.4,547.4 448.6,548.7 449.8,550.1 451.0,551.4" fill="none" stroke="#2E7D32" stroke-width="2.5" stroke-linecap="round"/>
<circle cx="368.8" cy="124.1" r="3.5" fill="#d32f2f"/>
<text x="368.8" y="108.1" text-anchor="middle" font-family="Arial" font-size="10" font-weight="bold" fill="#d32f2f">P.O.B.</text>
<circle cx="145.9" cy="169.8" r="3.5" fill="#d32f2f"/>
<text x="135.9" y="161.8" text-anchor="end" font-family="Arial" font-size="10" font-weight="bold" fill="#d32f2f">P2</text>
<circle cx="145.9" cy="507.9" r="3.5" fill="#d32f2f"/>
<text x="135.9" y="514.9" text-anchor="end" font-family="Arial" font-size="10" font-weight="bold" fill="#d32f2f">P3</text>
<circle cx="354.7" cy="507.9" r="3.5" fill="#2E7D32"/>
<text x="354.7" y="495.9" text-anchor="middle" font-family="Arial" font-size="10" font-weight="bold" fill="#2E7D32">T3</text>
<circle cx="451.0" cy="551.4" r="3.5" fill="#2E7D32"/>
<text x="459.0" y="545.4" text-anchor="start" font-family="Arial" font-size="10" font-weight="bold" fill="#2E7D32">PX</text>
<circle cx="517.1" cy="507.9" r="3.5" fill="#d32f2f"/>
<text x="527.1" y="517.9" text-anchor="start" font-family="Arial" font-size="10" font-weight="bold" fill="#d32f2f">P4</text>
<circle cx="645.7" cy="423.1" r="3.5" fill="#d32f2f"/>
<text x="659.7" y="426.1" text-anchor="start" font-family="Arial" font-size="10" font-weight="bold" fill="#d32f2f">P5</text>
<circle cx="578.7" cy="350.8" r="3.5" fill="#0077B6"/>
<text x="588.7" y="346.8" text-anchor="start" font-family="Arial" font-size="10" font-weight="bold" fill="#0077B6">T1</text>
<circle cx="562.9" cy="213.9" r="3.5" fill="#0077B6"/>
<text x="570.9" y="205.9" text-anchor="start" font-family="Arial" font-size="10" font-weight="bold" fill="#0077B6">PA</text>
<circle cx="414.3" cy="173.3" r="3.5" fill="#0077B6"/>
<text x="404.3" y="169.3" text-anchor="end" font-family="Arial" font-size="10" font-weight="bold" fill="#0077B6">T2</text>
<g transform="translate(261.0,164.6) rotate(11.6)">
  <text x="0" y="-3" text-anchor="middle" font-family="Arial" font-size="8.5" fill="#1a237e">Brg 258° 25' 11.6"</text>
  <text x="0" y="8" text-anchor="middle" font-family="Arial" font-size="8.5" fill="#555">Dist 19' 6.2"</text>
</g>
<g transform="translate(163.9,338.8) rotate(-90.0)">
  <text x="0" y="-3" text-anchor="middle" font-family="Arial" font-size="8.5" fill="#1a237e">Brg 180° 00' 00.0"</text>
  <text x="0" y="8" text-anchor="middle" font-family="Arial" font-size="8.5" fill="#555">Dist 29' 0.0"</text>
</g>
<g transform="translate(250.3,525.9) rotate(-0.0)">
  <text x="0" y="-3" text-anchor="middle" font-family="Arial" font-size="8.5" fill="#1a237e">Brg 90° 00' 00.0"</text>
  <text x="0" y="8" text-anchor="middle" font-family="Arial" font-size="8.5" fill="#555">Dist 17' 10.9"</text>
</g>
<g transform="translate(475.3,516.3) rotate(33.4)">
  <text x="0" y="-3" text-anchor="middle" font-family="Arial" font-size="8.5" fill="#1a237e">Brg 56° 36' 31.0"</text>
  <text x="0" y="8" text-anchor="middle" font-family="Arial" font-size="8.5" fill="#555">Dist 6' 9.5"</text>
</g>
<g transform="translate(572.6,452.1) rotate(33.4)">
  <text x="0" y="-3" text-anchor="middle" font-family="Arial" font-size="8.5" fill="#1a237e">Brg 56° 36' 31.0"</text>
  <text x="0" y="8" text-anchor="middle" font-family="Arial" font-size="8.5" fill="#555">Dist 13' 2.5"</text>
</g>
<g transform="translate(623.9,376.1) rotate(-47.2)">
  <text x="0" y="-3" text-anchor="middle" font-family="Arial" font-size="8.5" fill="#1a237e">Brg 317° 11' 43.7"</text>
  <text x="0" y="8" text-anchor="middle" font-family="Arial" font-size="8.5" fill="#555">Dist 8' 5.5"</text>
</g>
<g transform="translate(403.3,137.8) rotate(-47.2)">
  <text x="0" y="-3" text-anchor="middle" font-family="Arial" font-size="8.5" fill="#1a237e">Brg 317° 11' 43.7"</text>
  <text x="0" y="8" text-anchor="middle" font-family="Arial" font-size="8.5" fill="#555">Dist 5' 9.0"</text>
</g>
<text x="528.4" y="284.9" text-anchor="end" font-family="Arial" font-size="8.5" fill="#0077B6">Arc 1: R=10'</text>
<text x="482.8" y="230.8" text-anchor="middle" font-family="Arial" font-size="8.5" fill="#0077B6">Arc 2: R=12' 6"</text>
<text x="419.6" y="523.3" text-anchor="start" font-family="Arial" font-size="8.5" fill="#2E7D32">Arc 3: R=11'</text>
</g>
<g opacity="0.2">
<polygon points="366.7,130.5 151.8,174.5 151.8,502.0 354.7,502.0 356.5,502.0 358.4,502.1 360.2,502.1 362.0,502.2 363.8,502.3 365.6,502.5 367.4,502.6 369.2,502.8 371.0,503.0 372.8,503.3 374.6,503.5 376.4,503.8 378.2,504.1 380.0,504.4 381.7,504.8 383.5,505.2 385.3,505.6 387.1,506.0 388.8,506.4 390.6,506.9 392.3,507.4 394.0,507.9 395.8,508.5 397.5,509.0 399.2,509.6 400.9,510.2 402.6,510.9 404.3,511.5 406.0,512.2 407.7,512.9 409.3,513.6 411.0,514.4 412.6,515.2 414.2,516.0 415.9,516.8 417.5,517.6 419.1,518.5 420.7,519.4 422.2,520.3 423.8,521.2 425.3,522.1 426.9,523.1 428.4,524.1 429.9,525.1 431.4,526.1 432.9,527.2 434.3,528.2 435.8,529.3 437.2,530.4 438.7,531.5 440.1,532.7 441.5,533.9 442.8,535.0 444.2,536.2 445.5,537.5 446.9,538.7 448.2,540.0 449.5,541.2 450.7,542.5 452.0,543.8 513.9,503.0 636.8,422.0 574.4,354.7 572.8,353.0 571.3,351.2 569.8,349.4 568.3,347.6 566.8,345.7 565.4,343.8 564.0,341.9 562.7,339.9 561.4,338.0 560.1,336.0 558.9,333.9 557.7,331.9 556.6,329.8 555.5,327.7 554.4,325.6 553.4,323.5 552.4,321.4 551.5,319.2 550.6,317.0 549.7,314.8 548.9,312.6 548.1,310.4 547.4,308.1 546.7,305.8 546.1,303.6 545.5,301.3 544.9,299.0 544.4,296.7 544.0,294.4 543.6,292.0 543.2,289.7 542.9,287.4 542.6,285.0 542.3,282.7 542.1,280.3 542.0,278.0 541.9,275.6 541.8,273.2 541.8,270.9 541.9,268.5 541.9,266.2 542.1,263.8 542.2,261.4 542.5,259.1 542.7,256.7 543.0,254.4 543.4,252.1 543.8,249.7 544.2,247.4 544.7,245.1 545.3,242.8 545.8,240.5 546.5,238.2 547.1,236.0 547.8,233.7 548.6,231.5 549.4,229.3 550.2,227.0 551.1,224.9 552.0,222.7 549.5,223.2 546.9,223.6 544.3,224.1 541.8,224.4 539.2,224.8 536.6,225.0 534.0,225.3 531.4,225.5 528.9,225.6 526.3,225.7 523.7,225.8 521.1,225.8 518.5,225.8 515.9,225.7 513.3,225.6 510.7,225.5 508.1,225.3 505.5,225.0 502.9,224.7 500.4,224.4 497.8,224.0 495.2,223.6 492.7,223.1 490.1,222.6 487.6,222.0 485.1,221.4 482.5,220.8 480.0,220.1 477.5,219.4 475.1,218.6 472.6,217.8 470.1,217.0 467.7,216.1 465.3,215.1 462.9,214.1 460.5,213.1 458.1,212.1 455.8,211.0 453.4,209.8 451.1,208.6 448.8,207.4 446.6,206.2 444.3,204.9 442.1,203.5 439.9,202.1 437.7,200.7 435.6,199.3 433.4,197.8 431.3,196.3 429.2,194.7 427.2,193.1 425.2,191.5 423.2,189.8 421.2,188.1 419.3,186.4 417.4,184.6 415.5,182.8 413.7,181.0 411.8,179.1 410.1,177.3" fill="rgba(255,152,0,0.3)" stroke="none"/>
<line x1="366.7" y1="130.5" x2="151.8" y2="174.5" stroke="#BF360C" stroke-width="1.5"/>
<line x1="151.8" y1="174.5" x2="151.8" y2="502.0" stroke="#BF360C" stroke-width="1.5"/>
<line x1="151.8" y1="502.0" x2="354.7" y2="502.0" stroke="#BF360C" stroke-width="1.5"/>
<line x1="452.0" y1="543.8" x2="513.9" y2="503.0" stroke="#BF360C" stroke-width="1.5"/>
<line x1="513.9" y1="503.0" x2="636.8" y2="422.0" stroke="#BF360C" stroke-width="1.5"/>
<line x1="636.8" y1="422.0" x2="574.4" y2="354.7" stroke="#BF360C" stroke-width="1.5"/>
<line x1="410.1" y1="177.3" x2="366.7" y2="130.5" stroke="#BF360C" stroke-width="1.5"/>
<polyline points="574.4,354.7 572.8,353.0 571.3,351.2 569.8,349.4 568.3,347.6 566.8,345.7 565.4,343.8 564.0,341.9 562.7,339.9 561.4,338.0 560.1,336.0 558.9,333.9 557.7,331.9 556.6,329.8 555.5,327.7 554.4,325.6 553.4,323.5 552.4,321.4 551.5,319.2 550.6,317.0 549.7,314.8 548.9,312.6 548.1,310.4 547.4,308.1 546.7,305.8 546.1,303.6 545.5,301.3 544.9,299.0 544.4,296.7 544.0,294.4 543.6,292.0 543.2,289.7 542.9,287.4 542.6,285.0 542.3,282.7 542.1,280.3 542.0,278.0 541.9,275.6 541.8,273.2 541.8,270.9 541.9,268.5 541.9,266.2 542.1,263.8 542.2,261.4 542.5,259.1 542.7,256.7 543.0,254.4 543.4,252.1 543.8,249.7 544.2,247.4 544.7,245.1 545.3,242.8 545.8,240.5 546.5,238.2 547.1,236.0 547.8,233.7 548.6,231.5 549.4,229.3 550.2,227.0 551.1,224.9 552.0,222.7" fill="none" stroke="#BF360C" stroke-width="1.5" stroke-linecap="round"/>
<polyline points="552.0,222.7 549.5,223.2 546.9,223.6 544.3,224.1 541.8,224.4 539.2,224.8 536.6,225.0 534.0,225.3 531.4,225.5 528.9,225.6 526.3,225.7 523.7,225.8 521.1,225.8 518.5,225.8 515.9,225.7 513.3,225.6 510.7,225.5 508.1,225.3 505.5,225.0 502.9,224.7 500.4,224.4 497.8,224.0 495.2,223.6 492.7,223.1 490.1,222.6 487.6,222.0 485.1,221.4 482.5,220.8 480.0,220.1 477.5,219.4 475.1,218.6 472.6,217.8 470.1,217.0 467.7,216.1 465.3,215.1 462.9,214.1 460.5,213.1 458.1,212.1 455.8,211.0 453.4,209.8 451.1,208.6 448.8,207.4 446.6,206.2 444.3,204.9 442.1,203.5 439.9,202.1 437.7,200.7 435.6,199.3 433.4,197.8 431.3,196.3 429.2,194.7 427.2,193.1 425.2,191.5 423.2,189.8 421.2,188.1 419.3,186.4 417.4,184.6 415.5,182.8 413.7,181.0 411.8,179.1 410.1,177.3" fill="none" stroke="#BF360C" stroke-width="1.5" stroke-linecap="round"/>
<polyline points="354.7,502.0 356.5,502.0 358.4,502.1 360.2,502.1 362.0,502.2 363.8,502.3 365.6,502.5 367.4,502.6 369.2,502.8 371.0,503.0 372.8,503.3 374.6,503.5 376.4,503.8 378.2,504.1 380.0,504.4 381.7,504.8 383.5,505.2 385.3,505.6 387.1,506.0 388.8,506.4 390.6,506.9 392.3,507.4 394.0,507.9 395.8,508.5 397.5,509.0 399.2,509.6 400.9,510.2 402.6,510.9 404.3,511.5 406.0,512.2 407.7,512.9 409.3,513.6 411.0,514.4 412.6,515.2 414.2,516.0 415.9,516.8 417.5,517.6 419.1,518.5 420.7,519.4 422.2,520.3 423.8,521.2 425.3,522.1 426.9,523.1 428.4,524.1 429.9,525.1 431.4,526.1 432.9,527.2 434.3,528.2 435.8,529.3 437.2,530.4 438.7,531.5 440.1,532.7 441.5,533.9 442.8,535.0 444.2,536.2 445.5,537.5 446.9,538.7 448.2,540.0 449.5,541.2 450.7,542.5 452.0,543.8" fill="none" stroke="#BF360C" stroke-width="1.5" stroke-linecap="round"/>
<circle cx="366.7" cy="130.5" r="2.5" fill="#BF360C"/>
<text x="366.7" y="144.5" text-anchor="middle" font-family="Arial" font-size="8.5" font-weight="bold" fill="#BF360C">PiOB</text>
<circle cx="151.8" cy="174.5" r="2.5" fill="#BF360C"/>
<text x="157.8" y="178.5" text-anchor="start" font-family="Arial" font-size="8.5" font-weight="bold" fill="#BF360C">Pi2</text>
<circle cx="151.8" cy="502.0" r="2.5" fill="#BF360C"/>
<text x="157.8" y="498.0" text-anchor="start" font-family="Arial" font-size="8.5" font-weight="bold" fill="#BF360C">Pi3</text>
<circle cx="354.7" cy="502.0" r="2.5" fill="#BF360C"/>
<text x="354.7" y="516.0" text-anchor="middle" font-family="Arial" font-size="8.5" font-weight="bold" fill="#BF360C">Ti3</text>
<circle cx="452.0" cy="543.8" r="2.5" fill="#BF360C"/>
<text x="444.0" y="537.8" text-anchor="end" font-family="Arial" font-size="8.5" font-weight="bold" fill="#BF360C">PiX</text>
<circle cx="513.9" cy="503.0" r="2.5" fill="#BF360C"/>
<text x="505.9" y="515.0" text-anchor="end" font-family="Arial" font-size="8.5" font-weight="bold" fill="#BF360C">Pi4</text>
<circle cx="636.8" cy="422.0" r="2.5" fill="#BF360C"/>
<text x="628.8" y="414.0" text-anchor="end" font-family="Arial" font-size="8.5" font-weight="bold" fill="#BF360C">Pi5</text>
<circle cx="574.4" cy="354.7" r="2.5" fill="#BF360C"/>
<text x="566.4" y="366.7" text-anchor="end" font-family="Arial" font-size="8.5" font-weight="bold" fill="#BF360C">Ti1</text>
<circle cx="552.0" cy="222.7" r="2.5" fill="#BF360C"/>
<text x="544.0" y="226.7" text-anchor="end" font-family="Arial" font-size="8.5" font-weight="bold" fill="#BF360C">Ai2</text>
<circle cx="410.1" cy="177.3" r="2.5" fill="#BF360C"/>
<text x="418.1" y="189.3" text-anchor="start" font-family="Arial" font-size="8.5" font-weight="bold" fill="#BF360C">Ti2</text>
</g>
<polygon points="163.4,228.1 163.4,266.9 163.4,267.6 163.4,268.3 163.3,269.0 163.2,269.7 163.1,270.4 163.0,271.1 162.8,271.8 162.6,272.5 162.4,273.1 162.2,273.8 161.9,274.5 161.6,275.1 161.3,275.7 161.0,276.3 160.6,277.0 160.3,277.6 159.9,278.1 159.4,278.7 159.0,279.2 158.6,279.8 157.9,280.5 157.3,281.3 156.7,282.1 156.2,282.9 155.7,283.7 155.2,284.6 154.7,285.5 154.3,286.3 153.9,287.2 153.5,288.2 153.2,289.1 152.9,290.0 152.6,291.0 152.4,291.9 152.2,292.9 152.0,293.9 151.9,294.8 151.8,295.8 151.8,296.8 151.8,297.8 151.8,492.3 151.8,493.1 151.9,493.8 152.0,494.6 152.2,495.3 152.5,496.0 152.8,496.7 153.2,497.4 153.6,498.0 154.1,498.6 154.6,499.2 155.2,499.7 155.8,500.2 156.4,500.6 157.1,501.0 157.8,501.3 158.5,501.6 159.2,501.8 159.9,501.9 160.7,502.0 161.5,502.0 379.3,502.0 379.6,502.0 379.8,502.0 380.0,502.0 380.3,502.1 380.5,502.1 380.7,502.1 381.0,502.1 381.2,502.1 381.4,502.1 381.7,502.2 381.9,502.2 382.1,502.2 382.3,502.3 382.6,502.3 382.8,502.3 383.0,502.4 383.3,502.4 383.5,502.5 383.7,502.5 384.0,502.6 384.2,502.6 384.4,502.7 384.6,502.8 384.9,502.8 385.1,502.9 385.3,503.0 385.5,503.0 385.7,503.1 386.0,503.2 386.2,503.3 386.4,503.4 386.6,503.5 386.8,503.5 387.1,503.6 387.3,503.7 387.5,503.8 387.7,503.9 387.9,504.0 388.1,504.1 388.3,504.2 388.5,504.3 388.7,504.5 388.9,504.6 389.1,504.7 389.3,504.8 389.5,504.9 389.7,505.1 389.9,505.2 390.1,505.3 390.3,505.4 390.5,505.6 390.7,505.7 390.9,505.9 391.1,506.0 391.3,506.1 391.5,506.3 391.6,506.4 391.8,506.6 392.0,506.7 392.2,506.9 392.4,507.1 392.7,507.3 392.9,507.5 393.2,507.7 393.4,507.9 393.7,508.1 394.0,508.3 394.2,508.5 394.5,508.7 394.8,508.9 395.0,509.1 395.3,509.3 395.6,509.4 395.8,509.6 396.1,509.8 396.4,510.0 396.7,510.1 397.0,510.3 397.3,510.4 397.6,510.6 397.8,510.7 398.1,510.9 398.4,511.0 398.7,511.2 399.0,511.3 399.3,511.4 399.6,511.6 399.9,511.7 400.2,511.8 400.5,511.9 400.9,512.0 401.2,512.2 401.5,512.3 401.8,512.4 402.1,512.5 402.4,512.6 402.7,512.6 403.0,512.7 403.4,512.8 403.7,512.9 404.0,513.0 404.3,513.0 404.6,513.1 405.0,513.2 405.3,513.2 405.6,513.3 405.9,513.4 406.2,513.4 406.6,513.4 406.9,513.5 407.2,513.5 407.5,513.6 407.9,513.6 408.2,513.6 408.5,513.6 408.9,513.7 409.2,513.7 409.5,513.7 409.8,513.7 410.2,513.7 480.1,513.7 480.8,513.7 481.5,513.6 482.2,513.6 482.9,513.5 483.6,513.5 484.3,513.4 485.0,513.2 485.7,513.1 486.4,512.9 487.1,512.8 487.8,512.6 488.5,512.4 489.1,512.1 489.8,511.9 490.5,511.6 491.1,511.3 491.8,511.0 492.4,510.7 493.0,510.4 493.7,510.0 570.9,465.5 572.0,464.7 573.0,463.9 574.0,463.0 575.0,462.1 576.0,461.1 576.8,460.1 577.7,459.1 578.4,458.0 579.2,456.8 579.8,455.7 580.4,454.5 581.0,453.2 581.5,452.0 581.9,450.7 582.3,449.4 582.6,448.1 582.8,446.8 583.0,445.4 583.0,444.1 583.1,442.8 583.1,352.4 583.1,352.1 583.1,351.7 583.1,351.3 583.1,351.0 583.1,350.6 583.1,350.3 583.0,349.9 583.0,349.5 583.0,349.2 583.0,348.8 583.0,348.5 583.0,348.1 582.9,347.7 582.9,347.4 582.9,347.0 582.9,346.7 582.9,346.3 582.8,345.9 582.8,345.6 582.8,345.2 582.7,344.9 582.7,344.5 582.7,344.1 582.6,343.8 582.6,343.4 582.6,343.1 582.5,342.7 582.5,342.4 582.4,342.0 582.4,341.6 582.3,341.3 582.3,340.9 582.2,340.6 582.2,340.2 582.1,339.9 582.1,339.5 582.0,339.1 582.0,338.8 581.9,338.4 581.8,338.1 581.8,337.7 581.7,337.4 581.6,337.0 581.6,336.7 581.5,336.3 581.4,336.0 581.4,335.6 581.3,335.3 581.2,334.9 581.1,334.5 581.0,334.2 581.0,333.8 580.9,333.5 580.8,333.1 580.7,332.8 580.6,332.4 580.5,332.1 580.5,331.7 580.4,331.4 580.3,331.1 550.8,221.0 550.4,219.8 550.0,218.5 549.5,217.3 549.0,216.2 548.4,215.0 547.7,213.9 547.0,212.8 546.2,211.7 545.4,210.7 544.6,209.7 543.7,208.8 542.7,207.9 541.7,207.0 540.7,206.2 539.6,205.5 538.5,204.8 537.4,204.1 536.2,203.5 535.0,203.0 533.8,202.5 532.6,202.1 531.3,201.7 530.1,201.4 528.8,201.2 527.5,201.0 526.2,200.9 524.9,200.9 523.6,200.9 522.3,201.0 521.0,201.1 519.7,201.3 518.4,201.6 517.1,201.9 515.9,202.3 514.7,202.7 513.5,203.2 512.3,203.8 511.1,204.4 510.0,205.1 508.9,205.8 507.9,206.6 506.9,207.4 505.9,208.3 504.9,209.2 504.1,210.1 503.2,211.1 502.4,212.2 501.7,213.3 501.0,214.4 500.4,215.5 499.8,216.7 499.3,217.9 498.8,219.1 498.4,220.3 498.1,221.6 497.8,222.9 497.6,224.2 497.4,225.5 497.3,226.8 497.3,228.1 497.3,228.2 497.3,228.4 497.3,228.5 497.2,228.7 497.2,228.8 497.1,229.0 497.0,229.1 496.9,229.2 496.8,229.3 496.7,229.4 496.6,229.6 496.5,229.6 496.4,229.7 496.3,229.8 496.1,229.9 496.0,229.9 495.8,230.0 495.7,230.0 495.5,230.0 495.4,230.0 289.7,230.0 289.5,230.0 289.4,230.0 289.2,230.0 289.1,229.9 289.0,229.9 288.8,229.8 288.7,229.7 288.6,229.6 288.4,229.6 288.3,229.4 288.2,229.3 288.1,229.2 288.0,229.1 288.0,229.0 287.9,228.8 287.9,228.7 287.8,228.5 287.8,228.4 287.8,228.2 287.8,228.1 287.7,225.9 287.4,223.8 287.0,221.7 286.4,219.7 285.7,217.7 284.8,215.7 283.7,213.9 282.6,212.1 281.2,210.4 279.8,208.8 278.2,207.4 276.5,206.1 274.8,204.9 272.9,203.8 271.0,202.9 269.0,202.2 266.9,201.6 264.8,201.2 262.7,201.0 260.6,200.9 190.6,200.9 188.5,201.0 186.4,201.2 184.3,201.6 182.2,202.2 180.2,202.9 178.3,203.8 176.4,204.9 174.6,206.1 172.9,207.4 171.4,208.8 169.9,210.4 168.6,212.1 167.4,213.9 166.4,215.7 165.5,217.7 164.7,219.7 164.2,221.7 163.7,223.8 163.5,225.9" fill="rgba(200,230,255,0.25)" stroke="none"/>
<line x1="163.4" y1="228.1" x2="163.4" y2="266.9" stroke="#333" stroke-width="2.0"/>
<line x1="151.8" y1="297.8" x2="151.8" y2="492.3" stroke="#333" stroke-width="2.0"/>
<line x1="161.5" y1="502.0" x2="379.3" y2="502.0" stroke="#333" stroke-width="2.0"/>
<line x1="410.2" y1="513.7" x2="480.1" y2="513.7" stroke="#333" stroke-width="2.0"/>
<line x1="493.7" y1="510.0" x2="570.9" y2="465.5" stroke="#333" stroke-width="2.0"/>
<line x1="583.1" y1="442.8" x2="583.1" y2="352.4" stroke="#333" stroke-width="2.0"/>
<line x1="580.3" y1="331.1" x2="550.8" y2="221.0" stroke="#333" stroke-width="2.0"/>
<line x1="495.4" y1="230.0" x2="289.7" y2="230.0" stroke="#333" stroke-width="2.0"/>
<line x1="260.6" y1="200.9" x2="190.6" y2="200.9" stroke="#333" stroke-width="2.0"/>
<polyline points="163.4,266.9 163.4,267.6 163.4,268.3 163.3,269.0 163.2,269.7 163.1,270.4 163.0,271.1 162.8,271.8 162.6,272.5 162.4,273.1 162.2,273.8 161.9,274.5 161.6,275.1 161.3,275.7 161.0,276.3 160.6,277.0 160.3,277.6 159.9,278.1 159.4,278.7 159.0,279.2 158.6,279.8" fill="none" stroke="#333" stroke-width="2.0" stroke-linecap="round"/>
<polyline points="158.6,279.8 157.9,280.5 157.3,281.3 156.7,282.1 156.2,282.9 155.7,283.7 155.2,284.6 154.7,285.5 154.3,286.3 153.9,287.2 153.5,288.2 153.2,289.1 152.9,290.0 152.6,291.0 152.4,291.9 152.2,292.9 152.0,293.9 151.9,294.8 151.8,295.8 151.8,296.8 151.8,297.8" fill="none" stroke="#333" stroke-width="2.0" stroke-linecap="round"/>
<polyline points="583.1,352.4 583.1,352.1 583.1,351.7 583.1,351.3 583.1,351.0 583.1,350.6 583.1,350.3 583.0,349.9 583.0,349.5 583.0,349.2 583.0,348.8 583.0,348.5 583.0,348.1 582.9,347.7 582.9,347.4 582.9,347.0 582.9,346.7 582.9,346.3 582.8,345.9 582.8,345.6 582.8,345.2 582.7,344.9 582.7,344.5 582.7,344.1 582.6,343.8 582.6,343.4 582.6,343.1 582.5,342.7 582.5,342.4 582.4,342.0 582.4,341.6 582.3,341.3 582.3,340.9 582.2,340.6 582.2,340.2 582.1,339.9 582.1,339.5 582.0,339.1 582.0,338.8 581.9,338.4 581.8,338.1 581.8,337.7 581.7,337.4 581.6,337.0 581.6,336.7 581.5,336.3 581.4,336.0 581.4,335.6 581.3,335.3 581.2,334.9 581.1,334.5 581.0,334.2 581.0,333.8 580.9,333.5 580.8,333.1 580.7,332.8 580.6,332.4 580.5,332.1 580.5,331.7 580.4,331.4 580.3,331.1" fill="none" stroke="#333" stroke-width="2.0" stroke-linecap="round"/>
<polyline points="379.3,502.0 379.6,502.0 379.8,502.0 380.0,502.0 380.3,502.1 380.5,502.1 380.7,502.1 381.0,502.1 381.2,502.1 381.4,502.1 381.7,502.2 381.9,502.2 382.1,502.2 382.3,502.3 382.6,502.3 382.8,502.3 383.0,502.4 383.3,502.4 383.5,502.5 383.7,502.5 384.0,502.6 384.2,502.6 384.4,502.7 384.6,502.8 384.9,502.8 385.1,502.9 385.3,503.0 385.5,503.0 385.7,503.1 386.0,503.2 386.2,503.3 386.4,503.4 386.6,503.5 386.8,503.5 387.1,503.6 387.3,503.7 387.5,503.8 387.7,503.9 387.9,504.0 388.1,504.1 388.3,504.2 388.5,504.3 388.7,504.5 388.9,504.6 389.1,504.7 389.3,504.8 389.5,504.9 389.7,505.1 389.9,505.2 390.1,505.3 390.3,505.4 390.5,505.6 390.7,505.7 390.9,505.9 391.1,506.0 391.3,506.1 391.5,506.3 391.6,506.4 391.8,506.6 392.0,506.7 392.2,506.9" fill="none" stroke="#2E7D32" stroke-width="2.5" stroke-linecap="round"/>
<polyline points="392.2,506.9 392.4,507.1 392.7,507.3 392.9,507.5 393.2,507.7 393.4,507.9 393.7,508.1 394.0,508.3 394.2,508.5 394.5,508.7 394.8,508.9 395.0,509.1 395.3,509.3 395.6,509.4 395.8,509.6 396.1,509.8 396.4,510.0 396.7,510.1 397.0,510.3 397.3,510.4 397.6,510.6 397.8,510.7 398.1,510.9 398.4,511.0 398.7,511.2 399.0,511.3 399.3,511.4 399.6,511.6 399.9,511.7 400.2,511.8 400.5,511.9 400.9,512.0 401.2,512.2 401.5,512.3 401.8,512.4 402.1,512.5 402.4,512.6 402.7,512.6 403.0,512.7 403.4,512.8 403.7,512.9 404.0,513.0 404.3,513.0 404.6,513.1 405.0,513.2 405.3,513.2 405.6,513.3 405.9,513.4 406.2,513.4 406.6,513.4 406.9,513.5 407.2,513.5 407.5,513.6 407.9,513.6 408.2,513.6 408.5,513.6 408.9,513.7 409.2,513.7 409.5,513.7 409.8,513.7 410.2,513.7" fill="none" stroke="#2E7D32" stroke-width="2.5" stroke-linecap="round"/>
<polyline points="480.1,513.7 480.8,513.7 481.5,513.6 482.2,513.6 482.9,513.5 483.6,513.5 484.3,513.4 485.0,513.2 485.7,513.1 486.4,512.9 487.1,512.8 487.8,512.6 488.5,512.4 489.1,512.1 489.8,511.9 490.5,511.6 491.1,511.3 491.8,511.0 492.4,510.7 493.0,510.4 493.7,510.0" fill="none" stroke="#2E7D32" stroke-width="2.5" stroke-linecap="round"/>
<polyline points="570.9,465.5 572.0,464.7 573.0,463.9 574.0,463.0 575.0,462.1 576.0,461.1 576.8,460.1 577.7,459.1 578.4,458.0 579.2,456.8 579.8,455.7 580.4,454.5 581.0,453.2 581.5,452.0 581.9,450.7 582.3,449.4 582.6,448.1 582.8,446.8 583.0,445.4 583.0,444.1 583.1,442.8" fill="none" stroke="#333" stroke-width="2.0" stroke-linecap="round"/>
<polyline points="151.8,492.3 151.8,493.1 151.9,493.8 152.0,494.6 152.2,495.3 152.5,496.0 152.8,496.7 153.2,497.4 153.6,498.0 154.1,498.6 154.6,499.2 155.2,499.7 155.8,500.2 156.4,500.6 157.1,501.0 157.8,501.3 158.5,501.6 159.2,501.8 159.9,501.9 160.7,502.0 161.5,502.0" fill="none" stroke="#333" stroke-width="2.0" stroke-linecap="round"/>
<polyline points="190.6,200.9 188.5,201.0 186.4,201.2 184.3,201.6 182.2,202.2 180.2,202.9 178.3,203.8 176.4,204.9 174.6,206.1 172.9,207.4 171.4,208.8 169.9,210.4 168.6,212.1 167.4,213.9 166.4,215.7 165.5,217.7 164.7,219.7 164.2,221.7 163.7,223.8 163.5,225.9 163.4,228.1" fill="none" stroke="#333" stroke-width="2.0" stroke-linecap="round"/>
<polyline points="289.7,230.0 289.5,230.0 289.4,230.0 289.2,230.0 289.1,229.9 289.0,229.9 288.8,229.8 288.7,229.7 288.6,229.6 288.4,229.6 288.3,229.4 288.2,229.3 288.1,229.2 288.0,229.1 288.0,229.0 287.9,228.8 287.9,228.7 287.8,228.5 287.8,228.4 287.8,228.2 287.8,228.1" fill="none" stroke="#333" stroke-width="2.0" stroke-linecap="round"/>
<polyline points="287.8,228.1 287.7,225.9 287.4,223.8 287.0,221.7 286.4,219.7 285.7,217.7 284.8,215.7 283.7,213.9 282.6,212.1 281.2,210.4 279.8,208.8 278.2,207.4 276.5,206.1 274.8,204.9 272.9,203.8 271.0,202.9 269.0,202.2 266.9,201.6 264.8,201.2 262.7,201.0 260.6,200.9" fill="none" stroke="#333" stroke-width="2.0" stroke-linecap="round"/>
<polyline points="550.8,221.0 550.4,219.8 550.0,218.5 549.5,217.3 549.0,216.2 548.4,215.0 547.7,213.9 547.0,212.8 546.2,211.7 545.4,210.7 544.6,209.7 543.7,208.8 542.7,207.9 541.7,207.0 540.7,206.2 539.6,205.5 538.5,204.8 537.4,204.1 536.2,203.5 535.0,203.0 533.8,202.5 532.6,202.1 531.3,201.7 530.1,201.4 528.8,201.2 527.5,201.0 526.2,200.9 524.9,200.9 523.6,200.9 522.3,201.0 521.0,201.1 519.7,201.3 518.4,201.6 517.1,201.9 515.9,202.3 514.7,202.7 513.5,203.2 512.3,203.8 511.1,204.4 510.0,205.1 508.9,205.8 507.9,206.6 506.9,207.4 505.9,208.3 504.9,209.2 504.1,210.1 503.2,211.1 502.4,212.2 501.7,213.3 501.0,214.4 500.4,215.5 499.8,216.7 499.3,217.9 498.8,219.1 498.4,220.3 498.1,221.6 497.8,222.9 497.6,224.2 497.4,225.5 497.3,226.8 497.3,228.1" fill="none" stroke="#333" stroke-width="2.0" stroke-linecap="round"/>
<polyline points="497.3,228.1 497.3,228.2 497.3,228.4 497.3,228.5 497.2,228.7 497.2,228.8 497.1,229.0 497.0,229.1 496.9,229.2 496.8,229.3 496.7,229.4 496.6,229.6 496.5,229.6 496.4,229.7 496.3,229.8 496.1,229.9 496.0,229.9 495.8,230.0 495.7,230.0 495.5,230.0 495.4,230.0" fill="none" stroke="#333" stroke-width="2.0" stroke-linecap="round"/>
<g clip-path="url(#page)">
<line x1="144.0" y1="266.9" x2="163.4" y2="266.9" stroke="#333" stroke-width="0.6" stroke-dasharray="4,3"/>
<line x1="140.0" y1="266.9" x2="148.0" y2="266.9" stroke="#333" stroke-width="0.7"/>
<line x1="144.0" y1="262.9" x2="144.0" y2="270.9" stroke="#333" stroke-width="0.7"/>
<line x1="179.0" y1="297.8" x2="151.8" y2="297.8" stroke="#333" stroke-width="0.6" stroke-dasharray="4,3"/>
<line x1="175.0" y1="297.8" x2="183.0" y2="297.8" stroke="#333" stroke-width="0.7"/>
<line x1="179.0" y1="293.8" x2="179.0" y2="301.8" stroke="#333" stroke-width="0.7"/>
<line x1="379.3" y1="521.5" x2="379.3" y2="502.0" stroke="#2E7D32" stroke-width="0.6" stroke-dasharray="4,3"/>
<line x1="375.3" y1="521.5" x2="383.3" y2="521.5" stroke="#2E7D32" stroke-width="0.7"/>
<line x1="379.3" y1="517.5" x2="379.3" y2="525.5" stroke="#2E7D32" stroke-width="0.7"/>
<line x1="161.5" y1="492.3" x2="151.8" y2="492.3" stroke="#333" stroke-width="0.6" stroke-dasharray="4,3"/>
<line x1="157.5" y1="492.3" x2="165.5" y2="492.3" stroke="#333" stroke-width="0.7"/>
<line x1="161.5" y1="488.3" x2="161.5" y2="496.3" stroke="#333" stroke-width="0.7"/>
<line x1="190.6" y1="228.1" x2="190.6" y2="200.9" stroke="#333" stroke-width="0.6" stroke-dasharray="4,3"/>
<line x1="186.6" y1="228.1" x2="194.6" y2="228.1" stroke="#333" stroke-width="0.7"/>
<line x1="190.6" y1="224.1" x2="190.6" y2="232.1" stroke="#333" stroke-width="0.7"/>
<line x1="410.2" y1="486.5" x2="392.2" y2="506.9" stroke="#2E7D32" stroke-width="0.6" stroke-dasharray="4,3"/>
<line x1="406.2" y1="486.5" x2="414.2" y2="486.5" stroke="#2E7D32" stroke-width="0.7"/>
<line x1="410.2" y1="482.5" x2="410.2" y2="490.5" stroke="#2E7D32" stroke-width="0.7"/>
<line x1="480.1" y1="486.5" x2="480.1" y2="513.7" stroke="#2E7D32" stroke-width="0.6" stroke-dasharray="4,3"/>
<line x1="476.1" y1="486.5" x2="484.1" y2="486.5" stroke="#2E7D32" stroke-width="0.7"/>
<line x1="480.1" y1="482.5" x2="480.1" y2="490.5" stroke="#2E7D32" stroke-width="0.7"/>
<line x1="555.9" y1="442.8" x2="570.9" y2="465.5" stroke="#333" stroke-width="0.6" stroke-dasharray="4,3"/>
<line x1="551.9" y1="442.8" x2="559.9" y2="442.8" stroke="#333" stroke-width="0.7"/>
<line x1="555.9" y1="438.8" x2="555.9" y2="446.8" stroke="#333" stroke-width="0.7"/>
<line x1="260.6" y1="228.1" x2="260.6" y2="200.9" stroke="#333" stroke-width="0.6" stroke-dasharray="4,3"/>
<line x1="256.6" y1="228.1" x2="264.6" y2="228.1" stroke="#333" stroke-width="0.7"/>
<line x1="260.6" y1="224.1" x2="260.6" y2="232.1" stroke="#333" stroke-width="0.7"/>
<line x1="289.7" y1="228.1" x2="287.8" y2="228.1" stroke="#333" stroke-width="0.6" stroke-dasharray="4,3"/>
<line x1="285.7" y1="228.1" x2="293.7" y2="228.1" stroke="#333" stroke-width="0.7"/>
<line x1="289.7" y1="224.1" x2="289.7" y2="232.1" stroke="#333" stroke-width="0.7"/>
<line x1="524.5" y1="228.1" x2="497.3" y2="228.1" stroke="#333" stroke-width="0.6" stroke-dasharray="4,3"/>
<line x1="520.5" y1="228.1" x2="528.5" y2="228.1" stroke="#333" stroke-width="0.7"/>
<line x1="524.5" y1="224.1" x2="524.5" y2="232.1" stroke="#333" stroke-width="0.7"/>
<line x1="495.4" y1="228.1" x2="495.4" y2="230.0" stroke="#333" stroke-width="0.6" stroke-dasharray="4,3"/>
<line x1="491.4" y1="228.1" x2="499.4" y2="228.1" stroke="#333" stroke-width="0.7"/>
<line x1="495.4" y1="224.1" x2="495.4" y2="232.1" stroke="#333" stroke-width="0.7"/>
<line x1="500.5" y1="352.4" x2="583.1" y2="352.4" stroke="#333" stroke-width="0.6" stroke-dasharray="4,3"/>
<line x1="496.5" y1="352.4" x2="504.5" y2="352.4" stroke="#333" stroke-width="0.7"/>
<line x1="500.5" y1="348.4" x2="500.5" y2="356.4" stroke="#333" stroke-width="0.7"/>
</g>
<circle cx="163.4" cy="228.1" r="3.5" fill="#d32f2f"/>
<text x="155.4" y="222.1" text-anchor="end" font-family="Arial" font-size="10" font-weight="bold" fill="#d32f2f">O2</text>
<circle cx="163.4" cy="266.9" r="3.5" fill="#d32f2f"/>
<text x="155.4" y="262.9" text-anchor="end" font-family="Arial" font-size="10" font-weight="bold" fill="#d32f2f">O1c</text>
<circle cx="158.6" cy="279.8" r="3.5" fill="#d32f2f"/>
<text x="148.6" y="289.8" text-anchor="end" font-family="Arial" font-size="10" font-weight="bold" fill="#d32f2f">O1b</text>
<circle cx="151.8" cy="297.8" r="3.5" fill="#d32f2f"/>
<text x="143.8" y="293.8" text-anchor="end" font-family="Arial" font-size="10" font-weight="bold" fill="#d32f2f">O1a</text>
<circle cx="151.8" cy="492.3" r="3.5" fill="#d32f2f"/>
<text x="143.8" y="488.3" text-anchor="end" font-family="Arial" font-size="10" font-weight="bold" fill="#d32f2f">O1</text>
<circle cx="161.5" cy="502.0" r="3.5" fill="#d32f2f"/>
<text x="153.5" y="512.0" text-anchor="end" font-family="Arial" font-size="10" font-weight="bold" fill="#d32f2f">O0</text>
<circle cx="379.3" cy="502.0" r="3.5" fill="#2E7D32"/>
<text x="379.3" y="490.0" text-anchor="middle" font-family="Arial" font-size="10" font-weight="bold" fill="#2E7D32">O15</text>
<circle cx="392.2" cy="506.9" r="3.5" fill="#2E7D32"/>
<text x="400.2" y="500.9" text-anchor="start" font-family="Arial" font-size="10" font-weight="bold" fill="#2E7D32">O14</text>
<circle cx="410.2" cy="513.7" r="3.5" fill="#2E7D32"/>
<text x="418.2" y="525.7" text-anchor="start" font-family="Arial" font-size="10" font-weight="bold" fill="#2E7D32">O13b</text>
<circle cx="480.1" cy="513.7" r="3.5" fill="#2E7D32"/>
<text x="488.1" y="525.7" text-anchor="start" font-family="Arial" font-size="10" font-weight="bold" fill="#2E7D32">O13a</text>
<circle cx="493.7" cy="510.0" r="3.5" fill="#2E7D32"/>
<text x="503.7" y="520.0" text-anchor="start" font-family="Arial" font-size="10" font-weight="bold" fill="#2E7D32">O13</text>
<circle cx="570.9" cy="465.5" r="3.5" fill="#d32f2f"/>
<text x="578.9" y="469.5" text-anchor="start" font-family="Arial" font-size="10" font-weight="bold" fill="#d32f2f">O12</text>
<circle cx="583.1" cy="442.8" r="3.5" fill="#d32f2f"/>
<text x="591.1" y="446.8" text-anchor="start" font-family="Arial" font-size="10" font-weight="bold" fill="#d32f2f">O11</text>
<circle cx="583.1" cy="352.4" r="3.5" fill="#d32f2f"/>
<text x="593.1" y="348.4" text-anchor="start" font-family="Arial" font-size="10" font-weight="bold" fill="#d32f2f">O10a</text>
<circle cx="580.3" cy="331.1" r="3.5" fill="#d32f2f"/>
<text x="588.3" y="339.1" text-anchor="start" font-family="Arial" font-size="10" font-weight="bold" fill="#d32f2f">O9</text>
<circle cx="550.8" cy="221.0" r="3.5" fill="#d32f2f"/>
<text x="558.8" y="233.0" text-anchor="start" font-family="Arial" font-size="10" font-weight="bold" fill="#d32f2f">O8</text>
<circle cx="497.3" cy="228.1" r="3.5" fill="#d32f2f"/>
<text x="505.3" y="240.1" text-anchor="start" font-family="Arial" font-size="10" font-weight="bold" fill="#d32f2f">O7</text>
<circle cx="495.4" cy="230.0" r="3.5" fill="#d32f2f"/>
<text x="487.4" y="224.0" text-anchor="end" font-family="Arial" font-size="10" font-weight="bold" fill="#d32f2f">O6a</text>
<circle cx="289.7" cy="230.0" r="3.5" fill="#d32f2f"/>
<text x="289.7" y="244.0" text-anchor="middle" font-family="Arial" font-size="10" font-weight="bold" fill="#d32f2f">O6</text>
<circle cx="287.8" cy="228.1" r="3.5" fill="#d32f2f"/>
<text x="279.8" y="224.1" text-anchor="end" font-family="Arial" font-size="10" font-weight="bold" fill="#d32f2f">O5</text>
<circle cx="260.6" cy="200.9" r="3.5" fill="#d32f2f"/>
<text x="260.6" y="188.9" text-anchor="middle" font-family="Arial" font-size="10" font-weight="bold" fill="#d32f2f">O4</text>
<circle cx="190.6" cy="200.9" r="3.5" fill="#d32f2f"/>
<text x="180.6" y="194.9" text-anchor="end" font-family="Arial" font-size="10" font-weight="bold" fill="#d32f2f">O3</text>
<g transform="translate(181.4,247.5) rotate(-90.0)">
  <text x="0" y="-3" text-anchor="middle" font-family="Arial" font-size="8.5" fill="#1a237e">180.00°</text>
  <text x="0" y="8" text-anchor="middle" font-family="Arial" font-size="8.5" fill="#555">3' 4.0"</text>
</g>
<g transform="translate(169.8,395.0) rotate(-90.0)">
  <text x="0" y="-3" text-anchor="middle" font-family="Arial" font-size="8.5" fill="#1a237e">180.00°</text>
  <text x="0" y="8" text-anchor="middle" font-family="Arial" font-size="8.5" fill="#555">16' 8.3"</text>
</g>
<g transform="translate(270.4,520.0) rotate(0.0)">
  <text x="0" y="-3" text-anchor="middle" font-family="Arial" font-size="8.5" fill="#1a237e">90.00°</text>
  <text x="0" y="8" text-anchor="middle" font-family="Arial" font-size="8.5" fill="#555">18' 8.3"</text>
</g>
<g transform="translate(445.1,529.7) rotate(-0.0)">
  <text x="0" y="-3" text-anchor="middle" font-family="Arial" font-size="8.5" fill="#1a237e">90.00°</text>
  <text x="0" y="8" text-anchor="middle" font-family="Arial" font-size="8.5" fill="#555">5' 12.0"</text>
</g>
<g transform="translate(524.3,473.9) rotate(30.0)">
  <text x="0" y="-3" text-anchor="middle" font-family="Arial" font-size="8.5" fill="#1a237e">60.00°</text>
  <text x="0" y="8" text-anchor="middle" font-family="Arial" font-size="8.5" fill="#555">7' 7.8"</text>
</g>
<g transform="translate(599.1,397.6) rotate(90.0)">
  <text x="0" y="-3" text-anchor="middle" font-family="Arial" font-size="8.5" fill="#1a237e">0.00°</text>
  <text x="0" y="8" text-anchor="middle" font-family="Arial" font-size="8.5" fill="#555">7' 9.0"</text>
</g>
<g transform="translate(581.0,271.9) rotate(-75.0)">
  <text x="0" y="-3" text-anchor="middle" font-family="Arial" font-size="8.5" fill="#1a237e">345.00°</text>
  <text x="0" y="8" text-anchor="middle" font-family="Arial" font-size="8.5" fill="#555">9' 9.2"</text>
</g>
<g transform="translate(392.5,214.0) rotate(0.0)">
  <text x="0" y="-3" text-anchor="middle" font-family="Arial" font-size="8.5" fill="#1a237e">270.00°</text>
  <text x="0" y="8" text-anchor="middle" font-family="Arial" font-size="8.5" fill="#555">17' 7.7"</text>
</g>
<g transform="translate(225.6,184.9) rotate(0.0)">
  <text x="0" y="-3" text-anchor="middle" font-family="Arial" font-size="8.5" fill="#1a237e">270.00°</text>
  <text x="0" y="8" text-anchor="middle" font-family="Arial" font-size="8.5" fill="#555">6' 0.0"</text>
</g>
<text x="533.0" y="201.1" text-anchor="start" font-family="Arial" font-size="8.5" fill="#333">Turn R=28"</text>
<text x="533.0" y="212.1" text-anchor="start" font-family="Arial" font-size="8.5" fill="#333">165.0° CCW</text>
<text x="486.7" y="219.4" text-anchor="end" font-family="Arial" font-size="8.5" fill="#333">Fillet R=2"</text>
<text x="486.7" y="230.4" text-anchor="end" font-family="Arial" font-size="8.5" fill="#333">90.0°</text>
<text x="398.2" y="507.3" text-anchor="start" font-family="Arial" font-size="8.5" fill="#2E7D32">Wall R=20"</text>
<text x="398.2" y="518.3" text-anchor="start" font-family="Arial" font-size="8.5" fill="#2E7D32">41.4° CW</text>
<text x="412.5" y="501.9" text-anchor="start" font-family="Arial" font-size="8.5" fill="#2E7D32">Wall R=28"</text>
<text x="412.5" y="512.9" text-anchor="start" font-family="Arial" font-size="8.5" fill="#2E7D32">41.4°</text>
<text x="477.1" y="502.8" text-anchor="end" font-family="Arial" font-size="8.5" fill="#2E7D32">Wall R=28"</text>
<text x="477.1" y="513.8" text-anchor="end" font-family="Arial" font-size="8.5" fill="#2E7D32">30.0°</text>
<text x="594.4" y="341.6" text-anchor="start" font-family="Arial" font-size="8.5" fill="#333">Turn R=85"</text>
<text x="594.4" y="352.6" text-anchor="start" font-family="Arial" font-size="8.5" fill="#333">15.0°</text>
<text x="589.8" y="445.7" text-anchor="start" font-family="Arial" font-size="8.5" fill="#333">Fillet R=28"</text>
<text x="589.8" y="456.7" text-anchor="start" font-family="Arial" font-size="8.5" fill="#333">56.6°</text>
<text x="152.2" y="263.8" text-anchor="end" font-family="Arial" font-size="8.5" fill="#333">Arc R=20"</text>
<text x="152.2" y="274.8" text-anchor="end" font-family="Arial" font-size="8.5" fill="#333">41.4° CW</text>
<text x="165.5" y="288.2" text-anchor="start" font-family="Arial" font-size="8.5" fill="#333">Arc R=28"</text>
<text x="165.5" y="299.2" text-anchor="start" font-family="Arial" font-size="8.5" fill="#333">41.4° CCW</text>
<text x="144.6" y="513.2" text-anchor="end" font-family="Arial" font-size="8.5" fill="#333">Fillet R=10"</text>
<text x="144.6" y="524.2" text-anchor="end" font-family="Arial" font-size="8.5" fill="#333">90.0°</text>
<text x="161.4" y="194.8" text-anchor="end" font-family="Arial" font-size="8.5" fill="#333">Fillet R=28"</text>
<text x="161.4" y="205.8" text-anchor="end" font-family="Arial" font-size="8.5" fill="#333">90.0°</text>
<text x="278.3" y="243.4" text-anchor="end" font-family="Arial" font-size="8.5" fill="#333">Turn R=2"</text>
<text x="278.3" y="254.4" text-anchor="end" font-family="Arial" font-size="8.5" fill="#333">90.0°</text>
<text x="291.8" y="208.8" text-anchor="start" font-family="Arial" font-size="8.5" fill="#333">Turn R=28"</text>
<text x="291.8" y="219.8" text-anchor="start" font-family="Arial" font-size="8.5" fill="#333">90.0°</text>
<g opacity="0.5">
<path d="M 163.4,228.1 L 163.4,266.9 L 163.4,267.6 L 163.4,268.3 L 163.3,269.0 L 163.2,269.7 L 163.1,270.4 L 163.0,271.1 L 162.8,271.8 L 162.6,272.5 L 162.4,273.1 L 162.2,273.8 L 161.9,274.5 L 161.6,275.1 L 161.3,275.7 L 161.0,276.3 L 160.6,277.0 L 160.3,277.6 L 159.9,278.1 L 159.4,278.7 L 159.0,279.2 L 158.6,279.8 L 157.9,280.5 L 157.3,281.3 L 156.7,282.1 L 156.2,282.9 L 155.7,283.7 L 155.2,284.6 L 154.7,285.5 L 154.3,286.3 L 153.9,287.2 L 153.5,288.2 L 153.2,289.1 L 152.9,290.0 L 152.6,291.0 L 152.4,291.9 L 152.2,292.9 L 152.0,293.9 L 151.9,294.8 L 151.8,295.8 L 151.8,296.8 L 151.8,297.8 L 151.8,492.3 L 151.8,493.1 L 151.9,493.8 L 152.0,494.6 L 152.2,495.3 L 152.5,496.0 L 152.8,496.7 L 153.2,497.4 L 153.6,498.0 L 154.1,498.6 L 154.6,499.2 L 155.2,499.7 L 155.8,500.2 L 156.4,500.6 L 157.1,501.0 L 157.8,501.3 L 158.5,501.6 L 159.2,501.8 L 159.9,501.9 L 160.7,502.0 L 161.5,502.0 L 379.3,502.0 L 379.6,502.0 L 379.8,502.0 L 380.0,502.0 L 380.3,502.1 L 380.5,502.1 L 380.7,502.1 L 381.0,502.1 L 381.2,502.1 L 381.4,502.1 L 381.7,502.2 L 381.9,502.2 L 382.1,502.2 L 382.3,502.3 L 382.6,502.3 L 382.8,502.3 L 383.0,502.4 L 383.3,502.4 L 383.5,502.5 L 383.7,502.5 L 384.0,502.6 L 384.2,502.6 L 384.4,502.7 L 384.6,502.8 L 384.9,502.8 L 385.1,502.9 L 385.3,503.0 L 385.5,503.0 L 385.7,503.1 L 386.0,503.2 L 386.2,503.3 L 386.4,503.4 L 386.6,503.5 L 386.8,503.5 L 387.1,503.6 L 387.3,503.7 L 387.5,503.8 L 387.7,503.9 L 387.9,504.0 L 388.1,504.1 L 388.3,504.2 L 388.5,504.3 L 388.7,504.5 L 388.9,504.6 L 389.1,504.7 L 389.3,504.8 L 389.5,504.9 L 389.7,505.1 L 389.9,505.2 L 390.1,505.3 L 390.3,505.4 L 390.5,505.6 L 390.7,505.7 L 390.9,505.9 L 391.1,506.0 L 391.3,506.1 L 391.5,506.3 L 391.6,506.4 L 391.8,506.6 L 392.0,506.7 L 392.2,506.9 L 392.4,507.1 L 392.7,507.3 L 392.9,507.5 L 393.2,507.7 L 393.4,507.9 L 393.7,508.1 L 394.0,508.3 L 394.2,508.5 L 394.5,508.7 L 394.8,508.9 L 395.0,509.1 L 395.3,509.3 L 395.6,509.4 L 395.8,509.6 L 396.1,509.8 L 396.4,510.0 L 396.7,510.1 L 397.0,510.3 L 397.3,510.4 L 397.6,510.6 L 397.8,510.7 L 398.1,510.9 L 398.4,511.0 L 398.7,511.2 L 399.0,511.3 L 399.3,511.4 L 399.6,511.6 L 399.9,511.7 L 400.2,511.8 L 400.5,511.9 L 400.9,512.0 L 401.2,512.2 L 401.5,512.3 L 401.8,512.4 L 402.1,512.5 L 402.4,512.6 L 402.7,512.6 L 403.0,512.7 L 403.4,512.8 L 403.7,512.9 L 404.0,513.0 L 404.3,513.0 L 404.6,513.1 L 405.0,513.2 L 405.3,513.2 L 405.6,513.3 L 405.9,513.4 L 406.2,513.4 L 406.6,513.4 L 406.9,513.5 L 407.2,513.5 L 407.5,513.6 L 407.9,513.6 L 408.2,513.6 L 408.5,513.6 L 408.9,513.7 L 409.2,513.7 L 409.5,513.7 L 409.8,513.7 L 410.2,513.7 L 480.1,513.7 L 480.8,513.7 L 481.5,513.6 L 482.2,513.6 L 482.9,513.5 L 483.6,513.5 L 484.3,513.4 L 485.0,513.2 L 485.7,513.1 L 486.4,512.9 L 487.1,512.8 L 487.8,512.6 L 488.5,512.4 L 489.1,512.1 L 489.8,511.9 L 490.5,511.6 L 491.1,511.3 L 491.8,511.0 L 492.4,510.7 L 493.0,510.4 L 493.7,510.0 L 570.9,465.5 L 572.0,464.7 L 573.0,463.9 L 574.0,463.0 L 575.0,462.1 L 576.0,461.1 L 576.8,460.1 L 577.7,459.1 L 578.4,458.0 L 579.2,456.8 L 579.8,455.7 L 580.4,454.5 L 581.0,453.2 L 581.5,452.0 L 581.9,450.7 L 582.3,449.4 L 582.6,448.1 L 582.8,446.8 L 583.0,445.4 L 583.0,444.1 L 583.1,442.8 L 583.1,352.4 L 583.1,352.1 L 583.1,351.7 L 583.1,351.3 L 583.1,351.0 L 583.1,350.6 L 583.1,350.3 L 583.0,349.9 L 583.0,349.5 L 583.0,349.2 L 583.0,348.8 L 583.0,348.5 L 583.0,348.1 L 582.9,347.7 L 582.9,347.4 L 582.9,347.0 L 582.9,346.7 L 582.9,346.3 L 582.8,345.9 L 582.8,345.6 L 582.8,345.2 L 582.7,344.9 L 582.7,344.5 L 582.7,344.1 L 582.6,343.8 L 582.6,343.4 L 582.6,343.1 L 582.5,342.7 L 582.5,342.4 L 582.4,342.0 L 582.4,341.6 L 582.3,341.3 L 582.3,340.9 L 582.2,340.6 L 582.2,340.2 L 582.1,339.9 L 582.1,339.5 L 582.0,339.1 L 582.0,338.8 L 581.9,338.4 L 581.8,338.1 L 581.8,337.7 L 581.7,337.4 L 581.6,337.0 L 581.6,336.7 L 581.5,336.3 L 581.4,336.0 L 581.4,335.6 L 581.3,335.3 L 581.2,334.9 L 581.1,334.5 L 581.0,334.2 L 581.0,333.8 L 580.9,333.5 L 580.8,333.1 L 580.7,332.8 L 580.6,332.4 L 580.5,332.1 L 580.5,331.7 L 580.4,331.4 L 580.3,331.1 L 550.8,221.0 L 550.4,219.8 L 550.0,218.5 L 549.5,217.3 L 549.0,216.2 L 548.4,215.0 L 547.7,213.9 L 547.0,212.8 L 546.2,211.7 L 545.4,210.7 L 544.6,209.7 L 543.7,208.8 L 542.7,207.9 L 541.7,207.0 L 540.7,206.2 L 539.6,205.5 L 538.5,204.8 L 537.4,204.1 L 536.2,203.5 L 535.0,203.0 L 533.8,202.5 L 532.6,202.1 L 531.3,201.7 L 530.1,201.4 L 528.8,201.2 L 527.5,201.0 L 526.2,200.9 L 524.9,200.9 L 523.6,200.9 L 522.3,201.0 L 521.0,201.1 L 519.7,201.3 L 518.4,201.6 L 517.1,201.9 L 515.9,202.3 L 514.7,202.7 L 513.5,203.2 L 512.3,203.8 L 511.1,204.4 L 510.0,205.1 L 508.9,205.8 L 507.9,206.6 L 506.9,207.4 L 505.9,208.3 L 504.9,209.2 L 504.1,210.1 L 503.2,211.1 L 502.4,212.2 L 501.7,213.3 L 501.0,214.4 L 500.4,215.5 L 499.8,216.7 L 499.3,217.9 L 498.8,219.1 L 498.4,220.3 L 498.1,221.6 L 497.8,222.9 L 497.6,224.2 L 497.4,225.5 L 497.3,226.8 L 497.3,228.1 L 497.3,228.2 L 497.3,228.4 L 497.3,228.5 L 497.2,228.7 L 497.2,228.8 L 497.1,229.0 L 497.0,229.1 L 496.9,229.2 L 496.8,229.3 L 496.7,229.4 L 496.6,229.6 L 496.5,229.6 L 496.4,229.7 L 496.3,229.8 L 496.1,229.9 L 496.0,229.9 L 495.8,230.0 L 495.7,230.0 L 495.5,230.0 L 495.4,230.0 L 289.7,230.0 L 289.5,230.0 L 289.4,230.0 L 289.2,230.0 L 289.1,229.9 L 289.0,229.9 L 288.8,229.8 L 288.7,229.7 L 288.6,229.6 L 288.4,229.6 L 288.3,229.4 L 288.2,229.3 L 288.1,229.2 L 288.0,229.1 L 288.0,229.0 L 287.9,228.8 L 287.9,228.7 L 287.8,228.5 L 287.8,228.4 L 287.8,228.2 L 287.8,228.1 L 287.7,225.9 L 287.4,223.8 L 287.0,221.7 L 286.4,219.7 L 285.7,217.7 L 284.8,215.7 L 283.7,213.9 L 282.6,212.1 L 281.2,210.4 L 279.8,208.8 L 278.2,207.4 L 276.5,206.1 L 274.8,204.9 L 272.9,203.8 L 271.0,202.9 L 269.0,202.2 L 266.9,201.6 L 264.8,201.2 L 262.7,201.0 L 260.6,200.9 L 190.6,200.9 L 188.5,201.0 L 186.4,201.2 L 184.3,201.6 L 182.2,202.2 L 180.2,202.9 L 178.3,203.8 L 176.4,204.9 L 174.6,206.1 L 172.9,207.4 L 171.4,208.8 L 169.9,210.4 L 168.6,212.1 L 167.4,213.9 L 166.4,215.7 L 165.5,217.7 L 164.7,219.7 L 164.2,221.7 L 163.7,223.8 L 163.5,225.9 Z M 171.2,226.6 L 171.4,225.0 L 171.7,223.5 L 172.1,222.1 L 172.7,220.6 L 173.3,219.3 L 174.0,217.9 L 174.9,216.7 L 175.8,215.5 L 176.9,214.3 L 178.0,213.3 L 179.2,212.4 L 180.5,211.5 L 181.8,210.8 L 183.2,210.1 L 184.6,209.6 L 186.1,209.2 L 187.6,208.9 L 189.1,208.7 L 190.6,208.6 L 260.6,208.6 L 262.1,208.7 L 263.6,208.9 L 265.1,209.2 L 266.6,209.6 L 268.0,210.1 L 269.4,210.8 L 270.7,211.5 L 272.0,212.4 L 273.2,213.3 L 274.3,214.3 L 275.3,215.5 L 276.3,216.7 L 277.1,217.9 L 277.9,219.3 L 278.5,220.6 L 279.0,222.1 L 279.4,223.5 L 279.7,225.0 L 279.9,226.6 L 280.0,228.1 L 280.0,228.8 L 280.1,229.6 L 280.3,230.3 L 280.5,231.1 L 280.7,231.8 L 281.0,232.5 L 281.4,233.2 L 281.8,233.8 L 282.3,234.4 L 282.8,234.9 L 283.4,235.5 L 284.0,235.9 L 284.6,236.4 L 285.3,236.7 L 286.0,237.1 L 286.7,237.3 L 287.4,237.5 L 288.2,237.7 L 288.9,237.8 L 289.7,237.8 L 495.4,237.8 L 496.1,237.8 L 496.9,237.7 L 497.6,237.5 L 498.4,237.3 L 499.1,237.1 L 499.8,236.7 L 500.4,236.4 L 501.1,235.9 L 501.7,235.5 L 502.2,234.9 L 502.8,234.4 L 503.2,233.8 L 503.7,233.2 L 504.0,232.5 L 504.3,231.8 L 504.6,231.1 L 504.8,230.3 L 505.0,229.6 L 505.1,228.8 L 505.1,228.1 L 505.1,227.1 L 505.2,226.2 L 505.3,225.3 L 505.4,224.4 L 505.6,223.5 L 505.9,222.6 L 506.2,221.7 L 506.5,220.8 L 506.9,219.9 L 507.3,219.1 L 507.7,218.3 L 508.2,217.5 L 508.7,216.7 L 509.3,216.0 L 509.9,215.3 L 510.5,214.6 L 511.2,213.9 L 511.9,213.3 L 512.6,212.7 L 513.4,212.2 L 514.1,211.6 L 514.9,211.2 L 515.8,210.7 L 516.6,210.3 L 517.5,210.0 L 518.4,209.6 L 519.2,209.4 L 520.1,209.1 L 521.1,209.0 L 522.0,208.8 L 522.9,208.7 L 523.8,208.7 L 524.8,208.6 L 525.7,208.7 L 526.6,208.8 L 527.6,208.9 L 528.5,209.1 L 529.4,209.3 L 530.3,209.5 L 531.2,209.8 L 532.0,210.2 L 532.9,210.5 L 533.7,211.0 L 534.5,211.4 L 535.3,211.9 L 536.1,212.5 L 536.8,213.0 L 537.5,213.6 L 538.2,214.3 L 538.8,214.9 L 539.5,215.7 L 540.0,216.4 L 540.6,217.1 L 541.1,217.9 L 541.6,218.7 L 542.0,219.6 L 542.4,220.4 L 542.7,221.3 L 543.0,222.2 L 543.3,223.0 L 572.8,333.1 L 572.8,333.4 L 572.9,333.7 L 573.0,334.0 L 573.1,334.3 L 573.2,334.6 L 573.2,335.0 L 573.3,335.3 L 573.4,335.6 L 573.5,335.9 L 573.5,336.2 L 573.6,336.6 L 573.7,336.9 L 573.7,337.2 L 573.8,337.5 L 573.9,337.8 L 573.9,338.1 L 574.0,338.5 L 574.1,338.8 L 574.1,339.1 L 574.2,339.4 L 574.2,339.8 L 574.3,340.1 L 574.3,340.4 L 574.4,340.7 L 574.4,341.0 L 574.5,341.4 L 574.5,341.7 L 574.6,342.0 L 574.6,342.3 L 574.7,342.7 L 574.7,343.0 L 574.8,343.3 L 574.8,343.6 L 574.8,344.0 L 574.9,344.3 L 574.9,344.6 L 574.9,344.9 L 575.0,345.3 L 575.0,345.6 L 575.0,345.9 L 575.1,346.2 L 575.1,346.6 L 575.1,346.9 L 575.1,347.2 L 575.2,347.5 L 575.2,347.9 L 575.2,348.2 L 575.2,348.5 L 575.2,348.8 L 575.2,349.2 L 575.3,349.5 L 575.3,349.8 L 575.3,350.1 L 575.3,350.5 L 575.3,350.8 L 575.3,351.1 L 575.3,351.4 L 575.3,351.8 L 575.3,352.1 L 575.3,352.4 L 575.3,442.8 L 575.3,443.8 L 575.2,444.8 L 575.1,445.8 L 574.9,446.8 L 574.6,447.8 L 574.4,448.8 L 574.0,449.7 L 573.6,450.7 L 573.2,451.6 L 572.7,452.5 L 572.2,453.3 L 571.6,454.2 L 571.0,455.0 L 570.3,455.8 L 569.6,456.5 L 568.9,457.2 L 568.1,457.9 L 567.3,458.5 L 566.5,459.1 L 565.6,459.5 L 489.8,503.3 L 489.3,503.6 L 488.9,503.8 L 488.4,504.0 L 488.0,504.2 L 487.5,504.4 L 487.0,504.6 L 486.5,504.8 L 486.1,505.0 L 485.6,505.1 L 485.1,505.3 L 484.6,505.4 L 484.1,505.5 L 483.6,505.6 L 483.1,505.7 L 482.6,505.7 L 482.1,505.8 L 481.6,505.9 L 481.1,505.9 L 480.6,505.9 L 480.1,505.9 L 410.2,505.9 L 409.9,505.9 L 409.7,505.9 L 409.5,505.9 L 409.2,505.9 L 409.0,505.9 L 408.8,505.9 L 408.5,505.8 L 408.3,505.8 L 408.1,505.8 L 407.8,505.8 L 407.6,505.7 L 407.4,505.7 L 407.1,505.7 L 406.9,505.6 L 406.7,505.6 L 406.4,505.6 L 406.2,505.5 L 406.0,505.5 L 405.8,505.4 L 405.5,505.4 L 405.3,505.3 L 405.1,505.2 L 404.8,505.2 L 404.6,505.1 L 404.4,505.0 L 404.2,505.0 L 404.0,504.9 L 403.7,504.8 L 403.5,504.7 L 403.3,504.7 L 403.1,504.6 L 402.9,504.5 L 402.6,504.4 L 402.4,504.3 L 402.2,504.2 L 402.0,504.1 L 401.8,504.0 L 401.6,503.9 L 401.4,503.8 L 401.2,503.7 L 401.0,503.6 L 400.7,503.5 L 400.5,503.4 L 400.3,503.2 L 400.1,503.1 L 399.9,503.0 L 399.7,502.9 L 399.5,502.8 L 399.3,502.6 L 399.2,502.5 L 399.0,502.4 L 398.8,502.2 L 398.6,502.1 L 398.4,501.9 L 398.2,501.8 L 398.0,501.7 L 397.8,501.5 L 397.7,501.4 L 397.5,501.2 L 397.3,501.1 L 397.1,500.8 L 396.8,500.6 L 396.6,500.4 L 396.3,500.2 L 396.1,500.0 L 395.8,499.8 L 395.5,499.6 L 395.3,499.4 L 395.0,499.2 L 394.7,499.0 L 394.5,498.9 L 394.2,498.7 L 393.9,498.5 L 393.6,498.3 L 393.4,498.2 L 393.1,498.0 L 392.8,497.8 L 392.5,497.7 L 392.2,497.5 L 391.9,497.4 L 391.6,497.2 L 391.3,497.1 L 391.0,496.9 L 390.7,496.8 L 390.5,496.6 L 390.2,496.5 L 389.8,496.4 L 389.5,496.3 L 389.2,496.1 L 388.9,496.0 L 388.6,495.9 L 388.3,495.8 L 388.0,495.7 L 387.7,495.6 L 387.4,495.5 L 387.1,495.4 L 386.8,495.3 L 386.4,495.2 L 386.1,495.1 L 385.8,495.0 L 385.5,495.0 L 385.2,494.9 L 384.9,494.8 L 384.5,494.8 L 384.2,494.7 L 383.9,494.6 L 383.6,494.6 L 383.2,494.5 L 382.9,494.5 L 382.6,494.5 L 382.3,494.4 L 381.9,494.4 L 381.6,494.4 L 381.3,494.3 L 381.0,494.3 L 380.6,494.3 L 380.3,494.3 L 380.0,494.3 L 379.6,494.3 L 379.3,494.3 L 161.5,494.3 L 161.3,494.2 L 161.2,494.2 L 161.0,494.2 L 160.9,494.2 L 160.7,494.1 L 160.6,494.0 L 160.5,494.0 L 160.3,493.9 L 160.2,493.8 L 160.1,493.7 L 160.0,493.6 L 159.9,493.5 L 159.8,493.3 L 159.7,493.2 L 159.7,493.1 L 159.6,492.9 L 159.6,492.8 L 159.5,492.6 L 159.5,492.5 L 159.5,492.3 L 159.5,297.8 L 159.5,297.1 L 159.6,296.4 L 159.6,295.7 L 159.7,295.0 L 159.8,294.3 L 160.0,293.6 L 160.1,292.9 L 160.3,292.2 L 160.5,291.6 L 160.8,290.9 L 161.0,290.3 L 161.3,289.6 L 161.6,289.0 L 162.0,288.4 L 162.3,287.8 L 162.7,287.2 L 163.1,286.6 L 163.5,286.0 L 163.9,285.5 L 164.4,284.9 L 165.0,284.2 L 165.6,283.4 L 166.2,282.6 L 166.8,281.8 L 167.3,281.0 L 167.8,280.1 L 168.2,279.2 L 168.7,278.4 L 169.1,277.5 L 169.4,276.6 L 169.8,275.6 L 170.1,274.7 L 170.3,273.7 L 170.5,272.8 L 170.7,271.8 L 170.9,270.9 L 171.0,269.9 L 171.1,268.9 L 171.2,267.9 L 171.2,266.9 L 171.2,228.1 Z" fill="rgba(160,160,160,0.5)" fill-rule="evenodd" stroke="none"/>
<line x1="171.2" y1="228.1" x2="171.2" y2="266.9" stroke="#666" stroke-width="1.0"/>
<polyline points="171.2,266.9 171.2,267.9 171.1,268.9 171.0,269.9 170.9,270.9 170.7,271.8 170.5,272.8 170.3,273.7 170.1,274.7 169.8,275.6 169.4,276.6 169.1,277.5 168.7,278.4 168.2,279.2 167.8,280.1 167.3,281.0 166.8,281.8 166.2,282.6 165.6,283.4 165.0,284.2 164.4,284.9" fill="none" stroke="#666" stroke-width="1.0" stroke-linecap="round"/>
<polyline points="164.4,284.9 163.9,285.5 163.5,286.0 163.1,286.6 162.7,287.2 162.3,287.8 162.0,288.4 161.6,289.0 161.3,289.6 161.0,290.3 160.8,290.9 160.5,291.6 160.3,292.2 160.1,292.9 160.0,293.6 159.8,294.3 159.7,295.0 159.6,295.7 159.6,296.4 159.5,297.1 159.5,297.8" fill="none" stroke="#666" stroke-width="1.0" stroke-linecap="round"/>
<line x1="159.5" y1="297.8" x2="159.5" y2="492.3" stroke="#666" stroke-width="1.0"/>
<polyline points="159.5,492.3 159.5,492.5 159.5,492.6 159.6,492.8 159.6,492.9 159.7,493.1 159.7,493.2 159.8,493.3 159.9,493.5 160.0,493.6 160.1,493.7 160.2,493.8 160.3,493.9 160.5,494.0 160.6,494.0 160.7,494.1 160.9,494.2 161.0,494.2 161.2,494.2 161.3,494.2 161.5,494.3" fill="none" stroke="#666" stroke-width="1.0" stroke-linecap="round"/>
<line x1="161.5" y1="494.3" x2="379.3" y2="494.3" stroke="#666" stroke-width="1.0"/>
<polyline points="379.3,494.3 379.6,494.3 380.0,494.3 380.3,494.3 380.6,494.3 381.0,494.3 381.3,494.3 381.6,494.4 381.9,494.4 382.3,494.4 382.6,494.5 382.9,494.5 383.2,494.5 383.6,494.6 383.9,494.6 384.2,494.7 384.5,494.8 384.9,494.8 385.2,494.9 385.5,495.0 385.8,495.0 386.1,495.1 386.4,495.2 386.8,495.3 387.1,495.4 387.4,495.5 387.7,495.6 388.0,495.7 388.3,495.8 388.6,495.9 388.9,496.0 389.2,496.1 389.5,496.3 389.8,496.4 390.2,496.5 390.5,496.6 390.7,496.8 391.0,496.9 391.3,497.1 391.6,497.2 391.9,497.4 392.2,497.5 392.5,497.7 392.8,497.8 393.1,498.0 393.4,498.2 393.6,498.3 393.9,498.5 394.2,498.7 394.5,498.9 394.7,499.0 395.0,499.2 395.3,499.4 395.5,499.6 395.8,499.8 396.1,500.0 396.3,500.2 396.6,500.4 396.8,500.6 397.1,500.8 397.3,501.1" fill="none" stroke="#666" stroke-width="1.0" stroke-linecap="round"/>
<polyline points="397.3,501.1 397.5,501.2 397.7,501.4 397.8,501.5 398.0,501.7 398.2,501.8 398.4,501.9 398.6,502.1 398.8,502.2 399.0,502.4 399.2,502.5 399.3,502.6 399.5,502.8 399.7,502.9 399.9,503.0 400.1,503.1 400.3,503.2 400.5,503.4 400.7,503.5 401.0,503.6 401.2,503.7 401.4,503.8 401.6,503.9 401.8,504.0 402.0,504.1 402.2,504.2 402.4,504.3 402.6,504.4 402.9,504.5 403.1,504.6 403.3,504.7 403.5,504.7 403.7,504.8 404.0,504.9 404.2,505.0 404.4,505.0 404.6,505.1 404.8,505.2 405.1,505.2 405.3,505.3 405.5,505.4 405.8,505.4 406.0,505.5 406.2,505.5 406.4,505.6 406.7,505.6 406.9,505.6 407.1,505.7 407.4,505.7 407.6,505.7 407.8,505.8 408.1,505.8 408.3,505.8 408.5,505.8 408.8,505.9 409.0,505.9 409.2,505.9 409.5,505.9 409.7,505.9 409.9,505.9 410.2,505.9" fill="none" stroke="#666" stroke-width="1.0" stroke-linecap="round"/>
<line x1="410.2" y1="505.9" x2="480.1" y2="505.9" stroke="#666" stroke-width="1.0"/>
<polyline points="480.1,505.9 480.6,505.9 481.1,505.9 481.6,505.9 482.1,505.8 482.6,505.7 483.1,505.7 483.6,505.6 484.1,505.5 484.6,505.4 485.1,505.3 485.6,505.1 486.1,505.0 486.5,504.8 487.0,504.6 487.5,504.4 488.0,504.2 488.4,504.0 488.9,503.8 489.3,503.6 489.8,503.3" fill="none" stroke="#666" stroke-width="1.0" stroke-linecap="round"/>
<line x1="489.8" y1="503.3" x2="565.6" y2="459.5" stroke="#666" stroke-width="1.0"/>
<polyline points="565.6,459.6 566.5,459.1 567.3,458.5 568.1,457.9 568.9,457.2 569.6,456.5 570.3,455.8 571.0,455.0 571.6,454.2 572.2,453.3 572.7,452.5 573.2,451.6 573.6,450.7 574.0,449.7 574.4,448.8 574.6,447.8 574.9,446.8 575.1,445.8 575.2,444.8 575.3,443.8 575.3,442.8" fill="none" stroke="#666" stroke-width="1.0" stroke-linecap="round"/>
<line x1="575.3" y1="442.8" x2="575.3" y2="352.4" stroke="#666" stroke-width="1.0"/>
<polyline points="575.3,352.4 575.3,352.1 575.3,351.8 575.3,351.4 575.3,351.1 575.3,350.8 575.3,350.5 575.3,350.1 575.3,349.8 575.3,349.5 575.2,349.2 575.2,348.8 575.2,348.5 575.2,348.2 575.2,347.9 575.2,347.5 575.1,347.2 575.1,346.9 575.1,346.6 575.1,346.2 575.0,345.9 575.0,345.6 575.0,345.3 574.9,344.9 574.9,344.6 574.9,344.3 574.8,344.0 574.8,343.6 574.8,343.3 574.7,343.0 574.7,342.7 574.6,342.3 574.6,342.0 574.5,341.7 574.5,341.4 574.4,341.0 574.4,340.7 574.3,340.4 574.3,340.1 574.2,339.8 574.2,339.4 574.1,339.1 574.1,338.8 574.0,338.5 573.9,338.1 573.9,337.8 573.8,337.5 573.7,337.2 573.7,336.9 573.6,336.6 573.5,336.2 573.5,335.9 573.4,335.6 573.3,335.3 573.2,335.0 573.2,334.6 573.1,334.3 573.0,334.0 572.9,333.7 572.8,333.4 572.8,333.1" fill="none" stroke="#666" stroke-width="1.0" stroke-linecap="round"/>
<line x1="572.8" y1="333.1" x2="543.3" y2="223.0" stroke="#666" stroke-width="1.0"/>
<polyline points="543.3,223.0 543.0,222.2 542.7,221.3 542.4,220.4 542.0,219.6 541.6,218.7 541.1,217.9 540.6,217.1 540.0,216.4 539.5,215.7 538.8,214.9 538.2,214.3 537.5,213.6 536.8,213.0 536.1,212.5 535.3,211.9 534.5,211.4 533.7,211.0 532.9,210.5 532.0,210.2 531.2,209.8 530.3,209.5 529.4,209.3 528.5,209.1 527.6,208.9 526.6,208.8 525.7,208.7 524.8,208.6 523.8,208.7 522.9,208.7 522.0,208.8 521.1,209.0 520.1,209.1 519.2,209.4 518.4,209.6 517.5,210.0 516.6,210.3 515.8,210.7 514.9,211.2 514.1,211.6 513.4,212.2 512.6,212.7 511.9,213.3 511.2,213.9 510.5,214.6 509.9,215.3 509.3,216.0 508.7,216.7 508.2,217.5 507.7,218.3 507.3,219.1 506.9,219.9 506.5,220.8 506.2,221.7 505.9,222.6 505.6,223.5 505.4,224.4 505.3,225.3 505.2,226.2 505.1,227.1 505.1,228.1" fill="none" stroke="#666" stroke-width="1.0" stroke-linecap="round"/>
<polyline points="505.1,228.1 505.1,228.8 505.0,229.6 504.8,230.3 504.6,231.1 504.3,231.8 504.0,232.5 503.7,233.2 503.2,233.8 502.8,234.4 502.2,234.9 501.7,235.5 501.1,235.9 500.4,236.4 499.8,236.7 499.1,237.1 498.4,237.3 497.6,237.5 496.9,237.7 496.1,237.8 495.4,237.8" fill="none" stroke="#666" stroke-width="1.0" stroke-linecap="round"/>
<line x1="495.4" y1="237.8" x2="289.7" y2="237.8" stroke="#666" stroke-width="1.0"/>
<polyline points="289.7,237.8 288.9,237.8 288.2,237.7 287.4,237.5 286.7,237.3 286.0,237.1 285.3,236.7 284.6,236.4 284.0,235.9 283.4,235.5 282.8,234.9 282.3,234.4 281.8,233.8 281.4,233.2 281.0,232.5 280.7,231.8 280.5,231.1 280.3,230.3 280.1,229.6 280.0,228.8 280.0,228.1" fill="none" stroke="#666" stroke-width="1.0" stroke-linecap="round"/>
<polyline points="280.0,228.1 279.9,226.6 279.7,225.0 279.4,223.5 279.0,222.1 278.5,220.6 277.9,219.3 277.1,217.9 276.3,216.7 275.3,215.5 274.3,214.3 273.2,213.3 272.0,212.4 270.7,211.5 269.4,210.8 268.0,210.1 266.6,209.6 265.1,209.2 263.6,208.9 262.1,208.7 260.6,208.6" fill="none" stroke="#666" stroke-width="1.0" stroke-linecap="round"/>
<line x1="260.6" y1="208.6" x2="190.6" y2="208.6" stroke="#666" stroke-width="1.0"/>
<polyline points="190.6,208.6 189.1,208.7 187.6,208.9 186.1,209.2 184.6,209.6 183.2,210.1 181.8,210.8 180.5,211.5 179.2,212.4 178.0,213.3 176.9,214.3 175.8,215.5 174.9,216.7 174.0,217.9 173.3,219.3 172.7,220.6 172.1,222.1 171.7,223.5 171.4,225.0 171.2,226.6 171.2,228.1" fill="none" stroke="#666" stroke-width="1.0" stroke-linecap="round"/>
<polygon points="159.5,360.2 575.3,360.2 575.3,354.4 159.5,354.4" fill="rgba(160,160,160,0.5)" stroke="none"/>
<line x1="159.5" y1="360.2" x2="575.3" y2="360.2" stroke="#666" stroke-width="1.0"/>
<line x1="159.5" y1="354.4" x2="575.3" y2="354.4" stroke="#666" stroke-width="1.0"/>
<polygon points="235.3,354.4 241.1,354.4 241.1,208.6 235.3,208.6" fill="rgba(160,160,160,0.5)" stroke="none"/>
<line x1="235.3" y1="354.4" x2="235.3" y2="208.6" stroke="#666" stroke-width="1.0"/>
<line x1="241.1" y1="354.4" x2="241.1" y2="208.6" stroke="#666" stroke-width="1.0"/>
<polygon points="257.6,494.3 260.6,494.3 260.6,424.3 289.7,424.3 289.7,421.4 257.6,421.4" fill="rgba(160,160,160,0.5)" stroke="#666" stroke-width="0.8"/>
<polygon points="289.7,494.3 293.6,494.3 293.6,360.2 289.7,360.2" fill="rgba(160,160,160,0.5)" stroke="#666" stroke-width="0.8"/>
<polygon points="429.6,505.9 433.5,505.9 433.5,360.2 429.6,360.2" fill="rgba(160,160,160,0.5)" stroke="#666" stroke-width="0.8"/>
<polygon points="433.5,433.1 465.5,433.1 465.5,505.9 462.6,505.9 462.6,436.0 433.5,436.0" fill="rgba(160,160,160,0.5)" stroke="#666" stroke-width="0.8"/>
<rect x="165.4" y="461.2" width="34.0" height="29.1" fill="rgba(100,150,200,0.3)" stroke="#4682B4" stroke-width="0.8"/>
<text x="182.4" y="478.8" text-anchor="middle" font-family="Arial" font-size="7" fill="#4682B4">DRYER</text>
<rect x="165.4" y="431.1" width="34.0" height="29.1" fill="rgba(100,150,200,0.3)" stroke="#4682B4" stroke-width="0.8"/>
<text x="182.4" y="448.7" text-anchor="middle" font-family="Arial" font-size="7" fill="#4682B4">WASHER</text>
<path d="M 234.3,494.3 L 257.6,494.3 L 257.6,424.3 L 243.1,424.3 A 8.7 8.7 0 0 0 234.3,433.1 Z" fill="rgba(100,150,200,0.3)" stroke="#4682B4" stroke-width="0.8"/>
<text x="246.0" y="459.3" text-anchor="middle" font-family="Arial" font-size="7" fill="#4682B4" letter-spacing="0.5" transform="rotate(-90,246.0,459.3)">COUNTER</text>
<rect x="324.7" y="401.0" width="73.8" height="91.3" fill="rgba(100,150,200,0.3)" stroke="#4682B4" stroke-width="0.8"/>
<text x="361.6" y="473.9" text-anchor="middle" font-family="Arial" font-size="7" fill="#4682B4">KING BED</text>
<text x="275.1" y="462.3" text-anchor="middle" font-family="Arial" font-size="7" fill="#666" transform="rotate(-90,275.1,462.3)">CLOSET</text>
<text x="361.6" y="430.2" text-anchor="middle" font-family="Arial" font-size="8" fill="#666">BEDROOM</text>
<text x="448.0" y="468.1" text-anchor="middle" font-family="Arial" font-size="7" fill="#666" transform="rotate(-90,448.0,468.1)">CLOSET</text>
</g>
<text x="363.4" y="352.0" text-anchor="middle" font-family="Arial" font-size="12" fill="#333" font-weight="bold">876.62 sq ft</text>
<text x="363.4" y="366.0" text-anchor="middle" font-family="Arial" font-size="9" fill="#666">(Outline enclosed area)</text>
<line x1="742" y1="560" x2="742" y2="524" stroke="#333" stroke-width="2" marker-end="url(#ah)"/>
<text x="742" y="518" text-anchor="middle" font-family="Arial" font-size="13" font-weight="bold">N</text>
<rect x="40" y="550" width="14" height="8" fill="#e8edf5" stroke="#333" stroke-width="1" opacity="0.3"/>
<text x="60" y="557" font-family="Arial" font-size="8" fill="#999">Outer path at 20% (1089.16 sq ft)</text>
<rect x="40" y="562" width="14" height="8" fill="rgba(255,152,0,0.35)" stroke="#BF360C" stroke-width="1" opacity="0.3"/>
<text x="60" y="569" font-family="Arial" font-size="8" fill="#999">Inset path at 20% (1022.16 sq ft)</text>
<line x1="40" y1="578" x2="54" y2="578" stroke="#333" stroke-width="2.0"/>
<text x="60" y="581" font-family="Arial" font-size="8" fill="#333">Outline path (876.62 sq ft) — wall arcs R=28", fillets R=10" &amp; R=28"</text>
<line x1="40" y1="590" x2="54" y2="590" stroke="#2E7D32" stroke-width="2.5"/>
<text x="60" y="593" font-family="Arial" font-size="8" fill="#333">Wall arcs (R=28")</text>
<text x="396.0" y="610" text-anchor="middle" font-family="Arial" font-size="7.5" fill="#999">Bearings as adjusted • Distances in feet and inches • Outline arcs: wall R=28", fillets R=10" &amp; R=28"</text>
</svg>