<svg xmlns="http://www.w3.org/2000/svg" width="792" height="612" viewBox="0 0 792 612">
<rect width="792" height="612" fill="white"/>
<defs>
  <marker id="ah" markerWidth="8" markerHeight="6" refX="8" refY="3" orient="auto"><polygon points="0 0, 8 3, 0 6" fill="#333"/></marker>
  <clipPath id="page"><rect width="792" height="612"/></clipPath>
</defs>
<text x="396.0" y="30" text-anchor="middle" font-family="Arial" font-size="14" font-weight="bold">Site Path &#8212; Outline (wall arcs R=10&#8243;, fillets R=9&#8243; &amp; R=28&#8243;)</text>
<g opacity="0.2">
<polygon points="368.8,124.1 145.9,169.8 145.9,507.9 517.1,507.9 645.7,423.1" fill="none" stroke="#bbb" stroke-width="0.8" stroke-dasharray="4,4"/>
<polygon points="368.8,124.1 145.9,169.8 145.9,507.9 354.7,507.9 356.5,507.9 358.4,507.9 360.2,508.0 362.0,508.1 363.8,508.2 365.6,508.3 367.4,508.5 369.2,508.7 371.0,508.9 372.8,509.1 374.6,509.4 376.4,509.7 378.2,510.0 380.0,510.4 381.8,510.7 383.5,511.1 385.3,511.6 387.1,512.0 388.8,512.5 390.6,513.0 392.3,513.5 394.0,514.0 395.8,514.6 397.5,515.2 399.2,515.8 400.9,516.5 402.6,517.1 404.3,517.8 405.9,518.5 407.6,519.3 409.2,520.0 410.9,520.8 412.5,521.6 414.1,522.4 415.7,523.3 417.3,524.2 418.9,525.1 420.5,526.0 422.0,526.9 423.5,527.9 425.1,528.9 426.6,529.9 428.1,530.9 429.6,532.0 431.0,533.0 432.5,534.1 433.9,535.2 435.3,536.4 436.7,537.5 438.1,538.7 439.5,539.9 440.9,541.1 442.2,542.3 443.5,543.6 444.8,544.8 446.1,546.1 447.4,547.4 448.6,548.7 449.8,550.1 451.0,551.4 517.1,507.9 645.7,423.1 578.7,350.8 577.1,349.0 575.4,347.1 573.9,345.2 572.3,343.3 570.8,341.3 569.4,339.4 568.0,337.3 566.6,335.3 565.3,333.2 564.0,331.1 562.8,329.0 561.6,326.9 560.5,324.7 559.4,322.5 558.3,320.3 557.3,318.0 556.4,315.8 555.5,313.5 554.6,311.2 553.8,308.9 553.0,306.5 552.3,304.2 551.6,301.8 551.0,299.4 550.5,297.0 550.0,294.6 549.5,292.2 549.1,289.8 548.7,287.4 548.4,284.9 548.2,282.5 548.0,280.0 547.8,277.6 547.7,275.1 547.7,272.7 547.7,270.2 547.7,267.8 547.8,265.3 548.0,262.9 548.2,260.4 548.5,258.0 548.8,255.5 549.1,253.1 549.5,250.7 550.0,248.3 550.5,245.9 551.1,243.5 551.7,241.1 552.4,238.7 553.1,236.4 553.9,234.1 554.7,231.7 555.5,229.4 556.4,227.2 557.4,224.9 558.4,222.7 559.5,220.4 560.6,218.2 561.7,216.1 562.9,213.9 560.3,214.7 557.7,215.4 555.1,216.0 552.4,216.6 549.8,217.2 547.1,217.7 544.5,218.1 541.8,218.5 539.1,218.9 536.4,219.2 533.7,219.5 531.0,219.7 528.3,219.8 525.6,219.9 522.9,220.0 520.2,220.0 517.5,220.0 514.8,219.9 512.1,219.7 509.4,219.5 506.7,219.3 504.0,219.0 501.3,218.6 498.7,218.2 496.0,217.8 493.3,217.3 490.7,216.8 488.1,216.2 485.4,215.5 482.8,214.8 480.2,214.1 477.6,213.3 475.1,212.5 472.5,211.6 470.0,210.7 467.4,209.7 464.9,208.7 462.4,207.6 460.0,206.5 457.5,205.3 455.1,204.1 452.7,202.9 450.3,201.6 448.0,200.2 445.7,198.9 443.4,197.4 441.1,196.0 438.8,194.5 436.6,192.9 434.4,191.3 432.3,189.7 430.2,188.0 428.1,186.3 426.0,184.6 424.0,182.8 422.0,181.0 420.0,179.1 418.1,177.2 416.2,175.3 414.3,173.3" fill="#e8edf5" stroke="none"/>
<line x1="368.8" y1="124.1" x2="145.9" y2="169.8" stroke="#333" stroke-width="2.0"/>
<line x1="145.9" y1="169.8" x2="145.9" y2="507.9" stroke="#333" stroke-width="2.0"/>
<line x1="145.9" y1="507.9" x2="354.7" y2="507.9" stroke="#333" stroke-width="2.0"/>
<line x1="451.0" y1="551.4" x2="517.1" y2="507.9" stroke="#333" stroke-width="2.0"/>
<line x1="517.1" y1="507.9" x2="645.7" y2="423.1" stroke="#333" stroke-width="2.0"/>
<line x1="645.7" y1="423.1" x2="578.7" y2="350.8" stroke="#333" stroke-width="2.0"/>
<line x1="414.3" y1="173.3" x2="368.8" y2="124.1" stroke="#333" stroke-width="2.0"/>
<polyline points="578.7,350.8 577.1,349.0 575.4,347.1 573.9,345.2 572.3,343.3 570.8,341.3 569.4,339.4 568.0,337.3 566.6,335.3 565.3,333.2 564.0,331.1 562.8,329.0 561.6,326.9 560.5,324.7 559.4,322.5 558.3,320.3 557.3,318.0 556.4,315.8 555.5,313.5 554.6,311.2 553.8,308.9 553.0,306.5 552.3,304.2 551.6,301.8 551.0,299.4 550.5,297.0 550.0,294.6 549.5,292.2 549.1,289.8 548.7,287.4 548.4,284.9 548.2,282.5 548.0,280.0 547.8,277.6 547.7,275.1 547.7,272.7 547.7,270.2 547.7,267.8 547.8,265.3 548.0,262.9 548.2,260.4 548.5,258.0 548.8,255.5 549.1,253.1 549.5,250.7 550.0,248.3 550.5,245.9 551.1,243.5 551.7,241.1 552.4,238.7 553.1,236.4 553.9,234.1 554.7,231.7 555.5,229.4 556.4,227.2 557.4,224.9 558.4,222.7 559.5,220.4 560.6,218.2 561.7,216.1 562.9,213.9" fill="none" stroke="#0077B6" stroke-width="2.5" stroke-linecap="round"/>
<polyline points="562.9,213.9 560.3,214.7 557.7,215.4 555.1,216.0 552.4,216.6 549.8,217.2 547.1,217.7 544.5,218.1 541.8,218.5 539.1,218.9 536.4,219.2 533.7,219.5 531.0,219.7 528.3,219.8 525.6,219.9 522.9,220.0 520.2,220.0 517.5,220.0 514.8,219.9 512.1,219.7 509.4,219.5 506.7,219.3 504.0,219.0 501.3,218.6 498.7,218.2 496.0,217.8 493.3,217.3 490.7,216.8 488.1,216.2 485.4,215.5 482.8,214.8 480.2,214.1 477.6,213.3 475.1,212.5 472.5,211.6 470.0,210.7 467.4,209.7 464.9,208.7 462.4,207.6 460.0,206.5 457.5,205.3 455.1,204.1 452.7,202.9 450.3,201.6 448.0,200.2 445.7,198.9 443.4,197.4 441.1,196.0 438.8,194.5 436.6,192.9 434.4,191.3 432.3,189.7 430.2,188.0 428.1,186.3 426.0,184.6 424.0,182.8 422.0,181.0 420.0,179.1 418.1,177.2 416.2,175.3 414.3,173.3" fill="none" stroke="#0077B6" stroke-width="2.5" stroke-linecap="round"/>
<polyline points="354.7,507.9 356.5,507.9 358.4,507.9 360.2,508.0 362.0,508.1 363.8,508.2 365.6,508.3 367.4,508.5 369.2,508.7 371.0,508.9 372.8,509.1 374.6,509.4 376.4,509.7 378.2,510.0 380.0,510.4 381.8,510.7 383.5,511.1 385.3,511.6 387.1,512.0 388.8,512.5 390.6,513.0 392.3,513.5 394.0,514.0 395.8,514.6 397.5,515.2 399.2,515.8 400.9,516.5 402.6,517.1 404.3,517.8 405.9,518.5 407.6,519.3 409.2,520.0 410.9,520.8 412.5,521.6 414.1,522.4 415.7,523.3 417.3,524.2 418.9,525.1 420.5,526.0 422.0,526.9 423.5,527.9 425.1,528.9 426.6,529.9 428.1,530.9 429.6,532.0 431.0,533.0 432.5,534.1 433.9,535.2 435.3,536.4 436.7,537.5 438.1,538.7 439.5,539.9 440.9,541.1 442.2,542.3 443.5,543.6 444.8,544.8 446.1,546.1 447.4,547.4 448.6,548.7 449.8,550.1 451.0,551.4" fill="none" stroke="#2E7D32" stroke-width="2.5" stroke-linecap="round"/>
<circle cx="368.8" cy="124.1" r="3.5" fill="#d32f2f"/>
<text x="368.8" y="108.1" text-anchor="middle" font-family="Arial" font-size="10" font-weight="bold" fill="#d32f2f">P.O.B.</text>
<circle cx="145.9" cy="169.8" r="3.5" fill="#d32f2f"/>
<text x="135.9" y="161.8" text-anchor="end" font-family="Arial" font-size="10" font-weight="bold" fill="#d32f2f">P2</text>
<circle cx="145.9" cy="507.9" r="3.5" fill="#d32f2f"/>
<text x="135.9" y="514.9" text-anchor="end" font-family="Arial" font-size="10" font-weight="bold" fill="#d32f2f">P3</text>
<circle cx="354.7" cy="507.9" r="3.5" fill="#2E7D32"/>
<text x="354.7" y="495.9" text-anchor="middle" font-family="Arial" font-size="10" font-weight="bold" fill="#2E7D32">T3</text>
<circle cx="451.0" cy="551.4" r="3.5" fill="#2E7D32"/>
<text x="459.0" y="545.4" text-anchor="start" font-family="Arial" font-size="10" font-weight="bold" fill="#2E7D32">PX</text>
<circle cx="517.1" cy="507.9" r="3.5" fill="#d32f2f"/>
<text x="527.1" y="517.9" text-anchor="start" font-family="Arial" font-size="10" font-weight="bold" fill="#d32f2f">P4</text>
<circle cx="645.7" cy="423.1" r="3.5" fill="#d32f2f"/>
<text x="659.7" y="426.1" text-anchor="start" font-family="Arial" font-size="10" font-weight="bold" fill="#d32f2f">P5</text>
<circle cx="578.7" cy="350.8" r="3.5" fill="#0077B6"/>
<text x="588.7" y="346.8" text-anchor="start" font-family="Arial" font-size="10" font-weight="bold" fill="#0077B6">T1</text>
<circle cx="562.9" cy="213.9" r="3.5" fill="#0077B6"/>
<text x="570.9" y="205.9" text-anchor="start" font-family="Arial" font-size="10" font-weight="bold" fill="#0077B6">PA</text>
<circle cx="414.3" cy="173.3" r="3.5" fill="#0077B6"/>
<text x="404.3" y="169.3" text-anchor="end" font-family="Arial" font-size="10" font-weight="bold" fill="#0077B6">T2</text>
<g transform="translate(261.0,164.6) rotate(11.6)">
  <text x="0" y="-3" text-anchor="middle" font-family="Arial" font-size="8.5" fill="#1a237e">Brg 258&#176; 25' 11.6"</text>
  <text x="0" y="8" text-anchor="middle" font-family="Arial" font-size="8.5" fill="#555">Dist 19' 6.2"</text>
</g>
<g transform="translate(163.9,338.8) rotate(-90.0)">
  <text x="0" y="-3" text-anchor="middle" font-family="Arial" font-size="8.5" fill="#1a237e">Brg 180&#176; 00' 00.0"</text>
  <text x="0" y="8" text-anchor="middle" font-family="Arial" font-size="8.5" fill="#555">Dist 29' 0.0"</text>
</g>
<g transform="translate(250.3,525.9) rotate(-0.0)">
  <text x="0" y="-3" text-anchor="middle" font-family="Arial" font-size="8.5" fill="#1a237e">Brg 90&#176; 00' 00.0"</text>
  <text x="0" y="8" text-anchor="middle" font-family="Arial" font-size="8.5" fill="#555">Dist 17' 10.9"</text>
</g>
<g transform="translate(475.3,516.3) rotate(33.4)">
  <text x="0" y="-3" text-anchor="middle" font-family="Arial" font-size="8.5" fill="#1a237e">Brg 56&#176; 36' 31.0"</text>
  <text x="0" y="8" text-anchor="middle" font-family="Arial" font-size="8.5" fill="#555">Dist 6' 9.5"</text>
</g>
<g transform="translate(572.6,452.1) rotate(33.4)">
  <text x="0" y="-3" text-anchor="middle" font-family="Arial" font-size="8.5" fill="#1a237e">Brg 56&#176; 36' 31.0"</text>
  <text x="0" y="8" text-anchor="middle" font-family="Arial" font-size="8.5" fill="#555">Dist 13' 2.5"</text>
</g>
<g transform="translate(623.9,376.1) rotate(-47.2)">
  <text x="0" y="-3" text-anchor="middle" font-family="Arial" font-size="8.5" fill="#1a237e">Brg 317&#176; 11' 43.7"</text>
  <text x="0" y="8" text-anchor="middle" font-family="Arial" font-size="8.5" fill="#555">Dist 8' 5.5"</text>
</g>
<g transform="translate(403.3,137.8) rotate(-47.2)">
  <text x="0" y="-3" text-anchor="middle" font-family="Arial" font-size="8.5" fill="#1a237e">Brg 317&#176; 11' 43.7"</text>
  <text x="0" y="8" text-anchor="middle" font-family="Arial" font-size="8.5" fill="#555">Dist 5' 9.0"</text>
</g>
<text x="528.4" y="284.9" text-anchor="end" font-family="Arial" font-size="8.5" fill="#0077B6">Arc 1: R=10'</text>
<text x="482.8" y="230.8" text-anchor="middle" font-family="Arial" font-size="8.5" fill="#0077B6">Arc 2: R=12' 6"</text>
<text x="419.6" y="523.3" text-anchor="start" font-family="Arial" font-size="8.5" fill="#2E7D32">Arc 3: R=11'</text>
</g>
<g opacity="0.2">
<polygon points="366.7,130.5 151.8,174.5 151.8,502.0 354.7,502.0 356.5,502.0 358.4,502.1 360.2,502.1 362.0,502.2 363.8,502.3 365.6,502.5 367.4,502.6 369.2,502.8 371.0,503.0 372.8,503.3 374.6,503.5 376.4,503.8 378.2,504.1 380.0,504.4 381.7,504.8 383.5,505.2 385.3,505.6 387.1,506.0 388.8,506.4 390.6,506.9 392.3,507.4 394.0,507.9 395.8,508.5 397.5,509.0 399.2,509.6 400.9,510.2 402.6,510.9 404.3,511.5 406.0,512.2 407.7,512.9 409.3,513.6 411.0,514.4 412.6,515.2 414.2,516.0 415.9,516.8 417.5,517.6 419.1,518.5 420.7,519.4 422.2,520.3 423.8,521.2 425.3,522.1 426.9,523.1 428.4,524.1 429.9,525.1 431.4,526.1 432.9,527.2 434.3,528.2 435.8,529.3 437.2,530.4 438.7,531.5 440.1,532.7 441.5,533.9 442.8,535.0 444.2,536.2 445.5,537.5 446.9,538.7 448.2,540.0 449.5,541.2 450.7,542.5 452.0,543.8 513.9,503.0 636.8,422.0 574.4,354.7 572.8,353.0 571.3,351.2 569.8,349.4 568.3,347.6 566.8,345.7 565.4,343.8 564.0,341.9 562.7,339.9 561.4,338.0 560.1,336.0 558.9,333.9 557.7,331.9 556.6,329.8 555.5,327.7 554.4,325.6 553.4,323.5 552.4,321.4 551.5,319.2 550.6,317.0 549.7,314.8 548.9,312.6 548.1,310.4 547.4,308.1 546.7,305.8 546.1,303.6 545.5,301.3 544.9,299.0 544.4,296.7 544.0,294.4 543.6,292.0 543.2,289.7 542.9,287.4 542.6,285.0 542.3,282.7 542.1,280.3 542.0,278.0 541.9,275.6 541.8,273.2 541.8,270.9 541.9,268.5 541.9,266.2 542.1,263.8 542.2,261.4 542.5,259.1 542.7,256.7 543.0,254.4 543.4,252.1 543.8,249.7 544.2,247.4 544.7,245.1 545.3,242.8 545.8,240.5 546.5,238.2 547.1,236.0 547.8,233.7 548.6,231.5 549.4,229.3 550.2,227.0 551.1,224.9 552.0,222.7 549.5,223.2 546.9,223.6 544.3,224.1 541.8,224.4 539.2,224.8 536.6,225.0 534.0,225.3 531.4,225.5 528.9,225.6 526.3,225.7 523.7,225.8 521.1,225.8 518.5,225.8 515.9,225.7 513.3,225.6 510.7,225.5 508.1,225.3 505.5,225.0 502.9,224.7 500.4,224.4 497.8,224.0 495.2,223.6 492.7,223.1 490.1,222.6 487.6,222.0 485.1,221.4 482.5,220.8 480.0,220.1 477.5,219.4 475.1,218.6 472.6,217.8 470.1,217.0 467.7,216.1 465.3,215.1 462.9,214.1 460.5,213.1 458.1,212.1 455.8,211.0 453.4,209.8 451.1,208.6 448.8,207.4 446.6,206.2 444.3,204.9 442.1,203.5 439.9,202.1 437.7,200.7 435.6,199.3 433.4,197.8 431.3,196.3 429.2,194.7 427.2,193.1 425.2,191.5 423.2,189.8 421.2,188.1 419.3,186.4 417.4,184.6 415.5,182.8 413.7,181.0 411.8,179.1 410.1,177.3" fill="rgba(255,152,0,0.3)" stroke="none"/>
<line x1="366.7" y1="130.5" x2="151.8" y2="174.5" stroke="#BF360C" stroke-width="1.5"/>
<line x1="151.8" y1="174.5" x2="151.8" y2="502.0" stroke="#BF360C" stroke-width="1.5"/>
<line x1="151.8" y1="502.0" x2="354.7" y2="502.0" stroke="#BF360C" stroke-width="1.5"/>
<line x1="452.0" y1="543.8" x2="513.9" y2="503.0" stroke="#BF360C" stroke-width="1.5"/>
<line x1="513.9" y1="503.0" x2="636.8" y2="422.0" stroke="#BF360C" stroke-width="1.5"/>
<line x1="636.8" y1="422.0" x2="574.4" y2="354.7" stroke="#BF360C" stroke-width="1.5"/>
<line x1="410.1" y1="177.3" x2="366.7" y2="130.5" stroke="#BF360C" stroke-width="1.5"/>
<polyline points="574.4,354.7 572.8,353.0 571.3,351.2 569.8,349.4 568.3,347.6 566.8,345.7 565.4,343.8 564.0,341.9 562.7,339.9 561.4,338.0 560.1,336.0 558.9,333.9 557.7,331.9 556.6,329.8 555.5,327.7 554.4,325.6 553.4,323.5 552.4,321.4 551.5,319.2 550.6,317.0 549.7,314.8 548.9,312.6 548.1,310.4 547.4,308.1 546.7,305.8 546.1,303.6 545.5,301.3 544.9,299.0 544.4,296.7 544.0,294.4 543.6,292.0 543.2,289.7 542.9,287.4 542.6,285.0 542.3,282.7 542.1,280.3 542.0,278.0 541.9,275.6 541.8,273.2 541.8,270.9 541.9,268.5 541.9,266.2 542.1,263.8 542.2,261.4 542.5,259.1 542.7,256.7 543.0,254.4 543.4,252.1 543.8,249.7 544.2,247.4 544.7,245.1 545.3,242.8 545.8,240.5 546.5,238.2 547.1,236.0 547.8,233.7 548.6,231.5 549.4,229.3 550.2,227.0 551.1,224.9 552.0,222.7" fill="none" stroke="#BF360C" stroke-width="1.5" stroke-linecap="round"/>
<polyline points="552.0,222.7 549.5,223.2 546.9,223.6 544.3,224.1 541.8,224.4 539.2,224.8 536.6,225.0 534.0,225.3 531.4,225.5 528.9,225.6 526.3,225.7 523.7,225.8 521.1,225.8 518.5,225.8 515.9,225.7 513.3,225.6 510.7,225.5 508.1,225.3 505.5,225.0 502.9,224.7 500.4,224.4 497.8,224.0 495.2,223.6 492.7,223.1 490.1,222.6 487.6,222.0 485.1,221.4 482.5,220.8 480.0,220.1 477.5,219.4 475.1,218.6 472.6,217.8 470.1,217.0 467.7,216.1 465.3,215.1 462.9,214.1 460.5,213.1 458.1,212.1 455.8,211.0 453.4,209.8 451.1,208.6 448.8,207.4 446.6,206.2 444.3,204.9 442.1,203.5 439.9,202.1 437.7,200.7 435.6,199.3 433.4,197.8 431.3,196.3 429.2,194.7 427.2,193.1 425.2,191.5 423.2,189.8 421.2,188.1 419.3,186.4 417.4,184.6 415.5,182.8 413.7,181.0 411.8,179.1 410.1,177.3" fill="none" stroke="#BF360C" stroke-width="1.5" stroke-linecap="round"/>
<polyline points="354.7,502.0 356.5,502.0 358.4,502.1 360.2,502.1 362.0,502.2 363.8,502.3 365.6,502.5 367.4,502.6 369.2,502.8 371.0,503.0 372.8,503.3 374.6,503.5 376.4,503.8 378.2,504.1 380.0,504.4 381.7,504.8 383.5,505.2 385.3,505.6 387.1,506.0 388.8,506.4 390.6,506.9 392.3,507.4 394.0,507.9 395.8,508.5 397.5,509.0 399.2,509.6 400.9,510.2 402.6,510.9 404.3,511.5 406.0,512.2 407.7,512.9 409.3,513.6 411.0,514.4 412.6,515.2 414.2,516.0 415.9,516.8 417.5,517.6 419.1,518.5 420.7,519.4 422.2,520.3 423.8,521.2 425.3,522.1 426.9,523.1 428.4,524.1 429.9,525.1 431.4,526.1 432.9,527.2 434.3,528.2 435.8,529.3 437.2,530.4 438.7,531.5 440.1,532.7 441.5,533.9 442.8,535.0 444.2,536.2 445.5,537.5 446.9,538.7 448.2,540.0 449.5,541.2 450.7,542.5 452.0,543.8" fill="none" stroke="#BF360C" stroke-width="1.5" stroke-linecap="round"/>
<circle cx="366.7" cy="130.5" r="2.5" fill="#BF360C"/>
<text x="366.7" y="144.5" text-anchor="middle" font-family="Arial" font-size="8.5" font-weight="bold" fill="#BF360C">PiOB</text>
<circle cx="151.8" cy="174.5" r="2.5" fill="#BF360C"/>
<text x="157.8" y="178.5" text-anchor="start" font-family="Arial" font-size="8.5" font-weight="bold" fill="#BF360C">Pi2</text>
<circle cx="151.8" cy="502.0" r="2.5" fill="#BF360C"/>
<text x="157.8" y="498.0" text-anchor="start" font-family="Arial" font-size="8.5" font-weight="bold" fill="#BF360C">Pi3</text>
<circle cx="354.7" cy="502.0" r="2.5" fill="#BF360C"/>
<text x="354.7" y="516.0" text-anchor="middle" font-family="Arial" font-size="8.5" font-weight="bold" fill="#BF360C">Ti3</text>
<circle cx="452.0" cy="543.8" r="2.5" fill="#BF360C"/>
<text x="444.0" y="537.8" text-anchor="end" font-family="Arial" font-size="8.5" font-weight="bold" fill="#BF360C">PiX</text>
<circle cx="513.9" cy="503.0" r="2.5" fill="#BF360C"/>
<text x="505.9" y="515.0" text-anchor="end" font-family="Arial" font-size="8.5" font-weight="bold" fill="#BF360C">Pi4</text>
<circle cx="636.8" cy="422.0" r="2.5" fill="#BF360C"/>
<text x="628.8" y="414.0" text-anchor="end" font-family="Arial" font-size="8.5" font-weight="bold" fill="#BF360C">Pi5</text>
<circle cx="574.4" cy="354.7" r="2.5" fill="#BF360C"/>
<text x="566.4" y="366.7" text-anchor="end" font-family="Arial" font-size="8.5" font-weight="bold" fill="#BF360C">Ti1</text>
<circle cx="552.0" cy="222.7" r="2.5" fill="#BF360C"/>
<text x="544.0" y="226.7" text-anchor="end" font-family="Arial" font-size="8.5" font-weight="bold" fill="#BF360C">Ai2</text>
<circle cx="410.1" cy="177.3" r="2.5" fill="#BF360C"/>
<text x="418.1" y="189.3" text-anchor="start" font-family="Arial" font-size="8.5" font-weight="bold" fill="#BF360C">Ti2</text>
</g>
<polygon points="151.8,226.1 151.8,492.3 151.8,493.1 151.9,493.8 152.0,494.6 152.2,495.3 152.5,496.0 152.8,496.7 153.2,497.4 153.6,498.0 154.1,498.6 154.6,499.2 155.2,499.7 155.8,500.2 156.4,500.6 157.1,501.0 157.8,501.3 158.5,501.6 159.2,501.8 159.9,501.9 160.7,502.0 161.5,502.0 379.2,502.0 379.9,502.1 380.6,502.1 381.3,502.3 382.0,502.4 382.7,502.7 383.3,503.0 384.0,503.3 384.6,503.7 385.1,504.1 385.7,504.5 386.2,505.0 386.7,505.6 387.1,506.1 387.5,506.7 387.8,507.4 388.1,508.0 388.4,508.7 388.6,509.4 388.7,510.1 388.8,510.8 388.9,511.5 389.1,512.2 389.3,512.9 389.5,513.5 389.8,514.2 390.2,514.8 390.6,515.4 391.0,516.0 391.5,516.5 392.0,517.0 392.5,517.5 393.1,517.9 393.7,518.3 394.4,518.6 395.0,518.9 395.7,519.1 396.4,519.3 397.1,519.4 397.8,519.5 398.5,519.5 486.0,519.5 486.2,519.5 486.5,519.5 486.8,519.5 487.1,519.4 487.4,519.4 487.6,519.4 487.9,519.3 488.2,519.3 488.5,519.2 488.7,519.1 489.0,519.0 489.3,518.9 489.5,518.8 489.8,518.7 490.1,518.6 490.3,518.5 490.6,518.3 490.8,518.2 491.1,518.1 491.3,517.9 614.7,436.5 615.4,436.1 615.9,435.6 616.5,435.1 617.0,434.5 617.4,433.9 617.8,433.2 618.2,432.6 618.5,431.8 618.7,431.1 618.9,430.4 619.0,429.6 619.1,428.9 619.1,428.1 619.1,427.3 618.9,426.6 618.8,425.9 618.5,425.1 618.2,424.4 617.9,423.7 617.5,423.1 562.0,338.9 561.4,337.9 560.7,336.9 560.1,335.9 559.5,334.9 558.9,333.9 558.3,332.9 557.7,331.8 557.1,330.8 556.5,329.7 556.0,328.7 555.4,327.6 554.9,326.6 554.4,325.5 553.8,324.4 553.3,323.4 552.8,322.3 552.4,321.2 551.9,320.1 551.4,319.0 551.0,317.9 550.5,316.8 550.1,315.7 549.6,314.6 549.2,313.5 548.8,312.4 548.4,311.3 548.1,310.1 547.7,309.0 547.3,307.9 547.0,306.7 546.7,305.6 546.3,304.4 546.0,303.3 545.7,302.1 545.4,301.0 545.1,299.8 544.9,298.7 544.6,297.5 544.4,296.4 544.1,295.2 543.9,294.0 543.7,292.9 543.5,291.7 543.3,290.5 543.1,289.3 543.0,288.2 542.8,287.0 542.7,285.8 542.5,284.6 542.4,283.4 542.3,282.2 542.2,281.1 542.1,279.9 542.0,278.7 542.0,277.5 541.9,276.3 541.9,275.1 541.9,273.9 541.8,272.7 541.8,271.6 541.8,255.3 541.7,253.1 541.5,251.0 541.1,248.9 540.5,246.9 539.8,244.9 538.9,242.9 537.8,241.1 536.6,239.3 535.3,237.6 533.9,236.0 532.3,234.6 530.6,233.3 528.8,232.1 527.0,231.0 525.0,230.1 523.0,229.4 521.0,228.8 518.9,228.4 516.8,228.2 514.6,228.1 278.0,228.1 277.9,228.1 277.7,228.1 277.6,228.0 277.4,228.0 277.3,227.9 277.2,227.9 277.0,227.8 276.9,227.7 276.8,227.6 276.7,227.5 276.6,227.4 276.5,227.3 276.4,227.1 276.3,227.0 276.2,226.9 276.2,226.7 276.2,226.6 276.1,226.4 276.1,226.3 276.1,226.1 276.0,224.0 275.8,221.9 275.3,219.8 274.8,217.7 274.0,215.7 273.1,213.8 272.1,211.9 270.9,210.1 269.6,208.5 268.1,206.9 266.6,205.4 264.9,204.1 263.1,202.9 261.2,201.9 259.3,201.0 257.3,200.3 255.2,199.7 253.2,199.3 251.0,199.0 248.9,198.9 179.0,198.9 176.8,199.0 174.7,199.3 172.6,199.7 170.5,200.3 168.5,201.0 166.6,201.9 164.7,202.9 163.0,204.1 161.3,205.4 159.7,206.9 158.3,208.5 156.9,210.1 155.8,211.9 154.7,213.8 153.8,215.7 153.1,217.7 152.5,219.8 152.1,221.9 151.8,224.0" fill="rgba(200,230,255,0.25)" stroke="none"/>
<line x1="151.8" y1="226.1" x2="151.8" y2="492.3" stroke="#333" stroke-width="2.0"/>
<line x1="161.5" y1="502.0" x2="379.2" y2="502.0" stroke="#333" stroke-width="2.0"/>
<line x1="398.5" y1="519.5" x2="486.0" y2="519.5" stroke="#333" stroke-width="2.0"/>
<line x1="491.3" y1="517.9" x2="614.7" y2="436.5" stroke="#333" stroke-width="2.0"/>
<line x1="617.5" y1="423.1" x2="562.0" y2="338.9" stroke="#333" stroke-width="2.0"/>
<line x1="541.8" y1="271.6" x2="541.8" y2="255.3" stroke="#333" stroke-width="2.0"/>
<line x1="514.6" y1="228.1" x2="278.0" y2="228.1" stroke="#333" stroke-width="2.0"/>
<line x1="248.9" y1="198.9" x2="179.0" y2="198.9" stroke="#333" stroke-width="2.0"/>
<polyline points="562.0,338.9 561.4,337.9 560.7,336.9 560.1,335.9 559.5,334.9 558.9,333.9 558.3,332.9 557.7,331.8 557.1,330.8 556.5,329.7 556.0,328.7 555.4,327.6 554.9,326.6 554.4,325.5 553.8,324.4 553.3,323.4 552.8,322.3 552.4,321.2 551.9,320.1 551.4,319.0 551.0,317.9 550.5,316.8 550.1,315.7 549.6,314.6 549.2,313.5 548.8,312.4 548.4,311.3 548.1,310.1 547.7,309.0 547.3,307.9 547.0,306.7 546.7,305.6 546.3,304.4 546.0,303.3 545.7,302.1 545.4,301.0 545.1,299.8 544.9,298.7 544.6,297.5 544.4,296.4 544.1,295.2 543.9,294.0 543.7,292.9 543.5,291.7 543.3,290.5 543.1,289.3 543.0,288.2 542.8,287.0 542.7,285.8 542.5,284.6 542.4,283.4 542.3,282.2 542.2,281.1 542.1,279.9 542.0,278.7 542.0,277.5 541.9,276.3 541.9,275.1 541.9,273.9 541.8,272.7 541.8,271.6" fill="none" stroke="#0077B6" stroke-width="2.5" stroke-linecap="round"/>
<polyline points="379.2,502.0 379.9,502.1 380.6,502.1 381.3,502.3 382.0,502.4 382.7,502.7 383.3,503.0 384.0,503.3 384.6,503.7 385.1,504.1 385.7,504.5 386.2,505.0 386.7,505.6 387.1,506.1 387.5,506.7 387.8,507.4 388.1,508.0 388.4,508.7 388.6,509.4 388.7,510.1 388.8,510.8" fill="none" stroke="#2E7D32" stroke-width="2.5" stroke-linecap="round"/>
<polyline points="388.8,510.8 388.9,511.5 389.1,512.2 389.3,512.9 389.5,513.5 389.8,514.2 390.2,514.8 390.6,515.4 391.0,516.0 391.5,516.5 392.0,517.0 392.5,517.5 393.1,517.9 393.7,518.3 394.4,518.6 395.0,518.9 395.7,519.1 396.4,519.3 397.1,519.4 397.8,519.5 398.5,519.5" fill="none" stroke="#2E7D32" stroke-width="2.5" stroke-linecap="round"/>
<polyline points="486.0,519.5 486.2,519.5 486.5,519.5 486.8,519.5 487.1,519.4 487.4,519.4 487.6,519.4 487.9,519.3 488.2,519.3 488.5,519.2 488.7,519.1 489.0,519.0 489.3,518.9 489.5,518.8 489.8,518.7 490.1,518.6 490.3,518.5 490.6,518.3 490.8,518.2 491.1,518.1 491.3,517.9" fill="none" stroke="#2E7D32" stroke-width="2.5" stroke-linecap="round"/>
<polyline points="614.7,436.5 615.4,436.1 615.9,435.6 616.5,435.1 617.0,434.5 617.4,433.9 617.8,433.2 618.2,432.6 618.5,431.8 618.7,431.1 618.9,430.4 619.0,429.6 619.1,428.9 619.1,428.1 619.1,427.3 618.9,426.6 618.8,425.9 618.5,425.1 618.2,424.4 617.9,423.7 617.5,423.1" fill="none" stroke="#333" stroke-width="2.0" stroke-linecap="round"/>
<polyline points="151.8,492.3 151.8,493.1 151.9,493.8 152.0,494.6 152.2,495.3 152.5,496.0 152.8,496.7 153.2,497.4 153.6,498.0 154.1,498.6 154.6,499.2 155.2,499.7 155.8,500.2 156.4,500.6 157.1,501.0 157.8,501.3 158.5,501.6 159.2,501.8 159.9,501.9 160.7,502.0 161.5,502.0" fill="none" stroke="#333" stroke-width="2.0" stroke-linecap="round"/>
<polyline points="179.0,198.9 176.8,199.0 174.7,199.3 172.6,199.7 170.5,200.3 168.5,201.0 166.6,201.9 164.7,202.9 163.0,204.1 161.3,205.4 159.7,206.9 158.3,208.5 156.9,210.1 155.8,211.9 154.7,213.8 153.8,215.7 153.1,217.7 152.5,219.8 152.1,221.9 151.8,224.0 151.8,226.1" fill="none" stroke="#333" stroke-width="2.0" stroke-linecap="round"/>
<polyline points="278.0,228.1 277.9,228.1 277.7,228.1 277.6,228.0 277.4,228.0 277.3,227.9 277.2,227.9 277.0,227.8 276.9,227.7 276.8,227.6 276.7,227.5 276.6,227.4 276.5,227.3 276.4,227.1 276.3,227.0 276.2,226.9 276.2,226.7 276.2,226.6 276.1,226.4 276.1,226.3 276.1,226.1" fill="none" stroke="#333" stroke-width="2.0" stroke-linecap="round"/>
<polyline points="276.1,226.1 276.0,224.0 275.8,221.9 275.3,219.8 274.8,217.7 274.0,215.7 273.1,213.8 272.1,211.9 270.9,210.1 269.6,208.5 268.1,206.9 266.6,205.4 264.9,204.1 263.1,202.9 261.2,201.9 259.3,201.0 257.3,200.3 255.2,199.7 253.2,199.3 251.0,199.0 248.9,198.9" fill="none" stroke="#333" stroke-width="2.0" stroke-linecap="round"/>
<polyline points="541.8,255.3 541.7,253.1 541.5,251.0 541.1,248.9 540.5,246.9 539.8,244.9 538.9,242.9 537.8,241.1 536.6,239.3 535.3,237.6 533.9,236.0 532.3,234.6 530.6,233.3 528.8,232.1 527.0,231.0 525.0,230.1 523.0,229.4 521.0,228.8 518.9,228.4 516.8,228.2 514.6,228.1" fill="none" stroke="#333" stroke-width="2.0" stroke-linecap="round"/>
<g clip-path="url(#page)">
<line x1="664.2" y1="271.6" x2="562.0" y2="338.9" stroke="#0077B6" stroke-width="0.6" stroke-dasharray="4,3"/>
<line x1="660.2" y1="271.6" x2="668.2" y2="271.6" stroke="#0077B6" stroke-width="0.7"/>
<line x1="664.2" y1="267.6" x2="664.2" y2="275.6" stroke="#0077B6" stroke-width="0.7"/>
<line x1="379.2" y1="511.7" x2="379.2" y2="502.0" stroke="#2E7D32" stroke-width="0.6" stroke-dasharray="4,3"/>
<line x1="375.2" y1="511.7" x2="383.2" y2="511.7" stroke="#2E7D32" stroke-width="0.7"/>
<line x1="379.2" y1="507.7" x2="379.2" y2="515.7" stroke="#2E7D32" stroke-width="0.7"/>
<line x1="161.5" y1="492.3" x2="151.8" y2="492.3" stroke="#333" stroke-width="0.6" stroke-dasharray="4,3"/>
<line x1="157.5" y1="492.3" x2="165.5" y2="492.3" stroke="#333" stroke-width="0.7"/>
<line x1="161.5" y1="488.3" x2="161.5" y2="496.3" stroke="#333" stroke-width="0.7"/>
<line x1="179.0" y1="226.1" x2="179.0" y2="198.9" stroke="#333" stroke-width="0.6" stroke-dasharray="4,3"/>
<line x1="175.0" y1="226.1" x2="183.0" y2="226.1" stroke="#333" stroke-width="0.7"/>
<line x1="179.0" y1="222.1" x2="179.0" y2="230.1" stroke="#333" stroke-width="0.7"/>
<line x1="398.5" y1="509.8" x2="388.8" y2="510.8" stroke="#2E7D32" stroke-width="0.6" stroke-dasharray="4,3"/>
<line x1="394.5" y1="509.8" x2="402.5" y2="509.8" stroke="#2E7D32" stroke-width="0.7"/>
<line x1="398.5" y1="505.8" x2="398.5" y2="513.8" stroke="#2E7D32" stroke-width="0.7"/>
<line x1="486.0" y1="509.8" x2="486.0" y2="519.5" stroke="#2E7D32" stroke-width="0.6" stroke-dasharray="4,3"/>
<line x1="482.0" y1="509.8" x2="490.0" y2="509.8" stroke="#2E7D32" stroke-width="0.7"/>
<line x1="486.0" y1="505.8" x2="486.0" y2="513.8" stroke="#2E7D32" stroke-width="0.7"/>
<line x1="609.4" y1="428.4" x2="614.7" y2="436.5" stroke="#333" stroke-width="0.6" stroke-dasharray="4,3"/>
<line x1="605.4" y1="428.4" x2="613.4" y2="428.4" stroke="#333" stroke-width="0.7"/>
<line x1="609.4" y1="424.4" x2="609.4" y2="432.4" stroke="#333" stroke-width="0.7"/>
<line x1="248.9" y1="226.1" x2="248.9" y2="198.9" stroke="#333" stroke-width="0.6" stroke-dasharray="4,3"/>
<line x1="244.9" y1="226.1" x2="252.9" y2="226.1" stroke="#333" stroke-width="0.7"/>
<line x1="248.9" y1="222.1" x2="248.9" y2="230.1" stroke="#333" stroke-width="0.7"/>
<line x1="278.0" y1="226.1" x2="276.1" y2="226.1" stroke="#333" stroke-width="0.6" stroke-dasharray="4,3"/>
<line x1="274.0" y1="226.1" x2="282.0" y2="226.1" stroke="#333" stroke-width="0.7"/>
<line x1="278.0" y1="222.1" x2="278.0" y2="230.1" stroke="#333" stroke-width="0.7"/>
<line x1="514.6" y1="255.3" x2="514.6" y2="228.1" stroke="#333" stroke-width="0.6" stroke-dasharray="4,3"/>
<line x1="510.6" y1="255.3" x2="518.6" y2="255.3" stroke="#333" stroke-width="0.7"/>
<line x1="514.6" y1="251.3" x2="514.6" y2="259.3" stroke="#333" stroke-width="0.7"/>
</g>
<circle cx="151.8" cy="226.1" r="3.5" fill="#d32f2f"/>
<text x="143.8" y="220.1" text-anchor="end" font-family="Arial" font-size="10" font-weight="bold" fill="#d32f2f">O2</text>
<circle cx="151.8" cy="492.3" r="3.5" fill="#d32f2f"/>
<text x="143.8" y="488.3" text-anchor="end" font-family="Arial" font-size="10" font-weight="bold" fill="#d32f2f">O1</text>
<circle cx="161.5" cy="502.0" r="3.5" fill="#d32f2f"/>
<text x="153.5" y="512.0" text-anchor="end" font-family="Arial" font-size="10" font-weight="bold" fill="#d32f2f">O0</text>
<circle cx="379.2" cy="502.0" r="3.5" fill="#2E7D32"/>
<text x="379.2" y="490.0" text-anchor="middle" font-family="Arial" font-size="10" font-weight="bold" fill="#2E7D32">C15</text>
<circle cx="388.8" cy="510.8" r="3.5" fill="#2E7D32"/>
<text x="396.8" y="504.8" text-anchor="start" font-family="Arial" font-size="10" font-weight="bold" fill="#2E7D32">C14</text>
<circle cx="398.5" cy="519.5" r="3.5" fill="#2E7D32"/>
<text x="406.5" y="531.5" text-anchor="start" font-family="Arial" font-size="10" font-weight="bold" fill="#2E7D32">C13b</text>
<circle cx="486.0" cy="519.5" r="3.5" fill="#2E7D32"/>
<text x="494.0" y="531.5" text-anchor="start" font-family="Arial" font-size="10" font-weight="bold" fill="#2E7D32">C13a</text>
<circle cx="491.3" cy="517.9" r="3.5" fill="#2E7D32"/>
<text x="501.3" y="527.9" text-anchor="start" font-family="Arial" font-size="10" font-weight="bold" fill="#2E7D32">C13</text>
<circle cx="614.7" cy="436.5" r="3.5" fill="#d32f2f"/>
<text x="622.7" y="440.5" text-anchor="start" font-family="Arial" font-size="10" font-weight="bold" fill="#d32f2f">O12</text>
<circle cx="617.5" cy="423.1" r="3.5" fill="#d32f2f"/>
<text x="625.5" y="427.1" text-anchor="start" font-family="Arial" font-size="10" font-weight="bold" fill="#d32f2f">O11</text>
<circle cx="562.0" cy="338.9" r="3.5" fill="#0077B6"/>
<text x="572.0" y="334.9" text-anchor="start" font-family="Arial" font-size="10" font-weight="bold" fill="#0077B6">O10</text>
<circle cx="541.8" cy="271.6" r="3.5" fill="#0077B6"/>
<text x="549.8" y="279.6" text-anchor="start" font-family="Arial" font-size="10" font-weight="bold" fill="#0077B6">O9</text>
<circle cx="541.8" cy="255.3" r="3.5" fill="#d32f2f"/>
<text x="549.8" y="267.3" text-anchor="start" font-family="Arial" font-size="10" font-weight="bold" fill="#d32f2f">O8</text>
<circle cx="514.6" cy="228.1" r="3.5" fill="#d32f2f"/>
<text x="506.6" y="222.1" text-anchor="end" font-family="Arial" font-size="10" font-weight="bold" fill="#d32f2f">O7</text>
<circle cx="278.0" cy="228.1" r="3.5" fill="#d32f2f"/>
<text x="278.0" y="242.1" text-anchor="middle" font-family="Arial" font-size="10" font-weight="bold" fill="#d32f2f">O6</text>
<circle cx="276.1" cy="226.1" r="3.5" fill="#d32f2f"/>
<text x="268.1" y="222.1" text-anchor="end" font-family="Arial" font-size="10" font-weight="bold" fill="#d32f2f">O5</text>
<circle cx="248.9" cy="198.9" r="3.5" fill="#d32f2f"/>
<text x="248.9" y="186.9" text-anchor="middle" font-family="Arial" font-size="10" font-weight="bold" fill="#d32f2f">O4</text>
<circle cx="179.0" cy="198.9" r="3.5" fill="#d32f2f"/>
<text x="169.0" y="192.9" text-anchor="end" font-family="Arial" font-size="10" font-weight="bold" fill="#d32f2f">O3</text>
<g transform="translate(169.8,359.2) rotate(-90.0)">
  <text x="0" y="-3" text-anchor="middle" font-family="Arial" font-size="8.5" fill="#1a237e">180.00&#176;</text>
  <text x="0" y="8" text-anchor="middle" font-family="Arial" font-size="8.5" fill="#555">22' 10.0"</text>
</g>
<g transform="translate(270.3,520.0) rotate(0.0)">
  <text x="0" y="-3" text-anchor="middle" font-family="Arial" font-size="8.5" fill="#1a237e">90.00&#176;</text>
  <text x="0" y="8" text-anchor="middle" font-family="Arial" font-size="8.5" fill="#555">18' 8.1"</text>
</g>
<g transform="translate(442.2,535.5) rotate(-0.0)">
  <text x="0" y="-3" text-anchor="middle" font-family="Arial" font-size="8.5" fill="#1a237e">90.00&#176;</text>
  <text x="0" y="8" text-anchor="middle" font-family="Arial" font-size="8.5" fill="#555">7' 6.0"</text>
</g>
<g transform="translate(544.2,463.9) rotate(33.4)">
  <text x="0" y="-3" text-anchor="middle" font-family="Arial" font-size="8.5" fill="#1a237e">56.61&#176;</text>
  <text x="0" y="8" text-anchor="middle" font-family="Arial" font-size="8.5" fill="#555">12' 8.2"</text>
</g>
<g transform="translate(603.1,372.2) rotate(-56.6)">
  <text x="0" y="-3" text-anchor="middle" font-family="Arial" font-size="8.5" fill="#1a237e">326.61&#176;</text>
  <text x="0" y="8" text-anchor="middle" font-family="Arial" font-size="8.5" fill="#555">8' 7.8"</text>
</g>
<g transform="translate(557.8,263.4) rotate(90.0)">
  <text x="0" y="-3" text-anchor="middle" font-family="Arial" font-size="8.5" fill="#1a237e">0.00&#176;</text>
  <text x="0" y="8" text-anchor="middle" font-family="Arial" font-size="8.5" fill="#555">1' 4.8"</text>
</g>
<g transform="translate(396.3,212.1) rotate(0.0)">
  <text x="0" y="-3" text-anchor="middle" font-family="Arial" font-size="8.5" fill="#1a237e">270.00&#176;</text>
  <text x="0" y="8" text-anchor="middle" font-family="Arial" font-size="8.5" fill="#555">20' 3.5"</text>
</g>
<g transform="translate(213.9,182.9) rotate(0.0)">
  <text x="0" y="-3" text-anchor="middle" font-family="Arial" font-size="8.5" fill="#1a237e">270.00&#176;</text>
  <text x="0" y="8" text-anchor="middle" font-family="Arial" font-size="8.5" fill="#555">6' 0.0"</text>
</g>
<text x="527.0" y="306.7" text-anchor="end" font-family="Arial" font-size="8.5" fill="#0077B6">Arc 1o: R=10' 6"</text>
<text x="527.0" y="317.7" text-anchor="end" font-family="Arial" font-size="8.5" fill="#0077B6">33.4&#176; CW</text>
<text x="545.9" y="236.0" text-anchor="start" font-family="Arial" font-size="8.5" fill="#333">Turn R=28"</text>
<text x="545.9" y="247.0" text-anchor="start" font-family="Arial" font-size="8.5" fill="#333">90.0&#176;</text>
<text x="397.7" y="508.5" text-anchor="start" font-family="Arial" font-size="8.5" fill="#2E7D32">Wall R=10"</text>
<text x="397.7" y="519.5" text-anchor="start" font-family="Arial" font-size="8.5" fill="#2E7D32">84.3&#176; CW</text>
<text x="404.0" y="507.0" text-anchor="start" font-family="Arial" font-size="8.5" fill="#2E7D32">Wall R=10"</text>
<text x="404.0" y="518.0" text-anchor="start" font-family="Arial" font-size="8.5" fill="#2E7D32">84.3&#176;</text>
<text x="478.7" y="509.1" text-anchor="end" font-family="Arial" font-size="8.5" fill="#2E7D32">Wall R=10"</text>
<text x="478.7" y="520.1" text-anchor="end" font-family="Arial" font-size="8.5" fill="#2E7D32">33.4&#176;</text>
<text x="628.9" y="420.4" text-anchor="start" font-family="Arial" font-size="8.5" fill="#333">Fillet R=10"</text>
<text x="628.9" y="431.4" text-anchor="start" font-family="Arial" font-size="8.5" fill="#333">90.0&#176;</text>
<text x="144.6" y="513.2" text-anchor="end" font-family="Arial" font-size="8.5" fill="#333">Fillet R=10"</text>
<text x="144.6" y="524.2" text-anchor="end" font-family="Arial" font-size="8.5" fill="#333">90.0&#176;</text>
<text x="149.7" y="192.9" text-anchor="end" font-family="Arial" font-size="8.5" fill="#333">Fillet R=28"</text>
<text x="149.7" y="203.9" text-anchor="end" font-family="Arial" font-size="8.5" fill="#333">90.0&#176;</text>
<text x="266.7" y="241.5" text-anchor="end" font-family="Arial" font-size="8.5" fill="#333">Turn R=2"</text>
<text x="266.7" y="252.5" text-anchor="end" font-family="Arial" font-size="8.5" fill="#333">90.0&#176;</text>
<text x="280.1" y="206.9" text-anchor="start" font-family="Arial" font-size="8.5" fill="#333">Turn R=28"</text>
<text x="280.1" y="217.9" text-anchor="start" font-family="Arial" font-size="8.5" fill="#333">90.0&#176;</text>
<g opacity="0.5">
<path d="M 151.8,226.1 L 151.8,492.3 L 151.8,493.1 L 151.9,493.8 L 152.0,494.6 L 152.2,495.3 L 152.5,496.0 L 152.8,496.7 L 153.2,497.4 L 153.6,498.0 L 154.1,498.6 L 154.6,499.2 L 155.2,499.7 L 155.8,500.2 L 156.4,500.6 L 157.1,501.0 L 157.8,501.3 L 158.5,501.6 L 159.2,501.8 L 159.9,501.9 L 160.7,502.0 L 161.5,502.0 L 379.2,502.0 L 379.9,502.1 L 380.6,502.1 L 381.3,502.3 L 382.0,502.4 L 382.7,502.7 L 383.3,503.0 L 384.0,503.3 L 384.6,503.7 L 385.1,504.1 L 385.7,504.5 L 386.2,505.0 L 386.7,505.6 L 387.1,506.1 L 387.5,506.7 L 387.8,507.4 L 388.1,508.0 L 388.4,508.7 L 388.6,509.4 L 388.7,510.1 L 388.8,510.8 L 388.9,511.5 L 389.1,512.2 L 389.3,512.9 L 389.5,513.5 L 389.8,514.2 L 390.2,514.8 L 390.6,515.4 L 391.0,516.0 L 391.5,516.5 L 392.0,517.0 L 392.5,517.5 L 393.1,517.9 L 393.7,518.3 L 394.4,518.6 L 395.0,518.9 L 395.7,519.1 L 396.4,519.3 L 397.1,519.4 L 397.8,519.5 L 398.5,519.5 L 486.0,519.5 L 486.2,519.5 L 486.5,519.5 L 486.8,519.5 L 487.1,519.4 L 487.4,519.4 L 487.6,519.4 L 487.9,519.3 L 488.2,519.3 L 488.5,519.2 L 488.7,519.1 L 489.0,519.0 L 489.3,518.9 L 489.5,518.8 L 489.8,518.7 L 490.1,518.6 L 490.3,518.5 L 490.6,518.3 L 490.8,518.2 L 491.1,518.1 L 491.3,517.9 L 614.7,436.5 L 615.4,436.1 L 615.9,435.6 L 616.5,435.1 L 617.0,434.5 L 617.4,433.9 L 617.8,433.2 L 618.2,432.6 L 618.5,431.8 L 618.7,431.1 L 618.9,430.4 L 619.0,429.6 L 619.1,428.9 L 619.1,428.1 L 619.1,427.3 L 618.9,426.6 L 618.8,425.9 L 618.5,425.1 L 618.2,424.4 L 617.9,423.7 L 617.5,423.1 L 562.0,338.9 L 561.4,337.9 L 560.7,336.9 L 560.1,335.9 L 559.5,334.9 L 558.9,333.9 L 558.3,332.9 L 557.7,331.8 L 557.1,330.8 L 556.5,329.7 L 556.0,328.7 L 555.4,327.6 L 554.9,326.6 L 554.4,325.5 L 553.8,324.4 L 553.3,323.4 L 552.8,322.3 L 552.4,321.2 L 551.9,320.1 L 551.4,319.0 L 551.0,317.9 L 550.5,316.8 L 550.1,315.7 L 549.6,314.6 L 549.2,313.5 L 548.8,312.4 L 548.4,311.3 L 548.1,310.1 L 547.7,309.0 L 547.3,307.9 L 547.0,306.7 L 546.7,305.6 L 546.3,304.4 L 546.0,303.3 L 545.7,302.1 L 545.4,301.0 L 545.1,299.8 L 544.9,298.7 L 544.6,297.5 L 544.4,296.4 L 544.1,295.2 L 543.9,294.0 L 543.7,292.9 L 543.5,291.7 L 543.3,290.5 L 543.1,289.3 L 543.0,288.2 L 542.8,287.0 L 542.7,285.8 L 542.5,284.6 L 542.4,283.4 L 542.3,282.2 L 542.2,281.1 L 542.1,279.9 L 542.0,278.7 L 542.0,277.5 L 541.9,276.3 L 541.9,275.1 L 541.9,273.9 L 541.8,272.7 L 541.8,271.6 L 541.8,255.3 L 541.7,253.1 L 541.5,251.0 L 541.1,248.9 L 540.5,246.9 L 539.8,244.9 L 538.9,242.9 L 537.8,241.1 L 536.6,239.3 L 535.3,237.6 L 533.9,236.0 L 532.3,234.6 L 530.6,233.3 L 528.8,232.1 L 527.0,231.0 L 525.0,230.1 L 523.0,229.4 L 521.0,228.8 L 518.9,228.4 L 516.8,228.2 L 514.6,228.1 L 278.0,228.1 L 277.9,228.1 L 277.7,228.1 L 277.6,228.0 L 277.4,228.0 L 277.3,227.9 L 277.2,227.9 L 277.0,227.8 L 276.9,227.7 L 276.8,227.6 L 276.7,227.5 L 276.6,227.4 L 276.5,227.3 L 276.4,227.1 L 276.3,227.0 L 276.2,226.9 L 276.2,226.7 L 276.2,226.6 L 276.1,226.4 L 276.1,226.3 L 276.1,226.1 L 276.0,224.0 L 275.8,221.9 L 275.3,219.8 L 274.8,217.7 L 274.0,215.7 L 273.1,213.8 L 272.1,211.9 L 270.9,210.1 L 269.6,208.5 L 268.1,206.9 L 266.6,205.4 L 264.9,204.1 L 263.1,202.9 L 261.2,201.9 L 259.3,201.0 L 257.3,200.3 L 255.2,199.7 L 253.2,199.3 L 251.0,199.0 L 248.9,198.9 L 179.0,198.9 L 176.8,199.0 L 174.7,199.3 L 172.6,199.7 L 170.5,200.3 L 168.5,201.0 L 166.6,201.9 L 164.7,202.9 L 163.0,204.1 L 161.3,205.4 L 159.7,206.9 L 158.3,208.5 L 156.9,210.1 L 155.8,211.9 L 154.7,213.8 L 153.8,215.7 L 153.1,217.7 L 152.5,219.8 L 152.1,221.9 L 151.8,224.0 Z M 159.6,224.6 L 159.8,223.1 L 160.1,221.6 L 160.5,220.1 L 161.0,218.7 L 161.6,217.3 L 162.4,216.0 L 163.2,214.7 L 164.2,213.5 L 165.2,212.4 L 166.3,211.4 L 167.5,210.4 L 168.8,209.6 L 170.1,208.8 L 171.5,208.2 L 173.0,207.7 L 174.4,207.2 L 175.9,206.9 L 177.4,206.8 L 179.0,206.7 L 248.9,206.7 L 250.4,206.8 L 251.9,206.9 L 253.4,207.2 L 254.9,207.7 L 256.3,208.2 L 257.7,208.8 L 259.1,209.6 L 260.3,210.4 L 261.5,211.4 L 262.6,212.4 L 263.7,213.5 L 264.6,214.7 L 265.5,216.0 L 266.2,217.3 L 266.8,218.7 L 267.4,220.1 L 267.8,221.6 L 268.1,223.1 L 268.3,224.6 L 268.3,226.1 L 268.4,226.9 L 268.4,227.7 L 268.6,228.4 L 268.8,229.1 L 269.1,229.8 L 269.4,230.5 L 269.8,231.2 L 270.2,231.8 L 270.7,232.4 L 271.2,233.0 L 271.7,233.5 L 272.3,234.0 L 273.0,234.4 L 273.6,234.8 L 274.3,235.1 L 275.0,235.4 L 275.8,235.6 L 276.5,235.7 L 277.3,235.8 L 278.0,235.8 L 514.6,235.8 L 516.2,235.9 L 517.7,236.1 L 519.2,236.4 L 520.6,236.8 L 522.1,237.3 L 523.4,238.0 L 524.8,238.7 L 526.0,239.6 L 527.2,240.5 L 528.4,241.5 L 529.4,242.7 L 530.3,243.9 L 531.2,245.1 L 531.9,246.5 L 532.6,247.8 L 533.1,249.3 L 533.5,250.7 L 533.8,252.2 L 534.0,253.8 L 534.1,255.3 L 534.1,271.6 L 534.1,272.8 L 534.1,274.1 L 534.1,275.4 L 534.2,276.6 L 534.2,277.9 L 534.3,279.1 L 534.4,280.4 L 534.4,281.7 L 534.6,282.9 L 534.7,284.2 L 534.8,285.4 L 534.9,286.7 L 535.1,288.0 L 535.3,289.2 L 535.4,290.5 L 535.6,291.7 L 535.8,293.0 L 536.0,294.2 L 536.3,295.4 L 536.5,296.7 L 536.8,297.9 L 537.0,299.2 L 537.3,300.4 L 537.6,301.6 L 537.9,302.9 L 538.2,304.1 L 538.5,305.3 L 538.8,306.5 L 539.2,307.7 L 539.5,309.0 L 539.9,310.2 L 540.3,311.4 L 540.7,312.6 L 541.1,313.8 L 541.5,315.0 L 541.9,316.2 L 542.4,317.3 L 542.8,318.5 L 543.3,319.7 L 543.8,320.9 L 544.2,322.0 L 544.7,323.2 L 545.2,324.4 L 545.8,325.5 L 546.3,326.7 L 546.8,327.8 L 547.4,328.9 L 548.0,330.1 L 548.5,331.2 L 549.1,332.3 L 549.7,333.4 L 550.3,334.5 L 550.9,335.7 L 551.6,336.7 L 552.2,337.8 L 552.8,338.9 L 553.5,340.0 L 554.2,341.1 L 554.9,342.1 L 555.5,343.2 L 611.0,427.4 L 611.1,427.5 L 611.2,427.6 L 611.2,427.8 L 611.3,427.9 L 611.3,428.1 L 611.3,428.2 L 611.3,428.4 L 611.3,428.5 L 611.3,428.7 L 611.3,428.8 L 611.3,429.0 L 611.2,429.1 L 611.2,429.3 L 611.1,429.4 L 611.0,429.5 L 610.9,429.6 L 610.8,429.8 L 610.7,429.9 L 610.6,430.0 L 610.5,430.1 L 487.0,511.4 L 487.0,511.5 L 486.9,511.5 L 486.9,511.5 L 486.8,511.5 L 486.8,511.6 L 486.7,511.6 L 486.7,511.6 L 486.6,511.6 L 486.6,511.6 L 486.5,511.7 L 486.5,511.7 L 486.4,511.7 L 486.3,511.7 L 486.3,511.7 L 486.2,511.7 L 486.2,511.7 L 486.1,511.7 L 486.1,511.7 L 486.0,511.7 L 486.0,511.7 L 398.5,511.7 L 398.4,511.7 L 398.2,511.7 L 398.1,511.7 L 397.9,511.7 L 397.8,511.6 L 397.7,511.6 L 397.5,511.5 L 397.4,511.4 L 397.3,511.3 L 397.2,511.2 L 397.1,511.1 L 397.0,511.0 L 396.9,510.9 L 396.8,510.8 L 396.8,510.7 L 396.7,510.5 L 396.7,510.4 L 396.6,510.3 L 396.6,510.1 L 396.6,510.0 L 396.4,508.7 L 396.1,507.5 L 395.8,506.2 L 395.3,505.0 L 394.8,503.9 L 394.2,502.7 L 393.5,501.7 L 392.7,500.6 L 391.8,499.7 L 390.9,498.8 L 389.9,497.9 L 388.9,497.2 L 387.8,496.5 L 386.6,495.9 L 385.5,495.4 L 384.2,495.0 L 383.0,494.7 L 381.7,494.4 L 380.5,494.3 L 379.2,494.3 L 161.5,494.3 L 161.3,494.2 L 161.2,494.2 L 161.0,494.2 L 160.9,494.2 L 160.7,494.1 L 160.6,494.0 L 160.5,494.0 L 160.3,493.9 L 160.2,493.8 L 160.1,493.7 L 160.0,493.6 L 159.9,493.5 L 159.8,493.3 L 159.7,493.2 L 159.7,493.1 L 159.6,492.9 L 159.6,492.8 L 159.5,492.6 L 159.5,492.5 L 159.5,492.3 L 159.5,226.1 Z" fill="rgba(160,160,160,0.5)" fill-rule="evenodd" stroke="none"/>
<line x1="159.5" y1="226.1" x2="159.5" y2="492.3" stroke="#666" stroke-width="1.0"/>
<polyline points="159.5,492.3 159.5,492.5 159.5,492.6 159.6,492.8 159.6,492.9 159.7,493.1 159.7,493.2 159.8,493.3 159.9,493.5 160.0,493.6 160.1,493.7 160.2,493.8 160.3,493.9 160.5,494.0 160.6,494.0 160.7,494.1 160.9,494.2 161.0,494.2 161.2,494.2 161.3,494.2 161.5,494.3" fill="none" stroke="#666" stroke-width="1.0" stroke-linecap="round"/>
<line x1="161.5" y1="494.3" x2="379.2" y2="494.3" stroke="#666" stroke-width="1.0"/>
<polyline points="379.2,494.3 380.5,494.3 381.7,494.4 383.0,494.7 384.2,495.0 385.5,495.4 386.6,495.9 387.8,496.5 388.9,497.2 389.9,497.9 390.9,498.8 391.8,499.7 392.7,500.6 393.5,501.7 394.2,502.7 394.8,503.9 395.3,505.0 395.8,506.2 396.1,507.5 396.4,508.7 396.6,510.0" fill="none" stroke="#666" stroke-width="1.0" stroke-linecap="round"/>
<polyline points="396.6,510.0 396.6,510.1 396.6,510.3 396.7,510.4 396.7,510.5 396.8,510.7 396.8,510.8 396.9,510.9 397.0,511.0 397.1,511.1 397.2,511.2 397.3,511.3 397.4,511.4 397.5,511.5 397.7,511.6 397.8,511.6 397.9,511.7 398.1,511.7 398.2,511.7 398.4,511.7 398.5,511.7" fill="none" stroke="#666" stroke-width="1.0" stroke-linecap="round"/>
<line x1="398.5" y1="511.7" x2="486.0" y2="511.7" stroke="#666" stroke-width="1.0"/>
<polyline points="486.0,511.7 486.0,511.7 486.1,511.7 486.1,511.7 486.2,511.7 486.2,511.7 486.3,511.7 486.3,511.7 486.4,511.7 486.5,511.7 486.5,511.7 486.6,511.6 486.6,511.6 486.7,511.6 486.7,511.6 486.8,511.6 486.8,511.5 486.9,511.5 486.9,511.5 487.0,511.5 487.0,511.4" fill="none" stroke="#666" stroke-width="1.0" stroke-linecap="round"/>
<line x1="487.0" y1="511.4" x2="610.5" y2="430.1" stroke="#666" stroke-width="1.0"/>
<polyline points="610.5,430.1 610.6,430.0 610.7,429.9 610.8,429.8 610.9,429.6 611.0,429.5 611.1,429.4 611.2,429.3 611.2,429.1 611.3,429.0 611.3,428.8 611.3,428.7 611.3,428.5 611.3,428.4 611.3,428.2 611.3,428.1 611.3,427.9 611.2,427.8 611.2,427.6 611.1,427.5 611.0,427.4" fill="none" stroke="#666" stroke-width="1.0" stroke-linecap="round"/>
<line x1="611.0" y1="427.4" x2="555.5" y2="343.2" stroke="#666" stroke-width="1.0"/>
<polyline points="555.5,343.2 554.9,342.1 554.2,341.1 553.5,340.0 552.8,338.9 552.2,337.8 551.6,336.7 550.9,335.7 550.3,334.5 549.7,333.4 549.1,332.3 548.5,331.2 548.0,330.1 547.4,328.9 546.8,327.8 546.3,326.7 545.8,325.5 545.2,324.4 544.7,323.2 544.2,322.0 543.8,320.9 543.3,319.7 542.8,318.5 542.4,317.3 541.9,316.2 541.5,315.0 541.1,313.8 540.7,312.6 540.3,311.4 539.9,310.2 539.5,309.0 539.2,307.7 538.8,306.5 538.5,305.3 538.2,304.1 537.9,302.9 537.6,301.6 537.3,300.4 537.0,299.2 536.8,297.9 536.5,296.7 536.3,295.4 536.0,294.2 535.8,293.0 535.6,291.7 535.4,290.5 535.3,289.2 535.1,288.0 534.9,286.7 534.8,285.4 534.7,284.2 534.6,282.9 534.4,281.7 534.4,280.4 534.3,279.1 534.2,277.9 534.2,276.6 534.1,275.4 534.1,274.1 534.1,272.8 534.1,271.6" fill="none" stroke="#666" stroke-width="1.0" stroke-linecap="round"/>
<line x1="534.1" y1="271.6" x2="534.1" y2="255.3" stroke="#666" stroke-width="1.0"/>
<polyline points="534.1,255.3 534.0,253.8 533.8,252.2 533.5,250.7 533.1,249.3 532.6,247.8 531.9,246.5 531.2,245.1 530.3,243.9 529.4,242.7 528.4,241.5 527.2,240.5 526.0,239.6 524.8,238.7 523.4,238.0 522.1,237.3 520.6,236.8 519.2,236.4 517.7,236.1 516.2,235.9 514.6,235.8" fill="none" stroke="#666" stroke-width="1.0" stroke-linecap="round"/>
<line x1="514.6" y1="235.8" x2="278.0" y2="235.8" stroke="#666" stroke-width="1.0"/>
<polyline points="278.0,235.8 277.3,235.8 276.5,235.7 275.8,235.6 275.0,235.4 274.3,235.1 273.6,234.8 273.0,234.4 272.3,234.0 271.7,233.5 271.2,233.0 270.7,232.4 270.2,231.8 269.8,231.2 269.4,230.5 269.1,229.8 268.8,229.1 268.6,228.4 268.4,227.7 268.4,226.9 268.3,226.1" fill="none" stroke="#666" stroke-width="1.0" stroke-linecap="round"/>
<polyline points="268.3,226.1 268.3,224.6 268.1,223.1 267.8,221.6 267.4,220.1 266.8,218.7 266.2,217.3 265.5,216.0 264.6,214.7 263.7,213.5 262.6,212.4 261.5,211.4 260.3,210.4 259.1,209.6 257.7,208.8 256.3,208.2 254.9,207.7 253.4,207.2 251.9,206.9 250.4,206.8 248.9,206.7" fill="none" stroke="#666" stroke-width="1.0" stroke-linecap="round"/>
<line x1="248.9" y1="206.7" x2="179.0" y2="206.7" stroke="#666" stroke-width="1.0"/>
<polyline points="179.0,206.7 177.4,206.8 175.9,206.9 174.4,207.2 173.0,207.7 171.5,208.2 170.1,208.8 168.8,209.6 167.5,210.4 166.3,211.4 165.2,212.4 164.2,213.5 163.2,214.7 162.4,216.0 161.6,217.3 161.0,218.7 160.5,220.1 160.1,221.6 159.8,223.1 159.6,224.6 159.5,226.1" fill="none" stroke="#666" stroke-width="1.0" stroke-linecap="round"/>
<polygon points="159.5,360.2 566.7,360.2 562.9,354.4 159.5,354.4" fill="rgba(160,160,160,0.5)" stroke="none"/>
<line x1="159.5" y1="360.2" x2="566.7" y2="360.2" stroke="#666" stroke-width="1.0"/>
<line x1="159.5" y1="354.4" x2="562.9" y2="354.4" stroke="#666" stroke-width="1.0"/>
<polygon points="235.3,354.4 241.1,354.4 241.1,206.7 235.3,206.7" fill="rgba(160,160,160,0.5)" stroke="none"/>
<line x1="235.3" y1="354.4" x2="235.3" y2="206.7" stroke="#666" stroke-width="1.0"/>
<line x1="241.1" y1="354.4" x2="241.1" y2="206.7" stroke="#666" stroke-width="1.0"/>
<polygon points="257.6,494.3 260.6,494.3 260.6,424.3 289.7,424.3 289.7,421.4 257.6,421.4" fill="rgba(160,160,160,0.5)" stroke="#666" stroke-width="0.8"/>
<polygon points="289.7,494.3 293.6,494.3 293.6,360.2 289.7,360.2" fill="rgba(160,160,160,0.5)" stroke="#666" stroke-width="0.8"/>
<polygon points="429.6,511.7 433.5,511.7 433.5,360.2 429.6,360.2" fill="rgba(160,160,160,0.5)" stroke="#666" stroke-width="0.8"/>
<polygon points="433.5,433.1 465.5,433.1 465.5,511.7 462.6,511.7 462.6,436.0 433.5,436.0" fill="rgba(160,160,160,0.5)" stroke="#666" stroke-width="0.8"/>
<rect x="165.4" y="461.2" width="34.0" height="29.1" fill="rgba(100,150,200,0.3)" stroke="#4682B4" stroke-width="0.8"/>
<text x="182.4" y="478.8" text-anchor="middle" font-family="Arial" font-size="7" fill="#4682B4">DRYER</text>
<rect x="165.4" y="431.1" width="34.0" height="29.1" fill="rgba(100,150,200,0.3)" stroke="#4682B4" stroke-width="0.8"/>
<text x="182.4" y="448.7" text-anchor="middle" font-family="Arial" font-size="7" fill="#4682B4">WASHER</text>
<path d="M 234.3,494.3 L 257.6,494.3 L 257.6,424.3 L 243.1,424.3 A 8.7 8.7 0 0 0 234.3,433.1 Z" fill="rgba(100,150,200,0.3)" stroke="#4682B4" stroke-width="0.8"/>
<text x="246.0" y="459.3" text-anchor="middle" font-family="Arial" font-size="7" fill="#4682B4" letter-spacing="0.5" transform="rotate(-90,246.0,459.3)">COUNTER</text>
<rect x="324.7" y="401.0" width="73.8" height="91.3" fill="rgba(100,150,200,0.3)" stroke="#4682B4" stroke-width="0.8"/>
<text x="361.6" y="473.9" text-anchor="middle" font-family="Arial" font-size="7" fill="#4682B4">KING BED</text>
<text x="275.1" y="462.3" text-anchor="middle" font-family="Arial" font-size="7" fill="#666" transform="rotate(-90,275.1,462.3)">CLOSET</text>
<text x="361.6" y="430.2" text-anchor="middle" font-family="Arial" font-size="8" fill="#666">BEDROOM</text>
<text x="448.0" y="468.1" text-anchor="middle" font-family="Arial" font-size="7" fill="#666" transform="rotate(-90,448.0,468.1)">CLOSET</text>
</g>
<text x="388.0" y="366.4" text-anchor="middle" font-family="Arial" font-size="12" fill="#333" font-weight="bold">875.58 sq ft</text>
<text x="388.0" y="380.4" text-anchor="middle" font-family="Arial" font-size="9" fill="#666">(Outline enclosed area)</text>
<line x1="742" y1="560" x2="742" y2="524" stroke="#333" stroke-width="2" marker-end="url(#ah)"/>
<text x="742" y="518" text-anchor="middle" font-family="Arial" font-size="13" font-weight="bold">N</text>
<rect x="40" y="550" width="14" height="8" fill="#e8edf5" stroke="#333" stroke-width="1" opacity="0.3"/>
<text x="60" y="557" font-family="Arial" font-size="8" fill="#999">Outer path at 20% (1089.16 sq ft)</text>
<rect x="40" y="562" width="14" height="8" fill="rgba(255,152,0,0.35)" stroke="#BF360C" stroke-width="1" opacity="0.3"/>
<text x="60" y="569" font-family="Arial" font-size="8" fill="#999">Inset path at 20% (1022.16 sq ft)</text>
<line x1="40" y1="578" x2="54" y2="578" stroke="#333" stroke-width="2.0"/>
<text x="60" y="581" font-family="Arial" font-size="8" fill="#333">Outline path (875.58 sq ft) &#8212; wall arcs R=10", fillets R=9" &amp; R=28"</text>
<line x1="40" y1="590" x2="54" y2="590" stroke="#0077B6" stroke-width="2.5"/>
<text x="60" y="593" font-family="Arial" font-size="8" fill="#333">Outline Arc 1o (R=10' 6")</text>
<line x1="40" y1="602" x2="54" y2="602" stroke="#2E7D32" stroke-width="2.5"/>
<text x="60" y="605" font-family="Arial" font-size="8" fill="#333">Wall arcs (R=10")</text>
<text x="396.0" y="610" text-anchor="middle" font-family="Arial" font-size="7.5" fill="#999">Bearings as adjusted &#8226; Distances in feet and inches &#8226; Outline arcs: R1o=10' 6", wall R=10"</text>
</svg>