<svg xmlns="http://www.w3.org/2000/svg" width="792" height="612" viewBox="0 0 792 612">
<rect width="792" height="612" fill="white"/>
<text x="396.0" y="30" text-anchor="middle" font-family="Arial" font-size="15" font-weight="bold">Option A Layout &#8212; ADU Floor Plan within Traverse</text>
<polygon points="379.5,133.0 161.2,177.8 161.2,509.0 524.9,509.0 650.8,426.0" fill="#f5f5f5" stroke="#bbb" stroke-width="1" stroke-dasharray="4,2"/>
<polygon points="379.5,133.0 161.2,177.8 161.2,213.0 453.6,213.0" fill="#E3F2FD" stroke="#1565C0" stroke-width="1.5" stroke-linejoin="round"/>
<polygon points="161.2,213.0 161.2,281.5 282.4,281.5 282.4,213.0" fill="#F3E5F5" stroke="#7B1FA2" stroke-width="1.5" stroke-linejoin="round"/>
<polygon points="161.2,281.5 161.2,332.9 282.4,332.9 282.4,281.5" fill="#FCE4EC" stroke="#C62828" stroke-width="1.5" stroke-linejoin="round"/>
<polygon points="282.4,213.0 282.4,332.9 564.6,332.9 453.6,213.0" fill="#E8F5E9" stroke="#2E7D32" stroke-width="1.5" stroke-linejoin="round"/>
<polygon points="161.2,332.9 161.2,447.1 618.7,447.1 564.6,332.9" fill="#FFF8E1" stroke="#F57F17" stroke-width="1.5" stroke-linejoin="round"/>
<polygon points="161.2,447.1 161.2,509.0 524.9,509.0 618.7,447.1" fill="#EFEBE9" stroke="#5D4037" stroke-width="1.5" stroke-linejoin="round"/>
<polygon points="282.4,213.0 282.4,247.2 328.1,247.2 328.1,213.0" fill="#C8E6C9" stroke="#2E7D32" stroke-width="1" stroke-dasharray="3,2"/>
<path d="M 585.2,355.1 A 114.2,114.2 0 0 0 569.7,221.0" fill="none" stroke="#0077B6" stroke-width="2.5"/>
<path d="M 569.7,221.0 A 142.8,142.8 0 0 0 424.1,181.2" fill="none" stroke="#0077B6" stroke-width="2.5"/>
<path d="M 365.7,509.0 A 125.6,125.6 0 0 0 460.1,551.7" fill="none" stroke="#0077B6" stroke-width="2.5"/>
<circle cx="585.2" cy="355.1" r="3.5" fill="#0077B6"/>
<circle cx="569.7" cy="221.0" r="3.5" fill="#0077B6"/>
<circle cx="424.1" cy="181.2" r="3.5" fill="#0077B6"/>
<circle cx="365.7" cy="509.0" r="3.5" fill="#0077B6"/>
<circle cx="460.1" cy="551.7" r="3.5" fill="#0077B6"/>
<line x1="669.0" y1="277.5" x2="585.2" y2="355.1" stroke="#0077B6" stroke-width="0.6" stroke-dasharray="4,3"/>
<line x1="665.0" y1="277.5" x2="673.0" y2="277.5" stroke="#0077B6" stroke-width="0.8"/>
<line x1="669.0" y1="273.5" x2="669.0" y2="281.5" stroke="#0077B6" stroke-width="0.8"/>
<line x1="528.9" y1="84.2" x2="424.1" y2="181.2" stroke="#0077B6" stroke-width="0.6" stroke-dasharray="4,3"/>
<line x1="524.9" y1="84.2" x2="532.9" y2="84.2" stroke="#0077B6" stroke-width="0.8"/>
<line x1="528.9" y1="80.2" x2="528.9" y2="88.2" stroke="#0077B6" stroke-width="0.8"/>
<line x1="365.7" y1="634.6" x2="365.7" y2="509.0" stroke="#0077B6" stroke-width="0.6" stroke-dasharray="4,3"/>
<text x="627.1" y="312.3" text-anchor="middle" font-family="Arial" font-size="8" fill="#0077B6" transform="rotate(-42.8,627.1,312.3)">R&#8321; = 10&#39;</text>
<text x="476.5" y="128.7" text-anchor="middle" font-family="Arial" font-size="8" fill="#0077B6" transform="rotate(-42.8,476.5,128.7)">R&#8322; = 12.5&#39;</text>
<text x="365.7" y="567.8" text-anchor="middle" font-family="Arial" font-size="8" fill="#0077B6" transform="rotate(-90.0,365.7,567.8)">R&#8323; = 11&#39;</text>
<text x="597.2" y="367.1" text-anchor="start" font-family="Arial" font-size="7.5" fill="#0077B6">T1 (26.5&#39; from POB)</text>
<text x="577.7" y="221.0" text-anchor="start" font-family="Arial" font-size="7.5" fill="#0077B6">PA</text>
<polygon points="379.5,133.0 161.2,177.8 161.2,509.0 524.9,509.0 650.8,426.0" fill="none" stroke="#333" stroke-width="2.5" stroke-linejoin="round"/>
<line x1="161.2" y1="213.0" x2="453.6" y2="213.0" stroke="#333" stroke-width="1.5"/>
<line x1="161.2" y1="281.5" x2="282.4" y2="281.5" stroke="#333" stroke-width="1.5"/>
<line x1="161.2" y1="332.9" x2="564.6" y2="332.9" stroke="#333" stroke-width="1.5"/>
<line x1="161.2" y1="447.1" x2="618.7" y2="447.1" stroke="#333" stroke-width="1.5"/>
<line x1="282.4" y1="213.0" x2="282.4" y2="332.9" stroke="#333" stroke-width="1.5"/>
<text x="288.9" y="179.2" text-anchor="middle" font-family="Arial" font-size="11" font-weight="bold" fill="#1565C0">OFFICE</text>
<text x="288.9" y="193.2" text-anchor="middle" font-family="Arial" font-size="9" fill="#1565C0">119 sq ft</text>
<text x="221.8" y="242.2" text-anchor="middle" font-family="Arial" font-size="11" font-weight="bold" fill="#7B1FA2">BATH / UTILITY</text>
<text x="221.8" y="256.2" text-anchor="middle" font-family="Arial" font-size="9" fill="#7B1FA2">64 sq ft</text>
<text x="221.8" y="302.2" text-anchor="middle" font-family="Arial" font-size="11" font-weight="bold" fill="#C62828">BATH / SHOWER</text>
<text x="221.8" y="316.2" text-anchor="middle" font-family="Arial" font-size="9" fill="#C62828">48 sq ft</text>
<text x="395.8" y="267.9" text-anchor="middle" font-family="Arial" font-size="11" font-weight="bold" fill="#2E7D32">BEDROOM</text>
<text x="395.8" y="281.9" text-anchor="middle" font-family="Arial" font-size="9" fill="#2E7D32">208 sq ft</text>
<text x="376.4" y="385.0" text-anchor="middle" font-family="Arial" font-size="11" font-weight="bold" fill="#F57F17">MAIN ROOM</text>
<text x="376.4" y="399.0" text-anchor="middle" font-family="Arial" font-size="9" fill="#F57F17">377 sq ft</text>
<text x="366.5" y="473.0" text-anchor="middle" font-family="Arial" font-size="11" font-weight="bold" fill="#5D4037">STORAGE / MECH</text>
<text x="366.5" y="487.0" text-anchor="middle" font-family="Arial" font-size="9" fill="#5D4037">195 sq ft</text>
<text x="305.3" y="233.1" text-anchor="middle" font-family="Arial" font-size="8" fill="#2E7D32">CLOSET</text>
<text x="140.6" y="270.1" text-anchor="middle" font-family="Arial" font-size="7" fill="#7B1FA2" transform="rotate(-90,140.6,270.1)">plumbing wall</text>
<text x="403.0" y="430.0" text-anchor="middle" font-family="Arial" font-size="7.5" fill="#F57F17">kitchen counter along south wall</text>
<text x="379.5" y="121.6" text-anchor="middle" font-family="Arial" font-size="9" fill="#333">&#9650; ENTRY</text>
<text x="221.8" y="250.2" text-anchor="middle" font-family="Arial" font-size="7.5" fill="#7B1FA2">W/D</text>
<text x="399.7" y="290.2" text-anchor="middle" font-family="Arial" font-size="7.5" fill="#2E7D32">king bed</text>
<text x="343.0" y="500.6" text-anchor="middle" font-family="Arial" font-size="7.5" fill="#5D4037">W/H + mech</text>
<text x="307.4" y="201.0" text-anchor="middle" font-family="Arial" font-size="7.5" fill="#666" transform="rotate(0.0,307.4,201.0)">26 ft</text>
<text x="362.9" y="320.9" text-anchor="middle" font-family="Arial" font-size="7.5" fill="#666" transform="rotate(0.0,362.9,320.9)">35 ft</text>
<text x="294.4" y="272.9" text-anchor="middle" font-family="Arial" font-size="7.5" fill="#666" transform="rotate(90.0,294.4,272.9)">10 ft</text>
<text x="167.5" y="390.0" text-anchor="middle" font-family="Arial" font-size="7.5" fill="#666" transform="rotate(90.0,167.5,390.0)">10 ft</text>
<circle cx="379.5" cy="133.0" r="3" fill="#d32f2f"/>
<text x="380.0" y="103.9" text-anchor="middle" font-family="Arial" font-size="9" fill="#d32f2f">POB</text>
<circle cx="161.2" cy="177.8" r="3" fill="#d32f2f"/>
<text x="141.6" y="158.0" text-anchor="end" font-family="Arial" font-size="9" fill="#d32f2f">P2</text>
<circle cx="161.2" cy="509.0" r="3" fill="#d32f2f"/>
<text x="140.9" y="519.9" text-anchor="end" font-family="Arial" font-size="9" fill="#d32f2f">P3</text>
<circle cx="524.9" cy="509.0" r="3" fill="#d32f2f"/>
<text x="542.1" y="523.2" text-anchor="start" font-family="Arial" font-size="9" fill="#d32f2f">P4</text>
<circle cx="650.8" cy="426.0" r="3" fill="#d32f2f"/>
<text x="675.1" y="428.6" text-anchor="start" font-family="Arial" font-size="9" fill="#d32f2f">P5</text>
<line x1="742" y1="582" x2="742" y2="552" stroke="#333" stroke-width="2" marker-end="url(#ah)"/>
<defs><marker id="ah" markerWidth="8" markerHeight="6" refX="8" refY="3" orient="auto"><polygon points="0 0, 8 3, 0 6" fill="#333"/></marker></defs>
<text x="742" y="546" text-anchor="middle" font-family="Arial" font-size="12" font-weight="bold">N</text>
<text x="35" y="507" font-family="Arial" font-size="9" font-weight="bold" fill="#333">Legend</text>
<rect x="35" y="512" width="12" height="10" fill="#E3F2FD" stroke="#1565C0" stroke-width="1"/>
<text x="51" y="520.5" font-family="Arial" font-size="8" fill="#333">OFFICE</text>
<rect x="35" y="526" width="12" height="10" fill="#F3E5F5" stroke="#7B1FA2" stroke-width="1"/>
<text x="51" y="534.5" font-family="Arial" font-size="8" fill="#333">BATH / UTILITY</text>
<rect x="35" y="540" width="12" height="10" fill="#FCE4EC" stroke="#C62828" stroke-width="1"/>
<text x="51" y="548.5" font-family="Arial" font-size="8" fill="#333">BATH / SHOWER</text>
<rect x="35" y="554" width="12" height="10" fill="#E8F5E9" stroke="#2E7D32" stroke-width="1"/>
<text x="51" y="562.5" font-family="Arial" font-size="8" fill="#333">BEDROOM</text>
<rect x="35" y="568" width="12" height="10" fill="#FFF8E1" stroke="#F57F17" stroke-width="1"/>
<text x="51" y="576.5" font-family="Arial" font-size="8" fill="#333">MAIN ROOM</text>
<rect x="35" y="582" width="12" height="10" fill="#EFEBE9" stroke="#5D4037" stroke-width="1"/>
<text x="51" y="590.5" font-family="Arial" font-size="8" fill="#333">STORAGE / MECH</text>
<text x="396.0" y="602" text-anchor="middle" font-family="Arial" font-size="8" fill="#999">Traverse: 1029 sq ft &#8226; Main room in wide south, wet rooms stacked on west plumbing wall, office in narrow north &#8226; Letter landscape</text>
</svg>