<svg xmlns="http://www.w3.org/2000/svg" width="792" height="612" viewBox="0 0 792 612">
<rect width="792" height="612" fill="white"/>
<text x="396.0" y="36" text-anchor="middle" font-family="Arial" font-size="16" font-weight="bold">Rough Field Survey &#8212; 5-Sided Traverse (Adjusted Bearings)</text>
<polygon points="367.79,107.10 142.30,155.46 137.14,480.70 521.59,504.90 654.86,417.05" fill="#f0f4ff" stroke="#333" stroke-width="2" stroke-linejoin="round"/>
<circle cx="367.79" cy="107.10" r="4" fill="#d32f2f"/>
<text x="365.5" y="89.3" text-anchor="middle" font-family="Arial" font-size="11" font-weight="bold" fill="#d32f2f">P.O.B.</text>
<circle cx="142.30" cy="155.46" r="4" fill="#d32f2f"/>
<text x="128.5" y="145.3" text-anchor="end" font-family="Arial" font-size="11" font-weight="bold" fill="#d32f2f">P2</text>
<circle cx="137.14" cy="480.70" r="4" fill="#d32f2f"/>
<text x="123.9" y="487.7" text-anchor="end" font-family="Arial" font-size="11" font-weight="bold" fill="#d32f2f">P3</text>
<circle cx="521.59" cy="504.90" r="4" fill="#d32f2f"/>
<text x="530.1" y="516.4" text-anchor="start" font-family="Arial" font-size="11" font-weight="bold" fill="#d32f2f">P4</text>
<circle cx="654.86" cy="417.05" r="4" fill="#d32f2f"/>
<text x="669.6" y="421.4" text-anchor="start" font-family="Arial" font-size="11" font-weight="bold" fill="#d32f2f">P5</text>
<g transform="translate(252.1,117.6) rotate(-12.1)">
  <text x="0" y="-4" text-anchor="middle" font-family="Arial" font-size="9.5" fill="#1a237e">Brg 257&#176; 53' 45.0"</text>
  <text x="0" y="9" text-anchor="middle" font-family="Arial" font-size="9.5" fill="#333">Dist 19' 1.0"</text>
</g>
<g transform="translate(125.7,317.9) rotate(-89.1)">
  <text x="0" y="-4" text-anchor="middle" font-family="Arial" font-size="9.5" fill="#1a237e">Brg 180&#176; 54' 31.0"</text>
  <text x="0" y="9" text-anchor="middle" font-family="Arial" font-size="9.5" fill="#333">Dist 26' 11.0"</text>
</g>
<g transform="translate(328.5,506.8) rotate(3.6)">
  <text x="0" y="-4" text-anchor="middle" font-family="Arial" font-size="9.5" fill="#1a237e">Brg 93&#176; 36' 07.0"</text>
  <text x="0" y="9" text-anchor="middle" font-family="Arial" font-size="9.5" fill="#333">Dist 31' 10.5"</text>
</g>
<g transform="translate(595.9,472.7) rotate(-33.4)">
  <text x="0" y="-4" text-anchor="middle" font-family="Arial" font-size="9.5" fill="#1a237e">Brg 56&#176; 36' 31.0"</text>
  <text x="0" y="9" text-anchor="middle" font-family="Arial" font-size="9.5" fill="#333">Dist 13' 2.5"</text>
</g>
<g transform="translate(521.6,252.6) rotate(47.2)">
  <text x="0" y="-4" text-anchor="middle" font-family="Arial" font-size="9.5" fill="#1a237e">Brg 317&#176; 11' 44.0"</text>
  <text x="0" y="9" text-anchor="middle" font-family="Arial" font-size="9.5" fill="#333">Dist 34' 11.5"</text>
</g>
<line x1="737" y1="572" x2="737" y2="532" stroke="#333" stroke-width="2" marker-end="url(#arrowhead)"/>
<defs><marker id="arrowhead" markerWidth="8" markerHeight="6" refX="8" refY="3" orient="auto"><polygon points="0 0, 8 3, 0 6" fill="#333"/></marker></defs>
<text x="737" y="526" text-anchor="middle" font-family="Arial" font-size="13" font-weight="bold">N</text>
<text x="396.0" y="594" text-anchor="middle" font-family="Arial" font-size="9" fill="#666">Distances in feet and inches &#8226; Bearings as adjusted for closure &#8226; Letter landscape 11" x 8.5"</text>
</svg>
