<svg xmlns="http://www.w3.org/2000/svg" width="612" height="792" viewBox="0 0 612 792">
<rect width="100%" height="100%" fill="white"/>
<text x="306.0" y="26" text-anchor="middle" font-family="Arial" font-size="13" font-weight="bold" fill="#222">N–S Interior Span</text>
<rect x="62" y="40" width="530" height="290.13888888888897" fill="none" stroke="#bbb" stroke-width="0.5"/>
<line x1="59" y1="330.1" x2="62" y2="330.1" stroke="#666" stroke-width="0.5"/>
<text x="57" y="332.6" text-anchor="end" font-family="Arial" font-size="7" fill="#555">0'</text>
<line x1="62" y1="307.8" x2="592" y2="307.8" stroke="#eaeaea" stroke-width="0.3"/>
<line x1="59" y1="307.8" x2="62" y2="307.8" stroke="#666" stroke-width="0.5"/>
<text x="57" y="310.3" text-anchor="end" font-family="Arial" font-size="7" fill="#555">2'</text>
<line x1="62" y1="285.5" x2="592" y2="285.5" stroke="#eaeaea" stroke-width="0.3"/>
<line x1="59" y1="285.5" x2="62" y2="285.5" stroke="#666" stroke-width="0.5"/>
<text x="57" y="288.0" text-anchor="end" font-family="Arial" font-size="7" fill="#555">4'</text>
<line x1="62" y1="263.2" x2="592" y2="263.2" stroke="#eaeaea" stroke-width="0.3"/>
<line x1="59" y1="263.2" x2="62" y2="263.2" stroke="#666" stroke-width="0.5"/>
<text x="57" y="265.7" text-anchor="end" font-family="Arial" font-size="7" fill="#555">6'</text>
<line x1="62" y1="240.9" x2="592" y2="240.9" stroke="#eaeaea" stroke-width="0.3"/>
<line x1="59" y1="240.9" x2="62" y2="240.9" stroke="#666" stroke-width="0.5"/>
<text x="57" y="243.4" text-anchor="end" font-family="Arial" font-size="7" fill="#555">8'</text>
<line x1="62" y1="218.5" x2="592" y2="218.5" stroke="#eaeaea" stroke-width="0.3"/>
<line x1="59" y1="218.5" x2="62" y2="218.5" stroke="#666" stroke-width="0.5"/>
<text x="57" y="221.0" text-anchor="end" font-family="Arial" font-size="7" fill="#555">10'</text>
<line x1="62" y1="196.2" x2="592" y2="196.2" stroke="#eaeaea" stroke-width="0.3"/>
<line x1="59" y1="196.2" x2="62" y2="196.2" stroke="#666" stroke-width="0.5"/>
<text x="57" y="198.7" text-anchor="end" font-family="Arial" font-size="7" fill="#555">12'</text>
<line x1="62" y1="173.9" x2="592" y2="173.9" stroke="#eaeaea" stroke-width="0.3"/>
<line x1="59" y1="173.9" x2="62" y2="173.9" stroke="#666" stroke-width="0.5"/>
<text x="57" y="176.4" text-anchor="end" font-family="Arial" font-size="7" fill="#555">14'</text>
<line x1="62" y1="151.6" x2="592" y2="151.6" stroke="#eaeaea" stroke-width="0.3"/>
<line x1="59" y1="151.6" x2="62" y2="151.6" stroke="#666" stroke-width="0.5"/>
<text x="57" y="154.1" text-anchor="end" font-family="Arial" font-size="7" fill="#555">16'</text>
<line x1="62" y1="129.3" x2="592" y2="129.3" stroke="#eaeaea" stroke-width="0.3"/>
<line x1="59" y1="129.3" x2="62" y2="129.3" stroke="#666" stroke-width="0.5"/>
<text x="57" y="131.8" text-anchor="end" font-family="Arial" font-size="7" fill="#555">18'</text>
<line x1="62" y1="107.0" x2="592" y2="107.0" stroke="#eaeaea" stroke-width="0.3"/>
<line x1="59" y1="107.0" x2="62" y2="107.0" stroke="#666" stroke-width="0.5"/>
<text x="57" y="109.5" text-anchor="end" font-family="Arial" font-size="7" fill="#555">20'</text>
<line x1="62" y1="84.6" x2="592" y2="84.6" stroke="#eaeaea" stroke-width="0.3"/>
<line x1="59" y1="84.6" x2="62" y2="84.6" stroke="#666" stroke-width="0.5"/>
<text x="57" y="87.1" text-anchor="end" font-family="Arial" font-size="7" fill="#555">22'</text>
<line x1="62" y1="62.3" x2="592" y2="62.3" stroke="#eaeaea" stroke-width="0.3"/>
<line x1="59" y1="62.3" x2="62" y2="62.3" stroke="#666" stroke-width="0.5"/>
<text x="57" y="64.8" text-anchor="end" font-family="Arial" font-size="7" fill="#555">24'</text>
<line x1="62" y1="40.0" x2="592" y2="40.0" stroke="#eaeaea" stroke-width="0.3"/>
<line x1="59" y1="40.0" x2="62" y2="40.0" stroke="#666" stroke-width="0.5"/>
<text x="57" y="42.5" text-anchor="end" font-family="Arial" font-size="7" fill="#555">26'</text>
<line x1="62.0" y1="330.13888888888897" x2="62.0" y2="333.13888888888897" stroke="#666" stroke-width="0.5"/>
<text x="62.0" y="342.13888888888897" text-anchor="middle" font-family="Arial" font-size="7" fill="#555">0'</text>
<line x1="135.6" y1="40" x2="135.6" y2="330.13888888888897" stroke="#f0f0f0" stroke-width="0.3"/>
<line x1="135.6" y1="330.13888888888897" x2="135.6" y2="333.13888888888897" stroke="#666" stroke-width="0.5"/>
<text x="135.6" y="342.13888888888897" text-anchor="middle" font-family="Arial" font-size="7" fill="#555">5'</text>
<line x1="209.2" y1="40" x2="209.2" y2="330.13888888888897" stroke="#f0f0f0" stroke-width="0.3"/>
<line x1="209.2" y1="330.13888888888897" x2="209.2" y2="333.13888888888897" stroke="#666" stroke-width="0.5"/>
<text x="209.2" y="342.13888888888897" text-anchor="middle" font-family="Arial" font-size="7" fill="#555">10'</text>
<line x1="282.8" y1="40" x2="282.8" y2="330.13888888888897" stroke="#f0f0f0" stroke-width="0.3"/>
<line x1="282.8" y1="330.13888888888897" x2="282.8" y2="333.13888888888897" stroke="#666" stroke-width="0.5"/>
<text x="282.8" y="342.13888888888897" text-anchor="middle" font-family="Arial" font-size="7" fill="#555">15'</text>
<line x1="356.4" y1="40" x2="356.4" y2="330.13888888888897" stroke="#f0f0f0" stroke-width="0.3"/>
<line x1="356.4" y1="330.13888888888897" x2="356.4" y2="333.13888888888897" stroke="#666" stroke-width="0.5"/>
<text x="356.4" y="342.13888888888897" text-anchor="middle" font-family="Arial" font-size="7" fill="#555">20'</text>
<line x1="430.1" y1="40" x2="430.1" y2="330.13888888888897" stroke="#f0f0f0" stroke-width="0.3"/>
<line x1="430.1" y1="330.13888888888897" x2="430.1" y2="333.13888888888897" stroke="#666" stroke-width="0.5"/>
<text x="430.1" y="342.13888888888897" text-anchor="middle" font-family="Arial" font-size="7" fill="#555">25'</text>
<line x1="503.7" y1="40" x2="503.7" y2="330.13888888888897" stroke="#f0f0f0" stroke-width="0.3"/>
<line x1="503.7" y1="330.13888888888897" x2="503.7" y2="333.13888888888897" stroke="#666" stroke-width="0.5"/>
<text x="503.7" y="342.13888888888897" text-anchor="middle" font-family="Arial" font-size="7" fill="#555">30'</text>
<line x1="577.3" y1="40" x2="577.3" y2="330.13888888888897" stroke="#f0f0f0" stroke-width="0.3"/>
<line x1="577.3" y1="330.13888888888897" x2="577.3" y2="333.13888888888897" stroke="#666" stroke-width="0.5"/>
<text x="577.3" y="342.13888888888897" text-anchor="middle" font-family="Arial" font-size="7" fill="#555">35'</text>
<polyline points="73.0,201.6 74.3,201.3 75.5,201.2 76.7,201.1 77.9,201.0 79.2,200.9 80.4,200.8 81.6,200.7 82.9,200.6 84.1,200.5 85.3,200.4 86.5,200.3 87.8,200.2 89.0,200.1 90.2,200.0 91.4,199.9 92.7,199.8 93.9,199.7 95.1,199.6 96.4,199.5 97.6,199.4 98.8,199.3 100.0,199.1 101.3,199.0 102.5,198.9 103.7,198.8 104.9,198.7 106.2,198.6 107.4,198.5 108.6,198.4 109.8,198.3 111.1,198.2 112.3,198.1 113.5,198.0 114.8,197.9 116.0,197.8 117.2,197.7 118.4,197.6 119.7,197.5 120.9,197.4 122.1,197.3 123.3,197.2 124.6,197.1 125.8,197.0 127.0,196.9 128.2,196.8 129.5,196.7 130.7,196.5 131.9,196.4 133.2,196.3 134.4,196.2 135.6,196.1 136.8,196.0 138.1,195.9 139.3,195.8 140.5,195.7 141.7,195.6 143.0,195.5 144.2,195.4 145.4,195.3 146.7,195.2 147.9,195.1 149.1,195.0 150.3,194.9 151.6,194.8 152.8,194.7 154.0,194.6 155.2,194.5 156.5,194.4 157.7,194.3 158.9,194.2 160.1,194.1 161.4,193.9 162.6,193.8 163.8,193.7 165.1,193.6 166.3,193.5 167.5,193.4 168.7,213.8 170.0,213.7 171.2,213.6 172.4,213.5 173.6,213.4 174.9,213.3 176.1,213.2 177.3,213.1 178.6,213.0 179.8,212.8 181.0,212.7 182.2,212.6 183.5,212.5 184.7,212.4 185.9,212.3 187.1,212.2 188.4,212.1 189.6,212.0 190.8,211.9 192.0,211.8 193.3,211.7 194.5,211.6 195.7,211.5 197.0,211.4 198.2,211.3 199.4,211.2 200.6,211.1 201.9,211.0 203.1,210.9 204.3,210.8 205.5,210.7 206.8,210.6 208.0,210.5 209.2,210.4 210.4,210.2 211.7,210.1 212.9,210.0 214.1,209.9 215.4,209.8 216.6,209.7 217.8,209.6 219.0,209.5 220.3,209.4 221.5,209.3 222.7,209.2 223.9,209.1 225.2,209.0 226.4,208.9 227.6,208.8 228.9,208.7 230.1,208.6 231.3,208.5 232.5,208.4 233.8,208.3 235.0,208.2 236.2,208.1 237.4,208.0 238.7,207.9 239.9,207.8 241.1,207.7 242.3,207.5 243.6,207.4 244.8,207.3 246.0,207.2 247.3,207.1 248.5,207.0 249.7,206.9 250.9,206.8 252.2,206.7 253.4,206.6 254.6,206.5 255.8,206.4 257.1,206.3 258.3,206.2 259.5,206.1 260.8,206.0 262.0,205.9 263.2,205.8 264.4,205.7 265.7,205.6 266.9,205.5 268.1,205.4 269.3,205.3 270.6,205.2 271.8,205.1 273.0,204.9 274.2,204.8 275.5,204.7 276.7,204.6 277.9,204.5 279.2,204.4 280.4,204.3 281.6,204.2 282.8,204.1 284.1,204.0 285.3,203.9 286.5,203.8 287.7,203.7 289.0,203.6 290.2,203.5 291.4,203.4 292.6,203.3 293.9,203.2 295.1,203.1 296.3,203.0 297.6,202.9 298.8,202.8 300.0,202.7 301.2,202.6 302.5,202.5 303.7,202.3 304.9,202.2 306.1,202.1 307.4,202.0 308.6,201.9 309.8,201.8 311.1,201.7 312.3,201.6 313.5,201.5 314.7,201.4 316.0,201.3 317.2,201.2 318.4,201.1 319.6,201.0 320.9,200.9 322.1,200.8 323.3,200.7 324.5,200.6 325.8,200.5 327.0,200.4 328.2,200.3 329.5,200.2 330.7,200.1 331.9,200.0 333.1,199.9 334.4,199.7 335.6,199.6 336.8,199.5 338.0,199.4 339.3,199.3 340.5,199.2 341.7,199.1 342.9,199.0 344.2,198.9 345.4,198.8 346.6,198.7 347.9,198.6 349.1,198.5 350.3,198.4 351.5,198.3 352.8,198.2 354.0,198.1 355.2,198.0 356.4,197.9 357.7,197.8 358.9,197.7 360.1,197.6 361.4,197.5 362.6,197.4 363.8,197.3 365.0,197.1 366.3,197.0 367.5,196.9 368.7,196.8 369.9,196.7 371.2,196.6 372.4,196.5 373.6,196.4 374.8,196.3 376.1,196.2 377.3,196.1 378.5,196.0 379.8,195.9 381.0,195.8 382.2,195.7 383.4,195.6 384.7,195.5 385.9,195.4 387.1,195.3 388.3,195.2 389.6,195.1 390.8,195.0 392.0,194.9 393.2,194.8 394.5,194.7 395.7,194.6 396.9,194.4 398.2,194.3 399.4,194.2 400.6,194.1 401.8,194.0 403.1,193.9 404.3,193.8 405.5,193.7 406.7,193.6 408.0,193.5 409.2,193.4 410.4,193.3 411.7,193.2 412.9,193.1 414.1,193.0 415.3,192.9 416.6,192.8 417.8,192.7 419.0,192.6 420.2,192.5 421.5,192.4 422.7,192.3 423.9,192.2 425.1,192.2 426.4,192.1 427.6,192.0 428.8,192.0 430.1,191.9 431.3,191.9 432.5,191.8 433.7,191.8 435.0,191.7 436.2,191.7 437.4,191.7 438.6,191.6 439.9,191.6 441.1,191.6 442.3,191.6 443.6,191.6 444.8,191.6 446.0,191.6 447.2,191.6 448.5,191.6 449.7,191.6 450.9,191.6 452.1,191.6 453.4,191.6 454.6,191.6 455.8,191.6 457.0,191.6 458.3,191.6 459.5,191.6 460.7,191.6 462.0,191.6 463.2,191.6 464.4,191.7 465.6,191.7 466.9,191.8 468.1,191.9 469.3,192.0 470.5,192.1 471.8,192.2 473.0,192.3 474.2,192.4 475.4,192.6 476.7,192.7 477.9,192.9 479.1,193.1 480.4,193.3 481.6,193.5 482.8,193.7 484.0,194.0 485.3,194.2 486.5,194.5 487.7,194.7 488.9,195.0 490.2,195.3 491.4,195.6 492.6,196.0 493.9,196.3 495.1,196.7 496.3,197.0 497.5,197.4 498.8,197.8 500.0,198.2 501.2,198.7 502.4,199.1 503.7,199.6 504.9,200.1 506.1,200.6 507.3,201.1 508.6,201.7 509.8,202.2 511.0,202.7 512.3,203.3 513.5,203.8 514.7,204.3 515.9,204.9 517.2,205.4 518.4,206.0 519.6,206.5 520.8,207.0 522.1,207.6 523.3,208.1 524.5,208.6 525.7,209.2 527.0,209.7 528.2,210.3 529.4,210.8 530.7,211.3 531.9,211.9 533.1,212.4 534.3,212.9 535.6,213.5 536.8,214.0 538.0,214.5 539.2,215.1 540.5,215.6 541.7,216.2 542.9,216.7 544.2,217.2 545.4,217.8 546.6,218.3 547.8,218.8 549.1,219.4 550.3,219.9 551.5,220.5 552.7,221.0 554.0,221.5 555.2,222.1 556.4,222.6 557.6,223.1 558.9,223.7 560.1,224.2 561.3,224.7 562.6,225.3 563.8,225.8 565.0,226.4 566.2,226.9 567.5,227.4 568.7,228.0 569.9,228.5 571.1,229.2 572.4,229.9 573.6,230.7 574.8,231.6 576.1,232.6 577.3,233.9 578.5,235.3 579.7,237.1 581.0,239.5 582.2,245.5" fill="none" stroke="#2E7D32" stroke-width="0.8" stroke-linejoin="round"/>
<polyline points="73.0,303.8 74.3,298.5 75.5,293.2 76.7,288.0 77.9,282.7 79.2,277.4 80.4,272.1 81.6,266.9 82.9,261.6 84.1,256.3 85.3,251.0 86.5,245.8 87.8,240.5 89.0,235.2 90.2,230.0 91.4,224.7 92.7,219.4 93.9,214.1 95.1,210.0 96.4,207.7 97.6,206.0 98.8,204.6 100.0,203.5 101.3,202.5 102.5,201.6 103.7,200.9 104.9,200.2 106.2,199.7 107.4,199.2 108.6,198.7 109.8,198.3 111.1,198.0 112.3,197.8 113.5,197.5 114.8,197.4 116.0,197.3 117.2,197.2 118.4,197.2 119.7,197.2 120.9,197.2 122.1,197.2 123.3,197.2 124.6,197.2 125.8,197.2 127.0,197.2 128.2,197.2 129.5,197.2 130.7,197.2 131.9,197.2 133.2,197.2 134.4,197.2 135.6,197.2 136.8,197.2 138.1,197.2 139.3,197.2 140.5,197.2 141.7,197.2 143.0,197.2 144.2,197.2 145.4,197.2 146.7,197.2 147.9,197.2 149.1,197.2 150.3,197.2 151.6,197.2 152.8,197.2 154.0,197.2 155.2,197.2 156.5,197.2 157.7,197.2 158.9,197.2 160.1,197.2 161.4,197.2 162.6,197.2 163.8,197.2 165.1,197.2 166.3,197.2 167.5,197.2 168.7,176.7 170.0,176.7 171.2,176.7 172.4,176.7 173.6,176.7 174.9,176.7 176.1,176.7 177.3,176.7 178.6,176.7 179.8,176.7 181.0,176.7 182.2,176.7 183.5,176.7 184.7,176.7 185.9,176.7 187.1,176.7 188.4,176.7 189.6,176.7 190.8,176.7 192.0,176.8 193.3,176.9 194.5,177.1 195.7,177.3 197.0,177.6 198.2,177.9 199.4,178.3 200.6,178.7 201.9,179.2 203.1,179.8 204.3,180.4 205.5,181.2 206.8,182.0 208.0,183.0 209.2,184.2 210.4,185.5 211.7,187.2 212.9,189.5 214.1,202.4 215.4,204.2 216.6,204.6 217.8,204.6 219.0,204.6 220.3,204.6 221.5,204.6 222.7,204.6 223.9,204.6 225.2,204.6 226.4,204.6 227.6,204.6 228.9,204.6 230.1,204.6 231.3,204.6 232.5,204.6 233.8,204.6 235.0,204.6 236.2,204.6 237.4,204.6 238.7,204.6 239.9,204.6 241.1,204.6 242.3,204.6 243.6,204.6 244.8,204.6 246.0,204.6 247.3,204.6 248.5,204.6 249.7,204.6 250.9,204.6 252.2,204.6 253.4,204.6 254.6,204.6 255.8,204.6 257.1,204.6 258.3,204.6 259.5,204.6 260.8,204.6 262.0,204.6 263.2,204.6 264.4,204.6 265.7,204.6 266.9,204.6 268.1,204.6 269.3,204.6 270.6,204.6 271.8,204.6 273.0,204.6 274.2,204.6 275.5,204.6 276.7,204.6 277.9,204.6 279.2,204.6 280.4,204.6 281.6,204.6 282.8,204.6 284.1,204.6 285.3,204.6 286.5,204.6 287.7,204.6 289.0,204.6 290.2,204.6 291.4,204.6 292.6,204.6 293.9,204.6 295.1,204.6 296.3,204.6 297.6,204.6 298.8,204.6 300.0,204.6 301.2,204.6 302.5,204.6 303.7,204.6 304.9,204.6 306.1,204.6 307.4,204.6 308.6,204.6 309.8,204.6 311.1,204.6 312.3,204.6 313.5,204.6 314.7,204.6 316.0,204.6 317.2,204.6 318.4,204.6 319.6,204.6 320.9,204.6 322.1,204.6 323.3,204.6 324.5,204.6 325.8,204.6 327.0,204.6 328.2,204.6 329.5,204.6 330.7,204.6 331.9,204.6 333.1,204.6 334.4,204.6 335.6,204.6 336.8,204.6 338.0,204.6 339.3,204.6 340.5,204.6 341.7,204.6 342.9,204.6 344.2,204.6 345.4,204.6 346.6,204.6 347.9,204.6 349.1,204.6 350.3,204.6 351.5,204.6 352.8,204.6 354.0,204.6 355.2,204.6 356.4,204.6 357.7,204.6 358.9,204.6 360.1,204.6 361.4,204.6 362.6,204.6 363.8,204.6 365.0,204.6 366.3,204.6 367.5,204.6 368.7,204.6 369.9,204.6 371.2,204.6 372.4,204.6 373.6,204.6 374.8,204.6 376.1,204.6 377.3,204.6 378.5,204.6 379.8,204.6 381.0,204.6 382.2,204.6 383.4,204.6 384.7,204.6 385.9,204.6 387.1,204.6 388.3,204.6 389.6,204.6 390.8,204.6 392.0,204.6 393.2,204.6 394.5,204.6 395.7,204.6 396.9,204.6 398.2,204.6 399.4,204.6 400.6,204.6 401.8,204.6 403.1,204.6 404.3,204.6 405.5,204.6 406.7,204.6 408.0,204.6 409.2,204.6 410.4,204.6 411.7,204.6 412.9,204.6 414.1,204.6 415.3,204.6 416.6,204.6 417.8,204.6 419.0,204.6 420.2,204.6 421.5,204.6 422.7,204.6 423.9,204.6 425.1,204.6 426.4,204.6 427.6,204.6 428.8,204.6 430.1,204.6 431.3,204.6 432.5,204.6 433.7,204.6 435.0,204.6 436.2,204.6 437.4,204.6 438.6,204.6 439.9,204.6 441.1,204.6 442.3,204.6 443.6,204.6 444.8,204.6 446.0,204.6 447.2,204.6 448.5,204.6 449.7,204.6 450.9,204.6 452.1,204.6 453.4,204.6 454.6,204.6 455.8,204.6 457.0,204.6 458.3,204.6 459.5,204.6 460.7,204.6 462.0,204.6 463.2,204.6 464.4,204.6 465.6,204.6 466.9,204.6 468.1,204.6 469.3,204.6 470.5,204.6 471.8,204.5 473.0,204.4 474.2,204.2 475.4,204.0 476.7,203.8 477.9,203.4 479.1,203.1 480.4,202.7 481.6,202.2 482.8,201.6 484.0,201.0 485.3,200.3 486.5,199.4 487.7,198.5 488.9,197.4 490.2,196.2 491.4,194.6 492.6,192.6 493.9,189.8 495.1,187.4 496.3,185.7 497.5,184.3 498.8,183.1 500.0,182.1 501.2,181.2 502.4,180.5 503.7,179.8 504.9,179.2 506.1,178.7 507.3,178.3 508.6,177.9 509.8,177.6 511.0,177.3 512.3,177.1 513.5,176.9 514.7,176.8 515.9,176.7 517.2,176.7 518.4,176.7 519.6,176.8 520.8,176.9 522.1,177.1 523.3,177.3 524.5,177.5 525.7,177.8 527.0,178.2 528.2,178.6 529.4,179.1 530.7,179.7 531.9,180.4 533.1,181.1 534.3,181.9 535.6,182.9 536.8,184.0 538.0,185.4 539.2,187.0 540.5,189.2 541.7,192.5 542.9,196.0 544.2,199.5 545.4,202.9 546.6,206.4 547.8,209.9 549.1,213.3 550.3,216.8 551.5,220.3 552.7,223.7 554.0,227.2 555.2,230.7 556.4,234.2 557.6,237.6 558.9,241.1 560.1,244.6 561.3,248.0 562.6,251.5 563.8,255.0 565.0,258.5 566.2,261.9 567.5,265.4 568.7,268.9 569.9,272.3 571.1,275.8 572.4,279.3 573.6,282.7 574.8,286.2 576.1,289.7 577.3,293.2 578.5,296.6 579.7,300.1 581.0,304.2 582.2,314.3" fill="none" stroke="#00ACC1" stroke-width="0.8" stroke-linejoin="round"/>
<polyline points="73.0,175.2 74.3,169.7 75.5,164.3 76.7,158.9 77.9,153.6 79.2,148.2 80.4,142.8 81.6,137.4 82.9,132.1 84.1,126.7 85.3,121.3 86.5,115.9 87.8,110.5 89.0,105.2 90.2,99.8 91.4,94.4 92.7,89.0 93.9,83.7 95.1,79.4 96.4,77.0 97.6,75.2 98.8,73.7 100.0,72.5 101.3,71.4 102.5,70.4 103.7,69.6 104.9,68.8 106.2,68.2 107.4,67.5 108.6,67.0 109.8,66.5 111.1,66.1 112.3,65.7 113.5,65.4 114.8,65.1 116.0,64.9 117.2,64.7 118.4,64.6 119.7,64.5 120.9,64.4 122.1,64.3 123.3,64.2 124.6,64.1 125.8,64.0 127.0,63.9 128.2,63.8 129.5,63.7 130.7,63.6 131.9,63.5 133.2,63.4 134.4,63.3 135.6,63.2 136.8,63.0 138.1,62.9 139.3,62.8 140.5,62.7 141.7,62.6 143.0,62.5 144.2,62.4 145.4,62.3 146.7,62.2 147.9,62.1 149.1,62.0 150.3,61.9 151.6,61.8 152.8,61.7 154.0,61.6 155.2,61.5 156.5,61.4 157.7,61.3 158.9,61.2 160.1,61.1 161.4,61.0 162.6,60.9 163.8,60.8 165.1,60.7 166.3,60.6 167.5,60.4 168.7,60.3 170.0,60.2 171.2,60.1 172.4,60.0 173.6,59.9 174.9,59.8 176.1,59.7 177.3,59.6 178.6,59.5 179.8,59.4 181.0,59.3 182.2,59.2 183.5,59.1 184.7,59.0 185.9,58.9 187.1,58.8 188.4,58.7 189.6,58.6 190.8,58.5 192.0,58.5 193.3,58.5 194.5,58.6 195.7,58.7 197.0,58.8 198.2,59.0 199.4,59.3 200.6,59.6 201.9,60.0 203.1,60.5 204.3,61.1 205.5,61.7 206.8,62.4 208.0,63.3 209.2,64.4 210.4,65.6 211.7,67.2 212.9,69.4 214.1,82.2 215.4,83.9 216.6,84.2 217.8,84.1 219.0,84.0 220.3,83.9 221.5,83.8 222.7,83.7 223.9,83.6 225.2,83.5 226.4,83.4 227.6,83.3 228.9,83.1 230.1,83.0 231.3,82.9 232.5,82.8 233.8,82.7 235.0,82.6 236.2,82.5 237.4,82.4 238.7,82.3 239.9,82.2 241.1,82.1 242.3,82.0 243.6,81.9 244.8,81.8 246.0,81.7 247.3,81.6 248.5,81.5 249.7,81.4 250.9,81.3 252.2,81.2 253.4,81.1 254.6,81.0 255.8,80.9 257.1,80.8 258.3,80.7 259.5,80.5 260.8,80.4 262.0,80.3 263.2,80.2 264.4,80.1 265.7,80.0 266.9,79.9 268.1,79.8 269.3,79.7 270.6,79.6 271.8,79.5 273.0,79.4 274.2,79.3 275.5,79.2 276.7,79.1 277.9,79.0 279.2,78.9 280.4,78.8 281.6,78.7 282.8,78.6 284.1,78.5 285.3,78.4 286.5,78.3 287.7,78.2 289.0,78.1 290.2,78.0 291.4,77.8 292.6,77.7 293.9,77.6 295.1,77.5 296.3,77.4 297.6,77.3 298.8,77.2 300.0,77.1 301.2,77.0 302.5,76.9 303.7,76.8 304.9,76.7 306.1,76.6 307.4,76.5 308.6,76.4 309.8,76.3 311.1,76.2 312.3,76.1 313.5,76.0 314.7,75.9 316.0,75.8 317.2,75.7 318.4,75.6 319.6,75.5 320.9,75.4 322.1,75.2 323.3,75.1 324.5,75.0 325.8,74.9 327.0,74.8 328.2,74.7 329.5,74.6 330.7,74.5 331.9,74.4 333.1,74.3 334.4,74.2 335.6,74.1 336.8,74.0 338.0,73.9 339.3,73.8 340.5,73.7 341.7,73.6 342.9,73.5 344.2,73.4 345.4,73.3 346.6,73.2 347.9,73.1 349.1,73.0 350.3,72.9 351.5,72.8 352.8,72.6 354.0,72.5 355.2,72.4 356.4,72.3 357.7,72.2 358.9,72.1 360.1,72.0 361.4,71.9 362.6,71.8 363.8,71.7 365.0,71.6 366.3,71.5 367.5,71.4 368.7,71.3 369.9,71.2 371.2,71.1 372.4,71.0 373.6,70.9 374.8,70.8 376.1,70.7 377.3,70.6 378.5,70.5 379.8,70.4 381.0,70.3 382.2,70.2 383.4,70.0 384.7,69.9 385.9,69.8 387.1,69.7 388.3,69.6 389.6,69.5 390.8,69.4 392.0,69.3 393.2,69.2 394.5,69.1 395.7,69.0 396.9,68.9 398.2,68.8 399.4,68.7 400.6,68.6 401.8,68.5 403.1,68.4 404.3,68.3 405.5,68.2 406.7,68.1 408.0,68.0 409.2,67.9 410.4,67.8 411.7,67.7 412.9,67.6 414.1,67.4 415.3,67.3 416.6,67.2 417.8,67.1 419.0,67.0 420.2,66.9 421.5,66.9 422.7,66.8 423.9,66.7 425.1,66.6 426.4,66.5 427.6,66.5 428.8,66.4 430.1,66.4 431.3,66.3 432.5,66.3 433.7,66.2 435.0,66.2 436.2,66.1 437.4,66.1 438.6,66.1 439.9,66.1 441.1,66.1 442.3,66.0 443.6,66.0 444.8,66.0 446.0,66.0 447.2,66.0 448.5,66.0 449.7,66.0 450.9,66.0 452.1,66.0 453.4,66.0 454.6,66.0 455.8,66.0 457.0,66.0 458.3,66.0 459.5,66.0 460.7,66.1 462.0,66.1 463.2,66.1 464.4,66.1 465.6,66.2 466.9,66.3 468.1,66.3 469.3,66.4 470.5,66.5 471.8,66.5 473.0,66.5 474.2,66.5 475.4,66.5 476.7,66.4 477.9,66.2 479.1,66.0 480.4,65.8 481.6,65.5 482.8,65.2 484.0,64.8 485.3,64.3 486.5,63.8 487.7,63.1 488.9,62.3 490.2,61.4 491.4,60.1 492.6,58.5 493.9,56.0 495.1,53.9 496.3,52.6 497.5,51.6 498.8,50.8 500.0,50.2 501.2,49.8 502.4,49.5 503.7,49.3 504.9,49.2 506.1,49.2 507.3,49.3 508.6,49.4 509.8,49.6 511.0,49.9 512.3,50.2 513.5,50.6 514.7,51.0 515.9,51.5 517.2,52.0 518.4,52.5 519.6,53.1 520.8,53.8 522.1,54.5 523.3,55.2 524.5,56.0 525.7,56.9 527.0,57.8 528.2,58.8 529.4,59.8 530.7,60.9 531.9,62.1 533.1,63.4 534.3,64.7 535.6,66.2 536.8,67.9 538.0,69.8 539.2,72.0 540.5,74.7 541.7,78.5 542.9,82.5 544.2,86.5 545.4,90.6 546.6,94.6 547.8,98.6 549.1,102.6 550.3,106.6 551.5,110.6 552.7,114.6 554.0,118.6 555.2,122.6 556.4,126.6 557.6,130.6 558.9,134.6 560.1,138.6 561.3,142.7 562.6,146.7 563.8,150.7 565.0,154.7 566.2,158.7 567.5,162.7 568.7,166.7 569.9,170.7 571.1,174.8 572.4,179.0 573.6,183.3 574.8,187.7 576.1,192.2 577.3,196.9 578.5,201.8 579.7,207.0 581.0,213.6 582.2,229.7" fill="none" stroke="#1565C0" stroke-width="1.0" stroke-linejoin="round"/>
<line x1="62" y1="49.2" x2="592" y2="49.2" stroke="#C62828" stroke-width="0.7" stroke-dasharray="6,3"/>
<text x="589" y="46.2" text-anchor="end" font-family="Arial" font-size="8" fill="#C62828" font-weight="bold">25' 2.15"</text>
<text x="10" y="185.1" text-anchor="middle" font-family="Arial" font-size="9" fill="#333" transform="rotate(-90,10,185.1)">Span (ft)</text>
<line x1="70" y1="50" x2="84" y2="50" stroke="#1565C0" stroke-width="1.2"/>
<text x="87" y="53" font-family="Arial" font-size="6" fill="#444">Total span</text>
<line x1="70" y1="61" x2="84" y2="61" stroke="#2E7D32" stroke-width="1.2"/>
<text x="87" y="64" font-family="Arial" font-size="6" fill="#444">S wall → IW mid</text>
<line x1="70" y1="72" x2="84" y2="72" stroke="#00ACC1" stroke-width="1.2"/>
<text x="87" y="75" font-family="Arial" font-size="6" fill="#444">IW mid → N wall</text>
<polygon points="72.9,727.1 72.0,726.9 71.1,726.7 70.3,726.5 69.5,726.1 68.6,725.8 67.9,725.3 67.1,724.8 66.4,724.3 65.7,723.7 65.1,723.0 64.6,722.3 64.0,721.6 63.6,720.9 63.2,720.1 62.8,719.2 62.5,718.4 62.3,717.5 62.1,716.6 62.0,715.8 62.0,714.9 62.0,526.0 62.0,525.3 62.0,524.6 62.0,523.8 62.1,523.1 62.1,522.4 62.1,521.7 62.2,520.9 62.2,520.2 62.3,519.5 62.3,518.8 62.4,518.0 62.5,517.3 62.5,516.6 62.6,515.9 62.7,515.1 62.8,514.4 62.9,513.7 63.0,513.0 63.1,512.3 63.3,511.5 84.6,390.5 85.1,388.2 85.8,385.9 86.6,383.6 87.6,381.4 88.7,379.3 90.0,377.3 91.4,375.3 92.9,373.5 94.6,371.8 96.4,370.2 98.2,368.7 100.2,367.4 102.3,366.2 104.5,365.1 106.7,364.2 109.0,363.5 111.3,362.9 113.7,362.5 116.0,362.2 118.4,362.1 189.6,362.1 192.3,362.2 195.0,362.6 197.6,363.1 200.2,363.8 202.7,364.8 205.2,365.9 207.5,367.2 209.8,368.7 211.9,370.4 213.9,372.2 215.7,374.2 217.4,376.3 218.9,378.5 220.2,380.9 221.3,383.3 222.3,385.9 223.0,388.5 223.5,391.1 223.8,393.8 223.9,396.5 224.0,396.7 224.0,396.9 224.0,397.1 224.1,397.2 224.1,397.4 224.2,397.6 224.3,397.8 224.4,397.9 224.5,398.1 224.7,398.2 224.8,398.4 225.0,398.5 225.1,398.6 225.3,398.7 225.5,398.8 225.6,398.8 225.8,398.9 226.0,398.9 226.2,398.9 226.4,398.9 469.3,398.9 470.3,398.9 471.3,398.8 472.3,398.7 473.3,398.4 474.2,398.1 475.2,397.8 476.1,397.4 477.0,396.9 477.8,396.4 478.6,395.8 479.4,395.1 480.1,394.5 480.8,393.7 481.5,393.0 482.0,392.1 482.6,391.3 483.0,390.4 483.5,389.5 483.8,388.6 484.1,387.6 484.5,386.2 485.0,384.7 485.5,383.3 486.1,382.0 486.8,380.6 487.5,379.3 488.3,378.0 489.1,376.8 490.0,375.6 491.0,374.4 492.0,373.3 493.0,372.2 494.1,371.2 495.2,370.2 496.4,369.2 497.6,368.4 498.8,367.5 500.1,366.7 501.4,366.0 502.8,365.4 504.1,364.8 505.5,364.2 507.0,363.7 508.4,363.3 509.8,363.0 511.3,362.7 512.8,362.4 514.3,362.3 515.8,362.2 517.3,362.1 518.8,362.2 520.3,362.3 521.8,362.4 523.2,362.7 524.7,363.0 526.2,363.3 527.6,363.7 529.0,364.2 530.4,364.8 531.8,365.4 533.1,366.0 534.5,366.7 535.7,367.5 537.0,368.4 538.2,369.2 539.4,370.2 540.5,371.2 541.6,372.2 542.6,373.3 543.6,374.4 544.5,375.6 545.4,376.8 546.3,378.0 547.0,379.3 547.8,380.6 548.4,382.0 549.0,383.3 549.6,384.7 550.0,386.2 550.5,387.6 589.2,532.1 589.3,532.4 589.4,532.8 589.5,533.1 589.5,533.5 589.6,533.8 589.7,534.2 589.8,534.5 589.9,534.9 590.0,535.2 590.0,535.6 590.1,536.0 590.2,536.3 590.3,536.7 590.3,537.0 590.4,537.4 590.5,537.7 590.5,538.1 590.6,538.4 590.7,538.8 590.7,539.1 590.8,539.5 590.9,539.9 590.9,540.2 591.0,540.6 591.0,540.9 591.1,541.3 591.1,541.6 591.2,542.0 591.2,542.4 591.3,542.7 591.3,543.1 591.4,543.4 591.4,543.8 591.5,544.1 591.5,544.5 591.5,544.9 591.6,545.2 591.6,545.6 591.7,545.9 591.7,546.3 591.7,546.7 591.7,547.0 591.8,547.4 591.8,547.7 591.8,548.1 591.8,548.5 591.9,548.8 591.9,549.2 591.9,549.6 591.9,549.9 591.9,550.3 591.9,550.6 592.0,551.0 592.0,551.4 592.0,551.7 592.0,552.1 592.0,552.4 592.0,552.8 592.0,553.2 592.0,553.5 592.0,686.0 592.0,687.9 591.8,689.8 591.6,691.7 591.2,693.6 590.8,695.5 590.2,697.3 589.6,699.1 588.9,700.8 588.0,702.6 587.1,704.2 586.1,705.9 585.0,707.4 583.9,708.9 582.6,710.4 581.3,711.8 580.0,713.1 578.5,714.3 577.0,715.5 575.4,716.6 573.8,717.6 510.0,754.4 507.7,755.6 505.3,756.7 502.9,757.8 500.5,758.9 498.1,759.8 495.6,760.7 493.1,761.6 490.6,762.4 488.1,763.1 485.5,763.8 483.0,764.4 480.4,764.9 477.8,765.4 475.2,765.8 472.6,766.2 470.0,766.5 467.4,766.7 464.8,766.9 462.1,767.0 459.5,767.0 444.8,767.0 444.3,767.0 443.8,767.0 443.3,767.0 442.8,767.0 442.4,767.0 441.9,767.0 441.4,767.0 440.9,767.0 440.4,767.0 439.9,767.0 439.4,766.9 439.0,766.9 438.5,766.9 438.0,766.9 437.5,766.9 437.0,766.9 436.5,766.9 436.1,766.9 435.6,766.8 435.1,766.8 434.6,766.8 434.1,766.8 433.6,766.8 433.1,766.7 432.7,766.7 432.2,766.7 431.7,766.7 431.2,766.6 430.7,766.6 430.2,766.6 429.8,766.6 429.3,766.5 428.8,766.5 428.3,766.5 427.8,766.4 427.3,766.4 426.9,766.4 426.4,766.4 425.9,766.3 425.4,766.3 424.9,766.2 424.4,766.2 424.0,766.2 423.5,766.1 423.0,766.1 422.5,766.0 422.0,766.0 421.5,766.0 421.1,765.9 420.6,765.9 420.1,765.8 419.6,765.8 419.1,765.7 418.6,765.7 418.2,765.6 417.7,765.6 417.2,765.5 416.7,765.5 416.2,765.4 415.7,765.4" fill="rgba(180,180,180,0.30)" stroke="#555" stroke-width="0.6"/>
<polygon points="74.0,717.3 73.8,717.3 73.6,717.2 73.5,717.2 73.3,717.1 73.1,717.0 73.0,717.0 72.8,716.9 72.7,716.7 72.6,716.6 72.4,716.5 72.3,716.4 72.2,716.2 72.1,716.1 72.0,715.9 72.0,715.7 71.9,715.6 71.9,715.4 71.8,715.2 71.8,715.0 71.8,714.9 71.8,526.0 71.8,525.4 71.8,524.7 71.8,524.1 71.9,523.5 71.9,522.8 71.9,522.2 72.0,521.5 72.0,520.9 72.0,520.2 72.1,519.6 72.2,519.0 72.2,518.3 72.3,517.7 72.4,517.1 72.4,516.4 72.5,515.8 72.6,515.1 72.7,514.5 72.8,513.9 72.9,513.2 94.3,392.2 94.6,390.6 95.1,388.9 95.7,387.3 96.4,385.7 97.2,384.2 98.1,382.8 99.1,381.4 100.2,380.1 101.4,378.8 102.7,377.7 104.0,376.6 105.4,375.7 106.9,374.8 108.5,374.1 110.0,373.4 111.7,372.9 113.3,372.5 115.0,372.2 116.7,372.0 118.4,372.0 189.6,372.0 191.5,372.0 193.4,372.3 195.3,372.6 197.2,373.2 199.0,373.8 200.7,374.6 202.4,375.6 204.0,376.6 205.5,377.8 206.9,379.1 208.3,380.6 209.4,382.1 210.5,383.7 211.5,385.4 212.3,387.1 212.9,388.9 213.5,390.8 213.8,392.7 214.1,394.6 214.1,396.5 214.1,405.8 214.1,406.1 214.2,406.3 214.2,406.5 214.3,406.7 214.4,406.9 214.4,407.2 214.6,407.4 214.7,407.5 214.8,407.7 215.0,407.9 215.2,408.1 215.3,408.2 215.5,408.3 215.7,408.4 215.9,408.5 216.2,408.6 216.4,408.7 216.6,408.7 216.8,408.8 217.1,408.8 226.4,408.8 469.3,408.8 471.0,408.7 472.6,408.5 474.2,408.3 475.8,407.9 477.4,407.4 478.9,406.8 480.4,406.2 481.9,405.4 483.3,404.5 484.6,403.6 485.9,402.5 487.1,401.4 488.2,400.2 489.2,398.9 490.2,397.6 491.1,396.2 491.8,394.7 492.5,393.3 493.1,391.7 493.6,390.1 493.9,389.1 494.2,388.1 494.6,387.1 495.0,386.1 495.5,385.2 496.0,384.2 496.6,383.3 497.2,382.4 497.8,381.6 498.5,380.7 499.2,379.9 499.9,379.1 500.7,378.4 501.5,377.7 502.3,377.0 503.2,376.4 504.1,375.8 505.0,375.2 506.0,374.7 506.9,374.3 507.9,373.8 508.9,373.4 509.9,373.1 510.9,372.8 512.0,372.5 513.0,372.3 514.1,372.2 515.1,372.0 516.2,372.0 517.3,372.0 518.4,372.0 519.4,372.0 520.5,372.2 521.5,372.3 522.6,372.5 523.6,372.8 524.7,373.1 525.7,373.4 526.7,373.8 527.7,374.3 528.6,374.7 529.5,375.2 530.5,375.8 531.4,376.4 532.2,377.0 533.1,377.7 533.9,378.4 534.6,379.1 535.4,379.9 536.1,380.7 536.7,381.6 537.4,382.4 538.0,383.3 538.5,384.2 539.0,385.2 539.5,386.1 540.0,387.1 540.3,388.1 540.7,389.1 541.0,390.1 579.7,534.6 579.8,534.9 579.9,535.2 579.9,535.6 580.0,535.9 580.1,536.2 580.2,536.5 580.2,536.8 580.3,537.1 580.4,537.4 580.5,537.7 580.5,538.0 580.6,538.3 580.7,538.7 580.7,539.0 580.8,539.3 580.8,539.6 580.9,539.9 581.0,540.2 581.0,540.5 581.1,540.8 581.1,541.2 581.2,541.5 581.2,541.8 581.3,542.1 581.3,542.4 581.4,542.7 581.4,543.0 581.5,543.4 581.5,543.7 581.6,544.0 581.6,544.3 581.6,544.6 581.7,544.9 581.7,545.3 581.8,545.6 581.8,545.9 581.8,546.2 581.8,546.5 581.9,546.8 581.9,547.2 581.9,547.5 582.0,547.8 582.0,548.1 582.0,548.4 582.0,548.8 582.0,549.1 582.1,549.4 582.1,549.7 582.1,550.0 582.1,550.3 582.1,550.7 582.1,551.0 582.2,551.3 582.2,551.6 582.2,551.9 582.2,552.3 582.2,552.6 582.2,552.9 582.2,553.2 582.2,553.5 582.2,686.0 582.1,687.4 582.0,688.8 581.9,690.2 581.6,691.6 581.3,692.9 580.9,694.2 580.4,695.6 579.9,696.8 579.3,698.1 578.6,699.3 577.9,700.5 577.1,701.7 576.3,702.8 575.4,703.8 574.4,704.8 573.4,705.8 572.3,706.7 571.2,707.5 570.1,708.3 568.9,709.1 508.3,744.1 506.1,745.4 503.8,746.5 501.5,747.7 499.2,748.7 496.9,749.8 494.5,750.7 492.1,751.6 489.7,752.4 487.2,753.2 484.8,753.9 482.3,754.5 479.8,755.1 477.3,755.6 474.8,756.0 472.2,756.4 469.7,756.7 467.2,756.9 464.6,757.1 462.1,757.2 459.5,757.2 444.8,757.2 444.3,757.2 443.8,757.2 443.4,757.2 442.9,757.2 442.4,757.2 442.0,757.2 441.5,757.2 441.0,757.2 440.6,757.2 440.1,757.1 439.6,757.1 439.2,757.1 438.7,757.1 438.2,757.1 437.8,757.1 437.3,757.1 436.8,757.1 436.4,757.0 435.9,757.0 435.4,757.0 435.0,757.0 434.5,757.0 434.0,757.0 433.6,756.9 433.1,756.9 432.6,756.9 432.2,756.9 431.7,756.8 431.3,756.8 430.8,756.8 430.3,756.8 429.9,756.7 429.4,756.7 428.9,756.7 428.5,756.7 428.0,756.6 427.5,756.6 427.1,756.6 426.6,756.5 426.1,756.5 425.7,756.5 425.2,756.4 424.7,756.4 424.3,756.3 423.8,756.3 423.3,756.3 422.9,756.2 422.4,756.2 421.9,756.1 421.5,756.1 421.0,756.1 420.5,756.0 420.1,756.0 419.6,755.9 419.2,755.9 418.7,755.8 418.2,755.8 417.8,755.7 417.3,755.7 416.8,755.6" fill="white" stroke="#1565C0" stroke-width="0.6"/>
<polygon points="167.5,578.1 582.2,578.1 582.2,570.7 167.5,570.7" fill="rgba(100,100,100,0.25)" stroke="#666" stroke-width="0.4"/>
<polygon points="71.8,551.1 167.5,551.1 167.5,543.7 71.8,543.7" fill="rgba(100,100,100,0.25)" stroke="#666" stroke-width="0.4"/>
<circle cx="72.9" cy="727.1" r="1.2" fill="#555"/>
<text x="75.9" y="725.1" font-family="Arial" font-size="4.5" fill="#555">F0</text>
<circle cx="62.0" cy="714.9" r="1.2" fill="#555"/>
<text x="65.0" y="712.9" font-family="Arial" font-size="4.5" fill="#555">F1</text>
<circle cx="62.0" cy="526.0" r="1.2" fill="#555"/>
<text x="65.0" y="524.0" font-family="Arial" font-size="4.5" fill="#555">F2</text>
<circle cx="63.3" cy="511.5" r="1.2" fill="#555"/>
<text x="66.3" y="509.5" font-family="Arial" font-size="4.5" fill="#555">F3</text>
<circle cx="84.6" cy="390.5" r="1.2" fill="#555"/>
<text x="87.6" y="388.5" font-family="Arial" font-size="4.5" fill="#555">F5</text>
<circle cx="118.4" cy="362.1" r="1.2" fill="#555"/>
<text x="121.4" y="360.1" font-family="Arial" font-size="4.5" fill="#555">F6</text>
<circle cx="189.6" cy="362.1" r="1.2" fill="#555"/>
<text x="192.6" y="360.1" font-family="Arial" font-size="4.5" fill="#555">F7</text>
<circle cx="223.9" cy="396.5" r="1.2" fill="#555"/>
<text x="226.9" y="394.5" font-family="Arial" font-size="4.5" fill="#555">F8</text>
<circle cx="226.4" cy="398.9" r="1.2" fill="#555"/>
<text x="229.4" y="396.9" font-family="Arial" font-size="4.5" fill="#555">F9</text>
<circle cx="469.3" cy="398.9" r="1.2" fill="#555"/>
<text x="472.3" y="396.9" font-family="Arial" font-size="4.5" fill="#555">F10</text>
<circle cx="484.1" cy="387.6" r="1.2" fill="#555"/>
<text x="487.1" y="385.6" font-family="Arial" font-size="4.5" fill="#555">F11</text>
<circle cx="550.5" cy="387.6" r="1.2" fill="#555"/>
<text x="553.5" y="385.6" font-family="Arial" font-size="4.5" fill="#555">F12</text>
<circle cx="589.2" cy="532.1" r="1.2" fill="#555"/>
<text x="592.2" y="530.1" font-family="Arial" font-size="4.5" fill="#555">F13</text>
<circle cx="592.0" cy="553.5" r="1.2" fill="#555"/>
<text x="595.0" y="551.5" font-family="Arial" font-size="4.5" fill="#555">F14</text>
<circle cx="592.0" cy="686.0" r="1.2" fill="#555"/>
<text x="595.0" y="684.0" font-family="Arial" font-size="4.5" fill="#555">F15</text>
<circle cx="573.8" cy="717.6" r="1.2" fill="#555"/>
<text x="576.8" y="715.6" font-family="Arial" font-size="4.5" fill="#555">F16</text>
<circle cx="510.0" cy="754.4" r="1.2" fill="#555"/>
<text x="513.0" y="752.4" font-family="Arial" font-size="4.5" fill="#555">F17</text>
<circle cx="459.5" cy="767.0" r="1.2" fill="#555"/>
<text x="462.5" y="765.0" font-family="Arial" font-size="4.5" fill="#555">F18</text>
<circle cx="444.8" cy="767.0" r="1.2" fill="#555"/>
<text x="447.8" y="765.0" font-family="Arial" font-size="4.5" fill="#555">F19</text>
<circle cx="415.7" cy="765.4" r="1.2" fill="#555"/>
<text x="418.7" y="763.4" font-family="Arial" font-size="4.5" fill="#555">F20</text>
<circle cx="74.0" cy="717.3" r="1.0" fill="#1565C0"/>
<circle cx="71.8" cy="714.9" r="1.0" fill="#1565C0"/>
<circle cx="71.8" cy="526.0" r="1.0" fill="#1565C0"/>
<circle cx="72.9" cy="513.2" r="1.0" fill="#1565C0"/>
<circle cx="94.3" cy="392.2" r="1.0" fill="#1565C0"/>
<circle cx="118.4" cy="372.0" r="1.0" fill="#1565C0"/>
<circle cx="189.6" cy="372.0" r="1.0" fill="#1565C0"/>
<circle cx="214.1" cy="396.5" r="1.0" fill="#1565C0"/>
<circle cx="226.4" cy="408.8" r="1.0" fill="#1565C0"/>
<circle cx="469.3" cy="408.8" r="1.0" fill="#1565C0"/>
<circle cx="493.6" cy="390.1" r="1.0" fill="#1565C0"/>
<circle cx="541.0" cy="390.1" r="1.0" fill="#1565C0"/>
<circle cx="579.7" cy="534.6" r="1.0" fill="#1565C0"/>
<circle cx="582.2" cy="553.5" r="1.0" fill="#1565C0"/>
<circle cx="582.2" cy="686.0" r="1.0" fill="#1565C0"/>
<circle cx="568.9" cy="709.1" r="1.0" fill="#1565C0"/>
<circle cx="508.3" cy="744.1" r="1.0" fill="#1565C0"/>
<circle cx="459.5" cy="757.2" r="1.0" fill="#1565C0"/>
<circle cx="444.8" cy="757.2" r="1.0" fill="#1565C0"/>
<circle cx="416.8" cy="755.6" r="1.0" fill="#1565C0"/>
<line x1="506.1" y1="40" x2="506.1" y2="767.0" stroke="#C62828" stroke-width="0.4" stroke-dasharray="2,3" opacity="0.35"/>
<text x="607" y="787" text-anchor="end" font-family="Arial" font-size="5" fill="#ccc">v0.1-367-g2721866</text>
</svg>